<?xml version="1.0" encoding="UTF-8"?>
<svg width="378px" height="464px" viewBox="0 0 378 464" xmlns="http://www.w3.org/2000/svg" xmlns:xlink="http://www.w3.org/1999/xlink" version="1.1">
 <!-- Generated by Pixelmator Pro 1.6.4 -->
 <path id="Path" d="M0.87 359.58 L0.87 419.19 C0.87 443.59 20.65 463.37 45.05 463.37 L332.34 463.37 C344.057 463.37 355.295 458.715 363.58 450.43 371.865 442.145 376.52 430.907 376.52 419.19 L376.52 359.58 Z M55.33 423.39 C50.513 423.39 46.17 420.488 44.327 416.038 42.483 411.587 43.502 406.465 46.908 403.058 50.315 399.652 55.437 398.633 59.888 400.477 64.338 402.32 67.24 406.663 67.24 411.48 67.24 418.058 61.908 423.39 55.33 423.39 Z M321.71 423.39 L106.71 423.39 106.71 399.5 321.71 399.5 Z" fill="#ffffff" fill-opacity="1" stroke="none"/>
 <path id="Path-1" d="M189.35 145.41 C159.89 145.377 130.841 152.319 104.58 165.67 L104.58 0.67 0.93 0.67 0.93 334 105.25 334 C105.25 333.73 105.25 333.45 105.25 333.17 105.25 286.712 142.912 249.05 189.37 249.05 235.828 249.05 273.49 286.712 273.49 333.17 L273.49 334 377.12 334 C377.12 333.73 377.12 333.45 377.12 333.17 377.13 229.65 292.89 145.41 189.35 145.41 Z" fill="#ffffff" fill-opacity="1" stroke="none"/>
</svg>
