<?xml version="1.0" encoding="UTF-8"?>
<svg width="378px" height="462px" viewBox="0 0 378 462" xmlns="http://www.w3.org/2000/svg" xmlns:xlink="http://www.w3.org/1999/xlink" version="1.1">
 <!-- Generated by Pixelmator Pro 1.6.4 -->
 <path id="Path" d="M0.87 357.58 L0.87 417.19 C0.87 441.59 20.65 461.37 45.05 461.37 L332.34 461.37 C344.057 461.37 355.295 456.715 363.58 448.43 371.865 440.145 376.52 428.907 376.52 417.19 L376.52 357.58 Z M55.33 422.39 C50.107 422.394 45.397 419.251 43.396 414.427 41.394 409.604 42.496 404.049 46.188 400.355 49.879 396.66 55.433 395.554 60.258 397.552 65.083 399.549 68.23 404.258 68.23 409.48 68.233 412.903 66.875 416.187 64.455 418.608 62.036 421.03 58.753 422.39 55.33 422.39 Z M321.71 421.39 L106.71 421.39 106.71 397.5 321.71 397.5 Z" fill="#000000" fill-opacity="1" stroke="none"/>
 <path id="Path-1" d="M189.35 145.41 C159.892 145.378 130.844 152.317 104.58 165.66 L104.58 0.66 0.93 0.66 0.93 334 105.25 334 C105.25 333.72 105.25 333.44 105.25 333.17 105.25 286.712 142.912 249.05 189.37 249.05 235.828 249.05 273.49 286.712 273.49 333.17 L273.49 334 377.12 334 C377.12 333.72 377.12 333.44 377.12 333.17 377.13 229.65 292.89 145.41 189.35 145.41 Z" fill="#000000" fill-opacity="1" stroke="none"/>
</svg>
