<svg xmlns="http://www.w3.org/2000/svg" width="21" height="20" fill="none"><g clip-path="url(#a)"><path fill="#F0F0F0" d="M10.5 20c5.523 0 10-4.477 10-10s-4.477-10-10-10S.5 4.477.5 10s4.477 10 10 10Z"/><path fill="#000" d="m6.152 13.478.87 5.9a10.004 10.004 0 0 0 12.856-5.9H6.152Z"/><path fill="#6DA544" d="m6.152 6.522.87-5.9a10.004 10.004 0 0 1 12.856 5.9H6.152Z"/><path fill="#A2001D" d="M.5 10c0 4.3 2.714 7.965 6.522 9.378V.622A10.004 10.004 0 0 0 .5 10Z"/></g><defs><clipPath id="a"><path fill="#fff" d="M.5 0h20v20H.5z"/></clipPath></defs></svg>