<svg xmlns="http://www.w3.org/2000/svg" width="20" height="20" fill="none"><path fill="#50AF95" fill-rule="evenodd" d="M3.662 1.386.015 9.046a.149.149 0 0 0 .032.174l9.849 9.437a.15.15 0 0 0 .208 0l9.849-9.437a.149.149 0 0 0 .032-.173l-3.647-7.66a.148.148 0 0 0-.134-.086H3.798a.147.147 0 0 0-.136.085Z" clip-rule="evenodd"/><path fill="#fff" fill-rule="evenodd" d="M11.265 9.833c-.07.005-.436.027-1.25.027-.649 0-1.109-.02-1.27-.027-2.505-.11-4.375-.546-4.375-1.068s1.87-.958 4.375-1.07V9.4c.163.012.632.04 1.28.04.778 0 1.168-.033 1.238-.04V7.696c2.5.112 4.365.548 4.365 1.069 0 .52-1.865.957-4.365 1.067l.002.001Zm0-2.313V5.996h3.489V3.671H5.256v2.325h3.488V7.52c-2.835.13-4.967.691-4.967 1.364 0 .673 2.132 1.234 4.967 1.365v4.885h2.52v-4.887c2.829-.13 4.957-.69 4.957-1.363S14.095 7.65 11.265 7.52Z" clip-rule="evenodd"/><path fill="#2D374B" d="m16.08 13.582.735-1.246 1.98 3.083v.591l-.007-4.071a.307.307 0 0 0-.141-.245l-3.564-2.05a.314.314 0 0 0-.304.02l-.013.008-3.459 2.005-.013.006a.306.306 0 0 0-.179.26l.005 3.318 1.844-2.858c.232-.379.738-.5 1.207-.494l.552.014-3.247 5.207.382.22 3.286-5.422 1.452-.005-3.277 5.559 1.366.786.163.094c.07.028.149.03.22.004l3.614-2.094-.691.4-1.91-3.09Zm.28 4.035-1.379-2.165.842-1.428 1.812 2.855-1.275.738Z"/><path fill="#28A0F0" d="m14.981 15.452 1.38 2.165 1.274-.738-1.812-2.856-.842 1.43Zm3.814.558v-.591l-1.98-3.083-.735 1.246 1.911 3.09.691-.4a.306.306 0 0 0 .113-.223v-.039Z"/><path fill="#fff" d="m10.5 16.568.976.562 3.247-5.206-.551-.015c-.47-.006-.976.116-1.208.495l-1.843 2.857-.62.953v.355Zm6.097-4.644-1.453.005-3.285 5.422 1.148.661.312-.53 3.278-5.558Z"/><path fill="#96BEDC" d="M19.407 11.916a.926.926 0 0 0-.434-.744l-3.61-2.076a.94.94 0 0 0-.829 0c-.03.015-3.51 2.034-3.51 2.034a.93.93 0 0 0-.524.784v4.3l.62-.953-.005-3.317a.31.31 0 0 1 .128-.231c.016-.012 3.556-2.061 3.568-2.067a.314.314 0 0 1 .272 0l3.564 2.049a.308.308 0 0 1 .142.244v4.11a.3.3 0 0 1-.107.223l-.691.4-.357.207-1.274.738-1.292.75a.313.313 0 0 1-.22-.005l-1.529-.88-.312.53 1.374.791c.045.026.086.05.12.068l.098.054a.92.92 0 0 0 .701.012l3.753-2.174a.918.918 0 0 0 .354-.691v-4.156Z"/></svg>