<svg width="20" height="20" fill="none" xmlns="http://www.w3.org/2000/svg"><circle cx="10" cy="10" r="10" fill="#151515"/><path d="m7.042 16.205.323-1.484c.36-1.655-.906-3.218-2.605-3.218H3.284a6.893 6.893 0 0 0 3.758 4.702Z" fill="url(#a)"/><path d="M7.69 16.474a6.91 6.91 0 0 0 2.328.401 6.897 6.897 0 0 0 6.734-5.372H12.25a4.309 4.309 0 0 0-4.215 3.389l-.344 1.582Z" fill="url(#b)"/><path d="M16.87 10.816a6.92 6.92 0 0 0 .048-.817c0-3.607-2.787-6.565-6.333-6.852l-.967 4.451c-.36 1.655.906 3.218 2.605 3.218h4.647Z" fill="url(#c)"/><path d="M9.884 3.125c-3.749.071-6.766 3.122-6.766 6.874 0 .277.017.55.048.817h1.568c2.03 0 3.786-1.411 4.215-3.388l.935-4.303Z" fill="url(#d)"/><defs><linearGradient id="a" x1="11.257" y1="3.125" x2="8.55" y2="16.897" gradientUnits="userSpaceOnUse"><stop stop-color="#F4D5B1"/><stop offset="1" stop-color="#FFD29F"/></linearGradient><linearGradient id="b" x1="11.257" y1="3.125" x2="8.55" y2="16.897" gradientUnits="userSpaceOnUse"><stop stop-color="#F4D5B1"/><stop offset="1" stop-color="#FFD29F"/></linearGradient><linearGradient id="c" x1="11.257" y1="3.125" x2="8.55" y2="16.897" gradientUnits="userSpaceOnUse"><stop stop-color="#F4D5B1"/><stop offset="1" stop-color="#FFD29F"/></linearGradient><linearGradient id="d" x1="11.257" y1="3.125" x2="8.55" y2="16.897" gradientUnits="userSpaceOnUse"><stop stop-color="#F4D5B1"/><stop offset="1" stop-color="#FFD29F"/></linearGradient></defs></svg>