<svg xmlns="http://www.w3.org/2000/svg" width="20" height="20" fill="none"><circle cx="10" cy="10" r="10" fill="#fff"/><path fill="#000" fill-rule="evenodd" d="M10 18.375c.492 0 .974-.042 1.443-.124l.032-.005a8.328 8.328 0 0 0 3.169-1.275l.021-.015a8.42 8.42 0 0 0 1.364-1.143A8.347 8.347 0 0 0 18.375 10a8.35 8.35 0 0 0-2.345-5.813 8.417 8.417 0 0 0-1.387-1.158A8.326 8.326 0 0 0 10 1.625a8.336 8.336 0 0 0-6 2.532A8.35 8.35 0 0 0 1.625 10a8.35 8.35 0 0 0 2.48 5.948A8.354 8.354 0 0 0 10 18.375ZM10 20c5.523 0 10-4.477 10-10S15.523 0 10 0 0 4.477 0 10s4.477 10 10 10Z" clip-rule="evenodd"/><path fill="#000" fill-rule="evenodd" d="M18.364 10.438a8.578 8.578 0 0 0-.064-1.563c-.594.333-1.618.667-3.137.905a36.59 36.59 0 0 1-.465 1.639c.255-.033.497-.07.728-.108 1.41-.236 2.37-.555 2.938-.873Zm-5.37 1.152a41.36 41.36 0 0 1-2.93.098c-1.13 0-2.15-.039-3.06-.106A38.73 38.73 0 0 1 6.51 10l-.005-.018.01.001c1.006.09 2.164.142 3.485.142 1.32 0 2.479-.052 3.485-.142h.01L13.49 10a38.73 38.73 0 0 1-.496 1.59Z" clip-rule="evenodd"/><path fill="#000" d="M10 1.625c-.49 0-.97.042-1.438.123-.766.664-1.846 2.774-2.763 5.345.194.976.435 1.948.706 2.89h.01c.154-.533.318-1.057.488-1.565C7.972 5.532 9.155 3.133 10 2.125c.844 1.007 2.026 3.403 2.994 6.285.171.51.336 1.037.491 1.573h.01c.272-.943.513-1.917.707-2.895-.915-2.568-1.993-4.675-2.76-5.34-.008 0-.016-.002-.025-.004A8.43 8.43 0 0 0 10 1.625Z"/><path fill="#000" d="M5.3 11.409c.159.511.326 1.013.5 1.498a35.2 35.2 0 0 1 .705-2.89L6.51 10l-.005-.018a35.408 35.408 0 0 1-.706-2.89 37.189 37.189 0 0 0-.961 3.127c-.093.36-.18.721-.26 1.081.229.039.47.075.723.108Z"/><path fill="#000" d="M1.7 8.875a8.452 8.452 0 0 0-.064 1.563c.56.314 1.532.628 2.941.862A36.382 36.382 0 0 1 5.8 7.092c-.27-1.36-.449-2.727-.492-4.03a8.46 8.46 0 0 0-1.307 1.095c0 1.689.334 3.676.838 5.624-1.52-.239-2.544-.572-3.138-.906Z"/><path fill="#000" fill-rule="evenodd" d="M10 20c5.523 0 10-4.477 10-10S15.523 0 10 0 0 4.477 0 10s4.477 10 10 10ZM1.7 8.875a8.452 8.452 0 0 0-.064 1.563A8.346 8.346 0 0 0 4 15.843c0-1.377.222-2.952.577-4.543.23.039.47.075.724.108.158.512.325 1.014.498 1.5-.27 1.36-.449 2.727-.492 4.03A8.327 8.327 0 0 0 10 18.375c.492 0 .974-.042 1.443-.124l.032-.005a8.328 8.328 0 0 0 3.169-1.275l.021-.015a8.42 8.42 0 0 0 1.364-1.143A8.346 8.346 0 0 0 18.376 10c0-.382-.026-.757-.075-1.125l-.003-.02a8.35 8.35 0 0 0-2.267-4.668 8.417 8.417 0 0 0-1.387-1.158 8.327 8.327 0 0 0-3.2-1.28l-.026-.005a8.43 8.43 0 0 0-2.854.004 8.327 8.327 0 0 0-3.256 1.315c-.472.32-.91.687-1.307 1.094a8.35 8.35 0 0 0-2.3 4.718Z" clip-rule="evenodd"/><path fill="#000" d="M8.563 18.252a8.428 8.428 0 0 0 2.88 0c.766-.665 1.844-2.772 2.759-5.34a35.35 35.35 0 0 0-.707-2.894L13.49 10a38.73 38.73 0 0 1-.496 1.59c-.968 2.882-2.15 5.278-2.994 6.285-.845-1.008-2.028-3.407-2.997-6.293A38.73 38.73 0 0 1 6.51 10l-.005.018a35.414 35.414 0 0 0-.706 2.89c.917 2.57 1.997 4.68 2.763 5.344Z"/><path fill="#000" d="M14.698 11.42c.144-.467.28-.942.408-1.42a36.587 36.587 0 0 0-.904-2.912 35.339 35.339 0 0 1-.707 2.894L13.49 10l.005.018c.272.942.513 1.916.707 2.894.172-.483.338-.983.496-1.493Z"/><path fill="#000" d="M15.426 11.31c-.23.04-.473.076-.728.11a38.35 38.35 0 0 1-.496 1.492c.27 1.358.448 2.724.491 4.025l-.028.02a8.42 8.42 0 0 0 1.364-1.144l-.029.03c0-1.374-.22-2.945-.574-4.532ZM16 4.157l.03.03a8.417 8.417 0 0 0-1.387-1.158l.05.034c-.043 1.3-.222 2.667-.491 4.025A37.007 37.007 0 0 1 15.106 10c.02-.073.038-.146.057-.22.504-1.947.837-3.934.837-5.623Z"/></svg>