<svg width="20" height="20" fill="none" xmlns="http://www.w3.org/2000/svg"><circle cx="10" cy="10" r="10" fill="#12272D"/><path fill-rule="evenodd" clip-rule="evenodd" d="M16.127 12.118H15.9c-.49-.002-.945-.398-.94-.817.006-.435.448-.817.943-.815.067 0 .133.002.2.004.158.003.317.007.474-.005.305-.022.4-.153.414-.553.011-.315-.145-.45-.447-.46a14.4 14.4 0 0 0-.223-.006 4.661 4.661 0 0 1-.688-.048c-.364-.062-.663-.428-.671-.753-.008-.307.272-.656.636-.747.17-.043.355-.046.532-.042.034 0 .067 0 .098.002.612.012.808.016.767-.886-.017-.367-.155-.49-.538-.49-.864-.002-1.727-.002-2.59 0l-.04-.001h-1.534c-.258.001-.403.125-.41.368-.006.24-.004.48-.003.72l.001.31-.029.853c-.009.309-.122.44-.44.478-.376.044-.635-.057-.664-.433a.419.419 0 0 0-.01-.056.385.385 0 0 1-.01-.063l-.04-.795-.05-1.004c-.012-.238-.16-.376-.406-.378h-.438c-.271.002-.401.112-.423.373-.015.184-.023.369-.032.553l-.014.285-.015.287c-.014.26-.027.52-.049.78-.025.3-.153.433-.455.455-.422.03-.652-.086-.655-.532a83.429 83.429 0 0 0-.014-.906l-.01-.503.001-.172V6.98l.001-.008v-.008a.4.4 0 0 0-.002-.047l-.001-.044c-.01-.211-.143-.366-.34-.37h-.072c-.014-.003-.029-.002-.044-.001H3.345c-.198.005-.334.16-.344.37v.22L3 12.953v.086l.001.089c.01.212.146.367.344.372h.954c.267 0 .408-.136.419-.392l.003-.09c.004-.105.007-.209.02-.312.044-.324.22-.492.553-.53.144-.015.291-.015.433 0 .334.038.488.206.53.53.015.103.018.207.022.311l.003.09c.011.257.152.39.42.392.352 0 .706.002 1.059 0h1.138c.23-.002.392-.15.408-.363.017-.226.03-.453.045-.679.015-.242.03-.484.048-.725l.005-.066c.017-.216.033-.434.083-.643.08-.336.393-.495.71-.384.22.077.319.254.351.457a9.76 9.76 0 0 1 .088.832c.015.184.028.368.04.551.015.213.03.424.048.636.021.247.167.383.43.384H16.496c.32-.001.429-.093.476-.389.031-.193.036-.397.01-.591-.037-.295-.177-.395-.49-.4a17.102 17.102 0 0 0-.366 0Zm-10.824-1.63a.522.522 0 0 1-.398-.387c-.06-.229-.059-.459.071-.666.133-.212.394-.293.679-.23.22.05.377.223.414.462.006.04.009.08.012.12l.005.061c.022.549-.43.734-.783.64Z" fill="#E0E0E0"/></svg>