<svg xmlns="http://www.w3.org/2000/svg" width="20" height="20" fill="none"><g clip-path="url(#a)"><path stroke="#45737C" stroke-width="1.4" d="M5.96 3.243c-1.322.73-2.347 1.737-3.074 3.018a.048.048 0 0 1-.064.02l-.38-.188a.06.06 0 0 0-.08.027c-.017.034-.01.06.024.077.12.062.243.13.371.205.025.013.031.033.02.059-.519 1.127-.85 2.166-.88 3.475a.116.116 0 0 1-.025.072.162.162 0 0 1-.058.046c-.031.016-.034.036-.01.06l.068.068a.087.087 0 0 1 .026.062 7.545 7.545 0 0 0 .908 3.458c.014.026.01.048-.014.067-.104.081-.341.173-.41.255-.044.05-.028.08.048.09.013.002.026 0 .037-.006l.387-.208c.03-.017.054-.01.071.02a7.764 7.764 0 0 0 3.015 2.906.073.073 0 0 1 .037.047.075.075 0 0 1-.01.059 3.47 3.47 0 0 0-.242.434c-.02.04-.008.069.035.084.029.01.05.002.064-.024l.265-.462c.015-.026.035-.032.061-.02a8.07 8.07 0 0 0 3.515.803"/><path stroke="#265A68" stroke-width="1.4" d="m9.666 17.747.008.403a.07.07 0 0 1-.078.072l-1.532-.16a.063.063 0 0 0-.047.011.065.065 0 0 0-.025.067.062.062 0 0 0 .052.047c.524.113 1.037.126 1.57.154.03.001.046.017.047.045l.014.256c.002.04-.017.059-.056.058h-.417c-.023 0-.03.01-.02.031a.08.08 0 0 0 .018.027.098.098 0 0 0 .058.028c.31.053.606.055.888.004.032-.005.05-.022.053-.05.002-.026-.01-.04-.037-.04H9.82c-.026 0-.04-.013-.04-.04v-.262a.068.068 0 0 1 .068-.068 8.6 8.6 0 0 0 1.537-.16c.025-.004.037-.02.036-.044V18.1a.03.03 0 0 0-.01-.023.03.03 0 0 0-.011-.007c-.005-.001-.009-.002-.013-.001l-1.534.155c-.032.003-.054-.01-.064-.042a.725.725 0 0 1-.022-.384c-.021-.017-.003-.035.053-.055"/><path stroke="#45737C" stroke-width="1.4" d="M9.82 17.744a8.031 8.031 0 0 0 3.449-.794.065.065 0 0 1 .084.027l.274.473a.056.056 0 0 0 .073.017.055.055 0 0 0 .023-.071l-.253-.469a.08.08 0 0 1 .032-.108 7.734 7.734 0 0 0 2.989-2.9c.014-.024.035-.032.061-.021.147.055.287.125.42.208.04.026.068.018.085-.02a.046.046 0 0 0 .002-.034.048.048 0 0 0-.021-.026l-.423-.252c-.021-.012-.026-.03-.014-.052a7.75 7.75 0 0 0 .92-3.488c0-.02.009-.04.023-.055.066-.067.067-.133.003-.199a.085.085 0 0 1-.025-.058 7.91 7.91 0 0 0-.891-3.447c-.014-.026-.009-.048.015-.066.109-.08.224-.146.347-.2.051-.021.073-.055.064-.1a.04.04 0 0 0-.04-.033.04.04 0 0 0-.018.004l-.361.182a.109.109 0 0 1-.144-.043 7.53 7.53 0 0 0-2.712-2.785"/><path stroke="#265A68" stroke-width="1.4" d="m13.782 3.434-.292-.178c-.027-.017-.033-.04-.019-.069l.237-.465c.012-.025.006-.045-.018-.058a.052.052 0 0 0-.042-.005c-.02.006-.037.022-.053.048l-.257.429c-.012.022-.03.027-.053.015a7.203 7.203 0 0 0-1.929-.687.045.045 0 0 1-.036-.044v-.403c0-.05-.024-.08-.073-.088a8.686 8.686 0 0 0-1.419-.144.049.049 0 0 1-.048-.049v-.082c0-.012.004-.023.013-.032a.05.05 0 0 1 .031-.016l.164-.016a.062.062 0 0 0 .007-.124 1.335 1.335 0 0 0-.572 0 .068.068 0 0 0 .015.134h.176c.038 0 .054.018.048.055l-.014.095a.054.054 0 0 1-.018.034.056.056 0 0 1-.037.013 6.932 6.932 0 0 0-1.423.136.086.086 0 0 0-.07.085V2.4c0 .04-.02.063-.058.071a7.56 7.56 0 0 0-1.908.68.054.054 0 0 1-.04.004.052.052 0 0 1-.03-.025l-.25-.445c-.015-.029-.04-.035-.076-.02a.042.042 0 0 0-.023.024.04.04 0 0 0 .001.032l.245.521"/><path stroke="#5DA9AD" stroke-width="1.4" d="M13.782 3.434a.13.13 0 0 1-.07.004c-.023-.005-.035.005-.034.03l.002.13"/><path stroke="#265A68" stroke-width="1.4" d="M13.68 3.598a7.811 7.811 0 0 0-2.485-.979c-.023-.005-.035-.019-.035-.042v-.433c0-.028-.014-.045-.041-.05a7.83 7.83 0 0 0-1.29-.136c-.033-.001-.049.014-.049.046v.367c0 .034.017.052.05.054l.445.027a.06.06 0 0 1 .056.062l-.014 1.035a.11.11 0 0 0 .097.111l.52.067a.058.058 0 0 1 .051.061l-.02.366c0 .012.006.02.018.024l1.084.345a.065.065 0 0 1 .043.042c.021.066.014.103-.022.113-.013.003-.44-.165-.52-.179-.034-.006-.055.009-.06.043l-.104.604a.047.047 0 0 1-.022.033.046.046 0 0 1-.04.003l-.09-.034c-.025-.01-.034-.026-.027-.052l.175-.614c.01-.035-.003-.056-.037-.064l-.444-.11c-.043-.011-.064-.039-.062-.082l.014-.328a.052.052 0 0 0-.045-.054l-.5-.06c-.067-.01-.101-.048-.102-.116L10.22 2.61a.053.053 0 0 0-.054-.052h-.898a.055.055 0 0 0-.039.017.056.056 0 0 0-.016.039L9.196 3.71a.077.077 0 0 1-.068.076l-.518.068c-.045.006-.065.031-.06.076l.04.316a.047.047 0 0 1-.035.051l-.463.108c-.069.016-.094.057-.076.125l.152.556c.01.035-.003.061-.036.077l-.045.022A.06.06 0 0 1 8 5.14l-.1-.587a.082.082 0 0 0-.11-.063l-.446.183a.039.039 0 0 1-.026.001.04.04 0 0 1-.022-.015c-.03-.044-.003-.084.083-.12a7.274 7.274 0 0 1 1.034-.34c.032-.009.047-.03.047-.062v-.36c0-.014.005-.026.014-.036a.053.053 0 0 1 .034-.018l.555-.065a.043.043 0 0 0 .027-.014.041.041 0 0 0 .01-.027v-1.05c0-.076.038-.116.113-.122l.385-.027c.035-.002.054-.02.058-.057l.03-.368c.004-.042-.016-.061-.058-.057l-1.303.134c-.038.004-.057.025-.058.063l-.01.399a.11.11 0 0 1-.089.105 7.23 7.23 0 0 0-2.064.746"/><path stroke="#5DA9AD" stroke-width="1.4" d="M6.103 3.384c-.034-.115-.081-.162-.142-.14m3.859 14.5-.154.003"/><path stroke="#45737C" stroke-width="1.4" d="M13.68 3.598c2.257 1.352 3.581 3.75 3.655 6.362a.037.037 0 0 1-.022.035.035.035 0 0 1-.014.003l-1.703.01a.052.052 0 0 1-.05-.032c-.194-.386-.724-.072-.591.205.134.282.446.341.593.024a.07.07 0 0 1 .068-.044l1.682-.003c.022 0 .033.01.033.033-.118 4.194-3.358 7.297-7.523 7.386-.029 0-.044-.013-.044-.043L9.757 16.4a.05.05 0 0 0-.01-.028.049.049 0 0 0-.025-.017.028.028 0 0 0-.024.003.027.027 0 0 0-.011.021l-.025 1.126c0 .033-.018.051-.051.053a3.878 3.878 0 0 1-.477-.01c-3.898-.28-6.966-3.402-7.043-7.322a.084.084 0 0 1 .051-.08.082.082 0 0 1 .033-.006l1.648.02a.057.057 0 0 1 .052.035c.187.428.723.126.588-.191-.129-.302-.419-.244-.596-.017a.086.086 0 0 1-.067.033H2.14c-.033 0-.049-.016-.048-.049.052-2.833 1.542-5.229 4.01-6.587"/><path stroke="#265A68" stroke-width="1.4" d="M12.838 2.556a.067.067 0 0 0 .004-.056.096.096 0 0 0-.072-.059.086.086 0 0 0-.032 0 .072.072 0 0 0-.027.012.062.062 0 0 0-.02.021.067.067 0 0 0-.003.056c.007.02.022.037.041.048.01.005.02.01.031.01.01.003.021.003.032 0a.073.073 0 0 0 .027-.01.063.063 0 0 0 .019-.022Zm-6.136-.033a.069.069 0 1 0-.138 0 .069.069 0 0 0 .138 0Z"/><path stroke="#43646C" stroke-width="1.4" d="M1.434 10.572c.011 0 .022-.012.032-.036.01-.024.02-.06.027-.105.008-.044.015-.097.02-.156a2.698 2.698 0 0 0-.011-.526c-.014-.09-.034-.141-.056-.142-.01 0-.021.012-.031.037a.527.527 0 0 0-.028.104 2.69 2.69 0 0 0-.008.682c.014.09.034.142.055.142Zm16.619-.882a.064.064 0 0 0-.04-.06.064.064 0 0 0-.025-.005h-.005a.065.065 0 0 0-.064.065l.004.8a.065.065 0 0 0 .04.06.064.064 0 0 0 .025.004h.005a.065.065 0 0 0 .06-.04.062.062 0 0 0 .005-.025l-.005-.8Z"/><path stroke="#265A68" stroke-width="1.4" d="M6.739 17.475a.082.082 0 1 0-.165 0 .082.082 0 0 0 .165 0Z"/><path stroke="#286875" stroke-width="1.4" d="M12.797 17.43c-.027-.04-.049-.037-.064.01-.024.072-.003.107.062.103a.04.04 0 0 0 .036-.023.043.043 0 0 0-.003-.043l-.031-.047Z"/><path stroke="#6F766A" stroke-width="1.4" d="M9.697 3.6c-.435.062-.415.592.015.658.025.003.048 0 .069-.013.298-.175.32-.503-.034-.64"/><path stroke="#265A68" stroke-width="1.4" d="m9.748 3.605-.01-.942a.034.034 0 1 0-.068-.002c-.028.31-.019.624.027.94"/><path stroke="#87AC9B" stroke-width="1.4" d="M9.747 3.605a.054.054 0 0 0-.05-.004"/><path stroke="#265A68" stroke-width="1.4" d="m3.761 6.722 1.816 1.006a.044.044 0 0 0 .027.005.043.043 0 0 0 .025-.012l.023-.023a.032.032 0 0 0 .01-.028.034.034 0 0 0-.018-.024l-1.859-1.01c-.031-.017-.037-.04-.019-.071a6.975 6.975 0 0 1 2.625-2.513.076.076 0 0 1 .103.028c.213.367.411.745.595 1.133.024.05.052.057.086.019a.047.047 0 0 0 .006-.054l-.587-1.115c-.034-.065-.018-.113.048-.145a7.421 7.421 0 0 1 2.306-.69.048.048 0 0 0 .029-.013.046.046 0 0 0 .012-.03l.006-.07c.003-.036-.014-.052-.05-.05-3.301.24-5.884 2.992-6.27 6.178a.042.042 0 0 0 .04.047l.09.006c.037.002.058-.015.063-.052a7 7 0 0 1 .801-2.496c.022-.04.053-.048.092-.026Zm9.047-2.726a7.44 7.44 0 0 1-.52 1.032.789.789 0 0 0-.063.113c-.004.156.03.165.103.025l.6-1.139a.023.023 0 0 1 .022-.012 6.93 6.93 0 0 1 2.682 2.547.075.075 0 0 1 .01.06.075.075 0 0 1-.037.046l-1.786.973a.098.098 0 0 0-.03.026.086.086 0 0 0-.017.034.063.063 0 0 0 .002.035c.004.01.01.02.02.026.003.002.013.002.031.001a.06.06 0 0 0 .03-.01c.597-.364 1.2-.705 1.81-1.024a.048.048 0 0 1 .065.019 6.88 6.88 0 0 1 .817 2.506c.004.03.022.046.053.046h.098a.047.047 0 0 0 .045-.032.046.046 0 0 0 .002-.02c-.34-3.234-2.983-5.79-6.162-6.204-.094-.012-.15.011-.168.071a.084.084 0 0 0 .01.07.086.086 0 0 0 .06.038 7.58 7.58 0 0 1 2.3.71c.027.013.034.034.023.063Z"/><path stroke="#43646C" stroke-width="1.4" d="M9.698 4.642c.006 0 .012-.004.017-.012a.133.133 0 0 0 .016-.035.597.597 0 0 0 .01-.236.133.133 0 0 0-.013-.037c-.005-.01-.01-.014-.017-.014-.005 0-.011.004-.017.012a.133.133 0 0 0-.016.036.597.597 0 0 0-.01.236.133.133 0 0 0 .014.037c.005.008.01.013.016.013Zm1.326-.212-.244.594v.005l.002.001.003.002c.02.008.042.004.063-.01a.143.143 0 0 0 .05-.065l.164-.395a.16.16 0 0 0 .011-.043.124.124 0 0 0-.001-.04.082.082 0 0 0-.014-.032.056.056 0 0 0-.024-.019h-.003l-.002-.001h-.002l-.001.001-.002.002Zm-2.617.073a.03.03 0 0 0-.028-.02.03.03 0 0 0-.012.003l-.013.005a.03.03 0 0 0-.017.04l.197.491a.03.03 0 0 0 .04.017l.013-.005a.03.03 0 0 0 .017-.04l-.197-.491Z"/><path stroke="#265A68" stroke-width="1.4" d="M12.064 4.78a.022.022 0 0 0 .001-.008.022.022 0 0 0-.005-.015.021.021 0 0 0-.007-.004l-.025-.011a.02.02 0 0 0-.027.01l-.254.57a.022.022 0 0 0-.002.008.022.022 0 0 0 .006.015.021.021 0 0 0 .007.005l.024.01a.02.02 0 0 0 .028-.01l.254-.57Zm-4.425.613c.011-.004.01-.041-.006-.103a1.838 1.838 0 0 0-.074-.225 1.837 1.837 0 0 0-.1-.216c-.03-.055-.054-.084-.066-.08-.011.005-.01.042.006.104.015.062.041.143.074.226.032.082.068.16.1.215.03.055.054.084.066.08Z"/><path stroke="#43646C" stroke-width="1.4" d="m6.435 5.053.04-.02a.062.062 0 0 0 .034-.04.067.067 0 0 0-.012-.054.112.112 0 0 0-.053-.039.118.118 0 0 0-.067-.005c-.125.031-.162.104-.109.22a.075.075 0 0 1-.009.078c-.263.345.099.598.31.823.019.02.039.021.06.006l.084-.061a.043.043 0 0 0-.006-.074c-.18-.095-.481-.226-.468-.468a.09.09 0 0 1 .035-.066.315.315 0 0 0 .13-.251c0-.023.01-.04.03-.05Zm6.711-.119c-.063-.044-.126-.048-.189-.012-.03.016-.037.04-.02.07l.234.442a.177.177 0 0 1-.067.234l-.396.231c-.026.015-.028.033-.007.053l.092.088c.022.02.042.02.06-.003.198-.236.578-.415.338-.79-.044-.07-.08-.132-.027-.2a.08.08 0 0 0 .004-.09.079.079 0 0 0-.022-.023Z"/><path stroke="#6F766A" stroke-width="1.4" d="M13.944 5.296a.065.065 0 0 0-.108.033.065.065 0 0 0 .006.045.299.299 0 0 0 .155.132.046.046 0 0 1 .028.031.046.046 0 0 1-.01.041 2.67 2.67 0 0 1-.928.677.028.028 0 0 0-.016.02.029.029 0 0 0 .005.023l.103.127c.023.028.048.03.074.005l.91-.85a.045.045 0 0 0 .015-.033.045.045 0 0 0-.014-.033l-.22-.218Z"/><path stroke="#43646C" stroke-width="1.4" d="M6.305 6.242a3.137 3.137 0 0 1-.897-.657.046.046 0 0 1 .008-.071l.121-.076a.056.056 0 0 0 .01-.088l-.035-.034c-.029-.029-.057-.028-.084.003l-.17.2c-.02.022-.018.043.003.063l.906.84c.022.021.043.02.064-.001l.09-.094c.034-.036.028-.064-.016-.085Z"/><path stroke="#265A68" stroke-width="1.4" d="m8.782 6.018.39.28a.05.05 0 0 0 .054.004l.336-.188a.06.06 0 0 0 .03-.056l-.017-.439c-.001-.03-.017-.043-.048-.037-.283.057-.532.18-.748.37a.043.043 0 0 0 .003.066Zm1.848-.081a1.333 1.333 0 0 0-.742-.361c-.032-.005-.048.01-.048.042v.444c0 .024.01.042.032.054l.327.188a.049.049 0 0 0 .054-.003l.372-.275c.037-.027.04-.057.005-.09Z"/><path stroke="#43646C" stroke-width="1.4" d="M9.549 8.848c.025.076.104.106.236.088"/><path stroke="#6F766A" stroke-width="1.4" d="M9.785 8.936c.392-.453.89-.734 1.493-.84a.052.052 0 0 0 .042-.049c0-.008 0-.016-.003-.023l-.153-.39a.035.035 0 0 1-.002-.018.034.034 0 0 1 .039-.029l.255.034c.041.006.062-.012.062-.054a2.526 2.526 0 0 0-.42-1.465.028.028 0 0 0-.051.006.028.028 0 0 0 .003.022c.39.805.022 1.636-.764 1.966-1.222.512-2.566-.797-1.893-2.008.01-.02.005-.028-.017-.026-.013 0-.025.008-.034.022a2.609 2.609 0 0 0-.44 1.506.046.046 0 0 0 .016.034.044.044 0 0 0 .036.01l.247-.042c.043-.007.057.01.043.051l-.118.349a.081.081 0 0 0 .062.106c.54.096.994.346 1.36.75"/><path stroke="#A4B59E" stroke-width="1.4" d="M9.785 8.936a1.569 1.569 0 0 0-.024-.031"/><path stroke="#73725B" stroke-width="1.4" d="M9.76 8.905c.096-.076.106-.152.03-.227a.123.123 0 0 0-.21.09l.002.086"/><path stroke="#A4B59E" stroke-width="1.4" d="M9.582 8.854c-.036.012-.047.01-.033-.006"/><path stroke="#48605D" stroke-width="1.4" d="M9.761 8.905a.37.37 0 0 1-.179-.05"/><path stroke="#6F766A" stroke-width="1.4" d="m11.802 8.485.496.198c.02.009.032.002.034-.02.098-.935-.149-1.757-.74-2.467a.015.015 0 0 0-.019-.002.016.016 0 0 0-.006.008.015.015 0 0 0 0 .01 3.19 3.19 0 0 1 .215 2.233.035.035 0 0 0 .003.024c.004.007.01.013.017.016Zm-4.04-2.2a3.271 3.271 0 0 0-.669 2.358c.002.025.015.034.04.026l.53-.175c.026-.008.035-.025.028-.05a3.22 3.22 0 0 1 .102-2.142c.034-.083.023-.09-.031-.017Z"/><path stroke="#286875" stroke-width="1.4" d="M9.046 6.862c.166-.365-.173-.448-.392-.602-.027-.019-.048-.013-.062.017a1.162 1.162 0 0 0-.09.789c.01.043.036.056.077.037l.417-.19a.097.097 0 0 0 .05-.05Z"/><path stroke="#265A68" stroke-width="1.4" d="M5.19 6.4c.268-.125.574.207.774.36.002.002.005.001.007 0a.301.301 0 0 1 .018-.02c.014-.013.014-.026 0-.04-.23-.227-.56-.532-.882-.39a.094.094 0 0 1-.072.003c-.218-.073-.423.192-.234.365.197.18.383.002.359-.223-.003-.025.007-.043.03-.054Z"/><path stroke="#286875" stroke-width="1.4" d="M10.337 6.66c-.06.27.294.36.538.434.028.008.044-.002.05-.03.05-.266.027-.525-.072-.775a.051.051 0 0 0-.033-.031.053.053 0 0 0-.045.006c-.143.092-.399.224-.438.397Z"/><path stroke="#265A68" stroke-width="1.4" d="M14.388 6.318c-.143-.006-.249-.102-.394-.028a2.373 2.373 0 0 0-.572.43c-.022.02-.018.036.01.046.016.005.03.002.044-.01a4.81 4.81 0 0 1 .538-.38.155.155 0 0 1 .236.146c-.009.084.033.15.125.2.27.148.523-.384.013-.404Z"/><path stroke="#6F766A" stroke-width="1.4" d="M10.105 6.77a.394.394 0 1 0-.788 0 .394.394 0 0 0 .788 0Z"/><path stroke="#43646C" stroke-width="1.4" d="M6.568 6.574c-.008-.06-.028-.087-.061-.076a.077.077 0 0 0-.024.01.095.095 0 0 0-.02.018.087.087 0 0 0-.021.049.046.046 0 0 0 .014.04c.01.009.026.011.042.007a.205.205 0 0 1 .03-.002c.03 0 .043-.016.04-.046Zm6.305.048c.023.013.044.01.064-.008.03-.028.033-.053.005-.075a.099.099 0 0 0-.107-.01.039.039 0 0 0-.019.055.038.038 0 0 0 .015.014l.042.024Z"/><path stroke="#45737C" stroke-width="1.4" d="M9.544 7.38a.78.78 0 0 1-.345-.21.061.061 0 0 0-.073-.015l-.424.18c-.03.012-.034.031-.015.056.222.295.515.473.88.533.029.005.042-.007.042-.037l-.013-.439a.074.074 0 0 0-.015-.043.072.072 0 0 0-.037-.025Zm1.188-.048-.423-.182a.041.041 0 0 0-.036.003l-.396.25a.075.075 0 0 0-.037.067v.408a.046.046 0 0 0 .055.046c.356-.07.64-.25.85-.54.018-.024.013-.04-.013-.052Z"/><path stroke="#43646C" stroke-width="1.4" d="M4.41 7.634a4.1 4.1 0 0 0-.45 1.286c-.004.021-.021.041-.053.06"/><path stroke="#265A68" stroke-width="1.4" d="M3.907 8.98a.71.71 0 0 0-.46-.032.049.049 0 0 0-.035.037l-.091.438a.043.043 0 0 1-.044.035l-.613-.008a.044.044 0 0 0-.027.078.1.1 0 0 0 .048.016c.237.02.472.02.705-.002.026-.003.041-.017.047-.042l.092-.427a.093.093 0 0 1 .097-.074l.295.015"/><path stroke="#43646C" stroke-width="1.4" d="M3.922 9.014c.37.032.704.139 1.003.321.024.015.05.014.08 0a.035.035 0 0 0 .003-.06 1.588 1.588 0 0 0-.893-.291c-.033-.001-.046-.018-.038-.05l.063-.252c.009-.035.03-.046.063-.034l.807.285a.083.083 0 0 0 .09-.023c.046-.05.03-.089-.047-.113a54.502 54.502 0 0 0-.849-.264c-.027-.009-.036-.027-.026-.054l.293-.834"/><path stroke="#265A68" stroke-width="1.4" d="M4.471 7.645a.37.37 0 0 1 .116-.266.009.009 0 0 0-.002-.01 1.14 1.14 0 0 1-.027-.01c-.015-.005-.025 0-.032.015l-.116.26"/><path stroke="#5B9A9D" stroke-width="1.4" d="m4.471 7.645-.06-.011m-.49 1.38c-.017-.016-.022-.028-.014-.035"/><path stroke="#43646C" stroke-width="1.4" d="M15.472 8.94a4.755 4.755 0 0 0-.43-1.282c-.005-.01-.01-.016-.018-.019-.012-.005-.025-.002-.038.008a.032.032 0 0 0-.01.036l.284.796a.045.045 0 0 1 .003.017.044.044 0 0 1-.015.03.042.042 0 0 1-.015.008c-.284.087-.57.17-.86.25-.032.009-.053.022-.064.04-.021.037-.01.073.036.108a.098.098 0 0 0 .097.014l.794-.298c.035-.013.057-.002.065.035l.065.293c.006.028.023.042.052.04l.366-.014a.124.124 0 0 1 .127.1l.078.393c.005.027.022.042.049.044.24.021.48.024.721.009.058-.004.065-.03.022-.08a.033.033 0 0 0-.025-.011l-.598.001c-.029 0-.047-.013-.054-.041l-.086-.371c-.024-.103-.088-.146-.193-.128l-.31.052c-.024.003-.038-.007-.043-.03Z"/><path stroke="#6F766A" stroke-width="1.4" d="M6.046 7.972a.076.076 0 0 0 .023-.023.09.09 0 0 0 .012-.031.1.1 0 0 0-.069-.11.083.083 0 0 0-.033-.003.076.076 0 0 0-.054.033.083.083 0 0 0-.012.032.1.1 0 0 0 .069.11.083.083 0 0 0 .033.003.077.077 0 0 0 .03-.011Z"/><path stroke="#265A68" stroke-width="1.4" d="M13.362 7.846c-.028.026-.032.06-.01.1a.059.059 0 0 0 .044.032.06.06 0 0 0 .052-.017l.027-.026a.063.063 0 0 0 .017-.047.064.064 0 0 0-.025-.045.083.083 0 0 0-.053-.017.083.083 0 0 0-.052.02Z"/><path stroke="#43646C" stroke-width="1.4" d="M5.234 8.464a.022.022 0 0 0-.015-.027l-.791-.219a.021.021 0 0 0-.023.008.022.022 0 0 0-.004.007l-.009.033a.022.022 0 0 0 .015.026l.791.22a.022.022 0 0 0 .027-.016l.009-.032Zm9.793-.214a.029.029 0 0 0-.036-.02l-.768.212a.029.029 0 0 0-.02.036l.005.017a.029.029 0 0 0 .035.02l.768-.213a.03.03 0 0 0 .021-.024.03.03 0 0 0 0-.012l-.005-.017Z"/><path stroke="#6F766A" stroke-width="1.4" d="M9.138 9.203c-.57-.493-1.455-.647-2-.05a.072.072 0 0 0-.019.053l.027.378a.027.027 0 0 0 .047.018c.552-.533 1.188-.645 1.907-.339.14.06.153.04.038-.06Zm3.095-.121c-.598-.526-1.504-.344-2.011.199a.021.021 0 0 0-.007.022.02.02 0 0 0 .003.007.02.02 0 0 0 .014.008.02.02 0 0 0 .016-.004c.668-.393 1.445-.238 1.982.304.028.029.043.023.045-.016l.02-.368a.178.178 0 0 0-.062-.152Z"/><path stroke="#43646C" stroke-width="1.4" d="M15.261 8.952a.02.02 0 0 0-.018-.014.02.02 0 0 0-.008.002l-.822.305a.02.02 0 0 0-.012.027l.018.05a.021.021 0 0 0 .027.012l.822-.306a.02.02 0 0 0 .012-.027l-.018-.049Z"/><path stroke="#265A68" stroke-width="1.4" d="M13.22 10c.028-.401-.129-.698-.472-.892a.042.042 0 0 0-.058.016.042.042 0 0 0-.005.022c.022.548-.256.86-.057 1.415.01.027.03.038.058.032a.7.7 0 0 0 .511-.407.075.075 0 0 1 .074-.047l1.524.002a.12.12 0 0 0 .053-.012c.076-.036.06-.064-.046-.085a.343.343 0 0 0-.062-.006l-1.476.01c-.033 0-.048-.016-.045-.048Zm-6.582-.875c-.543.339-.715 1.263.073 1.454.03.008.05-.003.061-.032.21-.552-.117-.844-.06-1.376a.048.048 0 0 0-.074-.046Z"/><path stroke="#45737C" stroke-width="1.4" d="M10.952 9.512c-.25.037-1.172.302-1.173.608-.001.55 0 1.103.003 1.656a.04.04 0 0 0 .034.04.04.04 0 0 0 .02-.002l.162-.06a.063.063 0 0 0 .042-.06v-1.392c0-.022.01-.038.028-.05.273-.16.565-.266.874-.314"/><path stroke="#286875" stroke-width="1.4" d="M10.942 9.938c.314-.055.636-.063.966-.024.035.003.046.021.034.054-.262.704-.927.96-1.499.364a.085.085 0 0 0-.065-.027c-.164.003-.221.098-.22.259.005.403.004.807 0 1.213a.058.058 0 0 1-.04.058l-.305.124a.053.053 0 0 0-.033.049v.41a.05.05 0 0 0 .012.033c.009.009.02.015.032.016l.796.096a.046.046 0 0 1 .038.031.046.046 0 0 1-.012.048c-.102.096-.238.057-.365.042a5.19 5.19 0 0 0-1.391.02.092.092 0 0 1-.104-.109c.002-.013.027-.023.076-.031.24-.04.486-.074.737-.1.027-.004.041-.019.041-.046v-.42a.063.063 0 0 0-.04-.059l-.272-.101a.067.067 0 0 1-.046-.064 15.13 15.13 0 0 1-.02-1.224c.004-.148-.075-.227-.212-.245a.075.075 0 0 0-.068.025c-.525.568-1.32.37-1.497-.39-.006-.025.004-.037.029-.037l.664-.003"/><path stroke="#45737C" stroke-width="1.4" d="M8.178 9.9c.417.027.804.144 1.159.352a.127.127 0 0 1 .063.11v1.327c0 .03.014.052.042.064l.143.062c.038.017.058.004.058-.037.004-.533.005-1.065.004-1.598 0-.466-1.159-.68-1.44-.682"/><path stroke="#286875" stroke-width="1.4" d="M8.206 9.498c-.41-.005-1.048.179-1.114.644-.048.336-.06.673-.036 1.012a.056.056 0 0 0 .04.052c.216.075.31.214.363.448.14.63.162 1.19.733 1.593.317.223.607.406.87.55.242.132 1.066.135 1.306 0 .482-.271.81-.485.987-.642.505-.451.474-1.098.621-1.616a.438.438 0 0 1 .33-.318.06.06 0 0 0 .047-.06c.029-.413 0-.823-.085-1.228a.116.116 0 0 0-.038-.065 1.475 1.475 0 0 0-1.278-.356"/><path stroke="#5EB7BA" stroke-width="1.4" d="m8.207 9.498-.03.402m2.765.038a.775.775 0 0 0 .01-.426"/><path stroke="#265A68" stroke-width="1.4" d="M6.144 10.089a.056.056 0 0 0-.057-.056l-1.48.008a.056.056 0 0 0-.051.034.056.056 0 0 0-.004.022v.003a.056.056 0 0 0 .056.056l1.48-.008a.056.056 0 0 0 .052-.035.056.056 0 0 0 .004-.021v-.003Z"/><path stroke="#6F766A" stroke-width="1.4" d="m8.795 10.184-1.032-.062-.005.001a.012.012 0 0 0-.004.003.012.012 0 0 0-.003.004.012.012 0 0 0-.002.004v.002a.21.21 0 0 0 .032.122c.024.039.06.076.106.108a.611.611 0 0 0 .163.077c.061.02.128.031.195.035l.03.002a.718.718 0 0 0 .368-.07c.1-.052.159-.128.164-.21v-.002a.013.013 0 0 0-.003-.01.012.012 0 0 0-.004-.003.012.012 0 0 0-.005-.001Zm2.861-.058-1.017.066a.01.01 0 0 0-.006.003.01.01 0 0 0-.002.006v.003c.002.04.018.08.046.115a.35.35 0 0 0 .115.093.592.592 0 0 0 .167.056.79.79 0 0 0 .194.011l.03-.002a.696.696 0 0 0 .35-.113c.09-.064.138-.145.133-.226v-.004a.009.009 0 0 0-.01-.008Z"/><path stroke="#265A68" stroke-width="1.4" d="M4.424 12.578a.987.987 0 0 0 .092.25c.025.048.033.045.025-.008a.998.998 0 0 0-.072-.247"/><path stroke="#43646C" stroke-width="1.4" d="m4.47 12.573-.287-.743a.091.091 0 0 1 .058-.12l.851-.265c.04-.013.05-.037.027-.072l-.041-.066c-.01-.017-.026-.022-.045-.014l-.837.325a.049.049 0 0 1-.041-.002.05.05 0 0 1-.026-.034l-.071-.323c-.007-.032-.027-.046-.06-.043l-.364.036a.1.1 0 0 1-.11-.082l-.08-.424a.056.056 0 0 0-.056-.046h-.72c-.037 0-.047.017-.03.05.01.022.032.033.064.032.189-.006.382-.005.58 0a.055.055 0 0 1 .053.044l.092.433a.07.07 0 0 0 .073.055l.416-.032c.025-.002.04.009.044.033.046.25.258 1.134.464 1.263"/><path stroke="#5B9A9D" stroke-width="1.4" d="M4.47 12.573c-.02.008-.036.01-.046.005"/><path stroke="#43646C" stroke-width="1.4" d="M15.481 11.235a2.954 2.954 0 0 1-.977-.32c-.014-.008-.029-.006-.044.005-.027.02-.026.038.001.056.263.171.552.264.866.278.03.002.043.018.037.048l-.052.277a.048.048 0 0 1-.044.038c-.006 0-.013 0-.02-.003l-.85-.33a.045.045 0 0 0-.033.002.042.042 0 0 0-.022.024l-.027.079a.051.051 0 0 0 .016.057.052.052 0 0 0 .019.01l.875.258a.052.052 0 0 1 .033.028.055.055 0 0 1 .002.043l-.42 1.085c-.003.01 0 .014.01.013.007 0 .013-.004.018-.012.299-.481.5-1.013.605-1.594"/><path stroke="#265A68" stroke-width="1.4" d="m15.475 11.277.43.049a.111.111 0 0 0 .122-.09l.084-.41a.05.05 0 0 1 .018-.03.053.053 0 0 1 .032-.011l.613-.006a.033.033 0 0 0 .029-.02.03.03 0 0 0-.007-.033l-.02-.02a.02.02 0 0 0-.014-.006h-.72a.047.047 0 0 0-.045.037l-.098.455a.058.058 0 0 1-.056.045l-.361-.002"/><path stroke="#5B9A9D" stroke-width="1.4" d="M15.475 11.277c.007.014.01 0 .007-.042"/><path stroke="#43646C" stroke-width="1.4" d="m4.995 10.98-.026-.065a.018.018 0 0 0-.01-.01.018.018 0 0 0-.013 0l-.012.005c-.21.083-.411.167-.558.235-.146.068-.227.114-.224.127l.001.003c.002.007.024.005.066-.005.043-.01.103-.027.18-.052a13.58 13.58 0 0 0 .574-.21l.011-.005a.018.018 0 0 0 .01-.024Z"/><path stroke="#265A68" stroke-width="1.4" d="m9.112 16.486-.017.32c-.002.03-.018.044-.047.04a7.51 7.51 0 0 1-2.41-.677.075.075 0 0 1-.042-.074c0-.01.004-.02.008-.03l.608-1.136a.033.033 0 0 0-.028-.05.042.042 0 0 0-.043.024c-.202.377-.411.757-.627 1.14a.045.045 0 0 1-.06.018 6.863 6.863 0 0 1-2.604-2.387.087.087 0 0 1 .027-.12 28.52 28.52 0 0 1 1.691-.952.124.124 0 0 0 .063-.06.047.047 0 0 0-.067-.059l-1.743 1.013a.064.064 0 0 1-.07-.005.06.06 0 0 1-.016-.018 7.396 7.396 0 0 1-.865-2.442c-.014-.084-.07-.132-.154-.108a.052.052 0 0 0-.028.02.054.054 0 0 0-.01.035c.01.136.027.27.054.402.65 3.13 3.192 5.413 6.416 5.64a.046.046 0 0 0 .034-.013.044.044 0 0 0 .014-.033l.004-.625c0-.03-.016-.048-.046-.051l-.571-.065a.048.048 0 0 1-.03-.016.05.05 0 0 1-.013-.031l-.002-.139a.034.034 0 0 0-.027-.034.034.034 0 0 0-.039.019.303.303 0 0 0-.01.266.076.076 0 0 0 .023.03c.01.009.022.014.035.016l.547.087a.053.053 0 0 1 .045.055Zm6.499-2.98-1.772-1.033a.055.055 0 0 0-.05-.003.054.054 0 0 0-.03.038c-.008.034.008.062.05.082.604.315 1.188.64 1.751.976.04.024.047.055.022.094a7.201 7.201 0 0 1-2.607 2.415.072.072 0 0 1-.057.006.071.071 0 0 1-.043-.036 81.207 81.207 0 0 1-.574-1.123c-.016-.032-.041-.046-.075-.04a.043.043 0 0 0-.031.023.041.041 0 0 0 0 .038l.597 1.127a.086.086 0 0 1 .006.07.088.088 0 0 1-.047.052 7.83 7.83 0 0 1-2.367.648c-.026.003-.04-.008-.04-.034l-.012-.288a.087.087 0 0 1 .07-.088l.543-.099c.031-.005.045-.023.04-.054l-.026-.241a.04.04 0 0 0-.012-.027.04.04 0 0 0-.066.03l-.002.125a.053.053 0 0 1-.047.052l-.552.078a.046.046 0 0 0-.04.046v.638c0 .035.018.051.052.05 3.353-.233 5.946-2.722 6.459-6.02a.062.062 0 0 0-.038-.066l-.05-.021a.075.075 0 0 0-.09.027.076.076 0 0 0-.013.031 7.229 7.229 0 0 1-.875 2.507.054.054 0 0 1-.033.026.055.055 0 0 1-.04-.006Z"/><path stroke="#43646C" stroke-width="1.4" d="M5.213 11.716a.033.033 0 0 0-.043-.018l-.74.31a.033.033 0 0 0-.018.043l.003.006a.033.033 0 0 0 .043.017l.74-.31a.033.033 0 0 0 .018-.043l-.003-.005Zm9.818.313a.03.03 0 0 0-.018-.04l-.765-.292a.031.031 0 0 0-.012-.002.029.029 0 0 0-.011.003.029.029 0 0 0-.01.007.029.029 0 0 0-.006.01l-.006.015a.03.03 0 0 0 .018.039l.765.292a.03.03 0 0 0 .023 0 .03.03 0 0 0 .016-.017l.006-.015Z"/><path stroke="#6F766A" stroke-width="1.4" d="M13.526 12.338a.096.096 0 1 0-.192 0 .096.096 0 0 0 .192 0Zm-7.643-.004.046.088a.069.069 0 0 0 .13-.032v-.08c0-.034-.016-.05-.05-.05h-.08a.052.052 0 0 0-.044.024.051.051 0 0 0-.002.05Z"/><path stroke="#265A68" stroke-width="1.4" d="M5.192 13.669a.285.285 0 0 0-.144-.245.187.187 0 0 0-.277.108c-.107.366.444.308.655.333a.087.087 0 0 0 .063-.018l.5-.392c.033-.026.03-.044-.013-.053-.013-.004-.522.342-.595.377a.132.132 0 0 1-.189-.11Zm9.056-.026a.164.164 0 0 1-.174.161.167.167 0 0 1-.083-.026c-.182-.12-.353-.24-.513-.358-.015-.012-.032-.008-.05.012a.034.034 0 0 0-.007.013.034.034 0 0 0 .004.028.034.034 0 0 0 .01.011l.535.38a.085.085 0 0 0 .083.01l.195-.083a.082.082 0 0 1 .066 0c.163.068.274.025.333-.13a.179.179 0 0 0-.087-.223.178.178 0 0 0-.085-.018c-.148.005-.224.08-.227.223Z"/><path stroke="#43646C" stroke-width="1.4" d="M5.4 14.54c.276-.286.587-.522.934-.71.033-.018.036-.041.01-.068l-.083-.09c-.02-.022-.04-.023-.062-.003l-.928.87a.07.07 0 0 0-.022.05.069.069 0 0 0 .02.05l.196.196c.017.017.034.017.05 0l.019-.018a.035.035 0 0 0 .001-.048l-.137-.159c-.02-.024-.02-.048.003-.07Zm8.62.073-.159.145a.042.042 0 0 0 .042.072.396.396 0 0 0 .235-.2c.026-.049.019-.092-.022-.13l-.906-.847c-.026-.024-.048-.021-.067.009l-.063.098c-.02.032-.014.058.02.077.338.189.645.42.921.693a.059.059 0 0 1 .012.064.058.058 0 0 1-.014.019Zm-7.525.67-.139-.091c-.047-.03-.046-.06.004-.087l.1-.054a.03.03 0 0 0 .012-.042.03.03 0 0 0-.01-.011c-.494-.318-.024-.654.218-.865.028-.025.026-.047-.005-.067l-.08-.05c-.033-.021-.059-.015-.079.018-.125.213-.412.48-.319.747.05.141.07.276.063.405a.072.072 0 0 0 .044.073l.16.079a.031.031 0 0 0 .03-.055Zm6.562-.111-.11.122a.035.035 0 0 0 .019.057.038.038 0 0 0 .024-.002l.118-.062a.094.094 0 0 0 .05-.07l.116-.63a.096.096 0 0 0-.018-.075l-.372-.5c-.025-.035-.052-.036-.081-.005l-.066.073c-.024.027-.022.05.007.072.242.188.73.525.228.822a.043.043 0 0 0-.022.034.043.043 0 0 0 .015.038l.089.077a.033.033 0 0 1 .012.024.034.034 0 0 1-.009.025Z"/><path stroke="#6F766A" stroke-width="1.4" d="M9.69 15.634c-.297.13-.383.287-.26.473.353.535.907-.275.315-.458"/><path stroke="#265A68" stroke-width="1.4" d="m9.745 15.649-.02-1.594c0-.004-.001-.007-.005-.009l-.02-.006c-.009-.003-.013 0-.013.01l.003 1.584"/><path stroke="#87AC9B" stroke-width="1.4" d="M9.745 15.649a.11.11 0 0 0-.056-.015"/><path stroke="#265A68" stroke-width="1.4" d="m7.97 15.613.214-.649a.063.063 0 0 0-.032-.077.065.065 0 0 0-.03-.007h-.05c-.036 0-.057.017-.064.05l-.144.65c-.008.036-.03.047-.063.037l-.33-.105a.048.048 0 0 1-.03-.028.048.048 0 0 1 .003-.04l.35-.633a.035.035 0 0 0 0-.032.035.035 0 0 0-.025-.019c-.024-.004-.04.004-.05.024-.116.25-.242.501-.376.751-.012.023-.006.039.018.048a5.68 5.68 0 0 0 1.653.39c.01 0 .016-.004.02-.014a.19.19 0 0 1 .01-.024c.01-.025.002-.04-.025-.046l-1.005-.202a.06.06 0 0 1-.046-.05.04.04 0 0 1 .002-.024Zm3.966-.104-.325.109a.054.054 0 0 1-.06-.018.052.052 0 0 1-.009-.02l-.143-.658c-.01-.043-.036-.058-.078-.043l-.073.026a.046.046 0 0 0-.027.024.045.045 0 0 0-.002.035l.23.643a.06.06 0 0 1-.044.078l-.212.042c-.036.007-.06-.007-.073-.04a9 9 0 0 1-.22-.647c-.007-.026-.027-.04-.06-.042a.037.037 0 0 0-.033.016.038.038 0 0 0-.004.036l.24.615a.085.085 0 0 1-.006.071.083.083 0 0 1-.058.042c-.193.033-.381.064-.565.093-.024.004-.035.025-.033.065.001.01.005.018.012.024.008.006.017.01.026.009a5.543 5.543 0 0 0 1.629-.38c.029-.012.037-.032.022-.06l-.387-.747a.035.035 0 0 0-.054-.009c-.017.015-.02.032-.01.049l.34.628c.016.029.008.049-.023.059Z"/><path stroke="#43646C" stroke-width="1.4" d="M8.607 15.041a.036.036 0 0 0-.01-.04.037.037 0 0 0-.012-.007l-.01-.004a.036.036 0 0 0-.04.01.037.037 0 0 0-.007.012l-.222.606a.037.037 0 0 0 .022.047l.01.004a.038.038 0 0 0 .029-.001.037.037 0 0 0 .019-.021l.221-.606Z"/><path stroke="#496F6E" stroke-width="1.4" d="M4.359 10.103a.192.192 0 1 0-.384 0 .192.192 0 0 0 .384 0Zm11.087.001a.187.187 0 1 0-.375 0 .187.187 0 0 0 .375 0Z"/><path stroke="#73725B" stroke-width="1.4" d="M9.901 3.933a.202.202 0 1 0-.403 0 .202.202 0 0 0 .403 0Z"/><path stroke="#265A68" stroke-width="1.4" d="m4.842 6.577.108.065a.038.038 0 0 0 .052-.012l.013-.021a.228.228 0 0 0 .023-.052.172.172 0 0 0 .008-.051.103.103 0 0 0-.009-.043.062.062 0 0 0-.024-.028l-.016-.01a.063.063 0 0 0-.035-.008.103.103 0 0 0-.042.012.172.172 0 0 0-.042.03.228.228 0 0 0-.035.045l-.013.02a.037.037 0 0 0 .012.053Zm9.665.058a.085.085 0 0 0 .051-.05.117.117 0 0 0-.048-.14.091.091 0 0 0-.035-.01.08.08 0 0 0-.035.003.085.085 0 0 0-.05.05.112.112 0 0 0-.002.078.12.12 0 0 0 .02.036c.008.01.018.019.03.025a.09.09 0 0 0 .034.012.08.08 0 0 0 .035-.004Z"/><path stroke="#73725B" stroke-width="1.4" d="M9.97 6.771a.26.26 0 1 0-.518 0 .26.26 0 0 0 .519 0Z"/><path stroke="#286875" stroke-width="1.4" d="M10.363 12.777c-.472.072-.863.021-1.329-.018a.05.05 0 0 0-.05.071c.01.02.03.035.058.044.442.125.892.131 1.35.017a.062.062 0 0 0 .047-.062c-.001-.042-.027-.06-.076-.052Z"/><path stroke="#265A68" stroke-width="1.4" d="M5.067 13.626a.11.11 0 1 0-.22 0 .11.11 0 0 0 .22 0Zm9.509.003a.12.12 0 0 0-.075-.112.12.12 0 0 0-.158.066.12.12 0 0 0 .026.131.12.12 0 0 0 .207-.085Z"/><path stroke="#73725B" stroke-width="1.4" d="M9.902 15.972a.2.2 0 1 0-.402 0 .2.2 0 0 0 .402 0Z"/><circle cx="10" cy="10" r="10" fill="#0E2437"/><path fill="#0E2437" d="M13.68 3.598c2.257 1.352 3.581 3.75 3.655 6.362a.037.037 0 0 1-.022.035.035.035 0 0 1-.014.003l-1.703.01a.052.052 0 0 1-.05-.032c-.194-.386-.724-.072-.591.205.134.282.446.341.593.024a.07.07 0 0 1 .068-.044l1.682-.003c.022 0 .033.01.033.033-.118 4.194-3.358 7.297-7.523 7.386-.029 0-.044-.013-.044-.043L9.757 16.4a.05.05 0 0 0-.01-.028.049.049 0 0 0-.025-.017.028.028 0 0 0-.024.003.027.027 0 0 0-.011.021l-.025 1.126c0 .033-.018.051-.051.053a3.878 3.878 0 0 1-.477-.01c-3.898-.28-6.966-3.402-7.043-7.322a.084.084 0 0 1 .051-.08.082.082 0 0 1 .033-.006l1.648.02a.057.057 0 0 1 .052.035c.187.428.723.126.588-.191-.129-.302-.419-.244-.596-.017a.086.086 0 0 1-.067.033H2.14c-.033 0-.049-.016-.048-.049.052-2.833 1.542-5.229 4.01-6.587a7.248 7.248 0 0 1 2.066-.746.11.11 0 0 0 .088-.105l.01-.4c.001-.037.02-.058.058-.062l1.303-.134c.042-.004.062.015.058.057l-.03.368c-.003.036-.023.055-.058.057l-.385.027c-.075.006-.112.046-.112.121v1.05a.043.043 0 0 1-.038.042l-.555.065a.053.053 0 0 0-.034.018.055.055 0 0 0-.013.036v.36c0 .033-.016.053-.048.061-.355.089-.7.203-1.034.342-.085.035-.113.075-.082.119a.04.04 0 0 0 .021.015.039.039 0 0 0 .026-.001l.445-.183a.081.081 0 0 1 .112.063l.1.587a.06.06 0 0 0 .086.045l.046-.022c.033-.016.044-.042.035-.077l-.151-.556c-.019-.068.007-.11.075-.125l.463-.108a.047.047 0 0 0 .036-.05l-.04-.317c-.005-.045.014-.07.06-.076l.518-.068a.079.079 0 0 0 .068-.076l.015-1.097a.055.055 0 0 1 .055-.055l.898-.001a.054.054 0 0 1 .054.052l.006 1.058c0 .068.034.107.102.115l.5.061a.052.052 0 0 1 .045.054l-.015.328c-.001.043.02.07.062.081l.444.11c.034.01.046.03.037.065l-.175.614c-.007.026.003.043.028.052l.09.034a.045.045 0 0 0 .039-.003.046.046 0 0 0 .023-.033l.103-.604c.006-.034.026-.049.06-.043.08.014.507.182.52.179.036-.01.044-.047.022-.112a.065.065 0 0 0-.043-.043l-1.083-.345c-.012-.003-.018-.012-.018-.024l.02-.366a.057.057 0 0 0-.051-.06l-.52-.068a.11.11 0 0 1-.098-.111l.015-1.035a.06.06 0 0 0-.057-.062l-.444-.027c-.034-.002-.05-.02-.05-.054v-.367c0-.032.016-.047.048-.046.433.01.863.055 1.29.136.028.005.042.022.042.05v.433c0 .023.011.037.034.042.884.184 1.713.51 2.486.98Zm-3.984.003c-.435.061-.415.591.016.657.024.003.047 0 .068-.013.299-.175.32-.503-.033-.64l-.009-.942a.035.035 0 0 0-.069-.002c-.027.31-.018.624.027.94ZM3.761 6.72l1.815 1.007a.044.044 0 0 0 .028.005.043.043 0 0 0 .024-.012l.024-.023a.032.032 0 0 0 .009-.028.034.034 0 0 0-.017-.024l-1.859-1.01c-.031-.017-.038-.04-.019-.071a6.975 6.975 0 0 1 2.625-2.513.076.076 0 0 1 .103.028c.212.367.41.745.595 1.133.024.05.052.057.086.019a.047.047 0 0 0 .006-.054l-.587-1.115c-.034-.065-.018-.113.048-.145.73-.356 1.5-.585 2.306-.69a.048.048 0 0 0 .028-.013.046.046 0 0 0 .013-.03l.006-.07c.003-.036-.014-.052-.05-.05-3.301.24-5.885 2.992-6.27 6.178a.042.042 0 0 0 .04.047l.09.006c.037.002.058-.015.063-.052a7 7 0 0 1 .801-2.496c.022-.04.053-.048.092-.026Zm9.047-2.725a7.44 7.44 0 0 1-.52 1.032.788.788 0 0 0-.064.113c-.004.156.03.165.104.025l.6-1.139a.023.023 0 0 1 .022-.012l.009.003a6.93 6.93 0 0 1 2.673 2.544.075.075 0 0 1 .009.06.077.077 0 0 1-.037.046l-1.786.973a.098.098 0 0 0-.03.026.085.085 0 0 0-.017.034.063.063 0 0 0 .002.035c.004.01.011.02.02.026.003.002.014.002.031.001a.054.054 0 0 0 .03-.01c.598-.364 1.2-.705 1.81-1.024a.048.048 0 0 1 .065.019 6.88 6.88 0 0 1 .818 2.506c.004.03.021.046.053.046h.097a.047.047 0 0 0 .045-.032.046.046 0 0 0 .002-.02c-.34-3.234-2.983-5.79-6.162-6.204-.093-.012-.149.011-.167.071a.084.084 0 0 0 .01.07.085.085 0 0 0 .06.038 7.58 7.58 0 0 1 2.299.71c.027.013.035.034.024.063Zm-3.11.646c.005 0 .011-.004.017-.012a.133.133 0 0 0 .016-.035.597.597 0 0 0 .01-.236.133.133 0 0 0-.014-.037c-.005-.01-.01-.014-.016-.014s-.012.004-.017.012a.133.133 0 0 0-.016.036.597.597 0 0 0-.01.236.133.133 0 0 0 .013.037c.005.008.011.013.017.013Zm1.326-.212-.244.594v.005l.002.001.003.002c.02.008.042.004.063-.01a.143.143 0 0 0 .05-.065l.164-.395a.16.16 0 0 0 .011-.043.127.127 0 0 0-.001-.04.082.082 0 0 0-.014-.032.055.055 0 0 0-.024-.019h-.003l-.002-.001h-.002l-.002.001v.002Zm-2.617.073a.03.03 0 0 0-.04-.017l-.013.005a.03.03 0 0 0-.017.04l.196.491a.03.03 0 0 0 .04.017l.013-.005a.03.03 0 0 0 .02-.028.03.03 0 0 0-.003-.012l-.196-.491Zm3.657.277a.022.022 0 0 0 .001-.008l-.001-.008a.021.021 0 0 0-.011-.011l-.025-.011a.02.02 0 0 0-.027.01l-.254.57a.022.022 0 0 0-.002.008c0 .003 0 .006.002.008a.02.02 0 0 0 .01.012l.025.01a.02.02 0 0 0 .028-.01l.254-.57Zm-4.426.613c.012-.004.01-.041-.005-.103a1.836 1.836 0 0 0-.074-.225 1.836 1.836 0 0 0-.1-.216c-.03-.055-.055-.084-.066-.08-.012.005-.01.042.005.104a1.949 1.949 0 0 0 .174.441c.031.055.055.084.066.08Zm-1.204-.34.04-.02a.062.062 0 0 0 .035-.04.067.067 0 0 0-.013-.054.112.112 0 0 0-.053-.039.118.118 0 0 0-.067-.005c-.125.031-.161.104-.108.22a.075.075 0 0 1-.01.078c-.262.345.1.598.311.823.018.02.038.021.06.006l.083-.061a.043.043 0 0 0-.005-.074c-.181-.095-.482-.226-.469-.468a.09.09 0 0 1 .035-.066.315.315 0 0 0 .13-.251c0-.023.01-.04.031-.05Zm6.711-.119c-.063-.044-.126-.048-.189-.012-.03.016-.036.04-.02.07l.234.442a.177.177 0 0 1-.067.234l-.396.231c-.026.015-.028.033-.007.053l.092.088c.022.02.043.02.061-.003.197-.236.577-.415.337-.79-.044-.07-.08-.132-.027-.2a.078.078 0 0 0 .004-.09.078.078 0 0 0-.022-.023Zm.799.362a.065.065 0 0 0-.102.078.299.299 0 0 0 .155.132.046.046 0 0 1 .028.031.046.046 0 0 1-.01.041 2.67 2.67 0 0 1-.928.677.028.028 0 0 0-.016.02.027.027 0 0 0 0 .012c0 .004.003.008.005.011l.103.127c.023.028.048.03.074.005l.91-.85a.045.045 0 0 0 .015-.033.045.045 0 0 0-.014-.033l-.22-.218Zm-7.64.946a3.137 3.137 0 0 1-.897-.657.046.046 0 0 1 .009-.071l.12-.076a.056.056 0 0 0 .01-.088l-.034-.034c-.03-.029-.058-.028-.084.003l-.172.2c-.018.022-.017.043.004.063l.906.84c.022.021.043.02.064-.001l.09-.094c.034-.036.029-.064-.016-.085Zm2.478-.224.39.28a.05.05 0 0 0 .054.004l.335-.188a.06.06 0 0 0 .031-.056l-.017-.439c-.002-.03-.018-.043-.048-.037-.283.057-.532.18-.748.37a.043.043 0 0 0 .003.066Zm1.848-.081a1.333 1.333 0 0 0-.742-.361c-.032-.005-.048.01-.048.042v.444c0 .024.01.042.032.054l.327.188a.049.049 0 0 0 .053-.003l.372-.275c.038-.027.04-.057.006-.09ZM9.548 8.848c.025.076.104.106.236.088.393-.453.89-.734 1.493-.84a.052.052 0 0 0 .043-.049c0-.008 0-.016-.004-.023l-.152-.39a.034.034 0 0 1 .037-.046l.255.033c.04.006.062-.012.062-.054a2.526 2.526 0 0 0-.42-1.465.028.028 0 0 0-.052.006.028.028 0 0 0 .003.022c.39.805.023 1.636-.764 1.966-1.221.512-2.565-.797-1.893-2.008.011-.02.006-.028-.016-.026-.014 0-.025.008-.035.022a2.609 2.609 0 0 0-.439 1.506.046.046 0 0 0 .016.034.044.044 0 0 0 .035.01l.247-.042c.044-.007.058.01.044.051l-.118.349a.08.08 0 0 0 .062.106c.54.096.994.346 1.36.75Zm2.254-.363.496.198c.02.009.031.002.034-.02.098-.935-.149-1.757-.74-2.467a.015.015 0 0 0-.019-.002.016.016 0 0 0-.006.008.015.015 0 0 0 0 .01c.34.71.412 1.455.215 2.233a.035.035 0 0 0 .003.023c.003.008.01.014.017.017Zm-4.04-2.2a3.271 3.271 0 0 0-.669 2.358c.002.025.015.034.04.026l.53-.175c.026-.008.035-.025.028-.05a3.22 3.22 0 0 1 .102-2.142c.034-.083.023-.09-.031-.017Zm1.283.577c.166-.365-.173-.448-.392-.602-.027-.019-.048-.013-.062.017a1.162 1.162 0 0 0-.089.789c.01.043.035.056.076.037l.418-.19a.097.097 0 0 0 .05-.05ZM5.19 6.401c.268-.126.574.206.774.359.002.002.005.001.007 0a.298.298 0 0 1 .018-.02c.014-.013.014-.026 0-.04-.23-.227-.56-.532-.882-.39a.094.094 0 0 1-.072.003c-.218-.073-.423.192-.234.365.197.18.383.002.359-.223-.003-.025.007-.043.03-.054Zm5.146.26c-.06.269.294.358.539.433.027.008.044-.002.05-.03.05-.266.026-.525-.073-.775a.051.051 0 0 0-.032-.031.053.053 0 0 0-.045.006c-.143.092-.4.224-.439.397Zm4.052-.343c-.144-.006-.25-.102-.395-.028a2.377 2.377 0 0 0-.571.43c-.022.02-.018.036.01.046.015.005.03.002.044-.01a4.82 4.82 0 0 1 .538-.38.156.156 0 0 1 .22.063.154.154 0 0 1 .015.083c-.008.084.034.15.126.2.27.148.523-.384.013-.404Zm-4.283.452a.394.394 0 1 0-.788 0 .394.394 0 0 0 .788 0Zm-3.537-.196c-.008-.06-.028-.087-.061-.076a.077.077 0 0 0-.024.01.095.095 0 0 0-.02.018.087.087 0 0 0-.021.049.046.046 0 0 0 .014.04c.01.009.026.011.042.007a.205.205 0 0 1 .03-.002c.03 0 .043-.016.04-.046Zm6.304.048a.05.05 0 0 0 .064-.008c.031-.028.033-.053.005-.075a.099.099 0 0 0-.107-.01.038.038 0 0 0-.018.055.039.039 0 0 0 .015.014l.041.024Zm-3.328.758a.78.78 0 0 1-.345-.21.061.061 0 0 0-.074-.015l-.424.18c-.029.012-.033.031-.014.056.221.295.514.473.88.533.028.005.042-.007.041-.037l-.012-.439a.074.074 0 0 0-.015-.043.071.071 0 0 0-.037-.025Zm1.188-.048-.423-.182a.041.041 0 0 0-.037.003l-.396.25a.075.075 0 0 0-.036.067v.408a.046.046 0 0 0 .055.046c.356-.07.639-.25.85-.54.017-.024.013-.04-.013-.052Zm-6.322.302a4.1 4.1 0 0 0-.45 1.286c-.004.021-.022.041-.053.06a.71.71 0 0 0-.461-.032.049.049 0 0 0-.034.037l-.092.438a.043.043 0 0 1-.043.035l-.613-.008a.044.044 0 0 0-.028.078.1.1 0 0 0 .05.016c.236.02.47.02.704-.002.026-.003.041-.017.046-.042l.093-.427a.093.093 0 0 1 .097-.074l.295.015c.37.032.704.139 1.003.321.024.015.05.014.08 0a.035.035 0 0 0 .004-.06 1.588 1.588 0 0 0-.894-.291c-.033-.001-.046-.018-.038-.05l.064-.252c.008-.035.03-.046.063-.034l.806.285a.083.083 0 0 0 .09-.023c.046-.05.03-.089-.047-.113a54.32 54.32 0 0 0-.848-.264c-.028-.009-.036-.027-.027-.054l.294-.834a.37.37 0 0 1 .116-.266.009.009 0 0 0-.006-.012 1.14 1.14 0 0 1-.023-.008c-.015-.005-.026 0-.032.015l-.116.26ZM15.472 8.94a4.748 4.748 0 0 0-.43-1.282c-.006-.01-.011-.016-.018-.019-.013-.005-.026-.002-.039.008a.032.032 0 0 0-.01.036l.285.796a.041.041 0 0 1-.002.033.042.042 0 0 1-.026.022c-.283.087-.57.17-.859.25-.032.009-.054.022-.065.04-.02.037-.009.073.036.108a.1.1 0 0 0 .097.014l.795-.298c.035-.013.056-.002.064.035l.065.293c.006.028.023.042.052.04l.366-.014a.124.124 0 0 1 .127.1l.078.393c.006.027.022.042.05.044.24.021.48.024.72.009.058-.004.066-.03.022-.08a.032.032 0 0 0-.024-.01h-.599c-.029 0-.046-.013-.053-.041l-.087-.371c-.024-.103-.088-.146-.193-.128l-.31.052c-.023.003-.038-.007-.042-.03Zm-9.427-.968a.076.076 0 0 0 .023-.023c.007-.01.01-.02.013-.031a.1.1 0 0 0-.069-.11.083.083 0 0 0-.034-.003.076.076 0 0 0-.066.065.1.1 0 0 0 .069.11.083.083 0 0 0 .033.003.076.076 0 0 0 .031-.011Zm7.317-.126c-.028.026-.032.06-.01.1a.06.06 0 0 0 .044.032.06.06 0 0 0 .052-.017l.027-.026a.062.062 0 0 0 .017-.047.063.063 0 0 0-.025-.045.082.082 0 0 0-.053-.017.084.084 0 0 0-.052.02Zm-8.129.618a.022.022 0 0 0-.015-.027l-.79-.219a.022.022 0 0 0-.027.015l-.01.033a.022.022 0 0 0 .016.026l.79.22a.022.022 0 0 0 .027-.016l.01-.032Zm9.794-.215a.029.029 0 0 0-.036-.02l-.768.213a.029.029 0 0 0-.02.036l.005.017a.029.029 0 0 0 .035.02l.768-.213a.028.028 0 0 0 .018-.014.03.03 0 0 0 .003-.01.03.03 0 0 0 0-.012l-.005-.017Zm-5.89.954c-.569-.493-1.454-.647-1.999-.05a.072.072 0 0 0-.02.053l.028.378a.027.027 0 0 0 .046.018c.553-.533 1.189-.645 1.908-.339.14.06.152.04.037-.06Zm3.095-.12c-.597-.527-1.504-.345-2.01.198a.02.02 0 0 0 .018.036.02.02 0 0 0 .007-.003c.668-.393 1.445-.238 1.982.304.028.029.043.023.045-.016l.02-.368a.177.177 0 0 0-.062-.152Zm3.03-.131a.02.02 0 0 0-.027-.012l-.822.305a.02.02 0 0 0-.012.027l.018.05a.021.021 0 0 0 .027.012l.822-.306a.02.02 0 0 0 .012-.027l-.018-.049ZM13.219 10c.03-.401-.128-.698-.471-.892a.041.041 0 0 0-.043 0 .042.042 0 0 0-.02.038c.022.548-.257.86-.057 1.415.01.027.03.038.058.032a.7.7 0 0 0 .511-.407.075.075 0 0 1 .074-.047l1.524.002a.12.12 0 0 0 .053-.012c.075-.036.06-.064-.047-.085a.342.342 0 0 0-.061-.006l-1.476.01c-.033 0-.048-.016-.045-.048Zm-6.582-.875c-.542.339-.714 1.263.074 1.454.03.008.05-.003.06-.032.21-.552-.116-.844-.06-1.376a.048.048 0 0 0-.074-.046Zm4.315.387c-.25.037-1.172.302-1.173.608-.002.55-.001 1.103.002 1.656a.04.04 0 0 0 .054.038l.163-.06a.063.063 0 0 0 .042-.06v-1.392c0-.022.009-.038.028-.05a2.46 2.46 0 0 1 .874-.314c.314-.055.636-.063.966-.024.034.003.046.021.033.054-.261.704-.926.96-1.498.364a.085.085 0 0 0-.066-.027c-.163.003-.22.098-.219.259.004.403.004.807 0 1.213a.058.058 0 0 1-.04.058l-.306.124a.053.053 0 0 0-.032.049v.41a.05.05 0 0 0 .012.033.05.05 0 0 0 .032.016l.796.096a.046.046 0 0 1 .038.031.046.046 0 0 1-.012.048c-.102.096-.238.057-.366.042a5.19 5.19 0 0 0-1.39.02.092.092 0 0 1-.105-.109c.002-.013.028-.023.077-.031.24-.04.486-.074.737-.1.027-.004.04-.019.04-.046v-.42a.063.063 0 0 0-.04-.059l-.271-.101a.067.067 0 0 1-.047-.064c-.023-.407-.03-.815-.019-1.224.004-.148-.075-.227-.212-.245a.075.075 0 0 0-.069.025c-.525.568-1.319.37-1.497-.39-.005-.025.005-.037.03-.037l.663-.003c.418.027.804.144 1.16.352a.127.127 0 0 1 .063.11v1.327c0 .03.014.052.041.064l.143.062c.039.017.058.004.059-.037.003-.533.004-1.065.004-1.598-.001-.466-1.16-.68-1.441-.682-.41-.005-1.048.179-1.114.644-.048.336-.06.673-.036 1.012a.056.056 0 0 0 .04.052c.216.075.31.214.363.448.14.63.162 1.19.733 1.593.317.223.607.406.87.55.242.132 1.066.135 1.306 0 .482-.271.81-.485.987-.642.505-.451.474-1.098.621-1.616a.438.438 0 0 1 .33-.318.06.06 0 0 0 .047-.06c.029-.413 0-.823-.085-1.228a.116.116 0 0 0-.038-.065 1.475 1.475 0 0 0-1.278-.356Zm-4.808.577a.056.056 0 0 0-.057-.056l-1.48.008a.056.056 0 0 0-.051.034.056.056 0 0 0-.004.022v.003a.056.056 0 0 0 .056.056l1.48-.008a.056.056 0 0 0 .056-.056v-.003Zm2.65.095-1.031-.062-.005.001a.012.012 0 0 0-.007.007.012.012 0 0 0-.002.004v.002a.21.21 0 0 0 .032.122c.024.039.06.076.106.108a.611.611 0 0 0 .163.077c.061.02.128.031.195.035l.029.002a.718.718 0 0 0 .37-.07c.099-.052.158-.128.163-.21v-.002a.013.013 0 0 0-.003-.01.012.012 0 0 0-.004-.003.012.012 0 0 0-.005-.001Zm2.862-.058-1.018.066a.009.009 0 0 0-.006.003.009.009 0 0 0-.002.006v.003a.21.21 0 0 0 .046.115.35.35 0 0 0 .115.093.591.591 0 0 0 .168.056.789.789 0 0 0 .193.011l.03-.002a.696.696 0 0 0 .35-.113c.09-.064.138-.145.133-.226v-.004l-.003-.006a.009.009 0 0 0-.006-.002Zm-7.232 2.452a.987.987 0 0 0 .092.25c.025.048.033.045.025-.008a.998.998 0 0 0-.072-.247l-.287-.743a.091.091 0 0 1 .058-.12l.852-.265c.04-.013.048-.037.026-.072l-.04-.066c-.011-.017-.026-.022-.046-.014l-.836.325a.049.049 0 0 1-.042-.002.05.05 0 0 1-.026-.034l-.07-.323c-.008-.032-.028-.046-.06-.043l-.365.036a.1.1 0 0 1-.11-.082l-.08-.424a.056.056 0 0 0-.056-.046h-.72c-.036 0-.047.017-.03.05.01.022.032.033.064.032.189-.006.383-.005.581 0a.055.055 0 0 1 .052.044l.092.433a.07.07 0 0 0 .074.055l.416-.032c.024-.002.039.009.044.033.045.25.257 1.134.464 1.263Zm11.057-1.343a2.954 2.954 0 0 1-.977-.32c-.014-.008-.029-.006-.044.005-.027.02-.026.038.001.056.263.171.552.264.866.278.03.002.043.018.037.048l-.052.277a.048.048 0 0 1-.044.038c-.006 0-.013 0-.02-.003l-.85-.33a.045.045 0 0 0-.033.002.042.042 0 0 0-.022.024l-.027.079a.053.053 0 0 0 .034.067l.876.258a.052.052 0 0 1 .033.028.053.053 0 0 1 .001.044l-.419 1.084c-.003.01 0 .014.01.013.007 0 .013-.004.018-.012.299-.481.5-1.013.605-1.594l.431.049a.111.111 0 0 0 .122-.09l.084-.41a.05.05 0 0 1 .017-.03.053.053 0 0 1 .032-.011l.613-.006a.033.033 0 0 0 .03-.02.03.03 0 0 0-.007-.033l-.02-.02a.02.02 0 0 0-.015-.006h-.719a.047.047 0 0 0-.046.037l-.097.455a.056.056 0 0 1-.02.032.058.058 0 0 1-.036.013l-.362-.002ZM4.994 10.98l-.026-.064a.019.019 0 0 0-.01-.01.018.018 0 0 0-.013 0l-.012.005c-.21.083-.411.167-.558.235-.146.068-.226.114-.223.127v.003c.002.007.025.005.067-.005s.103-.027.179-.052a13.599 13.599 0 0 0 .574-.21l.012-.005a.019.019 0 0 0 .01-.024Zm4.118 5.507-.017.32c-.002.03-.018.044-.047.04a7.51 7.51 0 0 1-2.41-.677.075.075 0 0 1-.034-.103l.608-1.137a.034.034 0 0 0-.028-.05.042.042 0 0 0-.043.024 60.37 60.37 0 0 1-.627 1.14.046.046 0 0 1-.026.022.045.045 0 0 1-.034-.003 6.863 6.863 0 0 1-2.604-2.388.087.087 0 0 1 .002-.097.085.085 0 0 1 .025-.023c.548-.334 1.112-.65 1.691-.952a.124.124 0 0 0 .063-.06.047.047 0 0 0-.067-.059l-1.743 1.013a.064.064 0 0 1-.07-.005.06.06 0 0 1-.016-.018 7.396 7.396 0 0 1-.865-2.442c-.014-.084-.07-.132-.154-.108a.052.052 0 0 0-.028.02.054.054 0 0 0-.01.035c.01.136.027.27.054.402.65 3.13 3.192 5.413 6.416 5.64a.046.046 0 0 0 .034-.013.044.044 0 0 0 .014-.033l.004-.625c0-.03-.016-.048-.046-.051l-.571-.065a.048.048 0 0 1-.03-.016.05.05 0 0 1-.013-.031l-.002-.139a.034.034 0 0 0-.027-.034.034.034 0 0 0-.039.019.303.303 0 0 0-.01.266.076.076 0 0 0 .023.03c.01.009.022.014.035.016l.547.087a.053.053 0 0 1 .045.055Zm6.499-2.98-1.773-1.033a.055.055 0 0 0-.049-.003.054.054 0 0 0-.031.038c-.008.034.009.062.05.082.604.315 1.188.64 1.752.976.04.024.047.055.021.094a7.201 7.201 0 0 1-2.606 2.415.072.072 0 0 1-.057.006.071.071 0 0 1-.044-.036 81.207 81.207 0 0 1-.574-1.123c-.016-.032-.04-.046-.075-.04a.043.043 0 0 0-.031.023.041.041 0 0 0 0 .038l.598 1.127a.086.086 0 0 1 .005.07.088.088 0 0 1-.047.052 7.83 7.83 0 0 1-2.366.648c-.027.003-.04-.008-.041-.034l-.011-.288a.087.087 0 0 1 .07-.088l.542-.099c.031-.005.045-.023.041-.054l-.026-.241a.04.04 0 0 0-.068-.025.04.04 0 0 0-.01.028l-.003.125a.053.053 0 0 1-.046.052l-.552.078a.046.046 0 0 0-.04.046v.638c0 .035.017.051.052.05 3.352-.233 5.945-2.722 6.458-6.02a.062.062 0 0 0-.038-.066l-.05-.021a.075.075 0 0 0-.09.027.076.076 0 0 0-.012.031 7.229 7.229 0 0 1-.876 2.507.054.054 0 0 1-.032.026.055.055 0 0 1-.041-.006Zm-10.398-1.79a.033.033 0 0 0-.043-.018l-.74.31a.033.033 0 0 0-.018.043l.003.006a.033.033 0 0 0 .043.017l.74-.31a.033.033 0 0 0 .018-.043l-.003-.005Zm9.817.313a.03.03 0 0 0-.017-.04l-.765-.292a.031.031 0 0 0-.024 0 .031.031 0 0 0-.01.008.032.032 0 0 0-.006.01l-.005.015a.03.03 0 0 0 0 .023.03.03 0 0 0 .017.016l.765.292a.031.031 0 0 0 .012.002.029.029 0 0 0 .012-.003.029.029 0 0 0 .01-.006.029.029 0 0 0 .006-.01l.005-.015Zm-1.505.31a.096.096 0 1 0-.192 0 .096.096 0 0 0 .192 0Zm-7.641-.005.045.088a.069.069 0 0 0 .13-.032v-.08c0-.034-.016-.05-.049-.05h-.08a.052.052 0 0 0-.044.024.052.052 0 0 0-.002.05Zm-.692 1.335a.285.285 0 0 0-.144-.245.187.187 0 0 0-.276.108c-.108.366.444.308.654.333a.087.087 0 0 0 .063-.018l.5-.392c.034-.026.03-.044-.013-.053-.013-.004-.522.342-.595.377a.132.132 0 0 1-.189-.11Zm9.056-.026a.164.164 0 0 1-.174.161.167.167 0 0 1-.083-.026 10.78 10.78 0 0 1-.513-.358c-.015-.012-.032-.008-.05.012a.036.036 0 0 0-.004.041.037.037 0 0 0 .01.011l.536.38a.086.086 0 0 0 .083.01l.195-.083a.082.082 0 0 1 .066 0c.163.068.274.025.333-.13a.178.178 0 0 0-.172-.241c-.148.005-.224.08-.227.223ZM5.4 14.54a3.88 3.88 0 0 1 .933-.71c.033-.018.037-.04.011-.067l-.084-.09c-.02-.022-.04-.023-.061-.003l-.928.87a.07.07 0 0 0-.022.05.069.069 0 0 0 .02.05l.195.196c.017.017.034.017.05 0l.02-.018a.035.035 0 0 0 0-.048l-.136-.159c-.021-.024-.02-.048.002-.07Zm8.619.074-.159.145a.043.043 0 0 0-.008.053.042.042 0 0 0 .05.019.396.396 0 0 0 .235-.2c.026-.049.02-.092-.021-.13l-.907-.847c-.025-.024-.048-.021-.067.009l-.062.098c-.021.032-.015.058.019.077.338.189.646.42.921.693a.058.058 0 0 1-.001.083Zm-7.524.67-.139-.091c-.047-.03-.046-.06.004-.087l.1-.054a.03.03 0 0 0 .012-.042.031.031 0 0 0-.01-.011c-.494-.318-.024-.654.218-.865.028-.025.026-.047-.005-.067l-.08-.05c-.033-.021-.059-.015-.079.018-.125.213-.412.48-.319.747.05.141.07.276.063.405a.072.072 0 0 0 .044.073l.16.079a.031.031 0 0 0 .03-.055Zm6.562-.111-.11.122a.036.036 0 0 0 .019.057.038.038 0 0 0 .024-.002l.118-.062a.094.094 0 0 0 .05-.07l.116-.63a.096.096 0 0 0-.018-.075l-.372-.5c-.025-.035-.052-.036-.081-.005l-.066.073c-.024.027-.022.05.007.072.242.188.73.525.228.822a.043.043 0 0 0-.022.034.043.043 0 0 0 .015.038l.089.077a.033.033 0 0 1 .012.024.034.034 0 0 1-.009.025Zm-3.368.462c-.296.13-.382.287-.259.473.353.535.906-.275.314-.458l-.019-1.594a.01.01 0 0 0-.005-.009l-.02-.006c-.01-.003-.014 0-.014.01l.003 1.584Zm-1.72-.021.215-.649a.063.063 0 0 0-.01-.057.065.065 0 0 0-.052-.027h-.051c-.035 0-.056.017-.063.05l-.144.65c-.008.036-.03.047-.064.037l-.33-.105a.047.047 0 0 1-.029-.028.048.048 0 0 1 .003-.04l.35-.633a.035.035 0 0 0-.026-.051c-.023-.004-.04.004-.048.024-.118.25-.243.501-.377.751-.012.023-.007.039.017.048a5.695 5.695 0 0 0 1.653.39c.01 0 .017-.004.02-.014a.19.19 0 0 1 .01-.024c.011-.025.003-.04-.024-.046l-1.006-.202a.06.06 0 0 1-.046-.05.063.063 0 0 1 .002-.024Zm3.967-.104-.325.109a.055.055 0 0 1-.043-.005.052.052 0 0 1-.026-.034l-.143-.657c-.01-.043-.036-.058-.078-.043l-.073.026a.045.045 0 0 0-.027.024.045.045 0 0 0-.002.035l.23.643a.06.06 0 0 1-.02.068.059.059 0 0 1-.024.01l-.212.042c-.036.007-.06-.007-.073-.04a9.358 9.358 0 0 1-.22-.647c-.007-.026-.027-.04-.06-.042a.034.034 0 0 0-.018.004.038.038 0 0 0-.021.03.037.037 0 0 0 .002.018l.239.615a.083.083 0 0 1-.063.113 49.75 49.75 0 0 1-.565.093c-.024.004-.035.025-.033.065a.036.036 0 0 0 .038.033 5.542 5.542 0 0 0 1.629-.38c.029-.012.036-.032.022-.06l-.387-.747a.034.034 0 0 0-.054-.009c-.017.015-.02.032-.011.049.114.208.227.418.34.628.017.029.01.049-.022.059Zm-3.329-.468a.037.037 0 0 0-.022-.047l-.01-.004a.036.036 0 0 0-.04.01.037.037 0 0 0-.008.012l-.221.606a.037.037 0 0 0 .022.047l.01.004a.036.036 0 0 0 .04-.01.037.037 0 0 0 .007-.012l.222-.606Z"/><path fill="#0E2437" d="M4.841 6.577a.038.038 0 0 1-.012-.052l.013-.021a.228.228 0 0 1 .035-.045.172.172 0 0 1 .042-.03.103.103 0 0 1 .042-.012.06.06 0 0 1 .035.009l.016.01c.01.005.019.015.024.027a.103.103 0 0 1 .01.043.172.172 0 0 1-.009.05.228.228 0 0 1-.023.053L5 6.629a.038.038 0 0 1-.052.013l-.108-.065Zm9.547-.011c.019.054.072.085.12.07.047-.017.07-.074.051-.128-.018-.055-.072-.086-.12-.07-.046.017-.07.074-.051.128ZM9.034 12.76c.466.038.857.089 1.329.017.05-.008.075.01.076.052a.062.062 0 0 1-.047.062 2.573 2.573 0 0 1-1.35-.017c-.029-.009-.048-.023-.058-.044a.05.05 0 0 1 .05-.07Zm-4.077.976a.11.11 0 1 0 0-.22.11.11 0 0 0 0 .22Zm9.497.014a.12.12 0 1 0 0-.242.12.12 0 0 0 0 .242Z"/><path fill="#41ACB3" d="M8.653 6.26c.22.154.558.237.392.602a.097.097 0 0 1-.05.05l-.417.191c-.04.019-.066.006-.076-.037a1.162 1.162 0 0 1 .089-.79c.014-.03.035-.035.062-.016Zm2.221.834c-.244-.075-.599-.164-.538-.433.04-.173.295-.305.438-.397a.053.053 0 0 1 .065.006.05.05 0 0 1 .013.019c.099.25.123.509.072.774-.006.029-.022.04-.05.03ZM8.206 9.498l-.029.402-.664.003c-.024 0-.034.012-.029.036.178.762.972.959 1.497.39a.075.075 0 0 1 .069-.024c.137.018.216.097.212.245-.01.409-.004.817.02 1.224 0 .031.016.052.046.064l.27.101a.063.063 0 0 1 .04.06v.419c.002.027-.012.043-.04.045-.25.027-.496.061-.736.101-.05.008-.075.018-.077.031a.09.09 0 0 0 .06.104.092.092 0 0 0 .044.004 5.19 5.19 0 0 1 1.391-.019c.128.015.264.054.366-.042a.046.046 0 0 0 .012-.048.046.046 0 0 0-.038-.03l-.796-.097a.051.051 0 0 1-.032-.016.05.05 0 0 1-.012-.033v-.41a.053.053 0 0 1 .032-.049l.306-.124c.026-.01.04-.03.04-.058.004-.406.004-.81 0-1.213-.002-.16.056-.256.22-.26a.09.09 0 0 1 .065.028c.572.596 1.237.34 1.498-.364.012-.033.001-.05-.033-.054a3.316 3.316 0 0 0-.966.024.775.775 0 0 0 .01-.426c.488-.082.914.037 1.278.356a.12.12 0 0 1 .038.065c.085.405.114.815.085 1.229a.06.06 0 0 1-.048.059.438.438 0 0 0-.329.318c-.147.518-.116 1.165-.621 1.616-.176.157-.505.37-.987.642-.24.135-1.064.132-1.306 0a9.17 9.17 0 0 1-.87-.55c-.57-.404-.592-.963-.733-1.593-.052-.234-.147-.373-.363-.448a.056.056 0 0 1-.04-.052 4.714 4.714 0 0 1 .036-1.012c.066-.465.704-.65 1.114-.644Zm2.156 3.279c-.471.072-.862.021-1.328-.018a.05.05 0 0 0-.05.071c.01.02.029.035.058.044.442.125.891.131 1.35.017a.062.062 0 0 0 .047-.062c-.002-.042-.027-.06-.077-.052Zm2.434 4.653.031.048a.043.043 0 0 1 .003.042.041.041 0 0 1-.036.023c-.065.004-.085-.03-.062-.104.016-.046.037-.05.064-.009Z"/><path fill="#CFC79C" d="M9.697 3.6a.054.054 0 0 1 .05.005c.353.137.332.465.034.64a.103.103 0 0 1-.069.013c-.43-.066-.45-.596-.015-.657Zm.204.333a.202.202 0 1 0-.403 0 .202.202 0 0 0 .403 0Zm4.044 1.363.22.218a.045.045 0 0 1 .01.051.045.045 0 0 1-.011.015l-.91.85c-.026.024-.051.023-.074-.005l-.102-.127a.027.027 0 0 1-.006-.011.027.027 0 0 1 0-.013.028.028 0 0 1 .016-.019 2.67 2.67 0 0 0 .928-.677.046.046 0 0 0 0-.06.045.045 0 0 0-.018-.012.299.299 0 0 1-.155-.132.065.065 0 0 1 .06-.095.06.06 0 0 1 .042.017Zm-4.16 3.64a1.569 1.569 0 0 0-.024-.031c.095-.076.105-.152.03-.227a.123.123 0 0 0-.211.09l.002.086c-.036.012-.047.01-.033-.006a2.345 2.345 0 0 0-1.361-.75.08.08 0 0 1-.062-.106l.118-.349c.014-.04 0-.058-.043-.051l-.247.042a.043.043 0 0 1-.036-.01.045.045 0 0 1-.016-.034 2.609 2.609 0 0 1 .44-1.506c.01-.014.02-.022.034-.022.022-.002.027.007.017.026-.673 1.211.671 2.52 1.893 2.008.786-.33 1.154-1.16.764-1.966a.028.028 0 1 1 .049-.028c.29.442.43.93.42 1.465-.001.042-.022.06-.063.054l-.255-.034a.035.035 0 0 0-.037.047l.153.39a.053.053 0 0 1-.04.071c-.602.107-1.1.388-1.492.841Zm2.017-.451a.035.035 0 0 1-.017-.016.035.035 0 0 1-.003-.024 3.195 3.195 0 0 0-.215-2.233.015.015 0 0 1 0-.01.016.016 0 0 1 .006-.008.015.015 0 0 1 .019.002c.591.71.838 1.532.74 2.467-.002.022-.013.029-.034.02l-.496-.198Zm-4.039-2.2c.054-.072.065-.066.031.017a3.22 3.22 0 0 0-.102 2.141c.007.026-.002.043-.027.051l-.532.175c-.024.008-.037 0-.039-.026-.08-.88.143-1.666.669-2.358Z"/><path fill="#CFC79C" d="M10.106 6.77a.395.395 0 1 1-.789 0 .395.395 0 0 1 .79 0Zm-.135.001a.26.26 0 1 0-.518 0 .26.26 0 0 0 .518 0ZM5.927 7.938c.027.043.08.058.12.034.038-.025.048-.08.021-.122-.027-.044-.08-.059-.119-.034-.039.024-.049.079-.022.122Zm3.211 1.265c.115.1.102.12-.038.06-.719-.306-1.355-.194-1.907.339a.027.027 0 0 1-.047-.018l-.027-.378a.075.075 0 0 1 .02-.053c.544-.597 1.43-.443 1.999.05Zm3.095-.121a.18.18 0 0 1 .063.152l-.021.368c-.002.04-.017.045-.045.016-.537-.542-1.315-.697-1.982-.304a.02.02 0 0 1-.034-.02.021.021 0 0 1 .008-.013c.507-.543 1.414-.725 2.011-.199Zm-3.437 1.102.005.001.004.003a.013.013 0 0 1 .003.01v.001c-.005.083-.064.159-.164.211a.718.718 0 0 1-.369.07l-.029-.002a.814.814 0 0 1-.195-.035.611.611 0 0 1-.163-.077.359.359 0 0 1-.106-.108.21.21 0 0 1-.032-.122v-.002c0-.001 0-.003.002-.004 0-.002.001-.003.003-.004a.012.012 0 0 1 .004-.003h.005l1.032.061Zm2.86-.058c.003 0 .005 0 .007.002a.009.009 0 0 1 .002.006l.001.004c.005.081-.043.162-.133.226a.696.696 0 0 1-.35.113l-.03.002a.79.79 0 0 1-.194-.01.592.592 0 0 1-.167-.057.35.35 0 0 1-.115-.093.208.208 0 0 1-.046-.115v-.003c0-.002 0-.005.002-.006a.01.01 0 0 1 .006-.003l1.018-.066Zm1.774 2.308a.096.096 0 1 0 0-.192.096.096 0 0 0 0 .192Zm-7.546-.1a.051.051 0 0 1 .046-.074h.08c.034 0 .05.017.05.05v.08a.069.069 0 0 1-.13.032l-.046-.088Zm3.806 3.3a.11.11 0 0 1 .056.015c.592.183.038.993-.315.458-.123-.186-.037-.344.26-.473Zm.212.338a.2.2 0 1 0-.401 0 .2.2 0 0 0 .401 0Z"/><path fill="#3E9099" d="M13.782 3.434a.129.129 0 0 1-.07.004c-.023-.005-.035.005-.034.03l.002.13a7.811 7.811 0 0 0-2.486-.979c-.023-.005-.034-.019-.034-.042v-.433c0-.028-.014-.045-.042-.05a7.829 7.829 0 0 0-1.29-.136c-.032-.001-.048.014-.048.046v.367c0 .034.017.052.05.054l.444.027a.061.061 0 0 1 .057.062l-.014 1.035a.11.11 0 0 0 .097.111l.52.067a.058.058 0 0 1 .05.061l-.018.366c0 .012.005.02.017.024l1.083.345a.067.067 0 0 1 .044.043c.021.065.014.102-.023.112-.013.003-.439-.165-.519-.179-.035-.006-.055.009-.06.043l-.104.604a.047.047 0 0 1-.023.033.046.046 0 0 1-.039.003l-.09-.034c-.025-.01-.034-.026-.027-.052l.174-.614c.01-.035-.002-.056-.037-.064l-.444-.11c-.042-.011-.063-.039-.061-.082l.014-.328a.052.052 0 0 0-.045-.054l-.5-.06c-.067-.01-.101-.048-.102-.116l-.006-1.058a.054.054 0 0 0-.053-.052h-.899a.055.055 0 0 0-.038.017.056.056 0 0 0-.017.039L9.196 3.71a.077.077 0 0 1-.068.076l-.518.068c-.045.006-.065.031-.06.076l.04.316a.047.047 0 0 1-.036.051l-.463.108c-.068.016-.093.057-.075.125l.151.556c.01.035-.002.061-.035.077l-.046.022A.06.06 0 0 1 8 5.14l-.1-.587a.081.081 0 0 0-.111-.063l-.446.183a.039.039 0 0 1-.026.001.04.04 0 0 1-.021-.015c-.03-.044-.003-.084.082-.12.334-.138.68-.252 1.035-.34.031-.009.047-.03.047-.062v-.36c0-.014.005-.026.014-.036a.053.053 0 0 1 .033-.018l.555-.065a.043.043 0 0 0 .027-.014.041.041 0 0 0 .011-.027v-1.05c0-.076.038-.116.113-.122l.385-.027c.035-.002.054-.02.057-.057l.03-.368c.004-.042-.015-.061-.058-.057l-1.302.134c-.038.004-.057.025-.059.063l-.01.399a.11.11 0 0 1-.088.105c-.721.142-1.41.39-2.065.746-.034-.115-.081-.162-.142-.14l-.245-.522a.04.04 0 0 1-.001-.032.041.041 0 0 1 .023-.024c.035-.015.061-.009.076.02.112.2.195.35.25.445a.05.05 0 0 0 .03.025.054.054 0 0 0 .04-.004 7.56 7.56 0 0 1 1.908-.68c.039-.008.058-.032.058-.071v-.383a.086.086 0 0 1 .07-.085 6.87 6.87 0 0 1 1.423-.136.056.056 0 0 0 .037-.013.054.054 0 0 0 .018-.034l.014-.095c.006-.037-.01-.055-.048-.055h-.176a.068.068 0 0 1-.015-.134c.19-.041.38-.041.572 0a.062.062 0 0 1-.007.124l-.164.016a.05.05 0 0 0-.031.016.048.048 0 0 0-.013.032v.082a.049.049 0 0 0 .048.049c.477.009.95.057 1.42.144.048.009.072.038.072.088v.403a.045.045 0 0 0 .036.044 7.203 7.203 0 0 1 1.929.687c.023.012.04.007.053-.015l.257-.429c.016-.026.034-.042.053-.048a.052.052 0 0 1 .042.005c.024.013.03.033.018.058l-.237.465c-.014.029-.008.052.02.069l.29.178Z"/><path fill="#3E9099" d="M12.73 2.578c.04.023.088.013.108-.022.02-.034.002-.08-.038-.104-.04-.022-.09-.013-.109.022-.02.035-.002.081.038.104Zm-6.097.014a.069.069 0 1 0 0-.138.069.069 0 0 0 0 .138Zm3.115 1.013a.054.054 0 0 0-.05-.004 4.029 4.029 0 0 1-.028-.94.034.034 0 0 1 .069.002l.009.942ZM3.67 6.748a7 7 0 0 0-.802 2.496c-.005.037-.026.054-.063.052l-.09-.006a.042.042 0 0 1-.04-.047c.386-3.186 2.969-5.937 6.27-6.177.036-.003.053.013.05.05l-.006.07a.05.05 0 0 1-.012.029.048.048 0 0 1-.03.014 7.406 7.406 0 0 0-2.305.689c-.066.032-.082.08-.048.145l.587 1.115a.047.047 0 0 1-.006.054c-.034.038-.062.031-.086-.02a16.07 16.07 0 0 0-.595-1.132.076.076 0 0 0-.103-.028 6.975 6.975 0 0 0-2.625 2.513c-.018.03-.012.054.02.07l1.858 1.01a.034.034 0 0 1 .017.025.033.033 0 0 1-.01.028l-.022.023a.043.043 0 0 1-.025.012.044.044 0 0 1-.027-.005L3.76 6.722c-.039-.022-.07-.013-.092.026Zm9.114-2.815a7.58 7.58 0 0 0-2.299-.71.087.087 0 0 1-.06-.038.084.084 0 0 1-.01-.07c.019-.06.074-.083.168-.071 3.179.414 5.821 2.97 6.162 6.204a.046.046 0 0 1-.012.037.046.046 0 0 1-.035.015H16.6c-.031 0-.049-.015-.053-.046a6.88 6.88 0 0 0-.817-2.506.048.048 0 0 0-.065-.02c-.61.32-1.213.661-1.81 1.026a.063.063 0 0 1-.03.01c-.018 0-.028 0-.031-.002a.053.053 0 0 1-.02-.026.063.063 0 0 1-.002-.035.086.086 0 0 1 .016-.034.098.098 0 0 1 .03-.026l1.787-.973a.076.076 0 0 0 .028-.106 6.93 6.93 0 0 0-2.682-2.547.023.023 0 0 0-.017.005.023.023 0 0 0-.006.007l-.6 1.14c-.073.139-.107.13-.103-.026 0-.006.021-.044.063-.113.2-.33.374-.675.52-1.032.011-.029.004-.05-.024-.063Z"/><path fill="#3E9099" d="m12.054 4.753-.025-.011a.02.02 0 0 0-.028.01l-.253.57a.02.02 0 0 0 .01.028l.025.01a.02.02 0 0 0 .027-.01l.254-.57a.02.02 0 0 0-.01-.027Zm-4.581.346c.068.172.142.304.166.294.024-.009-.012-.156-.08-.328-.067-.173-.142-.305-.166-.295-.023.01.012.156.08.329Zm1.309.919a.042.042 0 0 1-.003-.067c.216-.189.465-.312.748-.369.03-.006.047.006.048.037l.018.439a.062.062 0 0 1-.031.056l-.336.188a.051.051 0 0 1-.053-.004l-.39-.28Zm1.848-.081c.034.032.032.062-.005.09l-.372.274a.048.048 0 0 1-.054.003l-.327-.188a.06.06 0 0 1-.032-.054v-.444c0-.033.016-.047.048-.042.286.042.534.162.742.36Zm-5.47.518c.024.225-.162.403-.359.223-.19-.173.016-.438.234-.365a.094.094 0 0 0 .072-.003c.321-.142.652.163.882.39.014.014.014.027 0 .04a.301.301 0 0 0-.018.02c-.002.001-.005.002-.007 0-.2-.153-.506-.485-.774-.36-.023.012-.033.03-.03.055Zm-.319.122.108.065a.038.038 0 0 0 .052-.012l.013-.021a.228.228 0 0 0 .024-.052.172.172 0 0 0 .007-.051.103.103 0 0 0-.008-.043.062.062 0 0 0-.025-.028l-.016-.01a.063.063 0 0 0-.035-.008.103.103 0 0 0-.042.012.172.172 0 0 0-.042.03.228.228 0 0 0-.035.045l-.013.02a.038.038 0 0 0 .012.053Zm9.547-.259c.51.02.258.552-.013.404-.092-.05-.134-.116-.125-.2a.155.155 0 0 0-.236-.147 4.81 4.81 0 0 0-.538.381c-.014.012-.028.015-.043.01-.029-.01-.033-.025-.01-.047a2.39 2.39 0 0 1 .57-.429c.146-.074.252.022.395.028Zm.12.317a.085.085 0 0 0 .05-.05.117.117 0 0 0-.048-.14.091.091 0 0 0-.035-.01.08.08 0 0 0-.035.003.085.085 0 0 0-.05.05.112.112 0 0 0-.002.078.12.12 0 0 0 .02.036c.008.01.018.019.029.025a.09.09 0 0 0 .035.012.08.08 0 0 0 .035-.004ZM4.471 7.645l-.06-.011.115-.26c.007-.015.017-.02.032-.015a1.14 1.14 0 0 0 .027.01.009.009 0 0 1 0 .013.37.37 0 0 0-.114.263Zm8.891.201a.083.083 0 0 1 .053-.02c.02 0 .038.006.053.017a.064.064 0 0 1 .024.045.063.063 0 0 1-.017.047l-.027.026a.062.062 0 0 1-.052.017.06.06 0 0 1-.044-.032c-.022-.04-.018-.074.01-.1ZM3.907 8.98c-.008.006-.003.018.014.034l-.295-.015a.095.095 0 0 0-.097.074l-.092.427c-.006.025-.021.039-.047.042a3.84 3.84 0 0 1-.705.002.1.1 0 0 1-.048-.016.044.044 0 0 1 .027-.078l.613.008a.043.043 0 0 0 .044-.035l.09-.438a.05.05 0 0 1 .035-.037.71.71 0 0 1 .461.031Zm9.357 1.068 1.476-.01c.02 0 .041.002.062.006.106.02.122.05.046.085a.12.12 0 0 1-.053.012l-1.524-.002a.075.075 0 0 0-.074.047.7.7 0 0 1-.51.407c-.03.006-.049-.005-.06-.032-.198-.555.08-.867.058-1.415a.042.042 0 0 1 .02-.038.042.042 0 0 1 .043 0c.343.194.5.49.471.892-.003.032.012.048.045.048Zm-6.553.532c-.788-.192-.616-1.116-.073-1.455a.048.048 0 0 1 .073.046c-.056.532.27.824.061 1.376-.01.029-.03.04-.06.032Z"/><path fill="#3E9099" d="m6.088 10.033-1.48.008a.056.056 0 0 0-.056.056v.003c0 .031.025.056.056.056l1.48-.008a.056.056 0 0 0 .056-.056v-.003a.056.056 0 0 0-.056-.056Zm9.387 1.244c.007.014.01 0 .007-.042l.361.002a.058.058 0 0 0 .056-.045l.098-.455a.047.047 0 0 1 .046-.037h.719a.02.02 0 0 1 .014.006l.02.02a.03.03 0 0 1 .007.033.032.032 0 0 1-.03.02l-.612.006a.053.053 0 0 0-.032.012.05.05 0 0 0-.018.029l-.084.41a.11.11 0 0 1-.121.09l-.431-.05Zm-6.408 5.154-.547-.087a.072.072 0 0 1-.035-.015.076.076 0 0 1-.022-.03.303.303 0 0 1 .01-.267.034.034 0 0 1 .058-.007.034.034 0 0 1 .007.022l.002.139a.05.05 0 0 0 .013.031.048.048 0 0 0 .03.016l.571.065c.03.003.046.02.046.05l-.004.626a.045.045 0 0 1-.03.043.046.046 0 0 1-.018.002c-3.224-.226-5.765-2.509-6.416-5.639a2.874 2.874 0 0 1-.053-.402c0-.012.002-.024.01-.034a.052.052 0 0 1 .027-.02c.084-.025.14.023.154.107.144.863.432 1.677.865 2.442a.06.06 0 0 0 .038.03.063.063 0 0 0 .048-.007l1.743-1.013a.046.046 0 0 1 .055.005.046.046 0 0 1 .012.054.124.124 0 0 1-.063.06 27.91 27.91 0 0 0-1.69.952.086.086 0 0 0-.028.12 6.863 6.863 0 0 0 2.604 2.388.045.045 0 0 0 .06-.019c.216-.383.425-.763.627-1.14a.042.042 0 0 1 .043-.024c.005 0 .01.002.016.005a.034.034 0 0 1 .016.028.033.033 0 0 1-.004.017l-.608 1.137a.075.075 0 0 0 .035.103 7.51 7.51 0 0 0 2.409.677c.03.004.045-.01.047-.04l.017-.32a.053.053 0 0 0-.045-.055Z"/><path fill="#3E9099" d="M15.685 13.486a7.229 7.229 0 0 0 .875-2.507.076.076 0 0 1 .038-.054.075.075 0 0 1 .065-.004l.05.02a.061.061 0 0 1 .038.067c-.513 3.298-3.106 5.787-6.459 6.02-.034.001-.052-.015-.052-.05v-.639a.046.046 0 0 1 .04-.045l.552-.078a.054.054 0 0 0 .047-.052l.002-.125a.04.04 0 0 1 .078-.003l.027.24c.004.032-.01.05-.041.055l-.542.1a.086.086 0 0 0-.07.087l.01.288c.002.026.015.037.041.034a7.83 7.83 0 0 0 2.367-.648.09.09 0 0 0 .052-.088.086.086 0 0 0-.01-.034l-.598-1.127a.041.041 0 0 1 .013-.053.044.044 0 0 1 .018-.008c.034-.005.059.008.075.04.19.38.382.754.574 1.123a.074.074 0 0 0 .043.036.072.072 0 0 0 .057-.006 7.201 7.201 0 0 0 2.607-2.415c.025-.039.018-.07-.022-.094a33.679 33.679 0 0 0-1.752-.976c-.04-.02-.057-.048-.05-.082a.055.055 0 0 1 .032-.038.054.054 0 0 1 .049.003l1.772 1.033a.053.053 0 0 0 .074-.02Zm-11.261-.908c.01.005.025.003.045-.005a.98.98 0 0 1 .072.247c.008.053 0 .056-.025.009a1.023 1.023 0 0 1-.092-.251Zm.768 1.091a.131.131 0 0 0 .19.11c.072-.035.58-.38.594-.377.042.01.046.027.012.053l-.499.392a.087.087 0 0 1-.063.018c-.21-.025-.762.033-.655-.333a.189.189 0 0 1 .277-.108c.09.054.138.136.144.245Zm-.125-.043a.11.11 0 1 0-.22 0 .11.11 0 0 0 .22 0Z"/><path fill="#3E9099" d="M14.248 13.643c.003-.144.079-.218.227-.223a.178.178 0 0 1 .172.24c-.059.156-.17.2-.333.13a.082.082 0 0 0-.066.001l-.195.083a.085.085 0 0 1-.083-.01l-.535-.38a.034.034 0 0 1-.014-.04.034.034 0 0 1 .008-.012c.017-.02.034-.024.05-.012.159.119.33.238.512.358a.167.167 0 0 0 .232-.052.164.164 0 0 0 .025-.083Zm.327-.014a.12.12 0 0 0-.075-.112.12.12 0 0 0-.157.066.12.12 0 0 0 .026.131.12.12 0 0 0 .206-.085Zm-4.83 2.02a.11.11 0 0 0-.055-.015l-.003-1.584c0-.01.004-.013.013-.01l.02.006c.004.002.006.005.006.01l.019 1.593Zm-1.775-.036a.057.057 0 0 0 .005.047.06.06 0 0 0 .039.027l1.005.202c.027.006.035.021.024.046a.19.19 0 0 0-.01.024c-.003.01-.01.015-.02.014a5.696 5.696 0 0 1-1.652-.39c-.024-.01-.03-.025-.018-.048.134-.25.26-.5.377-.751.009-.02.025-.028.049-.024a.036.036 0 0 1 .026.019.035.035 0 0 1 0 .032l-.351.632a.048.048 0 0 0 .027.069l.33.105c.034.01.055-.002.063-.036l.144-.65c.007-.034.028-.051.063-.051h.051a.065.065 0 0 1 .064.054c.002.01.001.02-.002.03l-.214.649Zm3.989-.163-.34-.628c-.01-.017-.007-.034.01-.05a.034.034 0 0 1 .054.01l.387.748c.014.027.007.047-.022.059a5.543 5.543 0 0 1-1.63.38.035.035 0 0 1-.024-.009.036.036 0 0 1-.013-.024c-.002-.04.008-.061.033-.065.184-.03.372-.06.565-.093a.084.084 0 0 0 .069-.077.085.085 0 0 0-.006-.036l-.24-.615a.039.039 0 0 1 .005-.036.037.037 0 0 1 .033-.016c.033.003.053.016.06.042a9 9 0 0 0 .22.646c.013.034.037.048.073.041l.212-.042a.059.059 0 0 0 .04-.029.06.06 0 0 0 .004-.05l-.23-.642a.044.044 0 0 1 .002-.035.045.045 0 0 1 .027-.024l.073-.026c.042-.015.068 0 .078.043l.143.657a.052.052 0 0 0 .047.041c.007 0 .015 0 .022-.002l.325-.11c.031-.01.039-.03.023-.058Zm-5.302 2.108a.082.082 0 1 0 0-.165.082.082 0 0 0 0 .165Zm3.162.186c-.056.02-.074.038-.053.055a.725.725 0 0 0 .022.384c.01.031.032.045.064.042l1.534-.155a.03.03 0 0 1 .024.008.03.03 0 0 1 .01.023v.025c0 .025-.011.04-.036.044a8.6 8.6 0 0 1-1.537.16.068.068 0 0 0-.068.068v.262c0 .027.014.04.04.04h.342c.027 0 .04.014.037.04-.003.028-.021.045-.053.05-.282.051-.578.05-.888-.004a.098.098 0 0 1-.058-.028.098.098 0 0 1-.018-.027c-.01-.021-.003-.032.02-.032l.417.001c.04 0 .058-.019.056-.058l-.014-.256c-.001-.028-.017-.044-.046-.045-.534-.028-1.047-.041-1.571-.154a.063.063 0 0 1-.053-.072.064.064 0 0 1 .026-.042.066.066 0 0 1 .047-.011l1.532.16a.069.069 0 0 0 .056-.018.07.07 0 0 0 .022-.054l-.008-.403.154-.003Z"/><path fill="#7BC1C1" d="M6.103 3.384c-2.469 1.358-3.96 3.754-4.011 6.587-.001.033.015.049.048.049H3.8a.085.085 0 0 0 .067-.033c.177-.227.467-.285.596.017.135.317-.401.62-.588.191a.054.054 0 0 0-.052-.034l-1.648-.021a.082.082 0 0 0-.078.053.085.085 0 0 0-.006.033c.077 3.92 3.145 7.043 7.043 7.322.192.014.35.017.477.01.033-.002.05-.02.051-.053l.025-1.126c0-.01.004-.017.01-.021a.028.028 0 0 1 .025-.003.049.049 0 0 1 .024.017.05.05 0 0 1 .011.028l.007 1.134c0 .03.015.044.044.043 4.165-.089 7.405-3.192 7.523-7.386 0-.022-.01-.033-.033-.033l-1.682.003a.07.07 0 0 0-.068.044c-.147.317-.459.258-.593-.024-.133-.277.397-.591.59-.205.01.02.027.031.05.031l1.704-.01a.035.035 0 0 0 .026-.01.037.037 0 0 0 .01-.027c-.074-2.611-1.398-5.01-3.655-6.362l-.003-.13c0-.025.011-.035.035-.03a.13.13 0 0 0 .07-.004 7.53 7.53 0 0 1 2.712 2.785.109.109 0 0 0 .143.043L17 6.08a.04.04 0 0 1 .036 0 .04.04 0 0 1 .021.029c.009.045-.012.079-.064.1a1.81 1.81 0 0 0-.346.2c-.024.018-.03.04-.016.066a7.911 7.911 0 0 1 .891 3.447c0 .022.01.043.025.058.064.066.064.132-.002.2a.082.082 0 0 0-.024.054 7.746 7.746 0 0 1-.92 3.488c-.011.022-.007.04.015.052l.422.252c.01.006.018.016.021.027a.047.047 0 0 1-.002.033c-.017.038-.045.046-.085.02a2.335 2.335 0 0 0-.42-.208c-.026-.01-.047-.003-.061.021a7.735 7.735 0 0 1-2.989 2.9.08.08 0 0 0-.031.108l.253.469a.055.055 0 0 1-.024.07.055.055 0 0 1-.072-.016l-.275-.473a.066.066 0 0 0-.037-.03.064.064 0 0 0-.047.003 8.032 8.032 0 0 1-3.45.794l-.153.003a8.07 8.07 0 0 1-3.515-.802c-.026-.013-.046-.007-.06.019l-.266.462c-.014.026-.035.034-.064.024-.043-.015-.055-.043-.035-.084.075-.159.156-.303.242-.434a.075.075 0 0 0-.027-.106 7.764 7.764 0 0 1-3.015-2.907c-.017-.03-.041-.036-.071-.019l-.387.208a.056.056 0 0 1-.037.006c-.076-.01-.092-.04-.049-.09.07-.082.307-.174.411-.255.023-.019.028-.041.014-.067a7.545 7.545 0 0 1-.908-3.458.087.087 0 0 0-.026-.062l-.068-.068c-.024-.024-.021-.044.01-.06a.162.162 0 0 0 .058-.046.116.116 0 0 0 .024-.072c.032-1.309.362-2.348.88-3.475.012-.026.006-.046-.019-.06a9.738 9.738 0 0 0-.371-.204c-.033-.017-.041-.043-.025-.077a.06.06 0 0 1 .081-.027l.38.188a.048.048 0 0 0 .064-.02C3.613 4.98 4.638 3.974 5.96 3.243c.061-.02.109.026.143.141Zm-1.745 6.72a.192.192 0 1 0-.384 0 .192.192 0 0 0 .384 0Zm11.087 0a.187.187 0 1 0-.374 0 .187.187 0 0 0 .374 0Z"/><path fill="#7BC1C1" d="M9.543 7.38a.072.072 0 0 1 .037.025c.01.013.015.027.015.043l.013.44c0 .029-.013.04-.042.036a1.333 1.333 0 0 1-.88-.533c-.019-.025-.014-.044.015-.056l.424-.18a.061.061 0 0 1 .073.015c.096.1.211.17.345.21Zm1.189-.048c.026.011.03.028.013.051a1.328 1.328 0 0 1-.85.541.046.046 0 0 1-.055-.046V7.47c0-.029.012-.051.037-.067l.396-.25a.041.041 0 0 1 .036-.003l.423.182ZM8.206 9.498c.281.001 1.44.216 1.44.682 0 .533 0 1.065-.004 1.598 0 .041-.02.054-.058.037l-.143-.062a.065.065 0 0 1-.042-.064v-1.327a.128.128 0 0 0-.063-.11 2.602 2.602 0 0 0-1.16-.352l.03-.402Zm2.746.014a.775.775 0 0 1-.01.426c-.31.048-.601.153-.874.315a.053.053 0 0 0-.028.049v1.392a.063.063 0 0 1-.042.06l-.163.06a.04.04 0 0 1-.019.002.04.04 0 0 1-.03-.022.04.04 0 0 1-.004-.018c-.004-.553-.004-1.105-.003-1.656 0-.306.923-.571 1.173-.608Z"/><path fill="#171C1A" d="M9.7 4.134a.202.202 0 1 0 0-.403.202.202 0 0 0 0 .403Zm.011 2.896a.26.26 0 1 0 0-.518.26.26 0 0 0 0 .518Zm.049 1.875a.37.37 0 0 1-.178-.05l-.002-.087a.123.123 0 0 1 .21-.09c.076.075.066.151-.03.227Zm-5.593 1.39a.192.192 0 1 0 0-.384.192.192 0 0 0 0 .384Zm11.091-.004a.187.187 0 1 0 0-.374.187.187 0 0 0 0 .374ZM9.7 16.173a.2.2 0 1 0 0-.402.2.2 0 0 0 0 .402Z"/><path fill="#78A3A0" d="M9.661 4.473c-.003.093.013.168.037.17.025 0 .047-.074.051-.166.004-.092-.013-.168-.037-.169-.024 0-.047.073-.05.165Zm1.364-.043a.005.005 0 0 1 .003-.003.005.005 0 0 1 .004 0l.003.001c.01.004.018.01.024.02a.074.074 0 0 1 .014.031.127.127 0 0 1 .001.04.16.16 0 0 1-.01.043l-.164.395a.144.144 0 0 1-.051.065c-.021.014-.044.018-.063.01l-.003-.002h-.001l-.001-.002v-.004l.244-.594Zm-2.657.056-.014.005a.03.03 0 0 0-.017.04l.197.491a.03.03 0 0 0 .04.017l.013-.005a.03.03 0 0 0 .017-.04l-.197-.491a.03.03 0 0 0-.04-.017Zm-1.965.616a.315.315 0 0 1-.13.25.092.092 0 0 0-.034.067c-.013.242.288.373.468.468a.043.043 0 0 1 .006.074l-.084.06c-.021.016-.041.014-.06-.005-.211-.225-.573-.478-.31-.823a.075.075 0 0 0 .01-.078c-.054-.116-.017-.189.108-.22a.118.118 0 0 1 .067.005.112.112 0 0 1 .053.04.067.067 0 0 1 .012.053.062.062 0 0 1-.034.04l-.04.02a.051.051 0 0 0-.032.049Zm6.743-.168a.079.079 0 0 1 .031.085.08.08 0 0 1-.013.028c-.053.068-.017.13.027.2.24.375-.14.554-.337.79-.019.023-.04.024-.06.003l-.093-.088c-.021-.02-.02-.038.006-.053l.396-.231a.175.175 0 0 0 .068-.234l-.235-.442c-.016-.03-.009-.054.021-.07.063-.036.126-.032.189.012ZM6.32 6.327l-.09.094c-.02.022-.041.022-.063.001l-.906-.84c-.021-.02-.022-.04-.004-.063l.171-.2c.027-.03.055-.032.084-.003l.035.034a.056.056 0 0 1-.01.088l-.12.076a.046.046 0 0 0-.01.07c.26.273.56.492.898.658.044.02.05.05.015.085Zm.249.247c.003.03-.01.045-.04.046-.01 0-.02 0-.03.002a.046.046 0 0 1-.042-.007.046.046 0 0 1-.014-.04.087.087 0 0 1 .02-.049.087.087 0 0 1 .045-.028c.033-.01.053.015.06.076Zm6.304.048-.042-.024a.038.038 0 0 1 .004-.068.095.095 0 0 1 .107.01c.027.02.026.046-.005.074-.02.019-.041.02-.064.008ZM4.411 7.634l.061.01-.294.835c-.01.027 0 .045.027.054.293.088.576.176.849.264.077.024.093.062.047.113a.083.083 0 0 1-.09.023l-.807-.285c-.034-.012-.055 0-.063.034l-.063.252c-.008.032.004.049.037.05.328.007.626.104.894.29a.035.035 0 0 1-.004.06c-.029.015-.055.016-.08.001a2.265 2.265 0 0 0-1.003-.321c-.017-.016-.022-.028-.014-.035.032-.018.05-.038.053-.059a4.1 4.1 0 0 1 .45-1.286ZM15.515 8.97l.31-.052c.105-.018.169.025.193.128l.086.37c.007.029.025.042.054.042h.598a.033.033 0 0 1 .025.01c.043.05.036.076-.021.08a4.833 4.833 0 0 1-.722-.009c-.027-.002-.044-.017-.049-.044l-.078-.393a.124.124 0 0 0-.127-.1l-.366.014c-.029.002-.046-.012-.052-.04l-.065-.293c-.008-.037-.03-.048-.065-.035l-.794.298a.1.1 0 0 1-.097-.014c-.045-.035-.057-.07-.036-.107.01-.019.032-.032.065-.041.289-.08.575-.163.86-.25a.042.042 0 0 0 .026-.055l-.284-.796a.032.032 0 0 1 .01-.036c.013-.01.025-.013.038-.008a.037.037 0 0 1 .018.019c.204.405.348.833.43 1.282.005.023.02.033.043.03Z"/><path fill="#78A3A0" d="m5.219 8.437-.791-.219a.022.022 0 0 0-.027.015l-.009.033a.022.022 0 0 0 .016.026l.79.22a.022.022 0 0 0 .027-.016l.009-.032a.022.022 0 0 0-.015-.027Zm9.773-.207-.768.212a.029.029 0 0 0-.02.036l.005.017c.004.015.02.024.035.02l.768-.213a.029.029 0 0 0 .02-.036l-.005-.017a.029.029 0 0 0-.035-.02Zm-5.443.618c-.014.016-.003.018.033.006a.37.37 0 0 0 .179.05l.024.032c-.132.018-.211-.012-.236-.088Zm5.687.092-.822.305a.02.02 0 0 0-.012.027l.018.05a.02.02 0 0 0 .027.012l.822-.306a.02.02 0 0 0 .012-.027l-.018-.049a.02.02 0 0 0-.027-.012ZM1.36 10.089c-.002.266.031.482.076.483.044 0 .083-.215.086-.481.004-.267-.03-.483-.074-.484-.045 0-.084.215-.087.482Zm16.628-.464h-.004a.065.065 0 0 0-.065.065l.005.8c0 .036.029.065.065.064h.004a.065.065 0 0 0 .065-.065l-.004-.8a.065.065 0 0 0-.066-.064ZM4.47 12.573c-.02.008-.035.01-.046.005-.206-.13-.418-1.012-.464-1.263-.004-.024-.019-.035-.044-.033l-.416.032a.07.07 0 0 1-.073-.055l-.092-.433a.055.055 0 0 0-.052-.044 10.052 10.052 0 0 0-.581 0c-.032 0-.054-.01-.065-.032-.016-.033-.006-.05.03-.05h.72a.057.057 0 0 1 .057.046l.08.424a.1.1 0 0 0 .11.082l.364-.036c.033-.003.053.011.06.043l.071.323a.05.05 0 0 0 .046.04c.008 0 .015 0 .021-.004l.837-.325c.02-.008.034-.003.045.014l.04.066c.023.035.014.059-.026.072l-.85.265a.092.092 0 0 0-.056.047.091.091 0 0 0-.003.073l.287.743Z"/><path fill="#78A3A0" d="M4.995 10.98a.019.019 0 0 1 0 .013.019.019 0 0 1-.01.01l-.013.005a13.58 13.58 0 0 1-.573.21 2.357 2.357 0 0 1-.18.052c-.042.01-.064.012-.066.005v-.003c-.004-.013.077-.059.223-.127.147-.068.347-.152.558-.235l.012-.005a.018.018 0 0 1 .014 0 .018.018 0 0 1 .01.01l.025.064Zm10.487.255c.003.042 0 .056-.007.042a4.512 4.512 0 0 1-.605 1.594c-.005.008-.01.012-.018.012-.01 0-.014-.004-.01-.013l.42-1.084a.056.056 0 0 0-.002-.044.054.054 0 0 0-.033-.028l-.875-.258a.052.052 0 0 1-.032-.026.053.053 0 0 1-.003-.041l.027-.079a.041.041 0 0 1 .022-.024.044.044 0 0 1 .034-.001l.85.33a.047.047 0 0 0 .054-.017.05.05 0 0 0 .009-.019l.052-.277c.006-.03-.006-.046-.037-.048a1.701 1.701 0 0 1-.866-.278c-.027-.018-.028-.036-.001-.056.015-.011.03-.013.044-.006.318.168.644.275.977.321Zm-10.312.463-.74.31a.033.033 0 0 0-.017.043l.003.006a.033.033 0 0 0 .042.017l.74-.31a.033.033 0 0 0 .018-.042l-.003-.006a.033.033 0 0 0-.043-.018Z"/><path fill="#78A3A0" d="m15.013 11.99-.765-.293a.03.03 0 0 0-.04.018l-.005.015a.03.03 0 0 0 .018.039l.765.292a.03.03 0 0 0 .04-.017l.005-.015a.03.03 0 0 0-.018-.04Zm-9.615 2.62.137.159a.035.035 0 0 1-.001.048l-.019.018c-.016.017-.033.017-.05 0l-.195-.196a.068.068 0 0 1-.015-.077.07.07 0 0 1 .016-.023l.928-.87c.022-.02.042-.02.062.002l.084.09c.025.028.022.05-.011.069a3.836 3.836 0 0 0-.933.71c-.023.022-.024.046-.003.07Zm8.623-.08a4.23 4.23 0 0 0-.921-.693c-.034-.02-.04-.045-.02-.077l.063-.098c.019-.03.041-.033.067-.01l.906.847c.04.039.048.082.022.131a.396.396 0 0 1-.235.2.043.043 0 0 1-.056-.047.042.042 0 0 1 .014-.025l.159-.145a.058.058 0 0 0 .014-.064.06.06 0 0 0-.013-.02Zm-7.525.753a.031.031 0 0 1-.03.055l-.161-.079a.072.072 0 0 1-.044-.073 1.037 1.037 0 0 0-.063-.405c-.093-.267.194-.534.32-.747.019-.033.045-.04.078-.019l.08.05c.031.02.033.043.005.068-.242.211-.712.547-.219.865a.031.031 0 0 1 .01.042.03.03 0 0 1-.011.011l-.1.054c-.05.027-.051.056-.004.087l.139.091Zm6.559-.16-.089-.077a.044.044 0 0 1-.015-.038.044.044 0 0 1 .022-.034c.503-.297.014-.634-.228-.822-.029-.021-.03-.045-.007-.072l.066-.073c.029-.031.056-.03.081.004l.372.501a.096.096 0 0 1 .018.075l-.115.63a.094.094 0 0 1-.051.07l-.118.062a.035.035 0 0 1-.043-.01.035.035 0 0 1 0-.045l.11-.122a.035.035 0 0 0 .009-.025.035.035 0 0 0-.012-.024Zm-4.469-.129-.01-.004a.037.037 0 0 0-.048.022l-.221.606a.037.037 0 0 0 .022.047l.01.004c.02.007.04-.003.047-.022l.222-.606a.037.037 0 0 0-.022-.047Z"/></g><defs><clipPath id="a"><path fill="#fff" d="M0 0h20v20H0z"/></clipPath></defs></svg>