<svg width="20" height="20" fill="none" xmlns="http://www.w3.org/2000/svg"><circle cx="10" cy="10" r="10" fill="url(#a)"/><circle cx="10" cy="10" r="9.688" fill="#000"/><path fill-rule="evenodd" clip-rule="evenodd" d="m13.454 5.313-2.81 4.013 1.79.739-5.723 4.623 2.81-4.097-2.023-.69 5.956-4.588ZM1.562 8.732v2.598H3.6c.315 0 .855-.215.855-.8.007-.219-.082-.403-.3-.622.036-.064.124-.241.129-.465.007-.28-.356-.711-.684-.711H1.562Zm.52.526h1.436a.232.232 0 0 1 0 .465H2.082v-.465Zm0 .998h1.573a.274.274 0 0 1 0 .547H2.082v-.547Zm2.394 1.074L5.87 8.732h.548l1.394 2.598h-.588L6.137 9.333l-1.08 1.997h-.581ZM12.9 8.732v2.598h2.858v-.52H13.42v-.526h1.819v-.506h-1.82V9.25h2.34v-.52H12.9Zm3.214 0v2.598h1.921c.335 0 .937-.387.937-.923v-.752c0-.536-.602-.923-.937-.923h-1.921Zm.52 2.072V9.258h1.265c.2 0 .56.096.56.55v.446c0 .454-.36.55-.56.55h-1.265Z" fill="url(#b)"/><defs><linearGradient id="a" x1="0" y1="10" x2="20" y2="10" gradientUnits="userSpaceOnUse"><stop stop-color="#64C0E7"/><stop offset=".38" stop-color="#7965AA"/><stop offset="1" stop-color="#D21118"/></linearGradient><linearGradient id="b" x1="1.552" y1="10.824" x2="18.982" y2="8.412" gradientUnits="userSpaceOnUse"><stop stop-color="#64C0E7"/><stop offset=".185" stop-color="#8555C1"/><stop offset=".471" stop-color="#7B70AA"/><stop offset=".645" stop-color="#D21118"/></linearGradient></defs></svg>