<svg width="20" height="20" fill="none" xmlns="http://www.w3.org/2000/svg"><circle cx="10" cy="10" r="10" fill="#FEE2B6"/><mask id="a" style="mask-type:alpha" maskUnits="userSpaceOnUse" x="0" y="0" width="20" height="20"><circle cx="10" cy="10" r="10" fill="#FEE2B6"/></mask><g mask="url(#a)"><path fill="#FE9F10" d="M0 8.125h20v3.75H0z"/></g><path d="M4.64 11.044a.732.732 0 0 1-.373-.09.613.613 0 0 1-.24-.26.88.88 0 0 1-.085-.398c0-.15.028-.281.085-.394a.642.642 0 0 1 .237-.266.66.66 0 0 1 .359-.096c.088 0 .172.015.25.044.08.028.15.073.21.133.06.06.109.136.144.23a.933.933 0 0 1 .052.33v.105H4.101v-.232h.854a.373.373 0 0 0-.042-.175.309.309 0 0 0-.286-.167c-.069 0-.13.017-.182.051a.35.35 0 0 0-.123.133.386.386 0 0 0-.044.179v.202a.48.48 0 0 0 .046.218.33.33 0 0 0 .128.139.38.38 0 0 0 .193.047c.05 0 .094-.007.134-.02a.296.296 0 0 0 .104-.064.265.265 0 0 0 .066-.104l.316.036a.503.503 0 0 1-.114.222.556.556 0 0 1-.213.146.808.808 0 0 1-.298.051ZM17.771 9.979h-.304a.25.25 0 0 0-.134-.157.32.32 0 0 0-.136-.026.332.332 0 0 0-.18.047c-.05.03-.073.071-.072.12-.001.043.015.077.046.104a.399.399 0 0 0 .16.065l.25.053c.139.03.242.077.309.141a.336.336 0 0 1 .103.254.394.394 0 0 1-.081.242.518.518 0 0 1-.22.164.836.836 0 0 1-.324.058.754.754 0 0 1-.433-.112.517.517 0 0 1-.195-.346h.336a.236.236 0 0 0 .097.15.34.34 0 0 0 .194.05.347.347 0 0 0 .197-.05c.05-.034.075-.076.075-.125a.13.13 0 0 0-.048-.103.34.34 0 0 0-.149-.063l-.25-.052a.595.595 0 0 1-.311-.147.36.36 0 0 1-.1-.264c-.001-.09.023-.167.073-.233a.48.48 0 0 1 .209-.154.813.813 0 0 1 .31-.055.67.67 0 0 1 .404.11c.1.072.15.205.174.329ZM14.72 11.017V8.956h.293v.77h.015a.675.675 0 0 1 .082-.12.433.433 0 0 1 .143-.109.503.503 0 0 1 .23-.046.62.62 0 0 1 .333.091c.1.06.179.15.237.27a.97.97 0 0 1 .088.434c0 .17-.028.314-.086.433a.642.642 0 0 1-.234.272.616.616 0 0 1-.336.093.463.463 0 0 1-.372-.151.696.696 0 0 1-.085-.12h-.022v.244h-.285Zm.285-.773c0 .1.015.188.044.263.03.075.072.134.128.176a.331.331 0 0 0 .203.063.333.333 0 0 0 .208-.065.399.399 0 0 0 .127-.178.72.72 0 0 0 .043-.259.717.717 0 0 0-.042-.256.385.385 0 0 0-.127-.175.338.338 0 0 0-.21-.063.337.337 0 0 0-.331.233.727.727 0 0 0-.043.261ZM13.452 11.044a.605.605 0 0 1-.249-.049.405.405 0 0 1-.174-.148.433.433 0 0 1-.063-.24.41.41 0 0 1 .045-.204.353.353 0 0 1 .124-.129.624.624 0 0 1 .177-.073c.066-.017.135-.03.205-.037l.208-.024a.306.306 0 0 0 .115-.034c.024-.015.037-.04.037-.073v-.005a.215.215 0 0 0-.064-.166c-.042-.04-.103-.059-.182-.059-.084 0-.234.018-.283.055a.274.274 0 0 0-.099.13h-.321a.702.702 0 0 1 .127-.267.619.619 0 0 1 .218-.16c.083-.03.26-.045.361-.045.07 0 .14.008.21.025.069.016.132.043.19.081a.48.48 0 0 1 .132.177.498.498 0 0 1 .053.242v.974h-.329v-.2h-.011a.418.418 0 0 1-.23.198.566.566 0 0 1-.197.031Zm.089-.252a.373.373 0 0 0 .179-.04.301.301 0 0 0 .116-.11.28.28 0 0 0 .042-.149v-.172a.162.162 0 0 1-.055.025.797.797 0 0 1-.085.02 2.797 2.797 0 0 1-.174.027.595.595 0 0 0-.137.034.227.227 0 0 0-.096.066.162.162 0 0 0-.035.108c0 .063.023.11.07.143a.3.3 0 0 0 .175.048ZM11.086 11.044V8.956h.334v1.771h1.128v.317h-1.462ZM5.78 11.044V8.956h1.337v.317h-.959v.567h.867v.317h-.867v.887H5.78ZM2.188 11.044V8.956h.728c.138 0 .252.023.343.071.092.047.16.111.206.193a.556.556 0 0 1 .069.277.49.49 0 0 1-.045.218.401.401 0 0 1-.12.146.486.486 0 0 1-.168.08v.021a.388.388 0 0 1 .194.069c.063.04.114.098.153.173.04.075.06.165.06.271a.593.593 0 0 1-.072.292.503.503 0 0 1-.215.203.785.785 0 0 1-.363.074h-.77Zm.344-.316h.371c.125 0 .216-.026.27-.078a.269.269 0 0 0 .084-.204.335.335 0 0 0-.041-.168.299.299 0 0 0-.12-.118.366.366 0 0 0-.183-.044h-.38v.612Zm0-.884h.342c.06 0 .113-.012.16-.036a.279.279 0 0 0 .155-.262.272.272 0 0 0-.078-.2c-.052-.052-.128-.078-.23-.078h-.349v.576ZM8.37 9.54H7.62v.251h.46v1.003h-.544v.25h1.379v-.25H8.37V9.54ZM8.412 8.956h-.376v.376h.377v-.376Z" fill="#0D1827"/></svg>