<svg width="20" height="20" fill="none" xmlns="http://www.w3.org/2000/svg"><path fill="#000" d="M0 0h20v20H0z"/><path fill-rule="evenodd" clip-rule="evenodd" d="M6.307 2.831c.02 0 .036-.004.036-.01 0-.005.034-.009.083-.009.05 0 .084.004.084.01 0 .005.016.009.036.009.02 0 .037.004.037.01 0 .004.013.008.028.008.015 0 .028.005.028.01s.007.009.016.009c.01 0 .022.008.03.018.007.01.018.019.025.019.017 0 .132.116.132.133 0 .008.004.014.009.014.005 0 .01.009.01.019s.003.018.008.018.01.009.01.019.004.018.009.018c.005 0 .009.013.009.028 0 .015.004.028.01.028.004 0 .008.02.008.046 0 .025.005.046.01.046s.009.025.009.055c0 .031.004.056.01.056.004 0 .008.024.008.055 0 .03.004.056.01.056.005 0 .009.024.009.055 0 .03.004.055.009.055.005 0 .01.021.01.046 0 .026.003.047.008.047.006 0 .01.024.01.055 0 .03.004.055.009.055.005 0 .01.025.01.056 0 .03.003.055.008.055.006 0 .01.025.01.055 0 .031.004.056.009.056.005 0 .01.024.01.055s.003.056.008.056.01.024.01.055c0 .03.004.055.009.055.005 0 .009.025.009.056 0 .03.004.055.01.055.004 0 .008.025.008.056 0 .03.005.055.01.055s.009.02.009.046c0 .025.004.046.01.046.004 0 .008.025.008.056 0 .03.004.055.01.055.005 0 .009.025.009.055 0 .031.004.056.009.056.005 0 .01.024.01.055 0 .03.003.055.008.055.006 0 .01.025.01.056 0 .03.004.055.009.055.005 0 .01.025.01.056 0 .03.003.055.008.055s.01.025.01.055c0 .031.004.056.009.056.005 0 .009.024.009.055 0 .03.004.056.01.056.004 0 .008.02.008.046 0 .025.005.046.01.046s.009.024.009.055c0 .03.004.056.01.056.004 0 .008.024.008.055 0 .03.004.055.01.055.005 0 .009.025.009.056 0 .03.004.055.01.055.004 0 .008.025.008.055 0 .031.004.056.01.056.005 0 .009.024.009.055s.004.056.009.056c.005 0 .01.024.01.055 0 .03.003.055.008.055.006 0 .01.025.01.056 0 .03.004.055.009.055.005 0 .01.025.01.056 0 .03.003.055.008.055s.01.02.01.046c0 .025.004.046.009.046.005 0 .009.025.009.056 0 .03.004.055.01.055.004 0 .008.025.008.055 0 .031.005.056.01.056s.009.024.009.055c0 .03.004.055.01.055.004 0 .008.025.008.056 0 .03.004.055.01.055.005 0 .009.025.009.056 0 .03.004.055.009.055.005 0 .01.025.01.055 0 .031.003.056.008.056.006 0 .01.024.01.055 0 .03.004.056.009.056.005 0 .01.02.01.046 0 .025.003.046.008.046.006 0 .01.024.01.055 0 .03.004.056.009.056.005 0 .01.024.01.055 0 .03.003.055.008.055s.01.025.01.056c0 .03.004.055.009.055.005 0 .009.025.009.055 0 .031.004.056.01.056.004 0 .008.024.008.055s.005.056.01.056.009.024.009.055c0 .03.004.055.01.055.004 0 .008.025.008.056 0 .03.004.055.01.055.005 0 .009.02.009.046s.004.046.009.046c.005 0 .01.025.01.056 0 .03.003.055.008.055.006 0 .01.025.01.056 0 .03.004.055.009.055.005 0 .01.025.01.055 0 .031.003.056.008.056.006 0 .01.024.01.055 0 .03.004.055.009.055.005 0 .01.025.01.056-.001.03.003.055.008.055s.01.025.01.056c0 .03.004.055.009.055.005 0 .009.025.009.055 0 .031.004.056.01.056.004 0 .008.02.008.046 0 .025.005.046.01.046s.009.025.009.055c0 .031.004.056.01.056.004 0 .008.024.008.055 0 .03.004.056.01.056.005 0 .009.024.009.055 0 .03.004.055.009.055.005 0 .01.025.01.056 0 .03.003.055.008.055.006 0 .01.025.01.055 0 .031.004.056.009.056.005 0 .01.024.01.055s.003.056.008.056.01.024.01.055c0 .03.004.055.009.055.005 0 .009.025.009.056 0 .03.004.055.01.055.004 0 .008.02.008.046s.005.046.01.046.009.025.009.056c0 .03.004.055.01.055.004 0 .008.025.008.056 0 .03.004.055.01.055.005 0 .009.024.009.055s.004.056.01.056c.004 0 .008.024.008.055 0 .03.004.055.01.055.005 0 .009.025.009.056 0 .03.004.055.009.055.005 0 .01.025.01.056 0 .03.003.055.008.055.006 0 .01.025.01.055 0 .031.004.056.009.056.005 0 .01.02.01.046 0 .025.003.046.008.046s.01.025.01.055c0 .031.004.056.009.056.005 0 .009.024.009.055 0 .03.004.056.01.056.004 0 .008.024.008.055 0 .03.005.055.01.055s.009.025.009.056c0 .03.004.055.01.055.005 0 .008.043.008.11 0 .069-.003.112-.009.112-.005 0-.01.016-.01.037 0 .02-.003.036-.008.036s-.01.009-.01.019-.004.018-.009.018c-.005 0-.009.008-.009.017 0 .009-.008.022-.018.03-.01.007-.019.018-.019.025a.39.39 0 0 1-.113.113c-.007 0-.018.008-.025.018-.008.01-.021.019-.03.019-.01 0-.016.004-.016.01 0 .004-.013.008-.028.008-.015 0-.028.005-.028.01s-.012.009-.027.009c-.016 0-.028.004-.028.009 0 .006-.04.01-.102.01-.061 0-.101-.004-.101-.01 0-.005-.017-.01-.037-.01-.02 0-.037-.003-.037-.008s-.008-.01-.018-.01c-.01 0-.019-.004-.019-.009 0-.005-.008-.01-.018-.01-.01 0-.019-.003-.019-.008s-.006-.01-.014-.01a.603.603 0 0 1-.152-.152c0-.007-.004-.014-.009-.014-.005 0-.01-.008-.01-.018 0-.01-.003-.019-.008-.019-.006 0-.01-.008-.01-.018 0-.01-.004-.019-.009-.019-.005 0-.01-.012-.01-.027s-.003-.028-.008-.028-.01-.02-.01-.046c0-.025-.004-.046-.009-.046-.005 0-.01-.025-.01-.056 0-.03-.003-.055-.008-.055s-.01-.025-.01-.055c0-.031-.004-.056-.009-.056-.005 0-.009-.024-.009-.055 0-.03-.004-.056-.01-.056-.004 0-.008-.02-.008-.046 0-.025-.005-.046-.01-.046s-.009-.024-.009-.055-.004-.056-.01-.056c-.004 0-.008-.024-.008-.055 0-.03-.004-.055-.01-.055-.005 0-.009-.025-.009-.056 0-.03-.004-.055-.009-.055-.005 0-.01-.025-.01-.056 0-.03-.003-.055-.008-.055-.006 0-.01-.024-.01-.055s-.004-.056-.009-.056c-.005 0-.01-.024-.01-.055 0-.03-.003-.055-.008-.055s-.01-.025-.01-.056c0-.03-.004-.055-.009-.055-.005 0-.009-.02-.009-.046s-.004-.046-.01-.046c-.004 0-.008-.025-.008-.056 0-.03-.005-.055-.01-.055s-.009-.025-.009-.056c0-.03-.004-.055-.01-.055-.004 0-.008-.025-.008-.055 0-.031-.004-.056-.01-.056-.005 0-.009-.024-.009-.055 0-.03-.004-.055-.01-.055-.004 0-.008-.025-.008-.056 0-.03-.004-.055-.01-.055-.005 0-.009-.025-.009-.056 0-.03-.004-.055-.009-.055-.005 0-.01-.025-.01-.055 0-.031-.003-.056-.008-.056s-.01-.02-.01-.046c0-.025-.004-.046-.009-.046-.005 0-.01-.025-.01-.055 0-.031-.003-.056-.008-.056s-.01-.024-.01-.055-.004-.056-.009-.056c-.005 0-.009-.024-.009-.055 0-.03-.004-.055-.01-.055-.004 0-.008-.025-.008-.056 0-.03-.005-.055-.01-.055s-.009-.025-.009-.055c0-.031-.004-.056-.01-.056-.004 0-.008-.024-.008-.055s-.004-.056-.01-.056c-.005 0-.009-.024-.009-.055 0-.03-.004-.055-.009-.055-.005 0-.01-.025-.01-.056 0-.03-.003-.055-.008-.055-.006 0-.01-.02-.01-.046s-.004-.046-.009-.046c-.005 0-.01-.025-.01-.056 0-.03-.003-.055-.008-.055-.006 0-.01-.025-.01-.056 0-.03-.004-.055-.009-.055-.005 0-.01-.025-.01-.055 0-.031-.003-.056-.008-.056s-.01-.024-.01-.055c0-.03-.004-.055-.009-.055-.005 0-.009-.025-.009-.056 0-.03-.004-.055-.01-.055-.004 0-.008-.025-.008-.056 0-.03-.005-.055-.01-.055s-.009-.025-.009-.055c0-.031-.004-.056-.01-.056-.004 0-.008-.02-.008-.046 0-.025-.004-.046-.01-.046-.005 0-.009-.025-.009-.055 0-.031-.004-.056-.009-.056-.005 0-.01-.024-.01-.055s-.003-.056-.008-.056c-.006 0-.01-.024-.01-.055 0-.03-.004-.055-.009-.055-.005 0-.01-.025-.01-.056 0-.03-.003-.055-.008-.055s-.01-.025-.01-.055c0-.031-.004-.056-.009-.056-.005 0-.009-.024-.009-.055s-.004-.056-.01-.056c-.004 0-.008-.024-.008-.055 0-.03-.005-.055-.01-.055s-.009-.021-.009-.047c0-.025-.004-.046-.01-.046-.004 0-.008-.024-.008-.055 0-.03-.004-.055-.01-.055-.005 0-.009-.025-.009-.056 0-.03-.004-.055-.01-.055-.004 0-.008-.025-.008-.056 0-.03-.004-.055-.01-.055-.005 0-.009-.025-.009-.055 0-.031-.004-.056-.009-.056-.005 0-.01-.024-.01-.055 0-.03-.003-.055-.008-.055-.006 0-.01-.025-.01-.056 0-.03-.004-.055-.009-.055-.005 0-.01-.025-.01-.056 0-.03-.003-.055-.008-.055s-.01-.02-.01-.046-.004-.046-.009-.046c-.005 0-.009-.025-.009-.056 0-.03-.004-.055-.01-.055-.004 0-.008-.025-.008-.055 0-.031-.005-.056-.01-.056s-.009-.024-.009-.055-.004-.056-.01-.056c-.004 0-.008-.024-.008-.055 0-.03-.004-.055-.01-.055-.005 0-.009-.025-.009-.056 0-.03-.004-.055-.009-.055-.005 0-.01-.025-.01-.055 0-.031-.003-.056-.009-.056-.005 0-.009-.024-.009-.055s-.004-.056-.009-.056c-.005 0-.01-.024-.01-.055 0-.03-.003-.055-.008-.055s-.01-.021-.01-.047c0-.025-.004-.046-.009-.046-.005 0-.01-.024-.01-.055 0-.03-.003-.055-.008-.055s-.01-.025-.01-.056c0-.03-.004-.055-.009-.055-.005 0-.009-.025-.009-.056 0-.03-.004-.055-.01-.055-.004 0-.008-.025-.008-.055 0-.031-.005-.056-.01-.056s-.009-.024-.009-.055c0-.03-.004-.055-.01-.055-.004 0-.008-.025-.008-.056 0-.03-.004-.055-.01-.055-.005 0-.009-.025-.009-.056 0-.03-.004-.055-.009-.055-.005 0-.01-.02-.01-.046s-.003-.046-.008-.046c-.006 0-.01-.025-.01-.056 0-.03-.004-.055-.009-.055-.005 0-.01-.025-.01-.055 0-.031-.003-.056-.008-.056s-.01-.024-.01-.055-.004-.056-.009-.056c-.005 0-.01-.024-.01-.055 0-.03-.003-.055-.008-.055-.006 0-.01-.043-.01-.111s.004-.11.01-.11c.005 0 .009-.013.009-.029 0-.015.004-.027.01-.027.004 0 .008-.013.008-.028 0-.015.005-.028.01-.028s.009-.007.009-.016c0-.01.008-.022.018-.03.01-.007.019-.018.019-.025 0-.017.098-.113.115-.113.008 0 .014-.004.014-.01 0-.005.008-.009.018-.009.01 0 .019-.004.019-.009 0-.005.008-.01.018-.01.01 0 .019-.003.019-.008s.008-.01.018-.01c.01 0 .019-.004.019-.009 0-.005.016-.009.037-.009Zm3.588 5.353a.56.56 0 0 0 .157-.009c0-.005.034-.01.083-.01.05 0 .083.005.083.01a.5.5 0 0 0 .148.01.5.5 0 0 1 .148.009c0 .005.03.009.073.009s.074.004.074.009c0 .005.025.01.056.01.03 0 .055.003.055.008 0 .006.024.01.055.01s.056.004.056.009c0 .005.016.01.037.01.02 0 .036.003.036.008s.021.01.046.01c.026 0 .047.004.047.009 0 .005.016.01.037.01.02 0 .037.003.037.008s.012.01.027.01.028.004.028.009c0 .005.016.009.037.009.02 0 .037.004.037.01 0 .004.012.008.027.008s.028.005.028.01.012.009.028.009c.015 0 .027.004.027.01 0 .004.013.008.028.008.015 0 .028.005.028.01s.012.009.027.009c.016 0 .028.004.028.01 0 .004.008.008.018.008.01 0 .019.004.019.01 0 .005.012.009.028.009.015 0 .027.004.027.009 0 .005.009.01.019.01s.018.003.018.008c0 .006.013.01.028.01.015 0 .028.004.028.009 0 .005.008.01.018.01.01 0 .018.003.018.008s.009.01.019.01.018.004.018.009c0 .005.009.01.019.01s.018.003.018.008.009.01.019.01.018.004.018.009c0 .005.008.009.019.009.01 0 .018.004.018.01 0 .004.008.008.019.008.01 0 .018.005.018.01s.008.009.019.009c.01 0 .018.004.018.01 0 .004.008.008.018.008.01 0 .019.005.019.01s.008.009.018.009c.01 0 .019.004.019.01 0 .004.007.008.016.008.01 0 .022.009.03.019.007.01.02.018.03.018.009 0 .016.004.016.01 0 .005.008.009.018.009.01 0 .019.004.019.009 0 .005.007.01.016.01.01 0 .023.007.03.018.007.01.02.018.028.018s.02.008.027.019c.008.01.02.018.028.018s.02.008.028.018c.007.01.02.019.027.019.008 0 .02.008.028.018.007.01.02.019.026.019.007 0 .024.012.039.028.014.015.03.027.037.027.006 0 .022.013.037.028.014.015.03.028.036.028.006 0 .027.016.046.036.02.02.04.037.046.037.006 0 .043.034.084.074.04.04.077.074.082.074.013 0 .185.172.185.185 0 .005.033.043.074.083a.48.48 0 0 1 .074.083c0 .006.016.026.037.046.02.02.037.04.037.046 0 .006.016.027.037.046.02.02.037.041.037.048 0 .007.008.019.018.026.01.007.018.02.018.028s.009.02.019.027c.01.008.018.02.018.027 0 .007.013.024.028.038.015.014.028.033.028.04 0 .009.004.015.009.015.005 0 .01.008.01.017 0 .009.007.022.018.03.01.007.018.02.018.027 0 .008.008.02.018.028.01.007.019.02.019.03 0 .009.004.016.01.016.004 0 .008.009.008.019s.005.018.01.018.009.008.009.017c0 .008.008.022.018.03.01.007.019.02.019.029 0 .009.004.016.009.016.005 0 .01.009.01.019s.003.018.008.018.01.009.01.019.004.018.009.018c.005 0 .009.008.009.019 0 .01.004.018.01.018.004 0 .008.008.008.019 0 .01.005.018.01.018s.009.008.009.018c0 .01.004.019.01.019.004 0 .008.012.008.028 0 .015.005.027.01.027s.009.009.009.019.004.018.01.018c.004 0 .008.009.008.019s.004.018.01.018c.005 0 .009.013.009.028 0 .015.004.028.009.028.005 0 .01.008.01.018 0 .01.003.018.008.018s.01.013.01.028c0 .015.004.028.009.028.005 0 .01.008.01.018 0 .01.003.019.008.019s.01.012.01.027c0 .016.004.028.009.028.005 0 .009.013.009.028 0 .015.004.028.01.028.004 0 .008.012.008.027 0 .016.005.028.01.028s.009.017.009.037c0 .02.004.037.01.037.004 0 .008.012.008.027 0 .016.005.028.01.028s.009.017.009.037c0 .02.004.037.009.037.005 0 .01.017.01.037 0 .02.003.037.008.037.006 0 .01.016.01.037 0 .02.004.037.009.037.005 0 .01.02.01.046 0 .025.003.046.008.046s.01.025.01.055c0 .031.004.056.009.056.005 0 .01.027.01.064 0 .037.003.065.008.065.006 0 .01.04.01.101 0 .062.003.102.009.102.006 0 .009.098.009.277 0 .178-.003.277-.01.277-.005 0-.008.037-.008.092 0 .056-.004.092-.01.092-.005 0-.009.031-.009.074s-.004.074-.01.074c-.004 0-.008.02-.008.046s-.005.046-.01.046-.009.025-.009.056c0 .03-.004.055-.01.055-.004 0-.008.017-.008.037 0 .02-.004.037-.01.037-.005 0-.009.017-.009.037 0 .02-.004.037-.009.037-.005 0-.01.016-.01.037 0 .02-.003.037-.008.037s-.01.012-.01.027c0 .016-.004.028-.009.028-.005 0-.01.017-.01.037 0 .02-.003.037-.008.037s-.01.012-.01.028c0 .015-.004.027-.009.027-.005 0-.009.013-.009.028 0 .015-.004.028-.01.028-.004 0-.008.012-.008.027 0 .016-.005.028-.01.028s-.009.008-.009.018c0 .01-.004.019-.01.019-.004 0-.008.012-.008.028 0 .015-.005.027-.01.027s-.009.009-.009.019-.004.018-.009.018c-.005 0-.01.013-.01.028 0 .015-.003.028-.008.028-.006 0-.01.008-.01.018 0 .01-.004.019-.009.019-.005 0-.01.008-.01.018 0 .01-.003.018-.008.018s-.01.009-.01.019-.004.018-.009.018c-.005 0-.01.013-.01.028 0 .015-.003.028-.008.028s-.01.008-.01.018c0 .01-.004.019-.009.019-.005 0-.009.008-.009.018 0 .01-.004.019-.01.019-.004 0-.008.008-.008.018 0 .01-.005.018-.01.018s-.009.008-.009.017c0 .009-.008.022-.018.03-.01.007-.019.02-.019.03 0 .008-.004.016-.009.016-.005 0-.01.008-.01.018 0 .01-.003.019-.008.019s-.01.007-.01.016c0 .01-.008.023-.018.03-.01.007-.019.02-.019.03 0 .009-.004.016-.009.016-.005 0-.009.007-.009.016 0 .01-.008.023-.018.03-.01.008-.019.02-.019.028s-.008.02-.018.028c-.01.007-.019.02-.019.027 0 .008-.008.02-.018.028-.01.007-.019.02-.019.028s-.008.02-.018.027c-.01.008-.019.02-.019.026 0 .007-.012.025-.027.039-.015.014-.028.03-.028.037 0 .006-.013.023-.028.037-.015.014-.027.03-.027.036 0 .006-.021.031-.046.056a.215.215 0 0 0-.047.055.602.602 0 0 1-.083.093.612.612 0 0 0-.083.092c0 .013-.08.092-.092.092a.746.746 0 0 0-.101.093.729.729 0 0 1-.102.092c-.006 0-.027.017-.046.037-.02.02-.04.037-.046.037-.006 0-.027.016-.046.037-.02.02-.041.037-.048.037-.007 0-.019.008-.026.018-.007.01-.02.019-.026.019-.007 0-.024.012-.039.027-.014.016-.031.028-.038.028-.007 0-.019.008-.026.018-.008.01-.02.019-.028.019s-.02.008-.028.018c-.007.01-.02.019-.03.019-.008 0-.016.004-.016.009 0 .005-.007.01-.016.01-.01 0-.023.008-.03.018-.007.01-.02.018-.03.018-.009 0-.016.004-.016.01 0 .004-.008.009-.019.009-.01 0-.018.004-.018.009 0 .005-.007.01-.016.01-.01 0-.023.007-.03.018-.007.01-.02.018-.03.018-.009 0-.016.004-.016.01 0 .004-.008.008-.019.008-.01 0-.018.005-.018.01s-.008.009-.018.009c-.01 0-.019.004-.019.01 0 .004-.008.008-.018.008-.01 0-.019.005-.019.01s-.008.009-.018.009c-.01 0-.019.004-.019.01 0 .004-.008.008-.018.008-.01 0-.019.005-.019.01s-.008.009-.018.009c-.01 0-.019.004-.019.009 0 .005-.008.01-.018.01-.01 0-.018.003-.018.008s-.013.01-.028.01c-.015 0-.028.004-.028.009 0 .005-.008.01-.018.01-.01 0-.019.003-.019.008s-.012.01-.027.01c-.016 0-.028.004-.028.009 0 .005-.008.01-.019.01-.01 0-.018.003-.018.008s-.012.01-.028.01c-.015 0-.027.004-.027.009 0 .005-.013.009-.028.009-.015 0-.028.004-.028.01 0 .004-.008.008-.018.008-.01 0-.019.005-.019.01s-.016.009-.037.009c-.02 0-.036.004-.036.01 0 .004-.013.008-.028.008-.015 0-.028.004-.028.01 0 .005-.012.009-.027.009-.016 0-.028.004-.028.01 0 .004-.017.008-.037.008-.02 0-.037.004-.037.01 0 .005-.017.009-.037.009-.02 0-.037.004-.037.009 0 .005-.016.01-.037.01-.02 0-.037.003-.037.008 0 .006-.02.01-.046.01-.025 0-.046.004-.046.009 0 .005-.02.01-.046.01-.025 0-.046.003-.046.008 0 .006-.028.01-.065.01-.037 0-.064.004-.064.009 0 .005-.034.009-.083.009-.05 0-.083.004-.083.01 0 .005-.126.008-.36.008-.234 0-.36-.003-.36-.009 0-.005-.034-.009-.083-.009-.05 0-.083-.004-.083-.01 0-.004-.025-.008-.055-.008-.031 0-.056-.005-.056-.01s-.024-.009-.055-.009c-.03 0-.055-.004-.055-.01 0-.004-.021-.008-.047-.008-.025 0-.046-.005-.046-.01s-.016-.009-.037-.009c-.02 0-.037-.004-.037-.009 0-.005-.016-.01-.036-.01-.02 0-.037-.003-.037-.008 0-.006-.017-.01-.037-.01-.02 0-.037-.004-.037-.009 0-.005-.013-.01-.028-.01-.015 0-.027-.003-.027-.008 0-.006-.013-.01-.028-.01-.015 0-.028-.004-.028-.009 0-.005-.012-.01-.028-.01-.015 0-.027-.003-.027-.008s-.013-.01-.028-.01c-.015 0-.028-.004-.028-.009 0-.005-.012-.009-.027-.009s-.028-.004-.028-.01c0-.004-.012-.008-.028-.008-.015 0-.027-.005-.027-.01s-.009-.009-.019-.009-.018-.004-.018-.01c0-.004-.013-.008-.028-.008-.015 0-.028-.005-.028-.01s-.008-.009-.018-.009c-.01 0-.018-.004-.018-.01 0-.004-.009-.008-.019-.008s-.018-.005-.018-.01-.013-.009-.028-.009c-.015 0-.028-.004-.028-.009 0-.005-.008-.01-.018-.01-.01 0-.019-.003-.019-.008s-.008-.01-.018-.01c-.01 0-.018-.004-.018-.009 0-.005-.009-.01-.019-.01s-.018-.003-.018-.008-.009-.01-.019-.01-.018-.004-.018-.009c0-.005-.009-.01-.019-.01s-.018-.003-.018-.008-.009-.01-.019-.01-.018-.004-.018-.009c0-.005-.008-.009-.017-.009-.009 0-.022-.008-.03-.019-.007-.01-.02-.018-.029-.018-.009 0-.016-.004-.016-.01 0-.004-.008-.008-.017-.008-.009 0-.022-.009-.03-.019-.007-.01-.02-.018-.03-.018-.008 0-.016-.005-.016-.01s-.007-.009-.016-.009c-.01 0-.022-.008-.03-.018-.007-.01-.02-.019-.027-.019-.008 0-.02-.008-.028-.018-.007-.01-.02-.019-.028-.019s-.02-.008-.027-.018c-.008-.01-.02-.018-.028-.018s-.02-.009-.028-.019c-.007-.01-.019-.018-.026-.018-.007 0-.024-.013-.038-.028-.015-.015-.031-.028-.037-.028-.006 0-.023-.012-.037-.028-.014-.015-.03-.027-.037-.027a.21.21 0 0 1-.055-.046.22.22 0 0 0-.055-.046c-.013 0-.425-.413-.425-.426a.22.22 0 0 0-.046-.055.212.212 0 0 1-.046-.055c0-.006-.017-.026-.037-.046-.02-.02-.037-.041-.037-.048 0-.007-.009-.018-.019-.026-.01-.007-.018-.019-.018-.026 0-.007-.013-.024-.028-.038-.015-.015-.028-.032-.028-.039 0-.007-.008-.019-.018-.026-.01-.007-.018-.02-.018-.028s-.009-.02-.019-.027c-.01-.008-.018-.021-.018-.03 0-.01-.005-.017-.01-.017s-.009-.007-.009-.016c0-.009-.008-.022-.018-.03-.01-.007-.019-.02-.019-.03 0-.008-.004-.016-.009-.016-.005 0-.01-.007-.01-.016 0-.01-.007-.023-.018-.03-.01-.007-.018-.02-.018-.03 0-.009-.004-.016-.01-.016-.004 0-.009-.009-.009-.019s-.004-.018-.009-.018c-.005 0-.009-.008-.009-.019 0-.01-.004-.018-.01-.018-.004 0-.008-.008-.008-.018 0-.01-.005-.019-.01-.019s-.009-.008-.009-.018c0-.01-.004-.019-.01-.019-.004 0-.008-.008-.008-.018 0-.01-.004-.019-.01-.019-.005 0-.009-.008-.009-.018 0-.01-.004-.019-.009-.019-.005 0-.01-.008-.01-.018 0-.01-.003-.019-.008-.019-.006 0-.01-.008-.01-.018 0-.01-.004-.018-.009-.018-.005 0-.01-.009-.01-.019s-.003-.018-.008-.018-.01-.013-.01-.028c0-.015-.004-.028-.009-.028-.005 0-.009-.008-.009-.018 0-.01-.004-.019-.01-.019-.004 0-.008-.012-.008-.027 0-.016-.005-.028-.01-.028s-.009-.008-.009-.019c0-.01-.004-.018-.01-.018-.004 0-.008-.012-.008-.028 0-.015-.005-.027-.01-.027s-.009-.013-.009-.028c0-.015-.004-.028-.01-.028-.004 0-.008-.012-.008-.027 0-.016-.004-.028-.01-.028-.005 0-.009-.013-.009-.028 0-.015-.004-.028-.009-.028-.005 0-.01-.012-.01-.027 0-.016-.003-.028-.008-.028s-.01-.017-.01-.037c0-.02-.004-.037-.009-.037-.005 0-.01-.016-.01-.037 0-.02-.003-.037-.008-.037s-.01-.016-.01-.037c0-.02-.004-.037-.009-.037-.005 0-.009-.016-.009-.036 0-.02-.004-.037-.01-.037-.004 0-.008-.021-.008-.046 0-.026-.005-.047-.01-.047s-.009-.024-.009-.055c0-.03-.004-.055-.01-.055-.005 0-.008-.031-.008-.074s-.004-.074-.01-.074c-.005 0-.009-.043-.009-.11 0-.069-.003-.112-.009-.112-.006 0-.01-.08-.01-.221 0-.142.004-.222.01-.222s.01-.043.01-.11c0-.068.003-.111.008-.111.006 0 .01-.03.01-.074 0-.043.003-.074.009-.074.005 0 .01-.024.01-.055 0-.03.003-.056.008-.056s.01-.02.01-.046c0-.025.004-.046.009-.046.005 0 .009-.016.009-.037 0-.02.004-.037.01-.037.004 0 .008-.016.008-.037 0-.02.005-.037.01-.037s.009-.016.009-.037c0-.02.004-.036.01-.036.004 0 .008-.017.008-.037 0-.02.005-.037.01-.037s.009-.013.009-.028c0-.015.004-.028.009-.028.005 0 .01-.012.01-.027s.003-.028.008-.028c.006 0 .01-.012.01-.028 0-.015.004-.027.009-.027.005 0 .01-.013.01-.028 0-.015.003-.028.008-.028s.01-.012.01-.027c0-.016.004-.028.009-.028.005 0 .01-.008.01-.019 0-.01.003-.018.008-.018s.01-.012.01-.028c0-.015.004-.027.009-.027.005 0 .009-.009.009-.019s.004-.018.01-.018c.004 0 .008-.013.008-.028 0-.015.005-.028.01-.028s.009-.008.009-.018c0-.01.004-.019.01-.019.004 0 .008-.008.008-.018 0-.01.004-.019.01-.019.005 0 .009-.008.009-.018 0-.01.004-.018.009-.018.005 0 .01-.009.01-.019s.003-.018.008-.018c.006 0 .01-.009.01-.019s.004-.018.009-.018c.005 0 .01-.009.01-.019s.003-.018.008-.018.01-.008.01-.019c0-.01.004-.018.009-.018.005 0 .009-.009.009-.019s.004-.018.01-.018c.004 0 .008-.008.008-.018 0-.01.005-.019.01-.019s.009-.007.009-.016c0-.01.008-.023.018-.03.01-.008.019-.02.019-.03 0-.009.004-.016.01-.016.004 0 .008-.008.008-.017 0-.009.009-.022.019-.03.01-.007.018-.02.018-.03 0-.008.004-.016.01-.016.004 0 .009-.007.009-.016 0-.01.008-.022.018-.03.01-.007.019-.019.019-.025 0-.012.04-.058.05-.058.003 0 .005.025.005.056 0 .03.004.055.01.055.004 0 .008.025.008.055 0 .031.004.056.01.056.005 0 .009.024.009.055 0 .03.004.056.009.056.005 0 .01.024.01.055 0 .03.003.055.008.055.006 0 .01.025.01.056 0 .03.004.055.009.055.005 0 .01.02.01.046 0 .025.003.046.008.046.006 0 .01.025.01.056 0 .03.004.055.009.055.005 0 .01.025.01.055 0 .031.003.056.008.056s.01.024.01.055c0 .03.004.056.009.056.005 0 .009.024.009.055 0 .03.004.055.01.055.004 0 .008.025.008.056 0 .03.005.055.01.055s.009.025.009.056c0 .03.004.055.01.055.004 0 .008.024.008.055s.004.056.01.056c.005 0 .009.02.009.046 0 .025.004.046.009.046.005 0 .01.012.01.028 0 .015-.005.027-.01.027s-.01.025-.01.056c0 .03-.003.055-.008.055-.006 0-.01.025-.01.055 0 .031-.004.056-.009.056-.005 0-.01.034-.01.083 0 .05-.003.083-.008.083-.006 0-.01.086-.01.24s.004.24.01.24c.005 0 .009.034.009.083 0 .05.004.083.01.083.004 0 .008.025.008.055 0 .031.004.056.01.056.005 0 .009.024.009.055 0 .03.004.056.009.056.005 0 .01.016.01.037 0 .02.003.036.008.036.006 0 .01.017.01.037 0 .02.004.037.009.037.005 0 .01.013.01.028 0 .015.003.028.008.028s.01.016.01.037c0 .02.004.037.009.037.005 0 .009.012.009.027s.004.028.01.028c.004 0 .008.012.008.027 0 .016.005.028.01.028s.009.008.009.019c0 .01.004.018.01.018.004 0 .008.013.008.028 0 .015.005.027.01.027s.009.009.009.019.004.018.01.018c.004 0 .008.013.008.028 0 .015.004.028.01.028.005 0 .009.008.009.018 0 .01.004.019.009.019.005 0 .01.008.01.018 0 .01.003.019.008.019.006 0 .01.008.01.018 0 .01.004.019.009.019.005 0 .01.008.01.018 0 .01.003.018.008.018s.01.009.01.019.004.018.009.018c.005 0 .009.009.009.019s.004.018.01.018c.004 0 .008.009.008.019s.005.018.01.018.009.008.009.017c0 .009.008.022.018.03.01.007.019.02.019.03 0 .008.004.016.009.016.005 0 .01.007.01.016 0 .009.008.022.018.03.01.007.018.02.018.027 0 .008.008.02.019.028.01.007.018.02.018.028s.008.02.019.027c.01.008.018.02.018.026 0 .008.012.025.028.04.015.013.027.03.027.036 0 .006.017.027.037.046.02.02.037.04.037.046 0 .006.03.04.065.074a.396.396 0 0 1 .064.074c0 .013.135.148.148.148.006 0 .039.029.074.064a.38.38 0 0 0 .074.065c.006 0 .026.016.046.037.02.02.04.037.048.037.007 0 .018.008.025.018.008.01.02.019.026.019.007 0 .025.012.039.027.014.015.032.028.039.028.007 0 .018.008.026.018.007.01.02.019.03.019.008 0 .016.004.016.01 0 .004.007.008.016.008.01 0 .023.009.03.019.007.01.02.018.03.018.009 0 .016.005.016.01s.007.009.016.009c.01 0 .023.008.03.018.007.01.02.019.03.019.009 0 .016.004.016.009 0 .005.009.01.019.01s.018.003.018.008.008.01.019.01c.01 0 .018.004.018.009 0 .005.008.01.019.01.01 0 .018.003.018.008s.008.01.018.01c.01 0 .019.004.019.009 0 .005.012.009.028.009.015 0 .027.004.027.01 0 .004.009.008.019.008s.018.005.018.01.008.009.019.009c.01 0 .018.004.018.01 0 .004.013.008.028.008.015 0 .027.004.027.01 0 .005.009.009.019.009s.018.004.018.01c0 .004.013.008.028.008.015 0 .028.004.028.01 0 .005.012.009.027.009.016 0 .028.004.028.009 0 .005.012.01.028.01.015 0 .027.003.027.008 0 .006.017.01.037.01.02 0 .037.004.037.009 0 .005.013.01.028.01.015 0 .028.003.028.008s.02.01.046.01c.025 0 .046.004.046.009 0 .005.016.009.037.009.02 0 .037.004.037.01 0 .004.024.008.055.008.03 0 .055.005.055.01s.028.009.065.009c.037 0 .064.004.064.01 0 .005.059.008.157.008.099 0 .157.004.157.01 0 .005.013.009.028.009.015 0 .027-.004.027-.01 0-.005.059-.009.157-.009a.56.56 0 0 0 .157-.009c0-.005.028-.009.065-.009.037 0 .064-.004.064-.01 0-.004.025-.008.056-.008.03 0 .055-.005.055-.01s.02-.009.046-.009.046-.004.046-.01c0-.004.017-.008.037-.008.02 0 .037-.005.037-.01s.013-.009.028-.009c.015 0 .027-.004.027-.01 0-.004.017-.008.037-.008.02 0 .037-.005.037-.01s.013-.009.028-.009c.015 0 .028-.004.028-.009 0-.005.012-.01.027-.01.016 0 .028-.003.028-.008 0-.006.013-.01.028-.01.015 0 .027-.004.027-.009 0-.005.009-.01.019-.01s.018-.003.018-.008c0-.006.013-.01.028-.01.015 0 .028-.004.028-.009 0-.005.008-.01.018-.01.01 0 .019-.003.019-.008s.012-.01.027-.01.028-.004.028-.009c0-.005.008-.009.018-.009.01 0 .019-.004.019-.01 0-.004.008-.008.018-.008.01 0 .019-.005.019-.01s.008-.009.018-.009c.01 0 .019-.004.019-.01 0-.004.008-.008.018-.008.01 0 .018-.005.018-.01s.009-.009.019-.009.018-.004.018-.01c0-.004.008-.008.017-.008.009 0 .022-.009.03-.019.007-.01.02-.018.03-.018.008 0 .016-.004.016-.01 0-.005.008-.009.018-.009.01 0 .019-.004.019-.009 0-.005.007-.01.016-.01.009 0 .022-.008.03-.018.007-.01.02-.018.027-.018.008 0 .02-.008.028-.018.007-.01.02-.019.028-.019s.02-.008.027-.019c.008-.01.02-.018.026-.018.007 0 .025-.012.039-.028.014-.015.03-.027.037-.027.006 0 .027-.017.046-.037.02-.02.04-.037.046-.037.006 0 .03-.02.056-.046a.217.217 0 0 1 .054-.046c.013 0 .222-.21.222-.222a.3.3 0 0 1 .056-.065.289.289 0 0 0 .055-.064c0-.006.017-.027.037-.046.02-.02.037-.041.037-.048 0-.007.008-.019.018-.026.01-.008.019-.02.019-.026 0-.007.012-.024.027-.039.016-.014.028-.031.028-.038 0-.007.008-.02.018-.026.01-.008.019-.021.019-.03 0-.01.004-.016.01-.016.004 0 .008-.008.008-.017 0-.009.009-.022.019-.03.01-.007.018-.02.018-.03 0-.008.005-.016.01-.016s.009-.008.009-.018c0-.01.004-.019.009-.019.005 0 .01-.008.01-.018 0-.01.003-.019.008-.019.006 0 .01-.007.01-.016 0-.01.008-.022.018-.03.01-.007.019-.02.019-.03 0-.009.004-.016.009-.016.005 0 .01-.008.01-.018 0-.01.003-.019.008-.019s.01-.012.01-.028c0-.015.004-.027.009-.027.005 0 .009-.009.009-.019s.004-.018.01-.018c.004 0 .008-.008.008-.019 0-.01.005-.018.01-.018s.009-.013.009-.028c0-.015.004-.027.01-.027.004 0 .008-.009.008-.019s.004-.018.01-.018c.005 0 .009-.013.009-.028 0-.015.004-.028.009-.028.005 0 .01-.012.01-.027 0-.016.003-.028.008-.028s.01-.013.01-.028c0-.015.004-.027.009-.027.005 0 .01-.013.01-.028 0-.016.003-.028.008-.028s.01-.017.01-.037c0-.02.004-.037.009-.037.005 0 .009-.012.009-.027 0-.016.004-.028.01-.028.004 0 .008-.02.008-.046s.005-.046.01-.046.009-.021.009-.047c0-.025.004-.046.01-.046.004 0 .008-.024.008-.055 0-.03.005-.056.01-.056s.009-.03.009-.073.004-.074.01-.074c.005 0 .008-.099.008-.277 0-.178-.003-.277-.009-.277-.005 0-.01-.03-.01-.074 0-.043-.003-.074-.008-.074s-.01-.024-.01-.055c0-.03-.004-.055-.009-.055-.005 0-.01-.021-.01-.047 0-.025-.003-.046-.008-.046s-.01-.02-.01-.046c0-.025-.004-.046-.009-.046-.005 0-.009-.017-.009-.037 0-.02-.004-.037-.01-.037-.004 0-.008-.012-.008-.027 0-.016-.005-.028-.01-.028s-.009-.013-.009-.028c0-.015-.004-.028-.01-.028-.004 0-.008-.012-.008-.027s-.005-.028-.01-.028-.009-.013-.009-.028c0-.015-.004-.027-.009-.027-.005 0-.01-.013-.01-.028 0-.015-.003-.028-.008-.028-.006 0-.01-.012-.01-.027 0-.016-.004-.028-.009-.028-.005 0-.01-.008-.01-.019 0-.01-.003-.018-.008-.018s-.01-.008-.01-.018c0-.01-.004-.019-.009-.019-.005 0-.009-.012-.009-.028 0-.015-.004-.027-.01-.027-.004 0-.008-.009-.008-.019s-.005-.018-.01-.018-.009-.009-.009-.019-.004-.018-.01-.018c-.004 0-.008-.008-.008-.019 0-.01-.005-.018-.01-.018s-.009-.008-.009-.019c0-.01-.004-.018-.01-.018-.004 0-.008-.007-.008-.016 0-.01-.009-.023-.019-.03-.01-.008-.018-.02-.018-.03 0-.009-.004-.016-.01-.016-.005 0-.009-.008-.009-.017 0-.009-.008-.022-.018-.03-.01-.007-.019-.02-.019-.03 0-.008-.004-.016-.009-.016-.005 0-.009-.007-.009-.016 0-.01-.008-.023-.018-.03-.01-.007-.019-.02-.019-.027 0-.008-.008-.02-.018-.028-.01-.008-.019-.02-.019-.026 0-.007-.012-.025-.027-.039-.016-.014-.028-.03-.028-.037 0-.006-.013-.022-.028-.037-.015-.014-.027-.03-.027-.036a.284.284 0 0 0-.056-.065 2.453 2.453 0 0 0-.314-.323.22.22 0 0 1-.055-.046.212.212 0 0 0-.055-.046c-.006 0-.027-.017-.046-.037-.02-.02-.042-.037-.048-.037-.007 0-.019-.009-.026-.019-.007-.01-.02-.018-.028-.018s-.02-.009-.028-.019c-.007-.01-.02-.018-.027-.018-.008 0-.02-.008-.028-.019-.007-.01-.02-.018-.028-.018s-.02-.008-.027-.019c-.008-.01-.021-.018-.03-.018-.009 0-.016-.004-.016-.01 0-.004-.008-.008-.017-.008-.009 0-.022-.009-.03-.019-.007-.01-.02-.018-.03-.018-.008 0-.016-.005-.016-.01s-.008-.009-.018-.009c-.01 0-.019-.004-.019-.01 0-.004-.008-.008-.018-.008-.01 0-.018-.004-.018-.01 0-.005-.009-.009-.019-.009s-.018-.004-.018-.009c0-.005-.009-.01-.019-.01s-.018-.003-.018-.008c0-.006-.009-.01-.019-.01s-.018-.004-.018-.009c0-.005-.008-.01-.019-.01-.01 0-.018-.003-.018-.008s-.008-.01-.018-.01c-.01 0-.019-.004-.019-.009 0-.005-.013-.01-.028-.01-.015 0-.027-.003-.027-.008s-.009-.01-.019-.01-.018-.004-.018-.009c0-.005-.013-.009-.028-.009-.015 0-.028-.004-.028-.01 0-.004-.012-.008-.027-.008s-.028-.005-.028-.01-.012-.009-.028-.009c-.015 0-.027-.004-.027-.01 0-.004-.013-.008-.028-.008-.015 0-.028-.005-.028-.01s-.012-.009-.027-.009c-.016 0-.028-.004-.028-.01 0-.004-.017-.008-.037-.008-.02 0-.037-.004-.037-.01 0-.005-.016-.009-.037-.009-.02 0-.037-.004-.037-.009 0-.005-.016-.01-.037-.01-.02 0-.037-.003-.037-.008 0-.006-.024-.01-.055-.01-.03 0-.055-.004-.055-.009 0-.005-.028-.01-.065-.01-.037 0-.064-.003-.064-.008 0-.006-.043-.01-.111-.01s-.11-.003-.11-.009c0-.006-.05-.01-.13-.01s-.13.004-.13.01-.045.01-.119.01-.12.003-.12.009c0 .005-.028.009-.065.009-.036 0-.064.004-.064.01 0 .004-.02.008-.046.008s-.046.004-.046.01c0 .005-.021.009-.047.009-.025 0-.046.004-.046.009 0 .005-.016.01-.037.01-.02 0-.036.003-.036.008 0 .006-.017.01-.037.01-.02 0-.037.004-.037.009 0 .005-.013.01-.028.01-.015 0-.028.003-.028.008s-.012.01-.027.01c-.016 0-.028.004-.028.009 0 .005-.012.01-.028.01-.015 0-.027.003-.027.008s-.013.01-.028.01c-.015 0-.028.004-.028.009 0 .005-.012.009-.027.009-.016 0-.028.004-.028.01 0 .004-.008.008-.018.008-.01 0-.019.005-.019.01s-.008.009-.018.009c-.01 0-.019.004-.019.01 0 .004-.012.008-.028.008-.015 0-.027.005-.027.01s-.008.009-.019.009c-.01 0-.018.004-.018.01 0 .004-.008.008-.019.008-.01 0-.018.004-.018.01 0 .005-.008.009-.018.009-.01 0-.019.004-.019.009 0 .005-.008.01-.018.01-.01 0-.019.003-.019.008 0 .006-.008.01-.018.01-.01 0-.019.004-.019.009 0 .005-.007.01-.016.01-.01 0-.023.007-.03.018-.007.01-.02.018-.03.018-.009 0-.016.004-.016.01 0 .004-.007.009-.016.009-.01 0-.023.008-.03.018-.007.01-.02.018-.03.018-.009 0-.016.005-.016.01s-.008.009-.017.009c-.009 0-.022.008-.03.018-.007.01-.02.019-.027.019-.008 0-.02.008-.028.018-.007.01-.019.019-.026.019-.007 0-.024.012-.038.027-.015.016-.031.028-.037.028-.006 0-.027.017-.046.037-.02.02-.04.037-.047.037-.006 0-.022.012-.036.028a.13.13 0 0 1-.032.027c-.003 0-.005-.012-.005-.027 0-.016-.004-.028-.01-.028-.005 0-.009-.02-.009-.046s-.004-.046-.009-.046c-.005 0-.01-.025-.01-.056 0-.03-.003-.055-.008-.055-.006 0-.01-.025-.01-.055 0-.031-.004-.056-.009-.056-.005 0-.01-.024-.01-.055s-.003-.056-.008-.056-.01-.024-.01-.055c0-.03-.004-.055-.009-.055-.005 0-.009-.025-.009-.056 0-.03-.004-.055-.01-.055-.004 0-.008-.025-.008-.056 0-.03-.005-.055-.01-.055s-.009-.024-.009-.055-.004-.056-.01-.056c-.013 0-.01-.045.005-.06.007-.008.019-.013.025-.013.007 0 .019-.009.026-.019.008-.01.02-.018.028-.018s.02-.009.028-.019c.007-.01.02-.018.03-.018.008 0 .016-.004.016-.01 0-.005.007-.009.016-.009.01 0 .023-.008.03-.018.007-.01.02-.019.03-.019.009 0 .016-.004.016-.009 0-.005.008-.01.018-.01.01 0 .019-.003.019-.008s.008-.01.018-.01c.01 0 .019-.004.019-.009 0-.005.008-.01.018-.01.01 0 .019-.003.019-.008s.008-.01.018-.01c.01 0 .019-.004.019-.009 0-.005.008-.009.018-.009.01 0 .019-.004.019-.01 0-.004.008-.008.018-.008.01 0 .018-.005.018-.01s.009-.009.019-.009.018-.004.018-.01c0-.004.009-.008.019-.008s.018-.005.018-.01.013-.009.028-.009c.015 0 .028-.004.028-.01 0-.004.008-.008.018-.008.01 0 .018-.004.018-.01 0-.005.013-.009.028-.009.015 0 .028-.004.028-.009 0-.005.008-.01.018-.01.01 0 .019-.003.019-.008 0-.006.012-.01.027-.01.016 0 .028-.004.028-.009 0-.005.008-.01.019-.01.01 0 .018-.003.018-.008s.012-.01.028-.01c.015 0 .027-.004.027-.009 0-.005.013-.01.028-.01.015 0 .028-.003.028-.008s.016-.01.037-.01c.02 0 .037-.004.037-.009 0-.005.012-.009.027-.009s.028-.004.028-.01c0-.004.016-.008.037-.008.02 0 .037-.005.037-.01s.016-.009.037-.009c.02 0 .036-.004.036-.01 0-.004.017-.008.037-.008.02 0 .037-.005.037-.01s.021-.009.046-.009c.026 0 .047-.004.047-.009 0-.005.02-.01.046-.01.025 0 .046-.003.046-.009 0-.005.024-.009.055-.009.03 0 .056-.004.056-.009 0-.005.033-.01.083-.01.049 0 .083-.003.083-.008a.56.56 0 0 1 .156-.01Z" fill="#CF0"/><path d="M8.871 10.39c0 .005-.016.01-.037.01-.02 0-.037.004-.037.009 0 .005-.012.01-.027.01-.016 0-.028.003-.028.008s-.008.01-.018.01c-.01 0-.019.004-.019.009 0 .005-.007.009-.016.009-.01 0-.023.008-.03.018-.007.01-.019.019-.025.019a.274.274 0 0 0-.095.094c0 .007-.008.019-.018.026-.01.007-.019.02-.019.03 0 .009-.004.016-.01.016-.004 0-.008.008-.008.019 0 .01-.004.018-.01.018-.005 0-.009.008-.009.018 0 .01-.004.019-.009.019-.005 0-.01.017-.01.037 0 .02-.003.037-.008.037-.006 0-.01.043-.01.11 0 .068.004.111.01.111.005 0 .009.013.009.028 0 .015.004.028.009.028.005 0 .01.012.01.027 0 .016.003.028.008.028.006 0 .01.007.01.016 0 .01.008.023.018.03a.64.64 0 0 0 .17.175c.008 0 .015.005.015.01s.008.009.018.009c.01 0 .019.004.019.01 0 .004.008.008.018.008.01 0 .018.005.018.01s.013.009.028.009c.015 0 .028.004.028.01 0 .005.052.008.138.008a.44.44 0 0 0 .139-.009c0-.005.012-.01.027-.01s.028-.003.028-.008.008-.01.018-.01c.01 0 .019-.004.019-.009 0-.005.008-.009.018-.009.01 0 .019-.004.019-.01 0-.004.006-.008.014-.008a.64.64 0 0 0 .152-.15c0-.007.008-.019.018-.026.01-.007.019-.02.019-.03 0-.009.004-.016.009-.016.005 0 .01-.012.01-.028 0-.015.003-.027.008-.027s.01-.013.01-.028c0-.015.004-.028.009-.028.006 0 .01-.046.01-.12s-.004-.12-.01-.12c-.005 0-.01-.012-.01-.027 0-.016-.004-.028-.009-.028-.005 0-.009-.008-.009-.019 0-.01-.004-.018-.01-.018-.004 0-.008-.008-.008-.018 0-.01-.004-.019-.01-.019-.005 0-.009-.007-.009-.016 0-.01-.008-.023-.018-.03-.01-.007-.019-.019-.019-.026a.274.274 0 0 0-.094-.094c-.007 0-.018-.008-.026-.019-.007-.01-.02-.018-.03-.018-.008 0-.016-.004-.016-.01 0-.004-.008-.008-.018-.008-.01 0-.019-.005-.019-.01s-.012-.009-.027-.009-.028-.004-.028-.01c0-.004-.017-.008-.037-.008-.02 0-.037-.005-.037-.01s-.034-.009-.083-.009-.083.004-.083.01ZM8.502 12.07c0 .005-.012.01-.028.01-.015 0-.027.004-.027.009 0 .005-.013.009-.028.009-.015 0-.028.004-.028.01 0 .004-.007.008-.016.008-.009 0-.022.009-.03.019-.007.01-.018.018-.025.018a.642.642 0 0 0-.15.152c0 .008-.004.014-.01.014-.004 0-.008.009-.008.019s-.005.018-.01.018-.009.009-.009.019-.004.018-.01.018c-.004 0-.008.013-.008.028 0 .015-.005.028-.01.028a.443.443 0 0 0-.009.138c0 .086.004.139.01.139.004 0 .009.012.009.027s.004.028.009.028c.005 0 .01.008.01.018 0 .01.003.019.008.019s.01.008.01.018c0 .01.004.019.009.019.005 0 .009.006.009.014 0 .018.152.17.17.17.008 0 .015.005.015.01s.008.009.018.009c.01 0 .018.004.018.01 0 .004.009.008.019.008s.018.005.018.01.017.009.037.009c.02 0 .037.004.037.009 0 .006.046.01.12.01s.12-.004.12-.01c0-.005.012-.01.028-.01.015 0 .027-.003.027-.008s.009-.01.019-.01.018-.004.018-.009c0-.005.009-.01.019-.01s.018-.003.018-.008.008-.01.017-.01c.009 0 .022-.008.03-.018.007-.01.018-.019.025-.019a.273.273 0 0 0 .094-.094c0-.007.009-.018.019-.025.01-.008.018-.021.018-.03 0-.01.004-.017.01-.017.004 0 .009-.008.009-.018 0-.01.004-.019.009-.019.005 0 .01-.012.01-.027s.003-.028.008-.028.01-.017.01-.037c0-.02.004-.037.009-.037.005 0 .009-.034.009-.083 0-.05-.004-.083-.01-.083-.004 0-.008-.017-.008-.037 0-.02-.005-.037-.01-.037s-.009-.012-.009-.027c0-.016-.004-.028-.01-.028-.004 0-.008-.008-.008-.019 0-.01-.005-.018-.01-.018s-.009-.007-.009-.015-.012-.026-.028-.04c-.015-.015-.027-.031-.027-.037 0-.014-.061-.074-.076-.074-.007 0-.018-.008-.026-.019-.007-.01-.02-.018-.03-.018-.008 0-.016-.004-.016-.01 0-.005-.008-.009-.018-.009-.01 0-.019-.004-.019-.009 0-.005-.008-.01-.018-.01-.01 0-.019-.003-.019-.008s-.016-.01-.037-.01c-.02 0-.036-.004-.036-.009 0-.005-.043-.009-.111-.009s-.11.004-.11.01ZM9.868 13.27c0 .005-.025.01-.056.01-.03 0-.055.004-.055.009 0 .005-.013.009-.028.009-.015 0-.027.004-.027.009 0 .005-.009.01-.019.01s-.018.003-.018.008c0 .006-.008.01-.017.01-.009 0-.022.008-.03.018-.007.01-.018.019-.025.019a.39.39 0 0 0-.113.113c0 .006-.008.018-.018.025-.01.007-.019.02-.019.03 0 .009-.004.016-.01.016-.004 0-.008.009-.008.019s-.004.018-.01.018c-.005 0-.009.013-.009.028 0 .015-.004.028-.009.028-.005 0-.01.024-.01.055 0 .03-.003.055-.008.055s-.01.017-.01.037c0 .02.005.037.01.037s.009.025.009.056c0 .03.004.055.01.055.004 0 .008.012.008.028 0 .015.004.027.01.027.005 0 .009.009.009.019s.004.018.009.018c.005 0 .01.008.01.017 0 .009.007.022.018.03.01.007.018.018.018.025a.39.39 0 0 0 .113.113c.007 0 .018.008.025.018.008.01.021.019.03.019.01 0 .017.004.017.009 0 .005.008.01.018.01.01 0 .019.003.019.008s.012.01.027.01.028.004.028.009c0 .005.016.01.037.01.02 0 .037.003.037.008 0 .006.03.01.073.01.044 0 .074-.004.074-.01 0-.005.021-.009.046-.009.026 0 .046-.004.046-.01 0-.004.009-.008.019-.008s.018-.005.018-.01.009-.009.019-.009.018-.004.018-.009c0-.005.009-.01.019-.01s.018-.003.018-.008c0-.006.007-.01.014-.01a.601.601 0 0 0 .152-.152c0-.008.005-.014.01-.014s.009-.008.009-.018c0-.01.004-.019.009-.019.005 0 .01-.008.01-.018 0-.01.003-.019.008-.019s.01-.012.01-.027c0-.016.004-.028.009-.028.005 0 .01-.017.01-.037 0-.02.003-.037.008-.037.006 0 .01-.03.01-.074 0-.043-.004-.074-.01-.074-.005 0-.009-.016-.009-.037 0-.02-.004-.036-.01-.036-.004 0-.008-.013-.008-.028 0-.015-.005-.028-.01-.028s-.009-.008-.009-.018c0-.01-.004-.019-.009-.019-.005 0-.01-.007-.01-.016 0-.01-.008-.023-.018-.03-.01-.007-.018-.019-.018-.025a.39.39 0 0 0-.113-.113c-.007 0-.018-.009-.025-.019-.008-.01-.021-.018-.03-.018-.01 0-.017-.004-.017-.01 0-.005-.008-.009-.018-.009-.01 0-.019-.004-.019-.009 0-.005-.012-.01-.027-.01s-.028-.003-.028-.008-.024-.01-.055-.01-.056-.004-.056-.009c0-.005-.016-.01-.037-.01-.02 0-.036.005-.036.01ZM10.126 11.535c0 .005-.013.01-.028.01-.015 0-.028.003-.028.008s-.008.01-.018.01c-.01 0-.018.004-.018.009 0 .005-.009.009-.019.009s-.018.004-.018.01c0 .004-.007.009-.015.009s-.026.012-.04.027c-.015.015-.031.028-.037.028-.014 0-.037.023-.037.037 0 .006-.013.022-.028.037-.015.014-.028.032-.028.04s-.004.015-.009.015c-.005 0-.01.008-.01.019 0 .01-.003.018-.008.018-.006 0-.01.008-.01.018 0 .01-.004.019-.009.019-.005 0-.01.012-.01.028 0 .015-.003.027-.008.027a.444.444 0 0 0-.01.139c0 .086.004.138.01.138.005 0 .009.013.009.028 0 .015.004.028.01.028.004 0 .008.008.008.018 0 .01.004.019.01.019.005 0 .009.007.009.016 0 .009.008.022.018.03.01.007.019.018.019.025 0 .017.116.132.133.132.008 0 .014.004.014.009 0 .005.009.009.019.009s.018.004.018.01c0 .004.008.009.019.009.01 0 .018.004.018.009 0 .005.008.009.018.009.01 0 .019.004.019.01 0 .004.017.008.037.008.02 0 .037.005.037.01s.037.009.092.009.092-.004.092-.01c0-.004.017-.009.037-.009.02 0 .037-.004.037-.009 0-.005.013-.009.028-.009.015 0 .027-.004.027-.01 0-.004.009-.008.019-.008s.018-.005.018-.01.007-.009.015-.009.03-.017.05-.037c.02-.02.042-.037.05-.037a.015.015 0 0 0 .015-.015c0-.008.012-.026.027-.04.015-.014.028-.032.028-.039 0-.007.008-.018.018-.026.01-.007.019-.02.019-.03 0-.008.004-.016.009-.016.005 0 .01-.012.01-.028 0-.015.003-.027.008-.027.006 0 .01-.017.01-.037 0-.02.004-.037.009-.037.005 0 .01-.034.01-.083 0-.05-.005-.083-.01-.083s-.01-.021-.01-.046c0-.026-.003-.047-.009-.047-.005 0-.009-.008-.009-.018 0-.01-.004-.019-.009-.019-.005 0-.01-.008-.01-.018 0-.01-.003-.018-.008-.018-.006 0-.01-.008-.01-.017 0-.009-.008-.022-.018-.03-.01-.007-.018-.018-.018-.025a.39.39 0 0 0-.114-.113c-.006 0-.018-.008-.025-.018-.007-.01-.02-.019-.03-.019-.009 0-.016-.004-.016-.01 0-.004-.012-.008-.028-.008-.015 0-.027-.005-.027-.01s-.013-.009-.028-.009c-.015 0-.028-.004-.028-.01 0-.005-.049-.008-.129-.008s-.13.003-.13.009ZM10.495 9.781c0 .005-.012.01-.028.01-.015 0-.027.004-.027.009 0 .005-.013.009-.028.009-.015 0-.028.004-.028.01 0 .004-.007.008-.016.008-.01 0-.023.009-.03.019-.007.01-.019.018-.025.018a.643.643 0 0 0-.15.152c0 .008-.004.014-.01.014-.005 0-.009.009-.009.019s-.004.018-.009.018c-.005 0-.01.009-.01.019s-.003.018-.008.018-.01.017-.01.037c0 .02-.004.037-.009.037-.006 0-.009.046-.009.12s.003.12.01.12c.004 0 .008.013.008.028 0 .015.005.027.01.027s.009.013.009.028c0 .015.004.028.01.028.004 0 .008.007.008.016 0 .01.009.023.019.03a.527.527 0 0 0 .175.175c.007.01.02.019.03.019.009 0 .016.004.016.009 0 .005.013.01.028.01.015 0 .028.003.028.008 0 .006.016.01.037.01.02 0 .036.004.036.009 0 .006.04.01.102.01.061 0 .101-.004.101-.01 0-.005.017-.01.037-.01.02 0 .037-.003.037-.008 0-.006.009-.01.019-.01s.018-.004.018-.009c0-.005.008-.01.018-.01.01 0 .019-.003.019-.008s.007-.01.016-.01c.01 0 .023-.008.03-.018.007-.01.019-.019.025-.019a.273.273 0 0 0 .095-.094c0-.007.008-.018.019-.026.01-.007.018-.02.018-.03 0-.008.004-.016.01-.016.004 0 .008-.008.008-.018 0-.01.005-.019.01-.019s.009-.008.009-.018c0-.01.004-.019.01-.019.004 0 .008-.016.008-.037 0-.02.005-.036.01-.036s.009-.04.009-.102c0-.062-.004-.101-.01-.101-.005 0-.009-.017-.009-.037 0-.02-.004-.037-.009-.037-.005 0-.01-.009-.01-.019s-.003-.018-.008-.018-.01-.008-.01-.019c0-.01-.004-.018-.009-.018-.005 0-.01-.008-.01-.016 0-.01-.007-.023-.018-.03-.01-.008-.018-.019-.018-.026a.39.39 0 0 0-.113-.113c-.007 0-.018-.008-.025-.018-.008-.01-.021-.019-.03-.019-.01 0-.017-.004-.017-.009 0-.005-.012-.01-.027-.01s-.028-.003-.028-.008-.012-.01-.027-.01c-.016 0-.028-.004-.028-.009 0-.005-.046-.009-.12-.009s-.12.004-.12.01ZM11.823 10.981c0 .005-.02.01-.046.01-.025 0-.046.004-.046.009 0 .005-.008.009-.018.009-.01 0-.019.004-.019.009 0 .005-.008.01-.018.01-.01 0-.019.003-.019.008 0 .006-.008.01-.018.01-.01 0-.018.004-.018.009 0 .005-.007.01-.014.01a.356.356 0 0 0-.083.068.355.355 0 0 0-.07.083c0 .008-.004.014-.009.014-.005 0-.009.009-.009.019s-.004.018-.01.018c-.004 0-.008.008-.008.019 0 .01-.005.018-.01.018s-.009.013-.009.028c0 .015-.004.027-.01.027-.004 0-.008.017-.008.037 0 .02-.005.037-.01.037s-.009.028-.009.065c0 .037.004.065.01.065.005 0 .009.02.009.046 0 .025.004.046.009.046.005 0 .01.012.01.028 0 .015.003.027.008.027s.01.009.01.019.004.018.009.018c.005 0 .009.008.009.017 0 .009.008.022.018.03.01.007.019.018.019.025 0 .006.023.034.05.062.028.028.056.05.063.05.007 0 .018.01.025.02.008.01.021.018.03.018.009 0 .016.004.016.009 0 .005.009.01.019.01s.018.003.018.008.013.01.028.01c.015 0 .028.004.028.009 0 .005.024.01.055.01.03 0 .055.003.055.008s.017.01.037.01c.02 0 .037-.005.037-.01s.025-.009.056-.009c.03 0 .055-.004.055-.01 0-.004.012-.008.028-.008.015 0 .027-.005.027-.01s.009-.009.019-.009.018-.004.018-.01c0-.004.008-.008.017-.008.009 0 .022-.009.03-.019.007-.01.018-.018.025-.018a.236.236 0 0 0 .062-.05.235.235 0 0 0 .05-.063c0-.007.009-.018.02-.026.01-.007.018-.02.018-.03 0-.008.004-.016.009-.016.005 0 .009-.008.009-.018 0-.01.004-.019.01-.019.004 0 .008-.012.008-.027 0-.016.005-.028.01-.028s.009-.025.009-.055c0-.031.004-.056.01-.056.004 0 .008-.017.008-.037 0-.02-.004-.037-.009-.037-.005 0-.01-.024-.01-.055 0-.03-.003-.055-.008-.055s-.01-.013-.01-.028c0-.015-.004-.028-.009-.028-.005 0-.009-.008-.009-.018 0-.01-.004-.019-.01-.019-.004 0-.008-.007-.008-.016 0-.01-.009-.023-.019-.03-.01-.007-.018-.019-.018-.025a.236.236 0 0 0-.05-.063.236.236 0 0 0-.063-.05c-.007 0-.018-.009-.026-.019-.007-.01-.02-.018-.03-.018-.008 0-.016-.004-.016-.01 0-.005-.008-.009-.018-.009-.01 0-.019-.004-.019-.009 0-.005-.012-.01-.027-.01-.016 0-.028-.003-.028-.008s-.017-.01-.037-.01c-.02 0-.037-.004-.037-.009 0-.005-.03-.01-.074-.01-.043 0-.074.005-.074.01ZM11.473 12.66c0 .006-.017.01-.037.01-.02 0-.037.004-.037.01 0 .005-.012.009-.028.009-.015 0-.027.004-.027.009 0 .005-.009.01-.019.01s-.018.003-.018.008-.008.01-.017.01c-.009 0-.022.008-.03.018-.007.01-.018.018-.025.018a.273.273 0 0 0-.094.095c0 .007-.008.018-.019.026-.01.007-.018.02-.018.03 0 .008-.004.016-.01.016-.004 0-.009.008-.009.018 0 .01-.004.019-.009.019-.005 0-.01.008-.01.018 0 .01-.003.018-.008.018s-.01.017-.01.037c0 .02-.004.037-.009.037-.005 0-.009.04-.009.102 0 .061.004.101.01.101.004 0 .009.017.009.037 0 .02.004.037.009.037.005 0 .009.013.009.028 0 .015.004.028.01.028.004 0 .008.007.008.016 0 .009.009.022.019.03.01.007.018.018.018.025a.527.527 0 0 0 .157.15c.008.01.02.019.03.019.009 0 .016.004.016.009 0 .005.009.009.019.009s.018.004.018.01c0 .004.017.008.037.008.02 0 .037.005.037.01s.05.009.13.009.128-.004.128-.01c0-.004.013-.009.028-.009.015 0 .028-.004.028-.009 0-.005.008-.009.018-.009.01 0 .019-.004.019-.01 0-.004.008-.008.018-.008.01 0 .018-.005.018-.01s.007-.009.014-.009a.44.44 0 0 0 .093-.078.436.436 0 0 0 .078-.092c0-.008.004-.015.01-.015.004 0 .008-.008.008-.018 0-.01.005-.018.01-.018s.009-.009.009-.019.004-.018.01-.018c.004 0 .008-.017.008-.037 0-.02.005-.037.01-.037s.009-.046.009-.12-.004-.12-.01-.12c-.004 0-.009-.013-.009-.028 0-.015-.004-.027-.009-.027-.005 0-.01-.013-.01-.028 0-.015-.003-.028-.008-.028s-.01-.007-.01-.016c0-.01-.008-.023-.018-.03-.01-.007-.018-.019-.018-.025a.39.39 0 0 0-.114-.114c-.006 0-.018-.008-.025-.018-.007-.01-.02-.018-.03-.018-.009 0-.016-.005-.016-.01s-.008-.009-.018-.009c-.01 0-.019-.004-.019-.01 0-.004-.008-.008-.018-.008-.01 0-.019-.005-.019-.01s-.016-.009-.037-.009c-.02 0-.037-.004-.037-.01 0-.005-.037-.008-.092-.008s-.092.003-.092.009Z" fill="#1CD7D2"/></svg>