<svg xmlns="http://www.w3.org/2000/svg" width="20" height="20" fill="none"><path fill="#212040" d="M20 10c0 5.523-4.477 10-10 10S0 15.523 0 10 4.477 0 10 0s10 4.477 10 10Z"/><path fill="#ECC115" fill-rule="evenodd" d="M10 19.613A9.613 9.613 0 1 0 10 .387a9.613 9.613 0 0 0 0 19.226ZM10 20c5.523 0 10-4.477 10-10S15.523 0 10 0 0 4.477 0 10s4.477 10 10 10Z" clip-rule="evenodd"/><path fill="#ECC115" d="M7.079 3.564c-.601.148-1.129.633-1.354 1.251-.08.225-.08.257-.091 1.74-.01 1.55.004 1.79.13 2.303.08.309.211.667.243.667.014 0 .091-.101.175-.224.081-.123.267-.345.415-.493.246-.253.752-.657.91-.73.07-.032.07-.06.06-1.333l-.01-1.304 1.451.018c1.617.014 1.61.014 2.12.267.562.281.963.745 1.177 1.374.11.32.138 1.037.057 1.389a2.296 2.296 0 0 1-1.536 1.673c-.3.098-.373.109-.735.109-.221 0-.457-.018-.52-.039-.208-.063-.64.176-1.013.566-.207.214-.506.735-.506.882 0 .067.158.155.528.288 1.058.38 2.32.33 3.3-.126a4.34 4.34 0 0 0 2.274-2.556c.14-.435.19-.783.19-1.374 0-.84-.123-1.392-.446-2.017-.65-1.259-1.807-2.11-3.164-2.324-.457-.074-3.36-.077-3.655-.007Z"/><path fill="#ECC115" d="M9.314 7.82c-1.908.363-3.325 1.821-3.638 3.74-.07.444-.07 3.175.004 3.449.168.64.678 1.188 1.276 1.37.21.067.33.07 1.922.07 1.863 0 1.99-.01 2.577-.214a4.33 4.33 0 0 0 2.819-3.226c.088-.433.098-1.308.017-1.754-.056-.334-.193-.78-.235-.78a.03.03 0 0 0-.028.028 4.511 4.511 0 0 1-1.311 1.343l-.303.193v.214a2.94 2.94 0 0 1-.07.482 2.338 2.338 0 0 1-1.5 1.652c-.384.137-.816.168-2.106.158l-1.16-.01v-1.319c0-1.142.007-1.353.063-1.585a2.494 2.494 0 0 1 1.29-1.645c.464-.243 1.08-.341 1.56-.25.233.043.236.043.468-.07.292-.144.657-.503.809-.79.133-.257.246-.64.2-.686-.056-.056-.58-.25-.872-.32-.38-.095-1.388-.123-1.782-.05Z"/></svg>