<svg xmlns="http://www.w3.org/2000/svg" width="21" height="20" fill="none"><g clip-path="url(#a)"><path fill="#6DA544" d="M10.5 20c5.523 0 10-4.477 10-10s-4.477-10-10-10S.5 4.477.5 10s4.477 10 10 10Z"/><path fill="#FFDA44" d="M10.5 3.913 18.761 10l-8.26 6.087L2.238 10 10.5 3.913Z"/><path fill="#F0F0F0" d="M10.5 13.478a3.478 3.478 0 1 0 0-6.956 3.478 3.478 0 0 0 0 6.956Z"/><path fill="#0052B4" d="M8.76 9.783a5.85 5.85 0 0 0-1.737.262 3.478 3.478 0 0 0 6.325 1.95 5.861 5.861 0 0 0-4.587-2.212Zm5.154.883a3.478 3.478 0 0 0-6.61-2.04 7.175 7.175 0 0 1 6.61 2.04Z"/></g><defs><clipPath id="a"><path fill="#fff" d="M.5 0h20v20H.5z"/></clipPath></defs></svg>