<svg xmlns="http://www.w3.org/2000/svg" width="20" height="20" fill="none"><circle cx="10" cy="10" r="10" fill="#fff"/><path fill-rule="evenodd" clip-rule="evenodd" d="M8.581 2.533c-.001.06-.062.389-.133.728-.162.763-.166.705.05.704.235-.002.299-.054.562-.46.239-.368.336-.435.264-.18l-.091.322c-.043.151-.026.148.251-.04.336-.228.438-.245.59-.102.063.061.051-.005-.032-.17-.1-.198-.16-.245-.225-.18-.143.143-.218.105-.218-.11 0-.255-.086-.253-.394.006l-.246.207-.08-.212a1.352 1.352 0 0 1-.081-.272.57.57 0 0 0-.107-.206c-.075-.102-.108-.113-.11-.035Zm-.417.432a5.04 5.04 0 0 0-.326.595c-.088.212-.15.242-.67.327-.896.145-1.43.298-1.59.457-.158.16-.394 1.02-.586 2.14-.067.394-.133.726-.146.74-.013.012-.201-.031-.419-.097a1.372 1.372 0 0 0-.806-.034c-1.273.265-1.868 1.692-1.525 3.66.223 1.283.65 2.098 1.298 2.478.304.178.43.206.8.175.373-.03.433-.017.399.09-.099.313-.203 1.024-.203 1.378 0 .312.023.379.12.342.092-.036.12.016.12.223 0 .147.042.413.091.59.085.3.095.31.172.14.107-.234.189-.23.25.016.108.43.886.785 2.37 1.08.694.137 1 .174 2.407.287.868.07 3.497-.408 4.31-.784.35-.162.659-.476.659-.67 0-.17.127-.13.218.07.077.17.087.162.172-.14.05-.176.09-.441.09-.59 0-.206.029-.258.121-.222.097.037.12-.03.12-.341 0-.354-.104-1.066-.203-1.378-.034-.108.026-.122.399-.09 1.036.085 1.787-.864 2.098-2.654.343-1.968-.252-3.395-1.524-3.66a1.372 1.372 0 0 0-.807.034c-.218.066-.407.109-.42.096-.012-.013-.078-.345-.145-.738-.185-1.08-.423-1.967-.572-2.132-.23-.253-1.55-.523-2.873-.586l-.802-.039.68.112c.931.153 1.615.302 1.575.343-.019.019-.661-.005-1.427-.053a20.987 20.987 0 0 0-4.544.21c-.754.118-.877.16-1.072.369-.247.264-.318.112-.08-.17.107-.129.355-.206 1.055-.33.503-.09.922-.172.93-.183a7.13 7.13 0 0 0 .157-.46c.076-.243.206-.559.288-.702.222-.39.105-.314-.159.101ZM9.53 5.607c.502.028 1.164.018 1.473-.023.308-.041.577-.06.596-.043.02.017-.044.087-.14.155-.192.134-.235.398-.075.458.105.04 1.014-.009 1.32-.07a.313.313 0 0 0 .23-.236c.057-.228.167-.245.551-.085.213.09.29.182.353.421.044.169.12.46.168.65.05.188.071.372.049.408-.023.037-.394.088-.825.115-1.21.075-2.39.449-2.59.82-.227.424-1.051.424-1.278 0-.058-.108-.284-.27-.512-.369-.54-.232-1.733-.473-2.35-.475-.274 0-.519-.036-.545-.08-.027-.042-.013-.213.03-.38l.168-.649c.074-.281.142-.368.364-.46.38-.16.494-.144.549.074.042.168.11.196.59.247.991.106 1.02.103 1.048-.091a.28.28 0 0 0-.14-.28c-.185-.116-.227-.266-.056-.2.06.023.52.065 1.022.093Zm-1.473.9c.1.02.262.02.361 0 .1-.019.018-.035-.18-.035-.199 0-.28.016-.18.035Zm3.527 0c.099.02.261.02.36 0 .1-.019.019-.035-.18-.035-.198 0-.28.016-.18.035Zm-3.947.103c-.028.045.004.059.076.032.138-.054.164-.111.049-.111-.042 0-.098.035-.125.079Zm4.528-.048c0 .018.056.053.124.08.072.027.104.013.076-.032-.047-.076-.2-.113-.2-.048ZM7.275 7.57c.124.038-.187.073-.815.092-.559.018-1.045.061-1.08.097-.036.036-.086.378-.111.761-.05.751-.118.742-.19-.025a7.295 7.295 0 0 0-.095-.694c-.038-.164-.016-.221.1-.25.24-.063 1.973-.047 2.191.02Zm7.601-.024c.154.041.179.087.14.26a7.263 7.263 0 0 0-.095.69c-.072.766-.14.775-.19.024-.025-.383-.075-.725-.11-.761-.036-.036-.522-.08-1.08-.097-.63-.02-.94-.054-.816-.092.247-.075 1.894-.093 2.151-.024Zm-10.905.901c-.194.216-.395.536-.448.71-.187.625-.087 1.45.227 1.865.139.184.138.17-.005-.245-.184-.532-.192-.76-.041-1.187.161-.456.406-.762.777-.97.422-.238.55-.178.55.26 0 .523.217 1.072.512 1.297.32.245 1.021.433 1.852.497.353.027.668.09.7.138.033.048.06-.009.06-.127.003-.447.8-.787 1.845-.787 1.044 0 1.842.34 1.845.787 0 .118.027.175.06.127.032-.049.347-.11.7-.138.83-.064 1.532-.252 1.852-.497.295-.225.512-.774.512-1.298 0-.437.128-.497.55-.26.371.209.616.515.777.971.15.427.143.655-.04 1.187-.144.416-.145.429-.006.245.314-.416.414-1.24.227-1.864-.053-.175-.254-.495-.448-.71l-.353-.393h.301c.426 0 .934.53 1.076 1.121.218.91-.068 2.125-.64 2.714-.654.675-1.524.54-1.524-.235 0-.138.023-.147.17-.068.166.088.17.08.116-.278-.046-.305-.034-.37.07-.37.182 0 .154-.174-.085-.529a8.87 8.87 0 0 0-.235-.34c-.014-.015-.167.086-.34.225-.33.264-.924.485-1.31.485h-.226l.52.792c.285.435.629 1.028.764 1.317l.246.525-.205.85c-.287 1.19-.535 1.683-.993 1.974-.797.505-2.195.87-3.34.87-1.194.002-2.618-.361-3.422-.87-.458-.291-.706-.785-.993-1.974l-.205-.85.246-.525c.135-.29.48-.882.765-1.317l.519-.792h-.226c-.386 0-.98-.22-1.31-.485-.173-.139-.326-.24-.34-.225-.014.016-.12.169-.235.34-.239.355-.267.53-.085.53.104 0 .116.064.07.369-.054.358-.05.366.115.278.148-.08.171-.07.171.066 0 .5-.448.792-.987.643-.626-.173-1.182-1.148-1.242-2.177-.048-.83.084-1.276.506-1.717.277-.29.384-.347.635-.347h.301l-.353.392Zm6.384.695c.07.07.126.25.126.401v.275H9.52v-.275c0-.335.174-.527.48-.527.126 0 .286.057.355.126Zm-1.6 1.646c-.066.209.081.386.212.255.066-.066.177-.059.42.027l.33.116-.275-.283c-.313-.323-.605-.372-.687-.115Zm1.804.114-.274.282.26-.09a.955.955 0 0 1 .453-.042c.225.056.316-.046.244-.273-.078-.248-.376-.194-.683.123Zm-2.402.113c0 .042.035.098.079.125.045.028.059-.004.031-.076-.053-.139-.11-.164-.11-.049Zm3.571.062c-.043.114-.034.123.045.044.055-.054.08-.119.055-.143-.025-.025-.07.02-.1.099Zm-3.13 4.383c-.31.096-.292.101.54.141a22.64 22.64 0 0 0 1.723.003l.861-.038-.36-.108c-.459-.137-2.322-.136-2.765.002Z" fill="#000"/></svg>