<svg xmlns="http://www.w3.org/2000/svg" width="21" height="20" fill="none"><g clip-path="url(#a)"><path fill="#F0F0F0" d="M10.882 20c5.523 0 10-4.477 10-10s-4.477-10-10-10-10 4.477-10 10 4.477 10 10 10Z"/><path fill="#D80027" d="M20.882 10A10 10 0 0 0 15.23.992v18.016A10 10 0 0 0 20.882 10Zm-20 0a10 10 0 0 0 5.653 9.008V.992A10 10 0 0 0 .882 10Zm11.739 1.304 1.74-.87-.87-.434v-.87l-1.74.87.87-1.74h-.87l-.869-1.304-.87 1.305h-.869l.87 1.739-1.74-.87V10l-.869.435 1.74.87-.436.869h1.74v1.304h.869v-1.304h1.74l-.436-.87Z"/></g><defs><clipPath id="a"><path fill="#fff" d="M.882 0h20v20h-20z"/></clipPath></defs></svg>