<svg width="20" height="20" fill="none" xmlns="http://www.w3.org/2000/svg"><path fill-rule="evenodd" clip-rule="evenodd" d="M17.516 2.457c-.082-.063-.181-.082-.352-.079h-.006l-.885.085c-.5.07-1.196.266-1.861.524-.717.28-1.393.609-1.923 1.138l-.186.186-.048.049-.068-.008a7.499 7.499 0 0 1-.141-.018 7.271 7.271 0 0 0-.138-.018h-.002c-1.328-.176-2.658-.35-3.997-.364h-.035l-1.189-.65a8.855 8.855 0 0 0-2.462-.706 16.004 16.004 0 0 1-.21-.018h-.001L3.8 2.56a15.789 15.789 0 0 1-.214-.018 15.9 15.9 0 0 0-.207-.017h-.023a.344.344 0 0 0-.13.019.23.23 0 0 0-.094.11l-.002.006-.26.869-.002.006v.001l-.005.018c-.439 1.642-.514 3.062-.496 4.756v.02l-.424 1.438-.154.523c-.05.175-.102.35-.154.525l-.042.141-.14-.048a14.1 14.1 0 0 1-.187-.066h-.002a15.243 15.243 0 0 0-.186-.066h-.002a66.8 66.8 0 0 0-.238-.086l-.002-.001-.236-.085a.312.312 0 0 1-.007.027v.004l-.004.017-.005.015a.167.167 0 0 0-.004.02v.003l-.002.007h.002c.07.045.142.089.213.133l.003.002.217.134.179.113.18.113.065.042v.11l-.003.014c-.01.053-.026.13-.05.209l-.002.009c-.018.055-.038.119-.06.17v.123l-.149-.009c-.118-.007-.233-.016-.348-.026l-.029-.003a15.965 15.965 0 0 0-.22-.02H.565l-.207-.018-.004.002H.354a.03.03 0 0 0-.009.006l-.002.002-.002.002-.003.003-.006.008a.412.412 0 0 0-.032.075v.007c0 .013 0 .019.002.027.001.007.003.009.004.01l.002.002h.005c.076.015.146.025.22.036h.002l.207.032.02.003.02.01c.05.023.103.048.156.075h.006l.03.015.063.03v.001l.069.033.078.04v.087a.41.41 0 0 1-.013.095c-.005.027-.011.053-.017.073v.003a.188.188 0 0 1-.006.026l-.002.013a.844.844 0 0 1-.008.033l-.007.027a.156.156 0 0 0-.004.03v.011c-.028.351-.002.57.083.752v.001c.084.183.232.333.447.545 1.086 1.072 2.77 2.235 4.096 3.004l.093.053c.149.085.364.206.576.321.13.07.26.137.376.194.115.053.212.095.277.112h.001c.206.059.43.063.66.046.16-.012.322-.036.48-.06l.05-.007.076-.012.06-.009.825-.147.675-.12c1.679-.346 3.388-.873 5-1.461l.057-.021c.23-.086.603-.224.966-.368.397-.158.78-.316.95-.407.354-.196.747-.517.999-.83a2.419 2.419 0 0 0 .233-.35 2.71 2.71 0 0 1 .045-.076.448.448 0 0 1 .076-.094.172.172 0 0 1 .024-.016l.002-.002h.002l.065.125-.064-.126.03-.015h.06a.763.763 0 0 1 .253.103l.008.005.007.005c.047.034.093.071.136.104l.023.02c.055.04.11.083.162.125l.002.001a.176.176 0 0 0 .11-.029.119.119 0 0 0 .038-.043.104.104 0 0 0 .003-.066l-.005-.008-.005-.005-.002-.002a.371.371 0 0 0-.008-.006c-.004-.004-.012-.01-.02-.019a.918.918 0 0 0-.073-.051l-.003-.002-.003-.002a3.39 3.39 0 0 0-.18-.119l-.03-.019a.376.376 0 0 0-.018-.012h-.002v-.002a4.556 4.556 0 0 1-.241-.159l-.003-.002-.004-.003a2.163 2.163 0 0 0-.045-.036l-.067-.05.012-.083a.59.59 0 0 1 .004-.023l.001-.009.002-.01a.167.167 0 0 0 .002-.023v-.012l.002-.012a.262.262 0 0 0 .005-.044v-.009l.001-.008.008-.063c.008-.072.017-.151.028-.227.015-.098.034-.192.057-.272a.423.423 0 0 1 .066-.157l.004-.005.001-.001.003-.003.001-.002h.001l.1.1-.1-.1.042-.042h.027l.014-.006c.039-.017.083-.033.137-.049.103-.033.226-.065.344-.097h.003c.051-.015.105-.029.153-.04l.067-.018.066-.016a.713.713 0 0 0 .047-.011l.005-.002h.004c.047-.011.084-.02.109-.03l.005-.001.004-.001.008-.003.028-.01a.078.078 0 0 0 .016-.007l.002-.001a.072.072 0 0 0 .04-.05.112.112 0 0 0-.008-.066v-.002c-.02-.042-.065-.076-.132-.067h-.002l-.005.002a1.962 1.962 0 0 0-.075.031l-.03.014c-.06.026-.143.06-.238.09a1.829 1.829 0 0 1-.628.097l-.13-.005-.007-.13c-.017-.36-.06-.793-.107-1.237v-.001l-.039-.404-.003-.04m-.54-7.523c-.095-.162-.155-.264-.238-.325l-.001-.001m1.268 10.158a.243.243 0 0 0-.006.024l-.002.006-.002.006a1.773 1.773 0 0 0-.049.238l-.027.215-.007.06a.511.511 0 0 1-.008.072v.01c.057.041.129.088.205.135l.029.019a.46.46 0 0 0 .02.013h.001l.004.003c.065.04.136.085.193.127h.001c.03.02.068.046.1.073l.003.004.004.003.002.002.008.007.001.001a.443.443 0 0 1 .025.023c.006.006.02.019.033.037.023.029.04.065.05.099v.004a.388.388 0 0 1-.017.251l-.001.002v.002a.4.4 0 0 1-.14.162h-.001v.001a.457.457 0 0 1-.31.071h-.003l-.07-.014-.056-.042-.002-.002c-.055-.043-.106-.084-.157-.121l-.001-.002-.002-.001-.028-.022-.118-.091a1.532 1.532 0 0 0-.08-.042 3.996 3.996 0 0 0-.033.056l-.002.005-.003.004-.002.004-.002.001-.002.007-.007.013a2.72 2.72 0 0 1-.23.335c-.278.345-.7.69-1.083.901l-.002.001c-.187.101-.59.266-.98.422-.367.145-.742.284-.972.37l-.058.021c-1.622.592-3.346 1.124-5.043 1.473h-.004l-.666.12-.836.149h-.007l-.136.022h-.001l-.05.007c-.157.023-.33.048-.5.062A2.187 2.187 0 0 1 7 17.866a2.241 2.241 0 0 1-.322-.13h-.002c-.12-.059-.254-.128-.388-.2-.216-.117-.434-.24-.582-.325l-.093-.052H5.61c-1.336-.777-3.042-1.953-4.152-3.049l.099-.1-.1.1c-.206-.203-.395-.39-.504-.628l.128-.06-.128.06c-.115-.245-.139-.52-.11-.888v.006h.141l-.14-.011a.832.832 0 0 0 .018-.112l.004-.016a.173.173 0 0 0-.001.021h.14l-.138-.027a.354.354 0 0 1 .005-.023v.014c0-.012.002-.02.002-.022v-.001.002a.2.2 0 0 0-.002.007v-.003l.004-.017.006-.022.002-.01.029.014h.001l.064.032.064-.126H.91v-.065l-.063.127.03.015H.868l-.031-.017a3.661 3.661 0 0 0-.158-.077c.007 0 .014.002.02.003l.022-.14-.06.128.018.009-.187-.03h.001l.02-.14-.022.14h.001a6.267 6.267 0 0 1-.227-.036h.003l.02-.14-.025.14h.002l-.097-.014-.07-.075.104-.097-.104.095c-.084-.09-.08-.204-.08-.23v-.004c0-.063.02-.114.033-.142a.68.68 0 0 1 .04-.081l.002-.003.003-.004a.331.331 0 0 1 .042-.053c-.002.002.014-.015.033-.03a.302.302 0 0 1 .086-.049l.049.133-.048-.133.05-.02H.37l.006.002.214.018.01.001.223.02-.013.14.014-.14H.823l.027.002.237.02a.931.931 0 0 1-.026.07.155.155 0 0 0-.02.072v.005h.141v-.012l.004.001-.003-.002.007-.128a8.507 8.507 0 0 1-.103-.007l.028-.087v.001l.135.041-.135-.043v.001c.01-.035.02-.07.027-.103l.079.05.064-.102h.012l-.01-.002.01-.016h-.09l-.049-.01-.002.01v.004a3.22 3.22 0 0 1-.014.066l-.099-.063-.18-.113h.001l.075-.119-.076.12a47.335 47.335 0 0 0-.215-.134l-.003-.002a36.781 36.781 0 0 1-.214-.133l-.17-.106.042-.194v.004l.139.023-.138-.03-.001.003a.526.526 0 0 1 .01-.044.185.185 0 0 0-.002.024h.141l-.137-.034a.65.65 0 0 1-.001.005l-.001.005a.211.211 0 0 1 .008-.037v-.001l.003-.008v-.004l.073-.312.3.107.235.084.003.002.237.085h-.001l-.046.133.048-.132h-.001a24.003 24.003 0 0 1 .235.083l-.042.142.136.04.045-.134a12.4 12.4 0 0 1-.139-.049l.112-.38v-.001c.05-.174.102-.349.154-.524l.135.04-.135-.04.412-1.397v.022l.142-.002-.136-.04-.006.02c-.017-1.69.06-3.129.501-4.792v.019h.142L2.59 3.48l-.005.018v-.006l.014-.045.255-.849v.02h.14l-.135-.04-.005.02v-.033l.025-.038-.001.003a.932.932 0 0 0-.004.007l.128.06-.118-.078-.005.008a.506.506 0 0 1 .224-.239l.003-.001.003-.001a.608.608 0 0 1 .247-.045h.039l.215.019.211.018c.073.005.144.011.214.018l.212.017h.003l.004.001a9.139 9.139 0 0 1 2.52.718h-.03v.141l.059-.128a8.194 8.194 0 0 0-.029-.013h.032l.03.03-.017-.01-.068.125.1-.1-.015-.015 1.11.607h-.035l-.001.14.068-.123-.031-.017c1.346.017 2.68.192 3.994.366h-.001l-.016.14.018-.14h-.001a17.051 17.051 0 0 0 .21.027l-.048.049.1.1.016-.14a4.985 4.985 0 0 1-.068-.01l.085-.084.053-.052c.572-.573 1.293-.918 2.02-1.202.678-.263 1.398-.468 1.927-.541h.003l.904-.087h.016-.001l.003.141v-.141h-.002c.186-.004.366.013.527.135.131.098.218.249.299.388l.013.023.001.001c.397.706.586 1.605.662 2.494.076.892.04 1.796-.032 2.54v.011l-.014.097v.017l-.002.01c-.039.282-.078.562-.113.839-.031.425.014 1.01.075 1.628l.003.039.04.404c.04.39.079.777.1 1.116a1.61 1.61 0 0 0 .401-.08h.001a2.23 2.23 0 0 0 .213-.081 6.7 6.7 0 0 0 .024-.01c.02-.01.041-.019.055-.024l.003-.002.004-.001.004-.001.03-.02h.022a.24.24 0 0 1 .053-.011.401.401 0 0 1 .42.233c.057.128.06.357-.148.477a.386.386 0 0 1-.072.033l-.006.002-.004.001-.007.003h-.002a1.558 1.558 0 0 1-.155.043c-.022.007-.045.012-.063.016-.021.005-.038.008-.054.013h-.001l-.075.02a4.6 4.6 0 0 0-.14.037h-.003c-.123.033-.24.064-.336.095h-.003l-.002.001a.83.83 0 0 0-.094.033ZM.886 12.377v.003a7.86 7.86 0 0 0-.009-.003h.009Z" fill="#fff"/><path d="M17.162 2.237c.178-.004.318.014.44.107.11.083.186.215.275.369.383.68.569 1.556.644 2.436.075.883.04 1.781-.032 2.522v.007l-.015.096v.018c-.039.283-.078.566-.114.845-.032.44.014 1.037.075 1.656l.043.443c.047.444.09.88.107 1.245.215.007.419-.036.58-.09.09-.028.168-.06.225-.085l.075-.032c.011-.004.022-.007.033-.014.007 0 .025-.011.043-.011a.26.26 0 0 1 .279.15c.039.086.035.225-.09.297a.251.251 0 0 1-.046.021c-.015.004-.029.011-.043.015a1.47 1.47 0 0 1-.122.032c-.036.01-.079.018-.118.029-.068.017-.143.035-.218.057-.122.032-.244.064-.344.096a.923.923 0 0 0-.121.043c-.025.01-.036.018-.04.018 0 0-.007.007-.01.022a.269.269 0 0 0-.029.082c-.021.071-.04.16-.054.257-.014.097-.025.197-.035.287a.395.395 0 0 1-.008.068c0 .032-.007.06-.01.085l.05.04c.064.046.146.1.232.154.018.01.032.021.05.032a3.425 3.425 0 0 1 .28.19c.01.01.025.02.035.031a.16.16 0 0 1 .022.026.126.126 0 0 1 .025.05c.014.057.01.11-.011.16a.26.26 0 0 1-.09.104c-.06.04-.139.061-.21.05l-.036-.007-.029-.021a4.772 4.772 0 0 0-.16-.125c-.05-.04-.105-.083-.158-.122a.659.659 0 0 0-.2-.086h-.011s-.007.004-.011.01c-.025.026-.046.065-.09.14-.007.011-.014.022-.017.033-.05.085-.118.193-.219.318-.264.33-.672.662-1.04.866-.18.096-.573.257-.966.415-.397.157-.805.307-1.027.39-1.617.59-3.334 1.12-5.022 1.466l-1.503.268-.14.022c-.171.025-.357.054-.54.068a2.05 2.05 0 0 1-.708-.05 2.1 2.1 0 0 1-.3-.122 9.997 9.997 0 0 1-.383-.197c-.265-.143-.533-.296-.673-.375-1.33-.773-3.026-1.943-4.124-3.027-.211-.207-.38-.375-.476-.586-.1-.215-.125-.462-.096-.823 0-.04.014-.082.021-.118 0-.01.007-.025.007-.036.007-.028.014-.053.018-.078a.288.288 0 0 0 .01-.068C1 12.278.954 12.257.91 12.235H.903c-.06-.032-.121-.06-.182-.09a22.76 22.76 0 0 1-.433-.067l-.05-.007-.036-.04c-.046-.05-.043-.114-.043-.14 0-.031.011-.06.022-.085a.543.543 0 0 1 .032-.064c.007-.011.014-.022.025-.033.007-.007.029-.032.068-.046l.029-.01h.028c.15.013.3.024.447.038.125.011.247.022.372.03 0 0 0-.008.004-.012.021-.046.043-.114.064-.182.022-.072.036-.143.047-.197v-.018l-.358-.225c-.143-.09-.29-.179-.433-.268l-.086-.054.022-.1c.003-.022.007-.032.01-.047 0-.014.008-.025.011-.046l.036-.154.15.054.476.171c.125.043.25.09.376.133l.307-1.048.419-1.417c-.018-1.7.057-3.134.5-4.793v-.004c.09-.297.18-.594.269-.894v-.011l.007-.01a.371.371 0 0 1 .165-.183.47.47 0 0 1 .19-.032h.028c.143.01.282.025.426.035.143.011.282.025.425.036.83.104 1.75.372 2.508.72h.003l.004.003 1.159.633c1.349.014 2.687.19 4.014.365.093.01.186.025.279.036l.186-.186c.55-.551 1.249-.888 1.97-1.17.673-.261 1.382-.462 1.897-.533l.894-.086h.01Z" fill="#000"/><path d="M12.218 4.659c.268-.022-.204.247.172.268.068.043-.118.215-.34.157-.115.165-.232.326-.347.49-.01.118.347-.071.476.036.193.165-.447.097-.565.186-.076.057-.294.62-.333.658-.1.104-.347.011-.311-.186.046-.089.093-.178.143-.268.014-.118-.154-.075-.197-.186.197-.107.283.029.483-.283.343-.54-.197-.064-.304-.064-.107 0-.104-.054-.093-.093.021-.075.658-.329.758-.39.111-.068.326-.315.469-.325h-.01ZM12.5 7.75c.79-.036 1.692.371 2.175.997.644.841.515 1.614.029 2.494-.701 1.273-2.129 1.663-3.452 1.112-1.689-.704-1.478-2.976-.158-4.038.39-.315.898-.544 1.403-.566h.003ZM5.74 8.626c.633-.047 1.16.247 1.395.844.59 1.488-.926 2.837-2.103 1.864-.977-.809-.77-2.597.708-2.708ZM6.209 12.865c.332-.036 1.173.275 1.516.411.115.047 1.11.422.68.58l-1.02.268c-.371.129-.64.436-.672-.461-.029-.086-.225-.119-.24-.015-.003.025.111.322-.318.007-.311-.228-.472-.74.057-.794l-.003.004Z" fill="#fff"/></svg>