<svg xmlns="http://www.w3.org/2000/svg" width="20" height="20" fill="none"><circle cx="10" cy="10" r="10" fill="#fff"/><g clip-path="url(#a)"><path fill="#1A1A1A" d="m13.627 11.723-3.676 3.84-2.047-2.138 3.677-3.84-1.635-1.707-5.33 5.566 5.315 5.55 5.33-5.565-1.634-1.706Z"/><path fill="#38A1DB" d="M16.908 8.252 9.964 1 3 8.272l.022 3.4 6.912-7.219 6.963 7.271.011-3.472Z"/></g><circle cx="15" cy="15" r="5" fill="#131419"/><path fill="#F0B90B" fill-rule="evenodd" d="m13.41 14.348 1.59-1.59 1.59 1.59.925-.924L15 10.909l-2.515 2.515.925.924Zm-1.577-.27-.924.924.924.923.923-.923-.923-.924ZM15 17.244l-1.59-1.59-.925.925L15 19.093l2.515-2.514-.925-.925-1.59 1.59Zm3.168-3.166-.924.924.924.923.923-.923-.924-.924ZM15 14.064l.937.937-.938.938-.937-.938.162-.168.084-.077.692-.692Z" clip-rule="evenodd"/><defs><clipPath id="a"><path fill="#fff" d="M3 1h14v18H3z"/></clipPath></defs></svg>