<svg xmlns="http://www.w3.org/2000/svg" width="21" height="20" fill="none"><g clip-path="url(#a)"><path fill="#F0F0F0" d="M10.5 20c5.523 0 10-4.477 10-10s-4.477-10-10-10S.5 4.477.5 10s4.477 10 10 10Z"/><path fill="#D80027" d="M20.5 10c0 5.523-4.477 10-10 10S.5 15.523.5 10s10 0 10 0h10Z"/><path fill="#0052B4" d="M.5 10c0-5.523 4.477-10 10-10v10H.5Z"/><path fill="#F0F0F0" d="M6.453 3.478 7.1 5.471h2.096L7.5 6.703l.648 1.993-1.695-1.232-1.696 1.232.648-1.993L3.71 5.47h2.095l.648-1.993Z"/></g><defs><clipPath id="a"><path fill="#fff" d="M.5 0h20v20H.5z"/></clipPath></defs></svg>