<svg width="435" height="435" fill="none" xmlns="http://www.w3.org/2000/svg"><path d="M217.71 0C97.84 0 .71 97.17.71 217.05c0 119.88 97.17 217 217 217s217.05-97.17 217.05-217S337.58 0 217.71 0Zm0 315a97.937 97.937 0 0 1-96.057-117.051 97.934 97.934 0 0 1 76.956-76.948 97.942 97.942 0 0 1 100.54 41.654 97.935 97.935 0 0 1 16.501 54.415A98 98 0 0 1 217.71 315Zm-193-97.93c0-102.41 80.17-186.4 181-192.62v71.23a122 122 0 0 0 0 242.73v71.25c-100.86-6.22-181.03-90.21-181.03-192.61l.03.02Zm205 192.61v-71.27a122.001 122.001 0 0 0 78.124-203.119A122 122 0 0 0 229.71 95.68V24.43c100.86 6.22 181 90.21 181 192.62 0 102.41-80.14 186.39-181 192.61v.02Z" fill="url(#a)"/><defs><linearGradient id="a" x1="64.24" y1="370.52" x2="371.19" y2="63.57" gradientUnits="userSpaceOnUse"><stop stop-color="#4C80E9"/><stop offset="1" stop-color="#91D2F5"/></linearGradient></defs></svg>