<svg width="55" height="55" fill="none" xmlns="http://www.w3.org/2000/svg"><g clip-path="url(#a)"><path d="M15.777 20.268H23.3v2.428h-7.524v-2.428zm18.86 11.165H16.988v8.981H34.61c2.45 0 4.588-2.038 4.588-4.515-.047-2.5-2.063-4.491-4.563-4.466z" fill="#014655"/><path d="M27.5 0C12.306 0 0 12.306 0 27.5S12.306 55 27.5 55 55 42.694 55 27.5C55.025 12.306 42.694 0 27.5 0zm.9 12.257h13.106v2.67H31.31v7.766h7.525v-2.426h-5.341v-2.67h8.253v7.766H28.399V12.257zm-15.051.242H21.6v3.154h-8.25v-3.154zm-.242 5.098h10.436v-5.34h2.912v13.106H13.107v-7.766zM35.243 43.81H13.349V28.033H35.24c4.249 0 7.72 3.567 7.72 7.89 0 4.323-3.471 7.887-7.717 7.887z" fill="#014655"/><path d="M13.348 12.499h8.253v3.154H13.35v-3.154z" fill="#C39145"/></g><defs><clipPath id="a"><path fill="#fff" d="M0 0h55v55H0z"/></clipPath></defs></svg>