<svg width="20" height="20" fill="none" xmlns="http://www.w3.org/2000/svg"><circle cx="10" cy="10" r="10" fill="#021E1F"/><path d="M8.136 9.944H6.112l3.91 8.08-1.886-8.08Z" fill="#009A9C" style="mix-blend-mode:overlay"/><path d="M11.977 9.944h2.016l-3.94-8.069 1.924 8.069Z" fill="#14B8A6" style="mix-blend-mode:overlay"/><path d="M11.748 5.345 9.341 9.944h4.653l-2.246-4.599Z" fill="#2DD4BF" style="mix-blend-mode:screen" opacity=".46"/><path d="M13.426 9.944 9.09 14.029l-.988-4.085 1.95-8.069 1.105 4.603-.504.962L9.34 9.944h4.086Z" fill="#010101"/><path d="m7.024 8.077 5.076-.885-2.047-5.317-3.029 6.202Z" fill="#002638" style="mix-blend-mode:multiply" opacity=".63"/><path d="m13.426 9.944-5.02 4.74 1.616 3.34 3.971-8.08h-.567Z" fill="#0D9488"/><path d="M8.136 9.944H6.112l3.91 8.08-1.886-8.08Z" fill="#009A9C"/><g style="mix-blend-mode:multiply" opacity=".63"><path d="m13.993 9.944-.724 1.395-5.846 1.319-1.31-2.714h2.03l.564 2.42 2.84-.64.43-1.78h2.016Z" fill="#025563"/><path d="m11.977 9.944-.43 1.78-2.84.64-.564-2.42h3.834Z" fill="#002638"/></g><path d="M11.977 9.944h2.017l-3.971 8.08 1.954-8.08Z" fill="#0D9488"/><path d="m11.55 11.723-1.527 6.301 1.524-6.3.003-.001Z" fill="#002638"/><path d="m13.313 11.33-3.29 6.694 1.527-6.301 1.763-.394Z" fill="#134E4A"/><path d="M10.023 18.024 8.41 14.668l.676-.65.936 4.006Z" fill="#00A6A3"/><path d="m10.023 18.024-1.62-3.348.687-.647.933 3.995Z" fill="#2DD4BF"/><path d="M8.136 9.944H6.112l3.94-8.069-1.916 8.069Z" fill="#14B8A6"/><path d="m11.157 6.478-.503.962-2.007.354 1.406-5.919 1.104 4.603Z" fill="#021825"/><path d="m11.575 11.62-.024.103-.107.024.13-.126Z" fill="#00A6A3"/><path d="m13.316 9.944-1.766 1.779h-.004l.43-1.78h1.34Z" fill="#134E4A"/><path d="M13.317 9.944h-1.34l-.43 1.78-2.84.64-.571-2.42h5.18Z" fill="#041C28"/><path d="m11.977 10.045-2.075-8.07-3.03 6.203-.911 1.867 1.31 2.714.003-.001.977 2.019 1.62 3.348 2.105-8.08Z" fill="#2DD4BF" style="mix-blend-mode:overlay" opacity=".18"/></svg>