<svg xmlns="http://www.w3.org/2000/svg" width="20" height="20" fill="none"><path fill="url(#a)" fill-rule="evenodd" d="M9.975 0c5.541 0 9.975 4.484 9.975 9.975 0 5.541-4.484 9.975-9.975 9.975C4.484 20 0 15.516 0 9.975 0 4.484 4.484 0 9.975 0Z" clip-rule="evenodd"/><path fill="#fff" fill-rule="evenodd" d="M4.534 4.735h5.945c2.418 0 4.886 1.713 4.886 5.19 0 3.475-2.468 5.188-4.886 5.188H6.096V9.521h2.57v3.073h1.712c1.108 0 2.418-1.26 2.418-2.67s-1.26-2.67-2.418-2.67H7.557c-1.26 0-2.267-.856-3.023-2.519Z" clip-rule="evenodd"/><defs><linearGradient id="a" x1="19.977" x2="0" y1="19.977" y2="0" gradientUnits="userSpaceOnUse"><stop stop-color="#DA4154"/><stop offset="1" stop-color="#DA4154"/></linearGradient></defs></svg>