<svg xmlns="http://www.w3.org/2000/svg" width="21" height="20" fill="none"><g clip-path="url(#a)"><path fill="#F0F0F0" d="M10.5 20c5.523 0 10-4.477 10-10s-4.477-10-10-10S.5 4.477.5 10s4.477 10 10 10Z"/><path fill="#D80027" d="M20.415 8.696H8.326V.238C9.026.083 9.753 0 10.5 0c5.08 0 9.276 3.79 9.915 8.696ZM5.717 1.216v7.48H.585a10.006 10.006 0 0 1 5.132-7.48Zm0 10.088H.585a10.006 10.006 0 0 0 5.132 7.48v-7.48Zm2.609 8.458v-8.458h12.09C19.775 16.211 15.58 20 10.5 20c-.747 0-1.474-.083-2.174-.238Z"/></g><defs><clipPath id="a"><path fill="#fff" d="M.5 0h20v20H.5z"/></clipPath></defs></svg>