<svg xmlns="http://www.w3.org/2000/svg" width="20" height="20" fill="none"><path d="M10 19.266A9.266 9.266 0 1 0 10 .734a9.266 9.266 0 0 0 0 18.532Z" fill="#FFD500" stroke="url(#a)" stroke-width="1.337" stroke-miterlimit="10"/><path d="M9.932 19.683c-5.323 0-8.562-3.776-9.387-7.688C-.382 7.598 1.548 2.127 7.977.503a9.65 9.65 0 0 1 7.324 1.36 9.649 9.649 0 0 1 4.201 6.132c1.105 5.24-2.258 10.401-7.497 11.508a12.44 12.44 0 0 1-2.073.18Zm.07-18.504c-.601 0-1.212.062-1.823.19C2.337 2.847.575 7.819 1.417 11.812c.843 3.992 4.469 7.835 10.421 6.816 4.741-1.001 7.795-5.69 6.792-10.449-.875-4.146-4.549-6.999-8.628-6.999Z" fill="url(#b)"/><path d="M10 18.188a8.188 8.188 0 1 0 0-16.376 8.188 8.188 0 0 0 0 16.376Z" stroke="url(#c)" stroke-width=".318" stroke-miterlimit="10"/><path d="M10 18.652a8.652 8.652 0 1 0 0-17.304 8.652 8.652 0 0 0 0 17.305Z" stroke="#C0922E" stroke-width=".147" stroke-miterlimit="10"/><path d="M10.655 17.538a.111.111 0 0 1-.01-.223 7.411 7.411 0 0 0 1.732-.367.112.112 0 0 1 .072.211 7.647 7.647 0 0 1-1.784.378h-.01ZM8.86 17.48l-.017-.001a7.568 7.568 0 0 1-1.755-.495.112.112 0 0 1 .086-.206c.547.229 1.12.39 1.703.48a.111.111 0 0 1-.017.222Zm5.17-1.096a.111.111 0 0 1-.06-.205 7.321 7.321 0 0 0 1.362-1.13.112.112 0 0 1 .162.153 7.55 7.55 0 0 1-1.403 1.165.11.11 0 0 1-.06.017Zm-8.462-.278a.11.11 0 0 1-.066-.022 7.599 7.599 0 0 1-1.326-1.251.112.112 0 0 1 .172-.143c.378.455.81.863 1.286 1.215a.111.111 0 0 1-.066.2Zm10.913-2.312a.111.111 0 0 1-.097-.167 7.35 7.35 0 0 0 .684-1.632.111.111 0 1 1 .215.06 7.586 7.586 0 0 1-.705 1.683.111.111 0 0 1-.097.056ZM3.29 13.363a.111.111 0 0 1-.1-.063 7.588 7.588 0 0 1-.59-1.725.111.111 0 1 1 .218-.047c.123.582.316 1.145.572 1.675a.111.111 0 0 1-.1.16Zm14.162-3.001h-.004a.112.112 0 0 1-.108-.115 7.4 7.4 0 0 0-.156-1.763l-.005-.025a.112.112 0 0 1 .086-.132.112.112 0 0 1 .132.086l.005.023a7.62 7.62 0 0 1 .161 1.818.112.112 0 0 1-.111.108ZM2.547 9.874h-.003a.112.112 0 0 1-.108-.115 7.522 7.522 0 0 1 .278-1.802.111.111 0 0 1 .214.06 7.3 7.3 0 0 0-.27 1.749.111.111 0 0 1-.11.108Zm14.158-3.025a.111.111 0 0 1-.1-.063 7.3 7.3 0 0 0-.961-1.486.112.112 0 0 1 .171-.143c.39.469.724.984.99 1.532a.111.111 0 0 1-.1.16ZM3.512 6.44a.111.111 0 0 1-.097-.166c.3-.53.665-1.024 1.082-1.468a.112.112 0 0 1 .162.153c-.405.43-.758.91-1.05 1.424a.111.111 0 0 1-.097.057Zm10.909-2.33a.112.112 0 0 1-.066-.022 7.388 7.388 0 0 0-1.54-.871.111.111 0 1 1 .085-.206 7.618 7.618 0 0 1 1.587.897.112.112 0 0 1-.066.201Zm-8.462-.265a.111.111 0 0 1-.06-.205 7.525 7.525 0 0 1 1.64-.795.111.111 0 1 1 .072.21 7.303 7.303 0 0 0-1.592.772.11.11 0 0 1-.06.018Zm5.169-1.104-.017-.002a7.355 7.355 0 0 0-1.77-.053.112.112 0 0 1-.02-.222 7.577 7.577 0 0 1 1.823.055.111.111 0 0 1-.016.222Z" fill="#F4BB00"/><path d="M9.93 19.093v.599m.792-.627.052.596m.736-.693.104.588m.671-.754.155.578m.604-.81.204.561m.532-.86.252.542m.453-.903.3.518m.373-.938.343.49m.29-.969.384.459m.205-.99.423.423m.117-1.003.458.384m.03-1.01.49.343m-.058-1.009.518.299m-.147-1 .542.253m-.232-.983.562.204m-.318-.959.578.155m-.4-.928.589.104m-.479-.89.595.052m-.555-.845h.598m-.626-.792.596-.052m-.693-.736.589-.103m-.755-.672.577-.155m-.809-.604.561-.204m-.86-.531.543-.253m-.904-.454.519-.299m-.939-.373.49-.343m-.969-.29.458-.384m-.989-.205.423-.423M15.9 3.08l.384-.459m-1.01-.029.343-.49m-1.009.058.299-.518m-1 .146.253-.542m-.983.234.204-.563m-.959.318.155-.578m-.928.4.104-.589m-.89.479.052-.595m-.845.555V.309m-.792.626L9.226.339m-.736.693L8.388.444m-.673.754L7.56.62m-.604.81L6.752.87m-.531.859-.253-.542m-.454.903-.299-.518m-.373.938L4.5 2.02m-.29.969-.385-.458m-.205.989-.423-.423M3.08 4.1l-.458-.384m-.031 1.01-.49-.343m.059 1.009-.518-.299m.147 1-.542-.253m.232.983L.917 6.62m.318.958-.578-.155m.4.928-.589-.103m.479.889-.595-.052m.555.845H.309m.626.792-.596.052m.693.736-.589.103m.755.672-.577.155m.809.604-.561.204m.86.531-.542.253m.903.454-.518.298m.938.374-.489.343m.968.29-.458.384m.989.205-.423.423m1.003.117-.384.459m1.01.029-.343.49m1.009-.058-.299.518m1-.146-.253.542m.984-.234-.205.563m.959-.318-.155.578m.928-.4-.103.589m.889-.479-.052.595" opacity=".4" stroke="#fff" stroke-width=".149" stroke-linecap="round" stroke-linejoin="round"/><path d="M3.59 11.654a6.425 6.425 0 0 1 .19-2.173.324.324 0 0 0-.035-.27c-.367-.639-.56-1.335-.648-2.061-.057-.475-.08-.954.025-1.426.116-.523.356-.725.888-.784.595-.066 1.187-.013 1.78.045.242.024.483.061.725.087.047.005.1-.006.144-.026a3.283 3.283 0 0 1 1.976-.266.273.273 0 0 0 .16-.015c.712-.368 1.474-.465 2.262-.437a.546.546 0 0 0 .283-.073c.703-.416 1.405-.833 2.183-1.1.113-.039.228-.071.341-.106h.336c.297.103.494.32.655.578.037.06.074.12.105.184a5.87 5.87 0 0 1 .618 2.944.378.378 0 0 0 .088.274c.276.357.55.716.81 1.085.178.253.25.55.283.855l-.12-.096c.003.074.01.135.01.195-.013.406-.026.813-.044 1.219 0 .02-.046.036-.07.055l-.047-.391c-.02-.182-.03-.365-.064-.544-.08-.421-.122-.858-.398-1.216-.244-.319-.482-.643-.737-.952a.592.592 0 0 1-.148-.412c.003-.379.012-.761-.034-1.136-.074-.607-.241-1.197-.547-1.732-.326-.567-.44-.576-1.006-.37-.666.243-1.281.592-1.88.966-.233.146-.46.244-.74.201-.129-.02-.264-.006-.396-.002a3.562 3.562 0 0 0-1.62.425.421.421 0 0 1-.261.031 2.877 2.877 0 0 0-1.896.256.332.332 0 0 1-.172.043c-.348-.038-.694-.106-1.043-.123a17.079 17.079 0 0 0-1.52-.014c-.34.013-.453.129-.497.465-.04.3-.055.607-.04.908.047.864.259 1.682.72 2.425a.294.294 0 0 1 .034.216c-.168.533-.213 1.081-.251 1.635-.04.6.118 1.143.356 1.677l-.002.052c-.03-.023-.07-.04-.088-.07-.19-.296-.374-.594-.562-.89-.03-.049-.07-.091-.106-.136Z" fill="#6E362E"/><path d="M16.951 10.34v.733c-.056 1.24-.409 2.376-1.194 3.356-.725.904-1.676 1.478-2.757 1.851-1.065.368-2.162.561-3.292.526-3.486-.11-5.471-2.575-6.053-4.809-.029-.112-.043-.229-.065-.343.036.045.076.087.106.135.188.297.373.595.562.89.019.03.058.048.088.071l.03.062.175.309c.01.028.018.057.033.083 1.082 1.944 2.725 3.024 4.95 3.168 1.28.083 2.52-.153 3.707-.637 1.428-.582 2.48-1.547 2.987-3.037a5.156 5.156 0 0 0 .294-1.777l.027-.427v-.032l-.014-.12c.024-.019.07-.036.07-.055.018-.406.031-.813.043-1.22.002-.06-.005-.12-.01-.194l.122.096c.042.22.095.438.125.66.033.235.045.474.066.711Z" fill="#41150F"/><path d="m16.549 10.494-.026.427c-.042.075-.096.145-.122.224-.425 1.313-1.253 2.323-2.377 3.09a6.295 6.295 0 0 1-2.472 1.022c-.367.064-.71.212-1.11.193-.697-.034-1.394-.047-2.082-.19-.024.043-.042.08-.066.112a.438.438 0 0 1-.466.142c-.171-.058-.255-.163-.247-.354.004-.111-.06-.14-.136-.17-.189-.075-.38-.142-.565-.226a6.832 6.832 0 0 1-2.194-1.561c-.034-.037-.09-.055-.135-.082l-.175-.309-.03-.062.002-.052c.37.001.677-.114.855-.466.046.02.094.036.139.058.275.13.557.189.864.127.387-.077.814-.438.863-.834.014-.122.04-.242.061-.363.094.048.187.1.283.143.39.178.748.126 1.063-.168.103-.096.196-.203.293-.305.014.026.03.051.041.079.134.32.379.458.72.44a.575.575 0 0 0 .51-.784c-.018-.046-.027-.095-.04-.143.142.041.282.083.424.122.77.218 1.497-.053 1.944-.724l.022-.002c.164.002.33.024.492.003.581-.075.915-.46.922-1.039.246.161.485.334.739.482.601.35 1.23.626 1.945.627l.047.39.013.121v.032Zm-1.556 1.097h.001c-.1-.208-.417-.35-.67-.298a.604.604 0 0 0-.49.542c0 .23.112.403.31.502.253.127.51.13.736-.07.22-.192.271-.445.144-.645l-.03-.031ZM8.16 15.009c-.138-.129-.26-.129-.403 0l-.026.026-.058.063c0 .04-.016.095.004.119.068.079.138.179.228.211.137.05.264-.032.327-.157.045-.09.044-.2-.072-.262Zm2.932-.458a.526.526 0 0 0-.581-.16c-.217.067-.387.205-.398.463.007.22.123.372.314.462.207.097.416.07.602-.057.19-.13.25-.39.15-.586l-.03-.061-.057-.061Zm.592-1.434c.187 0 .287-.089.288-.257 0-.132-.14-.26-.288-.26-.145-.002-.295.13-.291.253.004.145.135.264.291.264Zm-4.262.5-.004-.07c-.065-.04-.141-.123-.194-.11-.07.018-.124.108-.185.167.067.051.13.134.203.142.054.006.12-.083.18-.13Zm8.194-3.308c.149-.018.213-.095.19-.182-.016-.061-.113-.136-.177-.14-.053-.003-.163.096-.157.137.01.067.092.124.144.185Zm-1.706 3.47c-.08.101-.153.153-.16.213-.014.099.043.17.163.164.093-.004.176-.035.158-.133-.013-.072-.085-.133-.161-.244Z" fill="#FCFCFC"/><path d="M5.202 12.232c-.177.352-.484.467-.854.466-.238-.534-.397-1.078-.356-1.677.038-.554.083-1.102.25-1.635a.294.294 0 0 0-.032-.216c-.463-.743-.674-1.561-.72-2.425a5 5 0 0 1 .039-.908c.044-.336.157-.452.497-.465.506-.02 1.014-.01 1.52.014.349.017.695.085 1.043.123a.332.332 0 0 0 .172-.043 2.877 2.877 0 0 1 1.895-.256c.084.016.19.009.262-.03a3.562 3.562 0 0 1 1.62-.426c.132-.004.267-.018.396.002.28.043.506-.055.74-.2.598-.375 1.213-.724 1.88-.967.565-.206.68-.197 1.005.37.307.535.473 1.125.548 1.732.045.375.037.757.034 1.136a.593.593 0 0 0 .148.412c.255.31.492.634.737.952.275.358.317.795.398 1.216.034.179.044.362.064.544-.716 0-1.344-.277-1.946-.627-.253-.148-.492-.32-.738-.482l-.002-.024-.031-.188c-.2-.601-.99-.934-1.573-.66-.187.089-.374.18-.469.383l-.06.018c-.091.018-.183.043-.276.05-.05.004-.102-.024-.153-.038-.013-.037-.017-.08-.04-.11a2.788 2.788 0 0 0-1.12-.949c-.35-.159-.72-.192-1.095-.192-.224-.177-.467-.159-.713-.065a.56.56 0 0 0-.388.529l-.033.056-.296.326c-.015-.05-.028-.104-.046-.155a.61.61 0 0 0-1.13-.04.6.6 0 0 0 .12.674c.228.236.54.245.866.024l-.001-.003.002.457c-.032.035-.058.077-.096.104-.086.061-.18.113-.268.174-.445.311-.838.673-1.1 1.159a.139.139 0 0 1-.026.003c-.405.024-.74.186-.967.528-.123.185-.196.395-.136.626.04.29.206.497.425.672l.004.031Zm6.13-6.103-.031.093c.02.064.023.14.06.19.087.114.226.11.335.07.067-.025.127-.125.149-.203.031-.112-.015-.21-.145-.241-.127-.053-.245-.054-.341.062l-.027.029Zm3.753.755c-.098-.649-.18-1.272-.289-1.89-.064-.364-.164-.723-.362-1.044-.16-.26-.36-.353-.646-.26-.715.228-1.243.731-1.758 1.244-.106.106-.02.29.136.31.323.043.598.189.86.366a8.974 8.974 0 0 1 1.605 1.42c.078.086.176.155.278.091.077-.048.118-.154.176-.237ZM3.583 6.31h.006c0 .071-.012.145.002.213.102.512.196 1.025.319 1.532.075.31.189.61.298.91.06.165.232.218.338.114a.492.492 0 0 0 .1-.184 9.64 9.64 0 0 1 .817-1.766c.186-.304.386-.596.699-.794.064-.04.13-.147.122-.215-.008-.07-.094-.16-.167-.186-.567-.208-1.143-.399-1.753-.427-.525-.023-.745.156-.78.666-.004.045 0 .091 0 .137Zm7.016.946c0 .336.276.612.612.611a.613.613 0 0 0 .609-.614.602.602 0 0 0-.612-.606.601.601 0 0 0-.609.609Zm-3.31.165c.172-.067.334-.104.465-.188.208-.132.215-.375.039-.544-.243-.235-.729-.246-.981-.023-.181.16-.194.393 0 .534.138.1.313.147.477.221Zm3.091-.644a.775.775 0 0 0 .62-.372c.153-.244.056-.489-.223-.553-.301-.07-.548.049-.753.263-.12.125-.177.28-.106.447.073.173.23.215.462.215Zm4.245.938c.128-.029.205-.079.177-.17-.02-.064-.105-.14-.168-.148-.047-.005-.15.094-.147.143.003.06.089.117.138.175Z" fill="#FDA749"/><path d="M4.55 13.12c.046.028.101.046.136.083a6.832 6.832 0 0 0 2.194 1.561c.184.084.376.15.564.226.077.03.141.059.137.17-.008.19.076.296.247.354a.438.438 0 0 0 .466-.142c.024-.033.041-.07.066-.111.688.142 1.385.155 2.083.19.398.018.741-.13 1.109-.194a6.296 6.296 0 0 0 2.472-1.022c1.124-.767 1.952-1.777 2.377-3.09.026-.08.08-.15.121-.224a5.153 5.153 0 0 1-.294 1.777c-.508 1.49-1.56 2.454-2.987 3.037-1.187.484-2.427.72-3.708.637-2.224-.144-3.867-1.224-4.95-3.168-.014-.026-.022-.055-.033-.083Z" fill="#CDD8DA"/><path d="m4.346 12.75.03.062-.03-.062Zm12.203-2.256v-.032.032ZM7.366 8.48c-.327.222-.639.213-.867-.023a.6.6 0 0 1-.12-.675.61.61 0 0 1 1.129.041c.02.051.032.104.047.155l.296-.326c.117.477.482.645.847.616.304-.024.576-.241.61-.558.027-.241.003-.404-.356-.543l.033-.035c.376 0 .746.033 1.095.192.463.212.828.538 1.121.949.022.03.027.073.04.11-.017-.01-.034-.018-.049-.03-.338-.271-.686-.528-1.098-.68l-.034-.008.016.026c.268.606-.12 1.489-.586 1.797-.151.1-.182.384-.058.518.015.017.042.034.062.033.385-.015.73.155 1.094.235.184.04.386.069.568.036.366-.066.654-.28.878-.58l.023-.002.311.152c-.447.67-1.174.942-1.944.724L10 10.483l-.004.002-.068-.02-.061-.033a.677.677 0 0 0-.778-.07c-.189.106-.288.265-.254.41l-.067.118c-.097.102-.19.209-.293.305-.315.294-.672.346-1.063.168-.096-.044-.189-.095-.283-.143l-.1-.085c-.001-.171-.098-.284-.229-.376a.139.139 0 0 0 .007-.026c.103-.088.198-.074.299.012.084.072.174.14.269.198.423.256.674.219 1-.154.21-.241.406-.496.7-.621l-.09-.485c-.766-.147-1.174-.64-1.364-1.389l-.256.641-.002-.457.015-.008h-.007l-.006.01Zm-.445-.659c.01.114.072.18.183.19.103.008.203-.093.193-.195-.011-.11-.079-.18-.19-.179-.112.002-.174.073-.186.184Z" fill="#6E362E"/><path d="m7.03 11.135.1.085c-.02.12-.047.241-.062.363-.048.396-.476.757-.862.834-.307.062-.589.002-.864-.127-.045-.022-.093-.039-.14-.058l-.003-.03c.021-.051.046-.101.064-.153l.518-1.494.02-.005c.198.02.4.024.592.068.133.031.254.12.38.181-.011.186.138.25.256.336Zm5.026-1.407-.023.002c-.025-.023-.05-.047-.076-.069a1.161 1.161 0 0 1-.41-.695c.014-.005.04-.009.04-.015.023-.227.152-.407.264-.594l.09-.03c.226.016.454.02.678.049.428.053.81.234 1.183.442l.002.024c-.007.58-.341.964-.922 1.04-.161.02-.328-.002-.492-.004.064-.078.12-.165.194-.232.095-.086.13-.176.043-.276-.088-.102-.199-.077-.28.008-.106.109-.195.233-.29.35Zm2.968 1.894c.127.2.075.453-.144.646-.226.198-.483.196-.736.069a.534.534 0 0 1-.31-.502c.024-.027.056-.051.07-.083.146-.305.407-.436.734-.342.126.036.238.12.356.181l.03.03Zm-5.157-1.19.062.033.068.02.003-.002c.013.047.022.096.04.142a.575.575 0 0 1-.51.783c-.341.02-.586-.12-.72-.44-.011-.027-.027-.052-.041-.078l.067-.118c.292-.269.612-.454 1.031-.34Zm1.313 4.241c.1.196.04.456-.15.586a.583.583 0 0 1-.603.057.502.502 0 0 1-.314-.462c.024-.027.056-.051.07-.083.093-.215.26-.322.488-.308.141.01.28.057.42.088l.058.06.03.062Zm.504-1.556c-.156 0-.287-.119-.291-.264-.004-.124.146-.255.29-.254.148 0 .29.13.289.261-.001.168-.1.257-.288.257Zm-3.953 1.918.026-.027h.403c.116.063.117.173.072.263-.063.125-.19.206-.327.157-.09-.032-.16-.132-.228-.211-.02-.024-.004-.078-.005-.119l.059-.063Z" fill="#E7EBED"/><path d="M12.057 9.728c.095-.117.184-.241.29-.35.082-.085.192-.11.28-.008.086.1.052.19-.043.276-.073.067-.13.154-.194.232l-.022.002-.311-.152Z" fill="#59231E"/><path d="M14.994 11.591c-.118-.061-.23-.145-.356-.18-.327-.095-.588.036-.733.34-.015.033-.047.057-.071.084a.604.604 0 0 1 .49-.543c.253-.05.57.091.67.3Z" fill="#CDD8DA"/><path d="M7.422 13.617c-.06.046-.126.135-.18.13-.072-.009-.136-.092-.203-.143.06-.059.114-.15.185-.167.053-.013.129.07.194.11l.004.07Z" fill="#E7EBED"/><path d="M11.092 14.55c-.14-.03-.28-.078-.421-.087-.228-.014-.395.093-.488.308-.014.032-.046.056-.07.083.011-.258.181-.396.398-.464a.525.525 0 0 1 .58.16Z" fill="#CDD8DA"/><path d="M15.616 10.31c-.052-.062-.135-.119-.145-.186-.005-.04.104-.14.158-.137.064.004.161.079.177.14.023.087-.041.164-.19.182Zm-1.706 3.469c.076.11.147.172.16.244.018.098-.064.13-.157.133-.12.005-.177-.065-.164-.164.008-.06.08-.112.16-.213Z" fill="#E7EBED"/><path d="M8.16 15.009h-.403c.143-.129.264-.129.403 0Zm-.429.026-.059.063.06-.063Zm7.293-3.413-.03-.031.03.03Zm-3.845 3.051-.03-.061.03.061Z" fill="#CDD8DA"/><path d="m7.366 8.935.256-.641c.19.748.598 1.242 1.363 1.39l.091.484c-.294.125-.49.38-.7.62-.327.373-.578.411-1 .155a2.065 2.065 0 0 1-.27-.198c-.1-.086-.195-.1-.298-.011-.255-.24-.562-.347-.906-.363.262-.485.655-.847 1.1-1.158.088-.061.182-.113.268-.174.038-.027.064-.069.096-.104Zm4.181.031c.055.28.19.513.41.695.026.022.05.046.076.07-.223.298-.512.513-.878.579-.181.033-.383.004-.567-.036-.364-.08-.709-.25-1.094-.235-.02.001-.047-.016-.062-.033-.124-.134-.094-.417.058-.518.466-.308.854-1.191.585-1.797l.018-.017c.413.15.76.408 1.1.679.014.012.031.02.047.03.051.014.104.042.154.038.093-.007.184-.032.276-.05l-.123.595Z" fill="#FBFBFB"/><path d="M15.085 6.884c-.058.083-.099.19-.176.237-.102.064-.2-.005-.277-.091a8.974 8.974 0 0 0-1.605-1.42c-.263-.177-.538-.323-.86-.365-.156-.02-.243-.205-.137-.31.515-.514 1.044-1.017 1.758-1.246.286-.092.486.002.646.261.198.32.298.68.363 1.044.109.618.19 1.241.288 1.89Zm-.512-.534c-.005-.105-.003-.165-.013-.223-.058-.36-.101-.724-.185-1.079-.069-.288-.184-.566-.286-.847-.038-.105-.123-.145-.233-.103-.467.179-.831.506-1.219.826.754.327 1.333.851 1.936 1.426Z" fill="#70372E"/><path d="M3.584 6.31c0-.047-.003-.093 0-.138.035-.51.256-.69.78-.666.61.028 1.186.219 1.754.426.072.027.158.118.166.187.008.068-.058.175-.122.215-.313.198-.513.49-.698.794a9.638 9.638 0 0 0-.818 1.766.492.492 0 0 1-.1.184c-.106.104-.278.05-.338-.114-.109-.3-.223-.6-.298-.91-.123-.507-.217-1.02-.319-1.532-.013-.068-.002-.142-.002-.213h-.005Zm.805 1.954c.353-.736.682-1.459 1.245-2.058-.464-.141-.904-.284-1.373-.283-.197 0-.253.048-.248.243.007.258.015.52.064.773.088.445.207.884.312 1.325Z" fill="#6E362E"/><path d="M8.952 7.167c.359.14.383.302.356.543-.034.317-.306.534-.61.558-.365.03-.73-.139-.847-.616l.033-.056.063-.05c.284-.2.6-.323.94-.385l.065.006Z" fill="#59231E"/><path d="M10.6 7.255a.6.6 0 0 1 .608-.609c.344 0 .611.265.612.606a.613.613 0 0 1-.61.614.614.614 0 0 1-.61-.611Zm.765-.027c.116 0 .203-.082.206-.18a.184.184 0 0 0-.195-.19c-.116.006-.178.074-.177.187 0 .113.07.172.166.183Z" fill="#6E362E"/><path d="M7.29 7.42c-.165-.074-.34-.121-.477-.22-.195-.142-.182-.376-.001-.535.252-.223.738-.212.98.023.177.17.17.412-.038.544-.131.084-.293.12-.464.188Zm3.09-.644c-.231 0-.389-.042-.462-.215-.07-.168-.013-.322.107-.447.204-.214.451-.332.752-.263.28.064.377.309.223.553a.775.775 0 0 1-.62.372Z" fill="#FBFBFB"/><path d="m5.78 10.555-.517 1.494c-.018.052-.043.102-.064.152-.22-.175-.386-.383-.426-.672.024-.069.052-.137.073-.207.138-.467.474-.692.935-.767Zm8.022-1.737c-.372-.208-.755-.389-1.182-.442-.225-.029-.452-.033-.679-.049.057-.048.106-.11.17-.143a1.26 1.26 0 0 1 .727-.137c.372.043.656.207.858.52.017.026.05.043.075.063l.031.188Z" fill="#EE973A"/><path d="M13.771 8.63c-.025-.02-.058-.037-.075-.063-.202-.313-.486-.477-.858-.52a1.26 1.26 0 0 0-.726.137c-.065.032-.114.095-.17.143l-.09.03-.123-.004c.096-.202.282-.294.47-.382.583-.275 1.373.058 1.572.66ZM5.78 10.555c-.46.075-.796.3-.934.767-.021.07-.049.138-.073.207-.06-.231.013-.44.136-.626.227-.342.562-.504.968-.528l-.075.175-.021.005Z" fill="#D68625"/><path d="M11.7 6.038c.13.031.177.129.145.241-.022.078-.081.178-.148.203-.11.04-.249.044-.335-.07-.038-.05-.041-.126-.06-.19l.03-.093.027-.03.341-.061Z" fill="#EE973A"/><path d="m5.801 10.55.075-.175a.124.124 0 0 0 .026-.004c.344.016.651.123.905.362a.14.14 0 0 1-.006.026l-.028.04c-.126-.062-.247-.15-.38-.18-.193-.045-.394-.049-.592-.07Z" fill="#CDD8DA"/><path d="m8.952 7.167-.065-.006c-.138-.018-.276-.054-.413-.05-.228.008-.477.227-.527.436l-.063.049a.56.56 0 0 1 .388-.53c.246-.093.49-.11.713.066l-.033.035Z" fill="#D68625"/><path d="M14.626 7.714c-.05-.058-.136-.114-.139-.175-.002-.049.1-.148.147-.143.063.007.148.084.168.147.029.093-.048.142-.176.171Z" fill="#EE973A"/><path d="m11.73 8.353.121.004c-.113.187-.242.367-.264.594 0 .006-.026.01-.04.015l.123-.595.06-.018Z" fill="#CDD8DA"/><path d="m11.7 6.038-.34.062c.096-.116.213-.115.34-.062Zm-.368.091-.03.093.03-.093Z" fill="#D68625"/><path d="M9.867 10.432c-.418-.114-.738.071-1.03.34-.035-.145.064-.304.253-.41a.677.677 0 0 1 .777.07Z" fill="#59231E"/><path d="M6.92 7.821c.013-.11.075-.182.186-.184.112-.002.18.068.19.18.01.1-.09.202-.192.193-.11-.01-.173-.075-.183-.189Z" fill="#FBFBFB"/><path d="m6.774 10.8.027-.041c.132.092.228.205.229.376-.119-.087-.268-.15-.256-.336Z" fill="#59231E"/><path d="m9.997 10.485-.068-.02.068.02Z" fill="#FCFCFC"/><path d="m7.366 8.48.006-.01h.007l-.015.008.002.003Z" fill="#FDA749"/><path d="m10.076 7.691-.016-.026.034.009-.018.017Z" fill="#FBFBFB"/><path d="M14.574 6.35c-.604-.575-1.183-1.1-1.937-1.426.388-.32.752-.647 1.219-.826.11-.042.195-.002.233.103.102.28.217.559.286.847.084.355.127.72.185 1.08.01.057.008.117.014.222ZM4.39 8.264c-.106-.441-.226-.88-.313-1.325a4.65 4.65 0 0 1-.064-.773c-.005-.195.05-.243.248-.243.468 0 .91.142 1.373.283-.563.6-.892 1.322-1.245 2.058Z" fill="#FCD68B"/><path d="M7.948 7.547c.05-.209.299-.428.526-.436.137-.004.276.032.414.05a2.314 2.314 0 0 0-.94.386Z" fill="#EE973A"/><path d="M11.365 7.228c-.095-.01-.165-.07-.166-.183 0-.113.061-.18.178-.186a.184.184 0 0 1 .194.188c-.003.099-.09.182-.206.181Z" fill="#FBFBFB"/><defs><linearGradient id="a" x1="16.638" y1="17.394" x2="3.363" y2="2.606" gradientUnits="userSpaceOnUse"><stop stop-color="#CFBA00"/><stop offset=".185" stop-color="#A35600"/><stop offset=".532" stop-color="#EBD73C"/><stop offset=".855" stop-color="#E38100"/><stop offset="1" stop-color="#EAC932"/></linearGradient><linearGradient id="b" x1="-5.579" y1="19.094" x2="15.755" y2="6.65" gradientUnits="userSpaceOnUse"><stop offset=".508" stop-color="#fff" stop-opacity="0"/><stop offset=".678" stop-color="#fff" stop-opacity=".8"/><stop offset=".846" stop-color="#fff" stop-opacity="0"/></linearGradient><linearGradient id="c" x1="15.577" y1="16.212" x2="4.423" y2="3.787" gradientUnits="userSpaceOnUse"><stop stop-color="#CFBA00"/><stop offset=".101" stop-color="#FCD95B"/><stop offset=".227" stop-color="#C28B28"/><stop offset=".385" stop-color="#FFF375"/><stop offset=".569" stop-color="#F29213"/><stop offset=".74" stop-color="#FCDC5E"/><stop offset=".856" stop-color="#F5AB2D"/><stop offset="1" stop-color="#F9E96D"/></linearGradient></defs></svg>