<svg xmlns="http://www.w3.org/2000/svg" width="20" height="20" fill="none"><g clip-path="url(#a)"><ellipse cx="10" cy="10" fill="#E8E2C0" rx="10.045" ry="10"/><ellipse cx="10.001" cy="10.023" fill="#0C0C0C" rx="9.637" ry="9.615"/><path fill="#F1F1EF" d="M13.512 5.775c.4.225.738.438.738.475 0 .162-6.65 3.887-6.825 3.825-.15-.05-.175-.25-.15-.912l.038-.838L9.875 6.85c1.4-.813 2.637-1.475 2.725-1.475.088 0 .5.188.912.4Zm1.851 2.938c-.025 1.387.087 1.262-2.663 2.85C11.325 12.35 10.137 13 10.05 13c-.237 0-1.55-.787-1.55-.938 0-.112 6.55-4.024 6.787-4.05.05-.012.075.313.075.7Zm-.638-3.7c.713.4.763.562.238.862-.313.175-.388.162-1.038-.188-.938-.512-1.025-.625-.588-.862.488-.263.638-.25 1.388.188ZM16.6 8.338c.037.85.025.9-.313 1.125-.687.475-.662.5-.662-.613 0-1 .012-1.05.35-1.25.188-.125.4-.2.463-.175.075.013.137.425.162.913Z"/><path fill="url(#b)" d="M10.912 2.837c.463.263.838.5.838.538 0 .038-1.463.9-3.25 1.938L5.25 7.188l.025 2.737.037 2.75 2.338 1.35 2.338 1.35 3.162-1.825c1.737-1.013 3.2-1.85 3.263-1.888.05-.025.087.425.087 1v1.063l-3.262 1.888-3.25 1.887-2.838-1.637c-1.563-.9-3.05-1.775-3.313-1.938l-.462-.3.025-3.762.038-3.763 3.187-1.85c1.75-1.025 3.25-1.862 3.325-1.862.075-.013.513.2.963.45Z"/></g><defs><linearGradient id="b" x1="3.356" x2="15.238" y1="14.15" y2="4.014" gradientUnits="userSpaceOnUse"><stop stop-color="#D5A050"/><stop offset=".334" stop-color="#C8893D"/><stop offset=".636" stop-color="#F7D372"/><stop offset=".908" stop-color="#D6A94E"/></linearGradient><clipPath id="a"><path fill="#fff" d="M0 0h20v20H0z"/></clipPath></defs></svg>