<svg xmlns="http://www.w3.org/2000/svg" width="20" height="20" fill="none"><path fill="url(#a)" d="M4 10.08 10.05 0v7.53L4 10.08Z"/><path fill="url(#b)" d="M16.09 10.08 10.05 0v7.53l6.04 2.55Z"/><path fill="url(#c)" d="M10.05 7.5 4 10.05l6.05 3.53V7.5Z"/><path fill="url(#d)" d="m10.05 7.5 6.05 2.55-6.05 3.53V7.5Z"/><path fill="url(#e)" d="M4 11.23 10.05 20v-5.24L4 11.23Z"/><path fill="url(#f)" d="M16.09 11.23 10.05 20v-5.24l6.04-3.53Z"/><path stroke="#B0B4E9" stroke-width=".199" d="m6.79 5.55.33 6.01m6.03-6.01-.33 6.01m-2.76-4.02L7.12 11.5m2.82-3.96 2.94 3.96"/><path fill="url(#g)" d="M6.8 6.35c.41 0 .74-.33.74-.74s-.33-.74-.74-.74-.74.33-.74.74c0 .4.33.74.74.74Z"/><path fill="url(#h)" d="M7.32 5.32c-.04.04-.14.01-.22-.06-.09-.08-.13-.18-.09-.22.04-.04.14-.02.23.06s.12.18.08.22Z"/><path fill="url(#i)" d="M7.12 12.25c.41 0 .74-.33.74-.74s-.33-.74-.74-.74-.74.33-.74.74c-.01.4.33.74.74.74Z"/><path fill="url(#j)" d="M7.64 11.22c-.04.04-.14.02-.23-.06s-.13-.18-.09-.22c.04-.04.15-.02.23.06.09.08.13.18.09.22Z"/><path fill="url(#k)" d="M13.17 6.35c.41 0 .74-.33.74-.74s-.33-.74-.74-.74-.74.33-.74.74c0 .4.33.74.74.74Z"/><path fill="url(#l)" d="M13.69 5.32c-.04.04-.14.01-.22-.06-.09-.08-.13-.18-.09-.22.04-.05.14-.02.23.06.08.08.12.18.08.22Z"/><path fill="url(#m)" d="M12.82 12.25c.41 0 .74-.33.74-.74s-.33-.74-.74-.74-.74.33-.74.74c0 .4.33.74.74.74Z"/><path fill="url(#n)" d="M13.35 11.22c-.04.04-.14.02-.23-.06s-.13-.18-.09-.22c.04-.04.14-.02.23.06s.13.18.09.22Z"/><path fill="url(#o)" d="M10.06 8.29c.41 0 .74-.33.74-.74s-.33-.74-.74-.74-.74.33-.74.74c-.01.4.33.74.74.74Z"/><path fill="url(#p)" d="M10.58 7.26c-.04.04-.14.02-.23-.06s-.13-.18-.09-.22c.04-.05.14-.02.23.06s.13.18.09.22Z"/><defs><linearGradient id="k" x1="12.848" x2="13.53" y1="6.231" y2="4.908" gradientUnits="userSpaceOnUse"><stop stop-color="#718BD4"/><stop offset=".012" stop-color="#758ED5"/><stop offset=".058" stop-color="#7790D6"/><stop offset=".099" stop-color="#7A92D7"/><stop offset=".259" stop-color="#889DDD"/><stop offset=".473" stop-color="#9AAAE4"/><stop offset=".695" stop-color="#AEB9EC"/><stop offset="1" stop-color="#C6CBF5"/></linearGradient><linearGradient id="a" x1="3.867" x2="11.929" y1="9.943" y2="1.881" gradientUnits="userSpaceOnUse"><stop offset=".324" stop-color="#AC9CF2"/><stop offset=".326" stop-color="#AC9CF2"/><stop offset=".465" stop-color="#B1B3EA"/><stop offset=".613" stop-color="#B4C3E5"/><stop offset=".78" stop-color="#B6CDE2"/><stop offset="1" stop-color="#B7D0E1"/></linearGradient><linearGradient id="c" x1="6.66" x2="12.74" y1="10.543" y2="10.543" gradientUnits="userSpaceOnUse"><stop offset=".324" stop-color="#D6CDFB"/><stop offset=".428" stop-color="#D9D4FA"/><stop offset=".655" stop-color="#DCDEF9"/><stop offset=".953" stop-color="#DDE1F9"/></linearGradient><linearGradient id="d" x1="13.434" x2="7.354" y1="10.543" y2="10.543" gradientUnits="userSpaceOnUse"><stop offset=".324" stop-color="#ECF2F2"/><stop offset=".365" stop-color="#EEF4F3"/><stop offset=".619" stop-color="#F8FAF6"/><stop offset=".953" stop-color="#FBFCF7"/></linearGradient><linearGradient id="e" x1="4" x2="10.047" y1="15.617" y2="15.617" gradientUnits="userSpaceOnUse"><stop offset=".324" stop-color="#6E89D3"/><stop offset=".326" stop-color="#6E89D3"/><stop offset=".5" stop-color="#6A83E3"/><stop offset=".695" stop-color="#6880ED"/><stop offset=".953" stop-color="#677FF0"/></linearGradient><linearGradient id="f" x1="16.094" x2="10.047" y1="15.617" y2="15.617" gradientUnits="userSpaceOnUse"><stop offset=".324" stop-color="#C4C5FC"/><stop offset=".544" stop-color="#C8CBF8"/><stop offset=".953" stop-color="#CACEF6"/></linearGradient><linearGradient id="g" x1="6.479" x2="7.16" y1="6.231" y2="4.908" gradientUnits="userSpaceOnUse"><stop stop-color="#718BD4"/><stop offset=".012" stop-color="#758ED5"/><stop offset=".058" stop-color="#7790D6"/><stop offset=".099" stop-color="#7A92D7"/><stop offset=".259" stop-color="#889DDD"/><stop offset=".473" stop-color="#9AAAE4"/><stop offset=".695" stop-color="#AEB9EC"/><stop offset="1" stop-color="#C6CBF5"/></linearGradient><linearGradient id="i" x1="6.793" x2="7.475" y1="12.134" y2="10.811" gradientUnits="userSpaceOnUse"><stop stop-color="#718BD4"/><stop offset=".012" stop-color="#758ED5"/><stop offset=".058" stop-color="#7790D6"/><stop offset=".099" stop-color="#7A92D7"/><stop offset=".259" stop-color="#889DDD"/><stop offset=".473" stop-color="#9AAAE4"/><stop offset=".695" stop-color="#AEB9EC"/><stop offset="1" stop-color="#C6CBF5"/></linearGradient><linearGradient id="b" x1="16.227" x2="8.166" y1="9.943" y2="1.881" gradientUnits="userSpaceOnUse"><stop offset=".324" stop-color="#B2DBF5"/><stop offset=".443" stop-color="#C4E3F4"/><stop offset=".598" stop-color="#D4EAF4"/><stop offset=".771" stop-color="#DEEFF3"/><stop offset="1" stop-color="#E1F0F3"/></linearGradient><linearGradient id="m" x1="12.501" x2="13.182" y1="12.134" y2="10.811" gradientUnits="userSpaceOnUse"><stop stop-color="#718BD4"/><stop offset=".012" stop-color="#758ED5"/><stop offset=".058" stop-color="#7790D6"/><stop offset=".099" stop-color="#7A92D7"/><stop offset=".259" stop-color="#889DDD"/><stop offset=".473" stop-color="#9AAAE4"/><stop offset=".695" stop-color="#AEB9EC"/><stop offset="1" stop-color="#C6CBF5"/></linearGradient><linearGradient id="o" x1="9.731" x2="10.413" y1="8.173" y2="6.85" gradientUnits="userSpaceOnUse"><stop stop-color="#718BD4"/><stop offset=".012" stop-color="#758ED5"/><stop offset=".058" stop-color="#7790D6"/><stop offset=".099" stop-color="#7A92D7"/><stop offset=".259" stop-color="#889DDD"/><stop offset=".473" stop-color="#9AAAE4"/><stop offset=".695" stop-color="#AEB9EC"/><stop offset="1" stop-color="#C6CBF5"/></linearGradient><radialGradient id="h" cx="0" cy="0" r="1" gradientTransform="rotate(41.999 -3.127 11.788) scale(.16077)" gradientUnits="userSpaceOnUse"><stop stop-color="#DADCF4"/><stop offset=".008" stop-color="#DADCF4"/><stop offset=".058" stop-color="#DADCF4"/><stop offset=".099" stop-color="#DADCF4"/><stop offset=".473" stop-color="#DADCF4"/><stop offset="1" stop-color="#DADCF4"/></radialGradient><radialGradient id="j" cx="0" cy="0" r="1" gradientTransform="rotate(41.999 -10.664 15.182) scale(.16077)" gradientUnits="userSpaceOnUse"><stop stop-color="#DADCF4"/><stop offset=".008" stop-color="#DADCF4"/><stop offset=".058" stop-color="#DADCF4"/><stop offset=".099" stop-color="#DADCF4"/><stop offset=".473" stop-color="#DADCF4"/><stop offset="1" stop-color="#DADCF4"/></radialGradient><radialGradient id="l" cx="0" cy="0" r="1" gradientTransform="rotate(41.999 .049 20.118) scale(.16077)" gradientUnits="userSpaceOnUse"><stop stop-color="#DADCF4"/><stop offset=".008" stop-color="#DADCF4"/><stop offset=".058" stop-color="#DADCF4"/><stop offset=".099" stop-color="#DADCF4"/><stop offset=".473" stop-color="#DADCF4"/><stop offset="1" stop-color="#DADCF4"/></radialGradient><radialGradient id="n" cx="0" cy="0" r="1" gradientTransform="rotate(42.002 -7.812 22.876) scale(.16077)" gradientUnits="userSpaceOnUse"><stop stop-color="#DADCF4"/><stop offset=".008" stop-color="#DADCF4"/><stop offset=".058" stop-color="#DADCF4"/><stop offset=".099" stop-color="#DADCF4"/><stop offset=".473" stop-color="#DADCF4"/><stop offset="1" stop-color="#DADCF4"/></radialGradient><radialGradient id="p" cx="0" cy="0" r="1" gradientTransform="rotate(42.002 -4.038 17.287) scale(.16077)" gradientUnits="userSpaceOnUse"><stop stop-color="#DADCF4"/><stop offset=".008" stop-color="#DADCF4"/><stop offset=".058" stop-color="#DADCF4"/><stop offset=".099" stop-color="#DADCF4"/><stop offset=".473" stop-color="#DADCF4"/><stop offset="1" stop-color="#DADCF4"/></radialGradient></defs></svg>