<svg xmlns="http://www.w3.org/2000/svg" width="20" height="20" fill="none"><path fill="#E68F7B" d="m10 0 6.079 10.046-6.057-2.589L9.999 0Z"/><path fill="#F8EC7C" d="M3.936 10.046 10 0l.023 7.457-6.086 2.59Z"/><path fill="#6EB87D" d="m9.999 13.75-6.063-3.704 6.086-2.589-.023 6.293Z"/><path fill="#946BA7" d="m16.079 10.046-6.057-2.589-.023 6.293 6.08-3.704Z"/><path fill="#697CB9" d="m10 15.025 6.079-3.604-6.08 8.567v-4.963Z"/><path fill="#4FADD0" d="m9.999 15.025-6.063-3.604L10 19.989v-4.963Z"/><circle cx="15" cy="15" r="5" fill="#F2F2F2"/><path fill="#000" fill-rule="evenodd" d="m19 15.022-2.27-2.262v1.656l-2.252 1.659 2.253.002v1.207L19 15.022Zm-8-.001 2.27 2.262V15.64l2.252-1.672-2.253-.002V12.76L11 15.021Z" clip-rule="evenodd"/></svg>