<svg xmlns="http://www.w3.org/2000/svg" width="21" height="20" fill="none"><g clip-path="url(#a)"><path fill="#0064DC" d="M10.882 20c5.523 0 10-4.477 10-10s-4.477-10-10-10-10 4.477-10 10 4.477 10 10 10Z"/><path fill="#FFDA44" d="m10.882 3.913.324.996h1.048l-.848.616.324.997-.848-.616-.847.616.323-.997-.847-.616h1.048l.323-.996ZM6.578 5.696l.934.475.74-.74-.163 1.034.933.476-1.035.164-.164 1.035-.475-.934-1.035.164.74-.74-.475-.934ZM4.795 10l.997-.324V8.628l.616.848.996-.324-.616.848.616.848-.996-.324-.616.848v-1.048L4.795 10Zm1.783 4.304.476-.934-.741-.74 1.035.164.475-.934.164 1.035 1.035.164-.933.476.164 1.034-.741-.74-.934.475Zm4.304 1.783-.323-.996H9.51l.848-.616-.324-.997.847.616.848-.616-.324.997.848.616h-1.048l-.324.996Zm4.305-1.783-.934-.476-.74.741.163-1.035-.934-.475 1.035-.164.164-1.035.476.934 1.035-.164-.741.74.476.934ZM16.97 10l-.997.324v1.047l-.616-.847-.996.324.615-.848-.615-.848.996.324.616-.848v1.048l.996.324Zm-1.783-4.304-.476.933.74.741-1.034-.164-.476.934-.164-1.035-1.034-.164.933-.476-.164-1.034.741.74.934-.475Z"/></g><defs><clipPath id="a"><path fill="#fff" d="M.882 0h20v20h-20z"/></clipPath></defs></svg>