<svg width="20" height="20" fill="none" xmlns="http://www.w3.org/2000/svg"><g clip-path="url(#a)"><path d="M10 20c5.523 0 10-4.477 10-10S15.523 0 10 0 0 4.477 0 10s4.477 10 10 10Z" fill="url(#b)"/><path d="M8.393 3.928c-2.266-.464-2.743.656-2.434 1.944.22.918.857 1.995 1.206 2.541H6.007a.655.655 0 0 0 0 1.31h5.065c.119 0 .215-.097.215-.217V8.63a.216.216 0 0 0-.216-.216H8.226c-.333-.579-.872-1.703-.308-2.118.773-.568 5.447 3.144 6.568 1.174 1.12-1.97-3.825-3.078-6.092-3.541ZM14.485 12.53c-1.12-1.97-5.795 1.743-6.568 1.175-.546-.402-.058-1.47.277-2.063h2.877c.12 0 .216-.096.216-.215v-.878a.216.216 0 0 0-.216-.216H6.008a.655.655 0 1 0 0 1.31H7.13c-.356.561-.958 1.6-1.17 2.485-.31 1.287.167 2.408 2.433 1.944 2.267-.463 7.212-1.57 6.092-3.541Z" fill="#fff"/></g><defs><linearGradient id="b" x1="0" y1="10" x2="20" y2="10" gradientUnits="userSpaceOnUse"><stop stop-color="#869CFD"/><stop offset="1" stop-color="#B599FF"/></linearGradient><clipPath id="a"><path fill="#fff" d="M0 0h20v20H0z"/></clipPath></defs></svg>