<svg xmlns="http://www.w3.org/2000/svg" width="21" height="20" fill="none"><g clip-path="url(#a)"><path fill="#F0F0F0" d="M10.882 20c5.523 0 10-4.477 10-10s-4.477-10-10-10-10 4.477-10 10 4.477 10 10 10Z"/><path fill="#0052B4" d="M2.95 3.912a9.963 9.963 0 0 0-1.723 3.48h5.202l-3.48-3.48Zm17.588 3.479a9.962 9.962 0 0 0-1.723-3.48l-3.48 3.48h5.203ZM1.227 12.609a9.964 9.964 0 0 0 1.722 3.48l3.48-3.48H1.227ZM16.97 2.067A9.964 9.964 0 0 0 13.49.345v5.202l3.48-3.48ZM4.794 17.933a9.966 9.966 0 0 0 3.48 1.723v-5.203l-3.48 3.48ZM8.274.345a9.965 9.965 0 0 0-3.48 1.722l3.48 3.48V.345Zm5.216 19.311a9.966 9.966 0 0 0 3.48-1.723l-3.48-3.48v5.203Zm1.845-7.047 3.48 3.48a9.963 9.963 0 0 0 1.723-3.48h-5.203Z"/><path fill="#D80027" d="M20.798 8.696h-8.611V.085a10.1 10.1 0 0 0-2.609 0v8.61H.967a10.1 10.1 0 0 0 0 2.61h8.61v8.61a10.114 10.114 0 0 0 2.61 0v-8.61h8.61a10.115 10.115 0 0 0 0-2.61Z"/><path fill="#D80027" d="m13.491 12.609 4.462 4.462c.206-.205.402-.42.588-.642l-3.82-3.82h-1.23Zm-5.217 0v1.23l-3.82 3.82a10.032 10.032 0 0 1-.643-.588l4.463-4.462Zm0-5.218L3.81 2.93c-.205.205-.4.42-.587.642l3.82 3.82h1.23Zm9.679-4.462L13.491 7.39V6.16l3.82-3.82c.223.187.437.383.642.588Z"/></g><defs><clipPath id="a"><path fill="#fff" d="M.882 0h20v20h-20z"/></clipPath></defs></svg>