<svg width="20" height="20" fill="none" xmlns="http://www.w3.org/2000/svg"><circle cx="10" cy="10" r="10" fill="url(#a)"/><path d="M17.126 5.897a.364.364 0 0 0-.506-.13L7.226 11.51a3.208 3.208 0 0 1-.375-1.51 3.203 3.203 0 0 1 3.194-3.213 3.17 3.17 0 0 1 2 .709l-1.999 1.38L15.24 5.86a.236.236 0 0 0 .086-.32.233.233 0 0 0-.335-.077l-1.272.878A5.14 5.14 0 0 0 10.045 4.8c-2.856 0-5.172 2.328-5.172 5.2a5.2 5.2 0 0 0 .661 2.545L2.9 14.155l2.705-1.488a5.163 5.163 0 0 0 4.44 2.533c2.856 0 5.171-2.328 5.171-5.2v-.621c0-.486.196-1.109.892-1.484a.121.121 0 0 0 .047-.166.12.12 0 0 0-.163-.044l-6.167 3.58c.689-.294 1.215-.473 1.912-.614 1.453-.293 1.49.403.93 1.189-.376.526-1.225 1.37-2.621 1.37a3.188 3.188 0 0 1-2.704-1.5l9.643-5.308a.368.368 0 0 0 .14-.505Z" fill="#fff"/><circle cx="15" cy="15" r="5" fill="#131419"/><path fill-rule="evenodd" clip-rule="evenodd" d="m13.41 14.348 1.59-1.59 1.59 1.59.925-.924L15 10.909l-2.515 2.515.925.924Zm-1.577-.27-.924.924.924.923.923-.923-.923-.924ZM15 17.244l-1.59-1.59-.925.925L15 19.093l2.515-2.514-.925-.925-1.59 1.59Zm3.167-3.166-.923.924.923.923.924-.923-.924-.924ZM15 14.064l.938.937-.938.938-.937-.938.162-.168.084-.077.691-.692Z" fill="#F0B90B"/><defs><linearGradient id="a" x1="18" y1="4.05" x2="2.9" y2="17.05" gradientUnits="userSpaceOnUse"><stop offset=".498"/><stop offset="1" stop-color="#BB602E"/></linearGradient></defs></svg>