<svg xmlns="http://www.w3.org/2000/svg" width="16" height="11" fill="none"><g clip-path="url(#a)"><path fill="#fff" d="M16 0H0v11h16V0Z"/><path fill="#DE2910" fill-rule="evenodd" d="M6.933 0v4.4H0v2.2h6.933V11h2.134V6.6H16V4.4H9.067V0H6.933Z" clip-rule="evenodd"/><path fill="#DE2910" fill-rule="evenodd" d="M11.527 1.795c.249.048.503.08.763.093a5.846 5.846 0 0 0-.09-.786 2.842 2.842 0 0 0 .727 0 5.845 5.845 0 0 0-.09.786c.259-.013.513-.045.762-.093a3.12 3.12 0 0 0 0 .75 5.348 5.348 0 0 0-.762-.093c.012.267.043.53.09.786a2.84 2.84 0 0 0-.728 0c.047-.257.078-.519.09-.786-.259.012-.513.044-.762.093a3.099 3.099 0 0 0 0-.75ZM11.527 8.455c.249.048.503.08.763.093a5.846 5.846 0 0 0-.09-.786 2.842 2.842 0 0 0 .727 0 5.845 5.845 0 0 0-.09.786c.259-.013.513-.045.762-.093a3.12 3.12 0 0 0 0 .75 5.348 5.348 0 0 0-.762-.093c.012.267.043.53.09.786a2.84 2.84 0 0 0-.728 0c.047-.256.078-.519.09-.786-.259.013-.513.045-.762.093a3.099 3.099 0 0 0 0-.75ZM2.401 8.455c.249.048.503.08.763.093a5.852 5.852 0 0 0-.09-.786 2.84 2.84 0 0 0 .727 0 5.852 5.852 0 0 0-.09.786 5.35 5.35 0 0 0 .762-.093 3.113 3.113 0 0 0 0 .75 5.35 5.35 0 0 0-.762-.093c.012.267.043.53.09.786a2.84 2.84 0 0 0-.728 0c.047-.256.078-.519.09-.786a5.35 5.35 0 0 0-.762.093 3.113 3.113 0 0 0 0-.75ZM2.402 1.795c.248.048.503.08.762.093a5.85 5.85 0 0 0-.09-.786 2.84 2.84 0 0 0 .727 0 5.85 5.85 0 0 0-.09.786 5.35 5.35 0 0 0 .762-.093 3.11 3.11 0 0 0 0 .75 5.35 5.35 0 0 0-.762-.093c.012.267.043.53.09.786a2.84 2.84 0 0 0-.727 0 5.85 5.85 0 0 0 .09-.786 5.35 5.35 0 0 0-.762.093 3.113 3.113 0 0 0 0-.75Z" clip-rule="evenodd"/></g><path stroke="#000" stroke-width=".5" d="M.25.25h15.5v10.5H.25z"/><defs><clipPath id="a"><path fill="#fff" d="M0 0h16v11H0z"/></clipPath></defs></svg>