<svg width="21" height="20" fill="none" xmlns="http://www.w3.org/2000/svg"><circle cx="10" cy="10" r="10" fill="url(#a)"/><path d="M17.126 5.897a.364.364 0 0 0-.506-.13L7.226 11.51a3.208 3.208 0 0 1-.375-1.51 3.203 3.203 0 0 1 3.194-3.213 3.17 3.17 0 0 1 2 .709l-1.999 1.38L15.24 5.86a.236.236 0 0 0 .086-.32.233.233 0 0 0-.335-.077l-1.272.878A5.14 5.14 0 0 0 10.045 4.8c-2.856 0-5.172 2.328-5.172 5.2a5.2 5.2 0 0 0 .661 2.545L2.9 14.155l2.705-1.488a5.163 5.163 0 0 0 4.44 2.533c2.856 0 5.171-2.328 5.171-5.2v-.621c0-.486.196-1.109.892-1.484a.121.121 0 0 0 .047-.166.12.12 0 0 0-.163-.044l-6.167 3.58c.689-.294 1.215-.473 1.912-.614 1.453-.293 1.49.403.93 1.189-.376.526-1.225 1.37-2.621 1.37a3.188 3.188 0 0 1-2.704-1.5l9.643-5.308a.368.368 0 0 0 .14-.505Z" fill="#fff"/><path d="m17.031 10 3.04 5.023-3.029-1.294-.01-3.729Z" fill="#E68F7B"/><path d="M14 15.023 17.031 10l.012 3.729L14 15.023Z" fill="#F8EC7C"/><path d="M17.031 16.875 14 15.023l3.043-1.294-.012 3.146Z" fill="#6EB87D"/><path d="m20.071 15.023-3.029-1.294-.01 3.146 3.039-1.852Z" fill="#946BA7"/><path d="m17.031 17.513 3.04-1.802-3.04 4.283v-2.481Z" fill="#697CB9"/><path d="M17.031 17.513 14 15.71l3.031 4.283v-2.481Z" fill="#4FADD0"/><defs><linearGradient id="a" x1="18" y1="4.05" x2="2.9" y2="17.05" gradientUnits="userSpaceOnUse"><stop offset=".498"/><stop offset="1" stop-color="#BB602E"/></linearGradient></defs></svg>