<svg xmlns="http://www.w3.org/2000/svg" width="20" height="20" fill="none"><path fill-rule="evenodd" clip-rule="evenodd" d="M9.21.044c0 .025-.146.044-.35.044-.205 0-.351.018-.351.044 0 .024-.099.043-.22.043-.12 0-.219.02-.219.044 0 .024-.099.044-.22.044-.12 0-.218.02-.218.044 0 .024-.08.044-.176.044-.096 0-.175.02-.175.044 0 .024-.08.044-.176.044-.096 0-.175.02-.175.043 0 .025-.04.044-.088.044-.048 0-.088.02-.088.044 0 .024-.059.044-.131.044-.073 0-.132.02-.132.044 0 .024-.04.044-.087.044-.049 0-.088.02-.088.044 0 .024-.06.043-.132.043-.072 0-.131.01-.131.023 0 .012.246.269.547.57.494.493.564.548.702.548.085 0 .154-.02.154-.044 0-.024.06-.044.132-.044.072 0 .131-.02.131-.044 0-.024.08-.044.176-.044.096 0 .175-.02.175-.043 0-.025.099-.044.22-.044.12 0 .219-.02.219-.044 0-.026.146-.044.35-.044.205 0 .352-.018.352-.044 0-.028.292-.044.789-.044.497 0 .79.016.79.044 0 .026.146.044.35.044.205 0 .351.018.351.044 0 .024.099.044.22.044.12 0 .219.02.219.044 0 .024.079.043.175.043.097 0 .176.02.176.044 0 .024.059.044.131.044.073 0 .132.02.132.044 0 .024.06.044.131.044.073 0 .132.02.132.044 0 .024.06.044.132.044.072 0 .131.02.131.043 0 .025.06.044.132.044.072 0 .131.02.131.044 0 .024.04.044.088.044.048 0 .088.02.088.044 0 .024.04.044.088.044.048 0 .087.02.087.044 0 .024.04.043.088.043.048 0 .088.02.088.044 0 .024.04.044.087.044.049 0 .088.02.088.044 0 .024.04.044.088.044.172 0 .08.139-.416.636-.375.375-.533.504-.614.504-.061 0-.11-.02-.11-.044 0-.024-.04-.044-.088-.044-.048 0-.088-.02-.088-.043 0-.024-.04-.044-.088-.044-.048 0-.087-.02-.087-.044 0-.024-.06-.044-.132-.044-.072 0-.132-.02-.132-.044 0-.024-.059-.044-.131-.044-.072 0-.132-.02-.132-.044 0-.024-.059-.043-.131-.043-.073 0-.132-.02-.132-.044 0-.024-.079-.044-.175-.044-.097 0-.176-.02-.176-.044 0-.024-.117-.044-.263-.044-.146 0-.263-.02-.263-.044 0-.028-.351-.044-.965-.044s-.965.016-.965.044c0 .025-.117.044-.263.044-.146 0-.263.02-.263.044 0 .024-.08.044-.176.044-.096 0-.175.02-.175.044 0 .024-.06.044-.132.044-.072 0-.131.02-.131.043 0 .025-.06.044-.132.044-.072 0-.131.02-.131.044 0 .024-.06.044-.132.044-.072 0-.132.02-.132.044 0 .024-.04.044-.087.044-.049 0-.088.02-.088.044 0 .024-.04.043-.088.043-.048 0-.087.02-.087.044 0 .024-.04.044-.088.044-.048 0-.088.02-.088.044 0 .024-.04.044-.088.044-.048 0-.087.02-.087.044 0 .024-.04.044-.088.044-.048 0-.088.02-.088.044 0 .024-.035.043-.078.043s-.106.04-.141.088c-.035.048-.094.088-.132.088-.037 0-.096.04-.131.088-.035.048-.09.087-.122.087-.069 0-.273.196-.273.262 0 .025.207.253.46.506.482.483.601.544.724.373.035-.049.094-.088.132-.088.037 0 .097-.04.131-.088.035-.048.099-.088.142-.088.043 0 .078-.02.078-.043 0-.025.04-.044.087-.044.049 0 .088-.02.088-.044 0-.024.04-.044.088-.044.048 0 .088-.02.088-.044 0-.024.04-.044.087-.044.049 0 .088-.02.088-.044 0-.024.06-.043.132-.043.072 0 .131-.02.131-.044 0-.024.06-.044.132-.044.072 0 .131-.02.131-.044 0-.024.08-.044.176-.044.096 0 .175-.02.175-.044 0-.024.08-.044.176-.044.096 0 .175-.02.175-.043 0-.026.16-.044.395-.044.234 0 .395-.018.395-.044 0-.025.117-.044.263-.044.146 0 .263.02.263.044 0 .025.131.044.307.044.175 0 .307.018.307.044 0 .024.079.043.175.043.097 0 .176.02.176.044 0 .024.079.044.175.044.097 0 .176.02.176.044 0 .024.059.044.131.044.073 0 .132.02.132.044 0 .024.059.044.131.044.073 0 .132.02.132.043 0 .025.04.044.088.044.048 0 .087.02.087.044 0 .024.04.044.088.044.048 0 .088.02.088.044 0 .024.04.044.088.044.048 0 .087.02.087.044 0 .024.035.043.078.043s.107.04.142.088c.034.048.094.088.131.088.038 0 .097.04.132.088.141.196.207.144 1.776-1.426.832-.832 1.513-1.534 1.513-1.56 0-.062-.112-.172-.175-.172-.028 0-.127-.08-.22-.176-.092-.096-.195-.175-.228-.175-.032 0-.088-.04-.122-.088-.035-.048-.094-.088-.132-.088-.038 0-.097-.04-.132-.087-.034-.049-.093-.088-.131-.088-.038 0-.097-.04-.132-.088-.034-.048-.098-.087-.141-.087-.043 0-.078-.02-.078-.044 0-.024-.04-.044-.088-.044-.048 0-.087-.02-.087-.044 0-.024-.04-.044-.088-.044-.048 0-.088-.02-.088-.044 0-.024-.04-.044-.088-.044-.048 0-.087-.02-.087-.044 0-.024-.04-.043-.088-.043-.048 0-.088-.02-.088-.044 0-.024-.04-.044-.088-.044-.048 0-.087-.02-.087-.044 0-.024-.04-.044-.088-.044-.048 0-.088-.02-.088-.044 0-.024-.059-.044-.131-.044-.073 0-.132-.02-.132-.043 0-.025-.04-.044-.087-.044-.049 0-.088-.02-.088-.044 0-.024-.06-.044-.132-.044-.072 0-.131-.02-.131-.044 0-.024-.04-.044-.088-.044-.048 0-.088-.02-.088-.044 0-.024-.079-.043-.175-.043-.097 0-.176-.02-.176-.044 0-.024-.079-.044-.175-.044-.097 0-.176-.02-.176-.044 0-.024-.098-.044-.219-.044-.12 0-.22-.02-.22-.044 0-.024-.098-.044-.219-.044-.12 0-.219-.02-.219-.043 0-.026-.146-.044-.35-.044-.205 0-.351-.019-.351-.044C10.79.016 10.497 0 10 0c-.497 0-.79.016-.79.044ZM4.519 1.667c-.035.048-.094.087-.132.087-.038 0-.097.04-.132.088-.034.048-.09.088-.123.088-.034 0-.116.059-.184.131-.067.073-.145.132-.173.132-.063 0-.265.2-.265.262 0 .025.207.253.46.506.482.482.6.543.724.372.035-.048.09-.087.124-.087.033 0 .115-.06.183-.132.068-.072.15-.132.183-.132.034 0 .09-.039.124-.087.035-.049.09-.088.121-.088.032 0 .107-.049.167-.109l.11-.109-.506-.505c-.278-.278-.53-.505-.562-.505-.03 0-.085.04-.12.088ZM2.292 3.62c-.055.058-.099.127-.099.155 0 .027-.06.105-.132.172-.072.068-.131.147-.131.176 0 .029-.06.108-.132.175-.072.068-.131.155-.131.193 0 .039-.02.07-.044.07-.024 0-.044.036-.044.078 0 .043-.04.107-.088.142-.048.034-.087.098-.087.141 0 .043-.02.078-.044.078-.024 0-.044.035-.044.078s-.04.107-.088.141a.242.242 0 0 0-.088.176c0 .062-.039.14-.087.175-.049.035-.088.099-.088.141 0 .043-.02.078-.044.078-.024 0-.044.06-.044.132 0 .072-.02.132-.044.132-.024 0-.044.04-.044.087 0 .049-.02.088-.043.088-.025 0-.044.06-.044.132 0 .072-.02.131-.044.131-.024 0-.044.04-.044.088 0 .048-.02.088-.044.088-.024 0-.044.059-.044.131 0 .073-.02.132-.044.132-.024 0-.043.059-.043.131 0 .073-.02.132-.044.132-.024 0-.044.099-.044.22 0 .12-.02.219-.044.219-.024 0-.044.079-.044.175 0 .097-.02.175-.044.175-.024 0-.044.1-.044.22s-.02.219-.043.219c-.025 0-.044.117-.044.263 0 .146-.02.263-.044.263C.016 8.947 0 9.327 0 10c0 .672.016 1.053.044 1.053.025 0 .044.131.044.307 0 .175.019.307.044.307.024 0 .043.098.043.219 0 .12.02.22.044.22.024 0 .044.078.044.175 0 .096.02.175.044.175.024 0 .044.08.044.176 0 .096.02.175.044.175.024 0 .044.079.044.175 0 .097.02.176.043.176.025 0 .044.04.044.088 0 .048.02.087.044.087.024 0 .044.06.044.132 0 .072.02.132.044.132.024 0 .044.039.044.087 0 .049.02.088.044.088.024 0 .043.04.043.088 0 .048.01.087.023.087.012 0 .269-.246.57-.547.494-.494.632-.68.504-.68-.024 0-.044-.06-.044-.132 0-.073-.02-.132-.044-.132-.024 0-.044-.079-.044-.175 0-.097-.02-.176-.043-.176-.025 0-.044-.098-.044-.219 0-.12-.02-.22-.044-.22-.026 0-.044-.146-.044-.35 0-.205-.018-.351-.044-.351-.028 0-.044-.351-.044-.965s.016-.965.044-.965c.025 0 .044-.131.044-.307 0-.175.019-.307.044-.307.024 0 .044-.099.044-.22 0-.12.02-.219.044-.219.024 0 .043-.078.043-.175 0-.096.02-.175.044-.175.024 0 .044-.06.044-.132 0-.072.02-.132.044-.132.024 0 .044-.059.044-.131 0-.073.02-.132.044-.132.024 0 .044-.04.044-.087 0-.049.02-.088.043-.088.025 0 .044-.06.044-.132 0-.072.02-.131.044-.131.024 0 .044-.04.044-.088 0-.048.02-.088.044-.088.024 0 .044-.04.044-.087 0-.049.02-.088.044-.088.024 0 .043-.04.043-.088 0-.048.02-.088.044-.088.024 0 .044-.04.044-.087 0-.049.02-.088.044-.088.024 0 .044-.04.044-.088 0-.172.139-.08.636.416.455.455.586.637.46.637-.024 0-.044.04-.044.088 0 .048-.02.087-.043.087-.024 0-.044.06-.044.132 0 .072-.02.131-.044.131-.024 0-.044.06-.044.132 0 .072-.02.132-.044.132-.024 0-.044.059-.044.131 0 .073-.02.132-.044.132-.024 0-.043.059-.043.131 0 .073-.02.132-.044.132-.024 0-.044.06-.044.131 0 .073-.02.132-.044.132-.024 0-.044.117-.044.263 0 .146-.02.263-.044.263-.028 0-.044.395-.044 1.097s.016 1.096.044 1.096c.024 0 .044.099.044.22 0 .12.02.219.044.219.024 0 .044.079.044.175 0 .097.02.176.044.176.024 0 .044.059.044.131 0 .073.02.132.043.132.025 0 .044.06.044.132 0 .072.02.131.044.131.024 0 .044.06.044.132 0 .072.02.131.044.131.024 0 .044.04.044.088 0 .048.02.088.044.088.024 0 .043.04.043.088 0 .048.02.087.044.087.024 0 .044.04.044.088 0 .048.02.088.044.088.024 0 .044.04.044.087 0 .049.02.088.044.088.024 0 .044.04.044.088 0 .048.02.088.044.088.024 0 .043.031.043.07 0 .038.06.125.132.193.072.067.132.15.132.183s.039.089.087.124c.048.034.088.098.088.14 0 .055.034.079.11.079.081 0 .23-.12.57-.46.416-.416.54-.593.416-.593-.024 0-.043-.035-.043-.078s-.04-.106-.088-.141c-.048-.035-.088-.094-.088-.132 0-.037-.04-.096-.088-.131-.048-.035-.087-.099-.087-.141 0-.043-.02-.078-.044-.078-.024 0-.044-.04-.044-.088 0-.048-.02-.088-.044-.088-.024 0-.044-.04-.044-.088 0-.048-.02-.087-.044-.087-.024 0-.043-.06-.043-.132 0-.072-.02-.131-.044-.131-.024 0-.044-.06-.044-.132 0-.072-.02-.132-.044-.132-.024 0-.044-.059-.044-.131 0-.073-.02-.132-.044-.132-.024 0-.044-.079-.044-.175 0-.097-.02-.176-.043-.176-.025 0-.044-.117-.044-.263 0-.146-.02-.263-.044-.263-.027 0-.044-.234-.044-.614s.017-.614.044-.614c.024 0 .044-.099.044-.22 0-.12.02-.219.044-.219.024 0 .043-.079.043-.175 0-.097.02-.176.044-.176.024 0 .044-.078.044-.175 0-.096.02-.175.044-.175.024 0 .044-.06.044-.132 0-.072.02-.132.044-.132.024 0 .044-.039.044-.087 0-.049.02-.088.043-.088.025 0 .044-.04.044-.088 0-.048.02-.087.044-.087.024 0 .044-.04.044-.088 0-.048.02-.088.044-.088.024 0 .044-.04.044-.088 0-.048.02-.087.044-.087.024 0 .043-.04.043-.088 0-.048.02-.088.044-.088.024 0 .044-.031.044-.07 0-.038.06-.125.132-.193.072-.067.131-.145.131-.171 0-.04-3.092-3.167-3.125-3.16a1.07 1.07 0 0 0-.11.109Zm14.78.396c-.271.275-.493.526-.493.557 0 .031.04.085.088.12.048.035.087.09.087.124 0 .033.06.115.132.183.072.068.131.15.131.183 0 .034.04.09.088.124.049.035.088.09.088.121 0 .032.049.107.109.167l.109.11.505-.506c.456-.456.587-.638.461-.638-.024 0-.044-.031-.044-.07 0-.038-.059-.125-.131-.193-.073-.067-.132-.146-.132-.175 0-.03-.059-.108-.131-.176-.073-.067-.132-.145-.132-.173 0-.045-.197-.27-.228-.262a19.74 19.74 0 0 0-.507.504Zm-2.105 2.105c-.271.276-.493.523-.493.55 0 .026.059.104.131.171.073.068.132.155.132.193 0 .039.02.07.044.07.024 0 .044.04.044.088 0 .048.02.088.043.088.024 0 .044.04.044.087 0 .049.02.088.044.088.024 0 .044.04.044.088 0 .048.02.088.044.088.024 0 .044.04.044.087 0 .049.02.088.044.088.024 0 .043.04.043.088 0 .048.02.087.044.087.024 0 .044.06.044.132 0 .072.02.132.044.132.024 0 .044.079.044.175 0 .097.02.175.044.175.024 0 .044.08.044.176 0 .096.02.175.043.175.025 0 .044.117.044.264 0 .146.02.263.044.263.027 0 .044.219.044.57 0 .35-.017.57-.044.57-.024 0-.044.117-.044.263 0 .146-.02.263-.043.263-.025 0-.044.08-.044.176 0 .096-.02.175-.044.175-.024 0-.044.06-.044.132 0 .072-.02.131-.044.131-.024 0-.044.06-.044.132 0 .072-.02.132-.044.132-.024 0-.044.059-.044.131 0 .073-.02.132-.043.132-.024 0-.044.04-.044.087 0 .049-.02.088-.044.088-.024 0-.044.04-.044.088 0 .048-.02.088-.044.088-.024 0-.044.035-.044.078 0 .042-.04.106-.087.14-.049.036-.088.095-.088.133 0 .037-.04.096-.088.131-.048.035-.088.098-.088.141 0 .043-.02.078-.043.078-.025 0-.044.03-.044.066 0 .073 2.998 3.092 3.07 3.092.062 0 .439-.38.439-.442 0-.027.059-.104.131-.172.072-.067.132-.154.132-.193 0-.038.02-.07.044-.07.024 0 .043-.035.043-.078s.04-.106.088-.141c.048-.035.088-.094.088-.132 0-.037.04-.097.087-.131.049-.035.088-.099.088-.142 0-.043.02-.078.044-.078.024 0 .044-.04.044-.087 0-.049.02-.088.044-.088.024 0 .044-.04.044-.088 0-.048.02-.088.044-.088.024 0 .043-.04.043-.087 0-.049.02-.088.044-.088.024 0 .044-.04.044-.088 0-.048.02-.088.044-.088.024 0 .044-.039.044-.087 0-.048.02-.088.044-.088.024 0 .043-.06.043-.132 0-.072.02-.131.044-.131.024 0 .044-.04.044-.088 0-.048.02-.087.044-.087.024 0 .044-.06.044-.132 0-.072.02-.132.044-.132.024 0 .044-.04.044-.087 0-.049.02-.088.043-.088.025 0 .044-.08.044-.175 0-.097.02-.176.044-.176.024 0 .044-.079.044-.175 0-.097.02-.176.044-.176.024 0 .044-.079.044-.175 0-.097.02-.176.044-.176.024 0 .044-.098.044-.219 0-.12.02-.22.043-.22.026 0 .044-.13.044-.306s.02-.307.044-.307c.028 0 .044-.366.044-1.01 0-.642-.016-1.008-.044-1.008-.025 0-.044-.131-.044-.307 0-.175-.018-.307-.044-.307-.024 0-.043-.099-.043-.22 0-.12-.02-.219-.044-.219-.024 0-.044-.098-.044-.219 0-.12-.02-.22-.044-.22-.024 0-.044-.078-.044-.175 0-.096-.02-.175-.044-.175-.024 0-.044-.06-.044-.132 0-.072-.02-.131-.044-.131-.024 0-.043-.06-.043-.132 0-.072-.02-.131-.044-.131-.024 0-.044-.04-.044-.088 0-.048-.02-.088-.044-.088-.024 0-.044-.059-.044-.131 0-.073-.02-.132-.044-.132-.024 0-.044-.04-.044-.088 0-.048-.01-.087-.022-.087-.012 0-.269.246-.57.547-.41.41-.548.576-.548.658 0 .06.02.11.044.11.024 0 .044.06.044.132 0 .072.02.132.044.132.024 0 .044.079.044.175 0 .097.02.175.044.175.024 0 .043.1.043.22s.02.219.044.219c.025 0 .044.132.044.307 0 .176.019.307.044.307.028 0 .044.366.044 1.009 0 .643-.016 1.009-.044 1.009-.025 0-.044.131-.044.307 0 .175-.019.307-.044.307-.024 0-.044.098-.044.219 0 .12-.02.22-.043.22-.025 0-.044.078-.044.175 0 .096-.02.175-.044.175-.024 0-.044.04-.044.088 0 .048-.02.088-.044.088-.024 0-.044.059-.044.131 0 .072-.02.132-.044.132-.024 0-.043.059-.043.131 0 .073-.02.132-.044.132-.024 0-.044.06-.044.132 0 .072-.02.131-.044.131-.024 0-.044.04-.044.088 0 .048-.02.088-.044.088-.024 0-.044.039-.044.087 0 .049-.02.088-.044.088-.024 0-.043.04-.043.088 0 .048-.02.087-.044.087-.024 0-.044.031-.044.07 0 .078-.103.194-.173.194-.026 0-.274-.227-.551-.504-.455-.455-.586-.637-.46-.637.024 0 .044-.04.044-.088 0-.048.02-.087.043-.087.024 0 .044-.04.044-.088 0-.048.02-.088.044-.088.024 0 .044-.059.044-.131 0-.073.02-.132.044-.132.024 0 .044-.06.044-.131 0-.073.02-.132.043-.132.025 0 .044-.06.044-.132 0-.072.02-.131.044-.131.024 0 .044-.08.044-.176 0-.096.02-.175.044-.175.024 0 .044-.099.044-.22 0-.12.02-.219.044-.219.028 0 .043-.409.043-1.14 0-.731-.015-1.14-.043-1.14-.024 0-.044-.099-.044-.22 0-.12-.02-.219-.044-.219-.024 0-.044-.06-.044-.132 0-.072-.02-.131-.044-.131-.024 0-.044-.06-.044-.132 0-.072-.02-.131-.044-.131-.024 0-.043-.06-.043-.132 0-.072-.02-.131-.044-.131-.024 0-.044-.06-.044-.132 0-.072-.02-.132-.044-.132-.024 0-.044-.059-.044-.131 0-.073-.02-.132-.044-.132-.024 0-.043-.035-.043-.078s-.04-.106-.088-.141c-.049-.035-.088-.098-.088-.141 0-.043-.02-.078-.044-.078-.024 0-.044-.04-.044-.088 0-.048-.02-.088-.044-.088-.024 0-.043-.04-.043-.087 0-.049-.02-.088-.044-.088-.024 0-.044-.032-.044-.07 0-.039-.06-.126-.132-.193-.072-.068-.131-.146-.131-.173 0-.045-.197-.271-.229-.263-.007.002-.235.23-.506.504Zm-5.055-.2c0 .026-.16.044-.394.044s-.395.018-.395.044c0 .024-.08.044-.176.044-.096 0-.175.02-.175.043 0 .025-.06.044-.132.044-.072 0-.131.02-.131.044 0 .024-.04.044-.088.044-.048 0-.088.02-.088.044 0 .024-.04.044-.087.044-.049 0-.088.02-.088.044 0 .024-.04.044-.088.044-.048 0-.088.02-.088.043 0 .024-.035.044-.078.044s-.106.04-.14.088c-.036.048-.09.088-.124.088-.032 0-.135.079-.228.175-.092.097-.191.176-.219.176-.065 0-.175.11-.175.175 0 .027-.1.146-.22.263-.12.118-.22.245-.22.282 0 .038-.019.069-.043.069-.024 0-.044.04-.044.088 0 .048-.02.087-.044.087-.024 0-.043.036-.043.078 0 .043-.04.107-.088.142-.048.035-.088.098-.088.141 0 .043-.02.078-.044.078-.024 0-.044.06-.044.132 0 .072-.02.131-.044.131-.024 0-.043.08-.043.176 0 .096-.02.175-.044.175-.025 0-.044.117-.044.263 0 .146-.02.263-.044.263-.027 0-.044.19-.044.483 0 .292.017.482.044.482.024 0 .044.117.044.264 0 .146.02.263.044.263.024 0 .044.059.044.131 0 .073.02.132.043.132.025 0 .044.059.044.131 0 .073.02.132.044.132.024 0 .044.04.044.088 0 .048.02.087.044.087.024 0 .044.04.044.088 0 .048.02.088.044.088.024 0 .044.04.044.088 0 .048.02.087.043.087.024 0 .044.032.044.07 0 .039.06.126.132.193.072.068.131.145.131.172 0 .069.732.793.801.793.032 0 .086.04.12.088.035.048.099.088.142.088.043 0 .078.02.078.044 0 .024.04.043.087.043.049 0 .088.02.088.044 0 .024.035.044.078.044s.107.04.141.088a.24.24 0 0 0 .186.088c.067 0 .121.02.121.043 0 .025.08.044.176.044.096 0 .175.02.175.044 0 .024.1.044.22.044s.219.02.219.044c0 .027.234.044.614.044s.614-.017.614-.044c0-.024.099-.044.22-.044.12 0 .219-.02.219-.044 0-.024.079-.044.175-.044.097 0 .175-.02.175-.043 0-.025.055-.044.122-.044a.24.24 0 0 0 .185-.088c.035-.048.099-.088.142-.088.043 0 .078-.02.078-.044 0-.024.04-.043.088-.043.048 0 .087-.02.087-.044 0-.025.035-.044.078-.044s.107-.04.142-.088c.034-.048.088-.088.12-.088.069 0 .8-.724.8-.793 0-.027.06-.104.132-.172.073-.067.132-.154.132-.193 0-.038.02-.07.044-.07.024 0 .043-.04.043-.088 0-.048.02-.087.044-.087.024 0 .044-.04.044-.088 0-.048.02-.088.044-.088.024 0 .044-.04.044-.087 0-.049.02-.088.044-.088.024 0 .044-.06.044-.132 0-.072.02-.131.043-.131.025 0 .044-.06.044-.132 0-.072.02-.131.044-.131.025 0 .044-.132.044-.307 0-.176.019-.307.044-.307.026 0 .044-.176.044-.439s-.018-.439-.044-.439c-.024 0-.044-.059-.044-.131v-.132H10v1.491h1.272c1.243 0 1.272.002 1.272.088 0 .048-.02.088-.044.088-.024 0-.044.04-.044.088 0 .048-.02.087-.044.087-.024 0-.044.035-.044.078s-.04.107-.087.142c-.049.034-.088.088-.088.12 0 .08-.73.8-.81.8-.037 0-.067.02-.067.045 0 .024-.04.043-.088.043-.048 0-.088.02-.088.044 0 .024-.04.044-.087.044-.049 0-.088.02-.088.044 0 .024-.06.044-.132.044-.072 0-.131.02-.131.044 0 .027-.263.044-.702.044-.439 0-.702-.017-.702-.044 0-.024-.059-.044-.131-.044-.073 0-.132-.02-.132-.044 0-.024-.04-.044-.088-.044-.048 0-.087-.02-.087-.044 0-.024-.04-.044-.088-.044-.048 0-.088-.02-.088-.043 0-.025-.03-.044-.066-.044-.08 0-.811-.722-.811-.801 0-.032-.04-.086-.088-.12-.048-.035-.087-.099-.087-.142 0-.043-.02-.078-.044-.078-.024 0-.044-.04-.044-.087 0-.049-.02-.088-.044-.088-.024 0-.044-.079-.044-.175 0-.097-.02-.176-.044-.176-.027 0-.044-.22-.044-.57 0-.351.017-.57.044-.57.024 0 .044-.08.044-.176 0-.096.02-.175.044-.175.024 0 .044-.04.044-.088 0-.048.02-.088.044-.088.024 0 .044-.04.044-.087 0-.049.02-.088.043-.088.025 0 .044-.035.044-.078s.04-.107.088-.141c.048-.035.088-.09.088-.12 0-.032.108-.166.24-.298.132-.132.266-.24.297-.24.032 0 .086-.04.12-.088.035-.048.099-.088.142-.088.043 0 .078-.02.078-.044 0-.024.04-.043.088-.043.048 0 .087-.02.087-.044 0-.024.04-.044.088-.044.048 0 .088-.02.088-.044 0-.024.098-.044.22-.044.12 0 .218-.02.218-.044 0-.026.176-.044.439-.044s.439.018.439.044c0 .024.098.044.219.044.12 0 .22.02.22.044 0 .024.039.044.087.044.048 0 .088.02.088.044 0 .024.04.044.087.044.049 0 .088.02.088.043 0 .025.04.044.088.044.048 0 .087.02.087.044 0 .028.366.044 1.01.044 1.16 0 1.152.003.789-.35-.12-.118-.22-.237-.22-.264 0-.065-.11-.175-.175-.175-.028 0-.127-.08-.22-.176-.092-.096-.195-.175-.227-.175-.033 0-.088-.04-.123-.088-.035-.048-.098-.088-.141-.088-.043 0-.079-.02-.079-.044 0-.024-.039-.043-.087-.043-.048 0-.088-.02-.088-.044 0-.024-.04-.044-.088-.044-.048 0-.087-.02-.087-.044 0-.024-.04-.044-.088-.044-.048 0-.088-.02-.088-.044 0-.024-.059-.044-.131-.044-.073 0-.132-.02-.132-.044 0-.024-.079-.043-.175-.043-.097 0-.176-.02-.176-.044 0-.026-.146-.044-.35-.044-.205 0-.352-.018-.352-.044 0-.024-.059-.044-.131-.044-.073 0-.132.02-.132.044ZM2.03 14.85c-.472.478-.532.598-.362.72.048.035.087.09.087.124 0 .033.06.116.132.183.072.068.132.145.132.172 0 .063.376.442.437.442.026 0 .253-.207.506-.46.416-.416.54-.592.416-.592-.024 0-.044-.032-.044-.07 0-.04-.059-.126-.131-.194-.073-.067-.132-.15-.132-.183s-.04-.089-.088-.124c-.048-.034-.087-.094-.087-.131 0-.038-.04-.097-.088-.132-.048-.035-.088-.098-.088-.141 0-.057-.033-.077-.12-.075-.093.003-.224.109-.57.46Zm3.025 1.185-1.547 1.554.197.197c.109.108.22.197.247.197.027 0 .104.059.172.131.067.072.15.132.183.132s.089.04.124.087c.035.049.094.088.131.088.038 0 .097.04.132.088.035.048.098.087.141.087.043 0 .078.02.078.044 0 .024.04.044.088.044.048 0 .088.02.088.044 0 .024.04.044.087.044.049 0 .088.02.088.044 0 .024.04.044.088.044.048 0 .088.02.088.044 0 .024.035.043.078.043s.106.04.14.088a.24.24 0 0 0 .186.088c.067 0 .122.02.122.044 0 .024.04.043.088.043.048 0 .087.02.087.044 0 .024.06.044.132.044.072 0 .132.02.132.044 0 .024.039.044.087.044.048 0 .088.02.088.044 0 .024.06.044.132.044.072 0 .131.02.131.043 0 .025.06.044.132.044.072 0 .131.02.131.044 0 .024.08.044.176.044.096 0 .175.02.175.044 0 .024.08.044.176.044.096 0 .175.02.175.044 0 .024.099.044.22.044.12 0 .219.02.219.043 0 .025.117.044.263.044.146 0 .263.02.263.044 0 .028.439.044 1.228.044.79 0 1.228-.016 1.228-.044 0-.024.117-.044.263-.044.146 0 .263-.02.263-.044 0-.024.1-.043.22-.043s.219-.02.219-.044c0-.024.079-.044.175-.044.097 0 .176-.02.176-.044 0-.024.079-.044.175-.044.097 0 .176-.02.176-.044 0-.024.059-.044.131-.044.073 0 .132-.02.132-.044 0-.024.06-.043.132-.043.072 0 .131-.02.131-.044 0-.024.04-.044.088-.044.048 0 .088-.02.088-.044 0-.024.05-.044.112-.044a.286.286 0 0 0 .178-.064c.056-.057-.002-.13-.486-.614-.495-.496-.682-.634-.682-.506 0 .024-.059.044-.131.044-.073 0-.132.02-.132.044 0 .024-.06.044-.131.044-.073 0-.132.02-.132.044 0 .024-.099.043-.22.043-.12 0-.219.02-.219.044 0 .025-.117.044-.263.044-.146 0-.263.02-.263.044 0 .026-.175.044-.438.044-.264 0-.44.017-.44.044 0 .025-.145.043-.35.043s-.35-.018-.35-.043c0-.027-.176-.044-.44-.044-.263 0-.438-.018-.438-.044 0-.024-.117-.044-.263-.044-.146 0-.263-.02-.263-.044 0-.024-.08-.044-.176-.044-.096 0-.175-.02-.175-.043 0-.025-.08-.044-.176-.044-.096 0-.175-.02-.175-.044 0-.024-.06-.044-.132-.044-.072 0-.131-.02-.131-.044 0-.024-.06-.044-.132-.044-.072 0-.131-.02-.131-.044 0-.024-.04-.043-.088-.043-.048 0-.088-.02-.088-.044 0-.024-.06-.044-.131-.044-.073 0-.132-.02-.132-.044 0-.024-.04-.044-.088-.044-.048 0-.087-.02-.087-.044 0-.024-.04-.044-.088-.044-.048 0-.088-.02-.088-.044 0-.024-.04-.043-.088-.043-.048 0-.087-.02-.087-.044 0-.024-.031-.044-.07-.044-.078 0-.194-.103-.194-.173 0-.026.207-.255.46-.508.41-.409.477-.46.615-.46.084 0 .154.02.154.044 0 .024.059.044.131.044.072 0 .132.02.132.044 0 .024.059.044.131.044.073 0 .132.02.132.044 0 .024.04.044.088.044.048 0 .087.02.087.043 0 .025.06.044.132.044.072 0 .131.02.131.044 0 .024.08.044.176.044.096 0 .175.02.175.044 0 .024.099.044.22.044.12 0 .219.02.219.044 0 .026.16.043.395.043.234 0 .394.018.394.044 0 .027.176.044.439.044s.439-.017.439-.044c0-.026.16-.044.394-.044s.395-.017.395-.043c0-.024.099-.044.22-.044.12 0 .219-.02.219-.044 0-.024.079-.044.175-.044.097 0 .175-.02.175-.044 0-.024.06-.044.132-.044.073 0 .132-.02.132-.044 0-.024.04-.043.087-.043.049 0 .088-.02.088-.044 0-.024.06-.044.132-.044.072 0 .131-.02.131-.044 0-.024.055-.044.122-.044a.24.24 0 0 0 .185-.087c.035-.049.099-.088.142-.088.043 0 .078-.02.078-.044 0-.024.04-.044.087-.044.049 0 .088-.02.088-.044 0-.024.04-.044.088-.044.048 0 .088-.02.088-.044 0-.024.035-.043.078-.043.042 0 .106-.04.14-.088.036-.048.095-.088.132-.088.038 0 .097-.04.132-.088.035-.048.09-.087.122-.087.071 0 .185-.107.185-.173 0-.026-.228-.276-.507-.555-.504-.504-.508-.507-.587-.416-.043.05-.107.091-.14.091-.035 0-.09.04-.126.088-.034.048-.098.088-.141.088-.043 0-.078.02-.078.043 0 .024-.04.044-.088.044-.048 0-.087.02-.087.044 0 .024-.04.044-.088.044-.048 0-.088.02-.088.044 0 .024-.04.044-.088.044-.048 0-.087.02-.087.044 0 .024-.04.043-.088.043-.048 0-.088.02-.088.044 0 .024-.059.044-.131.044-.073 0-.132.02-.132.044 0 .024-.079.044-.175.044-.097 0-.176.02-.176.044 0 .024-.059.044-.131.044-.073 0-.132.02-.132.043 0 .025-.099.044-.22.044-.12 0-.218.02-.218.044 0 .028-.293.044-.79.044-.497 0-.79-.016-.79-.044 0-.024-.098-.044-.219-.044-.12 0-.22-.02-.22-.043 0-.025-.058-.044-.13-.044-.073 0-.132-.02-.132-.044 0-.024-.08-.044-.176-.044-.096 0-.175-.02-.175-.044 0-.024-.06-.044-.132-.044-.072 0-.131-.02-.131-.044 0-.024-.04-.044-.088-.044-.048 0-.088-.02-.088-.043 0-.024-.04-.044-.087-.044-.049 0-.088-.02-.088-.044 0-.024-.04-.044-.088-.044-.048 0-.088-.02-.088-.044 0-.024-.04-.044-.087-.044-.049 0-.088-.02-.088-.044 0-.024-.035-.043-.078-.043s-.107-.04-.141-.088c-.035-.048-.094-.088-.132-.088-.037 0-.097-.04-.131-.088-.035-.048-.074-.086-.087-.084-.013.002-.72.703-1.57 1.558Zm10.385.588c0 .024-.032.044-.07.044-.04 0-.126.059-.194.131-.067.073-.15.132-.183.132s-.089.04-.124.087c-.034.049-.09.088-.123.088-.034 0-.116.06-.184.132-.067.072-.154.131-.193.131-.038 0-.07.01-.07.023 0 .012.227.249.504.526.527.527.643.59.768.416.035-.048.09-.087.124-.087.033 0 .116-.06.183-.132.068-.072.145-.131.172-.131.028 0 .139-.09.247-.198l.197-.197-.505-.504a8.831 8.831 0 0 0-.527-.505c-.012 0-.022.02-.022.044Z" fill="#30CFFD"/></svg>