<svg xmlns="http://www.w3.org/2000/svg" width="20" height="20" fill="none"><circle cx="10" cy="10" r="10" fill="url(#a)"/><circle cx="10" cy="10" r="9.594" fill="url(#b)"/><circle cx="10" cy="10" r="7.967" fill="url(#c)"/><circle cx="10" cy="10" r="7.317" fill="url(#d)"/><path fill="#C76607" d="M10.562 9.38c1.096.209 2.053.008 2.21-.801.129-.656-.664-1.363-1.77-1.579-1.106-.215-2.064-.078-2.235.798-.127.652.656 1.354 1.752 1.574-.962-.194-1.649-.81-1.537-1.383.15-.77.991-.89 1.963-.7.973.189 1.67.81 1.557 1.386-.139.711-.978.888-1.94.706Z"/><path fill="#C76607" fill-rule="evenodd" d="M10.771 9.46c1.434.288 2.508.504 2.876-1.1.201-.875-.981-1.848-2.575-2.159-1.594-.31-2.968-.142-3.198 1.035-.172.882.981 1.849 2.575 2.16.11.02.217.042.322.064Zm2.002-1.15c-.158.81-1.114 1.01-2.21.802l-.045-.008c-1.095-.22-1.877-.923-1.75-1.575.17-.875 1.128-1.013 2.234-.797 1.106.215 1.899.922 1.771 1.578Z" clip-rule="evenodd"/><path fill="#FFEE85" fill-rule="evenodd" d="M10.453 9.478c1.553.302 2.918 0 3.152-1.2.188-.965-.918-1.993-2.47-2.295-1.553-.303-2.901-.089-3.152 1.2-.188.964.918 1.992 2.47 2.295Zm2.32-1.168c-.157.81-1.114 1.01-2.21.802l-.044-.008c-1.096-.22-1.878-.923-1.751-1.575.17-.875 1.128-1.013 2.234-.797 1.106.215 1.9.922 1.771 1.578Z" clip-rule="evenodd"/><path fill="#FFCE2F" fill-rule="evenodd" d="M10.495 9.294c1.406.274 2.638.023 2.84-1.014.163-.834-.845-1.732-2.252-2.007C9.677 6 8.46 6.174 8.243 7.288c-.163.834.845 1.732 2.252 2.006Zm2.278-.984c-.158.81-1.114 1.01-2.21.802l-.045-.008c-1.095-.22-1.878-.923-1.75-1.575.17-.875 1.128-1.013 2.234-.797 1.106.215 1.899.922 1.77 1.578Z" clip-rule="evenodd"/><path fill="#FFEE85" d="M10.563 9.112c1.096.208 2.052.008 2.21-.802.128-.656-.665-1.363-1.771-1.578-1.106-.216-2.064-.078-2.235.797-.127.652.656 1.354 1.751 1.575-.961-.194-1.648-.81-1.536-1.383.15-.77.991-.89 1.963-.701.973.189 1.67.81 1.557 1.387-.139.71-.977.887-1.94.705Z"/><ellipse cx="9.919" cy="11.26" fill="#C76507" rx="3.171" ry="3.537"/><ellipse cx="9.959" cy="11.016" fill="url(#e)" rx="3.211" ry="3.537"/><ellipse cx="9.959" cy="11.016" fill="url(#f)" rx="3.049" ry="3.293"/><path fill="#C76507" fill-rule="evenodd" d="M4.017 7.432c-.04.02-.053.028-.064.05-.014.028-.026.09-.01.233.007.07.033.103.06.123a.425.425 0 0 0 .126.053l.011.004a.4.4 0 0 1 .182.1c.058.062.08.15.068.265a.59.59 0 0 1-.066.24.309.309 0 0 1-.123.12.128.128 0 0 0-.038.028c-.005.008-.017.03-.017.092 0 .057.014.081.025.094a.164.164 0 0 0 .07.037l.04.01.02.006a.606.606 0 0 1 .07.024c.048.02.1.054.132.118a.384.384 0 0 1 .04.204v.025c0 .044.004.1.077.21.025.036.06.055.11.063a.666.666 0 0 0 .187-.008l.041-.006c.055-.008.116-.018.166-.018.063 0 .15.014.193.099a.339.339 0 0 1 .004.275l-.003.008a.309.309 0 0 0-.016.062.023.023 0 0 0 .007.006.11.11 0 0 0 .03.006c.04.004.105.004.23.004.08 0 .139.024.186.064a.462.462 0 0 1 .085.107l.006.009c.023.036.04.06.063.076.02.015.05.029.107.029.054 0 .134-.032.21-.11a.68.68 0 0 0 .174-.352c.06-.315-.03-.8-.53-1.44-.792-1.014-1.58-1.014-1.853-.91Zm-.063-.15c.353-.138 1.215-.101 2.045.96.517.662.632 1.194.56 1.57a.84.84 0 0 1-.216.435.479.479 0 0 1-.327.16.332.332 0 0 1-.204-.06.427.427 0 0 1-.103-.12l-.003-.004a.338.338 0 0 0-.057-.076c-.016-.014-.037-.025-.08-.025h-.008c-.115 0-.19 0-.24-.006a.265.265 0 0 1-.076-.018.185.185 0 0 1-.059-.04.16.16 0 0 1-.046-.135c.003-.032.015-.066.023-.092a1.63 1.63 0 0 0 .004-.01c.02-.058.029-.1.004-.15 0-.001 0-.002-.004-.003a.12.12 0 0 0-.043-.006.961.961 0 0 0-.134.015l-.05.007a.817.817 0 0 1-.234.008.31.31 0 0 1-.22-.135.503.503 0 0 1-.105-.335.21.21 0 0 0-.023-.12c-.009-.018-.023-.03-.05-.041a.449.449 0 0 0-.05-.017l-.017-.005a1.412 1.412 0 0 1-.048-.013.308.308 0 0 1-.143-.084.29.29 0 0 1-.066-.202c0-.08.014-.14.047-.187.028-.038.065-.06.088-.074l.009-.006a.148.148 0 0 0 .055-.054.437.437 0 0 0 .045-.175c.009-.088-.01-.122-.026-.14-.02-.022-.053-.036-.11-.054l-.016-.005a.558.558 0 0 1-.17-.076.32.32 0 0 1-.125-.236c-.017-.15-.01-.251.026-.323.036-.073.096-.103.134-.122l.006-.003.004-.002.003-.001Z" clip-rule="evenodd"/><path fill="#C76507" d="M3.953 7.482c.01-.022.023-.03.064-.05.273-.104 1.06-.104 1.854.91.5.64.588 1.125.529 1.44a.68.68 0 0 1-.173.352c-.077.078-.157.11-.21.11-.057 0-.088-.014-.108-.029a.273.273 0 0 1-.063-.076l-.006-.009a.462.462 0 0 0-.085-.107.273.273 0 0 0-.186-.064c-.125 0-.19 0-.23-.004a.11.11 0 0 1-.03-.006.023.023 0 0 1-.007-.006v-.004a.309.309 0 0 1 .016-.058l.003-.008a.339.339 0 0 0-.004-.275c-.043-.085-.13-.099-.193-.099-.05 0-.11.01-.166.018l-.04.006a.666.666 0 0 1-.188.008c-.05-.008-.085-.027-.11-.064-.073-.11-.077-.165-.077-.209v-.025a.384.384 0 0 0-.04-.204.247.247 0 0 0-.132-.118.606.606 0 0 0-.07-.024l-.02-.005-.04-.011a.164.164 0 0 1-.07-.037c-.01-.013-.025-.037-.025-.094 0-.063.012-.084.017-.092.007-.01.014-.014.038-.029l.014-.009a.309.309 0 0 0 .109-.11.59.59 0 0 0 .066-.24c.011-.115-.01-.203-.068-.266a.4.4 0 0 0-.182-.099l-.01-.003a.425.425 0 0 1-.127-.054c-.027-.02-.053-.052-.06-.123-.016-.144-.004-.205.01-.233Z"/><path fill="url(#g)" d="M6.017 8.049c-.813-1.04-1.64-1.057-1.952-.935-.08.04-.154.073-.122.366.041.366.488.122.448.528-.041.407-.244.203-.244.488 0 .284.284.163.366.325.08.163-.041.203.122.447.162.244.61-.04.69.122.082.163-.08.285 0 .366.041.04.082.04.326.04s.162.285.447.285c.328 0 .935-.731-.081-2.032Z"/><path fill="url(#h)" fill-rule="evenodd" d="M4.098 7.188c-.04.02-.053.029-.064.05-.014.028-.026.09-.01.233.007.07.033.103.06.123.031.024.071.036.126.054.004 0 .008.002.011.003a.4.4 0 0 1 .182.1c.058.062.08.15.068.265a.591.591 0 0 1-.066.24.309.309 0 0 1-.123.12.128.128 0 0 0-.038.028c-.005.008-.017.03-.017.092 0 .057.014.081.025.094a.164.164 0 0 0 .07.037l.04.01.02.007a.604.604 0 0 1 .07.023c.048.02.1.054.133.118a.384.384 0 0 1 .04.204l-.001.025c0 .044.004.1.077.21.025.036.06.055.11.063a.666.666 0 0 0 .187-.008l.041-.006c.055-.008.116-.017.166-.017.063 0 .15.013.193.098a.339.339 0 0 1 .004.275c0 .003-.002.006-.003.008a.28.28 0 0 0-.016.059v.003a.023.023 0 0 0 .008.006.11.11 0 0 0 .03.006c.04.004.104.004.23.004.078 0 .138.024.185.064a.464.464 0 0 1 .09.116.27.27 0 0 0 .064.076c.02.015.051.029.107.029.054 0 .134-.032.21-.11a.68.68 0 0 0 .174-.352c.06-.315-.03-.8-.53-1.44-.792-1.014-1.58-1.014-1.853-.91Zm-.063-.15c.353-.138 1.215-.101 2.045.96.517.662.632 1.194.56 1.57a.841.841 0 0 1-.216.436.479.479 0 0 1-.327.159.331.331 0 0 1-.204-.06.426.426 0 0 1-.103-.12l-.003-.004a.315.315 0 0 0-.057-.076c-.016-.013-.037-.025-.08-.025h-.008c-.115 0-.19 0-.24-.006a.265.265 0 0 1-.075-.018.185.185 0 0 1-.06-.04.16.16 0 0 1-.046-.135c.003-.032.015-.066.024-.092a1.63 1.63 0 0 0 .003-.01c.02-.058.029-.1.004-.15 0-.001 0-.002-.004-.003a.12.12 0 0 0-.043-.006.962.962 0 0 0-.134.015l-.05.007a.817.817 0 0 1-.234.008.31.31 0 0 1-.22-.135.503.503 0 0 1-.106-.299v-.036a.202.202 0 0 0-.022-.12c-.008-.018-.022-.03-.05-.041a.45.45 0 0 0-.067-.021l-.048-.014a.308.308 0 0 1-.143-.084.29.29 0 0 1-.066-.202c0-.08.014-.14.047-.187a.305.305 0 0 1 .088-.074l.01-.006a.148.148 0 0 0 .054-.054A.437.437 0 0 0 4.31 8c.009-.088-.01-.122-.026-.14-.02-.021-.053-.035-.11-.054l-.016-.005a.558.558 0 0 1-.17-.076.32.32 0 0 1-.125-.236c-.017-.15-.009-.25.026-.323.036-.073.096-.103.134-.122l.006-.003.004-.002h.003Z" clip-rule="evenodd"/><path fill="#C76507" fill-rule="evenodd" d="M15.896 7.432c.04.02.053.028.063.05.014.028.027.09.01.233-.007.07-.033.103-.06.123a.425.425 0 0 1-.126.053l-.011.004a.4.4 0 0 0-.181.1c-.058.062-.08.15-.069.265a.59.59 0 0 0 .066.24.308.308 0 0 0 .109.11l.014.01c.024.014.031.019.038.028.006.008.017.03.017.092 0 .057-.014.081-.025.094a.164.164 0 0 1-.07.037l-.04.01-.02.006a.614.614 0 0 0-.07.024.248.248 0 0 0-.132.118.376.376 0 0 0-.04.204v.025c0 .044-.004.1-.077.21-.025.036-.06.055-.11.063a.666.666 0 0 1-.187-.008l-.04-.006c-.056-.008-.117-.018-.167-.018-.063 0-.15.014-.192.099a.338.338 0 0 0-.005.275l.003.008c.01.03.015.046.016.058v.004a.023.023 0 0 1-.007.006.11.11 0 0 1-.03.006c-.04.004-.105.004-.23.004a.273.273 0 0 0-.186.064.46.46 0 0 0-.09.116.273.273 0 0 1-.064.076c-.02.015-.05.029-.107.029-.054 0-.134-.032-.21-.11a.679.679 0 0 1-.174-.352c-.06-.315.03-.8.53-1.44.792-1.014 1.58-1.014 1.854-.91Zm.062-.15c-.353-.138-1.215-.101-2.045.96-.517.662-.632 1.194-.56 1.57a.84.84 0 0 0 .216.435c.098.1.217.16.327.16a.332.332 0 0 0 .204-.06.425.425 0 0 0 .103-.12l.003-.004a.338.338 0 0 1 .057-.076c.016-.014.037-.025.08-.025h.008c.115 0 .19 0 .24-.006a.265.265 0 0 0 .076-.018.185.185 0 0 0 .059-.04.16.16 0 0 0 .046-.135c-.003-.032-.015-.066-.023-.092a.455.455 0 0 1-.004-.01c-.02-.058-.029-.1-.004-.15 0-.001 0-.002.004-.003a.12.12 0 0 1 .043-.006c.037 0 .08.007.134.015l.05.007a.83.83 0 0 0 .235.008.31.31 0 0 0 .22-.135.502.502 0 0 0 .105-.299v-.036a.202.202 0 0 1 .022-.12c.009-.018.023-.03.05-.041a.446.446 0 0 1 .067-.022l.048-.013a.308.308 0 0 0 .143-.084.29.29 0 0 0 .066-.202c0-.08-.014-.14-.047-.187-.027-.038-.065-.06-.088-.074l-.009-.006a.148.148 0 0 1-.055-.054.437.437 0 0 1-.045-.175c-.009-.088.01-.122.026-.14.02-.022.053-.036.111-.054l.015-.005a.558.558 0 0 0 .17-.076.32.32 0 0 0 .125-.236c.017-.15.01-.251-.026-.323a.264.264 0 0 0-.134-.122l-.006-.003-.004-.002-.003-.001Z" clip-rule="evenodd"/><path fill="#C76507" d="M15.96 7.482c-.011-.022-.024-.03-.065-.05-.273-.104-1.06-.104-1.854.91-.5.64-.588 1.125-.529 1.44.03.157.098.275.173.352.077.078.157.11.21.11.057 0 .088-.014.108-.029a.273.273 0 0 0 .07-.085.46.46 0 0 1 .084-.107.273.273 0 0 1 .186-.064c.125 0 .19 0 .23-.004a.11.11 0 0 0 .03-.006.023.023 0 0 0 .008-.006v-.004a.308.308 0 0 0-.017-.058l-.003-.008a.338.338 0 0 1 .005-.275c.042-.085.13-.099.192-.099.05 0 .11.01.166.018l.04.006c.072.01.135.016.188.008.05-.008.085-.027.11-.064.073-.11.078-.165.078-.209l-.001-.025a.376.376 0 0 1 .04-.204.248.248 0 0 1 .132-.118.614.614 0 0 1 .07-.024l.02-.005.04-.011a.164.164 0 0 0 .07-.037c.01-.013.025-.037.025-.094 0-.063-.011-.084-.017-.092-.007-.01-.014-.014-.038-.029l-.014-.009a.308.308 0 0 1-.109-.11.59.59 0 0 1-.066-.24c-.011-.115.01-.203.069-.266a.4.4 0 0 1 .18-.099l.012-.003a.425.425 0 0 0 .126-.054c.027-.02.053-.052.06-.123.017-.144.004-.205-.01-.233Z"/><path fill="url(#i)" d="M13.977 8.049c.813-1.04 1.64-1.057 1.952-.935.081.04.154.073.122.366-.041.366-.488.122-.447.528.04.407.243.203.243.488 0 .284-.284.163-.365.325-.082.163.04.203-.122.447-.163.244-.61-.04-.691.122-.082.163.08.285 0 .366-.041.04-.082.04-.326.04s-.162.285-.447.285c-.328 0-.935-.731.081-2.032Z"/><path fill="url(#j)" fill-rule="evenodd" d="M15.896 7.188c.04.02.053.029.063.05.014.028.027.09.01.233-.007.07-.033.103-.06.123-.031.024-.07.036-.126.054-.004 0-.008.002-.011.003a.4.4 0 0 0-.181.1c-.058.062-.08.15-.069.265a.59.59 0 0 0 .066.24.308.308 0 0 0 .109.11l.014.01c.024.014.031.019.038.028.006.008.017.03.017.092 0 .057-.014.081-.025.094a.164.164 0 0 1-.07.037 1.1 1.1 0 0 1-.04.01l-.02.007a.612.612 0 0 0-.07.023.248.248 0 0 0-.132.118.376.376 0 0 0-.04.204v.025c0 .044-.004.1-.077.21-.025.036-.06.055-.11.063a.665.665 0 0 1-.187-.008l-.04-.006c-.056-.008-.117-.017-.167-.017-.063 0-.15.013-.192.098a.338.338 0 0 0-.005.275l.003.008a.28.28 0 0 1 .016.059v.003a.023.023 0 0 1-.007.006.11.11 0 0 1-.03.006 2.65 2.65 0 0 1-.23.004.273.273 0 0 0-.186.064.462.462 0 0 0-.09.116.273.273 0 0 1-.064.076c-.02.015-.05.029-.107.029-.054 0-.134-.032-.21-.11a.68.68 0 0 1-.174-.352c-.06-.315.03-.8.53-1.44.792-1.014 1.58-1.014 1.854-.91Zm.062-.15c-.353-.138-1.215-.101-2.045.96-.517.662-.632 1.194-.56 1.57a.84.84 0 0 0 .216.436.483.483 0 0 0 .327.159.331.331 0 0 0 .204-.06.425.425 0 0 0 .103-.12l.003-.004c.024-.037.038-.06.057-.076.016-.013.037-.025.08-.025h.008c.115 0 .19 0 .24-.006a.265.265 0 0 0 .076-.018.184.184 0 0 0 .059-.04.16.16 0 0 0 .046-.135c-.003-.032-.015-.066-.023-.092a.455.455 0 0 1-.004-.01c-.02-.058-.029-.1-.004-.15 0-.001 0-.002.004-.003a.12.12 0 0 1 .043-.006c.037 0 .08.007.134.015l.05.007a.83.83 0 0 0 .235.008.31.31 0 0 0 .22-.135.502.502 0 0 0 .105-.299v-.036a.202.202 0 0 1 .022-.12c.009-.018.023-.03.05-.041a.446.446 0 0 1 .067-.021l.048-.014a.308.308 0 0 0 .143-.084.29.29 0 0 0 .066-.202c0-.08-.014-.14-.047-.187-.027-.037-.065-.06-.088-.074l-.009-.006a.148.148 0 0 1-.055-.054.437.437 0 0 1-.045-.175c-.009-.088.01-.122.026-.14.02-.021.053-.035.111-.054l.015-.005a.558.558 0 0 0 .17-.076.32.32 0 0 0 .125-.236c.017-.15.01-.25-.026-.323a.264.264 0 0 0-.134-.122l-.006-.003-.004-.002h-.003Z" clip-rule="evenodd"/><defs><linearGradient id="a" x1="10" x2="10" y1="0" y2="20" gradientUnits="userSpaceOnUse"><stop stop-color="#FFF784"/><stop offset=".51" stop-color="#ECAA68"/><stop offset="1" stop-color="#CB652D"/></linearGradient><linearGradient id="b" x1="10" x2="10" y1=".407" y2="19.593" gradientUnits="userSpaceOnUse"><stop stop-color="#FDC727"/><stop offset="1" stop-color="#FE9908"/></linearGradient><linearGradient id="c" x1="10" x2="10" y1="2.033" y2="17.968" gradientUnits="userSpaceOnUse"><stop stop-color="#F78A04"/><stop offset="1" stop-color="#FEF282"/></linearGradient><linearGradient id="d" x1="10" x2="10" y1="2.683" y2="17.317" gradientUnits="userSpaceOnUse"><stop stop-color="#FEC820"/><stop offset="1" stop-color="#F79905"/></linearGradient><linearGradient id="e" x1="9.959" x2="9.959" y1="7.48" y2="14.553" gradientUnits="userSpaceOnUse"><stop stop-color="#FFF784"/><stop offset="1" stop-color="#F68407"/></linearGradient><linearGradient id="f" x1="9.959" x2="9.959" y1="7.724" y2="14.309" gradientUnits="userSpaceOnUse"><stop stop-color="#FDD621"/><stop offset="1" stop-color="#FDBA14"/></linearGradient><linearGradient id="g" x1="4.065" x2="6.383" y1="7.073" y2="10.081" gradientUnits="userSpaceOnUse"><stop stop-color="#FEBB27"/><stop offset="1" stop-color="#FFC223"/></linearGradient><linearGradient id="h" x1="3.943" x2="6.179" y1="6.87" y2="10.163" gradientUnits="userSpaceOnUse"><stop stop-color="#F9F385"/><stop offset="1" stop-color="#FEDA69"/></linearGradient><linearGradient id="i" x1="15.929" x2="13.612" y1="7.073" y2="10.081" gradientUnits="userSpaceOnUse"><stop stop-color="#FEBB27"/><stop offset="1" stop-color="#FFC223"/></linearGradient><linearGradient id="j" x1="16.05" x2="13.815" y1="6.87" y2="10.163" gradientUnits="userSpaceOnUse"><stop stop-color="#F9F385"/><stop offset="1" stop-color="#FEDA69"/></linearGradient></defs></svg>