<svg xmlns="http://www.w3.org/2000/svg" width="20" height="20" fill="none"><path d="M12.757 6.113c1.322-3.284 3.069-4.838 5.267-5.16 0 0 .009 1.796.149 2.414.14.618 1.25 5.025-2.032 7.082l-3.384-4.336v0Z" fill="#ADB7C3" stroke="#000" stroke-width=".103" stroke-linecap="round" stroke-linejoin="round"/><path d="M12.757 6.113c1.322-3.284 3.069-4.838 5.267-5.16 0 0 .009 1.796.149 2.414.14.618 1.25 5.025-2.032 7.082l-3.384-4.336Z" fill="url(#a)"/><path d="M18.173 3.367c-.07-.306-.117-.797-.137-1.319-1.875.196-2.86 2.208-4.06 5.19l1.412 2.247.753.964c3.282-2.057 2.172-6.464 2.032-7.082Z" fill="#4C5967"/><path d="M12.757 6.113c1.322-3.284 3.069-4.838 5.267-5.16 0 0 .009 1.796.149 2.414.14.618 1.25 5.025-2.032 7.082l-3.384-4.336v0Z" stroke="#000" stroke-width=".103" stroke-linecap="round" stroke-linejoin="round"/><path d="M14.223 6.96c-.114-1.26 1.388-4.03 2.679-4.528 0 0 .48 1.917.574 2.334.094.417.701 3.762-1.684 4.935L14.223 6.96Z" fill="url(#b)"/><path d="M14.223 6.96c-.114-1.26 1.388-4.03 2.679-4.528 0 0 .48 1.917.574 2.334.094.417.701 3.762-1.684 4.935L14.223 6.96v0Z" stroke="#000" stroke-width=".103" stroke-linecap="round" stroke-linejoin="round"/><path d="M15.24 6.972c.424-.195.91-.307 1.436-.366a2.676 2.676 0 0 0-1.487-.195 13.919 13.919 0 0 1 1.59-.85c-.583-.16-1.136-.095-1.667.14.626-.704 1.227-1.334 1.76-1.764-.487.04-.893.205-1.21.508.207-.42.864-1.911 1.718-2.281l-.807.44c-1.203.78-2.455 3.203-2.35 4.355l.409.713c.38.301 1.058.571 1.283 1.009.273-.104-.432-1.292-.724-1.19l1.417.085c-.408-.393-.846-.665-1.369-.604Z" fill="url(#c)"/><path d="M15.24 6.972c.424-.195.91-.307 1.436-.366a2.676 2.676 0 0 0-1.488-.195 13.919 13.919 0 0 1 1.59-.85c-.582-.16-1.135-.095-1.666.14.626-.704 1.227-1.334 1.76-1.764-.488.04-.893.205-1.21.508.206-.42.863-1.911 1.718-2.281l-.808.44c-1.202.78-2.528 3.23-2.423 4.382l.482.686c.381.301 1.059.571 1.284 1.009.273-.104-.432-1.292-.725-1.19l1.418.085c-.408-.393-.847-.665-1.369-.604h0Z" stroke="#000" stroke-width=".103" stroke-linecap="round" stroke-linejoin="round"/><path d="M6.287 6.06C4.832 3.69 3.275 2.718 1.53 2.758c0 0 .23 1.392.202 1.89-.027.496-.307 4.055 2.505 5.217l2.05-3.803Z" fill="url(#d)"/><path d="M1.732 4.646a6.356 6.356 0 0 0-.067-1.04C3.142 3.513 4.169 4.94 5.49 7.094l-.798 1.925-.456.846c-2.812-1.162-2.532-4.72-2.505-5.218Z" fill="#4C5967"/><path d="M6.287 6.06C4.832 3.69 3.275 2.718 1.53 2.758c0 0 .23 1.392.202 1.89-.027.496-.307 4.055 2.505 5.217l2.05-3.803v0Z" stroke="#000" stroke-width=".103" stroke-linecap="round" stroke-linejoin="round"/><path d="M5.263 6.909c-.077-.99-1.605-2.939-2.67-3.154 0 0-.119 1.548-.137 1.883-.018.335-.049 3.006 1.953 3.6l.854-2.33Z" fill="url(#e)"/><path d="M5.263 6.909c-.077-.99-1.605-2.939-2.67-3.154 0 0-.119 1.548-.137 1.883-.018.335-.049 3.006 1.953 3.6l.854-2.33v0Z" stroke="#000" stroke-width=".103" stroke-linecap="round" stroke-linejoin="round"/><path d="M4.478 7.052a3.672 3.672 0 0 0-1.161-.094 2.102 2.102 0 0 1 1.127-.347 10.935 10.935 0 0 0-1.344-.45c.43-.2.867-.222 1.31-.11-.578-.463-1.126-.872-1.595-1.135.382-.033.718.042 1.003.235-.215-.297-.92-1.367-1.63-1.54l.683.234c1.034.446 2.322 2.157 2.392 3.064l-.222.606c-.256.283-.745.58-.862.95-.225-.045.165-1.057.405-1.017L3.497 7.7c.265-.358.568-.626.98-.648Z" fill="url(#f)"/><path d="M4.478 7.052a3.672 3.672 0 0 0-1.161-.094 2.102 2.102 0 0 1 1.127-.347 10.935 10.935 0 0 0-1.344-.45c.43-.2.867-.222 1.31-.11-.578-.463-1.126-.872-1.595-1.135.382-.033.718.042 1.003.235-.215-.297-.92-1.367-1.63-1.54l.683.234c1.034.446 2.322 2.157 2.392 3.064l-.222.606c-.256.283-.745.58-.862.95-.225-.045.165-1.057.405-1.017L3.497 7.7c.265-.358.568-.626.98-.648v0Z" stroke="#000" stroke-width=".103" stroke-linecap="round" stroke-linejoin="round"/><path d="M16.77 11.101c-.635-.602-1.556-2.514-1.76-2.845-.204-.332-.748-1.428-2.619-2.772-1.87-1.343-4.276-.408-4.89-.313-.612.094-2.073 1.044-2.77 2.32-.697 1.275-.625 2.916-.736 3.252-.072.22-.317.688-.475.982-.523.467-.895 1.001-1.068 1.624.224-.183.465-.319.727-.4-.621.386-.783.915-.727 1.514.198-.334.404-.637.646-.783-.444.523-.457 1.053-.144 1.59a1.41 1.41 0 0 1 .247-.647c.043.155.167.494.475.868.421.51 1.123.357 1.442.332.318-.026 1.084.293 1.096.497.013.204.039 2.028.039 2.028S6.18 19.847 7.91 19.87c1.436.02 1.624-.867 2.856-1.65.295-.186 1.038-.271 2.33-.595a3.649 3.649 0 0 0 1.973-1.309c.031.273-.15.649-.358 1.037 1.02-.532 1.732-1.368 1.854-2.788.158.272.226.581.187.935.395-.319.463-.925.357-1.684.209.156.314.428.408.715.167-.722.138-1.399-.272-1.99.27.053.498.206.688.452.094-.52-.58-1.338-1.164-1.892Z" fill="url(#g)"/><path d="M14.746 14.19c.29-.102.657-.017.944.017-.46-.384-1.003-.602-1.473-.34.13-.253.449-.296.785-.433-2.152-.833-3.836 1.539-5.51.544l-4.802-.196s-.342-.094-.828.07c-.405.138-.609.603-.666.755.04.146.16.497.48.884.421.51 1.123.357 1.442.332.319-.026 1.084.293 1.097.497.012.204.038 2.028.038 2.028S6.18 19.847 7.91 19.87c1.437.02 1.624-.867 2.857-1.65.294-.186 1.037-.272 2.33-.595a3.649 3.649 0 0 0 1.972-1.309c.032.273-.15.649-.357 1.037.375-.195.708-.433.986-.725.262-.522.528-1.304.119-1.783-.646-.757-1.072-.655-1.072-.655Z" fill="#ABB9C7"/><path d="M15.888 14.94c.247.548.126 1.095-.147 1.643.454-.497.75-1.148.825-2.018.158.272.226.581.187.935.396-.319.464-.925.357-1.684.209.156.315.428.409.715.167-.722.138-1.399-.273-1.99.27.053.499.206.688.452.095-.52-.58-1.338-1.164-1.892-.333-.316-.745-.993-1.091-1.613l-.146-.178c.603 1.148 1.163 2.436 1.611 2.836-.277-.05-.591-.28-.923-.591a6.16 6.16 0 0 1 .702 1.698c-.358-.159-.736-.506-1.124-.935.408.594.715 1.213.903 1.86-.167-.01-.326-.086-.48-.192-.015.425-.118.752-.334.955Z" fill="#344151"/><path d="m16.019 15.32-.13-.38c-.047.44-.167.794-.367 1.057l-.152-.565c-.01.243-.906 1.09-2.307 1.551-1.467.483-1.496.28-2.415.828-1.26.753-1.42 1.727-2.997 1.634-1.438-.086-1.398-2.624-1.398-2.624l-.024.069c.012.604.024 1.458.024 1.458S6.18 19.847 7.91 19.87c1.436.02 1.623-.867 2.856-1.65.295-.186 1.038-.272 2.33-.595a3.642 3.642 0 0 0 1.972-1.31c.032.274-.15.65-.357 1.038.375-.196.709-.433.986-.725.188-.372.376-.876.32-1.309Z" fill="#69798A"/><path d="M3.52 11.726s.365-.647.475-.983c.11-.336.039-1.977.736-3.252.697-1.276 2.158-2.226 2.771-2.32.613-.095 3.019-1.03 4.89.313 1.87 1.344 2.414 2.44 2.618 2.772.204.332 1.126 2.243 1.76 2.845.583.554 1.258 1.372 1.164 1.892-.19-.246-.418-.399-.688-.452.41.591.44 1.268.272 1.99-.093-.287-.2-.559-.408-.715.107.76.039 1.365-.357 1.684a1.49 1.49 0 0 0-.187-.935c-.122 1.42-.834 2.256-1.853 2.788.207-.388.389-.764.357-1.037 0 0-.68.986-1.973 1.31-1.292.322-2.035.408-2.33.595-1.232.782-1.42 1.668-2.856 1.649-1.73-.023-1.658-1.522-1.658-1.522s-.026-1.824-.038-2.028c-.013-.204-.778-.523-1.097-.497-.32.025-1.02.178-1.441-.332-.421-.51-.498-.956-.498-.956" stroke="#000" stroke-width=".103" stroke-linecap="round" stroke-linejoin="round"/><path d="M3.083 14.325c.14-.485.268-.827.402-.932-.066-.027-.357-.036-.593.105.315-.484.422-.643.718-.728-.217.067-.494-.096-.68.056.085-.305.272-.681.5-1.018-.476.447-.815.954-.978 1.54.224-.182.465-.318.727-.399-.621.385-.783.915-.727 1.514.198-.334.404-.637.646-.783-.444.523-.457 1.053-.144 1.59a1.47 1.47 0 0 1 .306-.731l.126-.379c-.12.068-.231.126-.303.165Z" fill="#596576"/><path d="M3.52 11.725c-.523.467-.895 1.001-1.068 1.624.224-.183.465-.319.727-.4-.621.385-.783.915-.727 1.513.198-.334.404-.636.646-.782-.444.523-.457 1.053-.144 1.59.026-.26.1-.503.27-.732" stroke="#000" stroke-width=".103" stroke-linecap="round" stroke-linejoin="round"/><path d="M8.242 6.832c-.41.156-.618.508-.752.93-.165-.76-.046-1.35.497-1.683-.46.098-.769.434-1.033.842-.054-.908.219-1.55 1.02-1.76a3.796 3.796 0 0 0-1.862.395C6.49 4.635 7.24 4.15 8.727 4.523c-.248-.309-.716-.446-1.212-.56 1.482-.364 2.851.178 4.183 1.194-1.492.093-3.247.238-3.456 1.675Z" fill="url(#h)"/><path d="M7.617 7.061C7.655 6.687 8.286 6 8.74 5.722c-.383.082-1.022-.08-1.243.261.446-.675.841-.838 1.511-1.013-.531-.02-1.056-.24-1.502-.088.517-.204 1.078-.277 2.242.015-.207-.258-.283-.541-.697-.637.97.087 1.579.137 2.502.745-1.294-.948-2.602-1.395-4.037-1.043.496.115.964.252 1.212.561-1.488-.374-2.238.112-2.615 1.033a3.796 3.796 0 0 1 1.862-.395c-.801.21-1.074.852-1.02 1.76.264-.408.574-.744 1.033-.842-.543.333-.662.922-.497 1.684.134-.423.342-.775.752-.931l.072-.068c-.283.05-.533.16-.697.297Z" fill="#C8D3DD"/><path d="M8.314 6.764c-.41.156-.69.576-.824.999-.165-.762-.046-1.351.497-1.684-.46.098-.769.434-1.033.842-.054-.908.219-1.55 1.02-1.76a3.797 3.797 0 0 0-1.862.395C6.49 4.635 7.24 4.15 8.727 4.523c-.248-.309-.716-.446-1.212-.56 1.482-.364 2.851.135 4.183 1.151" stroke="#000" stroke-width=".103" stroke-linecap="round" stroke-linejoin="round"/><path d="M4.69 13.782s-.342-.094-.828.07c-.405.138-.609.603-.666.755.04.146.16.497.48.884.421.51 1.123.357 1.442.332" stroke="#000" stroke-width=".103" stroke-miterlimit="10"/><path d="M11.166 12.878c.808 0 1.463-.864 1.463-1.929s-.655-1.93-1.463-1.93-1.462.865-1.462 1.93c0 1.066.654 1.93 1.462 1.93Z" fill="#EBEDEF" stroke="#000" stroke-width=".103" stroke-linecap="round" stroke-linejoin="round"/><path d="M11.252 12.66c.59 0 1.07-.67 1.07-1.495 0-.826-.48-1.496-1.07-1.496-.591 0-1.07.67-1.07 1.495 0 .827.479 1.496 1.07 1.496Z" fill="url(#i)"/><path d="M11.252 12.66c.59 0 1.07-.67 1.07-1.495 0-.826-.48-1.496-1.07-1.496-.591 0-1.07.67-1.07 1.495 0 .827.479 1.496 1.07 1.496Z" stroke="#0D257C" stroke-width=".068" stroke-miterlimit="10"/><path d="M11.205 12.318c.406 0 .736-.46.736-1.029 0-.568-.33-1.029-.736-1.029-.407 0-.736.461-.736 1.03 0 .567.33 1.028.736 1.028Z" fill="#000"/><path d="M10.864 10.95c.167 0 .302-.165.302-.366 0-.202-.135-.366-.302-.366-.167 0-.303.164-.303.366 0 .201.136.365.303.365Zm.775 1.196c.073 0 .132-.071.132-.16 0-.088-.06-.16-.132-.16-.073 0-.133.072-.133.16 0 .089.06.16.133.16Z" fill="#fff"/><path d="M5.73 12.588c.622 0 1.127-.665 1.127-1.487 0-.821-.505-1.487-1.128-1.487-.622 0-1.127.666-1.127 1.487 0 .821.505 1.487 1.127 1.487Z" fill="#EBEDEF" stroke="#000" stroke-width=".103" stroke-linecap="round" stroke-linejoin="round"/><path d="M5.765 12.38c.455 0 .824-.516.824-1.152 0-.637-.369-1.152-.824-1.152-.455 0-.824.515-.824 1.152 0 .636.369 1.152.824 1.152Z" fill="url(#j)"/><path d="M5.765 12.38c.455 0 .824-.516.824-1.152 0-.637-.369-1.152-.824-1.152-.455 0-.824.515-.824 1.152 0 .636.369 1.152.824 1.152Z" stroke="#0D257C" stroke-width=".068" stroke-miterlimit="10"/><path d="M5.73 12.116c.312 0 .566-.355.566-.792 0-.438-.254-.793-.567-.793-.313 0-.567.355-.567.793 0 .437.254.792.567.792Z" fill="#000"/><path d="M5.62 11.037c.128 0 .233-.126.233-.282 0-.155-.105-.281-.233-.281-.129 0-.233.126-.233.281 0 .156.104.282.233.282Zm.403.973c.057 0 .102-.056.102-.124s-.045-.123-.102-.123c-.056 0-.102.055-.102.123s.046.124.102.124Z" fill="#fff"/><path d="M10.079 7.822c2.207-1.048 3.703.56 3.12 1.198-.468.511-1.076.108-1.773.359-.897.322-1.207 1.504-2.266 1.3-.738-.142-.855-2.015.919-2.857Z" fill="url(#k)"/><path d="M13.262 8.403a.475.475 0 0 1-.123.268c-.468.511-1.076.108-1.772.359-.897.323-1.208 1.504-2.266 1.3-.207-.04-.365-.215-.447-.466.018.429.213.758.506.815 1.059.204 1.37-.978 2.266-1.3.697-.251 1.305.152 1.773-.36.149-.161.162-.387.063-.616Z" fill="#525F6D"/><path d="M12.628 7.735c.632.338.88.946.57 1.285-.467.511-1.075.108-1.772.359-.897.322-1.208 1.504-2.266 1.3-.37-.071-.558-.573-.43-1.162m.38-.821c.11-.306.424-.874 1.53-.874" stroke="#000" stroke-width=".103" stroke-linecap="round" stroke-linejoin="round"/><path d="M6.517 8.497c-1.358-.731-2.152.284-1.752.722.321.35.312.231.79.403.615.222.828 1.033 1.554.893.507-.098.593-1.379-.592-2.018Z" fill="url(#l)"/><path d="M5.67 9.498c.64.137.754.918 1.48.778.142-.028.25-.148.307-.32-.012.294-.146.52-.348.56-.726.139-.939-.672-1.554-.894a1.758 1.758 0 0 0-.593-.074c.224-.095.477-.1.708-.05Z" fill="#525F6D"/><path d="M4.99 9.563c.176-.006.365-.013.564.06.616.22.829 1.032 1.555.892.254-.049.865-1.032-.64-2.05" stroke="#000" stroke-width=".103" stroke-linecap="round" stroke-linejoin="round"/><path d="M10.85 14.187c-.065 3.591-1.892 4.522-2.872 4.595-.989.072-1.204-.444-1.122-1.65l-.043-1.037 2.998-1.962c.402.1 1.04.021 1.04.054Z" fill="#050000"/><path d="M10.532 16.347c-.54-.456-1.186-.6-1.92.113-.915-.104-1.437.227-1.764.802a4.24 4.24 0 0 0 .008.626l.032.208c.11.516.424.735 1.09.686.744-.055 1.975-.605 2.554-2.435Z" fill="#DB7572"/><path d="M8.612 16.397c-.151.041-.326.51-.3.659" stroke="#000" stroke-width=".103" stroke-linecap="round" stroke-linejoin="round"/><path d="M7.647 18.781c-.219-.02-.385-.085-.507-.196.06-.184.138-.358.246-.516a.114.114 0 0 1 .206.042c.04.212.057.437.055.67Zm-.508-.196c.091-.374.098-.763.027-1.166a.113.113 0 0 0-.164-.08l-.16.083c-.015.567.062.95.297 1.163Zm1.748-1.076a.113.113 0 0 0-.184.077 4.88 4.88 0 0 0 .015 1.005c.24-.105.491-.259.733-.473-.12-.21-.318-.412-.564-.609Zm-1.046.583a2.373 2.373 0 0 0-.19.69c.098.008.207.008.327 0a2.29 2.29 0 0 0 .727-.186c-.065-.2-.15-.386-.271-.545a.113.113 0 0 0-.202.048 2.452 2.452 0 0 0-.034.493 1.25 1.25 0 0 0-.156-.508.113.113 0 0 0-.201.008Z" fill="#DDD"/><path d="M7.139 18.585c.091-.374.098-.763.028-1.166a.113.113 0 0 0-.165-.08l-.16.083m1.864 1.174a1.82 1.82 0 0 0-.272-.545.113.113 0 0 0-.202.048 2.452 2.452 0 0 0-.033.493 1.25 1.25 0 0 0-.157-.508.113.113 0 0 0-.201.008 2.373 2.373 0 0 0-.19.69m-.511-.197c.06-.184.139-.358.246-.516a.114.114 0 0 1 .206.042c.041.212.057.437.055.67l-.507-.196Zm2.31-.467c-.12-.21-.316-.412-.563-.609a.113.113 0 0 0-.184.077 4.88 4.88 0 0 0 .015 1.005l.733-.473Z" stroke="#000" stroke-width=".103" stroke-linecap="round" stroke-linejoin="round"/><path d="M10.85 14.178c-.033 3.673-1.883 4.53-2.872 4.604-.989.072-1.204-.444-1.122-1.65l-.043-1.037 4.038-1.917Z" stroke="#050000" stroke-width=".103" stroke-miterlimit="10" stroke-linejoin="round"/><path d="M10.334 13.498c-.275-1.138-1.767-1.684-3.53-1.258-1.764.425-2.85 1.47-2.668 2.626.324 2.054 1.629 1.85 2.152 1.365.5.178.92.272 1.51.13 1.763-.426 2.81-1.725 2.536-2.863Z" fill="url(#m)"/><path d="M9.95 14.17c-.35.768-1.216 1.456-2.41 1.744-.59.142-1.009.049-1.51-.13-.374.348-1.15.55-1.679-.117.495 1.182 1.495.973 1.937.564.5.178.92.272 1.51.13 1.385-.335 2.328-1.208 2.536-2.119-.156-.01-.336-.06-.385-.071Z" fill="#465363"/><path d="M8.597 12.146c-.53-.088-1.143-.063-1.794.094-1.763.425-2.85 1.47-2.667 2.626.324 2.054 1.629 1.85 2.152 1.365.5.178.92.272 1.51.13 1.343-.325 2.27-1.156 2.515-2.036" stroke="#000" stroke-width=".103" stroke-linecap="round" stroke-linejoin="round"/><path d="M4.426 13.713c-.431.444.12 1.42 1.13 1.906 1.248-.06 2.291-1.114 2.124-1.77-.13-.513-.721-.653-1.51-.706-.648-.043-1.415.23-1.744.57Z" fill="url(#n)"/><path d="M5.725 15.619c.737-.038 1.353-.703 1.254-1.116-.077-.323-1.85.81-1.254 1.116Zm-.275-.02c-.19-.046-.469-.286-.587-.546-.185-.403-.215-.8-.123-.674.152.21.182.391.288.653.073.178.265.368.423.567Z" fill="#000100"/><path d="M4.426 13.713c-.431.444.12 1.42 1.13 1.906 1.248-.06 2.291-1.114 2.124-1.77-.13-.513-.721-.653-1.51-.706-.648-.043-1.415.23-1.744.57v0Z" stroke="#000" stroke-width=".103" stroke-linecap="round" stroke-linejoin="round"/><path d="M15.698 16.628c.263-.522.528-1.304.12-1.783-.647-.757-1.072-.655-1.072-.655.29-.102.657-.017.944.017-.46-.384-1.003-.602-1.473-.34.13-.253.448-.296.784-.433-1.955-.758-3.525 1.134-5.052.737" stroke="#000" stroke-width=".103" stroke-miterlimit="10" stroke-linejoin="round"/><defs><radialGradient id="l" cx="0" cy="0" r="1" gradientUnits="userSpaceOnUse" gradientTransform="matrix(-1.49829 0 0 -1.49912 6.766 8.31)"><stop stop-color="#BCC7D0"/><stop offset=".282" stop-color="#AFBBC5"/><stop offset=".79" stop-color="#909DA9"/><stop offset="1" stop-color="#818F9C"/></radialGradient><radialGradient id="a" cx="0" cy="0" r="1" gradientUnits="userSpaceOnUse" gradientTransform="translate(14.642 3.456) scale(3.91758)"><stop stop-color="#BCC7D0"/><stop offset=".434" stop-color="#B9C4CE"/><stop offset=".633" stop-color="#B2BDC7"/><stop offset=".783" stop-color="#A5B1BC"/><stop offset=".909" stop-color="#93A0AC"/><stop offset="1" stop-color="#818F9C"/></radialGradient><radialGradient id="d" cx="0" cy="0" r="1" gradientUnits="userSpaceOnUse" gradientTransform="rotate(170.363 2.06 2.314) scale(3.07735)"><stop stop-color="#BCC7D0"/><stop offset=".434" stop-color="#B9C4CE"/><stop offset=".633" stop-color="#B2BDC7"/><stop offset=".783" stop-color="#A5B1BC"/><stop offset=".909" stop-color="#93A0AC"/><stop offset="1" stop-color="#818F9C"/></radialGradient><radialGradient id="f" cx="0" cy="0" r="1" gradientUnits="userSpaceOnUse" gradientTransform="matrix(-1.59512 .71751 -1.25233 -2.7841 5.458 5.631)"><stop offset=".263" stop-color="#C6CFD6"/><stop offset=".508" stop-color="#C3CCD3"/><stop offset=".663" stop-color="#BAC4CC"/><stop offset=".793" stop-color="#ACB6C0"/><stop offset=".909" stop-color="#97A3AE"/><stop offset="1" stop-color="#818F9C"/></radialGradient><radialGradient id="g" cx="0" cy="0" r="1" gradientUnits="userSpaceOnUse" gradientTransform="translate(8.458 9.206) scale(7.6519)"><stop stop-color="#95A0AA"/><stop offset="1" stop-color="#657280"/></radialGradient><radialGradient id="h" cx="0" cy="0" r="1" gradientUnits="userSpaceOnUse" gradientTransform="translate(9.099 9.156) scale(6.53305)"><stop stop-color="#95A0AA"/><stop offset="1" stop-color="#657280"/></radialGradient><radialGradient id="k" cx="0" cy="0" r="1" gradientUnits="userSpaceOnUse" gradientTransform="translate(8.472 7.99) scale(2.3529)"><stop stop-color="#BCC7D0"/><stop offset=".315" stop-color="#AAB6C0"/><stop offset=".893" stop-color="#818F9C"/></radialGradient><radialGradient id="c" cx="0" cy="0" r="1" gradientUnits="userSpaceOnUse" gradientTransform="matrix(2.15489 .56061 -.97848 3.7611 13.707 5.397)"><stop offset=".263" stop-color="#C6CFD6"/><stop offset=".508" stop-color="#C3CCD3"/><stop offset=".663" stop-color="#BAC4CC"/><stop offset=".793" stop-color="#ACB6C0"/><stop offset=".909" stop-color="#97A3AE"/><stop offset="1" stop-color="#818F9C"/></radialGradient><radialGradient id="m" cx="0" cy="0" r="1" gradientUnits="userSpaceOnUse" gradientTransform="translate(6.991 11.723) scale(3.68057)"><stop stop-color="#BCC7D0"/><stop offset=".33" stop-color="#9BA7B2"/><stop offset=".769" stop-color="#75828F"/><stop offset="1" stop-color="#677482"/></radialGradient><radialGradient id="n" cx="0" cy="0" r="1" gradientUnits="userSpaceOnUse" gradientTransform="translate(5.835 13.562) scale(1.75018)"><stop stop-color="#585958"/><stop offset=".409" stop-color="#555655"/><stop offset=".596" stop-color="#4E4F4E"/><stop offset=".738" stop-color="#414242"/><stop offset=".856" stop-color="#2F3030"/><stop offset=".96" stop-color="#18191A"/><stop offset="1" stop-color="#0D0E0F"/></radialGradient><linearGradient id="b" x1="15.915" y1="9.701" x2="15.915" y2="2.432" gradientUnits="userSpaceOnUse"><stop stop-color="#8C332E"/><stop offset=".061" stop-color="#993F3A"/><stop offset=".168" stop-color="#AA4E4A"/><stop offset=".3" stop-color="#B65955"/><stop offset=".485" stop-color="#BD5F5C"/><stop offset="1" stop-color="#BF615E"/></linearGradient><linearGradient id="e" x1="4.313" y1="9.255" x2="3.357" y2="3.625" gradientUnits="userSpaceOnUse"><stop stop-color="#8C332E"/><stop offset=".061" stop-color="#993F3A"/><stop offset=".168" stop-color="#AA4E4A"/><stop offset=".3" stop-color="#B65955"/><stop offset=".485" stop-color="#BD5F5C"/><stop offset="1" stop-color="#BF615E"/></linearGradient><linearGradient id="i" x1="11.25" y1="12.604" x2="11.252" y2="10.464" gradientUnits="userSpaceOnUse"><stop stop-color="#56D6FC"/><stop offset=".103" stop-color="#52CDF6"/><stop offset=".264" stop-color="#49B7E6"/><stop offset=".463" stop-color="#3A94CC"/><stop offset=".691" stop-color="#2662A8"/><stop offset=".933" stop-color="#0D257C"/></linearGradient><linearGradient id="j" x1="5.764" y1="12.336" x2="5.766" y2="10.688" gradientUnits="userSpaceOnUse"><stop stop-color="#56D6FC"/><stop offset=".103" stop-color="#52CDF6"/><stop offset=".264" stop-color="#49B7E6"/><stop offset=".463" stop-color="#3A94CC"/><stop offset=".691" stop-color="#2662A8"/><stop offset=".933" stop-color="#0D257C"/></linearGradient></defs></svg>