<svg width="20" height="20" fill="none" xmlns="http://www.w3.org/2000/svg"><g clip-path="url(#a)"><circle cx="10" cy="10" r="10" fill="#072723"/><path d="M17 9.934c0 4.683-2.832 6.186-4.325 4.848-1.228-1.091-1.594-3.397-3.442-3.633-2.345-.299-2.548 2.86-4.09 2.86C3.344 14.01 3 11.366 3 10.007c0-1.39.386-3.283 1.919-3.283 1.787 0 1.888 2.707 4.122 2.563 2.223-.155 2.264-2.975 3.705-4.18C14.006 4.068 17 5.19 17 9.935Z" fill="#97FCE4"/></g><defs><clipPath id="a"><path fill="#fff" d="M0 0h20v20H0z"/></clipPath></defs></svg>