<svg xmlns="http://www.w3.org/2000/svg" width="21" height="20" fill="none"><g clip-path="url(#a)"><path fill="#F0F0F0" d="M10.5 20c5.523 0 10-4.477 10-10s-4.477-10-10-10S.5 4.477.5 10s4.477 10 10 10Z"/><path fill="#FF9811" d="M10.5 0a10 10 0 0 0-9.008 5.652h18.016A10 10 0 0 0 10.5 0Z"/><path fill="#6DA544" d="M10.5 20a10 10 0 0 0 9.008-5.652H1.492A10 10 0 0 0 10.5 20Z"/><path fill="#0052B4" d="M10.5 13.478a3.478 3.478 0 1 0 0-6.956 3.478 3.478 0 0 0 0 6.956Z"/><path fill="#F0F0F0" d="M10.5 12.174a2.174 2.174 0 1 0 0-4.348 2.174 2.174 0 0 0 0 4.348Z"/><path fill="#0052B4" d="m10.5 7.317.67 1.521 1.653-.18L11.841 10l.982 1.341-1.652-.18-.671 1.522-.67-1.521-1.653.18L9.159 10l-.982-1.341 1.652.18.67-1.522Z"/></g><defs><clipPath id="a"><path fill="#fff" d="M.5 0h20v20H.5z"/></clipPath></defs></svg>