<svg width="20" height="20" fill="none" xmlns="http://www.w3.org/2000/svg"><g clip-path="url(#a)"><path d="M9.915 19.78c5.434 0 9.84-4.406 9.84-9.84 0-5.435-4.406-9.841-9.84-9.841-5.435 0-9.84 4.406-9.84 9.84 0 5.435 4.405 9.84 9.84 9.84Z" fill="#FFB719"/><path d="M9.914 18.931a8.992 8.992 0 1 0 0-17.983 8.992 8.992 0 0 0 0 17.983Z" fill="#070707"/><path d="m14.435 10.604-2.479.18-.124-1.832.498-1.469 1.428 2.034.677 1.087Z" fill="#AC8400"/><path d="M3.35 16.103a.14.14 0 0 1 .069.07c-.072.025-.072-.023-.068-.07ZM3.318 16.201c-.005.002-.013.008-.017.006-.004-.002-.005-.01-.007-.017.006-.002.013-.007.017-.006.005.002.005.011.007.017ZM10.304 9.369l.078-1.29a.323.323 0 0 1 .056-.158c.467-.723.933-1.446 1.398-2.171a.182.182 0 0 1 .18-.099c.37.008.742.007 1.113.007a.473.473 0 0 1 .237.06c.413.23.827.456 1.243.681.06.032.108.082.137.143.1.19.205.379.307.569a.278.278 0 0 0 .108.11c.62.377 1.24.755 1.858 1.135.045.028.141.054.118.095a.237.237 0 0 1-.207.15c-.258-.004-.516-.001-.773-.001-.256 0-.513 0-.78.021.135.089.27.179.407.265.192.121.384.241.577.36.043.026.074.052.056.107a.093.093 0 0 0-.075-.009l-1.236.27a.246.246 0 0 1-.175-.017 24.73 24.73 0 0 1-1.218-.675.705.705 0 0 1-.214-.138c.036-.034.076-.02.111-.02.254-.002.508 0 .762 0 .287 0 .305-.026.212-.309a.175.175 0 0 0-.01-.02.345.345 0 0 0 0-.068c-.054-.273-.105-.548-.165-.82a5.046 5.046 0 0 0-.147-.647 1.198 1.198 0 0 0-.015-.134c-.01-.125-.079-.16-.189-.138-.104.015-.209.023-.314.026-.347.035-.694.068-1.04.113-.087.011-.187-.015-.261.058l-.114-.003a.118.118 0 0 0-.096-.01c-.017.008-.057.012-.019.038.036.02.075.035.114.046.443.17.879.36 1.33.509.088.015.169.06.228.129.201.278.411.548.618.823a.591.591 0 0 1-.25-.064c-.315-.106-.632-.204-.944-.318a24.39 24.39 0 0 0-.843-.292.194.194 0 0 0-.215.052c-.144.138-.296.269-.446.4-.33.287-.657.576-.992.857-.16.154-.333.294-.517.419l-.001-.006.008-.036Z" fill="#FFB719"/><path d="M14.574 8.433a.175.175 0 0 1 .01.02c.093.283.075.309-.212.309h-.762c-.035 0-.075-.014-.111.02a.705.705 0 0 0 .214.138c.4.235.804.464 1.218.675a.246.246 0 0 0 .175.018c.412-.092.824-.18 1.236-.27a.093.093 0 0 1 .075.008v.024c-.06.045-.064.13-.132.171-.14.09-.272.188-.408.283l-.942.66c-.032.023-.08.034-.08.086-.14.01-.28.017-.42.028a.111.111 0 0 1-.11-.057c-.627-.868-1.223-1.758-1.834-2.637-.047-.067-.085-.14-.14-.23l-.064.607c-.055.565-.107 1.129-.163 1.695-.025.254-.056.507-.081.762-.007.07-.026.09-.087.04l-1.66-1.373c.184-.125.356-.265.516-.419.335-.28.663-.57.992-.857.15-.13.303-.261.446-.4a.194.194 0 0 1 .215-.052c.284.09.564.192.844.293.312.113.629.212.943.317.078.04.163.062.25.064l.072.077ZM13.805 15.598a4.294 4.294 0 0 1-.506.249c-.728.34-1.457.68-2.186 1.016-.034.016-.07.028-.122.049l.897-2.24a.462.462 0 0 1 .052.018c.488.236.978.47 1.463.712.14.051.275.117.402.196Z" fill="#E0A525"/><path d="M13.806 15.598a2.139 2.139 0 0 0-.402-.196c-.486-.242-.975-.476-1.464-.712a.482.482 0 0 0-.052-.019l-.962-2.432c-.014-.035-.023-.072-.032-.108l.018-.017c.836 1.01 1.687 2.01 2.55 2.998.122.14.243.28.362.422.018.023.067.064-.018.064ZM14.581 14.833c-.04.017-.04.018-.073-.019-.232-.264-.466-.526-.695-.793a52.63 52.63 0 0 0-1.41-1.584 2.176 2.176 0 0 1-.25-.312c.057.026.115.048.17.077.951.51 1.912 1.002 2.873 1.495.083.043.165.09.247.136a.073.073 0 0 1-.064.018c-.237-.018-.475-.026-.71-.06-.292-.042-.316-.024-.254.256.06.261.111.523.166.786ZM9.709 5.537c-.073-.01-.039.04-.03.062.04.106.084.21.128.314.188.43.4.849.57 1.286a2.4 2.4 0 0 1 .027.072c-.336-.215-.649-.423-.971-.615a.29.29 0 0 1-.154-.29c0-.25-.017-.5-.032-.749a.233.233 0 0 1 .067-.2c.152-.153.296-.314.44-.474a.081.081 0 0 1 .125-.017c.466.304.936.601 1.4.908.096.064-.027.103-.043.156a.197.197 0 0 0-.118-.076c-.258-.064-.513-.145-.772-.207a4.676 4.676 0 0 0-.637-.17Z" fill="#FFB719"/><path d="M16.125 11.24c.078.094.065.17-.017.263-.237.269-.463.547-.692.82l-1.67-1.313.947-.056c-.023.03-.01.05.008.08.182.271.378.533.574.795.164.219.157.213.336-.007.158-.205.33-.4.514-.581Z" fill="#E0A525"/><path d="M16.125 11.24a5.612 5.612 0 0 0-.514.582c-.18.22-.173.225-.336.006-.196-.262-.393-.523-.574-.795-.02-.03-.032-.05-.008-.08.387-.025.776-.05 1.165-.078a.106.106 0 0 1 .12.072c.045.1.098.197.147.294ZM14.852 10.577c.002-.053.049-.065.081-.087l.943-.66c.135-.095.268-.193.407-.282.067-.044.073-.127.132-.172 0 .174.004.347.005.52a.242.242 0 0 1-.08.187c-.148.14-.294.281-.437.426a.106.106 0 0 1-.08.032l-.97.036Z" fill="#FFB719"/><path d="M14.58 14.833c-.054-.262-.106-.525-.164-.786-.063-.28-.038-.298.254-.256.234.032.473.041.71.06a.075.075 0 0 0 .064-.018c.086.012.087.045.03.102-.3.299-.597.598-.893.898Z" fill="#E0A525"/><path d="M9.708 5.537c.217.041.43.097.64.168.257.062.513.142.771.208.047.01.09.037.118.075-.077.12-.16.237-.248.349-.022.032-.042.034-.073.013a453.19 453.19 0 0 0-1.208-.813ZM6.803 7.69c.008-.02.023-.022.042-.013l-.023.03-.02-.017ZM10.89 12.13a.028.028 0 0 1-.015-.032c0-.004.003-.008.005-.011l.03.027-.02.017ZM10.303 9.369l-.009.037a.024.024 0 0 1-.004-.02.024.024 0 0 1 .013-.017ZM8.79 16.898h-.005l.004-.005.002.005ZM14.262 6.898l-1.82-.075c.075-.073.175-.047.262-.058.345-.045.693-.078 1.04-.113.104-.003.21-.011.313-.026.11-.023.18.013.19.138.007.045.012.09.015.134ZM12.33 6.82a.126.126 0 0 1-.098-.01.118.118 0 0 1 .097.01ZM11.618 4.666 9.814 2.535l-2.377.423.575.316L11.59 4.67l.028-.003Z" fill="#FFB719"/><path d="M11.59 4.668 8.012 3.273l2.68 1.473.898-.078Z" fill="#E0A525"/><path d="m13.255 5.325-.511-2.104-1.678-.646 2.19 2.75ZM9.717 18.437a8.565 8.565 0 0 1-.467-.024l.045-.567c.144.012.29.02.437.023l-.015.568Zm.469 0-.017-.568c.146-.004.293-.012.437-.024l.048.566a9.31 9.31 0 0 1-.468.025v.001Zm-1.402-.074a8.23 8.23 0 0 1-.463-.076l.108-.558c.142.028.287.051.431.07l-.076.564Zm2.335-.004-.078-.563c.143-.02.29-.044.431-.072l.11.558c-.153.03-.309.055-.463.077Zm-3.255-.173a8.644 8.644 0 0 1-.452-.127l.169-.542c.138.043.28.082.42.118l-.137.551Zm4.174-.007-.14-.55c.141-.037.283-.077.42-.12l.17.542a8.252 8.252 0 0 1-.45.127v.001Zm-5.07-.271a8.28 8.28 0 0 1-.435-.177l.227-.52c.134.058.27.114.406.164l-.198.533Zm5.965-.01-.2-.532c.135-.05.27-.106.403-.164l.23.52a9.313 9.313 0 0 1-.433.176Zm-6.825-.366a8.517 8.517 0 0 1-.413-.223l.284-.493c.126.073.256.143.385.209l-.256.507Zm7.68-.011-.258-.506c.13-.065.258-.137.384-.21l.285.492a8.067 8.067 0 0 1-.41.223Zm-8.492-.458c-.13-.085-.26-.174-.388-.267l.337-.458c.117.086.238.17.36.25l-.31.475Zm9.302-.012-.312-.475c.121-.08.242-.163.359-.25l.337.458a7.428 7.428 0 0 1-.384.267ZM4.54 16.51a9.404 9.404 0 0 1-.355-.308l.384-.42c.107.098.218.194.33.288l-.36.44Zm10.811-.014-.362-.438c.112-.092.223-.189.33-.287l.385.419c-.114.103-.233.207-.353.306Zm-11.501-.62a7.857 7.857 0 0 1-.318-.344l.428-.374c.096.11.195.217.296.322l-.406.396Zm12.19-.015-.408-.396c.1-.104.2-.212.296-.322l.429.373a8.451 8.451 0 0 1-.318.345Zm-12.807-.69a7.538 7.538 0 0 1-.278-.377l.466-.325c.083.12.17.238.258.352l-.446.35Zm13.421-.017-.448-.348c.089-.115.176-.234.258-.353l.467.322c-.087.129-.18.256-.277.379Zm-13.956-.751a7.9 7.9 0 0 1-.235-.405l.499-.272c.069.128.143.255.219.378l-.483.299Zm14.49-.02-.483-.297c.076-.124.15-.251.218-.379l.5.27a9.047 9.047 0 0 1-.234.406ZM2.25 13.58a9.531 9.531 0 0 1-.189-.428l.526-.215c.055.134.114.269.177.4l-.514.243Zm15.384-.022-.513-.243c.062-.131.12-.266.175-.4l.527.213a8.54 8.54 0 0 1-.188.43Zm-15.738-.845c-.05-.147-.097-.297-.14-.447l.546-.155c.04.14.083.28.13.417l-.536.185Zm16.091-.025-.538-.184c.047-.137.091-.278.13-.418l.548.154c-.043.15-.09.3-.14.447ZM1.64 11.812a8.489 8.489 0 0 1-.09-.46l.56-.094a7.7 7.7 0 0 0 .085.43l-.555.124Zm16.602-.027-.555-.123c.032-.141.06-.286.083-.429l.56.092a8.235 8.235 0 0 1-.088.46Zm-16.756-.897a8.987 8.987 0 0 1-.04-.466l.568-.033c.008.146.02.29.036.436l-.564.063Zm16.908-.027-.565-.061a8.17 8.17 0 0 0 .035-.436l.567.03c-.008.155-.02.312-.037.466v.001ZM1.432 9.953v-.018c0-.156.004-.313.012-.468l.568.032c-.008.145-.012.29-.012.437v.018h-.568Zm16.442-.026c0-.146-.004-.293-.012-.438l.567-.032c.009.155.013.313.013.468l-.568.002ZM2.047 9.062 1.483 9c.016-.155.038-.31.064-.464l.56.093a8.062 8.062 0 0 0-.06.432Zm15.779-.009a8.023 8.023 0 0 0-.06-.433l.56-.093c.026.153.048.31.065.464l-.565.062ZM9.937 19.872c-.071 0-.144 0-.216-.002l.013-.569c.146.004.294.003.439 0l.014.568a15.99 15.99 0 0 1-.25.003Zm-.68-.023a9.87 9.87 0 0 1-.465-.043l.065-.564c.145.017.29.03.437.04l-.038.567Zm1.395-.003-.04-.566c.145-.01.292-.025.437-.042l.067.564a9.69 9.69 0 0 1-.464.044Zm-2.321-.104a9.802 9.802 0 0 1-.458-.085l.118-.556c.142.03.287.057.431.08l-.091.561Zm3.246-.005-.093-.56c.144-.024.29-.052.431-.082l.12.555c-.151.033-.306.062-.458.087ZM7.42 19.55c-.15-.04-.3-.082-.448-.13l.17-.541c.138.043.28.083.421.12l-.143.551Zm5.067-.008-.145-.549a9.53 9.53 0 0 0 .422-.122l.17.542c-.147.045-.297.089-.447.129Zm-5.958-.27c-.145-.053-.29-.11-.434-.17l.22-.525c.134.057.272.111.41.162l-.196.533Zm6.847-.011-.197-.533c.136-.05.274-.105.407-.162l.222.524c-.143.06-.288.117-.434.17h.002Zm-7.707-.35c-.14-.067-.28-.138-.417-.21l.269-.502c.129.069.26.136.392.199l-.244.513Zm8.563-.012-.246-.513c.13-.063.262-.129.39-.199l.27.5c-.136.074-.275.145-.414.212Zm-9.386-.429a9.802 9.802 0 0 1-.394-.248l.314-.474c.122.081.247.16.372.235l-.292.487Zm10.204-.013-.293-.487c.125-.075.25-.154.37-.235l.316.473c-.128.086-.26.17-.393.25Zm-10.98-.502a9.847 9.847 0 0 1-.37-.284l.357-.442c.114.091.23.182.348.268l-.335.458Zm11.754-.014-.337-.457c.117-.087.235-.177.348-.269l.358.441c-.12.098-.244.193-.369.285Zm-12.48-.571a10.29 10.29 0 0 1-.34-.317l.396-.407c.105.102.213.202.323.299l-.378.425Zm13.203-.015-.378-.424c.109-.097.217-.198.323-.3l.397.406c-.112.108-.227.215-.342.318Zm-13.87-.635c-.106-.113-.21-.23-.31-.347l.432-.369c.095.111.194.222.292.328l-.415.388Zm14.534-.017-.415-.387c.099-.106.197-.217.29-.328l.433.367a8.534 8.534 0 0 1-.306.348h-.002Zm-15.138-.692a10.076 10.076 0 0 1-.276-.374l.465-.327c.083.12.17.238.26.354l-.45.347Zm15.742-.018-.452-.347c.09-.115.177-.234.26-.355l.466.325c-.087.128-.18.255-.274.377ZM1.54 15.25a9.01 9.01 0 0 1-.24-.398l.493-.282c.072.126.149.253.226.376l-.48.304Zm16.808-.021-.48-.303c.078-.123.154-.25.226-.377l.494.28c-.076.133-.157.268-.24.399v.001Zm-17.27-.787a9.837 9.837 0 0 1-.2-.42l.517-.233c.06.132.124.265.19.395l-.506.258Zm17.73-.024-.507-.258c.065-.13.13-.264.19-.397l.518.232a9.783 9.783 0 0 1-.2.421v.002ZM.696 13.596a9.446 9.446 0 0 1-.161-.437l.538-.184c.047.138.096.276.152.412l-.529.21Zm18.494-.029-.529-.208c.053-.136.104-.274.151-.413l.539.183c-.05.145-.105.293-.161.437v.001ZM.394 12.715a9.874 9.874 0 0 1-.12-.452l.553-.132c.034.141.072.284.113.424l-.546.16Zm19.097-.033-.546-.156a9.6 9.6 0 0 0 .11-.425l.554.13c-.037.151-.077.303-.12.451h.002ZM.177 11.808a9.897 9.897 0 0 1-.076-.46l.563-.08c.02.145.044.29.072.433l-.559.107Zm19.528-.032-.558-.105c.027-.143.05-.288.07-.433l.563.078c-.022.154-.047.309-.076.46h.001Zm-19.659-.89a8.9 8.9 0 0 1-.032-.465l.567-.027c.007.146.018.293.033.438l-.568.053Zm19.788-.033-.566-.052c.013-.145.023-.292.03-.438l.568.026c-.008.155-.02.31-.033.465ZM0 9.955v-.02c0-.156.004-.312.011-.467l.567.027c-.006.145-.01.293-.01.439v.02l-.568.001Zm19.306-.032c0-.146-.003-.294-.01-.44l.567-.026c.008.154.011.31.011.465h-.568ZM.61 9.055l-.566-.052c.014-.154.032-.31.054-.462l.563.078a8.165 8.165 0 0 0-.052.438l.001-.002Zm18.656-.01c-.014-.145-.032-.29-.051-.436l.562-.08c.022.154.04.31.055.463l-.566.053ZM.732 8.186l-.558-.105c.028-.152.06-.306.096-.456l.553.132c-.034.143-.065.287-.094.43h.003Zm18.41-.01a9.11 9.11 0 0 0-.091-.43l.553-.132c.035.15.068.304.096.456l-.557.106ZM.936 7.332.39 7.174c.043-.148.09-.298.14-.444l.537.183c-.046.14-.091.28-.132.42l.001-.001Zm18.004-.01c-.04-.14-.085-.28-.132-.42l.538-.183c.05.147.096.296.14.445l-.546.158ZM1.219 6.5l-.53-.208a9.43 9.43 0 0 1 .182-.43l.518.232c-.06.135-.118.272-.172.408l.001-.002Zm17.436-.008a9.302 9.302 0 0 0-.17-.404l.518-.234c.064.141.124.285.18.429l-.528.209ZM1.58 5.698l-.507-.258c.07-.138.144-.276.221-.411l.494.28c-.073.132-.143.26-.209.39l.001-.001Zm16.716-.005a9.738 9.738 0 0 0-.208-.388l.494-.28c.077.134.15.272.22.409l-.506.259Zm-16.282-.76-.48-.303c.083-.131.17-.262.258-.387l.465.325c-.084.12-.166.244-.244.367l.001-.001Zm15.849-.002a9.443 9.443 0 0 0-.244-.366l.466-.325c.089.126.175.258.258.387l-.48.304ZM2.517 4.213l-.45-.347c.095-.122.194-.244.294-.362l.433.368a9.02 9.02 0 0 0-.278.343l.001-.002Zm14.841 0a9.73 9.73 0 0 0-.276-.34l.433-.369c.1.118.199.24.293.362l-.45.347ZM3.084 3.545l-.415-.387c.105-.113.215-.226.325-.333l.397.407a10.85 10.85 0 0 0-.307.313Zm13.704 0a9.759 9.759 0 0 0-.307-.314l.397-.406c.11.107.22.22.326.332l-.416.388ZM3.713 2.932l-.378-.424c.115-.103.235-.204.355-.302l.357.442a9.821 9.821 0 0 0-.334.284Zm12.447 0a8.484 8.484 0 0 0-.335-.284l.357-.442c.12.097.24.199.355.301l-.377.425ZM4.395 2.381l-.337-.458c.125-.091.253-.181.382-.267l.315.473a7.43 7.43 0 0 0-.36.25v.002Zm11.082 0a9.342 9.342 0 0 0-.36-.252l.314-.473c.129.086.258.175.382.267l-.336.458ZM5.125 1.897l-.292-.487c.132-.08.269-.157.404-.23l.27.5a7.736 7.736 0 0 0-.38.212l-.002.005Zm9.62-.002a9.728 9.728 0 0 0-.383-.217l.27-.5c.135.073.272.15.405.23l-.292.487Zm-8.848-.413L5.652.97c.14-.067.282-.131.424-.191l.221.523a6.563 6.563 0 0 0-.399.177v.003Zm8.073-.003a7.823 7.823 0 0 0-.401-.18l.22-.524c.143.06.286.125.426.191l-.245.513Zm-7.265-.337L6.508.608c.146-.053.294-.104.441-.15L7.12 1c-.138.04-.278.088-.415.138v.004Zm6.454-.004c-.137-.05-.277-.097-.416-.142l.17-.542c.148.047.296.097.442.15l-.196.534ZM7.542.878 7.397.33c.15-.04.302-.076.452-.108l.118.555c-.14.026-.283.06-.424.097l-.001.004ZM12.32.875a8.932 8.932 0 0 0-.427-.101l.118-.556c.152.032.305.068.454.107l-.145.55ZM8.4.695 8.308.133c.152-.025.307-.047.461-.065l.065.565A5.575 5.575 0 0 0 8.4.69v.003Zm3.062-.002a9.42 9.42 0 0 0-.435-.061l.064-.565c.154.018.309.04.462.065l-.091.56Zm-2.19-.1-.04-.568c.154-.01.31-.018.466-.021l.013.568c-.145 0-.293.007-.438.017v.003Zm1.318 0a9.457 9.457 0 0 0-.44-.02l.014-.569c.154.004.31.01.465.021l-.04.567ZM6.787 3.625 4.643 5.212l1.77-.097 2.343-.383-1.969-1.107Z" fill="#FFB719"/><path d="m8.756 4.733-2.343.384 2.76-.15-.417-.234ZM3.031 9.828l.484 2.793.236-1.501-.72-1.292Z" fill="#E0A525"/><path d="m3.031 9.828.719 1.292-.236 1.501.869-2.23 2.461-2.716-3.813 2.153ZM8.58 6.111l-4.334-.126.43.818-1.246.954-.374.838L8.58 6.111Z" fill="#FFB719"/><path d="M4.245 5.985H4.22l-.79 1.772 1.245-.953-.43-.819Z" fill="#E0A525"/><path d="M9.635 7.054 6.618 9.222l-1.915 1.793 1.774-.975-2.447 3.212 1.188-.352.153 2.052.777-3.238 3.487-4.66Z" fill="#FFB719"/><path d="m4.03 13.25-.044.057L5.36 15l.011-.049-.153-2.052-1.187.353Z" fill="#AC8400"/><path d="m7.407 11.247-1.252 4.457 1.477-1.076-.225-3.38Z" fill="#FFB719"/><path d="m8.789 16.895-1.154-2.247v-.02l-1.477 1.075-.004.013 2.635 1.179Z" fill="#AC8400"/><path d="m9.786 8.747-1.423 1.666.323 3.92 1.179 2.968.861-2.706-1.454-3.968.514-1.88Z" fill="#FFB719"/><path d="m9.69 11.8.04-2.869-.573 1.758.532 1.112Z" fill="#AC8400"/><path d="m9.164 10.69.668 3.516.032 3.098 1.012-3.091-1.712-3.524Z" fill="#E0A525"/><path d="M19.443 12.58c-.028-.026-.014-.038.016-.046l-.016.047ZM19.423 12.652l.012-.025c.004.013-.002.02-.012.025ZM2.14 8.146l-.015.06-.51-.12.013-.06.511.12ZM2.188 7.937l-.502-.15.018-.06.527-.226-.422-.127.018-.059.503.151-.018.06-.528.226.422.127-.018.058ZM2.04 6.888l.44.172-.021.057-.441-.172-.081.208-.048-.019.185-.473.048.019-.082.208ZM2.392 6.534l.143-.298.046.023-.143.298.166.08.149-.311.047.023-.175.366-.474-.226.176-.366.046.022-.148.31.167.08ZM2.677 5.58a.159.159 0 0 1 .206.124.219.219 0 0 1-.032.136l-.007.012.275-.08.003.003-.04.067-.279.08-.061.106.175.101-.032.054-.454-.262.135-.234a.241.241 0 0 1 .111-.106Zm.151.136a.116.116 0 0 0-.135-.081.17.17 0 0 0-.081.078l-.104.18.19.11.108-.188a.154.154 0 0 0 .02-.099h.002ZM3.214 5.631l-.43-.3.035-.051.572-.052-.361-.251.035-.05.43.3-.035.051-.572.052.361.25-.035.051ZM3.776 4.66l-.208.25.062.142-.044.052-.234-.546.04-.048.579.133-.044.053-.15-.035Zm-.349-.08.118.277.175-.209-.293-.068ZM3.847 4.092l.34.328-.042.044-.34-.328-.156.161-.037-.036.355-.365.037.036-.157.16ZM4.5 4.116l-.045.042-.356-.385.045-.042.356.385ZM4.468 3.784a.276.276 0 1 1 .387.036.265.265 0 0 1-.387-.036Zm.38-.31a.215.215 0 1 0-.027.306.208.208 0 0 0 .027-.307ZM5.21 3.53l-.295-.433.052-.035.553.156-.248-.364.05-.034.296.433-.052.036-.553-.156.248.363-.05.035ZM6.081 2.824l-.283.16.007.154-.06.032-.024-.594.055-.032.493.33-.06.033-.128-.083Zm-.297-.2.012.301.237-.133-.25-.168ZM6.44 2.74l.31-.146.022.048-.367.17-.221-.476.056-.026.2.43ZM7.269 2.45l-.059.02-.165-.499.244-.08c.05-.02.105-.021.155-.003a.18.18 0 0 1 .078.244.223.223 0 0 1-.125.088l-.185.061.057.17Zm.15-.513a.154.154 0 0 0-.113.003l-.186.062.076.23.185-.061a.161.161 0 0 0 .091-.065.138.138 0 0 0-.054-.169ZM8.109 1.71a.159.159 0 0 1 .053.233.221.221 0 0 1-.12.07l-.014.004.247.145v.003l-.076.018-.251-.147-.119.03.048.196-.06.015-.125-.51.262-.064a.24.24 0 0 1 .155.007Zm.006.203a.115.115 0 0 0-.035-.155.167.167 0 0 0-.112-.004l-.202.05.052.212.21-.052a.153.153 0 0 0 .089-.051h-.002ZM8.459 1.84l.326-.053.008.051-.326.053.03.181.34-.055.008.052-.401.064-.085-.516.401-.064.009.05-.34.056.03.181ZM8.978 1.785a.265.265 0 0 1 .253-.295.245.245 0 0 1 .254.126l-.052.017a.194.194 0 0 0-.198-.09.221.221 0 0 0 .037.44.2.2 0 0 0 .179-.123l.055.007a.25.25 0 0 1-.229.169.267.267 0 0 1-.299-.25ZM9.747 2.001h-.061l-.013-.524h.061l.013.524ZM9.942 1.73a.277.277 0 1 1 .267.283.265.265 0 0 1-.267-.282Zm.49.019a.215.215 0 0 0-.252-.213.214.214 0 0 0 .03.425.208.208 0 0 0 .223-.213v.001ZM10.762 1.76a.207.207 0 0 0 .174.26.208.208 0 0 0 .234-.209l.033-.241.061.008-.032.241a.268.268 0 0 1-.303.253.27.27 0 0 1-.23-.32l.033-.242.062.008-.032.241ZM11.8 1.738a.329.329 0 0 0-.083-.027.308.308 0 0 0-.085-.007c-.048.002-.104.015-.114.07-.014.08.081.096.171.123.105.03.26.061.215.214-.023.076-.11.097-.188.097a.497.497 0 0 1-.214-.056.168.168 0 0 1-.106-.171l.06.01a.118.118 0 0 0 .065.11.395.395 0 0 0 .204.053c.057 0 .104-.019.117-.057.038-.113-.107-.13-.17-.148-.093-.027-.245-.054-.216-.187.015-.072.087-.104.17-.109a.44.44 0 0 1 .197.041c.078.038.133.097.119.175l-.06-.012c.01-.06-.028-.094-.082-.119ZM12.349 2.37l.177-.493.062.022.123.371.332-.207.062.022-.178.494-.058-.022.147-.41-.31.191-.034-.012-.118-.346-.147.411-.058-.02ZM13.297 2.428l.3.139-.022.047-.3-.139-.077.167.312.144-.022.048-.369-.17.22-.477.37.17-.022.047-.313-.144-.077.168ZM14.093 2.622l-.23.413-.054-.03.23-.413-.193-.11.025-.044.443.248-.025.045-.196-.11ZM14.537 3.292l-.272-.178-.134.076-.057-.037.516-.295.053.035-.067.59-.057-.038.018-.153Zm.04-.355-.261.149.227.15.034-.3ZM14.778 3.572l.27.21-.031.041-.32-.248.322-.414.05.038-.291.373ZM15.673 3.774a.34.34 0 0 0-.128-.113c-.043-.023-.097-.04-.134.003-.052.062.023.123.087.192.076.079.196.183.079.293-.057.054-.143.028-.21-.012a.493.493 0 0 1-.158-.155.167.167 0 0 1-.006-.201l.047.039a.12.12 0 0 0 .002.129.395.395 0 0 0 .151.148c.05.027.1.035.13.008.088-.078-.03-.165-.074-.212-.067-.07-.186-.17-.097-.27a.161.161 0 0 1 .202-.01.422.422 0 0 1 .15.133.169.169 0 0 1 .016.211l-.046-.04c.04-.046.023-.094-.011-.143ZM16.137 4.892a.228.228 0 0 1-.123-.081l-.183-.211.397-.344.177.205c.03.032.05.073.053.117a.126.126 0 0 1-.17.122c.06.09-.05.21-.151.192Zm-.077-.41-.15.13.143.165c.022.03.054.05.09.06a.104.104 0 0 0 .105-.097.156.156 0 0 0-.045-.094l-.143-.163Zm.18.13a.129.129 0 0 0 .069.043.092.092 0 0 0 .093-.08.124.124 0 0 0-.036-.08l-.137-.159-.129.112.14.164ZM16.513 4.978a.207.207 0 0 0-.005.365.208.208 0 0 0 .247-.03l.197-.143.036.05-.197.143a.269.269 0 1 1-.314-.435l.197-.143.036.05-.197.143ZM16.754 5.73l.174.297-.044.026-.206-.35.451-.266.033.054-.408.24ZM17.034 6.215l.157.305-.046.024-.186-.36.466-.241.028.055-.42.217ZM17.232 6.74l-.025-.055.478-.217.025.056-.478.217ZM17.558 6.814a.276.276 0 1 1-.157.355.264.264 0 0 1 .157-.355Zm.175.46a.215.215 0 1 0-.282-.123.208.208 0 0 0 .282.122ZM17.563 7.599l.504-.143.017.061-.322.474.423-.12.017.06-.505.143-.017-.061.323-.474-.424.119-.017-.06Z" fill="#FFB719"/></g><defs><clipPath id="a"><path fill="#fff" d="M0 0h20v20H0z"/></clipPath></defs></svg>