<svg width="20" height="20" fill="none" xmlns="http://www.w3.org/2000/svg"><circle cx="10" cy="10" r="10" fill="#040404"/><path d="M9.48 7.168c0-.449.385-.814.856-.814h1.532V4.375h-1.532c-1.622 0-2.938 1.25-2.938 2.793 0 .402.09.785.252 1.13-1.26.506-2.097 1.582-2.292 2.943-.228 1.495.403 3.107 1.775 3.886 1.224.733 3.139.685 4.173-.332v.675h2.132V7.98h-3.1c-.472 0-.856-.365-.856-.813H9.48Zm1.873 2.793v1.88c0 1.039-.885 1.88-1.977 1.88s-1.978-.842-1.978-1.88c0-1.038.886-1.88 1.978-1.88h1.977Z" fill="#BFF009"/></svg>