<svg xmlns="http://www.w3.org/2000/svg" width="21" height="20" fill="none"><g clip-path="url(#a)"><path fill="#F0F0F0" d="M10.882 20c5.523 0 10-4.477 10-10s-4.477-10-10-10-10 4.477-10 10 4.477 10 10 10Z"/><path fill="#D80027" d="M14.36 10c0 .87-1.557 3.043-3.478 3.043-1.92 0-3.478-2.173-3.478-3.043a3.478 3.478 0 1 1 6.957 0Z"/><path fill="#0052B4" d="M14.36 10a3.478 3.478 0 0 1-6.956 0"/><path fill="#000" d="m15.494 12.152-.923.922.615.615.923-.922-.615-.615Zm-1.538 1.538-.922.922.615.615.922-.923-.615-.615Zm3.383.306-.923.923.615.614.922-.922-.614-.615Zm-1.538 1.538-.922.922.615.615.922-.922-.615-.615Zm.615-2.46-.922.923.615.614.922-.922-.615-.615Zm-1.536 1.538-.923.922.615.615.922-.923-.615-.614Zm-.923-10.146 2.46 2.46.614-.616-2.459-2.459-.615.615Zm-.922.923.922.922.615-.615-.922-.922-.615.615Zm1.537 1.537.922.922.615-.615-.923-.922-.614.615Zm.307-3.382.922.922.615-.615-.923-.922-.614.615Zm1.537 1.537.923.922.614-.614-.922-.923-.615.615Zm-9.53 11.375-2.46-2.46-.615.616 2.46 2.46.615-.616Zm.922-.922-.922-.923-.615.615.922.922.615-.614ZM6.27 13.997l-.922-.923-.614.615.922.922.615-.614Zm2.46.614-2.46-2.459-.614.615 2.46 2.46.614-.616ZM4.426 6.003l2.46-2.46-.615-.614-2.46 2.46.615.614Zm.922.922 2.46-2.46-.615-.614-2.46 2.46.615.614Zm.923.923 2.46-2.46-.615-.614-2.46 2.46.615.614Z"/></g><defs><clipPath id="a"><path fill="#fff" d="M.882 0h20v20h-20z"/></clipPath></defs></svg>