<svg width="20" height="20" fill="none" xmlns="http://www.w3.org/2000/svg"><circle cx="10" cy="10" r="10" fill="#000"/><path fill-rule="evenodd" clip-rule="evenodd" d="M14.173 8.191a1.025 1.025 0 0 1 .09-.274.975.975 0 0 1 .191-.257.043.043 0 0 1 .06 0 .976.976 0 0 1 .292.616v.011l.02-.001c.442-.029.718.143.883.319l.674.866a.09.09 0 0 1-.02.13l-.66.473a.093.093 0 0 1-.095.008c-.484-.229-1.16-.316-2.187.086-1.338.524-2.754 1.173-2.754 1.173s-1.839.883-3.578 1.267l.13.584c.914-.202 1.842-.532 2.532-.806a22.693 22.693 0 0 0 1.086-.464l.065-.031.008-.004a.273.273 0 0 0 .01-.004v-.001l.012-.005.046-.021a48.605 48.605 0 0 1 .804-.357 54.083 54.083 0 0 1 1.857-.774c.902-.354 1.404-.25 1.713-.103.22.104.488.09.7-.062l.66-.474a.688.688 0 0 0 .143-.982l-.691-.888-.019-.02a1.6 1.6 0 0 0-.874-.478c-.082-.185-.199-.35-.34-.487a.641.641 0 0 0-.893 0 1.567 1.567 0 0 0-.418.697c-.372.13-.676.165-.936.152-.332-.017-.636-.114-.976-.262a11.67 11.67 0 0 1-.376-.173C10.734 7.361 9.974 7 9.006 7c-1.217 0-2.069.391-2.786.72l-.095.044c-.73.333-1.32.578-2.189.478-.457-.053-.714-.126-1.036-.28-.269-.13-.57-.308-1.036-.585l-.56-.331L1 7.56l.535.316c1.118.664 1.44.855 2.332.959 1.081.125 1.817-.213 2.59-.567.716-.328 1.464-.671 2.549-.671.82 0 1.434.29 2.027.569.886.417 1.724.812 3.126.189a.97.97 0 0 1 .014-.165Z" fill="url(#a)"/><path fill-rule="evenodd" clip-rule="evenodd" d="M8.879 9.336c-.069-.18-.212-.38-.48-.581l.358-.478c.34.255.564.541.68.846.118.306.12.611.044.889-.128.47-.476.86-.866 1.076-.07.038-.087.132-.025.182.151.12.381.264.674.423.79.426 1.882.874 2.57 1.154l-.226.553c-.681-.277-1.805-.737-2.629-1.182-.401-.217-.775-.451-.977-.68-.095-.109-.215-.286-.18-.5.04-.232.23-.356.391-.42.302-.12.597-.419.69-.763a.823.823 0 0 0-.024-.519Z" fill="url(#b)"/><defs><radialGradient id="a" cx="0" cy="0" r="1" gradientUnits="userSpaceOnUse" gradientTransform="matrix(-5.79547 5.76802 -14.88802 -14.95887 11.433 7)"><stop offset=".563" stop-color="#fff"/><stop offset=".991" stop-color="#fff" stop-opacity="0"/></radialGradient><linearGradient id="b" x1="7.989" y1="10.435" x2="7.416" y2="9.073" gradientUnits="userSpaceOnUse"><stop stop-color="#fff"/><stop offset="1" stop-color="#fff" stop-opacity="0"/></linearGradient></defs></svg>