<svg width="20" height="20" fill="none" xmlns="http://www.w3.org/2000/svg"><g clip-path="url(#a)"><path fill="url(#b)" d="M0 0h20v20H0z"/><path d="m7.958 12.448.786-4.427h1.424l-.793 4.427h1.559l-.215 1.185H7.743l.215-1.184Zm1.095-6.134h3.298c1.444 0 2.116.834 1.908 1.972-.135.754-.706 1.363-1.357 1.568.692.18 1.162.828 1 1.734-.214 1.185-1.269 2.045-2.66 2.045l.216-1.204c.55-.086.927-.424 1.014-.927.1-.575-.202-.98-.927-.98h-1.29l.202-1.177h1.135c.658 0 1.122-.364 1.223-.92.1-.556-.202-.907-.907-.907h-3.07l.215-1.204Zm1.592-1.932c-3.433.244-6.408 2.97-6.408 2.97l.853.16a27.32 27.32 0 0 0-2.277 2.462 27.318 27.318 0 0 0 2.277 2.461l-.853.16s3.264 2.984 6.898 2.984h.108c3.278 0 5.938-2.508 5.938-5.612 0-2.945-2.405-5.36-5.468-5.592.007.007-1.068.007-1.068.007Z" fill="#fff"/></g><defs><linearGradient id="b" x1="19.844" y1="-.156" x2="0" y2="20" gradientUnits="userSpaceOnUse"><stop stop-color="#E2618A"/><stop offset=".488" stop-color="#972BBF"/><stop offset="1" stop-color="#1700FE"/></linearGradient><clipPath id="a"><path fill="#fff" d="M0 0h20v20H0z"/></clipPath></defs></svg>