<svg width="20" height="20" fill="none" xmlns="http://www.w3.org/2000/svg"><g clip-path="url(#a)"><circle cx="10" cy="10" r="10" fill="url(#b)"/><path d="M12.58 5.125v7.549c0 .095-.073.17-.166.17h-.718a.172.172 0 0 1-.133-.065l-2.91-3.822v6.873c0 .095-.074.17-.167.17H3.167A.167.167 0 0 1 3 15.83V4.17c0-.095.074-.17.167-.17h6.278c.093 0 .167.075.167.17v.78c0 .095-.074.17-.167.17H4.1v9.76h3.441V7.33c0-.095.074-.17.167-.17h.811c.05 0 .104.025.133.065l2.822 3.702V4.17c0-.095.073-.17.167-.17h5.19c.094 0 .168.075.168.17v11.66c0 .095-.074.17-.167.17h-6.155a.167.167 0 0 1-.167-.17v-.78c0-.095.074-.17.167-.17h5.22V5.124h-3.317Z" fill="#fff"/></g><defs><linearGradient id="b" x1="20" y1="10" x2="0" y2="10" gradientUnits="userSpaceOnUse"><stop stop-color="#50158B"/><stop offset=".61" stop-color="#2F0B52"/><stop offset="1" stop-color="#12051F"/></linearGradient><clipPath id="a"><path fill="#fff" d="M0 0h20v20H0z"/></clipPath></defs></svg>