<svg width="20" height="20" fill="none" xmlns="http://www.w3.org/2000/svg"><g clip-path="url(#a)"><circle cx="10" cy="10" r="10" fill="url(#b)"/><mask id="c" style="mask-type:luminance" maskUnits="userSpaceOnUse" x="0" y="0" width="20" height="20"><path d="M19.23.77H.77v18.46H19.23V.77Z" fill="#fff"/></mask><g mask="url(#c)"><mask id="d" style="mask-type:luminance" maskUnits="userSpaceOnUse" x="0" y="1" width="20" height="19"><path d="M19.23 1.189H.767V19.65h18.461V1.19Z" fill="#fff"/></mask><g mask="url(#d)"><mask id="e" style="mask-type:luminance" maskUnits="userSpaceOnUse" x="1" y="2" width="18" height="17"><path d="M1.794 2.214h16.41v16.41H1.794V2.215Z" fill="#fff"/></mask><g mask="url(#e)"><path d="m7.885 7.297 1.474-2.936a.684.684 0 0 1 1.223.004l1.393 2.833c.113.233.336.39.592.42l2.914.35a.73.73 0 0 1 .421 1.238l-2.305 2.274a.417.417 0 0 0-.122.352l.384 3.068a.801.801 0 0 1-1.172.806l-2.434-1.331a.602.602 0 0 0-.567-.007l-2.524 1.294a.72.72 0 0 1-.97-.318.716.716 0 0 1-.071-.43l.2-1.41c.1-.689.525-1.287 1.142-1.603l2.801-1.43a.154.154 0 0 0 .067-.205.153.153 0 0 0-.157-.083l-3.427.493a1.896 1.896 0 0 1-1.465-.41l-1.14-.93A.769.769 0 0 1 4.03 8.26a.77.77 0 0 1 .496-.277l2.925-.375a.572.572 0 0 0 .435-.31Z" fill="url(#f)"/><path d="M10.479 4.883a.68.68 0 0 0-.755.362L8.247 8.18a.568.568 0 0 1-.435.311l-2.925.378a.762.762 0 0 0-.484.263l1.083.884c.34.279.783.4 1.218.339l3.425-.491a.477.477 0 0 1 .283.894l-.893.456 1.018-.148a.152.152 0 0 1 .156.083.152.152 0 0 1-.067.205l-2.8 1.43a2.142 2.142 0 0 0-1.143 1.603l-.13.915a.4.4 0 0 0 .464.071l2.52-1.294a.927.927 0 0 1 .868.011l2.435 1.332a.482.482 0 0 0 .288.055.48.48 0 0 0 .412-.537l-.382-3.07a.743.743 0 0 1 .214-.62l2.305-2.273c.04-.039.07-.085.09-.136l-2.837-.34a.763.763 0 0 1-.592-.42l-.11-.228a1.083 1.083 0 0 1-.54-.513L10.48 4.883Z" fill="url(#g)"/><path d="M10.424 3.769a1.002 1.002 0 0 0-1.35.447L7.598 7.155a.244.244 0 0 1-.19.133l-2.924.378a1.087 1.087 0 0 0-.546 1.919l1.142.932c.482.392 1.101.565 1.714.477l2.42-.348-1.897.97a2.455 2.455 0 0 0-1.313 1.842l-.203 1.41a1.046 1.046 0 0 0 1.509 1.08l2.522-1.294a.277.277 0 0 1 .264.004l2.435 1.33c.205.112.442.158.675.128a1.126 1.126 0 0 0 .972-1.255l-.383-3.07a.1.1 0 0 1 .028-.083l2.305-2.273a1.046 1.046 0 0 0-.608-1.785l-2.915-.35a.439.439 0 0 1-.341-.242l-1.391-2.835a1.019 1.019 0 0 0-.45-.454Zm-.777.735a.362.362 0 0 1 .647.004l1.394 2.833c.161.33.477.553.84.597l2.916.35a.403.403 0 0 1 .35.449.415.415 0 0 1-.117.242l-2.306 2.273a.743.743 0 0 0-.214.62l.383 3.07a.48.48 0 0 1-.413.536.481.481 0 0 1-.288-.055l-2.434-1.331a.927.927 0 0 0-.868-.01l-2.522 1.295a.4.4 0 0 1-.576-.42l.2-1.407a1.817 1.817 0 0 1 .97-1.36l2.8-1.43a.476.476 0 0 0-.28-.895l-3.427.491a1.568 1.568 0 0 1-1.216-.338l-1.14-.933a.442.442 0 0 1 .218-.781l2.925-.378a.89.89 0 0 0 .684-.483l1.474-2.94Z" fill="url(#h)"/></g></g></g></g><defs><linearGradient id="b" x1="10" y1="0" x2="10" y2="20" gradientUnits="userSpaceOnUse"><stop stop-color="#352200"/><stop offset="1" stop-color="#1B3C2C"/></linearGradient><linearGradient id="f" x1="9.99" y1="3.983" x2="9.99" y2="15.803" gradientUnits="userSpaceOnUse"><stop stop-color="#FFF0C2"/><stop offset="1" stop-color="#FFEBBA"/></linearGradient><linearGradient id="g" x1="10.085" y1="4.867" x2="13.328" y2="15.48" gradientUnits="userSpaceOnUse"><stop stop-color="#FFD147"/><stop offset="1" stop-color="#FFB526"/></linearGradient><linearGradient id="h" x1="9.99" y1="3.661" x2="12.835" y2="16.123" gradientUnits="userSpaceOnUse"><stop stop-color="#E58F0D"/><stop offset="1" stop-color="#EB7814"/></linearGradient><clipPath id="a"><path fill="#fff" d="M0 0h20v20H0z"/></clipPath></defs></svg>