<svg xmlns="http://www.w3.org/2000/svg" width="21" height="20" fill="none"><g clip-path="url(#a)"><path fill="#F0F0F0" d="M10.5 20c5.523 0 10-4.477 10-10s-4.477-10-10-10S.5 4.477.5 10s4.477 10 10 10Z"/><path fill="#D80027" d="M20.5 10A10 10 0 0 0 14.848.992v18.016A10 10 0 0 0 20.5 10Z"/><path fill="#6DA544" d="M.5 10a10 10 0 0 0 5.652 9.008V.992A10 10 0 0 0 .5 10Zm7.391 0a2.609 2.609 0 0 0 5.218 0v-.87H7.89V10Z"/><path fill="#FF9811" d="M13.978 8.26h-2.609a.87.87 0 1 0-1.739 0H7.021c0 .481.419.87.899.87h-.029c0 .48.39.87.87.87 0 .48.389.87.87.87h1.738c.48 0 .87-.39.87-.87.48 0 .87-.39.87-.87h-.03c.48 0 .899-.389.899-.87Z"/></g><defs><clipPath id="a"><path fill="#fff" d="M.5 0h20v20H.5z"/></clipPath></defs></svg>