<svg width="20" height="20" fill="none" xmlns="http://www.w3.org/2000/svg"><path d="M2.504 12.831a7.916 7.916 0 0 1-.447-2.283c.695-.51 1.554-.945 2.12-.945.757 0 .892.805.899.947.021.473-.545 1.457-1.17 2.54v.002c-.232.402-.472.817-.692 1.225a7.925 7.925 0 0 1-.71-1.486Z" fill="#656CF5"/><path fill-rule="evenodd" clip-rule="evenodd" d="M2.057 10.548c.014.289.042.573.086.853.347-.331 1.24-.993 2.034-.993.432 0 .688.242.831.53.048-.152.072-.283.068-.389-.007-.141-.142-.946-.9-.946-.565 0-1.424.435-2.119.945Z" fill="url(#a)"/><path d="M2.285 8.894c2.838-1.466 3.69-2.412 3.784-3.5.081-.939-1.263-1.244-1.561-.971a7.928 7.928 0 0 0-2.37 4.549l.031-.017.045-.024.07-.037Z" fill="url(#b)"/><path fill-rule="evenodd" clip-rule="evenodd" d="M4.068 4.878c.14-.158.287-.31.44-.455.298-.273 1.643.032 1.561.97-.042.48-.23.93-.668 1.41.214-.475.334-1.051.086-1.547-.416-.832-1.12-.599-1.42-.378Z" fill="#032387"/><path d="M13.886 3.24a7.972 7.972 0 0 1 1.461 1.058c-.83.714-1.978 1.41-2.467 1.616-.8.337-1.987.615-2.696.615-.71 0-3.075-.52-2.933-2.27.114-1.4 1.987-1.956 2.744-2.034a7.918 7.918 0 0 1 3.891 1.016Z" fill="url(#c)"/><path d="M17.516 7.598c.234.687.378 1.416.415 2.173-.85.6-1.864.968-2.07.968-.096 0-.947 0-.947-1.04 0-.363.495-1.245 1.065-2.26v-.002c.26-.462.534-.951.785-1.431a7.904 7.904 0 0 1 .752 1.592Z" fill="url(#d)"/><path fill-rule="evenodd" clip-rule="evenodd" d="M17.233 6.887a7.917 7.917 0 0 0-.47-.881c-.25.48-.524.97-.783 1.43l-.001.003c-.57 1.015-1.065 1.897-1.065 2.26 0 1.04.851 1.04.946 1.04.07 0 .233-.043.452-.122-.23-.128-.452-.388-.452-.919 0-.362.495-1.244 1.065-2.26.101-.18.205-.364.308-.55Z" fill="url(#e)"/><path d="M15.372 16.022a7.932 7.932 0 0 0 2.472-4.602 8.172 8.172 0 0 1-.328.17c-2.744 1.345-3.548 2.364-3.548 3.5 0 .671.834.881 1.404.932Z" fill="url(#f)"/><path d="M17.516 11.59c.114-.056.223-.112.328-.17a7.9 7.9 0 0 1-.066.364c-2.434 1.25-3.162 2.225-3.162 3.306l.095.803c-.398-.13-.743-.371-.743-.803 0-1.136.804-2.155 3.548-3.5Z" fill="url(#g)"/><path d="M6.058 17.076a7.974 7.974 0 0 1-1.508-1.117c1.358-1.4 3.957-2.146 5.209-2.146 1.23 0 3.027.71 2.98 2.176-.045 1.366-1.634 1.994-2.375 2.12a7.92 7.92 0 0 1-4.306-1.034Z" fill="url(#h)"/><path fill-rule="evenodd" clip-rule="evenodd" d="M4.55 15.96c.218.204.448.397.688.577 1.421-1.02 3.457-1.558 4.52-1.558 1.038 0 2.48.505 2.877 1.543.06-.163.097-.34.104-.533.047-1.466-1.75-2.176-2.98-2.176-1.252 0-3.85.745-5.209 2.146Z" fill="url(#i)"/><path d="M16.191 2.745c-.363-.397-1.549.093-2.305.496.399.213 1.29.86 1.461 1.057.695-.598 1.168-1.208.844-1.553Z" fill="url(#j)"/><path d="M19.076 8.468c.118-.322-.73-.852-1.56-.87.316.823.416 2.005.415 2.173.512-.36.965-.805 1.145-1.303Z" fill="url(#k)"/><path d="M3.751 17.314c-.14.556 1.314.521 2.307-.238-.452-.259-1.092-.709-1.508-1.117-.387.4-.673.851-.799 1.355Z" fill="url(#l)"/><path d="M2.504 12.831a7.916 7.916 0 0 1-.447-2.283c-.642.472-1.144 1.008-1.144 1.326 0 .538.71.72 1.232.854.139.036.264.068.36.103Z" fill="url(#m)"/><path d="M8.86 10.408c0-.663-1.136-1.798-3.075-1.703-.877.043-2.428.287-3.726 1.042-.875.509-1.636 1.25-1.997 2.316.14.424.863 1.26 2.623 1.23a7.86 7.86 0 0 1-.18-.462 4.209 4.209 0 0 0-.36-.103c-.522-.133-1.232-.316-1.232-.854 0-.318.502-.854 1.144-1.326.695-.51 1.554-.945 2.12-.945.757 0 .892.805.898.947.022.473-.545 1.457-1.168 2.54-.232.402-.472.818-.693 1.227-.489.907-.882 1.778-.882 2.382 0 .96.545 1.387.998 1.557-.418-.213-.525-.705-.525-.848 0-.488.515-1.184 1.281-1.923.646-.623 1.47-1.277 2.314-1.86l.106-.074c1.203-.832 2.354-1.627 2.354-3.143Z" fill="#DEBDFF"/><path d="M12.738 15.99c-.044 1.365-1.633 1.993-2.374 2.12.087-.005.174-.01.26-.017a7.903 7.903 0 0 0 3.928-1.411 2.283 2.283 0 0 1-.537-.078c-.317-.113-.482-.421-.682-.795-.218-.407-.478-.892-1.02-1.286-1.004-.73-2.113-.789-2.555-.71 1.23 0 3.028.71 2.98 2.176Z" fill="#EEB0FF"/><path d="M14.772 5.82c-1.703 1.182-3.784 2.696-3.69 3.973.095 1.277 2.082 1.9 3.17 1.844.997-.05 2.478-.42 3.68-1.084 1.023-.565 1.844-1.343 1.996-2.321-.22-.881-1.795-1.151-2.623-1.18.077.178.147.36.21.546.832.018 1.679.548 1.561.87-.18.498-.633.942-1.145 1.303-.85.6-1.864.968-2.07.968-.096 0-.947 0-.947-1.04 0-.363.495-1.245 1.065-2.26.26-.462.534-.952.785-1.433.494-.948.893-1.861.893-2.457 0-.719-.488-1.214-.756-1.372.607.536.055 1.665-.985 2.694a8.65 8.65 0 0 1-1.144.948Z" fill="url(#n)"/><path d="M7.251 4.259c.114-1.4 1.987-1.956 2.744-2.034a7.91 7.91 0 0 0-4.607 1.47c.19-.025.363-.03.492-.004.265.053.381.24.607.601.177.284.422.676.859 1.196.794.946 2.223 1.088 2.838 1.04-.71.001-3.075-.52-2.933-2.27Z" fill="#83D3FF"/><path d="M6.069 5.394c-.095 1.088-.946 2.034-3.784 3.5l-.147.078C.05 10.107-.139 11.462.062 12.063c.362-1.067 1.122-1.807 1.998-2.316 1.298-.755 2.848-1 3.725-1.042 1.94-.095 3.075 1.04 3.075 1.703 0 1.516-1.15 2.31-2.354 3.143l-.106.073c-.844.584-1.668 1.238-2.314 1.861-.766.74-1.28 1.436-1.28 1.923 0 .143.107.635.524.848.216.081.411.104.516.098.98-.054 2.068-.439 2.922-.92a7.911 7.911 0 0 1-.71-.358c-.993.76-2.446.794-2.307.238.126-.504.412-.956.799-1.355 1.358-1.4 3.957-2.146 5.208-2.146.442-.079 1.55-.02 2.555.71.542.394.802.879 1.02 1.286.2.374.365.682.682.795.102.037.3.064.537.078.288-.202.562-.422.82-.66-.57-.05-1.404-.26-1.404-.932 0-1.136.804-2.155 3.548-3.5.114-.056.223-.112.328-.17 2.105-1.15 2.31-2.512 2.084-3.188-.152.978-.973 1.756-1.996 2.32-1.202.665-2.683 1.034-3.68 1.085-1.088.056-3.075-.567-3.17-1.844-.094-1.277 1.987-2.791 3.69-3.974.418-.29.807-.613 1.144-.948 1.04-1.03 1.592-2.158.985-2.694-.58-.512-2.514.195-3.674.732.226.1.445.212.66.332.755-.403 1.94-.893 2.304-.496.324.345-.149.955-.844 1.553-.83.714-1.977 1.41-2.467 1.616-.8.337-1.986.615-2.696.615-.615.047-2.043-.095-2.838-1.04-.437-.52-.681-.913-.859-1.197-.226-.361-.342-.548-.607-.601a1.585 1.585 0 0 0-.492.004c-.31.222-.605.465-.88.728.298-.273 1.643.032 1.56.97Z" fill="url(#o)"/><defs><linearGradient id="h" x1="12.771" y1="15.942" x2="4.73" y2="15.942" gradientUnits="userSpaceOnUse"><stop stop-color="#774DD6"/><stop offset="1" stop-color="#B594FA"/></linearGradient><linearGradient id="a" x1="5.061" y1="10.455" x2="2.081" y2="10.928" gradientUnits="userSpaceOnUse"><stop stop-color="#121ABF"/><stop offset="1" stop-color="#6E72F5"/></linearGradient><linearGradient id="c" x1="15.325" y1="4.211" x2="6.906" y2="4.069" gradientUnits="userSpaceOnUse"><stop stop-color="#48BDFF"/><stop offset="1" stop-color="#265DCC"/></linearGradient><linearGradient id="d" x1="16.423" y1="6.006" x2="16.423" y2="10.739" gradientUnits="userSpaceOnUse"><stop stop-color="#39ABF8"/><stop offset="1" stop-color="#225AC8"/></linearGradient><linearGradient id="e" x1="16.933" y1="6.009" x2="15.514" y2="10.597" gradientUnits="userSpaceOnUse"><stop stop-color="#2F92EA"/><stop offset="1" stop-color="#083FB4"/></linearGradient><linearGradient id="f" x1="17.88" y1="11.401" x2="14.285" y2="15.753" gradientUnits="userSpaceOnUse"><stop stop-color="#2781F1"/><stop offset="1" stop-color="#A931EB"/></linearGradient><linearGradient id="g" x1="17.549" y1="11.495" x2="14.238" y2="15.847" gradientUnits="userSpaceOnUse"><stop stop-color="#202CB9"/><stop offset="1" stop-color="#8C25DF"/></linearGradient><linearGradient id="b" x1="5.676" y1="4.637" x2="2.176" y2="8.563" gradientUnits="userSpaceOnUse"><stop stop-color="#0A35BF"/><stop offset="1" stop-color="#2263F6"/></linearGradient><linearGradient id="i" x1="12.771" y1="15.942" x2="4.778" y2="16.178" gradientUnits="userSpaceOnUse"><stop stop-color="#301997"/><stop offset="1" stop-color="#A382EF"/></linearGradient><linearGradient id="j" x1="16.271" y1="2.603" x2="14.71" y2="3.785" gradientUnits="userSpaceOnUse"><stop stop-color="#11012D"/><stop offset="1" stop-color="#06077D"/></linearGradient><linearGradient id="k" x1="19.109" y1="8.279" x2="17.501" y2="8.657" gradientUnits="userSpaceOnUse"><stop stop-color="#0E0240"/><stop offset="1" stop-color="#050882"/></linearGradient><linearGradient id="l" x1="5.487" y1="16.557" x2="3.784" y2="17.55" gradientUnits="userSpaceOnUse"><stop stop-color="#743AD0"/><stop offset="1" stop-color="#320163"/></linearGradient><linearGradient id="m" x1="2.46" y1="11.685" x2=".946" y2="11.969" gradientUnits="userSpaceOnUse"><stop stop-color="#3720CC"/><stop offset="1" stop-color="#21037B"/></linearGradient><linearGradient id="n" x1="18.352" y1="4.022" x2="13.717" y2="10.408" gradientUnits="userSpaceOnUse"><stop stop-color="#60D3FF"/><stop offset="1" stop-color="#BAD5FF"/></linearGradient><linearGradient id="o" x1="16.886" y1="2.414" x2="2.885" y2="17.881" gradientUnits="userSpaceOnUse"><stop stop-color="#56BEFD"/><stop offset=".495" stop-color="#AD9DFE"/><stop offset="1" stop-color="#CB93FE"/></linearGradient></defs></svg>