<svg width="20" height="20" fill="none" xmlns="http://www.w3.org/2000/svg"><path d="M0 2.5A2.5 2.5 0 0 1 2.5 0h15A2.5 2.5 0 0 1 20 2.5v15a2.5 2.5 0 0 1-2.5 2.5h-15A2.5 2.5 0 0 1 0 17.5v-15Z" fill="#FF8A23"/><mask id="a" style="mask-type:alpha" maskUnits="userSpaceOnUse" x="0" y="0" width="20" height="20"><path d="M0 2.5A2.5 2.5 0 0 1 2.5 0h15A2.5 2.5 0 0 1 20 2.5v15a2.5 2.5 0 0 1-2.5 2.5h-15A2.5 2.5 0 0 1 0 17.5v-15Z" fill="#D9D9D9"/></mask><g mask="url(#a)" fill="#000"><path d="M13.038 15.656c.101.266 1.506 1.445 1.608 1.362.034-.05-.322-.416-.796-.814-.49-.398-.846-.647-.812-.548ZM12.716 25.186c0 .315.034.448.085.282.034-.15.034-.415 0-.581-.051-.15-.085-.017-.085.299Z"/><path d="M6.538 4.002c-1.219.564-1.964 1.278-1.98 1.876 0 .2-.068.398-.153.448-.085.05-.186.332-.237.631-.05.299-.186.963-.288 1.46-.203.93-.101 2.242.186 2.408.085.067.153.266.153.465 0 .2.186.664.423 1.03.22.364.423.746.423.846 0 .116-.423.2-1.05.216-1.59.05-3.182.664-3.182 1.245 0 .1-.355.365-.778.598-.864.431-1.795 1.228-2.065 1.726-.17.332-.051.664.406 1.262.49.63.355.896-.626 1.245-1.338.465-1.693.814-2.76 2.606l-.947 1.578v6.375l3.639-.1.135-1.162c.085-.648.153-1.345.136-1.577-.017-.631.626-2.756.778-2.59.034.033-.05.465-.203.963a9.342 9.342 0 0 0-.338 1.843 26.031 26.031 0 0 1-.17 1.793l-.118.813H8.01c10.834 0 10.377.033 9.937-.797-.711-1.345-1.033-2.125-1.033-2.49 0-.25-.152-.697-.355-1.013-.187-.299-.305-.63-.288-.714.084-.249.982 1.428.982 1.843 0 .2.067.482.152.648.135.265.22.464.677 1.56.085.216.203.515.254.664.085.266.338.299 2.133.299 2.353 0 2.302.05 1.71-1.76-.17-.531-.356-1.643-.39-2.473-.068-1.345-.152-1.627-.745-2.723-.694-1.312-2.539-3.337-3.03-3.337-.152 0-.423-.15-.626-.332-.203-.183-.71-.448-1.134-.598-1.625-.58-2.387-.963-2.488-1.278-.136-.432.152-.697.44-.365.118.133.304.249.44.249.406 0 .44-.349.084-.73-.321-.333-.338-.4-.101-.598.135-.117.254-.316.254-.449 0-.249.49-1.394.677-1.543.457-.399.71-2.723.338-3.088-.084-.083-.101-.366-.033-.648.152-.515-.051-1.876-.305-2.141-.039-.038-.063-.035-.074 0a.527.527 0 0 0 .023.232c.085.315.05.365-.17.282-.153-.055-.243-.059-.27-.026-.038.047.052.17.27.325.204.15.289.515.34 1.345.118 2.191.101 2.922-.051 3.021-.22.166-.915 1.577-.915 1.876 0 .133-.135.399-.321.581-.305.316-.305.332.101.747.711.747.119.714-.71-.033-.711-.647-1.1-.83-.491-.232.49.481.017.747-1.354.747-1.152 0-1.236-.033-2.116-.714-1.388-1.08-2.54-2.258-2.658-2.756-.068-.232-.186-.531-.288-.63-.084-.117-.118-.4-.084-.632.05-.232.017-.465-.051-.514-.136-.083-.254.647-.152 1.012.033.083.084.382.135.664.05.366.508.914 1.625 1.96 1.591 1.527 2.285 1.942 3.233 1.942.525 0 .745.265.762.913 0 .68-1.913 1.743-3.149 1.743-.744 0-2.353-.448-2.657-.73-.119-.117-.576-.382-1.016-.565-.999-.431-1.117-.73-.66-1.594.203-.381.372-.83.355-1.012-.016-.266-.033-.266-.152.083-.254.813-.66 1.361-1.253 1.76-.321.215-.626.398-.66.398-.27 0-.795-1.278-.795-1.876.017-.581.135-.83.728-1.461.575-.63.846-.797 1.438-.863l.711-.083v.846c0 .465.034.797.068.764.034-.033.119-1.378.17-2.972.1-2.905.1-2.905.575-3.337a7.7 7.7 0 0 1 .88-.697c.508-.315 3.606-.996 4.029-.88.152.05.93.1 1.726.116 1.168.034 1.507.1 1.828.366.212.191.334.268.356.244.024-.026-.068-.17-.288-.41-.252-.28-.554-.364-1.867-.43l-.029-.002a33.359 33.359 0 0 1-.81-.056c-.62-.05-1.188-.113-1.424-.16-.39-.066-.643-.033-.643.067 0 .083-.288.199-.627.249-1.37.216-2.352.63-3.03 1.245-.69.628-.694.664-.827 2.054l-.002.021c-.068.797-.152 1.444-.203 1.444-.198 0-.344-.222-.437-.658a5.64 5.64 0 0 1-.099-.798c-.012-.193-.02-.405-.023-.636V8.966l.745-.764a4.78 4.78 0 0 1 .504-.43c.143-.108.297-.214.451-.315.657-.427 1.346-.75 1.466-.633.05.033.338-.033.643-.166.779-.315 1.27-.299 1.54.05.22.282.237.282.136 0-.085-.249.017-.282.88-.282.558 0 1.27.083 1.591.166a7.9 7.9 0 0 0 1.05.249c.253.05.677.166.93.265.254.1.508.166.56.15.05-.017.134.15.202.365.044.159.07.249.085.264.02.02.024-.086.034-.33a2.206 2.206 0 0 0-.187-.913c-.203-.482-2.065-2.374-2.335-2.374-.085 0-.254-.1-.373-.216-.406-.382-1.591-.615-3.199-.598-1.439 0-1.71.05-2.742.548Zm6.483 13.895v.698l-.373-.465c-.268-.338-.334-.43-.219-.549.038-.038.094-.079.169-.132l.08-.06c.343-.252.343-.204.343.508ZM1.815 19.99c.305.05.593.166.643.25.136.215-.83.016-1.54-.3-.406-.199-.423-.215-.085-.132.237.05.677.132.982.182Zm10.681 2.905c-.17.532-.17.731.068 1.246.152.348.321.88.372 1.162.085.448.051.548-.17.548-.22 0-.253-.1-.168-.498.084-.35 0-.681-.271-1.163-.373-.647-.373-.68-.102-1.245.153-.332.305-.913.322-1.295l.017-.697.068.664c.05.365-.017.947-.136 1.279Zm-6.415-.48c0 .298-.119.68-.254.846-.339.431-.322.63.118 1.527.305.63.322.83.153 1.096-.17.265-.153.398.067.73.254.382.22.73-.067.73-.22 0-.39-1.344-.187-1.56.119-.15.068-.415-.169-.896-.406-.83-.423-1.212-.068-1.893.153-.299.22-.664.153-.913-.068-.266-.034-.365.084-.299.085.05.17.349.17.631Z"/><path d="M9.297 8.584c-.17.116.017.133.592.066.474-.066.88-.132.914-.166.17-.15-1.27-.05-1.506.1ZM8.45 8.75c-.203.133-.186.166.136.166.203 0 .372-.083.372-.166 0-.216-.186-.216-.507 0ZM12.852 8.733c0 .083.338.1.744.067.44-.05.779-.017.847.1.067.099.203.182.287.182.102 0 .068-.116-.084-.249-.271-.266-1.794-.349-1.794-.1ZM8.772 10.012c-.39.481.017.813 1.1.863.847.05.948.017.948-.282 0-.2-.203-.432-.541-.581-.677-.332-1.22-.332-1.507 0Zm.694.398c0 .382-.17.432-.474.133-.305-.299-.254-.465.136-.465a.54.54 0 0 1 .05.002.317.317 0 0 1 .204.086c.055.056.084.138.084.244ZM13.393 10.277c-.22.216-.27.565-.068.681.068.05.44.133.847.2l.728.115-.051-.564c-.05-.498-.102-.548-.643-.598-.322-.033-.694.05-.813.166Zm.576.581c-.051.05-.22.034-.39-.016-.287-.116-.287-.133.034-.366.305-.215.339-.215.39.017.034.15.017.316-.034.365ZM12.868 11.755c-.016.232.136.564.322.73.186.166.339.382.339.498 0 .1-.153.349-.339.548-.186.2-.338.399-.338.448 0 .05.152.084.338.084.22 0 .339-.117.339-.316 0-.183.084-.382.169-.432.254-.149.203-.481-.136-.846a3.276 3.276 0 0 1-.49-.73l-.204-.416v.432ZM10.719 13.15c-.119.298.22.746.558.746.187 0 .136-.1-.135-.332-.339-.265-.355-.315-.119-.332.424 0 .559-.332.136-.332-.186 0-.39.117-.44.25ZM10.313 15.059c0 .1.406.166.897.166.507.016 1.015.116 1.201.249.288.215.373.215.678-.05.169-.15.287-.2.22-.1-.068.1.05.332.27.498.356.316.356.316.119 0-.136-.166-.254-.415-.254-.531 0-.183-.39-.249-1.557-.315-.948-.034-1.575 0-1.575.083ZM6.03 17.731c-.39.565-.423.664-.17.615.17-.034.407-.266.525-.515.119-.249.339-.448.474-.448.119 0 .237-.083.237-.166 0-.399-.626-.1-1.066.514Z"/><path fill-rule="evenodd" clip-rule="evenodd" d="M4.679 11.91a1.36 1.36 0 0 1-.122-.504c0-.162 0-.258.023-.294.02.317.053.583.099.798ZM4.557 10.194ZM6.257 7.457c-.154.1-.308.207-.45.315.217-.227.35-.336.45-.315ZM12.71 7.705h-.028a33.359 33.359 0 0 1-.81-.057c.018.1.194.11.658.073.066-.005.126-.01.18-.016Z"/><path fill-rule="evenodd" clip-rule="evenodd" d="M11.904 7.505c.05-.15.101-.415.101-.565 0-.249.102-.282.643-.199.525.083.627.166.627.515 0 .329-.069.402-.565.45 1.314.066 1.616.15 1.868.43.22.24.312.384.288.41l.203.128c.027-.033.117-.029.27.026.22.083.255.033.17-.282a.527.527 0 0 1-.023-.232l-.146-.301c-.016-.015-.04-.105-.085-.264-.068-.216-.152-.382-.203-.365-.05.016-.305-.05-.559-.15a6.532 6.532 0 0 0-.93-.265 7.9 7.9 0 0 1-1.05-.25c-.322-.082-1.033-.165-1.591-.165-.863 0-.965.033-.88.282.101.282.084.282-.136 0-.27-.349-.761-.365-1.54-.05-.305.133-.593.2-.643.166-.12-.117-.81.206-1.466.633.107.022.179.188.28.513.136.465.12.58-.202.813-.254.183-.44.216-.644.1-.389-.2-.355-.614.085-1.08l.03-.03a4.78 4.78 0 0 0-.504.43l-.745.763v1.227-.022c.007-.111.056-.118.136.007.067.1.254.215.406.282.186.066.254.216.186.432-.05.199-.152.348-.22.348-.135 0-.507-.762-.508-1.045v.281c.003.231.01.443.023.636l.001-.002c.034-.048.116.028.315.213.22.233.288.448.22.714-.085.349-.102.349-.322.083a1.19 1.19 0 0 1-.115-.21c.093.436.239.658.437.658.05 0 .135-.647.203-1.444l.002-.021c.133-1.39.137-1.426.827-2.054.678-.614 1.66-1.03 3.03-1.245.339-.05.627-.166.627-.25 0-.099.254-.132.643-.066.236.047.803.11 1.423.16-.006-.036.006-.083.033-.143Zm-3.487-.017c-.407-.498-.39-.697.084-.78.762-.15 1.27-.116 1.354.083.254.78-.914 1.361-1.438.697Zm2.251 0c-.406-.083-.525-.199-.525-.498 0-.365.068-.398.762-.398.728 0 .762.016.762.498 0 .531-.102.564-.999.398Zm-3.589.764c-.49 0-.457-.963.068-1.162.542-.216.559-.2.863.249.356.514.339.58-.05.58-.187 0-.39.067-.44.167-.051.083-.254.166-.44.166Zm7.093-.432c-.491-.083-.593-.166-.576-.465.017-.315.085-.365.508-.282.474.1.948.565.762.747-.05.05-.356.05-.694 0Zm.897.615c-.135-.083-.17-.233-.102-.35.102-.149.17-.132.288.067.203.349.119.465-.186.283ZM4.896 9.995c-.136-.15-.17-.465-.102-.83.102-.515.153-.564.356-.349.135.133.338.266.457.316.169.066.186.116.017.299a.837.837 0 0 0-.22.514c0 .365-.22.382-.508.05ZM12.43 17.581a.116.116 0 0 1 .015-.049c.073-.114.16-.158.233-.142l-.08.06a1.295 1.295 0 0 0-.169.131Z"/><path fill-rule="evenodd" clip-rule="evenodd" d="M9.178 10.08a.317.317 0 0 1 .212.096.23.23 0 0 0-.212-.096Z"/></g></svg>