<svg width="21" height="20" fill="none" xmlns="http://www.w3.org/2000/svg"><circle cx="10" cy="10" r="10" fill="#000"/><path d="M4.5 7.261v5.478c0 .365.186.702.487.885l4.526 2.739a.936.936 0 0 0 .975 0l4.524-2.739c.302-.183.488-.52.488-.885V7.26c0-.365-.186-.703-.488-.885l-4.524-2.739a.936.936 0 0 0-.975 0l-4.526 2.74c-.301.182-.487.519-.487.884Z" fill="#fff"/><path d="m9.789 4.349-4.566 8.29c-.093.17.023.383.211.383h9.132c.187 0 .305-.212.21-.383l-4.565-8.29a.238.238 0 0 0-.422 0Z" fill="#000"/><path d="M9.999 12.499c1.268 0 2.297-1.079 2.297-2.409 0-1.33-1.029-2.408-2.297-2.408-1.269 0-2.297 1.078-2.297 2.408 0 1.33 1.028 2.409 2.297 2.409Z" fill="#fff"/><path d="M10.844 9.012H9.156a.189.189 0 0 0-.184.194v1.769c0 .107.083.193.184.193h1.688a.189.189 0 0 0 .184-.193v-1.77a.189.189 0 0 0-.184-.193Z" fill="#000"/><path d="m17.032 10 3.04 5.023-3.03-1.294-.01-3.729Z" fill="#E68F7B"/><path d="M14 15.023 17.031 10l.012 3.729L14 15.023Z" fill="#F8EC7C"/><path d="M17.031 16.875 14 15.023l3.043-1.294-.012 3.146Z" fill="#6EB87D"/><path d="m20.071 15.023-3.028-1.294-.011 3.146 3.04-1.852Z" fill="#946BA7"/><path d="m17.032 17.513 3.04-1.802-3.04 4.283v-2.481Z" fill="#697CB9"/><path d="M17.031 17.513 14 15.71l3.031 4.283v-2.481Z" fill="#4FADD0"/></svg>