<svg xmlns="http://www.w3.org/2000/svg" xml:space="preserve" width="102.693" height="118.137" fill-rule="evenodd" clip-rule="evenodd" image-rendering="optimizeQuality" shape-rendering="geometricPrecision" text-rendering="geometricPrecision" version="1.0" viewBox="0 0 21.22 24.41"><path d="M13.05 16.06c.1.02.2.04.3.07.09.02.19.05.29.06.08.01.15-.06.19-.12.01-.02.03-.02.05-.02.02 0 .04.01.05.02.07.08.1.18.07.29-.03.1-.11.18-.2.23-.18.09-.38.08-.58.04-.18-.04-.4-.13-.51-.28 0-.01-.01-.01-.01-.02-.01-.02-.03-.03-.05-.04-.02-.01-.03-.02-.05-.02-.21.05-.43.04-.63-.02-.03-.01-.04-.03-.05-.06 0-.03.01-.05.04-.06.25-.12.5-.23.69-.43.06-.06.12-.11.19-.15.32-.19.81-.23 1.11.03.1.09.15.26.06.38-.01.02-.03.03-.06.03-.02 0-.04-.01-.05-.03-.08-.13-.21-.12-.34-.11-.16.02-.34.08-.47.19-.02.01-.03.02-.05.04zm1.67 5.42c.18.13.29.36.19.57-.06.21-.18.4-.4.46-.08.03-.16.03-.25.04-.05 0-.1.01-.14.01 0 .04.01.08.02.11.01.06.02.13.02.2.01.23-.04.47-.16.67-.13.23-.33.39-.58.48-.03.01-.06 0-.08-.03-.02-.03-.02-.06 0-.08.3-.36.3-.74.21-1.18-.05-.17-.05-.36.09-.5s.36-.17.55-.17c.06 0 .13.01.19-.01.05-.03.1-.11.14-.16.02-.03.04-.06.05-.1v-.01c.02-.08-.03-.18-.08-.26-.18.02-.36.02-.54 0-.43-.06-.87-.15-1.28-.3a.068.068 0 0 1-.04-.08c.01-.03.04-.05.08-.05.54.1 1.12.19 1.67.13.27-.04.51-.17.69-.37v-.03c0-.14-.02-.29-.03-.43a1.2 1.2 0 0 1 .04-.46c.06-.2.31-.29.49-.34.17-.05.34-.08.51-.13.15-.04.3-.08.43-.15 0-.09-.03-.16-.07-.24a2.56 2.56 0 0 0-.2-.26c-.07-.1-.12-.22-.17-.33-.2-.46-.39-.92-.56-1.39-.14-.4-.26-.84-.02-1.23.15-.24.38-.41.59-.6.31-.34.11-1-.05-1.37-.11-.31-.1-.62-.08-.94 0-.03.03-.06.06-.06s.06.02.07.06c.05.29.08.58.2.85.15.26.28.55.33.85.06.32.02.64-.19.89-.12.13-.26.25-.37.38-.09.11-.18.25-.17.4-.01.21.1.43.17.62.2.51.41 1.01.64 1.5a.8.8 0 0 0 .15.21c.07.08.13.16.17.26.13.28.15.64-.17.8-.2.11-.45.17-.68.22-.11.02-.22.04-.34.07-.08.02-.17.04-.25.07-.05.17-.03.48-.03.65 0 .06 0 .12-.02.19-.02.08-.05.15-.12.19-.01 0-.01.01-.02.01-.03.02-.05.04-.08.06-.17.14-.37.24-.59.3zm4.48-10.13c-.44.43-1.12.29-1.66.18-1.01-.22-2.02-.44-3.05-.4-.04 0-.07-.03-.07-.06 0-.04.02-.07.06-.07.53-.06 1.06-.05 1.58 0s1.04.13 1.56.22c.21.03.42.07.63.08.13.01.27 0 .4-.05.12-.05.21-.12.3-.22.12-.14.23-.3.33-.45.16-.25.37-.46.67-.52.17-.07.33-.21.46-.34.1-.1.21-.25.27-.38-.13-.06-.29-.08-.43-.1-.29-.03-.59-.04-.87.03-.09.02-.18.03-.27.02-.42-.03-.81-.17-1.21-.29-.49-.16-.97-.34-1.45-.54-.47-.19-.94-.39-1.4-.58-.24-.1-.5-.21-.72-.36-.13-.08-.25-.17-.37-.27-.15-.12-.3-.25-.44-.38-.12-.13-.25-.27-.34-.43-.07-.13-.12-.28-.06-.42.03-.06.08-.11.14-.14L11.7 4.83a.862.862 0 0 0-.38-.13h-.05l-.2-.02c-1.43-.14-2.87-.28-4.3-.44-.04 0-.06-.04-.06-.07 0-.04.03-.06.07-.06 1.54.05 3.07.14 4.61.22.32.02.61.21.87.38.42.26.83.52 1.25.78.1.07.21.13.31.2.09.06.18.11.25.19a.252.252 0 0 1-.11.41c-.08.03-.15.04-.22.04.11.14.26.28.38.39.26.22.53.42.84.57.57.25 1.15.48 1.73.72.47.19.93.37 1.41.53.35.11.72.25 1.09.26.37-.08.76-.09 1.14-.03.29.05.84.13.89.49v.01c.01.19-.06.29-.15.43-.15.22-.34.41-.55.56-.16.12-.37.22-.57.26-.03.01-.06.04-.09.06-.12.11-.21.25-.31.38-.11.15-.21.29-.35.41zm-2.85.84c-.31-.07-.63-.1-.94-.13l-.98-.06c-.62-.03-1.25-.05-1.87-.08-.47-.01-.95.01-1.42 0-.17-.01-.34-.01-.5-.08a.068.068 0 0 1-.04-.08c.01-.03.04-.05.07-.05.14.02.31-.01.45-.03.16-.02.31-.06.47-.07 1.27-.2 2.57-.17 3.84-.04.37.04.75.1 1.1.23h.01c.03.01.06.03.09.04.03.01.06.03.09.05.41.24.88.08 1.2-.23.02-.02.06-.02.09 0s.03.06.02.08c-.13.26-.37.45-.64.54-.29.1-.61.08-.9-.05-.04-.02-.09-.03-.13-.05zm-3.92-4.96c-.37.71-1.58.46-2.17.22-.22-.09-.41-.2-.64-.27-.03-.01-.05-.03-.05-.06s.02-.05.04-.06c.13-.05.28-.06.41-.06.36.02.71.09 1.06.15.44.07.83.17 1.26-.01.03-.01.06 0 .08.02.02.02.02.05.01.08zM5.06 3.71c-.01-.29.03-.59.1-.87.08-.32.2-.64.36-.93.31-.59.8-1.12 1.46-1.31.03-.01.06 0 .08.03.02.03.01.06-.01.08-.46.42-.7.92-1 1.44-.14.26-.27.53-.41.79-.14.27-.29.54-.45.79-.02.02-.05.04-.07.03-.03-.01-.05-.03-.05-.06zm3.11.28c-.55-.32-.96-.82-1.17-1.42-.2-.56-.22-1.18-.03-1.74.01-.03.03-.05.06-.05s.05.02.06.05c.15.46.25.93.4 1.39.2.59.45 1.15.76 1.68.02.03.01.06-.01.08-.02.02-.05.03-.08.01zm7.15 11.31a5.69 5.69 0 0 0-.86-.34c-.21-.06-.41-.09-.63-.08-.22.01-.43.04-.64.08-.3.05-.6.11-.9.15h-.01c-.18.01-.37.01-.54-.06-.03-.01-.05-.04-.04-.07 0-.03.03-.05.06-.06.15-.02.29-.07.43-.12.26-.11.53-.22.81-.31.29-.09.59-.14.89-.13.58.02 1.19.35 1.51.84.02.03.01.06-.01.08-.02.02-.05.03-.08.02zm-4.19 3.25a7.8 7.8 0 0 1-3.28-.86c-.93-.48-1.79-1.19-2.31-2.11-.32-.57-.52-1.2-.55-1.85 0-.03.02-.06.05-.07.03-.01.06.01.08.04.22.59.48 1.16.85 1.67 1.17 1.66 3.27 2.58 5.18 3.05.03.01.06.04.05.07 0 .03-.03.06-.07.06zM9.2 14.7c-.02-.41.1-.81.32-1.16.22-.37.54-.68.9-.92.29-.2.6-.37.93-.48.03-.01.07 0 .08.03.02.03.01.07-.02.09-.69.47-1.47 1.16-1.6 2.03-.15 1.47.58 2.87 1.58 3.9.02.02.03.06 0 .09-.02.03-.06.03-.09.01-.64-.39-1.18-.94-1.56-1.59-.35-.61-.55-1.3-.55-2.01zm2.9-3.98c-1.67-.1-3.38-.2-5.04.13-.07.02-.15.03-.22.05-.07.02-.15.03-.21.06-.26.07-.5.17-.76.24-.45.1-.94.13-1.39.05-.83-.15-1.63-.61-2.14-1.28-.02-.03-.02-.07.01-.09.02-.02.06-.03.09 0 .3.25.64.46 1 .63.35.17.73.28 1.12.32.39.04.79.02 1.16-.09.19-.06.39-.13.58-.19.21-.07.43-.14.65-.18 1.72-.33 3.51-.18 5.2.23.03.01.06.04.05.08-.01.03-.04.06-.07.06zM3.86 6.8c1.12.54 2.28 1.01 3.46 1.42.17.07.35.12.52.2.03.01.05.04.04.07-.01.03-.03.05-.06.05-.38.01-.77-.02-1.14-.09-.38-.07-.76-.18-1.12-.32-.66-.26-1.32-.67-1.77-1.23a.06.06 0 0 1 0-.08c.02-.02.05-.03.08-.02zm-2.91.71C.65 6.91.49 6.26.43 5.6a7.6 7.6 0 0 1 .11-1.96c.2-.98.58-1.93 1.11-2.78.18-.29.39-.56.6-.84.02-.03.06-.03.09-.02.03.02.04.05.03.08-.18.45-.4.89-.56 1.35-.75 1.91-1.1 3.98-.72 6.02.01.03-.01.07-.04.08-.03.01-.07 0-.08-.03zm3.72-3.18c.15.22.23.51.2.78-.03.3-.19.55-.45.7-.03.02-.06.01-.09-.02a.075.075 0 0 1 0-.09c.4-.45.11-.98-.27-1.33-.65-.66-1.18-1.47-1.4-2.38-.12-.48-.15-.98-.04-1.47.01-.03.03-.05.07-.05.03 0 .06.02.07.05.09.46.2.92.39 1.35.26.66.64 1.28 1.06 1.85.15.2.33.39.46.61zm6.27 20.08c-1.06-.08-2.09-.48-2.98-1.05-1.66-1.05-2.79-2.69-3.39-4.54-.28-.86-.44-1.75-.49-2.64 0-.03.02-.06.06-.07.03-.01.07.02.08.05.48 1.73 1.05 3.41 2.11 4.89 1.12 1.57 2.75 2.78 4.65 3.23.03.01.06.04.05.08-.01.03-.04.06-.07.06zM.84 11.44c-.19.92-.3 1.87-.32 2.81-.02.95.06 1.89.23 2.82.37 1.93 1.17 3.7 2.42 5.22.36.46.78.88 1.18 1.3.02.03.03.06 0 .09-.02.03-.06.03-.09.01-.49-.37-.96-.76-1.38-1.2a10.211 10.211 0 0 1-2.71-5.32c-.35-1.93-.16-3.95.53-5.78.01-.03.05-.05.08-.04.03.01.05.04.05.08z"/></svg>