<svg width="20" height="20" fill="none" xmlns="http://www.w3.org/2000/svg"><g clip-path="url(#a)"><circle cx="10" cy="10" r="10" fill="#ED672C"/><mask id="b" style="mask-type:alpha" maskUnits="userSpaceOnUse" x="0" y="0" width="20" height="20"><circle cx="10" cy="10" r="10" fill="#D9D9D9"/></mask><g mask="url(#b)"><path fill-rule="evenodd" clip-rule="evenodd" d="M15.145 8.008h-.056v-.225l.056-.704a1.419 1.419 0 0 0-.359-.976c-.322-.173-.608-.126-.86.141a.85.85 0 0 0-.17.338c-.01.4-.013.8-.01 1.2 0 .09-.044.14-.132.151a.123.123 0 0 1 .057-.056l.019-.104c-.021-.422-.025-.844-.01-1.266.015-.11.044-.217.085-.32a.059.059 0 0 1 .057-.018c-.003.02 0 .038.01.056a.78.78 0 0 1 .727-.319c.068.033.115.014.142-.056.042-.18.073-.36.094-.544.013-.4.013-.801 0-1.201a4.989 4.989 0 0 0-.037-.582c-.342-.395-.71-.761-1.106-1.098a3.506 3.506 0 0 0-.738-.404c-.168-.08-.338-.158-.51-.234a17.746 17.746 0 0 1-.7-.244 6.02 6.02 0 0 0-.964-.235 4.127 4.127 0 0 0-1.399-.16 11.61 11.61 0 0 0-2.627.714c-.107.064-.22.114-.34.15a1.99 1.99 0 0 1-.398.207c-.53.376-1 .817-1.408 1.323a24.016 24.016 0 0 0-.019 1.689c.015.24.062.471.142.694 0 .062-.032.094-.095.094v.056a.8.8 0 0 0-.094.131c-.03.017-.062.033-.095.047l.038.02a.216.216 0 0 0-.095.084.216.216 0 0 0-.075.075c-.004-.046-.029-.064-.076-.057A1.42 1.42 0 0 1 4.55 6l.01-.066a4.238 4.238 0 0 1-.123-.741 15.843 15.843 0 0 1 .037-1.727c.28-.314.573-.618.88-.91.28-.248.588-.455.926-.619.97-.44 1.985-.74 3.043-.9.24-.014.48-.008.719.018l.907.169c.591.153 1.17.34 1.74.563.315.131.618.288.907.469.465.369.89.778 1.276 1.23.044.555.057 1.112.038 1.67a3.819 3.819 0 0 1-.123.778l.01.066c.05.03.093.068.132.113.153.207.248.438.283.694.022.403 0 .803-.066 1.201Z" fill="#0C0C0C"/><path fill-rule="evenodd" clip-rule="evenodd" d="M10.74 1.308a.228.228 0 0 1-.113-.018.346.346 0 0 1-.17.046l-.643.02a.132.132 0 0 0-.066.046.092.092 0 0 1-.01-.056.845.845 0 0 0-.15.065c-.27.05-.54.088-.814.113-.161.032-.322.066-.482.103a5.028 5.028 0 0 1-.208-.037.4.4 0 0 0 0 .094.075.075 0 0 0-.038-.02.56.56 0 0 1-.198.048.417.417 0 0 1-.322.094.195.195 0 0 0-.075.028l.019.037-.265.038c.004.01.01.02.019.028l-.095.056.038.019c-.092-.008-.158.026-.198.103-.058-.075-.09-.063-.095.038a.068.068 0 0 0-.038-.038 1.03 1.03 0 0 1-.122.047.843.843 0 0 1-.208.132c.02.004.04.014.056.028-.257.077-.47.19-.643.337a.136.136 0 0 0 .038.047c-.046.013-.081-.002-.104-.047a.205.205 0 0 1-.18.15c.052.036.046.054-.018.057v.056a.454.454 0 0 0-.17.019l-.02.019.039.037a.282.282 0 0 0-.227.197.3.3 0 0 1-.133.02c-.044.06-.091.12-.141.177.022.05.006.088-.048.113-.028.099-.05.199-.066.3-.044.475-.06.95-.047 1.427h.057a.51.51 0 0 1 0 .253.81.81 0 0 1 .075.44h-.283a2.523 2.523 0 0 1-.142-.693 24.016 24.016 0 0 1 .019-1.69 7.04 7.04 0 0 1 1.408-1.323 1.99 1.99 0 0 0 .397-.206c.12-.036.234-.086.34-.15a11.61 11.61 0 0 1 2.628-.713c.479-.027.945.026 1.4.16Z" fill="#2E2E2E"/><path fill-rule="evenodd" clip-rule="evenodd" d="M10.74 1.308c.328.052.649.13.964.235.23.086.464.167.7.244.171.076.341.155.51.234a.045.045 0 0 0 .009.038c.044-.016.066.003.066.056a.246.246 0 0 1 .095.01c.273.18.537.37.794.572.23.25.457.506.68.77.04.342.06.686.057 1.032-.01.47-.03.938-.057 1.407a.78.78 0 0 0-.728.32.092.092 0 0 1-.009-.057.059.059 0 0 0-.057.019c-.041.102-.07.209-.085.319-.014.422-.011.844.01 1.266l-.02.104a.123.123 0 0 0-.056.056.084.084 0 0 1-.066-.019c-.064.09-.149.114-.255.075a2.047 2.047 0 0 1-.34-1.107c0-.132.01-.263.028-.394.12-.443.236-.887.35-1.333.018-.111.03-.224.037-.337a.799.799 0 0 1 0-.291.138.138 0 0 1-.066-.085A1.526 1.526 0 0 0 13 3.88a3.41 3.41 0 0 0-1.371-.816 3.22 3.22 0 0 0-.492 0c-.144.06-.277.138-.396.235a3.667 3.667 0 0 0-.483.506.644.644 0 0 0-.047.207 2.396 2.396 0 0 1-.548-.132c.021.086.06.164.113.235a8.629 8.629 0 0 1-.227-.038 2.654 2.654 0 0 1-.453-.253 2.86 2.86 0 0 0-.643-.647 1.043 1.043 0 0 0-.794-.113 3.18 3.18 0 0 0-1.314.816 1.477 1.477 0 0 0-.34 1.276c.109.373.216.748.321 1.127.104.437.085.868-.057 1.294-.071.14-.15.275-.236.404-.191.035-.251-.03-.18-.197.03-.275.03-.55 0-.826a1.21 1.21 0 0 0-.425-.891c-.15-.053-.301-.1-.454-.141a.81.81 0 0 0-.075-.441.51.51 0 0 0 0-.253H4.84c-.012-.476.003-.952.047-1.427.016-.101.038-.201.067-.3.053-.025.069-.062.047-.113.05-.057.097-.117.142-.178a.3.3 0 0 0 .132-.019.282.282 0 0 1 .227-.197l-.038-.037.019-.019a.453.453 0 0 1 .17-.019v-.056c.064-.003.07-.021.019-.056a.205.205 0 0 0 .18-.15c.022.044.057.06.104.046a.136.136 0 0 1-.038-.046c.171-.148.386-.261.642-.338a.13.13 0 0 0-.056-.028.843.843 0 0 0 .208-.132 1.03 1.03 0 0 0 .123-.047c.017.008.03.02.037.038.006-.1.037-.113.095-.038.04-.077.106-.111.198-.103l-.037-.019.094-.056a.068.068 0 0 1-.019-.028l.265-.038-.019-.037a.195.195 0 0 1 .076-.028.417.417 0 0 0 .321-.094.56.56 0 0 0 .199-.047.075.075 0 0 1 .037.019.399.399 0 0 1 0-.094c.069.014.138.026.208.037.16-.037.321-.071.482-.103.273-.025.544-.063.813-.112a.847.847 0 0 1 .151-.066c-.002.02 0 .038.01.056a.132.132 0 0 1 .066-.047l.643-.019a.346.346 0 0 0 .17-.046.228.228 0 0 0 .114.018Z" fill="#323232"/><path fill-rule="evenodd" clip-rule="evenodd" d="M13.746 7.783c-.003-.4 0-.8.01-1.201a.85.85 0 0 1 .17-.338c.252-.267.538-.314.86-.14.242.277.362.603.36.975-.02.235-.04.47-.058.704-.029.237-.07.475-.122.713a1.95 1.95 0 0 1-.426.666.746.746 0 0 1-.709.16.284.284 0 0 0-.085.019 5.283 5.283 0 0 1-.132.469h-.057a.169.169 0 0 1-.057.103.538.538 0 0 0-.15.14c-.432.202-.879.361-1.343.48-.527.099-1.056.18-1.588.243-.522.037-1.045.053-1.57.047a.393.393 0 0 1-.056-.084c.045-.107.083-.217.113-.329a4.854 4.854 0 0 0-.189-.46l.02-.028c.962-.15 1.926-.29 2.892-.422.079-.07.16-.135.246-.197.027-.043.014-.068-.038-.075-.088.05-.17.11-.246.178a7.298 7.298 0 0 1-.775.103 4.898 4.898 0 0 0-.577.075.214.214 0 0 1-.066-.018 2.82 2.82 0 0 1-.68.103.2.2 0 0 0-.114.047c-.28.054-.563.098-.85.131a12.523 12.523 0 0 1 0-.45c.124-.034.24-.084.35-.15a13.373 13.373 0 0 1 0-.77c.202-.282.397-.57.585-.863a2.258 2.258 0 0 0 0-.413l-.057-.638c.126-.06.255-.11.388-.15.005-.363.014-.726.028-1.089.268-.126.538-.244.813-.356l.104-1.126c.012-.156.021-.313.029-.47.1-.086.21-.158.33-.215.216-.04.43-.035.643.019a3.52 3.52 0 0 1 1.182.74c.32.372.427.798.321 1.277l-.302 1.089c-.116.474-.085.936.094 1.388.05.092.094.186.133.282a.48.48 0 0 0 .104.122.56.56 0 0 0 .482-.179.123.123 0 0 0-.01-.112Z" fill="#FDEFCE"/><path fill-rule="evenodd" clip-rule="evenodd" d="M12.916 2.021c.262.106.508.24.737.404.396.337.764.703 1.106 1.098.024.192.037.386.038.582.012.4.012.8 0 1.2a4.92 4.92 0 0 1-.095.545c-.026.07-.073.09-.141.056.027-.469.046-.938.056-1.407a8.395 8.395 0 0 0-.056-1.033c-.224-.263-.45-.52-.681-.769a11.935 11.935 0 0 0-.794-.572.246.246 0 0 0-.095-.01c0-.053-.022-.072-.066-.056a.045.045 0 0 1-.01-.038Z" fill="#505050"/><path fill-rule="evenodd" clip-rule="evenodd" d="M4.502 6.206a.8.8 0 0 1 .094-.13c.026-.022.051-.022.076 0-.067.088-.117.185-.151.29.044.057.1.1.17.131a.394.394 0 0 1-.255-.084.366.366 0 0 1 .066-.207Z" fill="#82E1D6"/><path fill-rule="evenodd" clip-rule="evenodd" d="M7.583 8.534v.638a.986.986 0 0 0-.256.131c-.009.075-.012.15-.009.225a3.278 3.278 0 0 1-.68-.122 9.373 9.373 0 0 1-.067-.722 17.23 17.23 0 0 0-.557-.104.08.08 0 0 1-.038-.084c-.001-.144.005-.288.019-.432.062.005.109-.02.141-.075a2.04 2.04 0 0 0 .331-1.182.658.658 0 0 1 .02-.216c.228-.146.464-.28.708-.403.71.172 1.425.316 2.146.431.037.319.059.638.066.957-.07.104-.136.21-.199.32a4.297 4.297 0 0 1-.567.018c.072-.469-.117-.778-.567-.929-.437-.053-.73.125-.879.535-.06.366.066.648.378.845.01.056.013.112.01.169Z" fill="#A0A0A0"/><path fill-rule="evenodd" clip-rule="evenodd" d="m4.351 6.357.02.084a.846.846 0 0 1 .207.122 1.617 1.617 0 0 0-.34.375.13.13 0 0 1-.076.02c-.018-.1-.028-.2-.028-.301a.694.694 0 0 1 .142-.225.216.216 0 0 1 .075-.075Z" fill="#696969"/><path fill-rule="evenodd" clip-rule="evenodd" d="M6.921 3.542c.06.039.123.073.19.103a.285.285 0 0 1 .028.084c.024.8.04 1.601.047 2.402.694.156 1.39.3 2.089.432.141-.081.29-.15.444-.206.019-.144.025-.288.02-.432a.232.232 0 0 1-.124-.019 2.483 2.483 0 0 1-.047-.45c-.133.003-.265 0-.397-.01l-.028-.028a19.308 19.308 0 0 1-.048-1.145.925.925 0 0 0 .02-.262c.033.46.059.922.075 1.388.142-.006.28 0 .416.02a.998.998 0 0 0 .038.3.465.465 0 0 0 .009.13.173.173 0 0 0 .104.02c-.006-.2 0-.401.019-.6.259-.123.524-.236.794-.339.045-.396.09-.79.132-1.182-.008.043.005.074.038.094-.036.376-.07.751-.104 1.126-.275.112-.546.23-.813.356-.014.363-.023.726-.028 1.089-.133.04-.262.09-.388.15l.057.638c.013.138.013.275 0 .413-.188.293-.383.58-.586.863-.007.257-.007.513 0 .77a1.349 1.349 0 0 1-.35.15c-.003.148-.003.298 0 .45.288-.033.572-.077.85-.131.486-.045.965-.114 1.438-.207.26-.02.518-.055.775-.103.076-.069.158-.128.245-.178.053.007.066.032.038.075a3.674 3.674 0 0 0-.245.197c-.966.131-1.93.272-2.893.422l-.019.028c.071.15.134.304.19.46-.031.112-.07.222-.114.329.015.03.034.059.057.084l.189.282c.384.021.768.025 1.153.009a68.18 68.18 0 0 1 1.701-.207c.291-.062.581-.131.87-.206.165-.066.322-.147.473-.244a.6.6 0 0 0 .292-.403.34.34 0 0 0 .086-.244c.05-.154.095-.31.132-.47a.285.285 0 0 1 .085-.018c.264.07.5.016.709-.16.187-.192.329-.414.425-.666.053-.238.094-.476.123-.713v.225h.057c-.022.432-.17.814-.444 1.145a.89.89 0 0 1-.88.281 3.303 3.303 0 0 1-.255.826c-.172.216-.39.375-.652.479-.365.12-.736.21-1.115.272a.344.344 0 0 0 .01.112c.012.014.028.02.046.02a.335.335 0 0 0-.066.187.054.054 0 0 1-.047.018V11.011a24.05 24.05 0 0 1-1.89.169.24.24 0 0 0 .018.131v.394c-.096.003-.109-.016-.037-.056v-.094c0-.082-.006-.163-.02-.244a.389.389 0 0 0 .02-.169c-.275.005-.546.011-.813.019a.216.216 0 0 1-.076-.075 4.216 4.216 0 0 0-.198-.282.157.157 0 0 1-.01-.075c.043-.104.08-.21.114-.319a2.893 2.893 0 0 0-.218-.488c-.153.03-.308.055-.463.075a.075.075 0 0 1-.066-.037l-.142-.178c.019-.047.05-.057.095-.029.043.056.09.106.141.15a.84.84 0 0 1 .256-.037 9.158 9.158 0 0 0-.01-.507c.124-.04.244-.09.36-.15l.018-.788c.122-.139.232-.286.331-.441a3.738 3.738 0 0 0-.53 0 .8.8 0 0 1-.377.385c0-.025-.013-.038-.038-.038.323-.185.446-.46.368-.826-.169-.386-.462-.533-.879-.44-.391.189-.527.492-.406.91.07.159.18.278.33.356-.01.072-.022.14-.037.207a.763.763 0 0 0-.01-.17c-.312-.196-.438-.478-.378-.844.15-.41.442-.588.88-.535.45.15.639.46.567.93.189.005.378 0 .567-.02.062-.108.128-.215.198-.319-.007-.32-.03-.638-.066-.957a27.318 27.318 0 0 1-2.146-.431c-.244.122-.48.257-.709.403a.658.658 0 0 0-.018.216 2.088 2.088 0 0 1-.038-.282.816.816 0 0 1 .038.02c.243-.133.47-.284.68-.451-.02-.35-.033-.7-.038-1.051.015-.382.018-.763.01-1.145a.529.529 0 0 0-.048-.206 41.792 41.792 0 0 1-.189-.113c.026 0 .038-.012.038-.037Z" fill="#141210"/><path fill-rule="evenodd" clip-rule="evenodd" d="M12.498 7.464a.452.452 0 0 1-.018.3.53.53 0 0 0-.038.15.087.087 0 0 0-.085.038.526.526 0 0 1-.066.169.369.369 0 0 0-.152.084.107.107 0 0 0-.056.103.474.474 0 0 0-.152.02.764.764 0 0 0 .303-.79c.002-.016-.004-.028-.02-.037-.132.056-.248.03-.349-.075a.273.273 0 0 1 .01-.319V7.09a.249.249 0 0 1 .226-.047c.118.073.181.18.19.319a.167.167 0 0 1-.038.112c.082.005.164.002.245-.01Z" fill="#F8F7F5"/><path fill-rule="evenodd" clip-rule="evenodd" d="M14.69 7.107a.785.785 0 0 1-.057.394 1.695 1.695 0 0 0-.283.32 1.327 1.327 0 0 1-.331-.32.643.643 0 0 1 .217-.703.257.257 0 0 1 .312.065.879.879 0 0 1 .095.225c.012.015.028.02.047.02Z" fill="#F099A5"/><path fill-rule="evenodd" clip-rule="evenodd" d="M14.69 7.107a.054.054 0 0 1-.047-.019.879.879 0 0 0-.094-.225.257.257 0 0 0-.312-.065.643.643 0 0 0-.217.703c.09.126.201.232.33.32.042.025.07.062.085.112.005.126-.005.251-.028.375h-.057c.004-.125 0-.25-.009-.375a1.483 1.483 0 0 1-.397-.394c-.108-.351-.01-.63.293-.835.277-.047.441.069.492.347 0 .029-.012.048-.038.056Z" fill="#150E0B"/><path fill-rule="evenodd" clip-rule="evenodd" d="M11.875 7.088v.02c-.494-.185-.838-.035-1.03.45-.043.382.112.648.463.797.338.073.606-.03.803-.31a.837.837 0 0 0 .066-.506h.057a.764.764 0 0 1-.303.788c-.328.17-.637.142-.926-.084a.795.795 0 0 1-.227-.554c.045-.432.285-.67.719-.713.077 0 .152.01.227.028a.3.3 0 0 1 .15.084Z" fill="#11100F"/><path fill-rule="evenodd" clip-rule="evenodd" d="M10.609 7.67a.455.455 0 0 0 .17.019c.004.215.08.399.227.554.289.226.598.254.926.084a.205.205 0 0 1-.066.113c-.06-.027-.113-.018-.16.028a2.978 2.978 0 0 1-.473 0 .4.4 0 0 0-.19-.094.081.081 0 0 1-.018-.066.25.25 0 0 1-.133-.018.113.113 0 0 0-.075-.076.183.183 0 0 1-.02-.112.094.094 0 0 1-.056-.01.948.948 0 0 1-.151-.337.053.053 0 0 0 .019-.047V7.67Z" fill="#F8F5EF"/><path fill-rule="evenodd" clip-rule="evenodd" d="M11.875 7.107a.273.273 0 0 0-.01.32c.101.105.218.13.35.074.015.009.022.021.02.038h-.057a.837.837 0 0 1-.067.507c-.197.279-.465.382-.803.31-.351-.15-.506-.416-.463-.798.192-.485.536-.635 1.03-.45Z" fill="#3D3C39"/><path fill-rule="evenodd" clip-rule="evenodd" d="M11.44 7.295a.96.96 0 0 1 .188.01c.088.044.16.103.218.178 0 .07.022.133.066.187.022.075.025.15.01.225a.888.888 0 0 1-.2.235.458.458 0 0 1-.49-.103.13.13 0 0 0-.076-.019.696.696 0 0 0-.066-.206.413.413 0 0 1 .085-.376c.085-.055.173-.099.264-.131Z" fill="#2B2B2A"/><path fill-rule="evenodd" clip-rule="evenodd" d="M8.737 10.73a.178.178 0 0 1-.094.093 175.5 175.5 0 0 1-1.267-.188c-.003-.438 0-.875.01-1.313.08-.042.16-.086.236-.132l.038-.788c.2.058.395.045.586-.037a.8.8 0 0 0 .378-.385c.176-.013.353-.013.53 0a3.563 3.563 0 0 1-.332.44l-.018.79c-.116.06-.235.11-.36.15.008.167.011.336.01.506a.841.841 0 0 0-.255.037 1.07 1.07 0 0 1-.142-.15c-.044-.028-.076-.018-.095.029l.142.178a.075.075 0 0 0 .066.037c.155-.02.31-.045.463-.075.086.152.159.315.218.488-.033.109-.07.215-.114.32Z" fill="#A1A1A1"/><path fill-rule="evenodd" clip-rule="evenodd" d="M13.613 7.933c.088-.011.132-.061.133-.15a.123.123 0 0 1 .009.112.56.56 0 0 1-.482.179.482.482 0 0 1-.104-.122 2.848 2.848 0 0 0-.132-.282 2.236 2.236 0 0 1-.095-1.388l.303-1.089a1.395 1.395 0 0 0-.322-1.276 3.521 3.521 0 0 0-1.181-.741 1.483 1.483 0 0 0-.643-.02c-.12.058-.23.13-.331.217-.007.156-.017.313-.028.469-.034-.02-.046-.051-.038-.094.003-.1 0-.2-.01-.3a2.23 2.23 0 0 0-.397.469c.002.07.04.114.114.131.013.024.01.046-.01.066a.39.39 0 0 1-.17 0 1.627 1.627 0 0 0-.416-.075c.038.058.07.118.095.178a1.352 1.352 0 0 1-.775-.3.133.133 0 0 0-.02.094.925.925 0 0 1-.018.262 17.93 17.93 0 0 0-.028-.394 9.807 9.807 0 0 0-.483-.516.943.943 0 0 0-.983-.206c-.26.09-.499.215-.718.375a.046.046 0 0 0 .038.01c0 .025-.013.037-.038.037-.042-.02-.08-.01-.113.028-.37.25-.607.591-.71 1.023-.012.125-.012.25 0 .375.117.452.236.902.36 1.352.01.056.012.112.01.168.006.098.018.192.037.282.011.428-.1.822-.33 1.182a.143.143 0 0 1-.142.075 4.4 4.4 0 0 0-.02.432c-.027.038-.02.073.02.103a.062.062 0 0 0-.038.028c-.008.117-.02.232-.038.348.004.016.01.032.019.046a1.437 1.437 0 0 1-.284.17.988.988 0 0 0-.028.318c.027.11.056.216.085.32.043.185.118.354.227.506a.128.128 0 0 1-.076-.037.057.057 0 0 0-.038.037.133.133 0 0 1-.047-.037 3.107 3.107 0 0 1-.265-.845.127.127 0 0 0-.122.01.923.923 0 0 1-.86-.423c.02.308.055.614.103.92a.837.837 0 0 0-.037.019 4.57 4.57 0 0 1-.038.13v-.112a.753.753 0 0 0-.038-.262c-.037-.3-.071-.6-.104-.901a1.834 1.834 0 0 1-.17-.394 15.41 15.41 0 0 1-.095-.676.31.31 0 0 1-.17-.263 5.386 5.386 0 0 1 0-.638c.037-.18.11-.343.218-.488.046-.007.072.011.075.057a.694.694 0 0 0-.142.225c.001.1.01.2.029.3a.13.13 0 0 0 .075-.019c.094-.143.208-.268.34-.375a.846.846 0 0 0-.207-.122 4.473 4.473 0 0 1-.02-.084.216.216 0 0 1 .095-.085l-.037-.019a1.23 1.23 0 0 0 .094-.047.366.366 0 0 0-.066.207.394.394 0 0 0 .255.084.434.434 0 0 1-.17-.131c.034-.105.085-.202.151-.29-.025-.022-.05-.022-.075 0v-.057c.063 0 .094-.032.094-.094h.284c.152.04.303.088.453.14.268.236.41.534.426.892.028.276.028.551 0 .826-.072.166-.012.232.18.197.085-.13.164-.264.236-.404.142-.425.16-.857.056-1.294a81.353 81.353 0 0 0-.321-1.126c-.087-.48.026-.906.34-1.277a3.18 3.18 0 0 1 1.314-.816c.281-.068.546-.03.794.113.249.18.463.397.643.647.141.099.293.183.454.253.077.014.152.027.227.038a.639.639 0 0 1-.114-.235c.177.066.36.11.548.132a.644.644 0 0 1 .048-.207c.144-.183.304-.352.482-.506.12-.097.252-.175.397-.235a3.22 3.22 0 0 1 .491 0 3.41 3.41 0 0 1 1.37.816c.141.166.242.354.303.563.011.038.033.066.066.085a.799.799 0 0 0 0 .29 3.038 3.038 0 0 1-.037.339c-.114.445-.23.889-.35 1.332-.017.13-.027.262-.029.394.008.402.12.771.34 1.107.108.04.193.014.256-.075.02.016.041.022.066.019Z" fill="#0D0E0E"/><path fill-rule="evenodd" clip-rule="evenodd" d="M5.523 7.783c.088.03.15.087.189.169a2.958 2.958 0 0 0-.199-.075.891.891 0 0 0-.18.112.137.137 0 0 1-.037-.056l.227-.15Z" fill="#88E3DA"/><path fill-rule="evenodd" clip-rule="evenodd" d="M4.632 7.539a.042.042 0 0 1-.019.028.78.78 0 0 1-.17.01v.318a1.52 1.52 0 0 1-.019-.337c.07-.001.14-.008.208-.02Z" fill="#83C6C4"/><path fill-rule="evenodd" clip-rule="evenodd" d="M5.56 7.295a.47.47 0 0 1 .217.15.82.82 0 0 1-.047.394 1.62 1.62 0 0 0-.18-.113c-.09.044-.175.094-.255.15-.029-.019-.041-.047-.038-.084.015-.08.037-.158.067-.234.075-.091.154-.179.236-.263Z" fill="#686968"/><path fill-rule="evenodd" clip-rule="evenodd" d="M11.44 7.483c.231-.017.329.089.292.319-.144.173-.29.173-.434 0-.034-.145.013-.25.141-.32Z" fill="#040404"/><path fill-rule="evenodd" clip-rule="evenodd" d="M4.691 6.582a.451.451 0 0 1 .445.187c.118.198.163.41.132.638-.041.145-.085.289-.132.432a.566.566 0 0 1-.454.32 4.017 4.017 0 0 0-.142-.057c.08.006.155 0 .227-.019a.203.203 0 0 0 .104-.075c.233-.388.258-.788.075-1.201a.465.465 0 0 0-.122-.131c-.044.043-.035.08.028.112.027.048.05.098.066.15a.492.492 0 0 1-.132-.122l.019-.018c-.061-.035-.068-.076-.02-.122a.092.092 0 0 1 .076-.02v-.055a.794.794 0 0 0-.17-.02Z" fill="#7DF3EE"/><path fill-rule="evenodd" clip-rule="evenodd" d="M9.227 7.295c.104-.002.136.045.094.14-.067.022-.105-.003-.113-.074a.263.263 0 0 0 .019-.066Z" fill="#141415"/><path fill-rule="evenodd" clip-rule="evenodd" d="M4.048 7.088c.031.03.069.043.114.038-.018.181-.021.362-.01.544a.273.273 0 0 1-.076-.094 2.801 2.801 0 0 1-.028-.488Z" fill="#656665"/><path fill-rule="evenodd" clip-rule="evenodd" d="M9.266 7.332c.038.018.044.043.02.076a.09.09 0 0 1-.02-.076Z" fill="#DEDEDF"/><path fill-rule="evenodd" clip-rule="evenodd" d="M5.542 7.107a.63.63 0 0 1 .237.132.122.122 0 0 1-.01.112.367.367 0 0 0-.189-.112.579.579 0 0 0-.198.168.172.172 0 0 1 0-.112c.058-.06.111-.122.16-.188Z" fill="#82E5DF"/><path fill-rule="evenodd" clip-rule="evenodd" d="M4.69 6.582c.058 0 .114.006.17.019v.056a.092.092 0 0 0-.075.019c-.049.047-.043.087.019.122l-.02.018c.038.05.082.09.133.122.122.277.125.559.01.845a2.86 2.86 0 0 1-.161.3.697.697 0 0 1-.227.019c-.087-.04-.119-.108-.095-.207v-.319a.78.78 0 0 0 .17-.009.042.042 0 0 0 .02-.028c.125-.05.144-.124.056-.225a.053.053 0 0 0-.019-.047.167.167 0 0 0-.132.01.212.212 0 0 0-.18.093c.002.168-.005.337-.019.507a1.017 1.017 0 0 1-.113-.244c-.06-.328.01-.622.208-.882a.69.69 0 0 1 .255-.17Z" fill="#7BFAF7"/><path fill-rule="evenodd" clip-rule="evenodd" d="M4.539 7.276a.167.167 0 0 1 .132-.01c.014.013.02.029.019.048a.057.057 0 0 0-.038.037c.024.03.024.057 0 .085a.338.338 0 0 1-.132.028.961.961 0 0 0-.019-.132.202.202 0 0 0 .151-.037.188.188 0 0 0-.113-.019Z" fill="#313531"/><path fill-rule="evenodd" clip-rule="evenodd" d="M4.084 6.788c.033.07.046.144.038.225.094.002.1.027.019.075a.342.342 0 0 1-.057-.3Z" fill="#82BFB3"/><path fill-rule="evenodd" clip-rule="evenodd" d="M9.171 6.75c.086.004.11.045.076.123-.109.007-.134-.033-.076-.122Z" fill="#262626"/><path fill-rule="evenodd" clip-rule="evenodd" d="M4.766 8.083a2.86 2.86 0 0 0 .16-.3 1.043 1.043 0 0 0-.01-.845.79.79 0 0 0-.065-.15c-.063-.031-.073-.069-.029-.112.05.035.09.08.123.131.183.413.158.813-.075 1.201a.203.203 0 0 1-.104.075Z" fill="#0D1F21"/><path fill-rule="evenodd" clip-rule="evenodd" d="M11.816 6.45a.167.167 0 0 0 .076.028.175.175 0 0 1-.123-.009c-.033.008-.03.018.01.028a.489.489 0 0 0-.142.066.788.788 0 0 0-.236-.019V6.6c.024-.004.043.002.056.02a1.1 1.1 0 0 0-.642.3.882.882 0 0 1 .056-.132.198.198 0 0 0-.236.056l-.057-.018a.092.092 0 0 0-.01.056.394.394 0 0 1-.17.01.12.12 0 0 1-.018-.085h-.057a.198.198 0 0 0-.095-.14c.024-.035.046-.032.067.009a.104.104 0 0 1 .028-.057.31.31 0 0 0 .142.244c.133-.105.28-.183.444-.234.298-.082.6-.141.907-.179Z" fill="#F2E8CE"/><path fill-rule="evenodd" clip-rule="evenodd" d="M11.457 6.62h.019a1.88 1.88 0 0 1 .434.037c.201.062.371.171.51.328a.942.942 0 0 0 .379.047 2.474 2.474 0 0 1-.142.544 1.067 1.067 0 0 1-.132.188c-.026.044-.042.044-.047 0a.452.452 0 0 0 .019-.3.478.478 0 0 0-.123-.282 1.322 1.322 0 0 0-.71-.356.59.59 0 0 0-.15-.019.44.44 0 0 0-.208.038.864.864 0 0 0-.596.488c-.033.114-.068.226-.104.337v.038a.748.748 0 0 1 .066-.6c.052-.06.099-.123.142-.188a1.1 1.1 0 0 1 .643-.3Z" fill="#0B0908"/><path fill-rule="evenodd" clip-rule="evenodd" d="M11.668 6.826c.274.046.51.165.709.356.072.08.113.174.123.282a1.253 1.253 0 0 1-.246.01.166.166 0 0 0 .038-.114.382.382 0 0 0-.19-.319.25.25 0 0 0-.226.047.3.3 0 0 0-.151-.084.931.931 0 0 0-.227-.028c-.434.043-.674.28-.718.713a.454.454 0 0 1-.17-.019c.036-.111.07-.224.103-.338a.864.864 0 0 1 .596-.488c.119-.015.239-.021.36-.018Z" fill="#D4D4D0"/><path fill-rule="evenodd" clip-rule="evenodd" d="M11.667 6.826a2.36 2.36 0 0 0-.36.018.44.44 0 0 1 .209-.037c.053 0 .104.006.15.019Z" fill="#747371"/><path fill-rule="evenodd" clip-rule="evenodd" d="M7.659 6.62c.525-.054.913.146 1.163.6a.878.878 0 0 1 .018.488c-.168-.764-.625-1.03-1.37-.798-.15.068-.286.159-.407.272a.715.715 0 0 0-.113.62 1.478 1.478 0 0 1-.17-.226 3.522 3.522 0 0 1-.16-.544c.129.01.255-.005.377-.047.179-.2.4-.321.662-.366Z" fill="#070707"/><path fill-rule="evenodd" clip-rule="evenodd" d="M11.911 6.657a1.88 1.88 0 0 0-.434-.038l.293-.037a.388.388 0 0 0 .104.028l-.02.019a.105.105 0 0 1 .057.028Z" fill="#C9C1AE"/><path fill-rule="evenodd" clip-rule="evenodd" d="M5.144 6.394c.003.088 0 .175-.01.263a.08.08 0 0 1-.028-.038l.038-.225Z" fill="#599792"/><path fill-rule="evenodd" clip-rule="evenodd" d="M5.315 6.338c.076-.003.151 0 .227.01.177.237.246.503.208.797a.816.816 0 0 0-.18-.094.42.42 0 0 0-.18.15 1.862 1.862 0 0 0-.179-.47 1.016 1.016 0 0 1 .01-.337.347.347 0 0 0 .094-.056Z" fill="#6A6A6A"/><path fill-rule="evenodd" clip-rule="evenodd" d="m5.146 6.394-.038.225A.826.826 0 0 1 5.07 6.6a1.363 1.363 0 0 1-.019-.319l.303-.075a.123.123 0 0 1 .132.066c-.075.016-.15.029-.227.038a.197.197 0 0 0-.113.084Z" fill="#7FEBE8"/><path fill-rule="evenodd" clip-rule="evenodd" d="M11.818 6.45c-.307.038-.61.097-.908.179-.163.051-.311.13-.444.234a.31.31 0 0 1-.142-.244c.141-.11.293-.207.454-.29a3.82 3.82 0 0 1 1.626-.245c.057.01.114.023.17.038.018.095.025.192.019.29-.26.007-.518.02-.775.038Z" fill="#100D0B"/><path fill-rule="evenodd" clip-rule="evenodd" d="M11.855 6.15c.22 0 .441.006.661.019v.188a4.846 4.846 0 0 0-1.833.272c-.071.049-.144.096-.218.14l-.075-.075c-.015-.021-.011-.04.009-.056a1.58 1.58 0 0 1 .473-.272c.323-.102.65-.174.983-.216Z" fill="#323232"/><path fill-rule="evenodd" clip-rule="evenodd" d="M4.748 6.019c.207-.012.402.029.586.122a6.906 6.906 0 0 1-.322.122.898.898 0 0 0-.01.3c-.115-.047-.231-.094-.349-.14a.337.337 0 0 1-.094-.067c.062-.076.115-.157.16-.244a.164.164 0 0 0 .029-.093Z" fill="#696A6A"/><path fill-rule="evenodd" clip-rule="evenodd" d="M9.607 5.418c.027.096.04.196.038.3a.998.998 0 0 1-.038-.3Z" fill="#555655"/><path fill-rule="evenodd" clip-rule="evenodd" d="m10.703 3.748-.132 1.182c-.27.103-.535.216-.794.338-.02.2-.025.4-.02.6a.173.173 0 0 1-.103-.018.465.465 0 0 1-.01-.132.998.998 0 0 0-.037-.3A2.315 2.315 0 0 0 9.19 5.4c-.017-.466-.042-.929-.076-1.388a.133.133 0 0 1 .02-.094c.225.181.483.281.774.3a1.203 1.203 0 0 0-.094-.178c.14.007.28.032.415.075a.39.39 0 0 0 .17 0c.02-.02.023-.042.01-.066-.074-.017-.112-.06-.113-.131.11-.174.242-.33.397-.47.01.1.012.2.01.3ZM6.884 3.58l.189.112c.03.065.045.134.047.206.009.382.005.763-.01 1.145.005.35.018.701.038 1.05a4.71 4.71 0 0 1-.68.451.816.816 0 0 0-.038-.019.763.763 0 0 0-.01-.168c-.123-.45-.243-.9-.359-1.352a1.867 1.867 0 0 1 0-.375c.103-.432.34-.773.71-1.023.033-.038.07-.047.113-.028Z" fill="#A1A1A1"/><path fill-rule="evenodd" clip-rule="evenodd" d="M9.096 4.273c.004.382.02.764.047 1.145l.028.028c.132.01.265.013.397.01.002.151.018.302.048.45.038.017.08.024.122.019.007.144 0 .288-.018.432a2.87 2.87 0 0 0-.445.206 65.605 65.605 0 0 1-2.089-.432c-.007-.8-.023-1.601-.047-2.402a.285.285 0 0 0-.028-.084 1.363 1.363 0 0 1-.19-.103.046.046 0 0 1-.037-.01c.219-.16.458-.285.718-.375.37-.12.698-.05.983.206.168.167.328.339.482.516.011.132.02.263.029.394Z" fill="#A2A2A2"/><path fill-rule="evenodd" clip-rule="evenodd" d="M7.318 5.756c.117-.025.165.018.142.131-.155.068-.202.025-.142-.131Z" fill="#181818"/><path fill-rule="evenodd" clip-rule="evenodd" d="M7.338 5.812h.076v.057h-.076v-.057Z" fill="#DDD"/><path fill-rule="evenodd" clip-rule="evenodd" d="M7.3 4.987c.133-.004.164.05.095.16-.134.009-.165-.044-.095-.16Z" fill="#131313"/><path fill-rule="evenodd" clip-rule="evenodd" d="M7.3 5.043h.075v.056H7.3v-.056Z" fill="#E2E2E2"/><path fill-rule="evenodd" clip-rule="evenodd" d="M7.3 4.217c.074-.004.118.03.132.103-.073.115-.136.112-.19-.009-.003-.046.016-.078.057-.094Z" fill="#151515"/><path fill-rule="evenodd" clip-rule="evenodd" d="M7.3 4.273c.035-.005.06.008.075.038a.092.092 0 0 1-.075.019v-.057Z" fill="#D8D8D8"/><path fill-rule="evenodd" clip-rule="evenodd" d="M7.224 3.579c.102-.009.149.035.142.131-.055.072-.112.072-.17 0a.126.126 0 0 1 .028-.131Z" fill="#111"/><path fill-rule="evenodd" clip-rule="evenodd" d="M7.243 3.635h.076v.057h-.076v-.057Z" fill="#CECECE"/><path fill-rule="evenodd" clip-rule="evenodd" d="M5.486 7.933a.382.382 0 0 1 .113.028c.048.043.042.08-.019.113a.196.196 0 0 1-.208-.057.64.64 0 0 1 .114-.084Z" fill="#656465"/><path fill-rule="evenodd" clip-rule="evenodd" d="M4.274 7.933a.281.281 0 0 1 .095.281h-.076a3.18 3.18 0 0 1-.019-.281Z" fill="#6E6E6F"/><path fill-rule="evenodd" clip-rule="evenodd" d="M5.239 8.008c.176.174.352.174.53 0 .046.03.097.048.15.056-.007.107-.013.213-.018.32a6.887 6.887 0 0 0-.889.037 3.18 3.18 0 0 1-.019-.282.471.471 0 0 0 .246-.13Z" fill="#9F9F9F"/><path fill-rule="evenodd" clip-rule="evenodd" d="M5.22 9.021v.094a.96.96 0 0 1-.577-.3 5.71 5.71 0 0 0-.18-.432v-.169c.087-.001.172.005.256.02.066-.015.132-.028.199-.038 0 .104.025.201.075.29.07.01.139.013.208.01-.003.175.004.35.02.525Z" fill="#A2A1A1"/><path fill-rule="evenodd" clip-rule="evenodd" d="M8.207 8.327a.8.8 0 0 1-.586 0 .706.706 0 0 1-.33-.356c-.12-.418.015-.72.406-.91.417-.093.71.054.88.44.076.366-.047.641-.37.826Z" fill="#6B6B6B"/><path fill-rule="evenodd" clip-rule="evenodd" d="M7.772 7.07c.38-.04.635.117.766.469.038.519-.205.779-.728.779-.38-.115-.546-.368-.5-.76a.618.618 0 0 1 .254-.385l.208-.103Z" fill="#0D131A"/><path fill-rule="evenodd" clip-rule="evenodd" d="M7.81 7.107c.492.004.716.248.671.732-.119.33-.355.47-.709.422-.356-.135-.492-.389-.406-.76a.664.664 0 0 1 .444-.394Z" fill="#54C8E9"/><path fill-rule="evenodd" clip-rule="evenodd" d="M7.848 7.22c.399.024.572.23.52.62-.161.321-.404.4-.728.234-.264-.277-.251-.54.037-.789l.17-.065Z" fill="#092B3A"/><path fill-rule="evenodd" clip-rule="evenodd" d="M7.772 7.276c.403-.034.589.147.557.544-.127.268-.332.352-.614.254-.212-.144-.272-.335-.18-.573a.807.807 0 0 1 .237-.225Z" fill="#62F5EA"/><path fill-rule="evenodd" clip-rule="evenodd" d="M7.848 7.483c.27.011.346.136.227.375-.149.094-.272.069-.369-.075a.278.278 0 0 1 .142-.3Z" fill="#111"/><path fill-rule="evenodd" clip-rule="evenodd" d="M7.85 7.539c.157-.016.23.053.217.206a.162.162 0 0 1-.161.094c-.118-.02-.159-.09-.123-.206a.511.511 0 0 1 .066-.094Z" fill="#CC6A78"/><path fill-rule="evenodd" clip-rule="evenodd" d="M7.867 7.614c.113-.01.15.037.113.14-.136.025-.174-.021-.113-.14Z" fill="#190604"/><path fill-rule="evenodd" clip-rule="evenodd" d="M4.313 8.27a.083.083 0 0 1 .066.02.791.791 0 0 1 0 .243 2.004 2.004 0 0 1-.066-.262Z" fill="#666"/><path fill-rule="evenodd" clip-rule="evenodd" d="M5.56 9.265a.895.895 0 0 0-.227-.112 1.057 1.057 0 0 1-.047-.282 4.272 4.272 0 0 0-.028-.366l.019-.028c.207-.018.415-.024.624-.019a4.88 4.88 0 0 1-.057.545 2.67 2.67 0 0 1-.265.14.228.228 0 0 0-.019.122Z" fill="#A1A1A1"/><path fill-rule="evenodd" clip-rule="evenodd" d="M5.957 8.627c.181.039.364.073.548.103.018.235.04.47.066.704.174.063.354.107.539.132a.32.32 0 0 0 .189.037v.995a3.358 3.358 0 0 1-1.153-.366.452.452 0 0 0-.17-.132 3.791 3.791 0 0 1-.265-.272c-.03-.103-.058-.21-.085-.319a.988.988 0 0 1 .028-.319c.102-.046.197-.102.284-.169a.214.214 0 0 1-.02-.047c.018-.115.031-.23.039-.347Z" fill="#A2A2A2"/><path fill-rule="evenodd" clip-rule="evenodd" d="M4.465 8.383c.065.14.125.283.18.432a.96.96 0 0 0 .576.3v-.094c.023.11.042.223.057.338a.852.852 0 0 1-.615-.319.882.882 0 0 1-.198-.657Z" fill="#787878"/><path fill-rule="evenodd" clip-rule="evenodd" d="m7.66 8.402-.038.788c-.006-.269 0-.538.02-.807.01.003.017.009.018.02Z" fill="#343434"/><path fill-rule="evenodd" clip-rule="evenodd" d="M5.825 10.335a.045.045 0 0 0 .01.038c.227.208.489.361.784.46a9.759 9.759 0 0 0 1.853.29v.17l-1.002.14a5.184 5.184 0 0 0-.993.084l-.047-.009a.39.39 0 0 1 .378-.094.12.12 0 0 0 .02-.084c-.238-.062-.42.01-.549.216a.719.719 0 0 0-.36.112l-.566.413c-.105.098-.203.2-.293.31l-.038-.075a18.492 18.492 0 0 0-.255-1.201.647.647 0 0 0 .122-.132c.013-.175.013-.35 0-.525a.509.509 0 0 0-.141-.348.248.248 0 0 0-.095-.009.24.24 0 0 0-.019-.131 10.657 10.657 0 0 1-.104-.92.923.923 0 0 0 .86.422.127.127 0 0 1 .123-.009c.048.294.136.576.265.845.013.016.03.029.047.037Z" fill="#ED672C"/><path fill-rule="evenodd" clip-rule="evenodd" d="M5.334 9.153a.895.895 0 0 1 .227.112c.007.07-.018.088-.076.057a.598.598 0 0 0-.123.037.416.416 0 0 1-.028-.206Z" fill="#787878"/><path fill-rule="evenodd" clip-rule="evenodd" d="M10.815 9.51c-.473.092-.952.16-1.437.206a.2.2 0 0 1 .113-.047 2.82 2.82 0 0 0 .68-.103c.022.01.044.016.067.018.191-.036.383-.061.577-.075Z" fill="#FDEFCE"/><path fill-rule="evenodd" clip-rule="evenodd" d="M7.507 9.772c.132-.001.163.052.094.16-.134.009-.165-.045-.094-.16Z" fill="#141414"/><path fill-rule="evenodd" clip-rule="evenodd" d="M4.52 9.735c.029.083.041.17.039.262a.753.753 0 0 1-.038-.262Z" fill="#AEAEAE"/><path fill-rule="evenodd" clip-rule="evenodd" d="M7.525 9.828h.057c-.019.1-.038.1-.057 0Z" fill="#929292"/><path fill-rule="evenodd" clip-rule="evenodd" d="M7.112 9.566c.069.011.138.017.208.018v1.314a3.863 3.863 0 0 1-1.097-.347 1.831 1.831 0 0 1-.283-.216 1.41 1.41 0 0 1-.227-.507c.083.095.171.186.265.273a.45.45 0 0 1 .17.13 3.36 3.36 0 0 0 1.153.367v-.995a.32.32 0 0 1-.19-.037Z" fill="#797979"/><path fill-rule="evenodd" clip-rule="evenodd" d="M7.525 10.373c.101-.01.149.034.142.131a.124.124 0 0 1-.151.019c-.04-.054-.037-.104.01-.15Z" fill="#181818"/><path fill-rule="evenodd" clip-rule="evenodd" d="M7.545 10.429h.057v.056h-.057v-.056Z" fill="#9C9C9C"/><path fill-rule="evenodd" clip-rule="evenodd" d="M7.376 10.635c.422.064.844.127 1.267.188a.178.178 0 0 0 .094-.094c-.003.026 0 .051.01.075.07.092.136.186.198.282-.523-.058-1.046-.114-1.569-.17v-.28Z" fill="#797979"/><path fill-rule="evenodd" clip-rule="evenodd" d="M13.613 9.81a.341.341 0 0 1-.085.244.6.6 0 0 1-.293.403c-.15.097-.308.178-.473.244-.289.075-.579.144-.87.207-.568.061-1.135.13-1.701.206-.385.016-.77.012-1.153-.01a90.545 90.545 0 0 1-.19-.28c.524.005 1.047-.01 1.57-.048a23.13 23.13 0 0 0 1.588-.244 7.578 7.578 0 0 0 1.342-.478.538.538 0 0 1 .151-.141.17.17 0 0 0 .057-.103h.057Z" fill="#FAB89D"/><path fill-rule="evenodd" clip-rule="evenodd" d="M11.743 11.16a.348.348 0 0 1-.17.038.042.042 0 0 1 .019-.028.35.35 0 0 1 .113-.01v-.093a.546.546 0 0 0-.245.056 1.967 1.967 0 0 0-.133-.018 17 17 0 0 1-.68.046c-.116.028-.232.05-.35.066a3.575 3.575 0 0 0-.425-.019v.113a.24.24 0 0 1-.02-.131 24.047 24.047 0 0 0 1.891-.17v.15Z" fill="#D6909A"/><path fill-rule="evenodd" clip-rule="evenodd" d="M11.572 11.198c-.36.046-.72.099-1.078.16-.209.027-.417.03-.624.01v-.17c.142-.002.284.005.426.02.117-.017.234-.039.35-.066a17 17 0 0 0 .68-.047c.044.004.088.01.132.018a.546.546 0 0 1 .246-.056v.094a.35.35 0 0 0-.114.01.042.042 0 0 0-.018.027Z" fill="#F19AA3"/><path fill-rule="evenodd" clip-rule="evenodd" d="M7.62 8.327a.8.8 0 0 0 .586 0c.025 0 .038.013.038.038a.843.843 0 0 1-.586.037c-.001-.01-.008-.016-.019-.019a8.628 8.628 0 0 0-.019.807c-.077.046-.155.09-.236.132-.01.438-.013.875-.01 1.313v.282c.524.055 1.047.111 1.57.169.017.03.043.055.075.075.267-.008.538-.014.813-.019.006.06 0 .117-.019.169v-.131c-.277.02-.554.023-.832.009a2.941 2.941 0 0 0-.435-.047v.131c-.003.088 0 .176.01.263.236.153.49.263.766.329.075.012.15.021.226.028a.13.13 0 0 0 .095.018v-.243a.488.488 0 0 1 .189-.02c-.072.041-.059.06.038.057a.396.396 0 0 1-.17.019v.187c.167.007.33 0 .491-.018a3.85 3.85 0 0 0 1.531-.479.081.081 0 0 0 .02-.066.054.054 0 0 0 .047-.018.334.334 0 0 1 .066-.188l1.455.085c.107.02.214.038.322.056.14.054.273.123.397.206l.435.32c.74.747 1.38 1.57 1.918 2.467.24.287.463.584.672.892a1.392 1.392 0 0 1-.095.272c.057.112.123.219.199.319.161.191.316.388.463.59a.132.132 0 0 0-.038.048c-.15-.177-.294-.359-.435-.544a2.961 2.961 0 0 1-.227-.338 3.06 3.06 0 0 1-.378.431c-.214.163-.421.335-.624.516-.129.093-.261.18-.397.263.067.082.136.16.208.235.156.208.323.408.501.6.021.03.037.061.047.094a.214.214 0 0 1-.047.019 10.7 10.7 0 0 1-.765-.92c-.25.14-.502.274-.757.404a.198.198 0 0 1-.17-.038 5.132 5.132 0 0 1-.595-.685c-.02.169-.04.338-.057.507-.03.676.004 1.348.104 2.017l-.01.104a.054.054 0 0 1-.047.018 5.334 5.334 0 0 0-.056-.563 1.001 1.001 0 0 0-.038-.3 16.69 16.69 0 0 1-.01-1.295c.031-.23.047-.462.048-.694.19.287.422.559.7.816a.195.195 0 0 0 .075.028c.335-.15.657-.326.964-.525a6.74 6.74 0 0 0 1.162-.995c.084-.105.15-.22.199-.347a9.255 9.255 0 0 0-.633-.835 26.326 26.326 0 0 0-1.191-1.69c-.223-.27-.459-.53-.71-.778a10.1 10.1 0 0 0-.434-.31 1.355 1.355 0 0 0-.416-.234c-.493-.066-.988-.1-1.484-.103a3.38 3.38 0 0 1-.246.412c-.127.112-.269.203-.425.273a3.108 3.108 0 0 1-2.552.094 1.267 1.267 0 0 1-.68-.592 1.772 1.772 0 0 0-.663.066c-.226.019-.453.031-.68.038a2.384 2.384 0 0 0-.36.065.402.402 0 0 0-.17.019.857.857 0 0 0-.085.319c.021.391-.03.773-.15 1.145a.883.883 0 0 1-.237.328.37.37 0 0 1-.19.066c.047.236.085.474.114.713-.002.092.01.18.038.263.072.53.135 1.062.19 1.595a.682.682 0 0 1-.02.225 28.923 28.923 0 0 0-.17-1.295 28.44 28.44 0 0 0-.208-1.52.254.254 0 0 1-.17-.066 1.612 1.612 0 0 1-.199-.215 5.06 5.06 0 0 1-.255-.6 12.358 12.358 0 0 0-1.37 2.007c-.256.338-.492.688-.71 1.051.052.158.137.296.256.413.136.156.29.287.463.394.498.409 1.05.734 1.654.976a.26.26 0 0 0 .123-.075c.241-.27.452-.533.633-.788.001.186.023.368.067.544.022.218.04.437.056.657.004.35-.002.7-.019 1.05a16.33 16.33 0 0 0-.056.582.48.48 0 0 1-.038-.262c.016-.185.029-.373.038-.563.003-.345 0-.689-.01-1.033a2.062 2.062 0 0 0-.028-.281 1.653 1.653 0 0 0-.057-.394.344.344 0 0 0-.01-.113 4.31 4.31 0 0 1-.557.704.259.259 0 0 1-.208.038l-.756-.338c-.24.351-.496.692-.766 1.023-.03.024-.052.018-.066-.02.104-.175.227-.337.369-.487.13-.191.266-.379.406-.563a6.826 6.826 0 0 0-.416-.253 12.98 12.98 0 0 0-.368-.291.359.359 0 0 0-.085.15c-.238.278-.471.56-.7.844l-.038-.018c.21-.286.434-.56.671-.826a.19.19 0 0 0 .029-.075.706.706 0 0 1 .094-.103 2.465 2.465 0 0 1-.624-.573l-.056.075a1.164 1.164 0 0 1-.085.17c-.205.267-.397.543-.577.825a.199.199 0 0 1-.057-.047c.204-.309.415-.612.634-.91l.075-.15a2.547 2.547 0 0 1-.075-.338c.207-.312.42-.618.642-.92.264-.443.535-.88.813-1.313.213-.299.44-.587.68-.864a5.513 5.513 0 0 0-.103-.544.208.208 0 0 0-.038-.131 17.293 17.293 0 0 0-.132-.732.141.141 0 0 1-.16-.075 2.41 2.41 0 0 1-.077-.826c.017-.051.052-.076.104-.075a4.7 4.7 0 0 0 .038-.131.837.837 0 0 1 .038-.02.24.24 0 0 1 .019.132.246.246 0 0 1 .095.01.508.508 0 0 1 .141.347c.013.175.013.35 0 .525a.647.647 0 0 1-.123.131c.099.398.184.799.256 1.202l.037.075a3.4 3.4 0 0 1 .293-.31l.568-.413c.11-.07.229-.107.359-.112.128-.206.31-.278.548-.216a.121.121 0 0 1-.019.084.39.39 0 0 0-.378.094l.047.01c.328-.06.66-.089.993-.085l1.002-.14v-.17a9.767 9.767 0 0 1-1.853-.29 2.152 2.152 0 0 1-.784-.46.045.045 0 0 1-.01-.038.057.057 0 0 1 .038-.038.128.128 0 0 0 .076.038c.087.08.181.153.283.216.347.17.713.286 1.097.347V9.584a2.609 2.609 0 0 1-.747-.15c-.027-.235-.049-.47-.066-.703-.184-.03-.367-.065-.549-.104a.062.062 0 0 1 .038-.028c-.04-.03-.046-.065-.019-.103a.08.08 0 0 0 .038.084c.187.032.373.066.558.104.013.242.035.483.066.722.223.065.45.105.68.122-.003-.075 0-.15.01-.225.08-.057.165-.1.255-.131v-.639c.016-.066.028-.134.038-.206Z" fill="#141313"/><path fill-rule="evenodd" clip-rule="evenodd" d="M14.011 11.592a.13.13 0 0 1-.075-.018.433.433 0 0 1-.095.103 1.288 1.288 0 0 0-.397.225 1.168 1.168 0 0 1-.265.094.194.194 0 0 1-.189.066v.075c-.224.076-.45.148-.68.215a1.425 1.425 0 0 0-.227.038.755.755 0 0 1-.227.094c-.45.088-.904.17-1.361.244-.278.01-.555.028-.832.056a2.75 2.75 0 0 1-.454 0 10.425 10.425 0 0 1-1.002-.15l-.945-.394a.546.546 0 0 1-.17-.169.741.741 0 0 0-.17-.094 3.177 3.177 0 0 0-.284-.3.255.255 0 0 0-.132-.066c.115-.03.235-.052.359-.066.227-.006.454-.018.68-.037.218-.064.438-.086.662-.066.154.28.38.477.68.591a3.108 3.108 0 0 0 2.553-.093c.156-.07.298-.16.425-.272.092-.132.174-.27.246-.413.496.003.99.037 1.484.103.155.055.293.133.416.234Z" fill="#E4E4E4"/><path fill-rule="evenodd" clip-rule="evenodd" d="M11.743 11.16v.188a.082.082 0 0 1-.019.066 3.85 3.85 0 0 1-1.531.479H9.72c.005-.025-.002-.043-.019-.057v-.112c.06.006.118 0 .17-.019v-.338c.207.022.415.018.624-.01.358-.06.718-.113 1.078-.159a.35.35 0 0 0 .17-.037Z" fill="#FBEECF"/><path fill-rule="evenodd" clip-rule="evenodd" d="M9.814 11.311c.013.08.019.162.018.244a.31.31 0 0 1-.018-.15 6.287 6.287 0 0 1-1.135-.085 1.663 1.663 0 0 1-.132-.046v-.132c.146.005.29.02.435.047.277.014.555.011.832-.01v.132Z" fill="#707070"/><path fill-rule="evenodd" clip-rule="evenodd" d="M4.597 10.673c.07.013.143.025.217.037.01.075.013.15.01.226-.002.036-.02.057-.057.065a.25.25 0 0 1-.16-.01.685.685 0 0 1-.058-.337c.013.014.029.02.048.019Z" fill="#7CFAF6"/><path fill-rule="evenodd" clip-rule="evenodd" d="M4.824 10.936c.003-.076 0-.15-.01-.226a9.316 9.316 0 0 1-.217-.037c.081-.004.16-.004.236 0a.624.624 0 0 1-.01.263Z" fill="#53938F"/><path fill-rule="evenodd" clip-rule="evenodd" d="M4.56 10.166a.254.254 0 0 1 .18.038.888.888 0 0 1 .084.394.652.652 0 0 1-.302 0c-.003-.132 0-.263.01-.394a.08.08 0 0 0 .027-.038Z" fill="#686867"/><path fill-rule="evenodd" clip-rule="evenodd" d="M8.548 11.273c.043.018.087.033.132.047.376.063.754.09 1.135.085a.31.31 0 0 0 .019.15v.094a.488.488 0 0 0-.19.019.682.682 0 0 0-.018.225H9.55a3.286 3.286 0 0 1-.227-.028 2.447 2.447 0 0 1-.766-.329 1.835 1.835 0 0 1-.009-.263Z" fill="#A1A1A1"/><path fill-rule="evenodd" clip-rule="evenodd" d="M8.339 11.386a.244.244 0 0 1 .132-.019v.17a.31.31 0 0 1-.019-.15H8.34Z" fill="#8F8F8F"/><path fill-rule="evenodd" clip-rule="evenodd" d="M14.01 11.592c.147.1.292.203.435.31.25.248.486.508.709.779.419.547.816 1.11 1.19 1.689.228.267.44.545.634.835-.05.126-.115.242-.199.347a6.74 6.74 0 0 1-1.162.995h-.057a.057.057 0 0 0-.019-.056 1.041 1.041 0 0 0-.16-.132l-.02-.056a6.777 6.777 0 0 1-.415-.432.26.26 0 0 0-.114-.169 2.352 2.352 0 0 0-.208-.337 1.427 1.427 0 0 0-.15-.338 2.558 2.558 0 0 0-.133-.413 11.757 11.757 0 0 0-.151-.75l-.057-.057a1.578 1.578 0 0 1-.01-.244v-.075a19.5 19.5 0 0 0 .19-1.408l-.02-.075a.068.068 0 0 0-.028.02c-.05.464-.11.926-.18 1.388a20.943 20.943 0 0 0-.189 2.214 1.878 1.878 0 0 0-.018.376.964.964 0 0 1 0 .225c0 .232-.017.464-.048.694-.013.432-.01.864.01 1.295 0 .104.013.204.038.3.028.184.047.372.056.563-1.232.547-2.53.854-3.894.92h-.908a12.222 12.222 0 0 1-2.42-.394 6.745 6.745 0 0 0-.283-.939.444.444 0 0 0-.066-.206l-.019.075a1.382 1.382 0 0 1-.18-.77c-.015-.219-.034-.438-.056-.656a81.207 81.207 0 0 0-.076-.92.24.24 0 0 0-.019-.131 46.971 46.971 0 0 0-.189-1.595.752.752 0 0 0-.038-.263c-.03-.239-.067-.477-.113-.713a.37.37 0 0 0 .189-.066.883.883 0 0 0 .236-.328c.122-.372.172-.754.151-1.145a.857.857 0 0 1 .086-.319.402.402 0 0 1 .17-.019c.05.009.094.03.132.066.101.094.196.194.284.3a.74.74 0 0 1 .17.094c.044.069.1.125.17.169l.945.394c.33.066.664.116 1.002.15.151.013.303.013.454 0 .276-.028.554-.047.832-.056.457-.075.91-.156 1.36-.244a.755.755 0 0 0 .228-.094c.074-.019.15-.031.226-.038.23-.067.457-.139.681-.215v-.075c.077.012.14-.01.19-.066.091-.02.18-.052.264-.094.118-.098.25-.173.397-.225a.433.433 0 0 0 .094-.103.13.13 0 0 0 .076.018Z" fill="#F5F5F5"/><path fill-rule="evenodd" clip-rule="evenodd" d="M6.146 11.649a.092.092 0 0 1 .075.019 6.173 6.173 0 0 0-.066.262c.023.4-.027.787-.151 1.164a.715.715 0 0 1-.255.29.112.112 0 0 1-.104-.009 29.982 29.982 0 0 1-.199-1.032 36.94 36.94 0 0 0-.019.057c.033.322.084.64.152.957a.476.476 0 0 1-.275-.244c-.066-.155-.13-.312-.189-.47a.327.327 0 0 1-.018-.168c.129-.179.283-.332.463-.46.123-.083.243-.17.359-.263.075-.04.15-.075.227-.103Z" fill="#F1F1F1"/><path fill-rule="evenodd" clip-rule="evenodd" d="M8.339 11.386h.113a.31.31 0 0 0 .019.15c.36.276.77.42 1.229.432.078.012.16.019.246.019.124.003.244-.01.359-.038a4.06 4.06 0 0 0 1.503-.507c.01-.074.012-.15.01-.225.063 0 .126.006.188.019a.956.956 0 0 1-.359.516c-.856.496-1.75.578-2.684.244a1.245 1.245 0 0 1-.719-.591.135.135 0 0 1 .095-.019Z" fill="#DFDFDF"/><path fill-rule="evenodd" clip-rule="evenodd" d="M9.643 11.668v.244a.13.13 0 0 1-.094-.02h.075a.682.682 0 0 1 .02-.224Z" fill="#494B4B"/><path fill-rule="evenodd" clip-rule="evenodd" d="M9.701 11.836c.017.014.024.032.02.057h.472c-.16.018-.325.025-.492.018v-.075Z" fill="#A9A486"/><path fill-rule="evenodd" clip-rule="evenodd" d="M4.823 11.818c.027.037.04.081.038.131a.208.208 0 0 1-.038-.131Z" fill="#9D9D9D"/><path fill-rule="evenodd" clip-rule="evenodd" d="M10.306 11.949c-.115.028-.235.04-.36.038-.084 0-.166-.007-.245-.02.202.003.404-.003.605-.018Z" fill="#A3A1A0"/><path fill-rule="evenodd" clip-rule="evenodd" d="M5.824 14.99c.007.087.01.175.01.262a.276.276 0 0 0-.274 0 3.067 3.067 0 0 1-.378.432.173.173 0 0 1-.095.018.058.058 0 0 1-.019.057c-.436.254-.883.489-1.342.703a.15.15 0 0 1-.095-.009 2.004 2.004 0 0 1-.463-.394 1.008 1.008 0 0 1-.255-.413c.217-.363.454-.713.709-1.05.392-.716.849-1.386 1.37-2.009.073.206.158.406.256.6.06.079.126.15.198.216a.254.254 0 0 0 .17.066c.083.505.153 1.012.208 1.52Z" fill="#F4F4F4"/><path fill-rule="evenodd" clip-rule="evenodd" d="M14.124 13.488c.006-.037-.006-.062-.038-.075.07-.461.13-.924.18-1.389a.07.07 0 0 1 .028-.019l.019.075c-.046.475-.11.944-.19 1.408Z" fill="#202020"/><path fill-rule="evenodd" clip-rule="evenodd" d="M14.124 13.563c-.003.082 0 .163.01.244l.056.056c.058.249.109.5.151.751.056.134.1.272.132.413.065.106.116.218.152.338.08.107.148.22.208.338a.26.26 0 0 1 .113.168c.132.15.271.294.416.432l.019.056c.057.038.11.082.16.132a.058.058 0 0 1 .02.056h.056c-.307.2-.628.374-.964.525a.195.195 0 0 1-.076-.028 4.51 4.51 0 0 1-.7-.816.964.964 0 0 0 0-.225c.031-.015.044-.04.039-.075.041-.551.085-1.102.132-1.652.027-.108.04-.22.038-.338-.004-.129.009-.254.038-.375Z" fill="#D0D0D0"/><path fill-rule="evenodd" clip-rule="evenodd" d="M14.087 13.413c.031.013.044.038.038.075v.075c-.03.12-.042.246-.038.375a1.537 1.537 0 0 0-.038.338c-.047.55-.09 1.1-.132 1.652a1.211 1.211 0 0 1-.02-.3c.025-.743.088-1.48.19-2.215Z" fill="#1A1A1A"/><path fill-rule="evenodd" clip-rule="evenodd" d="M7.43 14.05a.135.135 0 0 1-.113.038.135.135 0 0 1 .114-.037Z" fill="#606060"/><path fill-rule="evenodd" clip-rule="evenodd" d="M14.086 13.938c.002.117-.01.23-.038.338 0-.116.013-.229.038-.338Z" fill="#828282"/><path fill-rule="evenodd" clip-rule="evenodd" d="M5.786 14.201c.028.083.04.17.038.263a.752.752 0 0 1-.038-.263Z" fill="#5A5A5A"/><path fill-rule="evenodd" clip-rule="evenodd" d="M12.877 14.389c.022.121.025.247.01.375a.104.104 0 0 1-.029.056 3.14 3.14 0 0 0 .02-.431Z" fill="#696969"/><path fill-rule="evenodd" clip-rule="evenodd" d="M5.826 14.99c.066.427.123.859.17 1.294-.003.017.004.03.019.038a.245.245 0 0 0 .019-.132c.027.305.052.611.075.92a2.33 2.33 0 0 1-.066-.544 9.026 9.026 0 0 1-.633.788.259.259 0 0 1-.123.075 6.261 6.261 0 0 1-1.654-.976.15.15 0 0 0 .094.01c.459-.215.906-.45 1.343-.704a.058.058 0 0 0 .018-.057.173.173 0 0 0 .095-.018c.14-.133.266-.277.378-.432a.276.276 0 0 1 .274 0c0-.087-.003-.175-.01-.263Z" fill="#D0D0D0"/><path fill-rule="evenodd" clip-rule="evenodd" d="M17.148 15.853a5.206 5.206 0 0 0-.113.112.276.276 0 0 1 .056-.14.091.091 0 0 0-.094-.047.346.346 0 0 0-.038-.132.073.073 0 0 0-.076-.01.944.944 0 0 0-.245.301.246.246 0 0 1-.095.01c.14-.133.266-.277.378-.432.068.117.143.23.227.338Z" fill="#DB96A1"/><path fill-rule="evenodd" clip-rule="evenodd" d="M17.034 15.965c-.17.222-.378.4-.624.535a.387.387 0 0 1-.095.131c-.189.123-.384.233-.586.329a3.788 3.788 0 0 1-.207-.235c.135-.083.267-.17.396-.263.203-.18.41-.353.624-.516.032.003.064 0 .095-.01a.945.945 0 0 1 .246-.3.073.073 0 0 1 .075.01.345.345 0 0 1 .038.131.091.091 0 0 1 .095.047.276.276 0 0 0-.057.141Z" fill="#F19AA5"/><path fill-rule="evenodd" clip-rule="evenodd" d="M13.897 15.627c-.006.104 0 .204.02.3.004.036-.008.06-.039.076-.006-.129 0-.254.02-.376Z" fill="#4E4E4E"/><path fill-rule="evenodd" clip-rule="evenodd" d="M8.075 15.928a.167.167 0 0 1 .057.112.167.167 0 0 1-.057-.112Z" fill="#6B6B6B"/><path fill-rule="evenodd" clip-rule="evenodd" d="M2.914 16.04a.14.14 0 0 0 .085 0l.019.094c.057.064.108.132.15.206.127.085.237.185.332.3a.19.19 0 0 1-.029.076c-.237.265-.46.54-.67.826a10.492 10.492 0 0 1-.55-.507c.181-.282.373-.558.578-.826.033-.055.061-.11.085-.169Z" fill="#A2A2A2"/><path fill-rule="evenodd" clip-rule="evenodd" d="M6.014 16.059a.24.24 0 0 1 .018.131c.006.046 0 .09-.018.132-.016-.009-.022-.021-.02-.038a.682.682 0 0 0 .02-.225Z" fill="#787878"/><path fill-rule="evenodd" clip-rule="evenodd" d="M3.5 16.64a1.507 1.507 0 0 0-.332-.3 1.228 1.228 0 0 0-.15-.206l-.02-.094a.14.14 0 0 1-.085 0l.057-.075c.175.227.382.418.624.573a.712.712 0 0 0-.095.103Z" fill="#878787"/><path fill-rule="evenodd" clip-rule="evenodd" d="M12.877 14.389c.003.144-.003.288-.02.431-.13.406-.4.672-.812.798a.932.932 0 0 1-.208.14 1.39 1.39 0 0 0-.104.113 3.644 3.644 0 0 0-.293.957c-.044.107-.07.22-.076.338.002.095-.004.189-.019.282a.27.27 0 0 0-.037.169 5.065 5.065 0 0 1-.766 1.689 1.073 1.073 0 0 1-.747.45 1.887 1.887 0 0 1-.586-.056.33.33 0 0 1-.132-.066 9.653 9.653 0 0 1-.501-.516 2.145 2.145 0 0 1-.274-1.389c.022-.284.025-.572.01-.863a1.233 1.233 0 0 0-.048-.263v-.037a.208.208 0 0 0-.038-.132 8.964 8.964 0 0 0-.094-.394.167.167 0 0 0-.057-.112 3.008 3.008 0 0 0-.217-.395 7.358 7.358 0 0 1-.473-.412 1.293 1.293 0 0 1-.303-.545.469.469 0 0 1 .123-.44.177.177 0 0 1 .114-.048.135.135 0 0 0 .113-.037 1.76 1.76 0 0 1 .492 0c.038.027.082.04.132.037.102.042.203.089.303.141.232.202.5.336.803.404.228-.087.465-.137.709-.15l.246.009c.124.039.244.089.359.15a.08.08 0 0 0 .075 0c.102-.09.215-.163.34-.216.296-.236.63-.396 1.003-.478.288-.02.56.043.813.187a.391.391 0 0 1 .17.254Z" fill="#151515"/><path fill-rule="evenodd" clip-rule="evenodd" d="M10.533 15.946a.272.272 0 0 1 .218.075c.192.288.23.595.113.92a.146.146 0 0 1-.123.066 1.549 1.549 0 0 1-.34 0 .824.824 0 0 1-.236-.291c-.034-.338.089-.594.368-.77Z" fill="#2E2E2E"/><path fill-rule="evenodd" clip-rule="evenodd" d="M11.687 15.42a.957.957 0 0 1 .189.01c.05.116.018.197-.095.244a.852.852 0 0 0-.141.16l-.029-.394a.088.088 0 0 0 .076-.02Z" fill="#8A8A8A"/><path fill-rule="evenodd" clip-rule="evenodd" d="m10.116 15.12-.17.048c.056.009.113.012.17.009a3.4 3.4 0 0 1-.019.507v-.488c-.211.012-.42.043-.624.094a.604.604 0 0 1-.056.225c.004-.032-.009-.05-.038-.056a1.131 1.131 0 0 1-.36-.038c.114.012.227.015.34.01a2.81 2.81 0 0 0-.15-.048c.064 0 .127.006.189.02a.207.207 0 0 1 .075-.16c.208-.074.423-.114.643-.122Z" fill="#292929"/><path fill-rule="evenodd" clip-rule="evenodd" d="M8.963 15.365a1.694 1.694 0 0 1-.019-.357.586.586 0 0 1-.208-.019c.083.003.165-.004.246-.019-.015.131-.021.263-.019.395Z" fill="#555"/><path fill-rule="evenodd" clip-rule="evenodd" d="M10.684 14.877a.493.493 0 0 1 .189.018.13.13 0 0 0 .038.057.132.132 0 0 0 .038.047c-.049.02-.1.04-.152.056-.052.056-.046.106.02.15.043.01.087.012.132.01.008.117.068.155.18.112.018-.113.04-.226.065-.338a.376.376 0 0 0 .17-.225h.114v.207a.4.4 0 0 1 .17.018c.03.117.039.236.029.357l-.114.037c.006.365-.035.721-.123 1.07-.005.023-.017.035-.038.038h-.378a.683.683 0 0 0-.075-.263.667.667 0 0 0-.312-.357.632.632 0 0 0-.029-.14 2.525 2.525 0 0 0-.472-.029v-.544c.044.003.088 0 .132-.01a.069.069 0 0 0 .038-.037c.033-.134.064-.269.094-.403a.213.213 0 0 0 .114.037c-.007.12.05.163.17.132Z" fill="#8C8C8C"/><path fill-rule="evenodd" clip-rule="evenodd" d="M11.024 15.064a.334.334 0 0 1-.151.057c.027.012.052.025.075.037h-.113a.082.082 0 0 1 .019-.066c.058-.004.115-.014.17-.028Z" fill="#9E9E9E"/><path fill-rule="evenodd" clip-rule="evenodd" d="M10.95 15.158a1.335 1.335 0 0 0-.076-.037.335.335 0 0 0 .151-.057 2.629 2.629 0 0 0-.066-.206.138.138 0 0 1 .047-.038.21.21 0 0 0 .104.075l.17-.112.01.028a3.89 3.89 0 0 1-.18.197 1.869 1.869 0 0 1-.028.263l-.038.018a.415.415 0 0 1-.047-.112.054.054 0 0 0-.047-.019Z" fill="#E0E0E0"/><path fill-rule="evenodd" clip-rule="evenodd" d="M10.685 14.877a.697.697 0 0 1 .227-.02v.095a.13.13 0 0 1-.037-.057.493.493 0 0 0-.19-.018Z" fill="#525252"/><path fill-rule="evenodd" clip-rule="evenodd" d="M12.197 14.708h.057c-.012.235 0 .466.037.694a2.052 2.052 0 0 1-.302.15 1.038 1.038 0 0 1-.038-.206h-.208a5.672 5.672 0 0 1-.056-.394.791.791 0 0 0 .15-.019.784.784 0 0 0-.018-.169c.13-.002.257-.021.378-.056Z" fill="#8D8D8D"/><path fill-rule="evenodd" clip-rule="evenodd" d="M10.097 14.576a.744.744 0 0 1 .208.085.704.704 0 0 1-.056.44.25.25 0 0 1-.133.02c-.22.008-.434.048-.643.122a.207.207 0 0 0-.075.16.855.855 0 0 0-.19-.02.467.467 0 0 1-.179-.018c-.01-.15-.012-.3-.01-.45a.542.542 0 0 1-.254 0c-.01-.1-.013-.2-.01-.301.14.017.272.055.397.112.129-.051.261-.089.397-.112.181-.031.364-.044.548-.038Z" fill="#8B8B8B"/><path fill-rule="evenodd" clip-rule="evenodd" d="M9.114 15.214c.07.012.088.05.057.113-.047-.023-.066-.06-.056-.113Z" fill="#171717"/><path fill-rule="evenodd" clip-rule="evenodd" d="M9.114 14.99h.057v.093c-.072 0-.09-.032-.057-.094Z" fill="#2D2D2D"/><path fill-rule="evenodd" clip-rule="evenodd" d="M8.075 14.952a.2.2 0 0 1 .151-.038 6.21 6.21 0 0 1-.019-.356 7.965 7.965 0 0 0-.643.018v-.018c.22-.016.441-.022.662-.02.014.132.02.263.019.395-.057.004-.114.01-.17.019Z" fill="#696969"/><path fill-rule="evenodd" clip-rule="evenodd" d="M8.264 14.426c.034.187.04.375.019.563l-.02-.563Z" fill="#515151"/><path fill-rule="evenodd" clip-rule="evenodd" d="M7.43 14.464c-.005.092.039.13.133.112.214-.015.428-.02.643-.018.003.119.01.238.019.356a.2.2 0 0 0-.151.038.173.173 0 0 0-.104.018c-.008.202-.002.402.019.601a12.51 12.51 0 0 0-.586-.563.711.711 0 0 1-.19-.77.2.2 0 0 1 .18-.074c.03.097.043.197.038.3Z" fill="#8D8D8D"/><path fill-rule="evenodd" clip-rule="evenodd" d="M10.097 14.576a2.748 2.748 0 0 0-.548.038.237.237 0 0 1 .132-.047c.142-.015.28-.012.416.01Z" fill="#535353"/><path fill-rule="evenodd" clip-rule="evenodd" d="M7.47 14.239c.015.071.024.146.027.225.013.02.032.032.057.037.217-.018.434-.024.652-.018a7.96 7.96 0 0 1-.548.028 1.517 1.517 0 0 0-.189.037c.03.01.062.013.095.01v.018c-.095.018-.139-.02-.133-.112a.043.043 0 0 1 .029.019c.009-.082.012-.163.01-.244Z" fill="#323232"/><path fill-rule="evenodd" clip-rule="evenodd" d="M11.57 14.482h.152c.01.14.03.277.057.413-.082.005-.164.011-.246.02a5.699 5.699 0 0 1-.038-.414.087.087 0 0 0 .076-.018Z" fill="#888"/><path fill-rule="evenodd" clip-rule="evenodd" d="M8.737 14.99a.588.588 0 0 0 .208.018c-.007.123 0 .241.018.357 0 .037.02.056.057.056.115.031.235.044.36.038a.385.385 0 0 0-.01.168.72.72 0 0 0 .217.113c.025.248 0 .492-.075.732l.019.056a.86.86 0 0 1 .132.056l.019.094c-.027.193-.07.38-.132.563a.92.92 0 0 0 .18.132.162.162 0 0 1-.01.131 4.905 4.905 0 0 0-.549-.056 9.675 9.675 0 0 1-.056-.376c.06-.032.116-.07.17-.112a.712.712 0 0 0 .123-.657.562.562 0 0 0-.35-.441.548.548 0 0 0-.482.122 1.424 1.424 0 0 0-.057.62.59.59 0 0 0 .236.403c.035.02.073.03.114.028a.936.936 0 0 0 .217.056l.029.357a.46.46 0 0 0-.19 0c-.018.1-.024.2-.018.3a2.355 2.355 0 0 0-.492-.01.227.227 0 0 1-.019-.121 4.05 4.05 0 0 0 .01-.676 1.233 1.233 0 0 0-.048-.263 2.61 2.61 0 0 0-.302-.976.58.58 0 0 0-.01-.243 2.468 2.468 0 0 1 0-.432.413.413 0 0 1 .237-.038 1.89 1.89 0 0 0-.019-.563.245.245 0 0 1 .019-.131c.126.09.255.178.387.263.015.147.037.291.067.431Z" fill="#8C8C8C"/><path fill-rule="evenodd" clip-rule="evenodd" d="M9.284 16.96c.005-.024-.002-.043-.019-.057a.573.573 0 0 0 .095-.197c-.01-.038-.035-.053-.076-.047a.513.513 0 0 1-.113.207.532.532 0 0 1-.265.037.331.331 0 0 1-.246-.187.678.678 0 0 1-.056-.47c.043-.155.143-.23.302-.225h.019c.027.03.058.055.094.075a.667.667 0 0 0 .076-.084c.022-.014.04-.011.057.01a.2.2 0 0 0-.047.13c.06.038.11.088.15.15a.678.678 0 0 1 .048.151v.15h.076a1.086 1.086 0 0 0-.057-.319c-.05-.306-.227-.425-.53-.356a.057.057 0 0 0-.037.037.266.266 0 0 0-.17.225c-.022.14-.025.285-.01.432a.556.556 0 0 0 .066.131.55.55 0 0 0 .19.226.09.09 0 0 0 .037.056.192.192 0 0 1-.113-.028.59.59 0 0 1-.236-.404 1.424 1.424 0 0 1 .056-.62.548.548 0 0 1 .482-.121.562.562 0 0 1 .35.44.712.712 0 0 1-.123.658Z" fill="#101A1F"/><path fill-rule="evenodd" clip-rule="evenodd" d="M9.078 16.828a.478.478 0 0 1-.132-.009.801.801 0 0 0-.151-.066.413.413 0 0 1-.133-.337.366.366 0 0 1 .114-.3.184.184 0 0 1 .132-.01c.1.09.2.174.302.253a.607.607 0 0 1-.047.413.091.091 0 0 1-.085.056Z" fill="#64E9DE"/><path fill-rule="evenodd" clip-rule="evenodd" d="M8.794 15.928c.302-.07.479.05.53.356.016.1.019.2.009.3a.458.458 0 0 0-.029-.131.68.68 0 0 0-.047-.15.483.483 0 0 0-.151-.15.2.2 0 0 1 .047-.132c-.016-.02-.035-.023-.057-.009a.666.666 0 0 1-.075.084.393.393 0 0 1-.095-.075h.114v-.075a1.168 1.168 0 0 0-.246-.018Z" fill="#53C2DF"/><path fill-rule="evenodd" clip-rule="evenodd" d="M8.757 15.965a.042.042 0 0 0 .018.028.47.47 0 0 1 .133.028c-.159-.005-.26.07-.303.226-.017-.014-.023-.032-.019-.057a.267.267 0 0 1 .17-.225Z" fill="#52ADCC"/><path fill-rule="evenodd" clip-rule="evenodd" d="M8.793 15.928c.083-.003.164.003.245.018v.075h-.132a.467.467 0 0 0-.132-.028.042.042 0 0 1-.02-.028.056.056 0 0 1 .039-.037Z" fill="#53CFF2"/><path fill-rule="evenodd" clip-rule="evenodd" d="M8.113 15.421h.076v.075h-.076v-.075Z" fill="#1A1A1A"/><path fill-rule="evenodd" clip-rule="evenodd" d="M8.113 15.158c.067.005.092.043.075.113-.067-.005-.092-.043-.075-.113Z" fill="#282828"/><path fill-rule="evenodd" clip-rule="evenodd" d="M11.95 14.013a.849.849 0 0 1 .416.066.235.235 0 0 0-.123.066 7.31 7.31 0 0 0-.01.525c-.144.014-.289.027-.434.038a6.512 6.512 0 0 0-.038-.282c-.1.004-.202.01-.302.019v.263c-.07-.003-.14 0-.208.01a1.237 1.237 0 0 1-.151.102c-.06-.07-.124-.074-.19-.009-.113.01-.226.012-.34.01a.207.207 0 0 1 .038-.16c.29-.184.585-.353.889-.507.149-.06.3-.108.453-.14Z" fill="#8B8B8B"/><path fill-rule="evenodd" clip-rule="evenodd" d="M12.386 14.107a.826.826 0 0 1 .35.17.872.872 0 0 1-.066.769 1.505 1.505 0 0 1-.312.319.075.075 0 0 1-.038-.02 19.105 19.105 0 0 1-.019-1.181.328.328 0 0 1 .085-.057Z" fill="#8B8B8B"/><path fill-rule="evenodd" clip-rule="evenodd" d="M12.348 14.426h.056v.057h-.056v-.057Z" fill="#1C1C1C"/><path fill-rule="evenodd" clip-rule="evenodd" d="M8.206 14.483a6.169 6.169 0 0 0-.652.018.082.082 0 0 1-.057-.037 1.321 1.321 0 0 0-.028-.225.18.18 0 0 1-.019-.113c.164-.003.328 0 .492.01a.952.952 0 0 1 .264.103.41.41 0 0 1 0 .244Z" fill="#8B8B8B"/><path fill-rule="evenodd" clip-rule="evenodd" d="M7.922 14.05c.05 0 .094.012.132.038a.211.211 0 0 1-.132-.037Z" fill="#888"/><path fill-rule="evenodd" clip-rule="evenodd" d="M8.963 16.322a.088.088 0 0 0-.076.018l-.037.038a.093.093 0 0 0-.048.075c-.009.05-.012.1-.009.15a.334.334 0 0 1 .047-.3c.05-.03.091-.024.123.019Z" fill="#193834"/><path fill-rule="evenodd" clip-rule="evenodd" d="M17.15 15.852c.14.186.286.367.435.545a.686.686 0 0 0-.151.178.244.244 0 0 0-.133.131c-.088.016-.142.07-.16.16-.089.09-.18.178-.274.263l-.038.093c-.063.004-.094.035-.095.094a.502.502 0 0 0-.189.075v.057a.177.177 0 0 0-.113.047.613.613 0 0 1-.151.16.358.358 0 0 0-.048-.095 7.546 7.546 0 0 1-.5-.6 5.13 5.13 0 0 0 .585-.329.387.387 0 0 0 .095-.131c.246-.135.454-.313.624-.535l.113-.113Z" fill="#FDEFCF"/><path fill-rule="evenodd" clip-rule="evenodd" d="M8.85 16.378c-.038.11-.02.207.058.29.024.01.05.013.075.01a.045.045 0 0 1-.01.038.947.947 0 0 0-.141-.038.131.131 0 0 1-.038-.075c-.003-.05 0-.1.01-.15a.093.093 0 0 1 .047-.075Z" fill="#201211"/><path fill-rule="evenodd" clip-rule="evenodd" d="M8.888 16.34a.16.16 0 0 1 .075.01c.092.106.098.215.02.328a.161.161 0 0 1-.076-.01.268.268 0 0 1-.057-.29l.038-.038Z" fill="#DA727F"/><path fill-rule="evenodd" clip-rule="evenodd" d="M8.887 16.453c.085.006.11.046.076.122-.058.012-.09-.013-.095-.075a.207.207 0 0 1 .02-.047Z" fill="#210804"/><path fill-rule="evenodd" clip-rule="evenodd" d="M10.95 16.228a.68.68 0 0 1 .075.263h.378l-.378.037c.003.088 0 .175-.01.263a.164.164 0 0 1-.028.075l.019-.272a2.134 2.134 0 0 0-.057-.366Z" fill="#383838"/><path fill-rule="evenodd" clip-rule="evenodd" d="M8.226 16.434c.027.038.04.082.038.132a.162.162 0 0 1-.038-.132Z" fill="#7F7F7F"/><path fill-rule="evenodd" clip-rule="evenodd" d="M9.323 16.284c.034.101.053.208.056.32h-.075v-.15c.015.04.025.083.028.13.01-.1.007-.2-.01-.3Z" fill="#418FA4"/><path fill-rule="evenodd" clip-rule="evenodd" d="M8.888 16.34a.088.088 0 0 1 .075-.018c.068 0 .116.032.142.094a.675.675 0 0 1 0 .225c-.044.091-.117.126-.217.103a.276.276 0 0 1-.057-.066.972.972 0 0 1 .142.038.045.045 0 0 0 .01-.038c.078-.113.072-.222-.02-.328a.16.16 0 0 0-.075-.01Z" fill="#191618"/><path fill-rule="evenodd" clip-rule="evenodd" d="M8.586 16.19c-.005.024.001.043.018.057a.678.678 0 0 0 .057.469c-.016.006-.022.019-.019.037a.554.554 0 0 1-.066-.131 1.662 1.662 0 0 1 .01-.432Z" fill="#3B5E63"/><path fill-rule="evenodd" clip-rule="evenodd" d="M3.632 18.16a3.938 3.938 0 0 1-.378-.262.09.09 0 0 0 .01-.094c.112-.15.225-.3.34-.45.023-.22 0-.433-.067-.638a.36.36 0 0 1 .086-.15c.124.094.247.191.368.29.143.08.281.165.416.254-.14.184-.276.372-.406.563-.142.15-.265.313-.369.488Z" fill="#8A8A8A"/><path fill-rule="evenodd" clip-rule="evenodd" d="M10.098 15.684v.056a5.1 5.1 0 0 1 .491.019v.131a.582.582 0 0 0-.227.084c-.073.069-.139.14-.198.216a.994.994 0 0 0-.038.695c.054.066.114.126.18.178a.688.688 0 0 0 .283.047c-.01.345-.034.69-.075 1.032h.397c.02.252-.037.484-.17.694a6.7 6.7 0 0 1-.454.038c0-.21-.081-.38-.246-.507a2.25 2.25 0 0 0-.038-.262c0-.139-.07-.195-.208-.17.003-.187 0-.375-.01-.562a2.225 2.225 0 0 1-.16-.15c.02-.154.054-.304.104-.451.046-.14-.001-.228-.142-.263l-.019-.065c.059-.236.08-.477.067-.723a.327.327 0 0 0-.18-.084.135.135 0 0 1-.038-.122.604.604 0 0 0 .057-.226c.204-.05.412-.081.624-.093v.488Z" fill="#8C8C8C"/><path fill-rule="evenodd" clip-rule="evenodd" d="M9.266 16.903c-.05.032-.081.02-.094-.037a.512.512 0 0 0 .113-.207c.04-.006.066.01.076.047a.573.573 0 0 1-.095.197Z" fill="#51ACC4"/><path fill-rule="evenodd" clip-rule="evenodd" d="M8.794 16.753a.801.801 0 0 1 .151.066c.044.01.088.012.133.01a.25.25 0 0 1-.284-.076Z" fill="#4E958E"/><path fill-rule="evenodd" clip-rule="evenodd" d="M3.538 16.716c.068.205.09.418.067.638-.115.15-.228.3-.34.45a.09.09 0 0 1-.01.094 5.435 5.435 0 0 1-.416-.338c.228-.285.462-.566.7-.844Z" fill="#A2A2A2"/><path fill-rule="evenodd" clip-rule="evenodd" d="M9.17 16.866c.014.056.045.069.095.037l-.17.113v-.019c.05-.017.05-.04 0-.065a.943.943 0 0 1-.189-.029.53.53 0 0 0 .265-.037Z" fill="#153548"/><path fill-rule="evenodd" clip-rule="evenodd" d="M8.662 16.716a.331.331 0 0 0 .246.187c.06.016.122.025.19.029.049.026.049.048 0 .065-.083 0-.165-.005-.247-.018h-.019a.548.548 0 0 1-.189-.226c-.003-.018.003-.03.02-.037Z" fill="#56BCD7"/><path fill-rule="evenodd" clip-rule="evenodd" d="M11.44 16.828c-.017.117-.042.23-.076.338.006-.119.032-.232.076-.338Z" fill="#858585"/><path fill-rule="evenodd" clip-rule="evenodd" d="M8.849 16.979c.08.013.163.019.245.018v.019c-.07.003-.139 0-.208-.01a.063.063 0 0 1-.037-.027Z" fill="#328099"/><path fill-rule="evenodd" clip-rule="evenodd" d="M5.994 16.866c.035.127.053.258.057.394a1.842 1.842 0 0 1-.057-.394Z" fill="#B4B4B4"/><path fill-rule="evenodd" clip-rule="evenodd" d="M8.264 16.603c.024.084.04.171.047.263.016.29.012.579-.01.863.009-.376-.004-.751-.037-1.126Z" fill="#BCBCBC"/><path fill-rule="evenodd" clip-rule="evenodd" d="M8.358 16.678c.025.084.041.171.048.263a4.05 4.05 0 0 1-.01.676 9.614 9.614 0 0 0-.038-.939Z" fill="#363637"/><path fill-rule="evenodd" clip-rule="evenodd" d="M11.025 16.528c.124.018.25.024.378.019-.082.392-.148.786-.199 1.182-.065.217-.14.43-.227.638a2.102 2.102 0 0 0-.028-.272c-.12-.01-.24-.012-.36-.01.015-.324.028-.65.039-.975.182.006.302-.075.359-.244a.164.164 0 0 0 .028-.075c.01-.088.013-.175.01-.263Z" fill="#8B8B8B"/><path fill-rule="evenodd" clip-rule="evenodd" d="M10.721 17.373c.032.012.044.037.038.075h-.057a.129.129 0 0 1 .02-.075Z" fill="#1F1F1F"/><path fill-rule="evenodd" clip-rule="evenodd" d="M10.475 17.41c.035.003.041.015.019.038-.015-.009-.021-.021-.019-.038Z" fill="#080808"/><path fill-rule="evenodd" clip-rule="evenodd" d="M9.323 18.086a2.68 2.68 0 0 1-.057-.507c-.06.003-.067.018-.019.047a.18.18 0 0 1-.037.047c-.05-.103-.082-.097-.095.019a.164.164 0 0 1-.01-.132c.013.023.022.023.029 0a.167.167 0 0 0-.151-.056c.006.097 0 .191-.02.281v-.3c.114-.005.224.008.332.038.003.189.013.377.028.563Z" fill="#737373"/><path fill-rule="evenodd" clip-rule="evenodd" d="M9.113 17.692c.043.031.074.025.095-.02a.18.18 0 0 0 .038-.046c-.048-.029-.042-.044.019-.047.003.176.022.345.056.507.02.014.042.026.067.037a.47.47 0 0 1 0 .188c-.292.197-.411.472-.36.826.034.088.075.172.123.253.08.049.162.093.246.131.097.011.191.002.284-.028a.809.809 0 0 1 .037.17 1.183 1.183 0 0 1-.567-.085 8.708 8.708 0 0 1-.482-.479 1.865 1.865 0 0 1-.274-1.295c.192-.014.381-.02.567-.019.019-.09.025-.184.02-.281a.167.167 0 0 1 .15.056c-.006.023-.016.023-.028 0a.164.164 0 0 0 .01.132Z" fill="#8C8C8C"/><path fill-rule="evenodd" clip-rule="evenodd" d="M8.7 17.56h.056v.056h-.057v-.056Z" fill="#2B2B2B"/><path fill-rule="evenodd" clip-rule="evenodd" d="M11.345 17.448a.34.34 0 0 1-.038.169.27.27 0 0 1 .038-.17Z" fill="#787878"/><path fill-rule="evenodd" clip-rule="evenodd" d="M8.527 17.542h.057v.056h-.057v-.056Z" fill="#252525"/><path fill-rule="evenodd" clip-rule="evenodd" d="M9.342 17.523a3.53 3.53 0 0 1 .397.018v.45a.564.564 0 0 1 .198.02c.019.099.028.2.029.3a3.371 3.371 0 0 0-.19-.066.533.533 0 0 0-.292.028l-.029-.018a1.03 1.03 0 0 1-.028-.17.123.123 0 0 1-.057-.056c-.007-.169-.017-.338-.028-.506Z" fill="#8B8B8B"/><path fill-rule="evenodd" clip-rule="evenodd" d="M9.21 17.673c-.021.044-.053.05-.095.019.013-.116.044-.122.095-.02Z" fill="#171717"/><path fill-rule="evenodd" clip-rule="evenodd" d="M6.165 17.767c-.016.273.044.529.18.77l.018-.076a.444.444 0 0 1 .066.207c.077.316.165.629.265.938a.043.043 0 0 0-.028.019.216.216 0 0 0-.085-.066 3.08 3.08 0 0 1-.454-.14c.01-.2.015-.401.019-.601.016-.35.022-.7.019-1.051Z" fill="#E2E2E2"/><path fill-rule="evenodd" clip-rule="evenodd" d="M10.003 18.105c.018.084.03.171.038.262a.042.042 0 0 1-.028-.018 1.577 1.577 0 0 1-.01-.244Z" fill="#4C4C4C"/><path fill-rule="evenodd" clip-rule="evenodd" d="M9.55 18.33c.149-.019.287.01.415.084l.199.197c.108.383-.027.63-.407.741-.217.13-.416.102-.595-.084-.135-.427-.005-.74.387-.938Z" fill="#2E2E2E"/><path fill-rule="evenodd" clip-rule="evenodd" d="M13.84 18.217c.028.096.041.196.039.3a1.225 1.225 0 0 1-.038-.3Z" fill="#B1B1B1"/><path fill-rule="evenodd" clip-rule="evenodd" d="M6.09 18.574c-.008.19-.02.378-.037.563-.003-.15 0-.3.01-.45a.342.342 0 0 1 .028-.113Z" fill="#BBB"/><path fill-rule="evenodd" clip-rule="evenodd" d="M6.148 18.818c-.004.2-.01.4-.02.6-.018.004-.03-.003-.037-.018.015-.195.034-.389.057-.582Z" fill="#B2B2B2"/><path fill-rule="evenodd" clip-rule="evenodd" d="M10.495 18.893h.208a2.712 2.712 0 0 1-.397.544.84.84 0 0 1-.53.225.92.92 0 0 1 0-.206.875.875 0 0 0 .463-.357.396.396 0 0 0 .029-.169c.079-.006.155-.019.227-.037Z" fill="#8A8A8A"/><path fill-rule="evenodd" clip-rule="evenodd" d="M6.43 18.668c.116.303.21.616.283.938h-.019c-.1-.31-.188-.622-.264-.939Z" fill="#303030"/><path fill-rule="evenodd" clip-rule="evenodd" d="M9.208 19.7c.192.05.387.068.586.056a2.002 2.002 0 0 1-.473.01.402.402 0 0 1-.113-.066Z" fill="#AAA"/><circle cx="10" cy="10" r="9.9" stroke="#ED672C" stroke-width=".2"/></g></g><defs><clipPath id="a"><path fill="#fff" d="M0 0h20v20H0z"/></clipPath></defs></svg>