<svg width="206" height="28" viewBox="0 0 206 28" fill="none" xmlns="http://www.w3.org/2000/svg">
<path d="M-4.27985e-05 20.9771V4.91501H3.95124L4.20823 9.73365L3.66212 9.21966C3.91911 8.17027 4.32602 7.30291 4.88284 6.61759C5.43966 5.93228 6.11427 5.429 6.90667 5.10776C7.72048 4.7651 8.60925 4.59377 9.57298 4.59377C10.6866 4.59377 11.6718 4.80793 12.5284 5.23625C13.4065 5.66458 14.0918 6.31777 14.5844 7.19583C15.0984 8.05248 15.3553 9.13399 15.3553 10.4404V20.9771H10.9543V11.6932C10.9543 10.3226 10.6866 9.38028 10.1512 8.86629C9.61581 8.33089 8.91979 8.06319 8.06314 8.06319C7.46349 8.06319 6.87455 8.2131 6.29631 8.51293C5.73949 8.79133 5.27904 9.25178 4.91497 9.89427C4.57231 10.5368 4.40098 11.3934 4.40098 12.4642V20.9771H-4.27985e-05ZM25.9287 4.59377C27.5564 4.59377 28.9805 4.92572 30.2013 5.58962C31.4434 6.25352 32.4071 7.20654 33.0924 8.44868C33.7992 9.69081 34.1525 11.1899 34.1525 12.9461C34.1525 14.6808 33.7992 16.1799 33.0924 17.4435C32.4071 18.6856 31.4434 19.6386 30.2013 20.3025C28.9805 20.9664 27.5564 21.2984 25.9287 21.2984C24.3225 21.2984 22.8984 20.9664 21.6562 20.3025C20.4141 19.6386 19.4396 18.6856 18.7329 17.4435C18.0476 16.1799 17.7049 14.6808 17.7049 12.9461C17.7049 11.1899 18.0476 9.69081 18.7329 8.44868C19.4396 7.20654 20.4141 6.25352 21.6562 5.58962C22.8984 4.92572 24.3225 4.59377 25.9287 4.59377ZM25.9287 7.87044C25.1149 7.87044 24.4189 8.06319 23.8407 8.44868C23.2838 8.81275 22.8555 9.36957 22.5557 10.1191C22.2559 10.8687 22.106 11.811 22.106 12.9461C22.106 14.0811 22.2559 15.0234 22.5557 15.773C22.8555 16.5226 23.2838 17.0901 23.8407 17.4756C24.4189 17.8397 25.1149 18.0217 25.9287 18.0217C26.7211 18.0217 27.3957 17.8397 27.9526 17.4756C28.5308 17.0901 28.9698 16.5226 29.2697 15.773C29.5695 15.0234 29.7194 14.0811 29.7194 12.9461C29.7194 11.811 29.5695 10.8687 29.2697 10.1191C28.9698 9.36957 28.5308 8.81275 27.9526 8.44868C27.3957 8.06319 26.7211 7.87044 25.9287 7.87044ZM56.831 4.91501H61.5211L56.3813 20.9771H51.3056L47.8041 10.0549L44.431 20.9771H39.3554L34.2155 4.91501H38.9057L42.1181 17.2186L45.6839 4.91501H50.0528L53.6507 17.2186L56.831 4.91501ZM62.966 27.7232V4.91501H66.9173L67.2064 10.0228L66.6603 9.44453C66.853 8.50222 67.2064 7.66699 67.7204 6.93884C68.2558 6.21069 68.9304 5.64316 69.7442 5.23625C70.558 4.80793 71.4682 4.59377 72.4748 4.59377C73.7811 4.59377 74.9483 4.92572 75.9763 5.58962C77.0043 6.25352 77.8074 7.20654 78.3856 8.44868C78.9853 9.6694 79.2851 11.1578 79.2851 12.9139C79.2851 14.6701 78.9853 16.1799 78.3856 17.4435C77.786 18.6856 76.9614 19.6386 75.912 20.3025C74.8841 20.9664 73.7062 21.2984 72.3784 21.2984C70.9649 21.2984 69.787 20.9022 68.8447 20.1098C67.9238 19.3174 67.292 18.3215 66.9494 17.1222L67.367 16.4476V27.7232H62.966ZM71.0934 17.9253C72.2713 17.9253 73.1922 17.5077 73.8561 16.6725C74.5414 15.8158 74.8841 14.5737 74.8841 12.9461C74.8841 11.3184 74.5521 10.087 73.8882 9.25178C73.2457 8.39514 72.3356 7.96681 71.1577 7.96681C70.4081 7.96681 69.7442 8.17027 69.166 8.57717C68.6091 8.96266 68.1701 9.53019 67.8489 10.2798C67.5276 11.0079 67.367 11.8967 67.367 12.9461C67.367 13.974 67.5169 14.8628 67.8167 15.6124C68.1166 16.3619 68.5449 16.9402 69.1017 17.3471C69.6799 17.7326 70.3438 17.9253 71.0934 17.9253ZM90.8827 10.7295C90.8827 9.8086 90.615 9.09116 90.0796 8.57717C89.5656 8.06319 88.8803 7.80619 88.0236 7.80619C87.2312 7.80619 86.5352 8.00964 85.9356 8.41655C85.3359 8.82346 84.8969 9.49807 84.6185 10.4404L80.8599 9.28391C81.224 7.87044 82.0164 6.73538 83.2371 5.87874C84.4793 5.02209 86.139 4.59377 88.2164 4.59377C89.6299 4.59377 90.8613 4.81864 91.9107 5.26838C92.9601 5.6967 93.7739 6.34989 94.3521 7.22795C94.9518 8.10602 95.2516 9.20895 95.2516 10.5368V17.058C95.2516 17.8718 95.6371 18.2787 96.4081 18.2787C96.7721 18.2787 97.1148 18.2252 97.436 18.1181L97.1791 20.8486C96.6222 21.127 95.9262 21.2662 95.091 21.2662C94.3414 21.2662 93.6668 21.1378 93.0671 20.8808C92.4675 20.6238 91.9963 20.2383 91.6537 19.7243C91.311 19.1889 91.1397 18.525 91.1397 17.7326V17.6041L91.9107 17.4756C91.7822 18.2894 91.4288 18.9854 90.8506 19.5637C90.2723 20.1205 89.5656 20.5488 88.7304 20.8486C87.9166 21.1485 87.0706 21.2984 86.1926 21.2984C85.1003 21.2984 84.158 21.1378 83.3656 20.8165C82.5732 20.4739 81.9629 19.9813 81.5345 19.3388C81.1062 18.6963 80.8921 17.9039 80.8921 16.9616C80.8921 15.7623 81.2776 14.7879 82.0485 14.0383C82.8195 13.2673 83.9224 12.7426 85.3573 12.4642L91.3967 11.2435L91.3646 13.974L87.5097 14.745C86.7815 14.8949 86.2247 15.0984 85.8392 15.3554C85.4751 15.591 85.2931 15.9872 85.2931 16.544C85.2931 17.0794 85.4858 17.4863 85.8713 17.7647C86.2782 18.0431 86.7601 18.1823 87.3169 18.1823C87.7666 18.1823 88.2057 18.1288 88.634 18.0217C89.0623 17.9146 89.4478 17.7433 89.7905 17.5077C90.1331 17.2721 90.4008 16.9509 90.5936 16.544C90.7863 16.1371 90.8827 15.6445 90.8827 15.0663V10.7295ZM112.983 4.91501L106.494 21.973C105.98 23.4293 105.402 24.5858 104.759 25.4424C104.138 26.299 103.41 26.9201 102.575 27.3056C101.761 27.6911 100.787 27.8838 99.6516 27.8838C98.8164 27.8838 98.0454 27.7768 97.3387 27.5626C96.6533 27.3699 96.0537 27.1129 95.5397 26.7916L96.4713 23.6113C96.8782 23.9326 97.3065 24.1574 97.7563 24.2859C98.206 24.4358 98.72 24.5108 99.2982 24.5108C99.8979 24.5108 100.412 24.3823 100.84 24.1253C101.29 23.8683 101.665 23.3543 101.965 22.5833L102.511 21.202L100.744 17.0258L95.8288 4.91501H100.712L103.764 14.5523L104.599 17.7647L105.595 14.3595L108.518 4.91501H112.983ZM114.136 20.9771V4.91501H118.088L118.248 7.80619C118.784 6.73538 119.512 5.93228 120.433 5.39687C121.375 4.86147 122.414 4.59377 123.549 4.59377C124.705 4.59377 125.744 4.86147 126.665 5.39687C127.607 5.93228 128.314 6.72468 128.785 7.77407C129.128 7.06733 129.588 6.47839 130.166 6.00723C130.745 5.53608 131.387 5.18271 132.094 4.94713C132.801 4.71156 133.518 4.59377 134.246 4.59377C135.296 4.59377 136.249 4.80793 137.105 5.23625C137.983 5.66458 138.679 6.30706 139.193 7.16371C139.707 8.02035 139.964 9.11258 139.964 10.4404V20.9771H135.563V11.3077C135.563 10.1298 135.306 9.29462 134.792 8.80204C134.278 8.30947 133.614 8.06319 132.801 8.06319C132.158 8.06319 131.558 8.22381 131.002 8.54505C130.466 8.86629 130.038 9.34816 129.717 9.99064C129.417 10.6117 129.267 11.3934 129.267 12.3357V20.9771H124.866V11.3077C124.866 10.1298 124.598 9.29462 124.063 8.80204C123.549 8.30947 122.885 8.06319 122.071 8.06319C121.514 8.06319 120.957 8.2131 120.401 8.51293C119.865 8.81275 119.415 9.28391 119.051 9.92639C118.709 10.5689 118.537 11.4148 118.537 12.4642V20.9771H114.136ZM150.672 21.2984C148.98 21.2984 147.502 20.9664 146.239 20.3025C144.996 19.6386 144.033 18.6856 143.347 17.4435C142.662 16.2013 142.319 14.7022 142.319 12.9461C142.319 11.1899 142.662 9.69081 143.347 8.44868C144.033 7.20654 144.986 6.25352 146.206 5.58962C147.449 4.92572 148.862 4.59377 150.447 4.59377C152.074 4.59377 153.456 4.92572 154.591 5.58962C155.726 6.2321 156.593 7.12087 157.193 8.25593C157.793 9.36957 158.092 10.6438 158.092 12.0787C158.092 12.507 158.082 12.9139 158.06 13.2994C158.039 13.6849 158.007 14.0276 157.964 14.3274H145.146V11.2756H156.036L153.916 12.0466C153.916 10.6974 153.606 9.65869 152.985 8.93054C152.385 8.20239 151.528 7.83832 150.415 7.83832C149.601 7.83832 148.894 8.03106 148.294 8.41655C147.716 8.80204 147.277 9.38028 146.977 10.1513C146.678 10.9008 146.528 11.8538 146.528 13.0103C146.528 14.1454 146.688 15.0877 147.01 15.8373C147.352 16.5654 147.823 17.1115 148.423 17.4756C149.044 17.8397 149.783 18.0217 150.64 18.0217C151.582 18.0217 152.342 17.8397 152.92 17.4756C153.499 17.1115 153.948 16.6082 154.27 15.9657L157.771 17.315C157.428 18.1502 156.904 18.8676 156.197 19.4673C155.512 20.0669 154.687 20.5274 153.723 20.8486C152.781 21.1485 151.764 21.2984 150.672 21.2984ZM160.537 20.9771V4.91501H164.488L164.745 9.73365L164.199 9.21966C164.456 8.17027 164.863 7.30291 165.42 6.61759C165.977 5.93228 166.651 5.429 167.444 5.10776C168.258 4.7651 169.146 4.59377 170.11 4.59377C171.224 4.59377 172.209 4.80793 173.066 5.23625C173.944 5.66458 174.629 6.31777 175.121 7.19583C175.635 8.05248 175.892 9.13399 175.892 10.4404V20.9771H171.491V11.6932C171.491 10.3226 171.224 9.38028 170.688 8.86629C170.153 8.33089 169.457 8.06319 168.6 8.06319C168.001 8.06319 167.412 8.2131 166.833 8.51293C166.277 8.79133 165.816 9.25178 165.452 9.89427C165.109 10.5368 164.938 11.3934 164.938 12.4642V20.9771H160.537ZM184.702 -2.24488e-07V15.7409C184.702 16.5119 184.895 17.0794 185.28 17.4435C185.687 17.7861 186.233 17.9575 186.919 17.9575C187.454 17.9575 187.925 17.8825 188.332 17.7326C188.739 17.5613 189.103 17.3364 189.424 17.058L190.131 19.9813C189.617 20.3882 188.975 20.7094 188.204 20.945C187.433 21.1806 186.619 21.2984 185.762 21.2984C184.691 21.2984 183.738 21.1378 182.903 20.8165C182.089 20.4953 181.447 19.9813 180.976 19.2745C180.526 18.5678 180.301 17.6255 180.301 16.4476V1.22072L184.702 -2.24488e-07ZM189.842 4.91501V8.19168H177.346V4.91501H189.842ZM197.959 21.2984C196.332 21.2984 194.843 21.0093 193.494 20.431C192.166 19.8528 191.085 19.039 190.25 17.9896L192.787 15.4196C193.301 16.1906 193.987 16.8224 194.843 17.315C195.7 17.8075 196.717 18.0538 197.895 18.0538C198.73 18.0538 199.394 17.936 199.887 17.7005C200.401 17.4435 200.658 17.0473 200.658 16.5119C200.658 16.1692 200.54 15.8801 200.304 15.6445C200.069 15.3875 199.598 15.1841 198.891 15.0341L196.064 14.4559C194.201 14.0704 192.873 13.4922 192.081 12.7212C191.31 11.9288 190.924 10.9115 190.924 9.6694C190.924 8.79134 191.181 7.96681 191.695 7.19583C192.23 6.42485 193.023 5.80378 194.072 5.33262C195.122 4.84005 196.428 4.59377 197.991 4.59377C199.598 4.59377 200.99 4.85076 202.168 5.36475C203.367 5.85732 204.309 6.59618 204.995 7.58132L202.36 10.1513C201.889 9.4017 201.268 8.83417 200.497 8.44868C199.748 8.04177 198.955 7.83832 198.12 7.83832C197.52 7.83832 197.006 7.90256 196.578 8.03106C196.15 8.15956 195.828 8.3416 195.614 8.57717C195.4 8.79134 195.293 9.06975 195.293 9.4124C195.293 9.75506 195.443 10.0549 195.743 10.3119C196.043 10.5475 196.589 10.7509 197.381 10.9222L200.658 11.5969C202.243 11.9181 203.378 12.4642 204.063 13.2352C204.748 13.9848 205.091 14.8949 205.091 15.9657C205.091 16.9937 204.812 17.9146 204.256 18.7284C203.72 19.5208 202.917 20.1526 201.846 20.6238C200.797 21.0735 199.501 21.2984 197.959 21.2984Z" fill="#0F0F14"/>
</svg>
