<svg xmlns="http://www.w3.org/2000/svg" width="20" height="20" fill="none"><circle cx="10" cy="10" r="10" fill="#F27E7E"/><path fill="#3F3F3F" fill-rule="evenodd" d="M17.222 12.487c0 3.404-3.194 6.23-7.222 6.23-4.027 0-7.22-2.826-7.22-6.23 0-3.405 3.193-6.23 7.22-6.23 4.028 0 7.222 2.825 7.222 6.23ZM6.744 13.76a1.982 1.982 0 1 0 0-3.965 1.982 1.982 0 0 0 0 3.965Zm6.372 0a1.982 1.982 0 1 0 0-3.965 1.982 1.982 0 0 0 0 3.965Z" clip-rule="evenodd"/><path fill="#3F3F3F" d="M5.313 3.516c-.356-.167-.653-.225-.869-.167-.28.075-.558.386-.803.908-.24.512-.431 1.188-.56 1.924-.235 1.338-.26 2.837-.032 3.847.13-.276.28-.543.451-.798-.074-1.601.01-4.883.944-5.198.934-.316 2.312 1.446 2.885 2.366.298-.098.605-.18.919-.246-.406-.575-1.096-1.318-1.814-1.9-.383-.31-.77-.57-1.12-.736Z"/><path fill="#3F3F3F" fill-rule="evenodd" d="M3.05 10.028c.022.103.048.2.077.293l-.235.073c.048-.124.1-.246.157-.366Zm5.502-3.934.009.013-.236.157a5.043 5.043 0 0 0-.077-.112c.1-.021.202-.04.304-.058Zm8.557 4.3a5.927 5.927 0 0 0-.157-.366c-.023.103-.05.2-.078.293l.235.073Zm-5.356-4.242a8.47 8.47 0 0 0-.304-.057l-.009.012.236.157.077-.112Z" clip-rule="evenodd"/><path fill="#3F3F3F" fill-rule="evenodd" d="m2.892 10.394.235-.073a3.858 3.858 0 0 1-.078-.293c-.056.12-.109.242-.157.366Zm5.356-4.242.077.112.236-.157-.009-.013a8.455 8.455 0 0 0-.304.058Zm3.2-.057-.008.012.236.157.077-.112a8.47 8.47 0 0 0-.304-.057Zm5.504 3.933c.056.12.109.242.157.366l-.235-.073c.029-.092.055-.19.078-.293Z" clip-rule="evenodd"/><path fill="#3F3F3F" d="M16.92 6.18c-.129-.735-.32-1.411-.56-1.923-.245-.522-.522-.833-.803-.908-.216-.058-.513 0-.869.167-.351.165-.737.425-1.12.736-.719.582-1.408 1.325-1.815 1.9 2.366.491 4.296 1.954 5.199 3.876.228-1.01.203-2.51-.032-3.847ZM4.444 4.032C3.51 4.347 3.426 7.629 3.5 9.23c.858-1.287 2.21-2.296 3.83-2.832-.574-.92-1.952-2.682-2.886-2.366Z"/><path fill="#F27E7E" d="M4.444 4.031C3.511 4.347 3.426 7.63 3.5 9.23c.858-1.287 2.21-2.296 3.83-2.832-.573-.92-1.952-2.682-2.886-2.367Zm10.991 0c.933.316 1.018 3.598.944 5.199-.858-1.287-2.21-2.296-3.83-2.832.573-.92 1.952-2.682 2.886-2.367Z"/><path fill="#fff" d="M3.255 13.47c-.194-.035-.363.133-.315.324.693 2.791 3.563 4.923 7.06 4.923 3.5 0 6.37-2.133 7.063-4.925.047-.19-.121-.358-.314-.324l-4.32.76a.283.283 0 0 1-.268-.098l-2.077-2.505a.283.283 0 0 0-.441.007l-1.944 2.49a.283.283 0 0 1-.274.104l-4.17-.756Z"/><path fill="#000" fill-rule="evenodd" d="M10 18.858c-3.552 0-6.486-2.166-7.198-5.03a.408.408 0 0 1 .477-.497l4.171.756a.14.14 0 0 0 .137-.053l1.943-2.49a.425.425 0 0 1 .662-.01l2.078 2.506a.143.143 0 0 0 .133.049l4.32-.76c.286-.051.55.199.476.496-.71 2.866-3.646 5.033-7.199 5.033Zm-7.06-5.064a.267.267 0 0 1 .314-.324l4.17.756a.283.283 0 0 0 .274-.104l1.944-2.49a.283.283 0 0 1 .441-.007l2.078 2.505a.283.283 0 0 0 .267.098l4.32-.76c.193-.034.361.133.314.323-.693 2.793-3.563 4.926-7.062 4.926-3.498 0-6.367-2.132-7.06-4.923Z" clip-rule="evenodd"/><path fill="#F27E7E" d="M5.611 14.682c0 .351-.412.637-.92.637s-.92-.286-.92-.637c0-.352.412-.638.92-.638s.92.286.92.638Z"/><path fill="#F06A6A" fill-rule="evenodd" d="M5.261 15.016c.14-.098.209-.218.209-.334 0-.117-.068-.237-.209-.335a1.012 1.012 0 0 0-.57-.161c-.23 0-.43.065-.57.162-.14.097-.209.217-.209.334 0 .116.068.236.209.334.14.097.34.161.57.161.229 0 .43-.064.57-.161Zm-.57.303c.508 0 .92-.286.92-.637 0-.352-.412-.638-.92-.638s-.92.286-.92.638c0 .351.412.637.92.637Z" clip-rule="evenodd"/><path fill="#F27E7E" d="M16.372 14.54c0 .352-.412.637-.92.637-.509 0-.92-.285-.92-.637 0-.352.411-.637.92-.637.508 0 .92.285.92.637Z"/><path fill="#F06A6A" fill-rule="evenodd" d="M16.022 14.874c.14-.097.208-.218.208-.334 0-.116-.068-.237-.208-.334a1.012 1.012 0 0 0-.57-.162c-.23 0-.43.065-.57.162-.141.097-.21.218-.21.334 0 .116.069.237.21.334.14.097.34.162.57.162.229 0 .43-.065.57-.162Zm-.57.303c.508 0 .92-.285.92-.637 0-.352-.412-.637-.92-.637-.509 0-.92.285-.92.637 0 .352.411.637.92.637Z" clip-rule="evenodd"/><path fill="#C6C6C6" d="M10.071 17.938c-1.258 0-3.634-.59-4.673-.99.142.424 1.829 1.536 4.673 1.627 2.195.071 4.531-1.274 5.31-2.053-1.204.638-3.682 1.416-5.31 1.416Z"/><path fill="#000" fill-rule="evenodd" d="M10.108 13.892c.344-.045.6-.213.6-.414 0-.235-.348-.425-.778-.425-.43 0-.78.19-.78.425 0 .215.292.392.67.42-.009.14-.049.33-.14.493-.102.185-.266.326-.53.326-.26 0-.424-.144-.529-.342a1.4 1.4 0 0 1-.143-.614h-.212c0 .189.04.473.168.714.13.245.355.454.717.454.36 0 .585-.201.715-.435.042-.074.074-.152.099-.23.025.078.057.156.098.23.13.234.356.435.716.435.362 0 .588-.21.717-.455.127-.24.168-.524.168-.713h-.212a1.4 1.4 0 0 1-.144.614c-.104.197-.268.342-.529.342-.263 0-.427-.141-.53-.326a1.23 1.23 0 0 1-.14-.5Z" clip-rule="evenodd"/><path fill="#FAFF93" d="M8.514 11.779a1.77 1.77 0 1 1-3.54 0 1.77 1.77 0 0 1 3.54 0Zm6.372 0a1.77 1.77 0 1 1-3.54 0 1.77 1.77 0 0 1 3.54 0Z"/><path fill="#1F1818" d="M7.877 11.779a1.133 1.133 0 1 1-2.266 0 1.133 1.133 0 0 1 2.266 0Z"/><path fill="#000" fill-rule="evenodd" d="M6.744 12.77a.991.991 0 1 0 0-1.982.991.991 0 0 0 0 1.982Zm0 .142a1.133 1.133 0 1 0 0-2.266 1.133 1.133 0 0 0 0 2.266Z" clip-rule="evenodd"/><path fill="#1F1818" d="M14.39 11.779a1.133 1.133 0 1 1-2.266 0 1.133 1.133 0 0 1 2.265 0Z"/><path fill="#000" fill-rule="evenodd" d="M13.257 12.77a.991.991 0 1 0 0-1.982.991.991 0 0 0 0 1.982Zm0 .142a1.133 1.133 0 1 0 0-2.266 1.133 1.133 0 0 0 0 2.266Z" clip-rule="evenodd"/><circle cx="5.965" cy="11.283" r=".637" fill="#fff"/><circle cx="12.479" cy="11.283" r=".637" fill="#fff"/><path fill="#000" fill-rule="evenodd" d="M10 18.717c3.662 0 6.635-2.336 7.145-5.32.05-.297.077-.601.077-.91 0-3.405-3.194-6.23-7.222-6.23-4.027 0-7.22 2.825-7.22 6.23 0 .309.026.613.076.91.51 2.984 3.483 5.32 7.145 5.32ZM10 19c4.145 0 7.505-2.916 7.505-6.513 0-3.598-3.36-6.514-7.504-6.514-.941 0-1.842.15-2.672.425C5.71 6.934 4.36 7.943 3.5 9.23a5.841 5.841 0 0 0-1.004 3.257c0 3.597 3.36 6.513 7.505 6.513Z" clip-rule="evenodd"/><path fill="#000" fill-rule="evenodd" d="M5.313 3.516c-.356-.167-.653-.225-.869-.167-.28.075-.558.386-.803.908-.24.512-.431 1.188-.56 1.924-.259 1.474-.263 3.144.046 4.14l-.27.084c-.329-1.058-.317-2.778-.055-4.273.132-.75.328-1.453.582-1.996.25-.532.575-.95.987-1.06.315-.084.688.008 1.062.184.38.178.786.453 1.179.772.785.635 1.539 1.46 1.949 2.075l-.236.157C7.933 5.676 7.2 4.872 6.434 4.252c-.383-.31-.77-.57-1.12-.736Zm9.255-.256c.374-.176.747-.268 1.062-.185.412.11.737.529.987 1.061.254.543.45 1.246.582 1.996.262 1.495.274 3.215-.054 4.273l-.27-.084c.308-.996.304-2.666.045-4.14-.129-.736-.32-1.412-.56-1.924-.245-.522-.522-.833-.803-.908-.216-.058-.513 0-.869.167-.351.165-.737.425-1.12.736-.767.62-1.5 1.424-1.892 2.012l-.236-.157c.41-.615 1.164-1.44 1.95-2.075.392-.319.798-.594 1.178-.772ZM6.744 13.549a1.77 1.77 0 1 0 0-3.54 1.77 1.77 0 0 0 0 3.54Zm6.372 0a1.77 1.77 0 1 0 0-3.54 1.77 1.77 0 0 0 0 3.54Zm-6.372.212a1.982 1.982 0 1 0 0-3.965 1.982 1.982 0 0 0 0 3.965Zm6.372 0a1.982 1.982 0 1 0 0-3.965 1.982 1.982 0 0 0 0 3.965Z" clip-rule="evenodd"/><path fill="#1C1C1C" d="M6.743 9.655h6.231c.354 0 1.033-.043.92-.779-.142-.92-.283-3.115-4.035-3.115-3.753 0-3.894 2.195-4.036 3.115-.113.736.566.779.92.779Z"/><path fill="#F27E7E" d="M9.858 6.115c-1.699-.057-2.69.543-2.973.85.472-.19 1.727-.567 2.973-.567 1.246 0 2.596.378 3.115.567-.33-.26-1.416-.793-3.115-.85Z"/></svg>