<svg width="20" height="20" fill="none" xmlns="http://www.w3.org/2000/svg"><g clip-path="url(#a)"><path d="M0 4a4 4 0 0 1 4-4h12a4 4 0 0 1 4 4v12a4 4 0 0 1-4 4H4a4 4 0 0 1-4-4V4Z" fill="#CAFEFC"/><path d="M7.475 20h-.35c.008-.174.024-.348.023-.522-.004-.561-.012-1.122-.022-1.684-.006-.34-.006-.681-.03-1.02a21.8 21.8 0 0 0-.12-1.137c-.045-.36-.1-.72-.154-1.08-.007-.046-.038-.087-.057-.13l-.042.012c.004.085.004.17.013.254.028.247.063.492.089.74.022.21.035.42.054.63.03.351.085.701.09 1.052.013.962.006 1.923.006 2.885H3.7c.008-.686.015-1.373.025-2.06.002-.132.006-.266.028-.396.065-.384.123-.77.215-1.147s.206-.75.338-1.115c.131-.364.23-.742.43-1.078.035-.06.092-.105.127-.164.124-.205.255-.402.44-.559.134-.112.255-.239.386-.354.05-.044.117-.069.172-.109.066-.048.12-.12.192-.153.25-.117.504-.229.761-.329a.604.604 0 0 1 .282-.033c.361.044.72.108 1.082.151.346.041.693.074 1.04.092.22.011.44-.019.66-.017.396.003.788-.03 1.176-.102.411-.077.822-.158 1.231-.243.15-.031.295-.08.444.005.12.067.243.127.368.184a3.2 3.2 0 0 1 .916.655c.314.311.568.668.805 1.04.24.378.41.786.584 1.192.058.135.075.287.11.431.036.156.07.312.104.464.028.076.062.146.079.22.04.173.075.346.104.52.038.225.067.452.101.678.015.098.045.195.049.293.013.349.021.698.026 1.047.004.295 0 .591 0 .887h-.725l-.002-.099c.017-.018.049-.035.05-.055.016-.132.025-.265.037-.404l-.086-.018-.001-.123c.017-.046.048-.093.05-.14.008-.177.005-.354.006-.531.001-.126.011-.252 0-.377-.02-.222-.075-.443-.072-.665.002-.257-.056-.5-.099-.748-.009-.05-.01-.1-.016-.146l-.07-.099v-.182a1.568 1.568 0 0 1-.021.006l-.084-.209a1.18 1.18 0 0 1 .01-.003 96.24 96.24 0 0 1-.098-.124l-.01-.115c-.047-.054-.102-.101-.137-.16a4.571 4.571 0 0 0-.485-.696c-.205-.233-.455-.41-.715-.577a2.196 2.196 0 0 0-.957-.351c-.331-.035-.662-.095-1-.061-.272.027-.547.022-.818.057-.283.036-.566.104-.808.266a3.942 3.942 0 0 0-.975.892 3.86 3.86 0 0 0-.58 1.045c-.073.213-.152.424-.231.635-.112.299-.24.592-.333.897-.08.267-.123.545-.177.82-.025.125-.04.253-.053.38-.013.128.004.264-.034.383a1.57 1.57 0 0 0-.066.502Z" fill="#383838"/><path d="m15.247 19.901.003.099H7.6c.062-.466.106-.935.191-1.396.073-.395.179-.785.297-1.17.091-.296.236-.576.336-.87a3.915 3.915 0 0 1 1.055-1.625c.289-.27.623-.473 1.013-.567a4.957 4.957 0 0 1 1.81-.083c.25.031.508.072.74.163.877.343 1.417 1.03 1.779 1.862.236.541.302 1.131.352 1.717.036.422.05.847.074 1.27l.001.123-.001.477Z" fill="#FDFDFD"/><path d="M15.975 20c0-.296.004-.592 0-.887-.005-.35-.013-.699-.026-1.047-.004-.098-.034-.195-.049-.293-.034-.226-.063-.453-.101-.679a8.97 8.97 0 0 0-.104-.518c-.017-.075-.051-.145-.079-.221-.034-.152-.068-.308-.105-.464-.034-.144-.051-.296-.109-.43-.175-.407-.344-.815-.584-1.192a5.9 5.9 0 0 0-.805-1.04 3.201 3.201 0 0 0-.916-.656 4.984 4.984 0 0 1-.368-.184c-.15-.085-.294-.036-.444-.005-.41.085-.82.166-1.23.243a6.1 6.1 0 0 1-1.177.102c-.22-.002-.44.028-.66.017a15.88 15.88 0 0 1-1.04-.092c-.361-.043-.72-.107-1.082-.151a.604.604 0 0 0-.282.033 12.3 12.3 0 0 0-.761.33c-.072.033-.126.104-.192.152-.055.04-.121.065-.172.11-.131.114-.252.24-.385.353-.186.157-.317.354-.441.559-.036.059-.092.105-.127.164-.2.336-.299.714-.43 1.078a10.84 10.84 0 0 0-.338 1.115c-.092.377-.15.763-.215 1.147-.022.13-.026.264-.028.396-.01.687-.017 1.373-.025 2.06h-.15c.004-.478.003-.957.012-1.435.017-.974.182-1.928.447-2.863.092-.326.255-.632.357-.956.135-.43.379-.794.644-1.146.111-.148.26-.268.39-.4l.05-.045c.344-.316.719-.579 1.175-.708.055-.015.11-.035.165-.052l.082-.027-.072-.018c-.433-.148-.874-.28-1.255-.544-.669-.463-1.286-.988-1.688-1.708-.398-.715-.457-1.46-.13-2.234.123-.288.307-.492.566-.636.207-.116.268-.271.262-.507-.02-.76.214-1.463.632-2.082.354-.524.796-.98 1.339-1.329.507-.327 1.051-.417 1.637-.326.234.036.475.048.7.114.402.117.778.293 1.075.604.426-.441.981-.556 1.542-.644.328-.051.645.05.959.13a2.345 2.345 0 0 1 1.202.695c.176.187.348.384.486.6.119.186.187.405.278.61l.018.056a.022.022 0 0 1 .006.021l.036.082.09.062.055.03c.178.082.317.195.346.407a.201.201 0 0 0 .063.105c.18.173.313.375.382.634l.17-.158a.416.416 0 0 1 .317.123c.093.088.173.19.257.287.106.122.212.245.315.369.493.59 1.03 1.15 1.39 1.836.517.99.656 2.024.259 3.096-.106.285-.228.561-.411.809-.274.37-.538.75-.804 1.127-.312.44-.722.779-1.144 1.105l-.252.187.104.403.023.1.005.025-.013.014.025.013c.12.573.278 1.142.35 1.721.082.668.09 1.344.125 2.017.007.145-.01.29-.017.436h-.125ZM8.665 9.15c.006.002.009.005.008.01 0 .007.002.01.007.013.28.337.621.584 1.035.734.215.078.422.177.634.262a5.402 5.402 0 0 0 1.699.379c.707.04 1.414.03 2.12-.056.367-.045.739-.054 1.106-.1a1.22 1.22 0 0 0 .434-.141c.23-.128.253-.317.062-.497a2.131 2.131 0 0 0-.485-.365c-.332-.168-.642-.351-.842-.679-.043-.072-.108-.09-.194-.071-.195.042-.39.087-.589.11-.477.055-.934-.074-1.39-.187-.215-.054-.422-.145-.635-.22-.252.295-.58.506-.953.572-.637.113-1.274.136-1.904-.055-.08-.024-.164-.035-.246-.052l-.018.03.137.289.015.024Zm6.651-1.06c-.092.263-.299.387-.55.458-.085.024-.173.039-.263.059.23.396.618.548 1.008.739l-.107-1.36-.075.065a6.005 6.005 0 0 1-.013.04Zm-.468-2.412.016.011-.011-.016a.658.658 0 0 0-.333-.27c-.286-.12-.593-.153-.897-.174a3.883 3.883 0 0 0-1.114.096c-.431.097-.86.193-1.22.516l.073.213c.195-.1.36-.195.534-.273.38-.172.79-.25 1.193-.347a2.26 2.26 0 0 1 1.394.088c.123.05.243.104.365.156ZM8.857 9.53 8.814 9.5l-.021.014.035.085c.227.373.567.611.95.798.38.186.797.258 1.206.347.312.069.629.117.943.174l.05.006c.161.025.32.057.482.074a5.928 5.928 0 0 0 1.543-.063c.209-.032.407-.138.607-.218.049-.02.085-.068.127-.103a2.09 2.09 0 0 0-.372 0c-.735.05-1.466.137-2.206.085-.534-.038-1.06-.112-1.564-.287-.364-.127-.72-.282-1.075-.43-.251-.106-.485-.238-.662-.453ZM6.823 7.279l-.152.053.002.033.148.038c.342.116.677.262 1.027.34.501.111 1.011.197 1.522.25.433.046.873.03 1.31.04.263.006.51-.05.74-.183.148-.086.236-.204.231-.383-.016-.623-.294-.94-.912-1.11-.436-.121-.892-.105-1.34-.073a4.254 4.254 0 0 0-1.072.22c-.54.186-1.025.473-1.504.775Zm4.62-.728c-.029-.161-.07-.316-.187-.414-.144-.12-.313-.215-.478-.308a2.21 2.21 0 0 0-1.074-.274 8.82 8.82 0 0 0-.982.05c-.323.032-.637.118-.907.313-.282.204-.558.418-.841.62-.205.148-.416.288-.63.425-.042.028-.105.024-.16.035l-.015-.043c.031-.029.059-.065.095-.085.427-.23.79-.55 1.183-.827.213-.15.432-.296.664-.413.344-.174.73-.191 1.106-.201.306-.008.615.012.919.05.267.035.525.123.759.267.095.059.193.113.304.177-.01-.03-.012-.043-.019-.052a.28.28 0 0 0-.043-.045c-.214-.174-.436-.332-.717-.383-.159-.028-.314-.078-.473-.104-.27-.044-.54-.088-.812-.11-.273-.021-.55-.02-.814.074-.27.096-.558.166-.798.311-.41.248-.766.57-1.07.945-.036.045-.085.078-.128.117l-.035-.03c.058-.09.103-.194.176-.27.393-.408.793-.804 1.335-1.019a3.49 3.49 0 0 1 .97-.254c.413-.038.82.041 1.224.112.303.053.6.147.9.222-.006-.014-.013-.041-.024-.067a6.723 6.723 0 0 0-.557-1.04c-.183-.286-.392-.559-.677-.738-.336-.21-.702-.38-1.103-.44A4.797 4.797 0 0 0 7.508 3.1c-.183.012-.36.041-.525.128-.116.06-.243.104-.35.177-.234.156-.485.3-.681.497-.268.266-.492.576-.733.87a.67.67 0 0 0-.108.165c-.063.154-.111.312-.184.464a2.812 2.812 0 0 0-.175.551 3.79 3.79 0 0 0-.073.49c-.016.149-.038.3-.021.447.02.17-.044.272-.178.36a6.73 6.73 0 0 0-.426.302.367.367 0 0 0-.107.135c-.124.275-.254.552-.286.854-.023.22-.019.446-.005.668.008.125.051.25.095.37.067.187.13.38.228.552.086.151.211.28.327.413.064.073.146.129.217.196.224.213.436.441.674.638.188.155.369.33.607.416a.847.847 0 0 1 .169.083c.324.207.695.304 1.054.415a6.65 6.65 0 0 0 1.046.21c.352.05.709.087 1.064.092.444.006.889-.018 1.332-.046.301-.019.602-.058.9-.104a7.402 7.402 0 0 0 1.52-.425c.465-.18.838-.467 1.109-.915-.073 0-.13-.006-.186 0a5.621 5.621 0 0 1-1.077.046c-.153-.012-.306-.024-.457-.045-.2-.03-.4-.066-.6-.103-.422-.08-.844-.164-1.267-.244-.075-.014-.153-.017-.23-.024-.055-.044-.123-.067-.185-.1-.272-.15-.552-.287-.81-.458a1.374 1.374 0 0 1-.542-.745c-.067-.207-.168-.402-.255-.607-.204.082-.378.222-.598.167l-.012-.034.52-.212c-.038-.026-.05-.037-.063-.044-.224-.1-.451-.192-.67-.3-.223-.111-.439-.236-.655-.36-.056-.032-.13-.066-.094-.166.023.007.044.01.061.019.2.11.4.219.599.332.396.227.83.362 1.258.506.374.126.757.184 1.15.167.157-.007.314-.048.47-.042.271.012.507-.092.737-.205.194-.095.383-.213.478-.451l.022-.324c-.067.057-.127.137-.206.166-.241.09-.495.137-.755.13-.145-.004-.291-.028-.435-.02-.594.036-1.174-.077-1.757-.154a3.022 3.022 0 0 1-.454-.09c-.361-.106-.719-.223-1.078-.337-.154-.049-.308-.1-.437-.227.041-.035.071-.07.11-.093.134-.076.272-.15.41-.222.263-.142.525-.289.793-.422.196-.097.398-.185.605-.259.15-.053.31-.086.469-.11.262-.037.526-.072.79-.084.24-.01.482 0 .721.026.2.022.4.065.59.129.162.054.31.152.485.242Zm4.185 5.105c-.105.008-.213.007-.319.024-.433.071-.866.145-1.298.222-.256.046-.515.088-.767.151-.152.038-.296.114-.467.183.049.031.069.045.09.056.254.146.52.277.762.44.336.225.638.496.87.83.222.321.432.65.632.984.123.204.22.424.327.636.098-.09.195-.18.295-.267.227-.198.472-.379.681-.594.33-.34.6-.728.856-1.125.146-.226.296-.45.431-.682.088-.152.164-.313.225-.478.061-.165.084-.344.146-.509.1-.268.091-.545.082-.82-.005-.184-.044-.368-.072-.551-.022-.146-.034-.295-.078-.434a4.48 4.48 0 0 0-.446-.98c-.032-.054-.053-.114-.09-.163-.1-.131-.205-.257-.307-.386a13.862 13.862 0 0 0-.897-1.05c-.17-.176-.318-.37-.484-.55-.046-.05-.12-.073-.185-.11l-.11.134c.226.422.193.836.028 1.253.013.034.035.068.038.103.02.231.039.463.052.694.013.216.009.433.032.647.01.084.068.165.114.24.028.045.078.074.115.113.17.18.165.476-.012.648l-.136.127c.005.087.01.149.011.21.004.134.002.268.008.4.013.249.031.497.045.745.003.053-.008.103-.106.096l-.066-.237Zm-4.434-5.964c1.015-.565 2.065-.749 3.174-.457a2.72 2.72 0 0 0-.828-1.27l-.267-.231c-.012-.016-.027-.053-.054-.07a1.22 1.22 0 0 0-.207-.106 18.98 18.98 0 0 0-.55-.198 2.537 2.537 0 0 0-.221-.065c-.26-.064-.517-.14-.792-.096-.31.05-.62.095-.905.241-.07.036-.14.071-.212.105a.553.553 0 0 0-.262.245c.132.204.27.406.397.613.196.317.391.636.496 1 .04.135.116.235.23.29Zm.612 1.98c.153.137.372.237.612.277a8.104 8.104 0 0 0 2.252.069c.2-.023.397-.082.595-.13a.256.256 0 0 0 .198-.206c.036-.199.064-.4.077-.602.01-.143-.063-.266-.162-.367a1.385 1.385 0 0 0-.672-.388 3.275 3.275 0 0 0-1.69.01c-.184.053-.371.093-.557.137-.125.029-.255.043-.376.084-.163.056-.326.12-.432.223l.155.892Zm-.239-1.013.134-.049c.192-.072.381-.155.578-.212.222-.064.454-.094.676-.156a3.17 3.17 0 0 1 .954-.14c.148.004.295.031.442.053.135.02.272.036.402.073.137.04.267.104.4.157l.2.08c-.044-.063-.07-.094-.087-.13-.148-.311-.404-.518-.705-.653a2.343 2.343 0 0 0-1.415-.144c-.362.07-.716.18-1.066.295-.218.072-.422.185-.621.275l.108.551Zm4.015 3.838c-.161.024-.306.037-.446.068a.61.61 0 0 0-.237.097c-.21.16-.43.297-.683.38a.258.258 0 0 0-.113.087c-.103.135-.197.277-.303.41-.068.087-.15.164-.225.245l.014.03 2.056-.357-.063-.96Zm-.339-2.387c-.065-.005-.098-.012-.129-.01-.19.02-.378.046-.567.063-.173.016-.347.038-.52.032-.372-.014-.743-.056-1.116-.066a2.483 2.483 0 0 1-.926-.207c-.09-.038-.174-.086-.262-.13-.01.078-.018.169-.037.257-.022.108.016.182.112.22.125.051.254.093.382.136.109.037.218.07.361.115.102.02.239.06.378.073.25.025.506.072.753.044.37-.041.736-.128 1.098-.218a.934.934 0 0 0 .473-.31Z" fill="#0F1011"/><path d="M15.247 19.301c-.024-.423-.038-.848-.074-1.27-.05-.586-.116-1.175-.352-1.717-.362-.832-.902-1.519-1.778-1.862a3.127 3.127 0 0 0-.74-.163 4.959 4.959 0 0 0-1.811.083c-.39.094-.724.297-1.013.567-.484.452-.84.992-1.055 1.624-.1.295-.244.575-.336.872-.118.384-.224.774-.297 1.17-.085.46-.13.93-.191 1.395h-.125a1.57 1.57 0 0 1 .065-.502c.038-.12.021-.255.034-.383.014-.127.028-.255.053-.38.054-.275.097-.553.178-.82.092-.305.22-.598.332-.897.079-.211.158-.422.232-.635a3.86 3.86 0 0 1 .58-1.045c.27-.36.606-.644.975-.892.241-.162.524-.23.808-.266.27-.035.546-.03.817-.057.338-.034.67.026 1 .06.343.037.662.163.957.352.26.167.51.344.715.577.188.213.34.452.486.696.034.059.09.106.137.16l.01.115.098.124-.01.003.083.209.02-.006v.182l.072.099c.005.047.007.097.015.146.044.248.102.491.099.748-.002.222.053.443.073.665.01.125 0 .251 0 .377-.001.177.001.354-.006.531-.002.047-.033.094-.05.14ZM6.975 20c0-.962.007-1.924-.006-2.885-.005-.35-.06-.7-.09-1.051-.019-.21-.032-.422-.054-.632-.026-.247-.061-.492-.09-.74-.009-.083-.008-.168-.012-.253l.041-.013c.02.044.05.085.057.13.055.36.11.72.154 1.081.047.378.093.757.12 1.136.024.34.025.68.03 1.021.01.561.02 1.123.023 1.684.001.174-.015.348-.023.522h-.15Z" fill="#0F1011"/><path d="m6.8 12.35.072.018c-.048.015-.065.02-.082.027l.01-.045ZM14.61 5.344l-.054-.03.054.03ZM15.642 15.826l-.026-.013.014-.014.012.027Z" fill="#383838"/><path d="m15.247 19.901.001-.477.086.018c-.011.139-.02.272-.036.404-.002.02-.033.037-.05.055Z" fill="#0F1011"/><path d="M11.443 6.55c-.176-.089-.323-.187-.485-.241a2.835 2.835 0 0 0-.59-.13 4.74 4.74 0 0 0-.722-.025 7.955 7.955 0 0 0-.79.085 2.45 2.45 0 0 0-.469.11 5.57 5.57 0 0 0-.604.258c-.269.133-.53.28-.794.422-.137.073-.275.146-.41.223-.038.021-.068.057-.109.092.129.126.283.178.437.227.359.114.717.231 1.078.337.147.043.3.07.454.09.583.077 1.163.19 1.757.154.144-.008.29.017.435.02.26.007.513-.04.755-.13.079-.03.139-.11.206-.166l-.023.324c-.094.238-.283.356-.477.451-.23.113-.466.217-.738.205-.155-.006-.312.035-.469.042a3.156 3.156 0 0 1-1.15-.167c-.43-.144-.862-.28-1.258-.506-.198-.113-.4-.222-.6-.332-.016-.01-.037-.012-.06-.019-.036.1.038.134.094.166.216.124.432.249.654.36.22.108.447.2.67.3.014.007.026.018.064.044l-.52.212.012.034c.22.055.394-.085.597-.167.088.205.188.4.256.607.1.31.276.568.543.745.257.171.537.308.809.458.061.034.13.056.185.1.077.008.154.01.23.024.423.08.845.164 1.268.244.199.038.398.074.599.103a5.62 5.62 0 0 0 1.534 0c.056-.007.113-.001.186-.001-.27.448-.644.736-1.11.915-.493.19-.996.344-1.518.425-.299.046-.6.085-.901.104-.444.028-.888.052-1.332.046a8.482 8.482 0 0 1-1.064-.093 6.662 6.662 0 0 1-1.046-.209c-.36-.111-.73-.208-1.054-.415a.858.858 0 0 0-.169-.083c-.239-.086-.42-.261-.607-.416-.238-.197-.45-.425-.674-.638-.07-.067-.153-.123-.217-.196-.116-.132-.242-.262-.327-.413-.097-.172-.161-.365-.229-.553a1.375 1.375 0 0 1-.094-.369 4.017 4.017 0 0 1 .005-.668c.032-.302.162-.579.286-.854a.367.367 0 0 1 .107-.135 6.73 6.73 0 0 1 .426-.303c.133-.087.198-.189.178-.36-.017-.145.005-.297.02-.445a3.79 3.79 0 0 1 .073-.49c.045-.188.094-.379.176-.552.072-.152.121-.31.184-.464a.67.67 0 0 1 .108-.166c.24-.293.465-.603.733-.87.196-.195.447-.34.68-.496.108-.073.235-.116.35-.177.166-.087.343-.116.526-.128.344-.023.686 0 1.026.051.401.06.767.23 1.103.442.285.178.494.45.676.737.213.333.407.675.558 1.04.01.026.018.053.023.067-.3-.075-.596-.169-.9-.222-.403-.07-.81-.15-1.223-.112a3.49 3.49 0 0 0-.97.254c-.543.215-.943.611-1.335 1.018-.073.077-.118.18-.176.272l.035.03c.043-.04.092-.073.128-.118.303-.375.66-.697 1.07-.944.24-.146.528-.216.798-.312.263-.093.54-.095.814-.073.272.021.542.065.812.11.159.025.314.075.473.103.281.051.503.21.716.383.017.013.031.029.044.045.007.009.008.022.019.052-.111-.064-.21-.118-.304-.177a1.889 1.889 0 0 0-.76-.266 6.072 6.072 0 0 0-.918-.051c-.377.01-.762.027-1.106.2a5.308 5.308 0 0 0-.664.414c-.393.278-.756.597-1.183.827-.036.02-.064.056-.096.085l.016.043c.054-.01.117-.007.16-.035.214-.136.424-.277.63-.424.283-.203.558-.417.84-.62.27-.196.584-.282.908-.315a8.82 8.82 0 0 1 .981-.048 2.21 2.21 0 0 1 1.075.273c.165.093.334.187.478.308.117.098.158.253.187.414Z" fill="#383838"/><path d="m15.628 11.656.066.237c.098.006.109-.043.106-.096-.014-.248-.032-.496-.044-.745-.007-.133-.005-.266-.008-.4-.002-.061-.007-.123-.011-.21l.135-.127a.467.467 0 0 0 .012-.648c-.037-.039-.087-.068-.114-.112-.047-.076-.105-.157-.115-.24-.023-.215-.019-.432-.031-.648a24.802 24.802 0 0 0-.053-.694c-.003-.035-.025-.069-.038-.103.166-.417.198-.831-.027-1.253l.109-.135c.064.038.139.062.185.112.166.178.315.373.484.548.32.332.611.69.897 1.05.102.13.208.256.307.387.037.049.058.11.09.162.189.31.337.637.446.98.044.14.056.29.079.435.027.183.066.367.072.55.009.276.018.553-.083.821-.061.165-.084.344-.145.51-.061.164-.137.325-.226.477-.135.232-.285.456-.43.682-.256.397-.527.786-.857 1.125-.209.215-.454.396-.68.594-.1.087-.198.177-.296.267-.108-.212-.204-.432-.326-.636-.201-.334-.411-.663-.633-.983a3.225 3.225 0 0 0-.87-.831c-.243-.163-.508-.294-.763-.44-.02-.011-.04-.025-.089-.056.172-.069.315-.145.467-.183.253-.063.51-.105.768-.151.432-.077.864-.15 1.297-.222.106-.017.214-.016.319-.024Z" fill="#383838"/><path d="m8.651 9.126-.136-.29.018-.029c.081.017.165.028.245.052.63.19 1.267.168 1.904.055.373-.066.7-.277.953-.572.213.075.42.166.635.22.456.113.913.242 1.39.187.199-.023.395-.068.59-.11.085-.019.15 0 .193.071.2.328.51.51.842.679.178.09.339.226.485.365.191.18.168.369-.062.497a1.22 1.22 0 0 1-.434.142c-.367.045-.738.054-1.106.099-.705.086-1.413.097-2.12.056a5.402 5.402 0 0 1-1.698-.38c-.213-.084-.42-.183-.635-.26a2.382 2.382 0 0 1-1.035-.735l.002-.01-.01-.002c.002-.006 0-.01-.006-.01l-.015-.025Z" fill="#FBCA05"/><path d="M11.193 5.692a.436.436 0 0 1-.23-.29c-.105-.363-.3-.682-.496-1-.128-.206-.265-.408-.398-.612a.553.553 0 0 1 .263-.245c.07-.034.141-.069.211-.105.285-.146.596-.19.906-.241.275-.044.532.032.792.096.074.019.149.04.221.065.184.064.368.128.55.198.072.027.14.065.206.106.028.017.043.054.054.07l.268.23c.39.343.668.756.827 1.271-1.108-.292-2.158-.108-3.174.457Z" fill="#383838"/><path d="M6.823 7.279c.478-.302.963-.59 1.504-.774.35-.12.706-.194 1.071-.22.45-.033.905-.05 1.341.071.618.171.895.488.912 1.111.005.179-.083.297-.23.383a1.38 1.38 0 0 1-.741.184c-.437-.01-.877.005-1.31-.04-.511-.054-1.021-.14-1.523-.251-.35-.078-.684-.224-1.026-.34.018-.041.039-.082.002-.124Zm2.778.586a.806.806 0 0 0 .542-.177.544.544 0 0 0 .237-.528 1.112 1.112 0 0 0-.253-.572c-.213-.27-.735-.322-1.003-.101a.824.824 0 0 0-.233.852c.128.352.375.529.71.526ZM11.806 7.671l-.155-.892c.106-.102.269-.167.432-.223.12-.041.25-.055.376-.084.186-.044.373-.084.557-.136a3.275 3.275 0 0 1 1.69-.011c.261.063.484.197.672.388.099.101.172.224.162.367a5.506 5.506 0 0 1-.077.602.256.256 0 0 1-.198.205c-.197.049-.395.108-.595.13a8.105 8.105 0 0 1-2.252-.067c-.24-.041-.459-.141-.612-.279Zm1.76.213c.094-.011.19-.016.284-.034.567-.11.834-.75.504-1.203-.277-.378-.813-.426-1.196-.127-.378.296-.385.81-.056 1.163.124.133.268.227.463.201Z" fill="#FDFDFD"/><path d="m11.568 6.659-.109-.551c.2-.09.403-.203.62-.275.351-.115.706-.226 1.067-.295.48-.091.964-.058 1.415.144.3.135.557.342.705.654.017.035.044.066.086.129l-.198-.08c-.133-.053-.263-.117-.4-.157-.13-.037-.268-.053-.402-.073-.147-.022-.295-.049-.443-.053a3.17 3.17 0 0 0-.954.14c-.222.062-.454.092-.676.156-.197.057-.386.14-.578.212l-.133.049Z" fill="#383838"/><path d="M11.927 10.92c-.314-.058-.631-.107-.943-.175-.41-.09-.825-.161-1.207-.347-.382-.187-.722-.425-.949-.798l.029-.07c.177.215.41.348.662.452.356.15.71.304 1.075.43.505.176 1.03.25 1.564.288.74.052 1.471-.034 2.206-.085.12-.009.24-.014.372 0-.042.035-.078.084-.127.103-.2.08-.399.186-.607.219-.51.08-1.027.117-1.543.062-.162-.017-.321-.049-.481-.074l-.05-.006Z" fill="#FBCA05"/><path d="M15.582 10.497c.02.323.041.637.063.96-.695.12-1.376.24-2.056.357l-.014-.03c.076-.081.157-.158.225-.244.105-.134.2-.276.303-.41a.258.258 0 0 1 .113-.088c.253-.083.473-.22.683-.38a.611.611 0 0 1 .237-.097c.14-.03.285-.044.446-.068Z" fill="#CAFEFC"/><path d="M15.243 8.11a.934.934 0 0 1-.474.31c-.362.09-.728.176-1.098.217-.246.028-.502-.019-.752-.044-.14-.014-.276-.052-.378-.073-.143-.045-.253-.078-.362-.114-.128-.044-.257-.086-.382-.136-.095-.04-.134-.113-.11-.22.018-.09.025-.18.036-.259.088.045.172.093.261.131.296.127.602.198.927.207.372.01.743.052 1.116.066.172.006.347-.016.52-.032.19-.017.378-.042.567-.062.031-.003.064.004.129.009ZM14.847 5.678c-.121-.052-.241-.107-.364-.156a2.26 2.26 0 0 0-1.395-.088c-.402.097-.812.175-1.193.347-.173.078-.339.173-.533.273l-.073-.213c.36-.323.788-.419 1.22-.515.368-.083.739-.122 1.113-.097.305.02.611.055.897.175a.658.658 0 0 1 .333.269l-.005.005Z" fill="#383838"/><path d="m15.329 8.05.075-.064.107 1.36c-.39-.191-.779-.343-1.008-.74.09-.02.178-.034.263-.058.251-.07.458-.195.55-.457l.012-.04ZM6.823 7.279c.037.042.016.083-.001.124l-.149-.037-.002-.034.152-.053Z" fill="#CAFEFC"/><path d="m8.857 9.53-.029.07-.035-.085.02-.014.044.029ZM8.673 9.161l.01.003-.003.009a.011.011 0 0 1-.007-.012ZM14.853 5.673l.011.016-.016-.011.005-.005Z" fill="#383838"/><path d="M9.602 7.865c-.335.003-.583-.174-.71-.526a.824.824 0 0 1 .232-.852c.268-.221.79-.168 1.003.101.133.17.23.354.253.572a.544.544 0 0 1-.237.528.806.806 0 0 1-.541.177ZM9.358 6.58c-.231.1-.262.197-.134.423.15.058.251.015.303-.13.042-.117-.038-.256-.169-.293Zm.354.456.028.052c.058-.01.14-.002.168-.037.061-.077.019-.16-.054-.246l-.142.231ZM13.565 7.884c-.195.026-.34-.068-.463-.2-.33-.355-.322-.868.056-1.164.383-.3.92-.251 1.195.127.33.452.063 1.093-.503 1.203-.094.018-.19.023-.285.034Zm-.415-.963c.066.165.145.238.248.23.114-.01.228-.13.273-.288-.042-.125-.142-.227-.22-.226-.12.002-.248.121-.3.284Zm.777-.039c-.095.075-.13.148-.094.227.02.045.079.073.13.118l.127-.196-.163-.149Z" fill="#0F1011"/><path d="M9.358 6.58c.13.037.21.176.169.293-.052.145-.153.188-.303.13-.128-.226-.097-.323.134-.423ZM9.71 7.036l.143-.23c.073.086.116.168.054.245-.028.035-.11.026-.167.037l-.03-.052ZM13.15 6.921c.053-.163.18-.282.3-.284.08-.001.18.101.221.226-.045.158-.159.278-.273.287-.103.008-.182-.064-.248-.229ZM13.927 6.882l.163.15-.126.195c-.052-.045-.11-.073-.13-.118-.037-.08-.002-.152.093-.227Z" fill="#FDFDFD"/></g><defs><clipPath id="a"><path fill="#fff" d="M0 0h20v20H0z"/></clipPath></defs></svg>