<svg width="20" height="20" fill="none" xmlns="http://www.w3.org/2000/svg"><g clip-path="url(#a)"><path d="M16.449 12.569c.134.117.14.262.097.42-.03.11-.116.183-.177.271-.07.1-.147.194-.224.288a1.31 1.31 0 0 1-.518.37c-.225.096-.46.096-.7.073-.253-.024-.508-.05-.762.004-.077.017-.158.018-.237.02-.444.01-.887.025-1.33.023-.397-.002-.794-.022-1.19-.039a.765.765 0 0 1-.213-.043 1.972 1.972 0 0 0-.512-.097c-.174-.012-.346-.05-.52-.074a2.068 2.068 0 0 1-.653-.187c-.207-.102-.412-.209-.62-.309-.167-.08-.34-.144-.503-.23-.242-.127-.475-.27-.715-.4-.107-.058-.22-.103-.332-.152a3.173 3.173 0 0 1-.62-.387c-.06-.046-.123-.09-.179-.14-.168-.15-.17-.37-.061-.549.035-.057.085-.086.148-.076.124.018.25.032.37.067.345.1.687.21 1.032.31.174.05.352.09.53.127.328.07.658.134.987.2.246.051.49.108.736.152.266.046.534.082.8.12.275.04.549.084.824.117.134.016.27.012.406.02.293.017.587.037.88.056l.366.025c.201.014.402.039.603.037.327-.003.656-.005.98-.042.277-.032.557-.079.805-.23.182-.112.32-.265.443-.433.153-.209.28-.433.36-.68.034-.1.056-.203.083-.305l.019-.013c.07.137.157.267.204.412.06.184-.033.343-.149.48-.182.218-.368.431-.558.642l.1.152Z" fill="#A53410"/><path d="M16.145 13.799c.048.213.027.4-.054.586-.068.16-.18.283-.288.412-.034.04-.07.077-.113.124-.07-.057-.14-.111-.208-.167-.05-.042-.102-.084-.15-.13-.146-.135-.317-.137-.502-.115-.218.026-.404.136-.584.236-.21.118-.392.288-.581.442-.19.155-.371.319-.557.477-.028.023-.062.038-.093.056-.054.032-.111.06-.162.097-.05.037-.092.082-.144.128a.587.587 0 0 0-.257-.194.568.568 0 0 0-.52.064 1.268 1.268 0 0 0-.202.159c-.123.125-.142.284-.092.442.05.16.13.312.265.423.197.164.321.382.466.586a.718.718 0 0 1 .127.56c-.016.1-.006.206-.001.308a.188.188 0 0 1-.057.15.755.755 0 0 0-.138.18c-.087.18-.253.24-.419.306-.115.045-.23.095-.348.133-.119.037-.24.077-.363.09-.2.019-.403.01-.603.025-.6.047-1.202.032-1.803.036-.138 0-.277.007-.414.023-.198.024-.395.06-.592.09a.536.536 0 0 1-.08.004c-.295 0-.593.028-.883-.009-.227-.028-.455 0-.679-.046-.012-.003-.026-.002-.04-.003-.242-.02-.485-.032-.726-.063-.178-.023-.353-.07-.53-.107l-.009-.003c-.322-.009-.61-.154-.916-.231a2 2 0 0 1-.568-.228c-.13-.08-.28-.13-.419-.2a4.822 4.822 0 0 1-.37-.203c-.138-.084-.277-.168-.384-.293-.026-.03-.056-.056-.082-.086-.182-.21-.342-.43-.438-.698-.082-.229-.18-.453-.23-.692-.04-.192-.083-.388-.086-.584-.004-.212.038-.425.06-.637.011-.105.025-.209.036-.313.026-.258.068-.516.073-.774.004-.23.048-.452.069-.677.01-.12.049-.238.074-.357.007-.032.014-.064.019-.096.03-.205.06-.41.088-.615.018-.127.033-.254.052-.38.014-.094.031-.188.047-.281.017-.094.027-.19.053-.28.053-.193.115-.384.173-.575.034-.11.066-.22.103-.33.046-.133.09-.267.145-.397.082-.194.167-.387.26-.575.11-.222.233-.437.347-.657.067-.132.125-.268.194-.399.146-.281.268-.575.449-.838.039-.056.06-.124.092-.185.22-.419.437-.838.71-1.225.068-.097.123-.204.191-.3.065-.092.132-.183.21-.263.16-.166.318-.33.448-.524.084-.125.2-.228.298-.344.044-.053.09-.057.15-.036.185.069.372.134.559.2.021.008.045.024.065.02.114-.016.172.064.241.13.218.211.459.388.747.495.216.08.43.166.643.257.2.086.418.089.626.135.182.041.367.037.553.04.301.004.598-.034.894-.087.006-.002.012-.006.019-.006.256-.022.511-.049.768-.064.126-.008.249-.016.372-.05.09-.023.189-.022.284-.033.101-.01.203-.02.304-.033.055-.007.104-.008.137.05.137.252.28.502.413.755.027.051.025.117.037.176l-.028.015-.082-.074c-.114-.1-.211-.223-.361-.272a1.43 1.43 0 0 0-.23-.055 2.272 2.272 0 0 0-.295-.027c-.108-.002-.216.01-.325.011-.121.003-.243 0-.365 0l-.534.01c-.027 0-.053.003-.08.004-.271.007-.542.016-.813.02-.272.002-.544.004-.815-.004-.17-.005-.326.041-.487.077-.32.071-.57.248-.784.49-.12.137-.25.264-.374.397a.49.49 0 0 0-.118.416c.022.159.145.234.32.19.101-.026.173-.001.265.037.273.115.532.268.824.337.19.045.335.167.473.297.06.057.117.118.185.164.073.049.156.085.236.12.081.037.165.07.249.1.07.024.144.043.216.066.189.06.375.126.565.181.126.037.255.063.385.086.327.06.655.12.99.106.216-.01.424-.049.623-.137.12-.053.238-.113.377-.104a.156.156 0 0 0 .108-.042c.055-.055.095-.027.136.01.067.063.068.153-.007.218-.083.07-.17.137-.264.193-.076.045-.164.07-.244.108-.141.069-.286.063-.436.042-.114-.016-.23-.019-.346-.023-.214-.008-.427.008-.642-.037-.176-.037-.361-.028-.542-.046-.22-.022-.438-.062-.658-.072-.204-.009-.39-.08-.57-.153a1.126 1.126 0 0 1-.414-.282c-.144-.158-.317-.289-.479-.43-.022-.019-.05-.03-.077-.043-.046-.022-.081-.014-.11.033-.03.05-.014.088.027.12.095.076.194.149.286.228.095.082.188.168.276.257.14.14.31.23.491.306.23.097.47.125.713.152.236.026.473.042.71.066.13.013.26.034.391.048a6.3 6.3 0 0 0 .375.028c.248.01.496.016.743.024.009 0 .017.008.036.017-.017.023-.028.045-.044.063-.084.093-.165.189-.255.275-.083.08-.177.149-.264.225-.173.15-.378.233-.596.298-.197.06-.39.14-.582.215-.157.062-.309.133-.484.12-.065-.004-.107.038-.105.09.003.055.039.077.112.083.222.018.41-.087.607-.16.192-.07.387-.13.58-.199.208-.076.402-.175.58-.313.263-.202.451-.473.69-.695a.756.756 0 0 1 .184-.129c.157-.075.295-.173.428-.283.16-.134.132-.43-.07-.526-.065-.032-.093-.073-.114-.142-.038-.126-.097-.246-.147-.368-.035-.085-.073-.17-.102-.257-.068-.199-.203-.344-.356-.48-.19-.17-.424-.254-.65-.35a2.471 2.471 0 0 1-.46-.27 2.319 2.319 0 0 0-.69-.337.543.543 0 0 0-.108-.019 3.97 3.97 0 0 0-.949.014c-.25.04-.508.048-.752.108-.29.072-.585.149-.827.34-.152.12-.271.273-.375.435a.289.289 0 0 1-.21.13c-.047.01-.077-.008-.08-.06-.008-.105.004-.205.081-.286.138-.143.278-.283.41-.43.152-.17.328-.294.548-.358.222-.064.442-.133.679-.116.148.011.297.022.445.018.225-.005.449-.033.673-.033.207 0 .419-.039.621.027.223.072.439.165.662.237.302.097.523.298.73.527.067.076.151.137.226.207.212.2.433.391.63.604.142.152.197.355.22.563.002.013 0 .026.003.04.006.044.03.074.077.075.052 0 .086-.033.08-.081-.018-.133-.029-.27-.072-.396-.067-.193-.2-.345-.347-.488-.21-.203-.416-.408-.645-.588-.072-.057-.126-.135-.189-.203a1.565 1.565 0 0 0-.692-.427c-.062-.02-.121-.047-.182-.071l.002-.022c.023-.004.046-.011.069-.011.232 0 .464 0 .696.003.232.002.404.118.553.285.061.069.136.125.2.191.127.13.265.254.37.4a.808.808 0 0 1 .116.332c.023.133.015.27.022.406.002.029.001.065.017.085.02.024.059.05.084.047.024-.004.059-.047.059-.073.005-.26.025-.526-.085-.772-.042-.093-.12-.17-.186-.251-.066-.082-.141-.156-.207-.238-.014-.018-.014-.058-.006-.081.045-.12.02-.232-.021-.347-.075-.21-.21-.387-.316-.58l-.099-.185c.167-.027.324-.056.482-.077.15-.021.3-.035.451-.052.03-.003.06-.008.09-.009l1.259-.04c.168-.005.337-.01.505-.018a.36.36 0 0 1 .242.07c.169.128.356.233.492.399.113.137.22.279.328.418l-.014.026c-.043 0-.086.003-.13 0-.138-.01-.276-.035-.414-.032-.33.007-.66.022-.982.1-.114.029-.22.09-.325.145-.042.022-.068.072-.038.12.03.047.082.055.13.025.245-.151.52-.175.797-.195.155-.01.31-.023.466-.02.174.005.348.024.522.043.138.015.26.075.373.152.117.08.235.16.349.244.05.038.093.089.14.134l-.017.02c-.018-.01-.039-.016-.052-.03a.977.977 0 0 0-.614-.288 9.816 9.816 0 0 0-1.155-.078c-.608.005-1.097.255-1.497.7-.04.043-.047.088-.005.13.045.047.09.028.128-.014.172-.197.376-.351.609-.471.203-.105.42-.157.647-.163.245-.006.49-.006.736.005.184.008.368.029.55.059.165.027.31.109.446.207.013.01.03.022.032.036.03.193.073.386.028.61-.048-.064-.084-.111-.118-.16l-.191-.277c-.095-.136-.243-.187-.39-.215a3.13 3.13 0 0 0-.59-.062c-.237 0-.474.034-.71.054a.187.187 0 0 0-.075.024c-.25.143-.504.28-.703.495-.036.038-.066.082-.1.123-.083.098-.16.202-.252.292a1.776 1.776 0 0 0-.355.486.683.683 0 0 0-.06.326c.008.14.133.186.252.216.137.034.275.066.414.09.107.018.216.029.325.032.383.012.767.029 1.151.025a2.14 2.14 0 0 0 .73-.12c.2-.073.358-.208.498-.365.054-.061.106-.124.159-.186l.021.006c-.01.079-.005.164-.033.235-.115.289-.277.544-.564.69a.643.643 0 0 1-.239.055c-.108.008-.218 0-.327-.002-.056-.001-.102.012-.112.074-.007.046.041.086.11.087.171.003.343 0 .527 0-.082.097-.148.205-.285.221-.104.013-.21.016-.315.023-.023.001-.047-.002-.07-.001-.057.002-.1.033-.103.087-.004.06.041.087.098.088.086.002.173.006.259 0 .156-.013.31-.038.423-.163.06-.068.119-.139.188-.22.056.056.122.11.174.176.08.1.155.204.226.31.108.165.118.348.088.535-.056.339-.23.62-.428.893-.156.214-.347.376-.602.442a2.588 2.588 0 0 1-.652.105c-.291 0-.582.032-.872.03-.24-.002-.48-.035-.72-.053-.122-.01-.244-.017-.366-.023-.303-.014-.607-.022-.91-.041-.161-.011-.32-.042-.48-.063-.207-.026-.413-.046-.618-.077-.28-.043-.56-.088-.838-.144-.413-.083-.823-.188-1.238-.26a8.584 8.584 0 0 1-.735-.151c-.098-.027-.192-.07-.29-.1-.21-.066-.421-.134-.634-.19a4.333 4.333 0 0 0-.55-.121c-.258-.034-.37.067-.448.32a.502.502 0 0 0 .032.422c.04.064.077.136.134.18.217.168.428.346.673.472.135.069.276.126.41.194.098.05.188.111.285.16.282.146.565.289.848.43.088.045.179.086.268.128.27.125.534.262.81.372.141.057.3.076.452.099.26.04.523.065.783.104.094.015.182.058.275.08.066.017.136.03.204.031.242.005.485-.012.725.007.364.03.727.049 1.09.034.39-.015.778-.05 1.167-.074.05-.003.099-.002.149 0 .095.005.19.013.286.018.136.007.271.018.406.017.252-.002.476-.095.684-.231.065-.043.128-.092.207-.148Zm-2.03-3.768c.13.004.262.014.392.01.098-.003.198-.016.292-.042.087-.024.116-.077.091-.126-.033-.066-.09-.054-.147-.04-.048.012-.096.028-.145.031a1.898 1.898 0 0 1-.762-.092c-.14-.05-.278-.104-.416-.157-.05-.02-.093-.014-.123.03-.03.046-.007.084.031.112.035.025.07.05.11.066.19.075.355.19.52.306a.7.7 0 0 1 .117.105c.108.121.215.243.317.368.079.097.15.201.224.302.023.032.043.067.072.092.044.038.104.014.11-.043a.182.182 0 0 0-.014-.096c-.034-.067-.068-.137-.117-.194-.18-.214-.367-.422-.551-.632Zm-6.967.931c0 .007.002.013.003.02.043 0 .086.002.128 0 .078-.005.107-.06.058-.12a.131.131 0 0 0-.091-.041 6.954 6.954 0 0 0-.396.017c-.219.015-.432.059-.623.171a.915.915 0 0 0-.38.393c-.028.06.015.134.075.123.032-.006.066-.042.085-.072a.788.788 0 0 1 .462-.369c.221-.06.452-.083.679-.121Zm-.206-.719v-.004c-.086.009-.173.01-.255.03-.111.025-.22.06-.328.1-.053.02-.074.089-.05.135.03.057.082.055.127.029.167-.095.35-.11.536-.116a.2.2 0 0 0 .102-.028c.022-.015.043-.055.039-.08-.005-.025-.037-.054-.063-.063-.033-.011-.072-.003-.108-.003Z" fill="#178320"/><path d="M15.179 18.603c.01.031.02.061.027.092.032.158.127.268.28.301.224.05.454.084.685.036.035-.008.069-.022.108-.035.017.049.03.099.052.145.045.101.134.16.234.183.174.04.35.032.506-.067.06-.037.11-.092.162-.14.015-.013.026-.031.042-.043.123-.087.2-.214.292-.328.098-.12.202-.236.306-.351.03-.033.06-.063.045-.112-.013-.046-.068-.073-.11-.048a.476.476 0 0 0-.116.093c-.104.122-.203.25-.307.374-.107.126-.213.252-.328.37-.115.116-.398.14-.533.056-.06-.037-.127-.274-.086-.332.039-.057.09-.105.138-.155l.354-.372c.089-.094.176-.189.263-.284.018-.019.043-.04.044-.062.003-.03-.005-.072-.025-.088-.018-.015-.067-.015-.088 0-.045.031-.082.075-.12.116-.172.183-.337.374-.518.548a1.282 1.282 0 0 0-.253.3c-.033.06-.102.078-.165.073-.19-.014-.38-.035-.57-.055a.095.095 0 0 1-.049-.026c-.088-.08-.107-.232-.065-.345.077-.211.213-.385.332-.571.115-.178.257-.316.439-.42a.186.186 0 0 0 .076-.075.124.124 0 0 0-.002-.099c-.022-.038-.067-.041-.105-.015-.164.111-.346.209-.456.376-.144.22-.329.416-.413.672-.026.082-.077.12-.156.122-.16.004-.313-.01-.454-.106a1.333 1.333 0 0 1-.37-.38.53.53 0 0 1-.069-.152c-.01-.036-.01-.086.008-.115.124-.195.226-.41.418-.549.1-.072.223-.112.33-.175.198-.114.398-.224.584-.354.19-.131.365-.283.544-.428.035-.029.076-.069.04-.118a.125.125 0 0 0-.09-.045c-.027 0-.058.027-.083.047-.174.137-.346.276-.519.414-.018.015-.04.024-.074.044.048-.11.087-.201.13-.291.007-.017.026-.028.04-.04.07-.055.07-.096.002-.148-.23-.178-.496-.229-.776-.205-.15.012-.262.114-.378.204-.182.141-.367.28-.554.416a.586.586 0 0 1-.371.116c-.152-.005-.302 0-.448-.06-.157-.065-.204-.24-.172-.379.041-.178.194-.228.33-.299a.072.072 0 0 1 .058.002c.113.059.232.109.308.224.034.051.032.092-.005.133-.05.053-.103.102-.157.15-.046.042-.06.093-.028.128.036.038.085.05.124.012.076-.072.152-.146.215-.229.079-.103.059-.215-.026-.305-.089-.094-.191-.175-.292-.266.21-.185.429-.386.656-.575.197-.163.422-.284.658-.38.234-.095.455-.09.647.108.078.08.171.145.256.217.023.02.045.041.062.065.054.082.096.175.162.246a.83.83 0 0 0 .23.165c.437.22.843.483 1.18.84.088.094.16.203.24.303.08.1.16.2.244.297.139.16.263.328.342.53.044.11.1.216.183.311.086.097.14.223.197.342.071.15.134.302.192.457.035.094.065.193.079.292.017.114-.044.206-.133.271a3.652 3.652 0 0 1-.645.376c-.122.056-.254.092-.383.13-.165.047-.33.093-.497.13-.266.058-.54.09-.807.053-.294-.04-.586-.016-.879-.034-.17-.01-.34-.034-.51-.052-.019-.002-.038-.006-.058-.007-.328-.018-.638-.094-.913-.281-.185-.127-.37-.254-.557-.377a9.569 9.569 0 0 0-.387-.238.336.336 0 0 1-.14-.157 1.41 1.41 0 0 1-.117-.668 4.59 4.59 0 0 0 .003-.308.531.531 0 0 0-.086-.3c-.094-.135-.177-.277-.272-.411a1.28 1.28 0 0 0-.18-.195 1.102 1.102 0 0 1-.317-.438c-.044-.125-.03-.247.08-.34.108-.09.215-.17.37-.167.167.002.381.172.392.36.014.257.158.382.38.454.08.026.167.034.252.043.047.004.066.02.08.066.049.145.077.292.079.446.001.162.08.3.186.417.135.15.284.284.45.403.103.074.192.17.286.258a.952.952 0 0 0 .687.28c.039 0 .077-.007.123-.012Z" fill="#178320"/><path d="M14.967 16.023c-.064.087-.118.183-.192.26-.189.193-.385.378-.58.564-.178.168-.357.333-.536.499l-.028-.008-.08-.58c.353-.076.606-.332.886-.541.119-.089.226-.196.381-.218.044-.006.09 0 .134 0l.015.024Z" fill="#178320"/><path d="M15.86 6.215c.067.123.126.236.191.347.015.025.047.043.074.058.228.133.46.262.652.446.037.036.07.08.094.126.081.149.03.256-.143.288.006.044.016.088.016.133 0 .092.003.186-.011.277-.032.207.002.409.021.613.007.078-.002.158-.008.237a1.176 1.176 0 0 1-.256.654c-.078.098-.165.188-.252.279-.043.046-.044.091.006.144.085.089.17.176.25.268.136.156.244.328.294.532a.145.145 0 0 0 .046.07c.2.17.299.401.382.639.035.1-.005.208-.052.306-.089.182-.234.318-.37.462-.084.088-.153.19-.222.29-.014.021-.008.074.009.095.195.236.16.53 0 .728-.099.123-.193.251-.292.375a.137.137 0 0 0-.024.146c.113.316.039.607-.138.874-.087.132-.198.248-.3.37-.062.073-.07.093-.016.173.065.094.132.186.243.239.325.157.633.343.914.57.128.104.253.216.36.342.228.27.449.546.662.828.079.103.126.23.189.346.049.089.1.177.15.266.094.166.193.33.28.5.06.117.106.242.156.364.076.186.122.375-.015.55a.79.79 0 0 1-.205.181c-.187.116-.375.235-.575.326-.174.08-.365.127-.55.182a4.76 4.76 0 0 1-.46.117 2.421 2.421 0 0 1-.412.043c-.225.004-.45-.006-.675-.013-.198-.006-.396-.011-.593-.024-.15-.01-.3-.032-.451-.05-.13-.016-.26-.039-.391-.051a1.23 1.23 0 0 1-.507-.187c-.201-.119-.39-.258-.586-.388-.104-.07-.21-.136-.316-.202-.09-.056-.188-.1-.267-.168-.056-.05-.089-.128-.128-.195-.017-.031-.02-.07-.037-.102-.012-.024-.033-.056-.053-.059-.02-.003-.051.022-.067.042a3.19 3.19 0 0 0-.131.186.635.635 0 0 1-.293.228c-.156.066-.311.137-.472.19a2.968 2.968 0 0 1-.412.102c-.1.018-.203.024-.304.026-.612.011-1.224.018-1.835.03-.228.005-.456.012-.682.03-.193.017-.383.051-.575.077-.032.004-.066.004-.099.004-.295 0-.59.003-.885-.001-.194-.003-.389-.015-.583-.024-.115-.006-.23-.01-.344-.024-.195-.025-.388-.057-.583-.086l-.613-.088c-.039-.006-.076-.02-.114-.031-.249-.074-.502-.138-.746-.226-.18-.065-.372-.107-.534-.223a1.222 1.222 0 0 0-.293-.138c-.216-.08-.401-.213-.599-.325-.237-.135-.406-.332-.564-.544a2.377 2.377 0 0 1-.212-.32c-.074-.142-.128-.295-.191-.443a3.25 3.25 0 0 1-.193-.692 2.637 2.637 0 0 1-.057-.518c.004-.19.045-.378.07-.567.004-.036.005-.072.01-.108l.047-.35c.004-.029.003-.059.006-.088l.036-.492c.005-.065.012-.13.02-.196.014-.133.028-.267.045-.4.03-.225.061-.45.094-.673.012-.078.03-.154.045-.231.014-.077.028-.154.037-.232.02-.166.033-.333.059-.498.025-.16.06-.32.098-.479.036-.15.075-.3.123-.447.097-.297.187-.597.307-.885.128-.31.283-.61.434-.91.16-.318.336-.628.487-.95.105-.225.224-.44.352-.65.076-.127.124-.27.193-.401a8.35 8.35 0 0 1 .251-.438c.118-.194.24-.385.362-.577.063-.1.123-.204.193-.3.08-.108.162-.216.254-.314.146-.155.296-.304.411-.489.083-.132.206-.239.318-.364-.077-.049-.15-.098-.225-.145-.26-.16-.321-.329-.265-.6.046-.227.115-.45.156-.677.044-.242.12-.473.196-.706.05-.149.138-.27.229-.391.136-.183.237-.397.42-.537.21-.16.403-.346.657-.438.094-.034.19-.06.285-.087.05-.014.077-.04.09-.09a.562.562 0 0 1 .306-.384c.217-.103.43-.22.655-.302.27-.099.556-.124.843-.102a.47.47 0 0 1 .334.175c.041.05.079.058.134.045.12-.028.239-.056.359-.08.256-.05.514-.094.77-.149a16.416 16.416 0 0 1 1.794-.27c.28-.028.563-.01.845-.007.38.003.75.06 1.109.193.151.056.308.1.455.167.104.046.201.113.293.182.135.1.27.203.39.318.167.157.325.322.426.532.029.059.085.105.109.164.045.109.09.221.109.336.048.29.088.583.12.876.033.3.05.6.078.9.017.188.04.375.059.562.017.175.034.35.045.525.003.054.019.086.07.104l.409.152c.093.034.192.055.278.102.308.166.612.34.917.51.069.04.138.079.205.121.08.052.159.107.238.16.038.026.075.057.117.074.259.104.351.325.404.572.011.051.006.106.002.16-.013.147-.097.23-.243.252a.51.51 0 0 1-.315-.056c-.189-.093-.386-.169-.58-.254-.063-.028-.121-.07-.186-.092a39.064 39.064 0 0 0-.792-.255c-.116-.037-.233-.082-.352-.094-.167-.016-.336-.004-.502-.004Zm.286 7.584c-.08.056-.142.104-.208.148-.207.136-.431.229-.683.23-.136.002-.271-.01-.406-.016-.096-.005-.191-.013-.287-.018-.05-.002-.1-.003-.149 0-.389.025-.777.06-1.166.074a9.234 9.234 0 0 1-1.09-.034c-.24-.019-.484-.002-.726-.007a.924.924 0 0 1-.204-.03c-.092-.024-.181-.066-.275-.08-.26-.04-.522-.066-.782-.105-.153-.023-.312-.042-.453-.099-.275-.11-.54-.246-.81-.372-.089-.042-.18-.083-.268-.127a92.625 92.625 0 0 1-.847-.43c-.097-.05-.188-.112-.285-.161-.135-.068-.276-.125-.41-.194-.246-.126-.456-.304-.673-.471-.058-.045-.095-.117-.135-.181a.502.502 0 0 1-.032-.422c.078-.253.19-.354.448-.32.185.024.369.072.55.12.213.057.424.125.635.19.097.031.191.075.29.1.241.065.487.109.734.152.416.072.825.177 1.238.26.278.056.558.101.838.144.205.031.412.051.618.077.16.02.32.052.48.063.303.02.607.027.911.041.122.006.244.014.366.023.24.018.48.051.72.053.29.002.58-.03.87-.03.226 0 .44-.05.653-.105.255-.066.447-.228.603-.442.198-.273.372-.554.427-.893.03-.186.02-.37-.088-.534a4.152 4.152 0 0 0-.226-.311c-.052-.065-.118-.12-.174-.176-.07.081-.127.152-.188.22-.113.125-.267.15-.423.163-.085.006-.172.002-.258 0-.057 0-.102-.029-.099-.088.004-.054.046-.085.104-.087.023 0 .046.002.07 0 .104-.006.21-.01.315-.022.137-.016.203-.124.284-.22-.184 0-.355.002-.526 0-.07-.002-.118-.042-.11-.088.01-.062.056-.075.111-.074.11.003.22.01.328.002a.642.642 0 0 0 .238-.055c.287-.146.45-.401.564-.69.029-.071.024-.156.034-.235l-.022-.006c-.053.062-.105.125-.159.186-.14.157-.298.292-.498.366a2.142 2.142 0 0 1-.73.12c-.383.003-.767-.014-1.15-.026a2.363 2.363 0 0 1-.325-.032 5.834 5.834 0 0 1-.415-.09c-.12-.03-.244-.076-.252-.216a.685.685 0 0 1 .06-.326c.088-.18.21-.343.356-.486.091-.09.169-.194.252-.292.034-.04.064-.085.1-.123.199-.215.453-.352.702-.495a.187.187 0 0 1 .075-.024c.236-.02.473-.054.71-.054.197 0 .396.025.59.062.147.028.296.08.39.215.065.092.127.185.192.277.033.049.07.096.117.161.046-.225.003-.418-.027-.611-.002-.014-.02-.027-.033-.036a1.057 1.057 0 0 0-.445-.207 4.68 4.68 0 0 0-.55-.059c-.246-.01-.491-.011-.736-.005a1.484 1.484 0 0 0-.648.163c-.232.12-.436.274-.609.47-.038.043-.082.062-.128.016-.042-.043-.034-.088.005-.132.4-.444.89-.694 1.497-.699.388-.002.771.036 1.155.078a.977.977 0 0 1 .614.289c.014.013.035.02.052.029l.016-.02c-.046-.045-.088-.096-.139-.134-.114-.084-.232-.164-.349-.244a.818.818 0 0 0-.372-.152c-.174-.019-.348-.038-.523-.042-.155-.004-.31.008-.465.02-.277.02-.553.043-.798.194-.047.03-.1.022-.13-.025-.03-.048-.004-.098.038-.12.105-.054.212-.116.325-.144.322-.079.653-.094.983-.101.138-.003.276.022.414.032.043.003.086 0 .13 0l.014-.026c-.11-.14-.216-.281-.328-.418-.136-.166-.324-.27-.492-.398a.36.36 0 0 0-.242-.07l-.506.018-1.26.04c-.029 0-.059.005-.088.008-.15.017-.302.03-.452.052-.158.021-.314.05-.482.077l.1.185c.105.193.24.37.315.58.042.115.066.227.022.347-.009.023-.009.063.005.08.066.083.14.157.207.239.067.08.145.158.186.251.11.246.09.512.085.772 0 .026-.035.07-.058.073-.026.004-.065-.023-.084-.047-.016-.02-.016-.056-.017-.085-.007-.135 0-.273-.022-.405a.808.808 0 0 0-.116-.333c-.105-.146-.243-.27-.37-.4-.064-.066-.14-.122-.2-.19-.15-.168-.322-.284-.554-.286a90.692 90.692 0 0 0-.696-.003c-.023 0-.045.007-.068.011l-.002.022c.06.024.12.05.182.07.266.086.5.221.691.428.063.068.118.146.19.203.229.18.435.385.644.588.148.143.28.295.347.488.043.126.054.263.072.396.007.048-.028.081-.08.08-.047 0-.07-.03-.077-.075-.002-.013 0-.026-.002-.04-.024-.207-.079-.41-.22-.562-.198-.213-.419-.404-.63-.604-.075-.07-.16-.131-.228-.207-.205-.229-.427-.43-.729-.527-.223-.072-.438-.165-.661-.237-.203-.066-.414-.027-.622-.027-.224 0-.448.028-.672.033a4.557 4.557 0 0 1-.446-.017c-.236-.018-.456.05-.678.115-.22.064-.397.188-.548.357-.132.148-.273.288-.41.431-.078.081-.09.18-.082.286.003.052.033.07.08.06a.289.289 0 0 0 .21-.13c.104-.162.223-.314.375-.435.243-.191.538-.268.827-.34.245-.06.502-.068.753-.108.316-.05.632-.04.949-.014.035.003.072.01.107.02.249.072.477.186.69.336.145.102.293.2.46.27.226.096.461.18.65.35.153.136.289.281.356.48.03.087.068.172.102.257.05.122.11.242.148.368.02.07.049.11.113.142.203.097.23.392.07.526a2.05 2.05 0 0 1-.428.283.756.756 0 0 0-.183.13c-.24.221-.428.492-.69.694a2.114 2.114 0 0 1-.581.313c-.192.07-.388.13-.58.2-.197.072-.385.177-.606.16-.074-.007-.11-.03-.112-.083-.002-.053.039-.095.104-.09.176.012.328-.06.484-.12.193-.076.385-.156.583-.216.217-.065.422-.148.595-.299.088-.075.182-.143.265-.223.09-.087.17-.183.254-.276.016-.018.028-.04.044-.063-.018-.009-.027-.016-.035-.017-.248-.008-.496-.014-.743-.024a6.3 6.3 0 0 1-.375-.028c-.131-.014-.261-.035-.392-.048-.237-.024-.474-.04-.71-.066-.242-.027-.483-.055-.712-.152a1.472 1.472 0 0 1-.491-.306 4.895 4.895 0 0 0-.276-.257c-.093-.08-.191-.152-.286-.227-.042-.033-.057-.07-.027-.121.028-.047.063-.055.109-.033.027.013.056.024.078.044.162.14.335.271.479.429.119.13.26.22.413.282.181.074.366.144.57.153.22.01.439.05.659.072.18.018.366.009.542.046.214.045.428.03.642.037.115.004.231.007.345.023.15.02.295.027.436-.042.08-.039.169-.063.245-.108.093-.056.18-.123.263-.193.075-.065.074-.155.007-.217-.04-.038-.08-.066-.135-.01a.156.156 0 0 1-.108.041c-.14-.009-.258.051-.378.104a1.696 1.696 0 0 1-.622.137c-.335.014-.664-.046-.991-.106a3.923 3.923 0 0 1-.385-.086c-.19-.055-.376-.12-.564-.18-.072-.024-.146-.043-.217-.068a3.343 3.343 0 0 1-.248-.098c-.08-.036-.163-.072-.236-.12-.068-.047-.126-.108-.186-.165-.138-.13-.283-.252-.472-.297-.293-.07-.551-.222-.825-.336-.091-.039-.163-.064-.265-.038-.174.044-.298-.031-.32-.19a.49.49 0 0 1 .118-.416c.124-.133.255-.26.375-.397.213-.242.463-.419.784-.49.16-.036.317-.082.486-.077.272.008.543.006.815.003.271-.003.542-.012.814-.02l.079-.003.535-.01c.121 0 .243.003.364 0 .109-.002.217-.013.326-.011.098.002.197.012.295.027.077.012.154.03.229.055.15.05.247.173.361.272l.083.074.027-.015c-.011-.059-.01-.125-.037-.176-.133-.253-.275-.503-.413-.754-.032-.059-.081-.058-.136-.05l-.305.032c-.095.01-.193.01-.284.034a1.855 1.855 0 0 1-.372.049c-.256.015-.512.042-.768.064-.006 0-.012.004-.019.006a4.653 4.653 0 0 1-.894.087c-.185-.003-.37.001-.552-.04-.209-.046-.426-.05-.627-.135-.212-.091-.426-.177-.643-.257a2.158 2.158 0 0 1-.746-.495c-.07-.066-.127-.146-.241-.13-.02.004-.044-.012-.066-.02-.187-.066-.373-.131-.56-.2-.06-.021-.104-.017-.148.036-.098.116-.215.219-.299.344-.13.193-.288.358-.448.524-.077.08-.145.171-.21.262-.068.097-.122.204-.19.3-.274.388-.491.808-.71 1.226-.033.061-.054.129-.093.185-.18.263-.303.557-.449.838-.068.131-.126.267-.194.399-.114.22-.236.435-.346.657-.094.189-.179.381-.26.575-.056.13-.1.264-.145.397-.037.11-.07.22-.103.33-.06.191-.12.382-.174.574-.025.092-.036.187-.052.28-.017.094-.034.188-.048.282l-.052.38c-.028.205-.058.41-.088.615-.004.032-.011.064-.018.096-.026.119-.064.237-.075.357-.02.225-.065.448-.069.677-.005.258-.046.516-.073.774-.01.104-.024.208-.035.313-.023.212-.064.425-.061.637.003.196.046.392.087.584.05.239.147.463.23.692.095.269.256.488.438.698.026.03.056.056.081.086.108.125.246.209.384.293.12.074.245.14.37.204.14.07.29.118.42.2.177.11.373.178.568.227.304.077.593.223.915.231.004 0 .007.003.01.003.176.037.351.084.53.107.24.03.484.043.726.063.013.001.027 0 .04.003.223.046.451.018.678.046.29.037.589.01.884.01.026-.001.053-.001.08-.005.197-.03.393-.066.591-.09.137-.016.276-.023.415-.023.6-.004 1.202.01 1.802-.035.2-.016.403-.007.603-.027.123-.012.245-.052.364-.09.118-.037.232-.087.348-.132.165-.066.331-.127.418-.305a.757.757 0 0 1 .139-.18.188.188 0 0 0 .056-.151c-.005-.102-.015-.207 0-.308a.718.718 0 0 0-.125-.56c-.145-.204-.27-.422-.466-.586a.876.876 0 0 1-.265-.423c-.05-.158-.032-.317.092-.443.06-.06.131-.11.202-.158a.568.568 0 0 1 .52-.064.587.587 0 0 1 .257.194c.051-.046.094-.091.144-.128.05-.037.107-.065.161-.097.031-.018.066-.033.093-.056.186-.159.368-.322.557-.477.189-.154.371-.324.582-.442.18-.1.365-.21.584-.236.185-.021.355-.02.5.116.05.045.1.087.152.129l.207.167c.043-.046.08-.084.113-.124.108-.129.22-.253.289-.412a.917.917 0 0 0 .054-.586Zm-.104-9.087c.003-.018.01-.034.008-.049-.015-.141-.033-.282-.046-.423a55.694 55.694 0 0 1-.068-.741c-.015-.182-.02-.364-.041-.545-.042-.337-.096-.674-.14-1.012a.783.783 0 0 0-.092-.3 2.883 2.883 0 0 0-.341-.486c-.29-.323-.607-.6-1.03-.732a3.873 3.873 0 0 1-.309-.108c-.235-.097-.487-.124-.735-.153-.222-.025-.45-.018-.674-.02-.341-.005-.68.02-1.018.079-.292.051-.588.082-.88.136-.373.069-.745.144-1.115.23-.364.084-.723.184-1.085.278-.07.018-.138.045-.208.063-.307.079-.616.15-.92.235-.232.065-.461.143-.686.227-.104.039-.2.102-.294.161a3.432 3.432 0 0 0-.301.208 1.177 1.177 0 0 0-.18.18 3.852 3.852 0 0 0-.212.286c-.086.128-.193.244-.237.397-.075.257-.156.512-.224.77-.058.217-.102.438-.149.658-.025.116-.027.23.068.323.131.129.276.238.452.296.214.07.428.138.642.204.05.016.101.034.153.037a.244.244 0 0 1 .193.107c.155.22.382.346.613.458.195.096.404.162.605.247.317.134.652.2.99.234.215.022.435.003.652-.015.412-.033.823-.068 1.231-.135.182-.03.37-.004.55-.06.063-.019.131-.016.197-.023.184-.017.37-.03.553-.053.271-.035.542-.08.813-.12.095-.013.189-.034.284-.039.228-.01.456-.014.684-.02.159-.004.318-.003.477-.01.26-.013.521-.035.782.005.091.014.183.039.274.038.312 0 .62.036.927.086.228.036.454.087.677.146.175.046.34.132.517.167.25.05.432.225.654.325.037.016.062.054.035.087-.016.02-.066.03-.092.02-.058-.022-.11-.06-.164-.09-.052-.03-.1-.066-.155-.09-.185-.079-.372-.154-.558-.23a.255.255 0 0 0-.038-.012l-.713-.17c-.055-.012-.109-.028-.164-.036-.144-.02-.288-.045-.433-.053-.16-.01-.32-.002-.502-.002.177.116.32.24.43.4.013.02.066.026.096.02.251-.054.502-.026.749.015.13.022.254.09.382.132.191.062.388.109.575.183.292.115.576.248.865.371.048.02.099.041.15.045.098.007.144-.029.161-.11a.567.567 0 0 0-.22-.562c-.203-.132-.407-.26-.615-.381a1.379 1.379 0 0 0-.515-.168c-.158-.022-.322-.025-.47-.075-.338-.114-.692-.143-1.037-.215-.159-.032-.32-.049-.482-.066-.252-.026-.506-.05-.76-.07-.088-.007-.178-.002-.268-.003-.304-.004-.609-.015-.913-.01-.21.005-.421.042-.632.046-.199.005-.395.008-.593.041-.335.055-.673.095-1.01.14-.241.034-.48.1-.727.081-.026-.002-.052.01-.078.014-.152.028-.303.065-.456.082a9.64 9.64 0 0 1-.78.058 6.94 6.94 0 0 1-.674-.027 2.616 2.616 0 0 1-.786-.192c-.199-.08-.399-.162-.567-.302-.045-.037-.094-.082-.058-.14.033-.052.093-.024.145-.01.133.037.267.09.403.098.33.019.662.01.99-.05.162-.031.323-.07.484-.105.317-.067.634-.132.951-.2.194-.04.38-.113.583-.105.052.002.104-.016.156-.027.253-.05.505-.103.764-.108.075-.002.15-.02.226-.03.15-.021.3-.058.451-.06.655-.009 1.31-.005 1.966-.01.277-.002.548.044.816.097.345.07.686.163 1.029.246.012.002.025-.003.042-.004Zm-.863 13.89c-.045.006-.084.013-.123.013a.952.952 0 0 1-.686-.28c-.094-.088-.183-.184-.287-.258a2.813 2.813 0 0 1-.45-.403.637.637 0 0 1-.186-.417 1.46 1.46 0 0 0-.078-.446c-.015-.046-.034-.062-.081-.066a1.189 1.189 0 0 1-.252-.043c-.222-.072-.365-.197-.38-.453-.01-.189-.224-.359-.392-.361-.154-.002-.262.078-.369.167-.11.093-.124.215-.08.34a1.1 1.1 0 0 0 .317.438c.065.06.128.123.18.195.095.134.178.276.271.412a.531.531 0 0 1 .086.3c.003.102.002.205-.002.307-.01.232.018.454.116.668.033.07.076.119.14.157.131.077.261.155.388.238.187.123.371.25.556.377.276.188.586.263.913.28l.06.008c.17.018.338.042.509.052.292.018.584-.006.878.034.267.036.541.005.807-.053.167-.037.333-.083.497-.13.13-.038.261-.074.383-.13.227-.104.444-.227.646-.376.088-.065.149-.157.132-.27a1.423 1.423 0 0 0-.079-.293 5.879 5.879 0 0 0-.191-.457c-.057-.119-.112-.245-.197-.342a1.035 1.035 0 0 1-.183-.311 1.856 1.856 0 0 0-.343-.53 10.525 10.525 0 0 1-.244-.297c-.08-.1-.151-.21-.239-.302-.337-.358-.744-.62-1.181-.84a.83.83 0 0 1-.23-.166c-.066-.07-.107-.164-.162-.246a.332.332 0 0 0-.061-.064c-.086-.073-.18-.138-.257-.218-.191-.198-.412-.203-.647-.108a2.476 2.476 0 0 0-.657.38c-.228.189-.446.39-.657.575.101.091.204.172.293.266.084.09.104.202.025.306a1.941 1.941 0 0 1-.214.228c-.04.037-.088.026-.124-.012-.033-.035-.018-.086.027-.127.054-.049.108-.098.157-.152.038-.04.04-.08.005-.132-.075-.115-.194-.165-.308-.224a.072.072 0 0 0-.058-.002c-.136.07-.288.12-.33.3-.031.137.016.313.172.378.147.06.297.055.448.06a.586.586 0 0 0 .372-.116c.187-.135.371-.275.554-.416.115-.09.227-.191.377-.204.28-.024.547.027.777.205.067.052.067.093-.002.148-.015.012-.033.023-.04.04-.043.09-.082.182-.13.29.033-.019.055-.028.073-.043l.519-.414c.025-.02.056-.047.084-.047.03 0 .071.02.09.045.035.05-.006.09-.04.118-.18.145-.355.297-.545.428-.186.13-.386.24-.583.354-.108.063-.23.103-.33.175-.193.14-.295.354-.418.55-.018.028-.018.078-.009.114a.53.53 0 0 0 .07.152c.098.15.218.279.37.38.14.095.293.11.453.106.08-.003.13-.04.157-.122.083-.256.268-.453.412-.672.11-.167.293-.265.457-.376.038-.026.082-.023.104.015.015.026.015.071.003.099a.186.186 0 0 1-.077.075 1.245 1.245 0 0 0-.438.42c-.12.186-.255.36-.333.571-.042.113-.022.265.066.345a.095.095 0 0 0 .049.026c.19.02.38.041.57.055.063.005.131-.013.164-.073.065-.118.158-.208.254-.3.18-.174.345-.365.517-.548.038-.04.075-.085.12-.116.02-.015.07-.015.089 0 .02.016.027.058.025.088-.002.022-.027.043-.044.062-.088.095-.175.19-.264.284l-.354.372c-.047.05-.099.098-.138.155-.04.058.026.295.086.332.135.084.419.06.533-.056.115-.118.222-.244.328-.37.105-.123.203-.252.308-.374a.476.476 0 0 1 .116-.093c.041-.025.097.002.11.048.014.049-.015.079-.046.112-.104.115-.208.23-.305.351-.093.114-.17.241-.293.328-.016.012-.026.03-.041.043-.054.048-.103.103-.162.14a.647.647 0 0 1-.507.067.327.327 0 0 1-.234-.183c-.02-.046-.034-.096-.051-.145-.04.013-.074.027-.109.035-.231.047-.46.014-.685-.036-.153-.033-.248-.143-.28-.3-.006-.032-.017-.062-.027-.093Zm1.674-7.719-.019.013c-.027.102-.05.205-.082.305a2.437 2.437 0 0 1-.361.68 1.582 1.582 0 0 1-.444.433c-.247.151-.527.198-.803.23-.325.037-.654.039-.981.042-.201.002-.402-.023-.603-.037l-.366-.025c-.293-.02-.587-.039-.88-.056-.136-.008-.272-.004-.406-.02-.275-.033-.55-.076-.824-.116-.266-.04-.534-.075-.8-.121-.246-.044-.49-.1-.736-.151-.329-.067-.659-.132-.988-.201a7.42 7.42 0 0 1-.53-.127c-.344-.1-.686-.21-1.031-.31-.12-.035-.246-.05-.37-.067-.064-.01-.114.019-.149.076-.108.179-.106.4.062.55.056.05.119.093.18.139.196.145.393.29.62.387.11.049.224.094.33.152.24.13.474.273.715.4.163.086.337.15.503.23.209.1.414.207.62.309.207.102.427.157.655.187.173.023.345.062.519.074.176.011.345.04.511.097.069.023.142.04.213.043.397.017.794.037 1.19.039.444.002.887-.014 1.33-.023.08-.002.16-.003.237-.02.255-.054.51-.028.762-.004.241.023.476.023.701-.073.2-.084.38-.2.518-.37.077-.094.155-.188.224-.287.06-.089.147-.161.177-.271.042-.159.037-.304-.098-.421-.146.124-.296.246-.44.375a.815.815 0 0 1-.477.219 19.389 19.389 0 0 1-1.297.06c-.11 0-.257-.02-.365-.019-.533.003-.99.036-1.557-.057a7.562 7.562 0 0 1-.946-.161c-.255-.066-.513-.126-.78-.124-.202.002-.404-.004-.606-.01a1.204 1.204 0 0 1-.167-.016l-.495-.087c-.081-.015-.165-.023-.242-.05-.256-.086-.51-.18-.764-.27a9.398 9.398 0 0 0-.403-.134c-.211-.063-.433-.099-.613-.241-.09-.072-.18-.143-.265-.22-.02-.02-.016-.065-.023-.098.036-.006.074-.02.108-.014.033.006.063.034.094.053.127.081.25.174.384.242.092.046.202.056.302.088.277.089.553.177.827.273.195.07.38.167.593.184.095.007.188.037.282.052.143.022.287.048.43.057.212.013.424.01.636.018.265.008.52.076.777.135.18.04.361.076.544.104.123.02.25.024.374.034.27.022.54.05.81.063.145.008.29-.017.435-.014.198.005.395.032.593.032.227 0 .455-.02.682-.03l.556-.024c.2-.008.371-.072.509-.224.064-.07.142-.128.215-.19.063-.053.135-.098.19-.158.19-.21.376-.424.558-.641.116-.138.21-.297.15-.482-.048-.144-.136-.274-.205-.41ZM7.525 5.21l.001.013.034.019c.151.087.319.122.487.162.27.063.542.126.821.123.185-.002.37-.016.554-.033.214-.02.427-.048.64-.074.17-.021.34-.047.51-.067.286-.035.572-.062.856-.1.157-.021.31-.068.467-.085.302-.033.604-.077.91-.063.013.001.026-.002.04-.003a7.23 7.23 0 0 1 1.07-.053c.191.008.383.01.575.019.257.012.515.021.772.046.23.023.457.062.685.1.17.026.338.057.506.094.261.057.52.12.781.18.03.006.064-.002.106-.004-.016-.026-.019-.038-.026-.042-.19-.083-.376-.181-.573-.246a5.863 5.863 0 0 1-.871-.352 1.2 1.2 0 0 0-.271-.09c-.18-.044-.363-.073-.542-.12a3.503 3.503 0 0 0-1.138-.133c-.313.021-.627.016-.94.012-.298-.004-.597.006-.894.023-.191.011-.38.047-.571.07-.232.03-.465.059-.697.09-.173.025-.349.04-.518.083-.32.08-.642.156-.968.21-.182.03-.357.098-.537.138a4.088 4.088 0 0 1-1.036.084c-.078-.003-.155 0-.233 0Zm3.743 2.47.004-.027-.076-.037c-.095-.048-.193-.088-.283-.143-.13-.08-.25-.172-.38-.252a1.443 1.443 0 0 0-.754-.24c-.3-.004-.598.012-.898.049-.334.04-.657.102-.97.221a1.693 1.693 0 0 0-.243.11c-.198.113-.324.295-.447.479.096.099.205.12.315.07a.601.601 0 0 1 .158-.054c.254-.036.509-.076.764-.1.313-.028.626-.05.94-.056.34-.006.68.019 1.02.016.284-.002.567-.023.85-.036Zm1.09 1.415c-.013-.072-.014-.125-.032-.171-.068-.178-.148-.351-.21-.531a1.05 1.05 0 0 0-.367-.491.235.235 0 0 0-.124-.046 3.878 3.878 0 0 0-.374-.006c-.173.006-.345.02-.532.033.098.09.177.18.193.303.038.288.03.573-.096.843-.04.084-.09.163-.139.25.065.01.123.017.181.024.357.045.71.049 1.05-.102.134-.06.267-.132.45-.106Zm4.205-.774.032-.021c-.017-.047-.026-.1-.054-.139-.123-.17-.258-.334-.377-.507a.336.336 0 0 0-.214-.15 4.79 4.79 0 0 0-.605-.083c-.174-.01-.35.015-.524.018-.247.005-.427.146-.623.282.02.008.027.014.036.015.366.02.731.045 1.098.06.191.007.358.076.523.163.235.123.472.241.708.362Zm-1.184.898c.088-.012.152-.02.217-.03a.912.912 0 0 0 .502-.212c.132-.12.253-.25.376-.38.056-.059.044-.107-.028-.149a.68.68 0 0 0-.088-.042 3.477 3.477 0 0 1-.619-.304.841.841 0 0 0-.376-.129c.287.41.36.815.016 1.246Zm-.411 6.805a3.243 3.243 0 0 1-.015-.025c-.045 0-.09-.005-.134.001-.155.022-.262.129-.381.218-.28.21-.533.465-.885.54l.079.581.028.008c.179-.166.358-.331.535-.499.196-.186.392-.371.58-.564.075-.077.13-.173.193-.26ZM9.024.57C8.953.469 8.87.434 8.774.436c-.168.003-.339.001-.504.027-.178.027-.357.07-.526.132-.153.057-.299.14-.438.228-.074.048-.127.13-.187.199-.01.01-.012.04-.004.052.008.011.035.018.051.014.131-.033.262-.067.392-.103.241-.067.482-.136.724-.202.197-.053.395-.101.593-.154.046-.012.09-.035.15-.058Zm4.98 17.236.026-.01a.437.437 0 0 1 .096-.302c.056-.081.1-.173.16-.25.117-.148.24-.287.429-.353a.502.502 0 0 0 .283-.22c.04-.07.105-.126.155-.191.046-.06.093-.121.128-.188.075-.142.052-.216-.102-.24-.006-.001-.012.002-.016.002-.095.124-.185.25-.285.368-.075.087-.162.165-.245.245-.215.206-.428.412-.646.615-.084.078-.177.146-.277.227l.294.296ZM8.913 7.881c-.431.04-.843.07-1.267.16.03.018.042.028.055.033l.387.145c.165.064.336.116.459.255.002.003.012-.001.02-.003.032-.236.184-.405.346-.59Zm1.264.876c.227 0 .345-.104.347-.309 0-.1-.05-.16-.144-.196-.124-.047-.23-.005-.333.058-.093.057-.143.18-.118.27.032.114.12.177.248.177Zm3.462.408c-.124-.35-.005-.659.094-.912-.058.049-.169.117-.246.213-.114.14-.248.275-.263.476-.007.093.002.12.096.143l.319.08Zm1.622-.582c0-.16-.067-.214-.277-.224-.076-.003-.164.129-.162.244.003.142.083.21.249.21.13 0 .19-.072.19-.23ZM9.278 8.28c.09 0 .15-.05.152-.132.002-.065-.069-.137-.137-.14-.07-.002-.149.074-.15.145-.002.065.063.126.135.127Zm.21.34c.002-.08-.037-.127-.104-.127-.067-.001-.147.069-.15.132-.005.071.053.126.132.127.077 0 .122-.048.123-.133Zm4.845-.331c0-.063-.063-.133-.12-.135-.06-.001-.129.08-.128.153 0 .06.061.123.12.122.056-.001.128-.08.128-.14Zm.01.54c0-.08-.02-.1-.1-.1-.082-.001-.122.033-.122.105 0 .06.05.11.112.112.075 0 .11-.036.11-.118Z" fill="#030302"/><path d="M16.041 4.712c-.017.001-.03.006-.042.004-.343-.083-.683-.177-1.029-.246a4.02 4.02 0 0 0-.816-.097c-.655.005-1.31.001-1.965.01-.151.002-.302.039-.452.06-.075.01-.15.028-.226.03-.259.005-.51.057-.763.108-.052.011-.105.03-.156.027-.203-.008-.39.065-.583.106-.317.067-.635.132-.952.2-.161.033-.322.073-.484.103a4.08 4.08 0 0 1-.99.05c-.135-.007-.27-.06-.403-.097-.052-.014-.112-.042-.145.01-.036.058.013.103.058.14.169.14.369.222.567.302.252.102.515.172.786.192.224.016.45.033.674.027a9.64 9.64 0 0 0 .78-.058c.153-.017.305-.054.457-.082.026-.005.052-.016.077-.014.248.018.486-.047.728-.08.336-.046.674-.086 1.01-.141.197-.033.394-.036.592-.04.211-.005.422-.042.633-.046.304-.006.608.005.913.01.09 0 .18-.005.268.002.254.02.507.044.76.07.16.017.323.034.481.066.346.072.7.101 1.038.215.148.05.312.053.469.075.182.025.357.075.515.168.208.122.413.25.615.381.17.112.263.359.22.562-.017.081-.062.117-.16.11a.489.489 0 0 1-.15-.045c-.29-.123-.574-.256-.866-.371-.186-.074-.383-.12-.575-.183-.128-.042-.25-.11-.382-.132-.247-.041-.498-.069-.749-.016-.03.007-.082.001-.096-.018a1.486 1.486 0 0 0-.43-.401c.183 0 .343-.008.503.002.144.008.288.033.432.053.055.008.11.024.164.037l.713.169a.252.252 0 0 1 .038.012c.187.076.373.151.559.23.054.024.103.06.154.09.054.03.107.068.164.09.026.01.077 0 .093-.02.027-.033.001-.07-.036-.087-.221-.1-.403-.275-.654-.325-.176-.035-.342-.121-.517-.167a7.087 7.087 0 0 0-.677-.146 5.779 5.779 0 0 0-.926-.085c-.092 0-.183-.025-.275-.039-.26-.04-.52-.018-.782-.006-.159.008-.318.007-.477.011-.228.006-.456.01-.684.02-.095.005-.189.026-.283.04-.271.04-.542.084-.814.119-.183.024-.368.036-.553.053-.065.007-.134.004-.196.023-.18.056-.369.03-.55.06-.409.067-.82.102-1.231.135-.217.018-.438.037-.653.015a3.395 3.395 0 0 1-.99-.234c-.2-.085-.41-.151-.605-.247-.231-.112-.458-.238-.613-.458a.244.244 0 0 0-.192-.107c-.052-.003-.104-.02-.154-.037a46.37 46.37 0 0 1-.641-.204 1.18 1.18 0 0 1-.453-.296c-.095-.092-.092-.207-.068-.323.047-.22.092-.44.149-.658.068-.258.149-.513.224-.77.045-.153.15-.27.237-.397.067-.098.136-.195.212-.286.053-.066.114-.128.18-.18.096-.075.198-.143.301-.208.095-.059.19-.122.294-.16.225-.085.454-.163.685-.228.305-.086.614-.156.921-.235.07-.018.138-.045.209-.063.36-.094.72-.194 1.084-.278a25.2 25.2 0 0 1 1.116-.23c.292-.054.588-.085.88-.136.337-.06.676-.084 1.017-.08.225.003.452-.004.675.021.248.03.499.056.735.153.1.04.204.075.308.108.423.132.74.41 1.03.732.134.15.241.314.341.486a.785.785 0 0 1 .092.3c.045.338.098.675.14 1.012.022.18.026.363.041.545.021.247.044.494.068.74.014.142.032.283.047.424.001.015-.006.031-.009.049Z" fill="#D90118"/><path d="M7.524 5.21c.078 0 .156-.003.233 0a4.09 4.09 0 0 0 1.036-.084c.18-.04.356-.108.537-.138.327-.054.648-.13.969-.21.169-.042.345-.058.518-.082.232-.032.464-.06.697-.09.19-.024.38-.06.57-.07.298-.018.596-.028.894-.024.314.004.627.01.94-.012.388-.026.765.034 1.139.133.178.047.362.076.541.12a1.2 1.2 0 0 1 .271.09c.28.145.573.253.872.352.197.065.382.163.573.246.007.004.01.016.026.042-.043.002-.076.01-.106.003-.261-.058-.52-.122-.782-.18a9.379 9.379 0 0 0-.505-.094c-.228-.037-.456-.076-.686-.099-.256-.025-.514-.034-.772-.046-.192-.01-.384-.01-.575-.019a7.234 7.234 0 0 0-1.07.053c-.013 0-.027.004-.04.003-.305-.014-.607.03-.91.063-.156.017-.31.064-.466.085-.285.038-.57.065-.856.1-.17.02-.34.046-.511.067-.213.026-.426.054-.64.074-.183.017-.368.031-.553.033-.28.003-.55-.06-.822-.123-.168-.04-.335-.075-.486-.162l-.034-.019c-.002 0-.001-.006-.002-.013Z" fill="#D90118"/><path d="M11.267 7.679c-.283.013-.566.034-.849.036-.34.003-.681-.022-1.021-.016-.314.005-.627.029-.94.057-.255.023-.51.063-.764.1a.601.601 0 0 0-.158.054c-.11.05-.219.028-.314-.071.122-.184.248-.366.446-.48.077-.043.16-.078.243-.109.313-.119.637-.18.97-.221.3-.037.598-.053.899-.049.275.004.523.096.754.24.129.08.25.173.38.252.09.055.188.096.282.143l.077.037-.005.027Z" fill="#178320"/><path d="M12.357 9.094c-.182-.026-.316.046-.45.106-.34.15-.692.147-1.05.102l-.18-.023c.049-.088.1-.167.139-.25.126-.27.134-.556.096-.844-.016-.123-.096-.213-.194-.303.188-.013.36-.027.532-.033.125-.005.25-.002.374.006.043.003.091.02.125.046.165.13.297.285.367.49.061.18.142.354.21.532.018.046.018.1.03.17Z" fill="#fff"/><path d="M16.563 8.32c-.236-.12-.473-.24-.708-.362a1.221 1.221 0 0 0-.524-.164c-.366-.014-.731-.038-1.097-.059-.009 0-.017-.007-.036-.015.196-.136.376-.277.622-.282.175-.003.35-.029.525-.018.203.012.405.045.605.083a.336.336 0 0 1 .213.15c.12.173.255.336.378.507.028.039.037.092.054.139l-.032.021Z" fill="#178320"/><path d="M15.379 9.218c.343-.431.27-.835-.017-1.246a.841.841 0 0 1 .377.129c.194.126.404.219.618.304.03.012.06.026.089.042.071.042.083.09.027.15-.122.128-.244.26-.376.379a.911.911 0 0 1-.501.213l-.217.029Z" fill="#fff"/><path d="M9.024.57c-.06.024-.104.047-.15.059-.197.053-.396.1-.593.154-.242.066-.483.135-.724.202-.13.036-.26.07-.392.103-.015.004-.042-.003-.05-.014-.009-.012-.007-.041.003-.052.06-.07.113-.151.188-.199.138-.088.284-.171.438-.228.168-.062.347-.105.525-.132.165-.026.336-.024.504-.027.095-.002.179.033.25.135Z" fill="#D90118"/><path d="M8.913 7.882c-.162.185-.314.354-.345.59-.01.002-.02.006-.021.003-.123-.14-.294-.191-.46-.255l-.386-.145c-.013-.005-.025-.015-.055-.032.424-.091.836-.121 1.267-.16ZM10.176 8.758c-.128 0-.216-.063-.248-.176-.025-.091.025-.214.118-.271.103-.063.209-.105.334-.058.093.035.144.097.143.196-.001.205-.12.31-.347.31ZM13.638 9.166l-.318-.08c-.094-.023-.103-.05-.097-.143.015-.2.15-.335.263-.476.078-.096.188-.164.246-.213-.098.253-.218.563-.094.912ZM15.26 8.584c0 .158-.06.23-.19.23-.166 0-.246-.068-.249-.21-.002-.115.086-.247.162-.244.21.01.277.064.277.224ZM9.278 8.28c-.073 0-.138-.06-.136-.126.001-.07.08-.147.15-.145.068.003.139.075.137.14-.002.081-.062.133-.151.132ZM9.488 8.62c0 .085-.045.133-.122.133-.08-.001-.137-.056-.133-.127.003-.063.083-.133.15-.132.068 0 .106.047.105.126ZM14.333 8.29c0 .06-.072.139-.129.14-.058 0-.119-.062-.119-.122 0-.073.068-.154.127-.153.058.002.122.072.121.135ZM14.342 8.83c0 .081-.034.118-.11.117a.113.113 0 0 1-.112-.112c0-.072.04-.106.123-.105.08 0 .098.02.099.1Z" fill="#fff"/><path d="M14.116 10.03c.183.21.37.42.55.633.05.057.084.127.118.194a.182.182 0 0 1 .013.096c-.006.057-.066.08-.11.043-.028-.025-.049-.06-.072-.092-.074-.1-.145-.205-.223-.302-.102-.125-.21-.247-.317-.368a.697.697 0 0 0-.117-.105 2.503 2.503 0 0 0-.52-.306c-.04-.015-.075-.041-.11-.066-.038-.028-.06-.066-.031-.111.03-.045.073-.05.122-.031.139.053.277.107.417.157.246.087.502.108.762.092.048-.003.097-.019.145-.03.056-.015.114-.027.146.039.025.05-.004.102-.09.126a1.276 1.276 0 0 1-.292.042c-.13.004-.262-.006-.391-.01ZM7.147 10.963c-.227.038-.458.061-.679.121a.789.789 0 0 0-.461.369c-.019.03-.053.066-.085.072-.06.01-.104-.063-.075-.123a.915.915 0 0 1 .38-.393c.19-.112.404-.156.623-.171.132-.009.263-.016.395-.017.031 0 .072.017.091.04.05.06.02.116-.057.12-.043.003-.086 0-.129 0l-.003-.018ZM6.941 10.243c.037 0 .076-.008.108.003.027.008.059.038.063.063.004.025-.016.065-.038.08a.202.202 0 0 1-.103.028c-.186.007-.368.021-.535.116-.046.026-.098.028-.127-.03-.024-.045-.003-.114.05-.133a2.69 2.69 0 0 1 .327-.101c.083-.02.17-.021.255-.03v.004Z" fill="#030302"/><path d="M6.568 2.567c.04-.004.065-.013.076-.027.012-.014.017-.046.017-.096v-.388c0-.035-.005-.057-.016-.067-.011-.01-.036-.017-.074-.019v-.018h.188l.22.476.213-.476h.19v.018c-.035.003-.058.01-.068.02-.01.01-.016.032-.016.066v.425c0 .034.005.057.016.066.01.01.033.017.068.02v.017h-.267v-.017c.039-.003.063-.01.072-.021.01-.01.014-.036.014-.077v-.428l-.244.543h-.013l-.24-.521v.38c0 .053.007.087.022.103.01.01.032.017.067.02v.018h-.225v-.017Zm.853.017v-.017a.078.078 0 0 0 .055-.028.765.765 0 0 0 .064-.129l.199-.469h.019l.238.542a.229.229 0 0 0 .038.066.09.09 0 0 0 .047.018v.017h-.243v-.017a.214.214 0 0 0 .054-.01c.009-.003.013-.012.013-.026a.266.266 0 0 0-.018-.062l-.038-.091h-.252l-.045.114a.106.106 0 0 0-.007.033c0 .016.007.027.02.033a.156.156 0 0 0 .045.009v.017h-.189Zm.411-.245-.109-.263-.11.263h.22Zm.282.23c.039-.004.063-.01.072-.022.01-.01.014-.036.014-.076v-.415c0-.034-.005-.057-.015-.067-.01-.01-.034-.016-.07-.019v-.018h.271v.018c-.037.002-.061.008-.072.019-.011.01-.017.033-.017.067v.196c.06-.05.107-.093.145-.128.067-.064.1-.105.1-.123 0-.012-.006-.02-.017-.025a.151.151 0 0 0-.048-.006v-.018h.25v.018a.212.212 0 0 0-.072.018.349.349 0 0 0-.073.057l-.187.173.228.246c.041.044.07.072.084.083a.138.138 0 0 0 .066.021v.016h-.292v-.016a.214.214 0 0 0 .054-.006c.009-.003.014-.01.014-.02a.059.059 0 0 0-.01-.024.213.213 0 0 0-.028-.038l-.184-.198-.03.027v.173c0 .035.006.058.016.067.011.01.035.016.07.02v.015h-.269v-.016Zm.683-.002c.036-.004.058-.01.069-.019.01-.009.015-.031.015-.067v-.425c0-.034-.005-.056-.015-.066-.01-.01-.033-.017-.069-.02v-.018h.508l.003.137h-.024c-.008-.042-.02-.07-.036-.082-.017-.012-.053-.018-.109-.018h-.13c-.014 0-.022.002-.026.007-.003.004-.005.013-.005.025v.213h.148c.04 0 .066-.006.078-.018.01-.012.02-.036.027-.073h.022v.22h-.022c-.007-.037-.017-.061-.028-.073-.011-.012-.037-.018-.077-.018h-.148v.236c0 .02.006.03.018.034a.608.608 0 0 0 .108.005.363.363 0 0 0 .143-.021c.031-.014.059-.048.084-.103h.026l-.043.161h-.517v-.017Zm.823 0c.04-.004.065-.013.076-.027.01-.014.017-.046.017-.096v-.388c0-.035-.006-.057-.017-.067-.01-.01-.035-.017-.074-.019v-.018h.188l.22.476.214-.476h.19v.018c-.036.003-.059.01-.069.02-.01.01-.015.032-.015.066v.425c0 .034.005.057.015.066.01.01.033.017.069.02v.017h-.268v-.017c.039-.003.063-.01.072-.021.01-.01.015-.036.015-.077v-.428l-.245.543h-.013l-.24-.521v.38c0 .053.007.087.022.103.01.01.033.017.067.02v.018H9.62v-.017Zm.85 0c.034-.004.057-.01.067-.019.01-.009.016-.031.016-.067v-.425c0-.034-.005-.056-.015-.066-.01-.01-.034-.017-.069-.02v-.018h.508l.003.137h-.024c-.008-.042-.02-.07-.037-.082-.016-.012-.052-.018-.108-.018h-.13c-.014 0-.023.002-.026.007-.003.004-.005.013-.005.025v.213h.147c.041 0 .067-.006.078-.018.011-.012.02-.036.027-.073h.023v.22h-.023c-.007-.037-.016-.061-.027-.073-.011-.012-.037-.018-.078-.018h-.147v.236c0 .02.006.03.018.034a.608.608 0 0 0 .108.005.363.363 0 0 0 .143-.021c.031-.014.059-.048.083-.103h.027l-.044.161h-.516v-.017Zm.583 0c.04-.004.064-.013.076-.027.01-.014.016-.046.016-.096v-.388c0-.035-.005-.057-.016-.067-.01-.01-.035-.017-.074-.019v-.018h.188l.22.476.214-.476h.19v.018c-.036.003-.059.01-.07.02-.01.01-.014.032-.014.066v.425c0 .034.005.057.015.066.01.01.033.017.069.02v.017h-.268v-.017c.039-.003.063-.01.072-.021.01-.01.014-.036.014-.077v-.428l-.244.543h-.013l-.24-.521v.38c0 .053.007.087.022.103.01.01.032.017.067.02v.018h-.224v-.017Zm.849 0c.035-.004.058-.01.068-.019.01-.009.016-.031.016-.067v-.425c0-.034-.005-.056-.016-.066-.01-.01-.033-.017-.068-.02v-.018h.507l.004.137h-.025c-.008-.042-.02-.07-.036-.082-.016-.012-.052-.018-.108-.018h-.13c-.014 0-.023.002-.026.007-.003.004-.005.013-.005.025v.213h.147c.041 0 .067-.006.078-.018.011-.012.02-.036.027-.073h.023v.22h-.023c-.007-.037-.016-.061-.027-.073-.011-.012-.037-.018-.078-.018h-.147v.236c0 .02.006.03.018.034a.608.608 0 0 0 .108.005.364.364 0 0 0 .143-.021c.03-.014.059-.048.083-.103h.027l-.044.161h-.516v-.017Zm1.033-.61.06.015a.048.048 0 0 0 .026-.007.04.04 0 0 0 .017-.024h.02l.01.215h-.023a.309.309 0 0 0-.05-.103.192.192 0 0 0-.158-.074.2.2 0 0 0-.164.08.34.34 0 0 0-.063.218c0 .085.022.153.066.204.045.05.102.076.17.076.05 0 .095-.012.137-.035a.412.412 0 0 0 .079-.061l.017.018a.317.317 0 0 1-.253.122.316.316 0 0 1-.244-.1.323.323 0 0 1-.084-.226.33.33 0 0 1 .089-.234.315.315 0 0 1 .241-.1.39.39 0 0 1 .107.016Zm.301.066a.302.302 0 0 1 .217-.084c.086 0 .159.028.218.085a.324.324 0 0 1 .095.245.321.321 0 0 1-.099.247.304.304 0 0 1-.214.082.298.298 0 0 1-.223-.09.328.328 0 0 1-.09-.24c0-.101.032-.183.096-.245Zm.072.468a.184.184 0 0 0 .29.002c.04-.047.06-.121.06-.224 0-.104-.02-.18-.06-.226a.182.182 0 0 0-.29.003c-.04.048-.06.122-.06.223 0 .1.02.174.06.222Zm.51.076c.038-.003.063-.009.075-.018.011-.008.017-.031.017-.068v-.425c0-.035-.006-.058-.017-.068-.012-.01-.037-.016-.076-.018v-.018h.283v.018c-.04.002-.064.008-.076.018-.011.01-.017.033-.017.068v.425c0 .037.006.06.017.068.012.01.037.015.076.018v.017h-.283v-.017Zm.313 0c.039-.004.064-.013.075-.027.012-.014.017-.046.017-.096v-.421l-.013-.016a.105.105 0 0 0-.035-.03.138.138 0 0 0-.045-.007v-.018h.163l.37.458v-.318c0-.052-.008-.086-.024-.102-.01-.01-.033-.017-.068-.02v-.018h.224v.018c-.036.004-.06.013-.073.027-.012.014-.018.046-.018.096v.503h-.016l-.423-.524v.372c0 .052.008.086.023.102.01.01.032.017.067.02v.018h-.225v-.017Zm.74-.175a.346.346 0 0 0 .057.103.178.178 0 0 0 .141.067c.03 0 .057-.01.08-.03a.101.101 0 0 0 .032-.08.113.113 0 0 0-.033-.081.598.598 0 0 0-.092-.066l-.082-.05a.293.293 0 0 1-.059-.048.146.146 0 0 1-.04-.1c0-.048.016-.088.048-.12a.172.172 0 0 1 .127-.048c.022 0 .048.005.079.016.03.01.048.016.052.016.012 0 .02-.003.025-.008a.06.06 0 0 0 .01-.024h.02l.02.203h-.022c-.015-.061-.04-.104-.075-.128a.176.176 0 0 0-.102-.036.107.107 0 0 0-.068.023.077.077 0 0 0-.03.064c0 .024.008.045.023.063a.285.285 0 0 0 .07.055l.084.052c.052.032.089.062.11.09.022.027.032.059.032.096 0 .05-.019.092-.056.126a.21.21 0 0 1-.145.05.281.281 0 0 1-.093-.017.348.348 0 0 0-.055-.017c-.011 0-.019.004-.023.01a.066.066 0 0 0-.007.023h-.021l-.029-.204h.022Zm-6.622.62c.036.01.057.015.062.015.014 0 .023-.002.03-.008a.063.063 0 0 0 .014-.022h.02l.008.2h-.022a.366.366 0 0 0-.06-.103.193.193 0 0 0-.147-.06.222.222 0 0 0-.162.07c-.046.047-.07.123-.07.23a.29.29 0 0 0 .07.206c.046.05.103.074.172.074a.298.298 0 0 0 .084-.013.13.13 0 0 0 .043-.02c.006-.005.008-.013.008-.024v-.152c0-.037-.005-.06-.015-.069-.01-.009-.034-.015-.069-.017v-.017h.244v.017c-.024.002-.04.006-.047.012-.013.01-.02.03-.02.062v.187c0 .012-.027.027-.082.045a.49.49 0 0 1-.159.028.352.352 0 0 1-.236-.081.3.3 0 0 1-.105-.242c0-.089.028-.165.084-.229a.313.313 0 0 1 .246-.104c.037 0 .074.005.11.015Zm.238.61c.037-.003.06-.01.069-.021.009-.011.013-.036.013-.076v-.414c0-.033-.005-.055-.015-.066-.01-.01-.032-.017-.067-.02v-.017h.265c.055 0 .1.007.137.02.07.027.105.076.105.146a.134.134 0 0 1-.047.11.255.255 0 0 1-.126.05l.197.243a.132.132 0 0 0 .036.032.12.12 0 0 0 .047.013v.018h-.154l-.239-.295-.042.003v.188c0 .035.006.058.016.067.011.01.035.016.07.019v.018h-.265v-.018Zm.327-.331c.05-.021.076-.06.076-.117 0-.056-.023-.093-.068-.114a.24.24 0 0 0-.097-.016c-.027 0-.044.002-.05.006-.006.004-.009.013-.009.027v.235a.482.482 0 0 0 .148-.021Zm.31.331c.036-.004.058-.01.069-.019.01-.009.015-.031.015-.067v-.425c0-.034-.005-.056-.015-.066-.01-.01-.033-.017-.069-.02v-.017h.508l.003.136h-.024c-.008-.042-.02-.069-.037-.081-.016-.013-.052-.019-.108-.019h-.13c-.014 0-.022.002-.026.007-.003.004-.005.013-.005.025v.213h.148c.04 0 .066-.006.078-.018.01-.012.02-.036.027-.073h.022v.22h-.022c-.007-.036-.017-.06-.028-.073-.011-.012-.037-.018-.077-.018h-.148v.237c0 .019.006.03.018.033a.608.608 0 0 0 .108.005.363.363 0 0 0 .143-.02c.031-.015.059-.05.084-.104h.026l-.043.162h-.517v-.018Zm.587.018v-.018a.078.078 0 0 0 .056-.028.765.765 0 0 0 .063-.129l.199-.468h.019l.238.541a.227.227 0 0 0 .038.067.09.09 0 0 0 .047.017v.018h-.242v-.018a.215.215 0 0 0 .054-.01c.008-.003.012-.011.012-.025a.264.264 0 0 0-.018-.062l-.038-.092h-.252c-.025.063-.04.1-.044.114a.106.106 0 0 0-.008.033c0 .016.007.027.02.034a.156.156 0 0 0 .045.008v.018h-.189Zm.412-.246-.11-.263-.11.263h.22Zm.177-.386h.54l.005.162h-.023c-.011-.051-.025-.084-.042-.1-.018-.015-.054-.023-.11-.023h-.053v.49c0 .036.006.059.018.068.011.008.036.014.075.017v.018h-.278v-.018c.04-.003.065-.01.075-.02.01-.01.015-.036.015-.077v-.478h-.053c-.053 0-.09.008-.108.023-.02.015-.034.049-.043.1h-.024l.006-.162Zm.748.632v-.018a.078.078 0 0 0 .056-.028.76.76 0 0 0 .063-.129l.199-.468h.019l.238.541a.23.23 0 0 0 .038.067.09.09 0 0 0 .048.017v.018h-.243v-.018a.215.215 0 0 0 .054-.01c.008-.003.012-.011.012-.025a.265.265 0 0 0-.018-.062l-.038-.092h-.252c-.025.063-.04.1-.044.114a.104.104 0 0 0-.008.033c0 .016.007.027.02.034a.156.156 0 0 0 .046.008v.018h-.19Zm.412-.246-.11-.263-.11.263h.22Zm.727-.382a.45.45 0 0 0 .062.015c.013 0 .023-.002.029-.008a.063.063 0 0 0 .014-.022h.021l.008.2h-.022a.367.367 0 0 0-.06-.103.193.193 0 0 0-.148-.06.222.222 0 0 0-.161.07c-.047.047-.07.123-.07.23a.29.29 0 0 0 .07.206c.046.05.103.074.171.074a.297.297 0 0 0 .085-.013.13.13 0 0 0 .043-.02c.005-.005.008-.013.008-.024v-.152c0-.037-.005-.06-.016-.069-.01-.009-.033-.015-.068-.017v-.017h.243v.017c-.023.002-.039.006-.047.012-.013.01-.02.03-.02.062v.187c0 .012-.027.027-.082.045a.491.491 0 0 1-.158.028.352.352 0 0 1-.236-.081.301.301 0 0 1-.106-.242c0-.089.028-.165.085-.229a.313.313 0 0 1 .246-.104c.037 0 .073.005.109.015Zm.241.628v-.018a.078.078 0 0 0 .055-.028.76.76 0 0 0 .064-.129l.199-.468h.019l.238.541a.23.23 0 0 0 .038.067.09.09 0 0 0 .047.017v.018h-.242v-.018a.215.215 0 0 0 .053-.01c.009-.003.013-.011.013-.025a.265.265 0 0 0-.018-.062l-.038-.092h-.252c-.025.063-.04.1-.044.114a.104.104 0 0 0-.008.033c0 .016.007.027.02.034a.156.156 0 0 0 .045.008v.018h-.189Zm.411-.246-.109-.263-.11.263h.22Zm.28.228c.04-.003.064-.009.076-.017.011-.01.017-.032.017-.069v-.425c0-.035-.006-.058-.017-.068-.012-.01-.037-.016-.076-.018v-.017h.283v.017c-.039.002-.064.008-.076.018-.011.01-.017.033-.017.068v.425c0 .037.006.06.017.069.012.008.037.014.076.017v.018h-.283v-.018Zm.314 0c.04-.004.065-.013.076-.027.011-.014.017-.046.017-.096v-.42l-.014-.016a.105.105 0 0 0-.035-.03.138.138 0 0 0-.044-.008v-.017h.163l.368.457v-.318c0-.052-.007-.086-.023-.102-.01-.01-.033-.016-.068-.02v-.017h.224v.017c-.036.004-.06.013-.072.027-.013.014-.019.046-.019.096v.503h-.016l-.422-.524V3.5c0 .052.007.086.022.102.01.01.033.017.067.021v.018h-.224v-.018Z" fill="#fff"/></g><defs><clipPath id="a"><path fill="#fff" d="M0 0h20v20H0z"/></clipPath></defs></svg>