<svg width="20" height="20" fill="none" xmlns="http://www.w3.org/2000/svg"><circle cx="10" cy="10" r="10" fill="#178320"/><mask id="a" style="mask-type:alpha" maskUnits="userSpaceOnUse" x="0" y="3" width="20" height="15"><path d="M19.531 10.625c0 3.797-3.523 6.875-9.218 6.875C4.617 17.5.155 14.422.155 10.625S4.617 3.75 10.312 3.75c5.696 0 9.22 3.078 9.22 6.875Z" fill="#D9D9D9"/></mask><g mask="url(#a)"><path d="M17.2 13.711c.153.134.159.3.11.48-.033.126-.131.208-.201.31-.079.113-.167.22-.255.327a1.495 1.495 0 0 1-.59.423c-.258.109-.525.109-.8.082-.289-.027-.58-.057-.87.005-.087.02-.18.02-.27.023-.505.01-1.01.028-1.517.026-.452-.002-.905-.025-1.357-.044a.879.879 0 0 1-.243-.05 2.25 2.25 0 0 0-.584-.11c-.198-.014-.394-.058-.592-.084a2.36 2.36 0 0 1-.746-.214c-.236-.117-.47-.238-.707-.352-.19-.091-.388-.165-.574-.262-.275-.146-.542-.308-.815-.457-.122-.066-.251-.118-.378-.173-.258-.112-.483-.276-.707-.442-.07-.052-.14-.102-.205-.159-.192-.17-.194-.423-.07-.626.04-.066.097-.098.17-.088.14.021.285.038.421.077.394.113.783.24 1.177.354.199.058.402.102.604.144.375.08.752.153 1.127.23.28.057.559.122.84.172.303.053.608.093.912.138.313.045.626.094.94.132.152.019.308.014.463.023.334.02.669.042 1.004.064l.417.029c.23.015.459.044.688.042.373-.004.748-.006 1.118-.048.316-.037.635-.09.917-.263.208-.127.365-.302.506-.494.174-.238.319-.493.412-.775.037-.114.063-.232.094-.348l.02-.014c.08.155.18.305.234.469.068.21-.038.392-.17.549-.207.248-.42.49-.637.73l.114.174Z" fill="#A53410"/><path d="M16.854 15.114c.054.244.03.456-.062.67-.078.18-.206.322-.33.469-.037.046-.08.088-.128.141l-.237-.19c-.058-.049-.117-.096-.172-.148-.166-.154-.36-.156-.572-.132-.249.03-.46.155-.665.27-.24.134-.449.328-.664.504-.216.176-.423.363-.635.543-.031.027-.07.044-.106.065-.062.037-.127.069-.184.11-.057.042-.106.093-.165.146a.671.671 0 0 0-.293-.221.648.648 0 0 0-.592.073 1.44 1.44 0 0 0-.231.18c-.141.143-.162.325-.105.505.057.184.149.356.302.483.224.187.366.435.531.669.142.2.182.403.144.639-.018.114-.006.234 0 .35a.215.215 0 0 1-.065.173.864.864 0 0 0-.158.204c-.099.204-.288.274-.477.349-.132.052-.262.109-.397.151-.136.043-.274.088-.414.102-.229.023-.46.013-.689.03-.684.053-1.37.036-2.055.04-.158.001-.317.008-.473.027-.226.028-.45.069-.676.103a.605.605 0 0 1-.09.004c-.336 0-.677.032-1.008-.01-.259-.032-.519 0-.774-.053-.014-.003-.03-.001-.045-.003-.276-.023-.554-.037-.829-.072-.203-.026-.403-.08-.604-.122-.004 0-.007-.003-.01-.003-.368-.01-.698-.175-1.045-.264a2.285 2.285 0 0 1-.648-.26c-.149-.092-.32-.148-.478-.227a5.51 5.51 0 0 1-.423-.232c-.157-.096-.315-.192-.437-.335-.03-.034-.064-.063-.093-.097-.208-.24-.391-.49-.5-.796-.094-.262-.205-.518-.262-.79-.046-.22-.096-.443-.1-.666-.003-.242.044-.485.07-.727.012-.12.028-.238.04-.357.03-.295.078-.588.083-.883.005-.261.056-.515.08-.772.012-.137.055-.272.084-.407.008-.037.016-.073.021-.11l.101-.701c.02-.145.038-.29.06-.434.015-.107.035-.214.053-.32.02-.107.031-.216.06-.32.061-.22.131-.437.198-.655.038-.126.075-.252.118-.376.051-.152.102-.306.164-.454.094-.22.191-.44.298-.655.126-.253.265-.5.395-.75.077-.15.143-.306.22-.455.168-.32.307-.656.513-.956.044-.064.069-.141.105-.211.25-.477.499-.955.81-1.397.078-.111.14-.232.218-.343.074-.104.15-.208.239-.299.183-.19.363-.378.512-.598.095-.143.228-.26.34-.393.05-.06.102-.065.17-.04.212.078.425.152.638.228.025.009.051.027.075.024.13-.02.196.071.275.147.248.24.523.442.851.564.247.092.492.19.733.293.23.099.477.102.715.155.208.047.419.042.63.045.344.005.683-.039 1.02-.1.007 0 .014-.006.022-.006.291-.025.583-.055.876-.073.143-.008.283-.019.424-.056.104-.027.216-.026.324-.038.116-.013.232-.024.347-.038.063-.008.12-.01.156.058.157.287.319.571.471.86.03.058.03.134.043.201l-.032.017-.094-.084c-.13-.114-.24-.254-.412-.31a1.63 1.63 0 0 0-.262-.063 2.592 2.592 0 0 0-.336-.032c-.124-.002-.248.012-.371.014-.139.002-.278-.001-.416 0-.204.002-.407.007-.61.01l-.09.005c-.31.008-.62.019-.929.022-.31.003-.62.006-.93-.003-.192-.006-.37.047-.554.087-.366.082-.651.284-.894.56-.137.155-.286.3-.428.452a.559.559 0 0 0-.133.475c.024.18.165.266.364.216.116-.029.198 0 .302.043.312.131.607.305.94.384.217.051.382.19.54.339.068.065.134.135.211.187.083.056.177.096.27.138.092.041.187.078.282.112.082.029.166.05.248.076.214.069.427.144.644.207.143.041.291.07.438.098.374.068.748.136 1.13.12.246-.01.484-.055.71-.155.137-.06.272-.13.431-.12a.178.178 0 0 0 .123-.047c.063-.064.108-.03.155.012.076.07.078.173-.008.247-.094.08-.195.157-.3.22-.087.052-.188.08-.28.124-.16.079-.326.071-.497.048-.13-.018-.263-.022-.394-.026-.244-.01-.488.009-.732-.043-.201-.042-.412-.032-.618-.052-.251-.025-.5-.07-.751-.082-.233-.01-.444-.09-.65-.175a1.283 1.283 0 0 1-.472-.322c-.164-.18-.362-.328-.547-.49-.025-.021-.058-.034-.088-.05-.052-.024-.093-.015-.124.038-.035.058-.017.1.03.138.108.087.22.17.326.26.108.093.214.191.315.292.16.161.352.263.56.35.262.11.537.143.813.174.269.03.54.048.809.074.15.015.298.04.447.055.142.014.285.026.428.032.282.012.565.019.847.028.01 0 .02.009.04.02-.018.026-.031.05-.05.07-.095.107-.187.216-.29.315-.094.091-.202.17-.301.256-.198.171-.432.266-.68.34-.225.069-.444.16-.664.246-.178.07-.352.151-.552.137-.075-.005-.122.043-.12.103.003.061.045.087.128.094.253.02.467-.1.693-.182.218-.08.441-.149.66-.228.238-.086.46-.2.663-.357.299-.23.514-.54.787-.793a.861.861 0 0 1 .21-.147c.178-.085.336-.197.487-.323.184-.152.151-.49-.08-.6-.073-.036-.105-.083-.13-.162-.042-.144-.11-.28-.167-.42-.04-.097-.083-.193-.117-.292-.077-.227-.23-.393-.405-.548-.216-.193-.484-.29-.743-.399a2.823 2.823 0 0 1-.524-.308 2.643 2.643 0 0 0-.787-.384.618.618 0 0 0-.123-.022 4.528 4.528 0 0 0-1.082.016c-.285.045-.58.054-.858.123-.33.082-.667.17-.944.388-.173.138-.309.31-.427.496a.33.33 0 0 1-.24.15c-.053.009-.087-.01-.091-.07-.009-.12.005-.234.093-.326.157-.164.317-.323.468-.492a1.32 1.32 0 0 1 .625-.407c.253-.074.504-.152.774-.132.169.012.339.024.508.02.256-.006.511-.038.767-.038.236 0 .478-.044.709.03.254.083.5.189.754.27.345.112.598.342.832.603.078.086.174.156.259.236.242.227.493.446.719.688.162.174.224.406.251.642.002.015 0 .03.002.046.008.05.034.085.088.086.06 0 .099-.038.092-.092-.02-.152-.033-.309-.083-.452-.076-.22-.227-.394-.395-.557-.239-.231-.474-.465-.736-.671-.081-.064-.144-.153-.215-.23a1.786 1.786 0 0 0-.79-.489c-.07-.022-.138-.053-.207-.08l.002-.025c.027-.005.053-.013.079-.013.264 0 .529.001.793.004.265.002.462.135.631.325.07.079.156.143.23.218.144.149.301.29.421.456.076.104.11.248.132.38.026.15.017.307.025.462.002.033.002.073.02.096.022.028.066.058.096.054.026-.004.066-.053.066-.083.006-.297.029-.6-.097-.88-.047-.106-.136-.195-.211-.287-.076-.093-.162-.178-.237-.272-.016-.02-.016-.065-.006-.092.05-.137.023-.265-.024-.396-.086-.24-.24-.441-.361-.662l-.113-.21c.191-.031.37-.064.55-.088.17-.024.343-.04.515-.059.034-.004.067-.01.101-.01l1.437-.045.576-.021a.411.411 0 0 1 .277.08c.192.145.405.265.56.454.13.156.25.318.375.477l-.016.03c-.05 0-.1.003-.148 0-.158-.012-.315-.04-.473-.037-.376.008-.753.026-1.12.115-.13.032-.25.103-.371.165-.048.025-.077.082-.043.136.034.054.094.063.148.03.28-.173.594-.2.91-.223.176-.012.354-.027.53-.022.2.005.398.027.596.048a.933.933 0 0 1 .425.174c.134.09.268.181.398.278.059.043.107.1.16.152a3.722 3.722 0 0 1-.02.023c-.02-.01-.043-.017-.058-.033a1.114 1.114 0 0 0-.701-.33 11.2 11.2 0 0 0-1.317-.088c-.694.005-1.251.29-1.708.797-.045.05-.053.101-.006.15.052.053.103.032.146-.017.197-.224.43-.4.695-.537.232-.12.48-.179.739-.186.279-.007.56-.006.838.006.21.009.42.033.628.067.189.03.355.124.509.236.015.01.034.026.037.041.035.22.083.441.031.697-.055-.074-.095-.128-.134-.183l-.218-.317c-.108-.154-.277-.213-.446-.245a3.572 3.572 0 0 0-.672-.07c-.27 0-.54.038-.81.061a.213.213 0 0 0-.086.027c-.284.164-.574.32-.8.565-.042.044-.076.094-.115.14-.095.112-.183.23-.287.333a2.025 2.025 0 0 0-.405.555.78.78 0 0 0-.07.372c.01.16.152.213.288.246.156.039.314.076.473.103.122.02.246.033.37.036.438.014.876.033 1.313.03.282-.003.565-.038.832-.137a1.44 1.44 0 0 0 .569-.418l.18-.211.026.007c-.012.09-.006.186-.039.267-.13.33-.315.621-.643.788a.733.733 0 0 1-.272.062c-.124.01-.25.001-.374-.002-.063-.001-.115.014-.127.084-.009.053.047.099.126.1.195.002.39 0 .6 0-.093.11-.168.233-.324.252-.12.014-.24.018-.36.026-.027.001-.053-.002-.08-.001-.065.002-.113.037-.117.1-.004.066.047.098.112.1.098.002.197.007.295-.001.178-.014.353-.043.482-.186.07-.077.136-.158.215-.25.064.063.139.126.198.2.092.114.177.233.258.355.123.187.135.396.1.61-.063.386-.261.706-.487 1.017-.178.245-.397.43-.688.505-.242.063-.487.12-.744.12-.33 0-.662.037-.994.034-.273-.002-.547-.04-.82-.061-.14-.01-.279-.02-.418-.026-.346-.016-.693-.025-1.039-.047-.183-.012-.365-.048-.548-.071-.234-.03-.47-.052-.704-.088-.32-.05-.639-.1-.956-.165-.471-.094-.938-.214-1.412-.297a9.789 9.789 0 0 1-.838-.172c-.112-.03-.22-.079-.33-.114-.24-.075-.481-.152-.724-.217a4.924 4.924 0 0 0-.628-.137c-.293-.039-.422.076-.51.365-.049.157-.058.328.036.481.045.073.088.155.153.206.248.19.488.394.768.538.153.078.314.143.468.221.11.056.214.127.325.184.321.165.644.328.967.49.1.05.203.097.306.145.307.143.609.298.923.425.161.065.342.086.516.112.297.045.596.074.893.12.107.016.208.064.313.09.076.02.155.034.233.036.276.005.553-.014.828.008.414.033.828.055 1.243.039.444-.018.887-.057 1.33-.085.057-.004.114-.002.17 0 .11.006.218.015.327.02.154.008.309.02.463.02.288-.003.543-.109.78-.264.075-.05.146-.104.237-.169Zm-2.315-4.298c.148.005.297.017.446.012.112-.004.225-.019.333-.048.099-.027.132-.087.104-.144-.038-.075-.103-.06-.168-.045-.055.014-.11.032-.165.035a2.168 2.168 0 0 1-.87-.105c-.159-.057-.316-.118-.474-.179-.056-.022-.106-.016-.14.035-.034.052-.008.095.036.127.04.028.08.058.124.076.216.085.406.215.594.348a.798.798 0 0 1 .134.12c.122.138.245.277.36.42.09.111.17.23.255.344.027.036.05.077.084.106.05.043.117.015.124-.05a.207.207 0 0 0-.015-.11c-.039-.076-.078-.156-.133-.221-.207-.243-.42-.481-.63-.72ZM6.59 11.88l.004.022c.049 0 .098.002.147 0 .088-.005.121-.07.065-.137a.149.149 0 0 0-.104-.047c-.15.002-.3.01-.45.02-.25.017-.494.067-.712.195-.184.108-.339.251-.433.449-.032.068.017.152.086.14.037-.007.075-.048.097-.083.126-.204.3-.359.526-.42.253-.068.516-.095.774-.139Zm-.234-.82v-.006c-.098.011-.197.013-.291.035-.127.03-.252.07-.374.115-.06.023-.084.1-.057.153.034.066.093.063.145.033.19-.108.4-.124.61-.132a.229.229 0 0 0 .118-.031c.025-.018.048-.064.044-.092-.005-.028-.042-.063-.072-.072-.037-.013-.082-.004-.123-.004Z" fill="#178320"/><path d="M15.751 20.594c.01.035.024.07.031.105.036.18.145.305.318.344.257.057.519.095.783.04.04-.008.078-.025.123-.04.02.056.035.113.059.166a.374.374 0 0 0 .267.208.737.737 0 0 0 .578-.076c.068-.042.124-.105.184-.16.017-.014.03-.035.047-.048.14-.1.23-.244.334-.375.111-.137.23-.269.349-.4.034-.038.067-.072.052-.128-.015-.052-.078-.083-.126-.054a.546.546 0 0 0-.132.105c-.12.14-.231.287-.35.427-.122.143-.244.288-.375.422-.13.132-.454.16-.608.065-.068-.043-.145-.313-.098-.38.044-.065.103-.12.157-.176l.404-.425c.101-.107.201-.215.3-.323.02-.022.049-.046.051-.071.003-.034-.006-.083-.029-.101-.021-.017-.077-.017-.1 0-.052.036-.094.086-.137.132-.196.21-.384.427-.59.625-.11.106-.216.208-.29.343-.037.068-.116.089-.188.083-.217-.015-.433-.04-.65-.063a.11.11 0 0 1-.055-.03c-.1-.091-.123-.264-.075-.393.088-.24.242-.44.379-.651.13-.204.293-.36.5-.479a.212.212 0 0 0 .087-.086.141.141 0 0 0-.002-.112c-.025-.044-.076-.048-.12-.018-.187.127-.395.238-.52.43-.165.25-.375.474-.47.766-.031.093-.089.136-.18.138-.182.005-.357-.012-.517-.12a1.522 1.522 0 0 1-.422-.434.605.605 0 0 1-.079-.173c-.01-.04-.011-.098.01-.131.14-.223.257-.468.476-.626.114-.083.255-.128.377-.2.225-.13.453-.256.666-.404.216-.15.415-.323.62-.488.04-.033.087-.078.046-.134a.143.143 0 0 0-.102-.052c-.032 0-.067.031-.096.054l-.591.472c-.021.017-.047.028-.085.05.055-.124.1-.23.148-.332.009-.019.03-.032.047-.045.078-.063.078-.11.002-.17-.263-.202-.566-.26-.886-.233-.171.014-.3.13-.43.232-.209.162-.42.32-.633.475a.669.669 0 0 1-.423.133c-.173-.006-.344 0-.511-.07-.179-.073-.233-.274-.196-.43.047-.205.221-.262.376-.342a.083.083 0 0 1 .066.001c.13.068.265.125.352.256.038.06.037.106-.006.152-.056.06-.117.117-.18.172-.051.047-.068.105-.03.145.04.044.096.056.14.014.087-.082.174-.166.246-.26.09-.12.067-.247-.03-.349-.101-.107-.218-.2-.333-.303.24-.212.489-.44.748-.656.225-.186.481-.325.75-.434.268-.108.52-.102.739.123.088.092.195.165.292.248a.376.376 0 0 1 .07.074c.062.094.11.2.185.28.073.077.167.141.262.189.498.251.962.55 1.347.959.1.106.181.23.273.345.091.114.183.228.279.338.158.184.3.375.39.604.05.125.113.247.209.355.097.111.16.255.224.391.081.17.153.345.219.52.04.108.074.221.09.334.02.13-.05.235-.151.31-.23.169-.478.309-.736.428-.14.063-.29.104-.437.147a8.84 8.84 0 0 1-.567.15 2.643 2.643 0 0 1-.92.06c-.336-.046-.67-.018-1.003-.039-.194-.012-.387-.039-.58-.06-.023-.002-.046-.006-.068-.007-.374-.021-.727-.107-1.041-.321-.212-.144-.422-.29-.635-.43a10.824 10.824 0 0 0-.442-.271.383.383 0 0 1-.16-.18 1.61 1.61 0 0 1-.133-.76 5.15 5.15 0 0 0 .003-.352.605.605 0 0 0-.098-.342c-.107-.154-.202-.317-.31-.47a1.451 1.451 0 0 0-.205-.222c-.155-.143-.291-.3-.362-.5-.05-.142-.034-.282.092-.387.122-.102.245-.194.42-.191.192.003.436.197.448.412.017.292.18.435.433.517.092.03.191.039.288.048.054.006.075.023.092.076.055.166.087.333.09.51.001.183.09.34.211.475.155.17.325.324.513.459.119.085.22.194.328.295.22.207.477.324.783.32.044-.002.088-.01.14-.015Z" fill="#fff"/><path fill-rule="evenodd" clip-rule="evenodd" d="m16.745 6.86-.213-.049h-.047c-.034.002-.068.002-.102 0a4.677 4.677 0 0 1-.162-.016 2.409 2.409 0 0 0-.31-.02c-.376.007-.754.025-1.12.114-.11.027-.212.081-.313.135l-.058.03c-.048.025-.077.082-.043.136.034.054.094.063.148.03.28-.173.594-.2.91-.223l.038-.003c.164-.011.328-.023.492-.02.197.006.393.027.588.048l.008.001a.933.933 0 0 1 .425.174l.052.035c.116.08.233.159.346.243.04.03.075.066.11.103l.05.05-.02.022-.02-.01c-.014-.006-.028-.012-.039-.023a1.114 1.114 0 0 0-.7-.329 11.197 11.197 0 0 0-1.318-.089c-.693.005-1.25.29-1.707.797-.045.05-.054.102-.006.15.052.053.103.032.146-.017.197-.224.43-.4.694-.537.233-.12.481-.179.74-.186.279-.007.559-.006.838.006.21.009.42.033.628.067.189.03.354.124.508.236.015.01.035.026.038.041l.012.078c.032.195.065.393.019.62l-.05-.069a4.715 4.715 0 0 1-.192-.272l-.11-.16c-.108-.154-.277-.213-.446-.245a3.57 3.57 0 0 0-.672-.07c-.196 0-.391.02-.586.04l-.225.022a.213.213 0 0 0-.085.026l-.065.038c-.263.15-.527.301-.736.527-.024.026-.046.054-.068.082-.015.02-.03.04-.046.058l-.08.098a2.899 2.899 0 0 1-.207.235 2.026 2.026 0 0 0-.406.555.78.78 0 0 0-.069.372c.01.16.152.213.287.246.157.039.315.076.474.103.122.02.246.033.37.036l.248.009c.355.011.71.023 1.065.02.282-.002.565-.037.832-.136a1.44 1.44 0 0 0 .569-.418c.042-.047.083-.096.124-.145l.056-.066.025.007a1.418 1.418 0 0 0-.007.086.605.605 0 0 1-.031.182c-.13.329-.316.62-.643.787a.73.73 0 0 1-.272.062 2.562 2.562 0 0 1-.281.001l-.093-.003c-.063-.001-.116.014-.127.084-.009.053.046.099.125.1.139.002.277.001.42 0h.181l-.041.05c-.076.095-.15.186-.284.202-.087.01-.176.015-.265.02l-.095.006h-.043c-.012-.001-.024-.002-.036-.001-.066.002-.114.037-.117.1-.005.066.047.099.112.1l.06.001c.078.002.157.004.234-.002.178-.014.354-.043.483-.186.047-.053.093-.107.142-.165l.072-.085.061.058c.048.045.097.09.138.142.092.114.177.233.257.355.124.187.136.396.1.61-.062.386-.26.706-.487 1.017-.178.245-.396.43-.687.505-.242.063-.487.12-.744.12-.16 0-.319.008-.478.017-.172.009-.344.018-.516.017-.184-.002-.368-.02-.552-.037l-.269-.024c-.139-.01-.278-.02-.417-.026l-.357-.015c-.228-.009-.455-.017-.682-.032-.12-.008-.24-.026-.36-.044a8.089 8.089 0 0 0-.439-.057c-.151-.018-.303-.035-.453-.058-.32-.05-.64-.1-.956-.164-.19-.039-.378-.08-.567-.123-.28-.063-.562-.125-.845-.175a9.828 9.828 0 0 1-.838-.172c-.064-.017-.127-.04-.189-.063a2.677 2.677 0 0 0-.251-.085 15.027 15.027 0 0 0-.615-.183 4.941 4.941 0 0 0-.627-.137c-.294-.039-.422.076-.51.365-.05.157-.058.328.036.481l.006.01.014.023c.038.064.078.13.133.173l.119.092c.206.162.414.325.649.446.08.04.162.078.244.116.075.034.15.068.224.105.057.029.112.062.168.095.051.03.103.061.156.089.322.165.644.328.967.49.074.037.149.072.223.106l.083.039c.09.041.178.084.267.126.217.105.434.21.657.299.142.057.3.08.454.103l.02.003.042.006c.146.022.293.04.44.059.151.019.302.037.453.06.062.01.123.03.184.052.043.014.085.029.13.04.075.018.154.033.232.035.101.002.203 0 .305-.001a5.65 5.65 0 0 1 .522.009c.415.033.83.055 1.244.039.297-.012.595-.033.892-.055l.438-.03c.056-.004.113-.002.17 0l.168.01c.053.004.106.008.159.01l.119.007c.114.007.23.013.344.013.288-.002.543-.109.78-.264.05-.033.099-.069.152-.108l.033-.024.051-.037c.054.244.03.456-.061.67-.07.161-.18.29-.29.421l-.04.048c-.025.03-.052.06-.082.092l-.046.05-.073-.06c-.055-.044-.11-.087-.164-.132l-.01-.008a3.52 3.52 0 0 1-.162-.139c-.166-.154-.36-.156-.572-.132-.235.028-.435.14-.63.25l-.036.02c-.188.105-.356.247-.523.388l-.14.116c-.135.11-.266.224-.397.338l-.239.205a.423.423 0 0 1-.072.047.96.96 0 0 0-.034.018l-.058.034c-.043.024-.086.048-.126.077a1.163 1.163 0 0 0-.111.096l-.053.05a.671.671 0 0 0-.293-.222.648.648 0 0 0-.593.073 1.446 1.446 0 0 0-.23.18c-.141.143-.162.325-.106.505.058.184.15.357.303.483.176.147.301.332.427.517l.104.152c.142.2.181.403.144.639-.015.095-.01.195-.004.293l.004.058a.215.215 0 0 1-.065.172.864.864 0 0 0-.158.204c-.097.199-.279.27-.463.343l-.014.006-.101.04c-.098.04-.196.08-.296.111l-.014.005c-.132.041-.265.084-.4.097a4.868 4.868 0 0 1-.373.018c-.106.002-.211.004-.316.012-.527.04-1.054.04-1.582.04h-.474a4.166 4.166 0 0 0-.472.027 11.13 11.13 0 0 0-.452.067l-.224.036c-.03.004-.06.004-.09.004-.1 0-.202.003-.302.006-.237.007-.474.013-.706-.015a3.127 3.127 0 0 0-.334-.018 2.336 2.336 0 0 1-.44-.036.143.143 0 0 0-.028-.002H5.37l-.248-.02c-.194-.014-.388-.028-.581-.053a4.54 4.54 0 0 1-.42-.081 10.804 10.804 0 0 0-.189-.042l-.006-.002c-.246-.007-.474-.083-.703-.16-.113-.037-.226-.075-.342-.104a2.285 2.285 0 0 1-.647-.26 2.194 2.194 0 0 0-.292-.142 3.585 3.585 0 0 1-.186-.085 5.539 5.539 0 0 1-.424-.232l-.01-.006c-.153-.095-.307-.19-.427-.329a.912.912 0 0 0-.047-.049l-.046-.048c-.207-.24-.39-.49-.5-.796l-.07-.192c-.074-.196-.148-.393-.191-.598l-.007-.032c-.044-.209-.09-.422-.093-.634-.002-.17.02-.341.043-.512a8.43 8.43 0 0 0 .046-.383l.02-.19.03-.257c.025-.208.05-.416.054-.625.003-.165.024-.326.045-.487.013-.095.025-.19.034-.285.008-.094.031-.186.054-.278.011-.043.022-.086.031-.13v-.001c.008-.036.016-.072.021-.108.034-.233.068-.467.1-.701.01-.061.018-.123.026-.184.01-.084.022-.167.034-.25l-.18-.088c-.018.118-.03.236-.043.354l-.023.213c-.011.086-.026.172-.042.257l-.001.008-.022.107-.03.156c-.037.256-.072.512-.106.768-.016.12-.029.24-.042.36a6.758 6.758 0 0 0-.033.321l-.033.452-.008.108-.002.038c-.001.021-.002.043-.005.063l-.028.212-.025.187c-.003.02-.004.04-.006.062a1.23 1.23 0 0 1-.006.06c-.008.068-.019.134-.03.201-.023.149-.046.297-.05.446-.003.197.03.397.066.591.049.27.111.537.22.79l.064.157c.047.118.095.236.153.348.067.13.155.248.242.365.18.242.374.467.644.62.064.037.126.075.189.113.158.097.317.193.494.258.115.042.235.087.334.157.141.102.301.154.46.205l.15.05c.195.071.397.128.598.185l.253.073.031.01a.65.65 0 0 0 .098.025l.425.061.275.04.227.034c.145.022.29.045.437.063.112.014.226.02.34.025l.053.003.127.006c.18.01.359.019.538.021a44.04 44.04 0 0 0 1.01.001h.002c.037 0 .074 0 .11-.005l.219-.03c.145-.022.29-.044.436-.056.259-.02.519-.03.778-.034.373-.008.745-.014 1.117-.02.326-.004.651-.01.977-.016.116-.002.233-.008.347-.03a3.39 3.39 0 0 0 .47-.114c.147-.05.29-.111.433-.173h.001l.104-.045a.723.723 0 0 0 .334-.26c.048-.072.097-.144.15-.212.018-.023.053-.052.075-.048.024.004.047.04.061.067a.306.306 0 0 1 .02.056.278.278 0 0 0 .023.06l.03.055a.57.57 0 0 0 .116.168c.06.052.131.092.202.132.034.02.069.039.102.06a16.602 16.602 0 0 1 .584.381c.146.101.293.202.445.292.177.105.366.192.578.213.089.008.177.02.265.033.06.01.12.018.181.025l.103.013c.138.017.274.034.412.044.207.014.415.02.623.026l.053.002.145.004c.208.007.416.014.625.01.156-.002.315-.02.47-.049.176-.033.35-.082.524-.134l.128-.037c.17-.048.341-.097.5-.17.212-.096.411-.22.61-.342l.046-.03a.903.903 0 0 0 .233-.205c.157-.201.104-.417.018-.629l-.043-.105a3.456 3.456 0 0 0-.134-.31c-.07-.136-.147-.268-.223-.4l-.097-.17-.013-.023-.042-.073c-.04-.069-.079-.138-.117-.208a3 3 0 0 1-.068-.135c-.044-.09-.087-.181-.147-.26a21.763 21.763 0 0 0-.756-.944 3.022 3.022 0 0 0-.41-.39 5.356 5.356 0 0 0-1.043-.65c-.126-.06-.202-.165-.277-.273-.062-.09-.052-.113.019-.197l.09-.105c.089-.102.178-.204.252-.316.202-.306.286-.638.157-.997a.156.156 0 0 1 .028-.167l.152-.195c.06-.078.12-.156.182-.233a.643.643 0 0 0-.002-.83c-.02-.024-.026-.084-.01-.108h.001c.078-.115.157-.231.253-.332l.064-.067c.136-.14.27-.28.358-.46.053-.111.1-.233.06-.349-.096-.27-.209-.535-.437-.729a.165.165 0 0 1-.052-.08 1.459 1.459 0 0 0-.335-.606c-.069-.08-.142-.156-.215-.232a16.262 16.262 0 0 1-.07-.073c-.057-.06-.057-.112-.007-.165l.03-.032c.088-.093.177-.186.257-.286a1.34 1.34 0 0 0 .292-.746l.003-.044a1.272 1.272 0 0 0-.007-.351c-.02-.191-.04-.381-.01-.574.012-.087.012-.175.011-.263v-.054a.676.676 0 0 0-.01-.105l-.008-.047c.197-.035.256-.158.164-.327a.597.597 0 0 0-.108-.144c-.206-.197-.45-.339-.695-.48l-.049-.028-.005-.003a.212.212 0 0 1-.079-.064Zm.008-3.687.003.024ZM4.492 4.925c.04-.041.081-.084.121-.128l.109.123c-.042.05-.086.096-.13.143-.075.08-.15.16-.21.25-.149.22-.33.409-.512.598a2.507 2.507 0 0 0-.239.3c-.039.054-.074.112-.11.17-.034.058-.07.116-.108.172-.302.429-.545.892-.788 1.355l-.022.042a1.32 1.32 0 0 0-.038.081.788.788 0 0 1-.067.13c-.146.212-.258.442-.37.671-.047.096-.093.191-.142.285-.04.077-.077.155-.114.233-.035.074-.07.149-.108.222-.054.105-.11.208-.165.312-.078.145-.156.29-.23.438a10.43 10.43 0 0 0-.213.46l-.14-.098a18.984 18.984 0 0 1 .38-.774c.073-.147.15-.292.226-.437.113-.214.226-.428.329-.647.12-.256.256-.5.402-.742.05-.083.089-.172.128-.26.03-.067.059-.133.092-.197.09-.17.187-.335.286-.499a33.093 33.093 0 0 1 .413-.659l.055-.088c.053-.086.106-.172.165-.253a3.773 3.773 0 0 1 .358-.43c.144-.152.288-.304.4-.486.066-.104.153-.194.242-.287Zm7.968 2.236-.03-.026c-.022-.02-.043-.04-.065-.058a2.752 2.752 0 0 1-.091-.086c-.095-.09-.19-.182-.32-.225a1.629 1.629 0 0 0-.262-.062 2.592 2.592 0 0 0-.337-.032 2.89 2.89 0 0 0-.217.007c-.051.003-.102.006-.154.007a9.395 9.395 0 0 1-.227 0h-.189l-.486.008-.124.003c-.015 0-.03 0-.046.002l-.044.002-.268.007c-.22.006-.44.013-.66.015-.31.003-.62.006-.93-.003a1.76 1.76 0 0 0-.459.065 8.347 8.347 0 0 1-.095.022c-.366.082-.651.284-.895.56-.083.094-.17.184-.257.274l-.17.178A.559.559 0 0 0 6 8.294c.025.18.166.266.364.216.117-.029.198 0 .303.043.096.04.191.085.286.13.212.1.424.2.654.254.216.051.382.19.54.339l.043.043c.054.051.107.103.168.144.078.052.165.091.251.13l.018.008a3.815 3.815 0 0 0 .43.158l.1.03.213.07c.144.047.287.095.431.137.144.041.292.07.44.098.373.068.747.137 1.13.12.245-.01.482-.055.71-.155l.037-.017c.124-.056.249-.112.393-.102a.178.178 0 0 0 .123-.048c.063-.064.108-.03.154.012.077.07.079.173-.008.247-.094.081-.194.157-.3.22a1.1 1.1 0 0 1-.164.075c-.039.016-.077.031-.115.05-.16.077-.326.07-.497.047-.117-.017-.237-.02-.356-.025l-.038-.001c-.068-.003-.136-.003-.204-.004-.176 0-.352-.002-.528-.039a2.4 2.4 0 0 0-.39-.038 4.22 4.22 0 0 1-.515-.048c-.155-.02-.31-.04-.465-.048-.232-.01-.443-.09-.65-.175a1.284 1.284 0 0 1-.471-.322c-.12-.13-.256-.244-.392-.358a10.429 10.429 0 0 1-.155-.131c-.02-.018-.047-.03-.072-.042l-.008-.004a1.386 1.386 0 0 1-.009-.004c-.052-.025-.092-.016-.124.037-.034.058-.017.101.03.138l.112.087a5.571 5.571 0 0 1 .53.465c.16.161.352.263.56.35.262.11.536.143.813.174.155.017.311.03.467.044l.341.03c.076.008.152.018.228.028a7.376 7.376 0 0 0 .647.06c.18.007.361.012.542.018h.001l.305.009c.006 0 .012.004.021.009a.284.284 0 0 0 .02.01.85.85 0 0 0-.018.026c-.01.016-.02.032-.033.046l-.072.08c-.071.08-.142.16-.218.234-.058.056-.12.107-.183.157-.04.033-.08.065-.118.099-.198.172-.432.266-.68.34-.19.058-.374.131-.559.204l-.105.042-.06.023c-.157.064-.314.127-.492.114-.075-.005-.122.043-.12.103.003.061.044.087.128.094.2.016.375-.055.55-.127.048-.019.095-.038.143-.055.112-.041.225-.08.338-.117.107-.036.215-.072.322-.11.238-.087.46-.2.663-.357.175-.136.322-.298.468-.46.103-.115.206-.229.319-.334a.866.866 0 0 1 .21-.147 2.33 2.33 0 0 0 .487-.323c.183-.152.151-.49-.08-.6-.073-.036-.106-.083-.13-.162-.03-.1-.071-.196-.113-.292a6.097 6.097 0 0 1-.088-.208 3.22 3.22 0 0 1-.083-.212c-.077-.227-.231-.393-.405-.548-.19-.17-.42-.265-.648-.36-.032-.012-.064-.026-.095-.039a2.823 2.823 0 0 1-.524-.308 2.643 2.643 0 0 0-.788-.384.618.618 0 0 0-.122-.022 4.528 4.528 0 0 0-1.082.016c-.107.017-.216.029-.324.04-.18.02-.36.04-.535.083-.33.082-.666.17-.943.388-.173.138-.309.31-.427.496a.33.33 0 0 1-.24.15c-.054.009-.088-.01-.092-.07-.008-.12.005-.234.094-.326l.135-.14c.112-.116.225-.231.333-.352a1.32 1.32 0 0 1 .625-.407l.038-.011c.24-.07.48-.14.735-.121.17.012.34.024.509.02.114-.003.228-.01.342-.018.141-.01.283-.02.425-.02.063 0 .127-.003.191-.006.174-.009.349-.018.518.037.126.04.25.088.375.134.126.048.252.095.379.136.345.111.597.34.832.602.048.054.104.1.159.148l.1.088.202.188c.177.162.354.325.517.5.161.174.224.406.251.642a.17.17 0 0 1 .001.022l.001.024c.008.05.034.085.088.086.06 0 .099-.038.091-.092a7.62 7.62 0 0 1-.01-.086c-.016-.124-.032-.25-.072-.366-.076-.22-.227-.394-.396-.557l-.068-.066a8.715 8.715 0 0 0-.667-.605c-.056-.044-.103-.1-.15-.155a1.785 1.785 0 0 0-.854-.563c-.049-.016-.096-.035-.143-.055a3.933 3.933 0 0 0-.065-.026l.002-.025.025-.005a.245.245 0 0 1 .053-.008c.265 0 .53.001.794.004.265.002.461.135.631.325.04.044.083.083.127.123.035.03.07.062.102.095l.11.11c.11.11.222.22.312.346.075.104.11.248.132.38.017.1.02.205.02.31.002.05.002.101.005.152v.011c.002.031.004.065.02.085.022.028.066.058.095.054.027-.004.067-.053.067-.083l.002-.094c.007-.267.013-.536-.099-.786a.968.968 0 0 0-.159-.225l-.053-.062a3.518 3.518 0 0 0-.113-.13 3.21 3.21 0 0 1-.123-.142l-.201-.192ZM10.94 5.58Zm7.108.186.028.003ZM15.75 20.594a1.719 1.719 0 0 0-.049.006c-.032.004-.062.008-.091.008a1.085 1.085 0 0 1-.783-.32 6.806 6.806 0 0 1-.083-.078c-.078-.077-.157-.153-.245-.216a3.21 3.21 0 0 1-.513-.46c-.12-.133-.21-.29-.212-.475a1.667 1.667 0 0 0-.089-.51c-.017-.052-.038-.07-.092-.075-.097-.009-.196-.019-.288-.048-.253-.082-.416-.225-.433-.517-.012-.215-.256-.41-.448-.412-.176-.003-.298.09-.42.191-.126.105-.142.245-.092.388.07.2.207.356.362.499.074.068.146.14.204.222.06.083.114.168.169.254.046.073.093.145.142.216.072.105.095.22.098.342a5.15 5.15 0 0 1-.003.351c-.011.264.02.518.133.761.037.08.086.137.16.18.149.088.297.176.442.271.165.109.328.22.491.332l.143.098c.315.214.668.3 1.042.32l.042.005.025.003.18.02c.133.016.267.032.401.04.133.009.266.01.399.01.2 0 .402.001.604.029.304.041.617.006.92-.06.19-.043.38-.095.567-.15l.044-.012c.133-.039.267-.078.392-.135a4.16 4.16 0 0 0 .737-.429c.1-.074.17-.178.151-.308a1.63 1.63 0 0 0-.09-.334 6.713 6.713 0 0 0-.219-.52l-.02-.042a1.456 1.456 0 0 0-.204-.35 1.183 1.183 0 0 1-.209-.355 2.12 2.12 0 0 0-.39-.603c-.096-.111-.188-.225-.28-.34-.032-.04-.063-.082-.095-.124-.056-.076-.113-.152-.177-.22-.385-.409-.849-.708-1.347-.959a.948.948 0 0 1-.262-.189.995.995 0 0 1-.125-.18c-.02-.034-.039-.068-.06-.1a.376.376 0 0 0-.07-.073 3.634 3.634 0 0 0-.103-.084c-.066-.052-.131-.105-.19-.165-.218-.225-.47-.231-.737-.123-.27.11-.526.248-.75.434-.183.15-.36.308-.531.462l-.219.194.107.093c.08.069.157.136.227.21.096.102.12.23.03.348a2.212 2.212 0 0 1-.245.261c-.045.043-.1.03-.142-.014-.037-.04-.02-.098.032-.145.061-.055.122-.112.179-.172.043-.046.044-.093.005-.152-.075-.115-.19-.173-.303-.231a10.748 10.748 0 0 1-.048-.024.083.083 0 0 0-.066-.002l-.064.032c-.136.067-.271.133-.312.31-.037.156.017.357.196.43.145.06.293.064.444.068.022 0 .044 0 .067.002a.668.668 0 0 0 .423-.133c.214-.154.424-.313.632-.475l.024-.018.02-.015c.116-.093.234-.186.387-.2.32-.026.623.032.886.234.076.06.076.107-.002.17l-.01.008c-.015.01-.03.022-.037.037-.035.076-.07.153-.107.238l-.041.094.036-.02c.02-.01.035-.02.049-.03l.267-.213.324-.259.01-.007c.026-.022.057-.047.086-.047.035 0 .081.023.102.052.04.056-.006.101-.046.134l-.147.12c-.154.127-.31.254-.473.368a7.602 7.602 0 0 1-.555.34l-.11.065c-.05.029-.104.053-.157.078a1.338 1.338 0 0 0-.22.12c-.178.129-.288.313-.397.496l-.08.13c-.021.034-.02.091-.01.132.017.06.044.12.079.174.113.17.249.317.421.433.161.108.336.125.519.12.09-.002.148-.045.178-.138.069-.21.196-.384.324-.558.05-.07.1-.138.146-.209.103-.156.26-.259.417-.36l.104-.07c.044-.029.095-.025.12.019.016.03.017.08.002.112a.212.212 0 0 1-.087.086 1.42 1.42 0 0 0-.5.479c-.03.047-.062.093-.093.14-.109.162-.218.324-.287.511-.047.13-.025.302.075.394a.109.109 0 0 0 .056.03l.078.008c.19.02.381.04.572.054.072.006.15-.015.188-.083.074-.135.18-.237.29-.343.142-.137.276-.283.41-.43l.18-.195.025-.027a.71.71 0 0 1 .111-.105c.024-.017.08-.017.101 0 .023.018.032.067.029.1-.002.021-.021.04-.039.06a31.643 31.643 0 0 1-.312.336l-.21.22-.194.204-.038.039a1.093 1.093 0 0 0-.12.137c-.046.067.03.337.1.38.153.095.476.067.607-.065.122-.125.236-.259.349-.392l.025-.03c.058-.068.114-.137.17-.207.06-.074.12-.148.181-.22a.542.542 0 0 1 .132-.105c.048-.03.11.002.125.054.016.054-.015.088-.048.124l-.003.004-.016.018a9.284 9.284 0 0 0-.333.382 3.91 3.91 0 0 0-.075.097 1.225 1.225 0 0 1-.259.278.152.152 0 0 0-.027.027.215.215 0 0 1-.02.022 2.174 2.174 0 0 0-.052.049c-.042.04-.084.08-.133.11a.738.738 0 0 1-.577.076.374.374 0 0 1-.267-.208c-.017-.036-.029-.075-.042-.113-.005-.017-.01-.035-.017-.052l-.042.014a.632.632 0 0 1-.081.025c-.264.055-.526.017-.783-.04-.174-.039-.282-.164-.318-.344a.683.683 0 0 0-.031-.105Zm1.909-8.805-.021.014c-.01.036-.02.073-.028.11-.02.08-.04.16-.067.238a2.78 2.78 0 0 1-.412.775c-.14.192-.297.367-.505.494-.282.173-.601.226-.917.262-.364.042-.733.045-1.1.049h-.018a5.16 5.16 0 0 1-.48-.026l-.208-.016a30.75 30.75 0 0 1-.192-.013l-.226-.016-.167-.01c-.279-.02-.558-.037-.837-.054-.058-.004-.116-.005-.175-.006-.096-.003-.193-.005-.288-.017-.243-.029-.485-.065-.727-.101a71.982 71.982 0 0 0-.442-.064c-.228-.033-.456-.065-.682-.105-.186-.033-.371-.073-.556-.112l-.284-.06-.408-.083c-.24-.048-.48-.096-.719-.147a8.526 8.526 0 0 1-.604-.144c-.193-.055-.384-.114-.576-.173-.2-.062-.4-.123-.6-.18a2.6 2.6 0 0 0-.356-.068 13.88 13.88 0 0 1-.067-.01c-.072-.01-.13.022-.17.088-.123.203-.121.456.07.626.052.046.108.087.164.128l.042.03c.223.167.449.331.706.443l.079.034c.101.043.203.086.3.139.121.066.241.135.36.203.151.087.302.173.455.254.108.057.22.105.334.154.08.035.16.07.24.108.146.07.29.143.435.216l.272.136c.236.117.487.18.746.214.074.01.147.022.22.034.124.02.248.041.372.05.2.013.394.046.584.11a.878.878 0 0 0 .243.05l.224.01c.378.016.756.032 1.133.034.379.002.757-.008 1.135-.017l.383-.01h.005c.088-.001.179-.003.265-.022.283-.06.568-.033.85-.006l.018.001c.275.027.543.027.8-.082.228-.097.432-.23.591-.423l.019-.023c.081-.1.163-.2.236-.305.02-.03.045-.06.069-.088.054-.067.11-.133.132-.22.049-.182.043-.347-.11-.48l-.153.128c-.117.098-.235.197-.35.3a.93.93 0 0 1-.544.249 22.27 22.27 0 0 1-1.48.069c-.063 0-.137-.006-.211-.011-.072-.006-.144-.011-.205-.011-.122 0-.24.002-.357.005-.465.007-.902.015-1.418-.07a8.65 8.65 0 0 1-1.079-.184c-.292-.075-.585-.144-.89-.141a18.83 18.83 0 0 1-.61-.009l-.081-.002a1.373 1.373 0 0 1-.19-.02 41.597 41.597 0 0 1-.638-.11c-.069-.011-.138-.022-.204-.045-.18-.06-.358-.124-.536-.188l-.335-.12a10.808 10.808 0 0 0-.46-.153l-.15-.042c-.193-.052-.386-.104-.548-.233l-.017-.013c-.098-.077-.195-.154-.286-.239-.016-.014-.019-.043-.022-.072 0-.013-.002-.026-.005-.038a.49.49 0 0 0 .038-.008c.03-.007.059-.014.086-.01.028.006.053.024.079.043l.028.019.133.088c.099.067.198.134.305.187.065.033.138.05.212.067.045.01.09.02.133.034l.076.024c.29.094.58.187.867.288.06.021.118.044.176.068.162.064.323.128.5.142.065.005.129.019.192.033.044.01.087.019.13.025l.098.016c.131.021.262.042.393.05.147.01.295.011.442.014l.282.006c.264.009.518.068.774.128l.113.026c.205.047.412.087.62.12.1.015.202.022.303.029l.125.009.26.022c.22.02.442.039.663.05.088.004.176-.002.264-.007.077-.006.155-.01.232-.009.103.002.205.01.307.018.123.01.246.019.37.018.175 0 .352-.01.528-.02l.25-.014c.211-.01.423-.019.634-.027a.785.785 0 0 0 .58-.256c.053-.06.116-.11.178-.161l.067-.056.079-.062a.972.972 0 0 0 .138-.118c.216-.24.43-.483.637-.731.132-.157.238-.34.17-.55a1.87 1.87 0 0 0-.156-.326 4.479 4.479 0 0 1-.077-.142Zm-6.09-7.16-.237.03.237-.03Zm-.28 3.505.004-.03-.027-.014-.06-.03-.1-.048a2.335 2.335 0 0 1-.222-.114c-.078-.048-.153-.1-.228-.151-.068-.047-.136-.094-.205-.137a1.646 1.646 0 0 0-.86-.273 7.588 7.588 0 0 0-1.025.055c-.38.047-.75.117-1.107.252a1.93 1.93 0 0 0-.277.126c-.225.13-.37.336-.51.546.11.113.235.138.36.08a.686.686 0 0 1 .18-.06l.13-.02a13.406 13.406 0 0 1 1.813-.16c.206-.003.412.003.618.01.182.005.365.01.547.01.224-.002.448-.015.671-.027l.297-.015Zm1.242 1.613a1.696 1.696 0 0 1-.011-.076.52.52 0 0 0-.025-.118 8.673 8.673 0 0 0-.098-.244c-.05-.12-.099-.24-.14-.362a1.199 1.199 0 0 0-.42-.56.268.268 0 0 0-.141-.052 4.424 4.424 0 0 0-.427-.008c-.137.005-.274.015-.416.025l-.191.013c.112.103.203.206.221.346.043.329.034.654-.11.962-.03.065-.067.128-.105.193-.018.03-.036.06-.053.092l.07.01.136.017c.408.051.81.055 1.197-.117l.043-.019c.139-.063.282-.128.47-.102Zm4.798-.882.036-.025a.77.77 0 0 1-.017-.051.352.352 0 0 0-.044-.106c-.06-.083-.122-.164-.184-.245a8.228 8.228 0 0 1-.247-.334.383.383 0 0 0-.243-.17 5.465 5.465 0 0 0-.691-.096 2.886 2.886 0 0 0-.367.01c-.077.005-.154.01-.231.011-.26.005-.454.142-.658.285l-.052.037.02.009a.057.057 0 0 0 .02.008l.336.02c.305.017.61.035.917.047.218.009.409.088.597.187a48.83 48.83 0 0 0 .808.413ZM15.979 9.89l.092-.012.155-.021a1.04 1.04 0 0 0 .573-.243c.132-.12.255-.25.378-.38l.05-.053c.064-.067.05-.123-.031-.17a.787.787 0 0 0-.1-.048 3.96 3.96 0 0 1-.706-.347.96.96 0 0 0-.43-.147c.328.469.41.93.019 1.421Zm-.47 7.762-.017-.028-.048-.001c-.035-.002-.07-.003-.104.002-.145.02-.253.106-.361.192l-.074.056c-.066.05-.13.102-.196.153-.248.198-.495.395-.813.463l.09.663.032.009.187-.174c.142-.13.283-.262.423-.395l.053-.05c.206-.195.411-.39.61-.594.058-.06.105-.13.153-.2.021-.033.043-.065.066-.096Zm-1.099 2.035.03-.011a.498.498 0 0 1 .11-.345c.027-.04.051-.08.076-.122.033-.056.066-.112.106-.163.133-.168.274-.327.49-.403a.573.573 0 0 0 .322-.25.82.82 0 0 1 .106-.135c.024-.027.05-.055.072-.084.052-.068.105-.138.145-.213.086-.163.059-.247-.116-.275-.005 0-.01 0-.014.002h-.004l-.098.13c-.074.098-.148.197-.228.29-.065.077-.14.147-.213.217-.023.02-.045.041-.067.063l-.124.119c-.203.195-.406.39-.612.582-.065.06-.135.116-.209.174l-.107.085.335.339ZM8.603 8.366l-.164.014c-.432.039-.85.076-1.28.169l.03.018a.18.18 0 0 0 .032.018l.189.071a28.16 28.16 0 0 1 .317.12c.167.062.335.125.458.266.002.002.008 0 .014-.001l.01-.002c.035-.263.2-.452.38-.657l.014-.016Zm1.442.999c.26 0 .394-.12.396-.352 0-.114-.058-.184-.164-.224-.142-.054-.263-.006-.38.066-.106.064-.163.205-.135.309.037.129.137.2.283.2Zm3.949.465c-.142-.398-.005-.751.107-1.04-.018.015-.041.032-.066.05a1.172 1.172 0 0 0-.265.254c-.117.14-.235.282-.25.481-.008.107.004.137.11.164l.239.06.125.03Zm1.85-.664c0-.183-.076-.244-.316-.255-.087-.004-.187.147-.184.277.003.163.094.24.283.241.149 0 .217-.082.217-.263ZM9.02 8.82c.103.001.17-.057.173-.15.002-.074-.079-.156-.157-.16-.078-.002-.169.085-.17.166-.003.074.071.143.154.144Zm.24.388c.001-.091-.043-.144-.12-.145-.076 0-.167.08-.171.151-.005.081.06.144.151.144.088.001.14-.054.14-.15Zm5.526-.378c0-.07-.072-.151-.138-.153-.068-.002-.146.092-.145.174 0 .069.07.14.136.14.064-.002.147-.091.147-.16Zm.01.616c0-.09-.022-.112-.112-.113-.095-.001-.14.037-.14.119 0 .07.057.127.128.128.086 0 .125-.04.124-.134Z" fill="#030302"/><path d="M11.29 8.134c-.323.014-.646.04-.969.041-.388.003-.777-.025-1.165-.019-.358.007-.715.033-1.071.065-.292.027-.582.072-.872.114a.685.685 0 0 0-.18.062c-.125.057-.25.032-.36-.08.14-.21.284-.418.51-.547.088-.05.182-.09.277-.125a4.697 4.697 0 0 1 1.107-.253c.342-.042.682-.06 1.024-.055.315.004.598.109.86.273.147.092.286.197.434.288.102.062.214.109.322.162l.087.043-.005.03Z" fill="#178320"/><path d="M12.531 9.747c-.207-.028-.36.053-.512.121-.387.172-.79.168-1.197.117l-.207-.027c.056-.1.114-.19.159-.285.143-.308.153-.633.11-.962-.019-.14-.11-.243-.222-.346.214-.014.41-.03.608-.038.142-.005.284-.001.426.008a.269.269 0 0 1 .142.052c.189.148.339.325.419.56.07.205.162.403.24.606.02.053.02.113.034.194Z" fill="#fff"/><path d="M17.33 8.865c-.27-.137-.54-.273-.808-.413-.188-.099-.378-.178-.597-.187-.417-.016-.835-.044-1.252-.067-.01 0-.018-.008-.04-.017.223-.155.428-.317.71-.322.199-.003.4-.033.597-.021.232.014.463.052.691.095.098.019.18.079.243.17.137.199.29.385.431.58.032.044.042.104.061.157l-.036.025Z" fill="#178320"/><path d="M15.98 9.89c.391-.493.308-.953-.02-1.422a.96.96 0 0 1 .43.147c.222.144.462.25.706.347a.78.78 0 0 1 .1.048c.082.047.096.103.032.17-.14.147-.278.297-.429.433a1.04 1.04 0 0 1-.572.243l-.248.033ZM8.604 8.366c-.185.21-.358.403-.394.673-.01.001-.022.006-.024.003-.14-.16-.335-.218-.523-.29-.147-.057-.295-.11-.442-.167-.015-.005-.028-.016-.062-.036.484-.104.953-.138 1.445-.183ZM10.045 9.365c-.146 0-.246-.072-.283-.201-.029-.104.029-.245.135-.31.117-.07.238-.12.38-.065.106.04.164.11.164.224-.002.232-.137.352-.396.352ZM13.994 9.83l-.363-.09c-.107-.028-.118-.058-.11-.165.016-.228.17-.382.3-.543.088-.109.214-.187.28-.243-.112.29-.249.643-.107 1.04ZM15.844 9.166c0 .18-.068.263-.217.263-.189 0-.28-.078-.283-.24-.003-.131.097-.282.184-.278.24.011.316.072.316.255ZM9.02 8.82c-.083-.001-.157-.07-.155-.144.002-.081.093-.168.172-.165.078.003.158.085.156.16-.002.092-.07.15-.173.149ZM9.26 9.208c0 .096-.051.151-.14.15-.09 0-.156-.063-.151-.144.004-.072.095-.152.172-.15.077 0 .12.053.12.144ZM14.786 8.83c0 .07-.082.16-.147.16-.066.001-.135-.07-.136-.14 0-.081.077-.175.145-.173.066.002.139.082.138.153ZM14.797 9.446c0 .093-.04.135-.125.134a.129.129 0 0 1-.128-.128c0-.082.046-.12.14-.12.09.002.113.024.113.114Z" fill="#fff"/><path d="M14.54 10.816c.209.24.422.478.628.721.055.065.095.145.134.222a.207.207 0 0 1 .014.11c-.006.064-.074.091-.124.049-.033-.029-.056-.07-.083-.106-.085-.114-.165-.233-.255-.344a12.107 12.107 0 0 0-.361-.42.801.801 0 0 0-.134-.12 2.848 2.848 0 0 0-.593-.348c-.045-.018-.085-.048-.125-.076-.044-.032-.07-.075-.036-.127.034-.051.084-.057.14-.035.158.06.316.122.475.179.281.1.573.124.87.105.055-.003.11-.021.165-.035.064-.016.13-.03.167.045.028.057-.005.117-.104.144-.107.03-.221.044-.333.048-.149.005-.298-.007-.446-.012ZM6.59 11.879c-.259.045-.522.07-.774.139a.899.899 0 0 0-.526.42c-.022.035-.06.076-.097.082-.07.013-.118-.071-.086-.14.094-.197.249-.34.433-.448.218-.128.461-.178.711-.195.15-.01.3-.018.45-.02a.15.15 0 0 1 .105.047c.056.068.023.132-.066.137-.048.002-.098 0-.147 0l-.003-.022ZM6.356 11.058c.041 0 .086-.01.123.003.03.01.067.045.072.073.005.028-.019.074-.044.091a.229.229 0 0 1-.117.032c-.212.008-.42.024-.61.132-.053.03-.112.033-.146-.033-.027-.053-.003-.13.057-.153.122-.045.247-.086.374-.115.094-.022.193-.024.29-.035a.39.39 0 0 0 .001.005Z" fill="#030302"/></g><ellipse cx="14.005" cy="16.803" rx="2.656" ry=".803" transform="rotate(-23.701 14.005 16.803)" fill="#178320"/></svg>