<svg version="1.0" xmlns="http://www.w3.org/2000/svg" width="1878.667" height="1877.333" viewBox="0 0 1409 1408"><path d="M0 704v704h1409V0H0v704zm728-423.6c14.5.7 36.1 3.4 49 6.1 1.4.3 5.2.9 8.5 1.5s7.6 1.4 9.5 1.9c1.9.5 5.3 1.4 7.5 2 25.9 6.7 72.9 24.2 86.5 32.2.8.5 3.9 2 6.8 3.4 2.9 1.3 5.9 3 6.6 3.8.7.7 7.5 2.3 15.1 3.5 32 5.3 59.7 16.1 85 33.3 12.8 8.7 17.3 12.6 32 27.4 15.1 15.2 25.6 29.7 34.8 48 10.3 20.7 18.5 48.7 20.3 69.4.3 3.6.7 7.2.9 7.8.2.7.5 8.9.5 18.2.2 15.9.8 20.3 3.7 27.1.4.8.7 1.9.8 2.5.1.5.9 3.2 1.8 6 .9 2.7 2.3 7.8 3.2 11.2.8 3.5 2.2 9.1 3.1 12.5 2.5 10.1 5.8 27.9 6.9 37.3.3 3.2.8 6.2 1 6.5 1.8 2.9 2.7 67.3 1.2 83.8-1.4 15.4-4.8 37.5-8.3 53.2-5.9 26.9-16.2 58.3-25.9 78.8-1.9 4-3.5 7.5-3.5 7.8 0 1.1-11.2 22.8-15 29.1-2.2 3.6-4 6.7-4 6.9 0 .3-3.2 5.5-7.1 11.7-22.2 34.8-54.8 71.1-87.4 97.3-46.6 37.4-99.9 64.1-157.3 78.9-17.9 4.6-35.4 7.8-61.2 11-15 1.9-53.1 2.2-73 .5-29.5-2.4-71.3-10.4-82.4-15.7-6-2.8-3.1-3 8.6-.6 6.2 1.3 12.7 2.6 14.3 2.8 2.8.5 2.8.4.5-.4-1.4-.4-5.2-1.6-8.5-2.5-8.3-2.4-11.5-3.7-11.5-4.8 0-.5.5-.6 1-.3.6.4 1.7.1 2.5-.5s2-.8 2.6-.4c.9.5 1 .2.6-.9s.3-2.2 2.4-3.4c1.6-1 2.7-2.3 2.4-3.1-.3-.8.2-1.2 1.3-1 1.1.2 1.6-.3 1.5-1.5 0-1.2.4-1.6 1.3-1.3.8.3 1.4-.1 1.4-.8 0-.8.6-1.7 1.3-1.9.7-.3.5-.6-.5-.6-2.4-.1-2.3-2.1.1-2.1 1.1 0 2.3-.9 2.6-2.1.8-2.4 4.3-4 6.5-2.8 1.5.7 19.3 4.2 28 5.4 2.4.4 4.7.8 5 1 .3.2 4.3.6 9 1 4.7.3 12.6 1 17.5 1.4 13.2 1.2 48 .5 63.5-1.4 21.3-2.5 22.4-2.6 24.2-3.1 1-.3 3-.7 4.5-1 1.6-.3 6-1.2 9.8-2.1 3.9-.8 8.8-1.9 11-2.3 26-5.2 77.3-25.9 100.6-40.5 2.1-1.4 4.1-2.5 4.5-2.5.3 0 2.4-1.3 4.7-2.8 2.3-1.6 8.9-6 14.6-9.8 16.3-10.9 35.1-26.5 51.5-42.9 8.3-8.2 16.7-16.8 18.6-19 7.6-8.8 26.6-33.8 29.7-39 .6-1.1 3.7-6 6.8-10.8 3-4.8 5.3-9.2 5-9.7-.4-.6-.1-1 .4-1 1.9 0 1.2-1.8-.9-2.5-1.1-.3-2-1.1-2-1.6s1.1-.3 2.4.6c2.7 1.8 3.6 1.1 5.7-4.8.7-2 1.7-3.7 2.1-3.7.4 0 .8-.9.8-1.9 0-1.1.5-2.1 1.1-2.3 1.4-.5 2.3-6.8 1-6.8-.6 0-1.1.7-1.1 1.5s-.9 1.5-2 1.5c-1.3 0-2 .7-2 2 0 1-.8 2.4-1.7 2.9-1 .6-1.2 1.1-.5 1.1.6 0 1.2.4 1.2 1 0 .5-.7.7-1.5.4-1.9-.8-1.9-1.9-.1-3.6.7-.8 1.5-2.8 1.8-4.5.3-2.5 0-3.3-1.6-3.9-3.1-1-6.6-1.1-6.6-.2 0 .4.7.8 1.6.8 2.7 0 5.4 2 4.8 3.5-.7 1.6-5.4 2.1-5.4.6 0-.5-.9-.7-2-.4-1.1.3-2 .9-2 1.4 0 .5-.6.9-1.4.9-.9 0-1.2.7-.9 1.9.3 1.3 1.2 1.8 2.6 1.5 3-.5 4.9 1.4 3.6 3.7-1 2-3.9 2.6-3.9.9 0-.5.7-.7 1.5-.4 2.7 1.1 1.6-.4-1.9-2.4-3.9-2.3-5.9-1.3-4.9 2.6.4 1.6.1 2.2-1.1 2.2-.9 0-1.6-.5-1.6-1 0-.6.4-1 1-1 .5 0 .7-.7.4-1.5-.3-.8.1-2.2 1-3 .9-.9 1.6-2.1 1.6-2.8 0-.6-.6-.3-1.3.8-.8 1-1.9 1.5-2.5 1.1-.5-.3-1.2-.1-1.4.6-.3.7-1.4.9-3.4.3-2.5-.7-2.7-.9-.9-1.4 2.4-.7 2.8-5.2.5-5.9-1.2-.4-1.3-.2-.2.9 1.6 1.8 1.5 3.2-.2 2.6-.8-.3-1.7-.1-2 .6-.3.7-.3.2 0-1 .4-1.8.2-2.2-1-1.7-.9.3-1.6 1-1.6 1.5 0 1.4 2.4 5.3 3.8 6.2.6.4 1.2 1.2 1.2 1.8 0 .5-1.1.2-2.4-.6-1.6-1.1-2.6-1.3-3.1-.6-.3.6-1.3 1.1-2.2 1.1-1.1 0-1.4-.7-1.1-2.5.3-1.3.1-2.2-.3-1.9-1.7 1-.9 4.3 1.3 5.9 2.1 1.4 2.3 1.4 3-.2.6-1.5.7-1.5.7.4.1 1.2-.3 2.4-.9 2.8-.5.3-.7 1.3-.4 2.3.5 1.3.4 1.4-.4.4-.5-.8-1.2-1.3-1.6-1.3-2 .3-2.6-.1-2.6-1.4 0-.8-.7-1.5-1.5-1.5-.9 0-1.8-.7-2.1-1.5-.9-2.2-1.9-1.9-3.2.9-.9 2-.8 2.5.5 3 .9.4 2 .1 2.4-.6.4-.7 1.1-.9 1.6-.5.4.5.1 1.2-.6 1.6-.7.5-1.1 1.3-.8 1.7.3.5-.2 1.5-1 2.3-1.3 1.2-1.4 1.1-.8-.8.4-1.4.2-2.3-.8-2.7-1.6-.6-5.7 2.4-5.7 4.2 0 .6-1.1 2.4-2.5 4-2.4 2.8-2.9 3.9-2.6 5.7.1.5-.3.6-.8.3s-2.1 1-3.6 3c-1.5 1.9-2.9 3.3-3.2 3-.3-.2 0-1.1.6-1.8 8.3-10 22.2-32.9 30.9-50.9 6.9-14.3 11-24.2 17.6-42.5 4.4-12.1 4.9-13.1 7.1-12.7 1.2.3 2.6 0 2.9-.6.4-.6 0-1.1-.9-1.1s-1.4-.4-1-1c.3-.5 1.1-.7 1.8-.4.8.3 1.3-.6 1.5-2.2.3-3.5.6-3.8 3.1-2.4 1.2.6 2.1.7 2.1.1 0-.5-.7-1.1-1.5-1.5-.8-.3-1.5-1-1.5-1.7 0-.6.7-.9 1.5-.5.9.3 1.5 0 1.5-1 0-.8-.4-1.2-1-.9-.5.3-1 .1-1-.4 0-2 3.1-1.1 4.1 1.1.9 2.2.9 2.2.5-.2-.7-3.4.4-7.6 1.5-5.8.6 1 .9 1 .9 0 0-.6.5-1.2 1.1-1.2 1.7 0 3.4-2.3 3.4-4.5 0-1.9 1.7-4.5 2.9-4.5.3 0 1.5-.9 2.7-2.1 1.7-1.7 1.8-2.3.9-3.2-1-.9-1.1-.9-.7-.1.7 1.2-2.1 2.9-3.1 1.9-.3-.3 0-.5.7-.5s1.1-.6.8-1.3c-.7-1.8.2-3 3.5-4.4 3.3-1.5 4.6 0 1.8 2-1.1.7-1.7 1.6-1.4 2 .9.9 4.4-2.6 4.4-4.4 0-1 .6-2 1.3-2.3.6-.3 0-.4-1.5-.2-1.6.2-2.8-.1-2.8-.5 0-.5.9-.9 2-.9 2.5 0 2.5-.9.3-2.6-1.6-1.3-1.6-1.4.7-1.1 1.6.1 2.4-.3 2.3-1.1-.2-.6.4-1.2 1.2-1.2.9 0 1.2.6.9 1.5-.4.8-.1 1.5.6 1.5.6 0 .8-.5.5-1-.3-.6.1-1 .9-1 1.3 0 1.2-.4-.5-2.1-1.6-1.6-2.3-1.8-3.5-.8-.9.7-1.4.8-1.4.1 0-1.5 3.4-2.4 6.7-1.7 2.1.5 2.4.4 1.3-.4-1.5-1-1.6-1 3.4-2.5.9-.3 1.2-1.3.9-2.5-.4-1.5-.1-2.1 1.2-2.1 1 0 1.5-.5 1.2-1.4-.3-.7 0-1.9.6-2.6.9-1 .9-1.4 0-1.7-.7-.3-1.3-.9-1.3-1.4 0-.6.4-.8.9-.5.9.6 2.8-20.7 2.3-24.8-.1-1 .2-2.4.6-3 .5-.6.8-2.6.6-4.4-.1-1.7.2-3.2.8-3.2.5 0 .4-1-.3-2.2-1-1.8-.9-2 .5-1.5 1.1.5 1.6.1 1.6-1.3 0-1.4-.5-1.8-1.7-1.4-1 .2-.9 0 .4-.7 1.9-1 3.1-3.1 3.7-6.4.1-.6-.1-2-.6-3.3-.6-1.6-.4-2.4.7-2.8 1.7-.7 2.1-3.4.5-3.4-1.8 0-1.1-2 .8-2.1 1.6-.1 1.6-.2 0-.6-1.7-.4-1.7-.6-.1-3.6 1-1.8 1.6-4.9 1.5-7-.1-2 .2-3.7.8-3.7.5 0 1-1.6 1-3.5s-.4-3.5-1-3.5c-1.3 0-1.3-2.7.1-3.2 1.3-.4 1.8-9.4.8-15.6-.4-3.1-.3-4.9.5-5.5.8-.5.7-1-.4-1.7s-1.1-1-.2-1c.7 0 1.1-.4.8-.9-.3-.5-.7-2.9-.7-5.4-.2-2.8-.6-4.4-1.2-4-.6.4-.7.1-.2-.6.4-.7.9-3.4 1.1-5.9.3-4.1.2-4.4-.8-2.2-.6 1.4-1.3 3.6-1.5 4.9-.2 1.4-.8 3.2-1.4 4-.8 1.4-.4-5.1.7-10.9.1-.8.3-2.1.3-2.8.1-.6.9-1.3 1.9-1.3 1.6-.1 1.6-.2-.1-.6-1.1-.3-1.6-1.2-1.3-2.6.3-1.2.8-3.8 1.1-5.7.4-1.9.9-9.7 1-17.4.2-7.6.6-14 .8-14.2.2-.2 0-2.7-.4-5.4-.4-2.8-.6-5.9-.4-7 .2-1.1-.1-2-.6-2-.6 0-.5-.8.1-2.1.8-1.4.8-2.9.2-4.9-.6-1.6-.8-3.1-.5-3.4.3-.3.1-1.2-.5-1.9-.7-.8-.9-1.6-.6-2 .3-.3.1-1.5-.6-2.6-.8-1.6-.8-2.1.1-2.1.8 0 .9-.4 0-1.3-.6-.8-.8-1.7-.5-2 .3-.3-.3-1.6-1.5-2.8-2-2.1-2.1-2.2-2.1-.3-.1 1.8-.1 1.8-1.1.1-.9-1.5-.7-2.3 1-3.8 2.2-2.1 2.8-4.9 1.1-4.9-.5 0-.9-.8-.8-1.8.2-3-.2-5.2-.9-5.2-1.1 0-.9 6.2.1 7.8.5.9.1 1.8-1 2.7-2.7 2-3.2 1.8-3.7-1.3-.2-1.6-.4-1-.4 1.5 0 2.9.5 4.3 1.4 4.3.7 0 1.3.2 1.3.4s.3 1.3.6 2.3c.5 1.5.4 1.5-.5.3-.5-.8-1.3-1.1-1.7-.7-1 .9 1.7 5.8 2.8 5.1.4-.3.8 0 .8.5 0 .6-.7 1.1-1.6 1.1-1.3 0-1.5.8-1 4.2 1.2 9.4.4 43.5-1.3 55.8-11.6 81.4-47.1 142.4-110.6 189.9-42.3 31.7-85.8 49.5-132.4 54.1-6.2.6-50.6 1-112.7 1H619l-.5 2.2c-.2 1.3-2.3 14.9-4.4 30.3-16.5 115.5-23.2 159.1-24.9 160.6-.9.9-29.1 23-62.7 49.1-33.5 26.1-75.8 59-94 73.2-42.8 33.4-48.6 37.9-49 37.4-.7-.7-.8-5.4-.2-7.3.3-1.1.9-3.8 1.1-6 .3-2.2 1-6.8 1.5-10.3 2-11.6 3.1-18.7 3.6-22.7.3-2.2.9-6.5 1.5-9.5.5-3 1.4-9.3 2-14 .6-4.7 1.5-11 2.1-14 1-5.7 4.5-29.5 8-53.5 1.1-7.7 2.2-15.4 2.5-17 .3-1.7 1.2-7.5 1.9-13 2.3-16 9.2-62.5 12-81 1.4-9.4 3.2-21.5 4-27 .7-5.5 5.4-37.7 10.4-71.5 8.5-57.1 20.8-140.9 37-251l6.6-45.5 2.5.3c1.4.2 31.4 5.7 66.7 12.3 35.3 6.5 64.7 11.9 65.2 11.9 1.2 0 1.8.5-46.9-43.5-21.2-19.1-44.8-40.5-52.5-47.5-7.7-7-33.8-30.6-58-52.4-24.2-21.9-48.3-43.7-53.5-48.5-5.3-4.7-10.9-9.7-12.5-11.1-1.7-1.4-3.5-3.2-4.2-4-1-1.3 24.9-1.5 217.5-1.4 126.8.1 219.4-.3 220.5-.8.9-.5 1.7-.5 1.7-.1 0 1 73.2.9 74.8-.1.7-.4 1.2-.2 1.2.5 0 .8 1.1 1 3.5.6 1.9-.3 3.5-.2 3.5.1 0 .4.8.8 1.8.8.9 0 2.7.4 3.9.8 2.4.8 2.6-1.1.4-3.8-1.2-1.4-1.2-1.6.1-1.1.9.3 2 1.7 2.7 3.1 1 2.4 1.2 2.4 2.8.8 2.9-2.8 2.4-4.3-1.5-5-2.1-.3-4.5-.8-5.5-1.1-1-.2-2 .2-2.3 1.1-.3.9-1.3 1.6-2.1 1.6s-1.1-.5-.8-1c.3-.6.1-1-.5-1s-.8-.5-.4-1.2c.4-.6.3-.8-.3-.5-.6.4-4.1 0-7.9-.8-5.3-1.1-7.1-1.1-8.3-.2-.8.7-1.2.7-.9.2.4-.6-2.5-1-7.8-1.1-5.5-.1-8.4.3-8.4 1 0 .6-.4.5-.9-.3-.6-.9-2.3-1.2-5.5-1-2.5.2-4.6.2-4.6-.1 0-.3-14-.5-31-.5-17.1 0-31.8-.3-32.8-.7-.9-.4 1.1-.7 4.6-.7 3.7-.1 6.1-.5 5.7-1-.3-.6-4-1.7-8.3-2.7-4.2-.9-8.4-2-9.3-2.5-.9-.5-5.7-1.5-10.5-2.3-4.9-.8-12.7-2.2-17.4-3-8.3-1.4-11.1-1.8-31-3.6-9.3-.8-52.6-.5-62.5.6-2.7.2-12.2 1.6-21 3s-17.6 2.7-19.5 3c-1.9.2-6 1.2-9 2.1-3 .9-5.7 1.7-6 1.8-.3.1-2.3.5-4.5.9-5.5 1-8.7 2.4-8 3.6.4.6-5.5.8-15.9.6-11.4-.2-16.7 0-17.1.8-.3.7-.7.7-1 .1-.3-.6-12.4-.9-33.6-.8l-33.1.2 4.3-2.4c23.4-12.9 53.1-25.4 78.4-32.9 3.3-1 7.1-2.2 8.5-2.7 6.3-2.2 24.3-6.4 38.5-8.9 3.3-.5 7.1-1.2 8.5-1.5 6.9-1.4 31-3.7 44.9-4.3 16.8-.8 27-.7 45.1.2zm-263.3 52.2c-.3.3-13.5.8-29.4 1-50.2.8-60 1.1-61.1 1.8-.6.3-1.3.2-1.7-.4-.3-.5-1.1-1-1.6-1-.6 0-.7.4-.4 1 .3.5.2 1-.4 1-.5 0-1.2-.4-1.6-.9-.3-.5-1.8-.8-3.3-.6-1.5.2-3.1.4-3.5.4-2.1.2.7 2.1 3.1 2.2 2.3 0 2.4.2.8.8-2.3.9-1.4 1.6 3.4 2.6 3 .7 3.2.9 1.5 1.5-1.8.7-1.9.8-.2 1.5.9.4 1.7 1.3 1.7 2.1 0 1.3 1.5 1.8 4.8 1.7 1.5-.1 1.5 1 0 2.5-.9.9-.9 1.2.3 1.2 1.7 0 7.9 5.4 7.9 6.9 0 .6.5 1.1 1.1 1.1.5 0 2.9 2 5.1 4.5 2.3 2.5 4.7 4.5 5.5 4.5.7 0 1.3.4 1.3 1 0 1.1 5.6 6.7 11.9 12 2.3 1.9 4.7 4.4 5.3 5.5.8 1.3-.2.8-2.8-1.4-10.4-9-58.4-52.3-58.4-52.7 0-.2 25-.4 55.7-.4 30.6 0 55.4.3 55 .6zm-75 95.9c.8.8 1.8 1.3 2.3 1 .4-.3 1 .2 1.4 1 .3.8 0 1.5-.7 1.5-.6 0-.1.7 1.1 1.6 1.2.8 2 1.9 1.7 2.4-.3.5.4 1 1.6 1.2 1.2.2 2.6 1.1 3 2 .5 1 1.3 2.6 1.7 3.5.5 1 1.8 2.2 3 2.8 1.2.5 2.2 1.5 2.2 2.1 0 .7 1.1 1.9 2.4 2.8 1.7 1.1 2.3 2.2 1.9 3.6-.3 1.1 0 2.6.6 3.3.6.8.8 1.7.4 2-.3.4-.1.7.5.7.7 0 1.2.7 1.2 1.6 0 .8.7 2.3 1.6 3.1 1.3 1.3 2 1.4 3.5.5 2.5-1.6 2.8-1.5 2.6.5-.2 3.5 3.7 7.9 6.6 7.4.4 0 .7.4.7 1s.7.8 1.6.5c1.2-.4 1.5-.2 1 .9-.3.8-.2 1.4.2 1.4 1.9-.3 5.2 1.5 5.2 2.8 0 .8.5 1.1 1 .8 2-1.3.8.7-7.6 12.2-14.1 19.3-23.5 35.5-34.9 59.9-3.6 7.7-6.6 12.9-7.3 12.6-.7-.2-1.2.1-1.2.6 0 .6.5 1.2 1 1.4.7.2.5 1.8-.6 4.3-.9 2.2-2.8 6.9-4.1 10.5-1.4 3.8-2.1 5.1-1.8 3 1-5.1 1-9.3.1-11.3-.6-1.2-.4-1.7.9-1.7 1.2 0 1.5.6 1 2.2-.3 1.3.3.7 1.3-1.2 1.4-2.6 1.5-3.9.8-5.3-.9-1.4-.5-2.2 2.3-4.4 3.1-2.5 3.2-2.7 1.5-4-1.6-1.2-1.6-1.3-.1-1.3 2 0 2.3-1.6.5-2.3-.8-.3-.6-.6.5-.6.9-.1 1.7-.8 1.7-1.7 0-1-.4-1.2-1.2-.7-2 1.3-5.8 1-5.8-.4 0-.7.5-1.3 1.1-1.3.6 0 .8-.7.5-1.6-.4-.9-.2-2.2.3-2.8.5-.6 1.2-2.2 1.6-3.6.7-2.3.7-2.3-.9-.7-1 .9-1.5 2.1-1.2 2.6.8 1.2-2.1 3.4-3.4 2.6-.6-.3-.7-1.1-.4-1.7.5-.7.2-.8-.6-.3-.7.4-1.6.2-2.1-.6-.5-.9-.3-1.6.9-2.1 1.4-.5 1.3-.7-.5-.7-1.4-.1-2.3-.7-2.3-1.6 0-.8-.7-1.5-1.5-1.5-2.4 0-1.8-3.4 1.1-6 2.1-2.1 2.7-2.2 3.5-1 .8 1.3 1 1.3 1.9 0 .7-1.1.4-1.7-1.2-2.5-1.5-.7-2.3-.6-2.6.3-.2.7-.8.9-1.3.6-.6-.3-1.6-.1-2.4.6-1.1.9-1.8.7-3.3-.8-1.5-1.5-2.3-1.6-4.3-.8-1.3.6-3.2 1.9-4.2 2.9-2.3 2.3-8.8 16.5-11.9 26.2-.7 2.2-1.8 4.9-2.5 6-.7 1.1-1.3 2.6-1.3 3.3 0 .8-.6 2.8-1.4 4.5-5.1 11.6-15.2 55.3-17 73.7-.3 3-.8 7.5-1 10-1.3 12.4-1.6 19.4-1.6 38.6-.1 20.3.7 31.4 3.5 49.9 3.1 20.6 3.8 24.1 4.6 25.7.5 1 .9 2.8.9 4.1 0 1.3.4 3.7.9 5.3.5 1.6 2.4 8.1 4.1 14.4 2.9 10.8 4.1 14.7 6 19.5 3.6 9.3 4.4 11.4 5.6 14.2.8 1.7 1.4 3.5 1.4 4.1 0 4.4 28.8 60.2 31.1 60.2.5 0 .9.9.9 1.9 0 1.1.5 2.3 1 2.6.6.4 3.3 3.9 6 7.9 2.7 4.1 5.6 8 6.4 8.9.9.9 1.6 2 1.6 2.6 0 .6.5 1.1 1 1.1.6 0 1 .7 1 1.5s.4 1.5.9 1.5 1.5 1.5 2.4 3.3c1.2 2.8 1.3 4.5.1 12.7-.7 5.2-1.6 12-2 15-1.2 10.2-1.9 13-2.9 12.2-2.6-1.8-15.1-16.9-23.6-28.3-21.1-28.5-35.2-53.3-50.7-88.9-8.3-19.3-19.4-54.8-22.3-71.4-.5-3.3-1.2-6.3-1.5-6.7-.9-1.4-6.4-41.5-6.4-46.6 0-2.8-.4-5.4-.9-5.7-.9-.6-.8 1.9 1.5 22.9 6.2 57.5 26 114.3 58.2 167 11.7 19.2 31 44.9 43.4 57.9 2.9 3.1 3.7 6.6 1.5 6.6-1.5 0-10.7-9.7-10.7-11.2 0-.5-.3-.7-.7-.5-.8.5-4.1-2.5-3.5-3.1.3-.3-1.7-3-9-12.1-2.7-3.2-4.8-6.2-4.8-6.5 0-.4-2.2-3.5-5-7-2.7-3.5-5-6.7-5-7 0-.4-1.9-3.5-4.1-6.9-2.3-3.4-5-7.7-6.1-9.5-1-1.8-2.3-3.9-2.8-4.5-2.3-2.7-5.8-8.6-6.5-10.8-.4-1.3-1.6-3.6-2.6-5.1-1.1-1.4-1.9-2.8-1.9-3.1 0-.3-2.3-5.4-5.1-11.4-8.9-18.9-9.6-20.6-13.4-30.3-8-20.8-11.7-32.3-17-54-3-12.4-4.4-19.1-7-35.1-3.3-19.4-4.4-38.1-4-66.4.3-15.4.6-28.9.8-30 .2-1.1.7-4.9 1.1-8.5 1.9-17.4 5.8-39.1 10.6-58 2.7-10.6 11.9-39.9 14-44.5.5-1.1 3-7.2 5.6-13.5 7.3-17.6 20.4-43 30.2-58.5 8.9-14.2 25-36.7 28.4-39.6 1-.9 1.8-2 1.8-2.4 0-.7 3-3.4 3.8-3.5.2 0 1 .7 1.9 1.5zm48.6 197.1c.3.4-.1 1.3-.9 2.2-1.1 1-1.2 1.8-.5 2.5 1.4 1.4 1.4 4.7 0 4.7-.5 0-.7-.5-.4-1 1-1.7-.5-1.1-2.7 1-1.7 1.6-1.8 2-.6 2 .9 0 2.1.7 2.8 1.6 1.1 1.2 1.1 1.5-.1 1.2-1-.2-1.3.5-1.2 2.2l.3 2.5-1.9-2.3c-1.1-1.2-2.4-2.2-2.9-2.2-.6 0-1.3-.6-1.6-1.3-.3-.6-.3 0-.1 1.5.2 1.5-.1 3.1-.7 3.4-.7.5-.4 1.2.7 2.1 2.3 1.6 3.5 1.7 3.5.2 0-.5-.4-.7-1-.4-.6.4-1-.6-1-2.1 0-2.5.1-2.6 1.3-1.1.6.9 2.1 2.4 3.2 3.3 1.1.8 1.4 1.2.7.9-1.3-.7-5.2 2.9-5.2 4.7 0 .5-.6.8-1.2.6-.7-.1-2.3.3-3.5 1-1.2.7-2.4.8-2.7.3-.3-.5.1-1.2 1-1.5.8-.3 1.2-1 .9-1.6-.4-.6-1.1-.8-1.6-.5-.5.4-.9.1-.9-.5s-.4-.9-.9-.6c-1.4.9-2-4.3-.6-5.4.9-.8 1.4-.6 1.8.4.3.8.1 1.6-.5 1.8-.5.2-.2 1 .8 1.8s1.5 1 1.1.4c-.3-.6.3-1.7 1.4-2.4 2.2-1.7 2.6-3.5.4-2.7-.8.4-1.7.2-2-.3-.4-.6.1-1 .9-1 .9 0 1.6-.2 1.6-.4s.3-1.3.6-2.3c.5-1.5.4-1.5-.5-.3-.9 1.3-1.2 1.3-2.8-.3-1.2-1.1-1.3-1.7-.4-1.7s.8-.4-.3-1.6c-.9-.8-1.6-1.9-1.6-2.4 0-1.2 6.4-.3 6.8 1 .2.5 1.1 1 2 1 1.4 0 1.5.2.2 1-.8.5-1.1 1.2-.7 1.6.4.5 1.8-.3 3-1.5 1.2-1.3 1.7-2.1 1-1.7-1.4.8-4.3-.3-4.3-1.6 0-.5.9-.7 1.9-.3 1.7.5 1.9.2 1.6-2.7-.2-1.8-.1-2.7.2-2.1.2.7.9 1.3 1.4 1.3.6 0 .8-.4.5-.9-.9-1.3 2.5-2.7 3.7-1.5zM420.5 653c.3.5 0 .7-.8.4-.8-.3-2 .3-2.8 1.2-1.2 1.5-1 1.6 2.3 1.2 2.9-.3 3.8 0 4.1 1.4.6 2-.9 2.5-1.6.5-.4-.9-.6-.9-.6.1-.1.7.6 1.5 1.4 1.8.8.4 1.5 1.4 1.5 2.3 0 1.2.2 1.3.9.3.4-.8 1.9-1.2 3.2-1.1 2.8.4 5.2-.8 4.4-2.2-.4-.5-1.7-.9-3.1-.9-1.4 0-2.2.4-1.9 1 .9 1.5-.4 1.2-2.1-.5-1.2-1.2-1.3-1.9-.3-3.7l1.2-2.3 1 2.4c.9 1.8 1.7 2.2 3.9 1.9 2.4-.4 2.8-.1 2.8 1.9 0 1.3-.4 2.3-1 2.3s-.6.9 0 2.6c1.4 3.6 1.3 3.7-1.6 3-1.5-.4-2.3-.3-2 .3.4.5-.2 1.2-1.1 1.4-1.3.3-1.2.5.5.6 1.3 0 2.1.5 1.7 1-.3.5-.1 1.2.5 1.6.5.3 1-.3 1-1.5s.4-1.9.9-1.5c.5.3.6 1.7.2 3.3-.5 1.5-.7 7.6-.6 13.5.2 9-.1 10.9-1.4 11.7-1.4.8-1.4.9.2 1 1.1 0 1.7.5 1.4 1.2-.2.7 0 2.1.5 3 .7 1.4.5 1.8-.9 1.8s-1.5.2-.4.9c1.8 1.2 2.4 6.3.8 7.3-.9.6-.9 1-.1 1.5 1.4 1 2.4 6.3 1.1 6.3-.6 0-.6.5.1 1.2 1.4 1.9 3.2 8.7 2.3 9.2-.4.3-.6 1.9-.3 3.6.2 1.6 0 3.6-.6 4.3-.5.6-1 2.7-1 4.4 0 1.8-.4 3.8-.9 4.5-.4.7-.6 2.1-.4 3.2.2 1.3-.1 1.6-1.1 1-1.1-.6-1.1-.5 0 .8.8 1 1 2.7.7 4.4-.4 1.6-.8 4.9-1 7.3-.2 2.4-.9 6.8-1.5 9.8-1.1 5.3-1.6 8.6-1.9 14.6 0 1.6-.5 2.5-1.1 2.2-.5-.3-.7 0-.4.9.3.9-.2 1.7-1.5 2.1-2.3.7-1.8 3.5.8 3.6 1.2 0 1.2.2-.4.9-1.1.5-1.6.9-1.2.9.5.1.1.8-.8 1.7-.8.9-2.2 1.4-2.9 1.1-1-.4-1.2 0-.9 1.4.7 2.6-1.3 2.4-2.8-.2-.9-1.7-.8-2 .3-1.4.7.5.3-.3-.9-1.7-2.4-2.6-3.4-6.3-1.1-4 .7.7 2.2 1.2 3.4 1.2 1.2 0 2.4.6 2.7 1.2.2.7.7 1 1.1.6.4-.3 0-1.7-.9-3.1-1.5-2.4-1.5-2.5 1-3.1 1.4-.4 2.5-1.1 2.5-1.6 0-1.6-2-2.2-3.5-1-.8.6-2 .8-2.6.4-.8-.4-.9-.3-.5.4s.2 1.2-.3 1.2c-.6 0-1.1-.8-1.2-1.8 0-.9-.3-1.2-.5-.5-.3.7-1.1 1.1-1.7.9-.7-.1-.9-.1-.4.1 1.1.7.9 3.3-.3 3.3-1 0-1.2-.5-1.4-3.3-.1-.6-.5-1.5-.9-1.8-.4-.3-.9-1.8-1-3.3-.2-2.5.2-2.9 2.8-3.2 1.7-.2 4.1-.5 5.5-.8 1.4-.3 1.9-.3 1.2 0-.6.3-1 1-.7 1.5.4.5-.1.6-1 .3-1.1-.5-1.4-.2-.9 1 .9 2.4 3.1 1.9 3.8-.9.4-1.4 1.1-2.5 1.6-2.5.6 0 1-.4 1-.9s-1.5-.5-3.5-.1c-2.7.6-3.5.5-3.5-.6 0-.8-.7-1.4-1.5-1.4s-1.5-.8-1.5-1.7c0-1.3.3-1.4 1.2-.5.7.7 2 1.2 3 1.2s1.8.4 1.8 1c0 .5.7.7 1.5.4 1.7-.7 2.1-3.4.4-3.4-.5 0-.7-.5-.4-1 .3-.6.1-1-.4-1-.6 0-1.1-1.2-1.1-2.7 0-2.5-.1-2.6-1.3-.8-1 1.2-1.6 1.4-2.1.7-.4-.7-.2-1.2.4-1.2.6 0 .8-.5.5-1-.3-.6-.1-1 .4-1 .6 0 1.1-.6 1.1-1.3 0-.8-.7-1.4-1.5-1.4s-1.5.7-1.5 1.5c0 1.2-.3 1.2-1.6.1-1.4-1.2-1.3-1.4.8-2.2l2.3-.9-2.2-.9c-2.8-1-3-2.3-.3-1.6 2.2.6 2.3.3 1.4-4.2-.4-1.7-1.3-3.1-2-3.1-1.6 0-1.6-.2-.8-2.4.3-.9 1.1-1.3 1.6-1 .6.4.5-.3-.1-1.5-.7-1.2-.9-2.6-.6-3.2.4-.5.2-1.6-.5-2.4-1.2-1.5.3-3.1 2-2 .6.3 1 .1 1-.4 0-.6-.8-1.1-1.9-1.1-1.9 0-1.9-.1-3.8-16-.3-1.9-.6-7.4-.8-12.2-.1-4.8-.5-9.5-.9-10.3-.3-.9.1-1.8.9-2.1 1.8-.7 2-2.5.3-2.2-1.5.4-1.1-6.4.4-7.3.7-.4.6-.9-.1-1.3-.6-.4-1.1-1.2-1.1-1.8 0-.6.6-.6 1.5.2.9.7 1.8 1 2.2.6.3-.3.1-.6-.5-.6-.8 0-.9-.7-.2-2.5.5-1.4.6-2.5.2-2.5-1 0-2.9-4.4-2.4-5.8.5-1.7 2.2-.4 2.2 1.7 0 1 .8 2.1 1.8 2.5.9.3 2.2.8 2.8 1.1.6.3 1.4-.1 1.8-1 .3-.9.2-1.4-.3-1.1-.4.3-1.7-.2-2.7-1-1-.9-1.4-1.3-.8-1 .7.3 1.5-.1 1.8-1 .8-2.2.8-2.6-.4-1.9-1.4.9-1.3-.8.2-2.3.9-.9.8-1.2-.6-1.2-.9 0-1.5-.4-1.2-.9.3-.4-.7-.7-2.2-.5-1.5.2-1.9.1-.9-.2.9-.3 1.5-.9 1.2-1.4-.3-.4.2-1 1-1.4.8-.3 1.5-.1 1.5.4 0 .6.5 1 1 1 .6 0 1-.6 1-1.3 0-.8 1-1.9 2.3-2.6 2.2-1.1 2.2-1.1-.3-.7-2 .4-2.6.1-2.7-1.4-.2-1.7.1-1.8 1.7-1 1.6.8 1.8.8 1.4-.5-.6-1.5-1.7-1.9-4.1-1.6-.7.1-1.3-.8-1.3-1.9 0-1.2-.4-1.9-.9-1.5-.5.3-1.2.1-1.5-.4-.6-.9 1.6-1.6 5.6-2 .9 0 2 .3 2.3.9zm-35.9 438.2c-.3 3.5-.8 7.4-1 8.8-1.3 9.3-1.7 12-2.2 16-.3 2.5-.7 5.6-.9 7-1.2 9.5-1.8 14.8-1.8 16.7.1 1.3-.2 2.3-.6 2.3-.4 0-.6 1.3-.3 3 .2 1.6-.1 4.3-.6 5.9-.7 1.9-.7 3.3-.1 3.6.6.4.5 1.3-.1 2.4-.5 1-.6 2.1-.2 2.5.3.4 0 1.1-.8 1.7-1.3.8-1.3 1 0 1.9.9.6 1 1 .3 1-1.3 0-1.4.6-1.4 8.7 0 2.9-.4 5.3-.8 5.3-.3 0-.7.8-.8 1.7 0 1-.4 3.5-.7 5.5-.6 3-.4 3.8.8 3.8.8 0 2.1-.7 3-1.5.8-.8 1.9-1.5 2.5-1.5 1.7 0 1.3-1.5-.9-3.5-2.1-1.9-1.8-3.8.4-2.9.8.3 1.3 1.3 1.2 2.2-.2 3.2 7.3.6 8.9-3 .6-1.2 2.3-2.5 3.8-2.9 2.5-.7 7.9-4.8 14.4-11 1.2-1.1 2.7-2.1 3.5-2.3.7-.1 2.6-1.4 4.2-2.9s3.5-2.7 4.2-2.7c.8 0 1.4-.7 1.4-1.5s.5-1.5 1-1.5c1.2 0 8.9-4.8 11.1-7 .8-.8 2.8-2.4 4.3-3.5 2.4-1.7 13.2-10 16.1-12.3.6-.4 1.7-1.1 2.5-1.6 1.8-.9-2.3 2.8-7 6.4-1.8 1.4-4.7 3.7-6.4 5.1-2.6 2.2-28.7 22.7-45.7 35.8-2.5 2-9.3 7.2-15 11.7-14.2 11-13.3 10.7-12.4 4.3.6-5.1 7.9-54.5 11-74.9.7-5.2 2.2-14.8 3.1-21.3 1.9-12.5 3.1-15.8 2-5.5z"/><path d="M806 297.9c0 .4 2.4 1.3 5.3 2 11.6 2.9 40 13 51.2 18.2 2.2 1 9.8 4.5 16.9 7.9 7.1 3.3 13.4 5.9 14 5.7 1.3-.5-21.4-11.7-34.9-17.2-10.4-4.2-42-15-48.2-16.3-2.4-.6-4.3-.7-4.3-.3zM680.9 501.8l-15.7.2-.6 3.3c-.3 1.7-3.3 21.9-6.6 44.7-3.3 22.8-7.6 52.1-9.5 65-1.9 12.9-6.4 43.7-10 68.5-3.6 24.7-7 47.9-7.5 51.5-3.1 19.4-7 46.1-7 47.6 0 1.4 18.5-27.9 69.1-109.3l9.4-15.2 67-.3 67-.3 6.7-2.7c23.8-9.5 39.7-32.3 47.4-67.8 1.4-6.4 1.9-12.8 1.9-26 0-15.6-.3-18.3-2.3-25-5.7-18-14.1-27.7-28.4-32.6-3.9-1.3-15.6-1.5-84.9-1.7-44.2-.1-87.4-.1-96 .1zM706 609.4c0 .8.4 1.6 1 1.8.5.1.7 1.3.4 2.6-.5 1.7-1.3 2.2-3.2 2-1.5-.2-2.7.3-3 1.2-.3 1.1-.2 1.2.8.4.7-.7 2.4-.9 4.5-.4 2.6.6 3.5.4 4-.8.5-1.3.8-1.2 2 .4.8 1 1.4 2.6 1.4 3.4 0 1.3-.1 1.2-.9-.1-.5-.9-2.3-1.6-4-1.7-1.7 0-2.8.4-2.5.9.4.5 1.5.9 2.6.9s1.7.4 1.4 1c-.4.6.6 1 2.3 1 2.6 0 2.9-.3 2.4-2.3-.5-2.1-.5-2.1 1.1-.5.9.9 1.7 2.1 1.7 2.7 0 1-2.9 1.6-5.2 1.2-.5 0-.8.4-.8.9 0 .6-1.1.3-2.4-.5-1.6-1.1-2.6-1.3-3.1-.5-.3.5.4 1.4 1.7 1.9 1.3.6 1.7 1 1 1-2.3.2-7.2 4.4-7.2 6.4 0 1.2-.5 1.7-1.4 1.4-.8-.3-1.8.4-2.4 1.8-1.3 2.9-.6 3.6 2.5 2.4 3.4-1.3 3.5-1.2 1.6.9-1 1.1-2.1 1.7-2.5 1.5-.4-.2-.6 1-.6 2.7.1 1.7-.2 3.3-.5 3.7-.4.3-.7-.1-.7-1s-.6-1.7-1.2-1.7c-1 0-1-.2-.1-.8.8-.5.9-1.2.2-2.2-.8-1.1-1.2-1.2-1.6-.3-.8 2-2.3 1.5-2.3-.8 0-1.1.4-1.7 1-1.4.6.3.7-.1.4-1-.5-1.1-.2-1.4 1-.9.9.3 1.6.1 1.6-.5s-.8-1.1-1.9-1.1c-1 0-2.4-.7-3.1-1.5-.9-1.1-1.6-1.2-2.6-.4-1.4 1.1-3.4.5-3.4-1.2 0-.5.9-.9 2-.9s2-.5 2-1.1c0-.6-.9-.8-2-.5-1.1.3-2.9.9-4 1.2-2.5.7-2.6-.4-.2-2.2 1.3-1.1 1.4-1.3.1-.9-1.9.7-1.9-2 0-5 1.1-1.8 1.2-1.8.6.7-.4 2.4-.2 2.8 1.6 2.8 1.5 0 1.9-.5 1.5-1.5-.7-1.8.5-2 2.2-.3.6.6 2.1 1.3 3.3 1.5 1.9.3 2 .1.9-1.2s-1.5-1.3-2.1-.3c-.5.7-.9.8-.9.3 0-1.7 1.4-3.2 3.8-3.7 1.2-.4 2.2-.2 2.2.3s-.8 1-1.7 1c-1.7.1-1.7.2 0 .6.9.2 1.7 1.4 1.7 2.6 0 1.7.2 1.9.9.8.7-1.1 1.1-1 2 .6.5 1.1.7 2.3.4 2.7-.3.3-.1.6.5.6 1.5 0 2.4-1.7 1.2-2.3-.6-.3-.5-.4.2-.3.7.1 1.9-.4 2.7-1.2 1.2-1.2 1.2-1.5 0-2.3-1-.6-1-.9-.1-.9.6 0 1.2-.6 1.2-1.4 0-1.1-.9-1.3-3.4-.9-3.2.5-3.4.4-3-1.8.2-1.3.2-1.8-.2-1.2-.3.7-1 1.3-1.5 1.3-1.2 0-1.2-3 .1-3.1.6-.1 1.6-.2 2.3-.3.6-.1 1.1-.8.9-1.5-.2-1 .4-1.2 2.4-.7 1.9.5 2.5.3 2.1-.6-.2-.7-1.4-1.2-2.6-1.1-2.5.3-2.6 0-.5-2.1 1.9-2 3.4-2 3.4-.2z"/></svg>