<svg xmlns="http://www.w3.org/2000/svg" width="20" height="20" fill="none"><circle cx="10" cy="10" r="10" fill="#010013"/><path fill="#FDFDFD" fill-rule="evenodd" d="M7.334 4.063 3.75 8.523l1.28 5.564 5.178 2.476 5.18-2.476 1.279-5.563-3.585-4.461H7.334Zm1.038.805h3.673l-1.837 2.286-1.836-2.286ZM4.84 8.458 7.529 5.11 9.69 7.8 8.081 9.802l-3.24-1.345Zm8.254-3.088L15.5 8.363l-3.248.675.843-3.668ZM10.727 7.8l1.37-1.704-.61 2.65-.76-.946Zm-.519.645.7.872-1.681.35.981-1.222Zm2.157 1.393 3.326-.692-.864 3.757-2.462-3.065ZM4.76 9.296l2.795 1.16-1.966 2.447-.83-3.607Zm1.255 4.368 2.418-3.01 2.746-.57-1.253 5.45-3.91-1.87Zm5.888-3.11 2.498 3.11-3.61 1.726 1.112-4.835Z" clip-rule="evenodd"/></svg>