<svg width="16" height="11" viewBox="0 0 16 11" fill="none" xmlns="http://www.w3.org/2000/svg">
<g clip-path="url(#clip0_40004688_82702)">
<path d="M16 0H0V10.6667H16V0Z" fill="#FF0000"/>
<path d="M6.4 0H0V10.6667H6.4V0Z" fill="#006600"/>
<path fill-rule="evenodd" clip-rule="evenodd" d="M8.48637 6.98674C7.68077 6.96247 3.98664 4.65661 3.9613 4.28941L4.16529 3.94922C4.53172 4.48165 8.30823 6.72415 8.67916 6.64469L8.48636 6.98663" fill="#FFFF00"/>
<path d="M8.48637 6.98674C7.68077 6.96247 3.98664 4.65661 3.9613 4.28941L4.16529 3.94922C4.53172 4.48165 8.30823 6.72415 8.67916 6.64469L8.48636 6.98663" stroke="black" stroke-width="0.01528" stroke-linecap="round" stroke-linejoin="round"/>
<path fill-rule="evenodd" clip-rule="evenodd" d="M4.12245 3.90316C4.05018 4.09766 5.08643 4.73831 6.3332 5.4966C7.57992 6.25484 8.65493 6.72343 8.73461 6.65623C8.73948 6.64755 8.77382 6.58847 8.77067 6.58894C8.75573 6.61145 8.71938 6.61856 8.66265 6.60221C8.32582 6.50505 7.44732 6.10181 6.35934 5.44205C5.2714 4.78224 4.32484 4.17421 4.17772 3.91586C4.16749 3.89796 4.1602 3.8653 4.16168 3.8399L4.1581 3.83984L4.12678 3.8946L4.12247 3.90318L4.12245 3.90316ZM8.50539 6.99756C8.49172 7.02235 8.46625 7.02317 8.41788 7.01786C8.11654 6.98451 7.20217 6.53986 6.12022 5.89218C4.86129 5.13858 3.82156 4.45191 3.93436 4.27245L3.96505 4.21819L3.97109 4.22007C3.86966 4.52421 6.02304 5.75549 6.14981 5.83399C7.39579 6.60591 8.44621 7.05669 8.53917 6.93954L8.50535 6.9977V6.99765L8.50539 6.99756Z" fill="#FFFF00" stroke="black" stroke-width="0.01528" stroke-linecap="round" stroke-linejoin="round"/>
<path fill-rule="evenodd" clip-rule="evenodd" d="M6.40453 4.51244C7.21085 4.50607 8.20586 4.40226 8.77848 4.17404L8.65511 3.97359C8.31665 4.16092 7.31617 4.2841 6.39772 4.30253C5.31143 4.29253 4.54465 4.19138 4.16047 3.93359L4.04401 4.14705C4.75025 4.4459 5.47395 4.50935 6.40453 4.51244Z" fill="#FFFF00" stroke="black" stroke-width="0.01528" stroke-linecap="round" stroke-linejoin="round"/>
<path fill-rule="evenodd" clip-rule="evenodd" d="M8.81168 4.17785C8.79197 4.20937 8.41853 4.33816 7.8684 4.4332C7.49539 4.49006 7.00883 4.53868 6.40163 4.53926C5.82475 4.53981 5.35349 4.49874 4.99672 4.45039C4.41923 4.35984 4.12117 4.23385 4.01099 4.18933C4.02152 4.16838 4.0283 4.15368 4.03846 4.13411C4.35566 4.2604 4.6551 4.33656 5.0059 4.39053C5.36032 4.43853 5.8259 4.48018 6.39992 4.47964C7.0043 4.47903 7.4855 4.42673 7.85635 4.37155C8.42048 4.28056 8.72864 4.16346 8.77192 4.10909L8.81176 4.17785H8.81171H8.81168ZM8.7034 3.97458C8.64226 4.02369 8.33759 4.13174 7.80156 4.21734C7.44383 4.26861 6.98898 4.3145 6.40783 4.31506C5.85572 4.3156 5.40466 4.2784 5.06156 4.22842C4.51719 4.15732 4.22746 4.02908 4.123 3.99168C4.1334 3.97372 4.14398 3.95589 4.15485 3.93799C4.23613 3.97891 4.51573 4.09241 5.06754 4.17059C5.40674 4.21868 5.8585 4.25453 6.40786 4.25396C6.98626 4.25337 7.43594 4.2066 7.79141 4.15561C8.33021 4.08148 8.62013 3.94368 8.66415 3.90918L8.70343 3.97454L8.7034 3.97458Z" fill="#FFFF00" stroke="black" stroke-width="0.01528" stroke-linecap="round" stroke-linejoin="round"/>
<path fill-rule="evenodd" clip-rule="evenodd" d="M3.75681 5.48365C4.25276 5.75039 5.35428 5.88482 6.39665 5.89407C7.34574 5.89558 8.5822 5.74736 9.04457 5.50234L9.03185 5.23535C8.88719 5.46141 7.56217 5.67826 6.38635 5.66938C5.21054 5.66051 4.11867 5.4789 3.7547 5.2438L3.75682 5.48358" fill="#FFFF00"/>
<path d="M3.75681 5.48365C4.25276 5.75039 5.35428 5.88482 6.39665 5.89407C7.34574 5.89558 8.5822 5.74736 9.04457 5.50234L9.03185 5.23535C8.88719 5.46141 7.56217 5.67826 6.38635 5.66938C5.21054 5.66051 4.11867 5.4789 3.7547 5.2438L3.75682 5.48358" stroke="black" stroke-width="0.01528" stroke-linecap="round" stroke-linejoin="round"/>
<path fill-rule="evenodd" clip-rule="evenodd" d="M9.0699 5.44586L9.06992 5.50952C9.00043 5.59261 8.5647 5.7182 8.01827 5.80664C7.6024 5.8704 7.06022 5.9185 6.38462 5.9185C5.74278 5.9185 5.23094 5.87273 4.834 5.81179C4.20656 5.72042 3.80523 5.56043 3.72467 5.51267L3.72502 5.4384C3.96702 5.59929 4.62265 5.71699 4.84281 5.75301C5.23716 5.81355 5.74596 5.85896 6.3846 5.85896C7.05702 5.85896 7.59617 5.8112 8.00942 5.74786C8.40145 5.69123 8.95993 5.54396 9.06988 5.44589L9.0699 5.44586ZM9.07017 5.2194L9.07019 5.28306C9.0007 5.36611 8.56496 5.4917 8.01854 5.58013C7.60267 5.64389 7.06048 5.69198 6.38488 5.69198C5.74304 5.69198 5.2312 5.64626 4.83427 5.58528C4.20683 5.49396 3.8055 5.33396 3.72494 5.28619L3.72529 5.21191C3.96728 5.37278 4.62292 5.4905 4.84308 5.52647C5.23742 5.58706 5.74622 5.6325 6.38486 5.6325C7.05729 5.6325 7.59644 5.58471 8.00969 5.52132C8.40172 5.46469 8.9602 5.31742 9.07014 5.21935L9.07017 5.2194Z" fill="#FFFF00" stroke="black" stroke-width="0.01528" stroke-linecap="round" stroke-linejoin="round"/>
<path fill-rule="evenodd" clip-rule="evenodd" d="M6.3944 6.94066C5.25381 6.93387 4.2765 6.62976 4.07013 6.57949L4.22062 6.81508C4.58515 6.96842 5.53859 7.19694 6.40534 7.17164C7.27211 7.14635 8.0296 7.07921 8.56342 6.81934L8.71772 6.5752C8.35393 6.74653 7.11592 6.9389 6.3944 6.94066Z" fill="#FFFF00" stroke="black" stroke-width="0.01528" stroke-linecap="round" stroke-linejoin="round"/>
<path fill-rule="evenodd" clip-rule="evenodd" d="M8.62135 6.76467C8.59868 6.79931 8.57556 6.83353 8.55212 6.86678C8.30034 6.95556 7.90361 7.04877 7.7362 7.07596C7.39422 7.14642 6.86513 7.19846 6.39556 7.1987C5.38516 7.18391 4.55809 6.98612 4.169 6.81739L4.1376 6.76342L4.14273 6.7553L4.19597 6.77595C4.88792 7.02351 5.66507 7.12227 6.40125 7.14001C6.86893 7.14165 7.33712 7.08641 7.71571 7.0187C8.29627 6.90237 8.53101 6.8147 8.60304 6.77495L8.62135 6.76467ZM8.75514 6.54399C8.75573 6.54467 8.75632 6.54533 8.75689 6.54606C8.73993 6.57468 8.72246 6.6038 8.70456 6.63306C8.57027 6.68106 8.20584 6.78769 7.67365 6.8621C7.32301 6.90987 7.10507 6.95613 6.40755 6.96968C5.10048 6.93642 4.25421 6.68085 4.05317 6.61781L4.02338 6.56066C4.78087 6.7584 5.55463 6.89645 6.40759 6.91055C7.04575 6.89696 7.31724 6.84997 7.66498 6.80256C8.28554 6.70606 8.5982 6.6039 8.69204 6.5744C8.69087 6.57271 8.68948 6.57092 8.68793 6.56909L8.75521 6.54395L8.75514 6.54399Z" fill="#FFFF00" stroke="black" stroke-width="0.0146667" stroke-linecap="round" stroke-linejoin="round"/>
<path fill-rule="evenodd" clip-rule="evenodd" d="M8.76883 5.27322C8.77253 6.02354 8.38856 6.69685 8.07928 6.99389C7.64174 7.41413 7.0616 7.68445 6.38411 7.6969C5.62758 7.7108 4.91424 7.21759 4.72291 7.00093C4.34883 6.57733 4.04427 6.03941 4.03451 5.31445C4.08085 4.49554 4.40232 3.92511 4.86832 3.53394C5.33432 3.14277 5.9548 2.95226 6.47155 2.96589C7.06776 2.98162 7.76422 3.2741 8.24544 3.85474C8.56072 4.23517 8.69726 4.64802 8.76883 5.27322ZM6.39054 2.7041C7.84347 2.7041 9.03843 3.88645 9.03843 5.33618C9.03843 6.78589 7.84347 7.96829 6.39054 7.96829C4.9376 7.96829 3.75256 6.78591 3.75256 5.33618C3.75256 3.88645 4.9376 2.7041 6.39054 2.7041Z" fill="#FFFF00" stroke="black" stroke-width="0.01528" stroke-linecap="round" stroke-linejoin="round"/>
<path fill-rule="evenodd" clip-rule="evenodd" d="M6.39756 2.69531C7.8518 2.69531 9.03785 3.88153 9.03785 5.3359C9.03785 6.79025 7.85177 7.97643 6.39756 7.97643C4.94332 7.97643 3.75726 6.79027 3.75726 5.3359C3.75726 3.88153 4.94334 2.69531 6.39756 2.69531ZM3.81537 5.33591C3.81537 6.75618 4.98166 7.91836 6.39756 7.91836C7.81348 7.91836 8.97977 6.75618 8.97977 5.33591C8.97977 3.91559 7.81345 2.7534 6.39756 2.7534C4.98166 2.7534 3.81537 3.91564 3.81537 5.33591Z" fill="#FFFF00" stroke="black" stroke-width="0.01528" stroke-linecap="round" stroke-linejoin="round"/>
<path fill-rule="evenodd" clip-rule="evenodd" d="M6.39974 2.91406C7.7259 2.91406 8.81822 4.00262 8.81822 5.33284C8.81822 6.66308 7.72588 7.75158 6.39974 7.75158C5.07361 7.75158 3.98126 6.66308 3.98126 5.33284C3.98126 4.00262 5.07364 2.91406 6.39974 2.91406ZM4.03934 5.33282C4.03934 6.63109 5.10545 7.69346 6.39974 7.69346C7.69404 7.69346 8.76014 6.63109 8.76014 5.33282C8.76014 4.03453 7.69406 2.97215 6.39974 2.97215C5.10545 2.97215 4.03934 4.03453 4.03934 5.33282Z" fill="#FFFF00" stroke="black" stroke-width="0.01528" stroke-linecap="round" stroke-linejoin="round"/>
<path fill-rule="evenodd" clip-rule="evenodd" d="M6.50619 2.68359H6.27991L6.28017 7.98919H6.50723L6.50619 2.68359Z" fill="#FFFF00" stroke="black" stroke-width="0.01528" stroke-linecap="round" stroke-linejoin="round"/>
<path fill-rule="evenodd" clip-rule="evenodd" d="M6.48348 2.65332H6.54107L6.54157 8.01999H6.48392L6.48348 2.65332ZM6.25891 2.65337H6.31695L6.31703 8.02003H6.25895V2.65337H6.25891Z" fill="#FFFF00" stroke="black" stroke-width="0.01528" stroke-linecap="round" stroke-linejoin="round"/>
<path fill-rule="evenodd" clip-rule="evenodd" d="M9.03973 5.438V5.24186L8.87999 5.09306L7.97333 4.85306L6.66666 4.71973L5.09333 4.79973L3.97333 5.06639L3.74719 5.23386V5.43005L4.31999 5.17307L5.67999 4.95973H6.98666L7.94666 5.0664L8.61333 5.2264L9.03973 5.438Z" fill="#FFFF00" stroke="black" stroke-width="0.01528" stroke-linecap="round" stroke-linejoin="round"/>
<path fill-rule="evenodd" clip-rule="evenodd" d="M6.39866 4.92667C7.0222 4.92552 7.62719 4.98575 8.10706 5.07919C8.60223 5.17818 8.95071 5.302 9.06986 5.44108L9.06972 5.50994C8.92603 5.33687 8.45711 5.20999 8.09591 5.13746C7.6197 5.04482 7.01876 4.98501 6.39866 4.98617C5.74431 4.98739 5.13501 5.04936 4.66575 5.14092C4.28922 5.21563 3.78706 5.36406 3.72437 5.51046V5.43876C3.75879 5.33742 4.13271 5.18598 4.65727 5.08097C5.13005 4.98878 5.74047 4.92787 6.39866 4.92667ZM6.39893 4.70021C7.02247 4.69908 7.62746 4.75934 8.10732 4.85273C8.6025 4.95177 8.95098 5.07554 9.07013 5.21462L9.06999 5.28348C8.9263 5.11046 8.45738 4.98356 8.09618 4.91106C7.61996 4.81837 7.01903 4.75856 6.39893 4.75976C5.74458 4.76094 5.13823 4.82295 4.66893 4.91446C4.30557 4.98335 3.7829 5.13765 3.72461 5.28406V5.21231C3.75903 5.11207 4.14053 4.95521 4.65754 4.85452C5.13031 4.76233 5.74074 4.70146 6.39893 4.70021Z" fill="#FFFF00" stroke="black" stroke-width="0.01528" stroke-linecap="round" stroke-linejoin="round"/>
<path fill-rule="evenodd" clip-rule="evenodd" d="M6.38612 3.54407C7.36876 3.53915 8.22585 3.68146 8.61799 3.88234L8.76102 4.12978C8.42019 3.9461 7.49553 3.75511 6.38755 3.78367C5.48478 3.78922 4.52017 3.88306 4.03619 4.14127L4.20695 3.8557C4.60415 3.64972 5.54087 3.54522 6.38615 3.54412" fill="#FFFF00"/>
<path d="M6.38612 3.54407C7.36876 3.53915 8.22585 3.68146 8.61799 3.88234L8.76102 4.12978C8.42019 3.9461 7.49553 3.75511 6.38755 3.78367C5.48478 3.78922 4.52017 3.88306 4.03619 4.14127L4.20695 3.8557C4.60415 3.64972 5.54087 3.54522 6.38615 3.54412" stroke="black" stroke-width="0.01528" stroke-linecap="round" stroke-linejoin="round"/>
<path fill-rule="evenodd" clip-rule="evenodd" d="M6.39919 3.74973C6.95964 3.74825 7.50119 3.77986 7.93188 3.85757C8.33298 3.93221 8.71548 4.04426 8.77018 4.10451L8.81258 4.17944C8.67956 4.09259 8.34855 3.99588 7.92354 3.91528C7.49671 3.83506 6.95554 3.80848 6.39821 3.80994C5.76562 3.80778 5.27415 3.84117 4.85237 3.91472C4.40629 3.99818 4.09679 4.11742 4.02045 4.17408L4.062 4.09487C4.21035 4.01919 4.44573 3.92796 4.84128 3.85674C5.27747 3.77706 5.77416 3.75317 6.39923 3.74974L6.39919 3.74973ZM6.39895 3.52349C6.9353 3.52207 7.46487 3.55197 7.87767 3.62617C8.20324 3.68955 8.52522 3.78849 8.64311 3.87655L8.70513 3.97509C8.5997 3.8579 8.20283 3.74684 7.85249 3.68464C7.44286 3.61399 6.93529 3.58602 6.39894 3.58155C5.83606 3.58313 5.31587 3.61761 4.91222 3.6911C4.52713 3.76439 4.27862 3.85115 4.17347 3.9189L4.22801 3.83659C4.37311 3.7602 4.60753 3.69005 4.90276 3.63268C5.3094 3.55865 5.83276 3.52506 6.39895 3.52349Z" fill="#FFFF00" stroke="black" stroke-width="0.01528" stroke-linecap="round" stroke-linejoin="round"/>
<path fill-rule="evenodd" clip-rule="evenodd" d="M7.71064 6.43301C7.22483 6.34232 6.73814 6.32915 6.39819 6.33315C4.76067 6.35234 4.23168 6.66939 4.16712 6.76539L4.04474 6.56588C4.46165 6.2637 5.35335 6.09423 6.40706 6.11156C6.95421 6.12052 7.42637 6.15686 7.82357 6.23379L7.71061 6.43306" fill="#FFFF00"/>
<path d="M7.71064 6.43301C7.22483 6.34232 6.73814 6.32915 6.39819 6.33315C4.76067 6.35234 4.23168 6.66939 4.16712 6.76539L4.04474 6.56588C4.46165 6.2637 5.35335 6.09423 6.40706 6.11156C6.95421 6.12052 7.42637 6.15686 7.82357 6.23379L7.71061 6.43306" stroke="black" stroke-width="0.01528" stroke-linecap="round" stroke-linejoin="round"/>
<path fill-rule="evenodd" clip-rule="evenodd" d="M6.38882 6.30443C6.84434 6.31123 7.29146 6.33004 7.72304 6.41052L7.69178 6.4657C7.29096 6.39171 6.86365 6.36339 6.39037 6.3657C5.78602 6.36097 5.17477 6.41741 4.64261 6.57014C4.47469 6.61688 4.19672 6.72483 4.16837 6.81403L4.13728 6.76276C4.14624 6.71004 4.31425 6.6006 4.62832 6.51236C5.23786 6.33781 5.80802 6.30838 6.38882 6.30439L6.38882 6.30443ZM6.40949 6.0752C6.88144 6.08402 7.36883 6.10584 7.84256 6.19968L7.81001 6.25711C7.38223 6.17219 6.97351 6.14387 6.41228 6.13524C5.80601 6.13634 5.16292 6.17957 4.5782 6.34957C4.38942 6.40455 4.06361 6.52344 4.05276 6.61757L4.02167 6.56249C4.02875 6.477 4.31079 6.36547 4.56455 6.29166C5.15377 6.12035 5.79853 6.0763 6.40949 6.0752Z" fill="#FFFF00" stroke="black" stroke-width="0.0146667" stroke-linecap="round" stroke-linejoin="round"/>
<path fill-rule="evenodd" clip-rule="evenodd" d="M8.73547 6.59664L8.53869 6.90195L7.97333 6.39984L6.50667 5.41318L4.85333 4.50651L3.99493 4.21291L4.17787 3.87371L4.24 3.83984L4.77333 3.97318L6.53333 4.87984L7.54667 5.51984L8.4 6.13318L8.74667 6.53318L8.73547 6.59664Z" fill="#FFFF00" stroke="black" stroke-width="0.01528" stroke-linecap="round" stroke-linejoin="round"/>
<path fill-rule="evenodd" clip-rule="evenodd" d="M3.96398 4.22126C4.11454 4.11914 5.22102 4.61206 6.37878 5.31017C7.53347 6.01028 8.63683 6.80139 8.53723 6.94945L8.50447 7.00098L8.48944 7.01283C8.49266 7.01053 8.50927 6.99023 8.48782 6.93534C8.43862 6.77346 7.65595 6.14891 6.35731 5.3648C5.09131 4.6099 4.03622 4.15491 3.93073 4.28496L3.96398 4.22126ZM8.77571 6.59265C8.87091 6.4046 7.84462 5.63148 6.57219 4.87873C5.27051 4.14097 4.33235 3.7067 4.16099 3.8362L4.12292 3.9055C4.12258 3.90931 4.1243 3.90078 4.13235 3.89457C4.16351 3.86738 4.21515 3.86922 4.23846 3.86879C4.53352 3.87321 5.37624 4.26103 6.55862 4.93887C7.0767 5.24061 8.74718 6.31197 8.7408 6.61325C8.74125 6.63914 8.74295 6.64448 8.73321 6.6573L8.77571 6.59265Z" fill="#FFFF00"/>
<path d="M8.77571 6.59265C8.87091 6.4046 7.84462 5.63148 6.57219 4.87873C5.27051 4.14097 4.33235 3.7067 4.16099 3.8362L4.12292 3.9055C4.12258 3.90931 4.1243 3.90078 4.13235 3.89457C4.16351 3.86738 4.21515 3.86922 4.23846 3.86879C4.53352 3.87321 5.37624 4.26103 6.55862 4.93887C7.0767 5.24061 8.74718 6.31197 8.7408 6.61325C8.74125 6.63914 8.74295 6.64448 8.73321 6.6573L8.77571 6.59265ZM8.77571 6.59265L8.7757 6.59261M3.96398 4.22126C4.11454 4.11914 5.22102 4.61206 6.37878 5.31017C7.53347 6.01028 8.63683 6.80139 8.53723 6.94945L8.50447 7.00098L8.48944 7.01283C8.49266 7.01053 8.50927 6.99023 8.48782 6.93534C8.43862 6.77346 7.65595 6.14891 6.35731 5.3648C5.09131 4.6099 4.03622 4.15491 3.93073 4.28496L3.96398 4.22126Z" stroke="black" stroke-width="0.01528" stroke-linecap="round" stroke-linejoin="round"/>
<path d="M4.81599 5.6258C4.81599 6.05969 4.99366 6.45212 5.28151 6.73892C5.56991 7.02634 5.96183 7.20769 6.39641 7.20769C6.83324 7.20769 7.22967 7.03029 7.51684 6.74399C7.80401 6.45772 7.98199 6.0626 7.98207 5.62719H7.98201V3.51548L4.81561 3.51172L4.81594 5.6258L4.81599 5.6258Z" fill="white" stroke="black" stroke-width="0.0178765" stroke-linejoin="bevel"/>
<path d="M4.87517 5.62866V5.62986C4.87517 6.04471 5.04694 6.4225 5.3225 6.69676C5.59861 6.97156 5.97887 7.14242 6.39487 7.14242C6.81303 7.14242 7.19253 6.9728 7.46746 6.69906C7.74234 6.42532 7.91271 6.04751 7.91277 5.63122H7.91271V3.58252L4.87698 3.58203L4.87512 5.62864M7.30238 4.19539L7.30248 5.49915L7.30138 5.63706C7.30138 5.67335 7.29921 5.71472 7.29498 5.74995C7.27031 5.95607 7.17551 6.13574 7.03511 6.2755C6.87075 6.43912 6.64389 6.5406 6.39386 6.5406C6.14514 6.5406 5.92349 6.43559 5.75842 6.27127C5.58909 6.10273 5.49095 5.87164 5.49095 5.63268L5.4906 4.19207L7.30233 4.19533L7.30238 4.19539Z" fill="#FF0000"/>
<path d="M4.87517 5.62866V5.62986C4.87517 6.04471 5.04694 6.4225 5.3225 6.69676C5.59861 6.97156 5.97887 7.14242 6.39487 7.14242C6.81303 7.14242 7.19253 6.9728 7.46746 6.69906C7.74234 6.42532 7.91271 6.04751 7.91277 5.63122H7.91271V3.58252L4.87698 3.58203L4.87512 5.62864M7.30238 4.19539L7.30248 5.49915L7.30138 5.63706C7.30138 5.67335 7.29921 5.71472 7.29498 5.74995C7.27031 5.95607 7.17551 6.13574 7.03511 6.2755C6.87075 6.43912 6.64389 6.5406 6.39386 6.5406C6.14514 6.5406 5.92349 6.43559 5.75842 6.27127C5.58909 6.10273 5.49095 5.87164 5.49095 5.63268L5.4906 4.19207L7.30233 4.19533L7.30238 4.19539Z" stroke="black" stroke-width="0.0135291"/>
<path d="M5.07147 4.11717C5.07507 3.96995 5.17954 3.93509 5.18029 3.93458C5.18104 3.93408 5.29313 3.97211 5.29275 4.11854L5.07147 4.11717Z" fill="#FFFF00"/>
<path d="M4.9815 3.93758L4.96332 4.10677L5.07373 4.10701C5.07479 3.96703 5.1797 3.94374 5.18224 3.94426C5.18462 3.94413 5.28861 3.97521 5.29139 4.10701H5.40208L5.38209 3.93652L4.98151 3.93753L4.9815 3.93758Z" fill="#FFFF00" stroke="black" stroke-width="0.0133333"/>
<path d="M4.95579 4.10742H5.40768C5.4172 4.10742 5.42499 4.11683 5.42499 4.12833C5.42499 4.13981 5.4172 4.14917 5.40768 4.14917H4.95579C4.94626 4.14917 4.93848 4.13981 4.93848 4.12833C4.93848 4.11683 4.94626 4.10742 4.95579 4.10742Z" fill="#FFFF00" stroke="black" stroke-width="0.0133333"/>
<path d="M5.12006 4.10743C5.12055 4.01909 5.18038 3.99409 5.18069 3.99414C5.18071 3.99414 5.24315 4.01992 5.24364 4.10743H5.12006Z" fill="#FFFF00" stroke="black" stroke-width="0.0133333"/>
<path d="M4.9654 3.86719H5.39859C5.40772 3.86719 5.4152 3.87568 5.4152 3.88598C5.4152 3.8963 5.40772 3.90477 5.39859 3.90477H4.9654C4.95627 3.90477 4.94879 3.89635 4.94879 3.88598C4.94879 3.87568 4.95627 3.86719 4.9654 3.86719Z" fill="#FFFF00" stroke="black" stroke-width="0.0133333"/>
<path d="M4.97449 3.90527H5.38884C5.39756 3.90527 5.40471 3.91372 5.40471 3.92404C5.40471 3.93439 5.39756 3.94283 5.38884 3.94283H4.97449C4.96577 3.94283 4.95862 3.93439 4.95862 3.92404C4.95862 3.91372 4.96577 3.90527 4.97449 3.90527Z" fill="#FFFF00" stroke="black" stroke-width="0.0133333"/>
<path d="M5.10832 3.62253L5.14103 3.62259V3.64582H5.1649V3.62207L5.19841 3.62218V3.64584H5.22235V3.62208H5.25589L5.25583 3.67573C5.25583 3.68415 5.24906 3.6896 5.24121 3.6896H5.12357C5.11567 3.6896 5.10838 3.68328 5.10836 3.67556L5.10828 3.62255L5.10832 3.62253Z" fill="#FFFF00" stroke="black" stroke-width="0.0133333"/>
<path d="M5.23156 3.69576L5.23895 3.8678L5.12421 3.86737L5.1318 3.69531L5.23156 3.69576Z" fill="#FFFF00" stroke="black" stroke-width="0.0133333"/>
<path d="M5.09156 3.77539L5.09506 3.86812L4.98505 3.86818L4.98815 3.7754L5.09156 3.77539Z" fill="#FFFF00" stroke="black" stroke-width="0.0133333"/>
<path d="M5.37452 3.77539L5.37802 3.86812L5.26801 3.86818L5.27111 3.7754L5.37452 3.77539Z" fill="#FFFF00" stroke="black" stroke-width="0.0133333"/>
<path d="M4.96781 3.70749L4.9998 3.70757V3.73083H5.0232V3.70703L5.05598 3.70714V3.73084H5.07943V3.70704L5.11223 3.7071L5.11218 3.76074C5.11218 3.76912 5.10555 3.77457 5.09788 3.77457H4.98276C4.97505 3.77457 4.96788 3.76829 4.96785 3.76055L4.96777 3.70752L4.96781 3.70749Z" fill="#FFFF00" stroke="black" stroke-width="0.0133333"/>
<path d="M5.25077 3.70749L5.28276 3.70757V3.73083H5.30616V3.70703L5.33894 3.70714V3.73084H5.36239V3.70704L5.39519 3.7071L5.39514 3.76074C5.39514 3.76912 5.38851 3.77457 5.38084 3.77457H5.26572C5.25801 3.77457 5.25084 3.76829 5.25081 3.76055L5.25073 3.70752L5.25077 3.70749Z" fill="#FFFF00" stroke="black" stroke-width="0.0133333"/>
<path d="M5.17055 3.74992C5.16984 3.73319 5.19392 3.73301 5.19364 3.74992V3.79089H5.17055L5.17055 3.74992Z" fill="black"/>
<path d="M5.02832 3.80814C5.02824 3.79198 5.05064 3.79165 5.05036 3.80814V3.8398H5.02833L5.02832 3.80814Z" fill="black"/>
<path d="M5.31207 3.80814C5.31199 3.79198 5.33439 3.79165 5.33411 3.80814V3.8398H5.31208L5.31207 3.80814Z" fill="black"/>
<path d="M5.07147 5.35252C5.07507 5.2053 5.17954 5.17044 5.18029 5.16993C5.18104 5.16943 5.29313 5.20746 5.29275 5.35389L5.07147 5.35252Z" fill="#FFFF00"/>
<path d="M4.9815 5.17391L4.96332 5.3431L5.07373 5.34334C5.07479 5.20336 5.1797 5.18007 5.18224 5.18059C5.18462 5.18045 5.28861 5.21154 5.29139 5.34334H5.40208L5.38209 5.17285L4.98151 5.17386L4.9815 5.17391Z" fill="#FFFF00" stroke="black" stroke-width="0.0133333"/>
<path d="M4.95579 5.34277H5.40768C5.4172 5.34277 5.42499 5.35218 5.42499 5.36368C5.42499 5.37516 5.4172 5.38452 5.40768 5.38452H4.95579C4.94626 5.38452 4.93848 5.37516 4.93848 5.36368C4.93848 5.35218 4.94626 5.34277 4.95579 5.34277Z" fill="#FFFF00" stroke="black" stroke-width="0.0133333"/>
<path d="M5.12006 5.34278C5.12055 5.25444 5.18038 5.22944 5.18069 5.22949C5.18071 5.22949 5.24315 5.25527 5.24364 5.34278H5.12006Z" fill="#FFFF00" stroke="black" stroke-width="0.0133333"/>
<path d="M4.9654 5.10352H5.39859C5.40772 5.10352 5.4152 5.11201 5.4152 5.12231C5.4152 5.13263 5.40772 5.1411 5.39859 5.1411H4.9654C4.95627 5.1411 4.94879 5.13268 4.94879 5.12231C4.94879 5.11201 4.95627 5.10352 4.9654 5.10352Z" fill="#FFFF00" stroke="black" stroke-width="0.0133333"/>
<path d="M4.97449 5.14062H5.38884C5.39756 5.14062 5.40471 5.14907 5.40471 5.15939C5.40471 5.16974 5.39756 5.17818 5.38884 5.17818H4.97449C4.96577 5.17818 4.95862 5.16974 4.95862 5.15939C4.95862 5.14907 4.96577 5.14062 4.97449 5.14062Z" fill="#FFFF00" stroke="black" stroke-width="0.0133333"/>
<path d="M5.10832 4.85789L5.14103 4.85794V4.88118H5.1649V4.85742L5.19841 4.85753V4.88119H5.22235V4.85743H5.25589L5.25583 4.91108C5.25583 4.9195 5.24906 4.92496 5.24121 4.92496H5.12357C5.11567 4.92496 5.10838 4.91863 5.10836 4.91092L5.10828 4.8579L5.10832 4.85789Z" fill="#FFFF00" stroke="black" stroke-width="0.0133333"/>
<path d="M5.23156 4.93014L5.23895 5.10217L5.12421 5.10175L5.1318 4.92969L5.23156 4.93014Z" fill="#FFFF00" stroke="black" stroke-width="0.0133333"/>
<path d="M5.09156 5.00977L5.09506 5.1025L4.98505 5.10255L4.98815 5.00977L5.09156 5.00977Z" fill="#FFFF00" stroke="black" stroke-width="0.0133333"/>
<path d="M5.37452 5.00977L5.37802 5.1025L5.26801 5.10255L5.27111 5.00977L5.37452 5.00977Z" fill="#FFFF00" stroke="black" stroke-width="0.0133333"/>
<path d="M4.96781 4.94187L4.9998 4.94195V4.96521H5.0232V4.94141L5.05598 4.94151V4.96522H5.07943V4.94142L5.11223 4.94147L5.11218 4.99512C5.11218 5.00349 5.10555 5.00895 5.09788 5.00895H4.98276C4.97505 5.00895 4.96788 5.00267 4.96785 4.99493L4.96777 4.94189L4.96781 4.94187Z" fill="#FFFF00" stroke="black" stroke-width="0.0133333"/>
<path d="M5.25077 4.94187L5.28276 4.94195V4.96521H5.30616V4.94141L5.33894 4.94151V4.96522H5.36239V4.94142L5.39519 4.94147L5.39514 4.99512C5.39514 5.00349 5.38851 5.00895 5.38084 5.00895H5.26572C5.25801 5.00895 5.25084 5.00267 5.25081 4.99493L5.25073 4.94189L5.25077 4.94187Z" fill="#FFFF00" stroke="black" stroke-width="0.0133333"/>
<path d="M5.17055 4.98429C5.16984 4.96757 5.19392 4.96738 5.19364 4.98429V5.02526H5.17055L5.17055 4.98429Z" fill="black"/>
<path d="M5.02832 5.04447C5.02824 5.02831 5.05064 5.02798 5.05036 5.04447V5.07612H5.02833L5.02832 5.04447Z" fill="black"/>
<path d="M5.31207 5.04447C5.31199 5.02831 5.33439 5.02798 5.33411 5.04447V5.07612H5.31208L5.31207 5.04447Z" fill="black"/>
<path d="M5.55328 6.63843C5.45134 6.53214 5.50022 6.43345 5.50038 6.43255C5.50056 6.43167 5.60652 6.37893 5.71016 6.48237L5.55328 6.63843Z" fill="#FFFF00"/>
<path d="M5.36219 6.57573L5.46944 6.70785L5.54741 6.62967C5.44882 6.53028 5.50622 6.43943 5.50838 6.43799C5.50996 6.43621 5.60529 6.38432 5.70077 6.47522L5.77877 6.39667L5.64371 6.29073L5.36217 6.5757L5.36219 6.57573Z" fill="#FFFF00" stroke="black" stroke-width="0.0133333"/>
<path d="M5.46471 6.7133L5.78312 6.39264C5.78983 6.38588 5.80199 6.38699 5.81015 6.39509C5.81829 6.40318 5.81945 6.4153 5.81274 6.42206L5.49433 6.74272C5.48762 6.74948 5.47549 6.7484 5.46735 6.74032C5.45919 6.73221 5.458 6.72006 5.46471 6.7133Z" fill="#FFFF00" stroke="black" stroke-width="0.0133333"/>
<path d="M5.57996 6.59643C5.51763 6.53383 5.54204 6.47376 5.54229 6.47358C5.54231 6.47356 5.60459 6.44742 5.66704 6.50873L5.57996 6.59643Z" fill="#FFFF00" stroke="black" stroke-width="0.0133333"/>
<path d="M5.30094 6.53802L5.60618 6.23063C5.61261 6.22415 5.6239 6.22483 5.63121 6.23208C5.63854 6.23936 5.63928 6.25063 5.63285 6.25711L5.32761 6.5645C5.32118 6.57098 5.30994 6.57035 5.30258 6.56305C5.29527 6.55579 5.29452 6.5445 5.30094 6.53802Z" fill="#FFFF00" stroke="black" stroke-width="0.0133333"/>
<path d="M5.33424 6.55709L5.6262 6.26308C5.63234 6.25689 5.64337 6.25776 5.6507 6.26504C5.65804 6.27233 5.659 6.28335 5.65285 6.28954L5.3609 6.58356C5.35475 6.58975 5.34372 6.58887 5.33638 6.58158C5.32905 6.57431 5.3281 6.56329 5.33424 6.55709Z" fill="#FFFF00" stroke="black" stroke-width="0.0133333"/>
<path d="M5.22814 6.26299L5.25123 6.23982L5.26772 6.25619L5.28454 6.23925L5.26768 6.22252L5.29137 6.19881L5.30816 6.21548L5.32503 6.19849L5.30817 6.18176L5.3318 6.15796L5.36983 6.1958C5.3758 6.20173 5.3749 6.21038 5.36937 6.21595L5.28648 6.29943C5.28092 6.30503 5.27129 6.30575 5.2658 6.30033L5.22813 6.26304L5.22814 6.26299Z" fill="#FFFF00" stroke="black" stroke-width="0.0133333"/>
<path d="M5.36594 6.22687L5.49322 6.34285L5.41207 6.42397L5.29533 6.29734L5.36594 6.22687Z" fill="#FFFF00" stroke="black" stroke-width="0.0133333"/>
<path d="M5.32383 6.38243L5.3921 6.44528L5.31462 6.52339L5.25097 6.45581L5.32383 6.38243Z" fill="#FFFF00" stroke="black" stroke-width="0.0133333"/>
<path d="M5.52311 6.18126L5.59138 6.24411L5.5139 6.32221L5.45025 6.25464L5.52311 6.18126Z" fill="#FFFF00" stroke="black" stroke-width="0.0133333"/>
<path d="M5.18895 6.42315L5.21155 6.40051L5.22805 6.4169L5.24454 6.40029L5.22765 6.38352L5.25083 6.36034L5.26765 6.37704L5.28417 6.3604L5.26728 6.34363L5.29043 6.32039L5.32846 6.35823C5.3344 6.36413 5.3336 6.37268 5.3282 6.37812L5.24709 6.4598C5.24165 6.46528 5.23214 6.46594 5.22664 6.46051L5.18895 6.4232L5.18895 6.42315Z" fill="#FFFF00" stroke="black" stroke-width="0.0133333"/>
<path d="M5.38829 6.22198L5.41089 6.19934L5.42739 6.21573L5.44388 6.19912L5.42699 6.18235L5.45017 6.15916L5.46699 6.17587L5.48351 6.15923L5.46662 6.14246L5.48977 6.11922L5.5278 6.15706C5.53374 6.16295 5.53294 6.1715 5.52754 6.17695L5.44643 6.25863C5.44099 6.26411 5.43148 6.26477 5.42598 6.25934L5.38829 6.22202L5.38829 6.22198Z" fill="#FFFF00" stroke="black" stroke-width="0.0133333"/>
<path d="M5.3615 6.30868C5.34914 6.2974 5.36597 6.28018 5.37777 6.29229L5.40684 6.32116L5.39057 6.33755L5.3615 6.30868Z" fill="black"/>
<path d="M5.30349 6.45198C5.29197 6.44066 5.30751 6.42453 5.31901 6.43635L5.34148 6.45865L5.32596 6.47428L5.30349 6.45198Z" fill="black"/>
<path d="M5.5035 6.24984C5.49198 6.23851 5.50753 6.22238 5.51903 6.2342L5.54149 6.25651L5.52597 6.27214L5.5035 6.24984Z" fill="black"/>
<path d="M6.29065 4.11717C6.29425 3.96995 6.39871 3.93509 6.39947 3.93458C6.40022 3.93408 6.5123 3.97211 6.51193 4.11854L6.29065 4.11717Z" fill="#FFFF00"/>
<path d="M6.20055 3.93758L6.18237 4.10677L6.29279 4.10701C6.29385 3.96703 6.39876 3.94374 6.4013 3.94426C6.40367 3.94413 6.50767 3.97521 6.51044 4.10701H6.62114L6.60115 3.93652L6.20056 3.93753L6.20055 3.93758Z" fill="#FFFF00" stroke="black" stroke-width="0.0133333"/>
<path d="M6.17484 4.10742H6.62673C6.63626 4.10742 6.64404 4.11683 6.64404 4.12833C6.64404 4.13981 6.63626 4.14917 6.62673 4.14917H6.17484C6.16532 4.14917 6.15753 4.13981 6.15753 4.12833C6.15753 4.11683 6.16532 4.10742 6.17484 4.10742Z" fill="#FFFF00" stroke="black" stroke-width="0.0133333"/>
<path d="M6.33911 4.10743C6.3396 4.01909 6.39943 3.99409 6.39974 3.99414C6.39976 3.99414 6.4622 4.01992 6.4627 4.10743H6.33911Z" fill="#FFFF00" stroke="black" stroke-width="0.0133333"/>
<path d="M6.18451 3.86719H6.61771C6.62684 3.86719 6.63431 3.87568 6.63431 3.88598C6.63431 3.8963 6.62684 3.90477 6.61771 3.90477H6.18451C6.17539 3.90477 6.16791 3.89635 6.16791 3.88598C6.16791 3.87568 6.17539 3.86719 6.18451 3.86719Z" fill="#FFFF00" stroke="black" stroke-width="0.0133333"/>
<path d="M6.19355 3.90527H6.60789C6.61662 3.90527 6.62377 3.91372 6.62377 3.92404C6.62377 3.93439 6.61662 3.94283 6.60789 3.94283H6.19355C6.18482 3.94283 6.17767 3.93439 6.17767 3.92404C6.17767 3.91372 6.18482 3.90527 6.19355 3.90527Z" fill="#FFFF00" stroke="black" stroke-width="0.0133333"/>
<path d="M6.32743 3.62253L6.36015 3.62259V3.64582H6.38402V3.62207L6.41753 3.62218V3.64584H6.44147V3.62208H6.475L6.47495 3.67573C6.47495 3.68415 6.46818 3.6896 6.46032 3.6896H6.34269C6.33479 3.6896 6.3275 3.68328 6.32747 3.67556L6.32739 3.62255L6.32743 3.62253Z" fill="#FFFF00" stroke="black" stroke-width="0.0133333"/>
<path d="M6.45068 3.69576L6.45806 3.8678L6.34332 3.86737L6.35092 3.69531L6.45068 3.69576Z" fill="#FFFF00" stroke="black" stroke-width="0.0133333"/>
<path d="M6.31061 3.77539L6.31412 3.86812L6.2041 3.86818L6.20721 3.7754L6.31061 3.77539Z" fill="#FFFF00" stroke="black" stroke-width="0.0133333"/>
<path d="M6.59357 3.77539L6.59708 3.86812L6.48706 3.86818L6.49016 3.7754L6.59357 3.77539Z" fill="#FFFF00" stroke="black" stroke-width="0.0133333"/>
<path d="M6.18687 3.70749L6.21885 3.70757V3.73083H6.24225V3.70703L6.27504 3.70714V3.73084H6.29848V3.70704L6.33129 3.7071L6.33123 3.76074C6.33123 3.76912 6.3246 3.77457 6.31694 3.77457H6.20182C6.19411 3.77457 6.18693 3.76829 6.18691 3.76055L6.18683 3.70752L6.18687 3.70749Z" fill="#FFFF00" stroke="black" stroke-width="0.0133333"/>
<path d="M6.46983 3.70749L6.50181 3.70757V3.73083H6.52521V3.70703L6.55799 3.70714V3.73084H6.58144V3.70704L6.61425 3.7071L6.61419 3.76074C6.61419 3.76912 6.60756 3.77457 6.5999 3.77457H6.48478C6.47706 3.77457 6.46989 3.76829 6.46987 3.76055L6.46979 3.70752L6.46983 3.70749Z" fill="#FFFF00" stroke="black" stroke-width="0.0133333"/>
<path d="M6.3896 3.74992C6.3889 3.73319 6.41298 3.73301 6.4127 3.74992V3.79089H6.3896L6.3896 3.74992Z" fill="black"/>
<path d="M6.24738 3.80814C6.2473 3.79198 6.26969 3.79165 6.26941 3.80814V3.8398H6.24738L6.24738 3.80814Z" fill="black"/>
<path d="M6.53119 3.80814C6.53111 3.79198 6.55351 3.79165 6.55322 3.80814V3.8398H6.5312L6.53119 3.80814Z" fill="black"/>
<path d="M7.72266 4.11717C7.71906 3.96995 7.61459 3.93509 7.61384 3.93458C7.61309 3.93408 7.501 3.97211 7.50138 4.11854L7.72266 4.11717Z" fill="#FFFF00"/>
<path d="M7.81275 3.93758L7.83093 4.10677L7.72052 4.10701C7.71946 3.96703 7.61455 3.94374 7.61201 3.94426C7.60963 3.94413 7.50564 3.97521 7.50286 4.10701H7.39217L7.41216 3.93652L7.81274 3.93753L7.81275 3.93758Z" fill="#FFFF00" stroke="black" stroke-width="0.0133333"/>
<path d="M7.83834 4.10742H7.38645C7.37692 4.10742 7.36914 4.11683 7.36914 4.12833C7.36914 4.13981 7.37692 4.14917 7.38645 4.14917H7.83834C7.84787 4.14917 7.85565 4.13981 7.85565 4.12833C7.85565 4.11683 7.84787 4.10742 7.83834 4.10742Z" fill="#FFFF00" stroke="black" stroke-width="0.0133333"/>
<path d="M7.67407 4.10743C7.67358 4.01909 7.61375 3.99409 7.61344 3.99414C7.61342 3.99414 7.55098 4.01992 7.55049 4.10743H7.67407Z" fill="#FFFF00" stroke="black" stroke-width="0.0133333"/>
<path d="M7.82879 3.86719H7.39559C7.38647 3.86719 7.37899 3.87568 7.37899 3.88598C7.37899 3.8963 7.38647 3.90477 7.39559 3.90477H7.82879C7.83792 3.90477 7.8454 3.89635 7.8454 3.88598C7.8454 3.87568 7.83792 3.86719 7.82879 3.86719Z" fill="#FFFF00" stroke="black" stroke-width="0.0133333"/>
<path d="M7.81976 3.90527H7.40541C7.39669 3.90527 7.38954 3.91372 7.38954 3.92404C7.38954 3.93439 7.39669 3.94283 7.40541 3.94283H7.81976C7.82848 3.94283 7.83563 3.93439 7.83563 3.92404C7.83563 3.91372 7.82848 3.90527 7.81976 3.90527Z" fill="#FFFF00" stroke="black" stroke-width="0.0133333"/>
<path d="M7.68581 3.62253L7.6531 3.62259V3.64582H7.62923V3.62207L7.59572 3.62218V3.64584H7.57178V3.62208H7.53824L7.53829 3.67573C7.53829 3.68415 7.54507 3.6896 7.55292 3.6896H7.67056C7.67846 3.6896 7.68575 3.68328 7.68577 3.67556L7.68585 3.62255L7.68581 3.62253Z" fill="#FFFF00" stroke="black" stroke-width="0.0133333"/>
<path d="M7.56269 3.69576L7.5553 3.8678L7.67004 3.86737L7.66245 3.69531L7.56269 3.69576Z" fill="#FFFF00" stroke="black" stroke-width="0.0133333"/>
<path d="M7.70263 3.77539L7.69913 3.86812L7.80914 3.86818L7.80604 3.7754L7.70263 3.77539Z" fill="#FFFF00" stroke="black" stroke-width="0.0133333"/>
<path d="M7.41973 3.77539L7.41623 3.86812L7.52625 3.86818L7.52314 3.7754L7.41973 3.77539Z" fill="#FFFF00" stroke="black" stroke-width="0.0133333"/>
<path d="M7.82638 3.70749L7.79439 3.70757V3.73083H7.77099V3.70703L7.73821 3.70714V3.73084H7.71476V3.70704L7.68196 3.7071L7.68201 3.76074C7.68201 3.76912 7.68864 3.77457 7.69631 3.77457H7.81143C7.81914 3.77457 7.82631 3.76829 7.82634 3.76055L7.82642 3.70752L7.82638 3.70749Z" fill="#FFFF00" stroke="black" stroke-width="0.0133333"/>
<path d="M7.54348 3.70749L7.51149 3.70757V3.73083H7.48809V3.70703L7.45531 3.70714V3.73084H7.43186V3.70704L7.39906 3.7071L7.39911 3.76074C7.39911 3.76912 7.40574 3.77457 7.41341 3.77457H7.52853C7.53624 3.77457 7.54341 3.76829 7.54344 3.76055L7.54352 3.70752L7.54348 3.70749Z" fill="#FFFF00" stroke="black" stroke-width="0.0133333"/>
<path d="M7.62376 3.74992C7.62447 3.73319 7.60039 3.73301 7.60067 3.74992V3.79089H7.62376L7.62376 3.74992Z" fill="black"/>
<path d="M7.76581 3.80814C7.76589 3.79198 7.74349 3.79165 7.74377 3.80814V3.8398H7.7658L7.76581 3.80814Z" fill="black"/>
<path d="M7.48212 3.80814C7.4822 3.79198 7.4598 3.79165 7.46008 3.80814V3.8398H7.48211L7.48212 3.80814Z" fill="black"/>
<path d="M7.72266 5.35252C7.71906 5.2053 7.61459 5.17044 7.61384 5.16993C7.61309 5.16943 7.501 5.20746 7.50138 5.35389L7.72266 5.35252Z" fill="#FFFF00"/>
<path d="M7.81275 5.17391L7.83093 5.3431L7.72052 5.34334C7.71946 5.20336 7.61455 5.18007 7.61201 5.18059C7.60963 5.18045 7.50564 5.21154 7.50286 5.34334H7.39217L7.41216 5.17285L7.81274 5.17386L7.81275 5.17391Z" fill="#FFFF00" stroke="black" stroke-width="0.0133333"/>
<path d="M7.83834 5.34277H7.38645C7.37692 5.34277 7.36914 5.35218 7.36914 5.36368C7.36914 5.37516 7.37692 5.38452 7.38645 5.38452H7.83834C7.84787 5.38452 7.85565 5.37516 7.85565 5.36368C7.85565 5.35218 7.84787 5.34277 7.83834 5.34277Z" fill="#FFFF00" stroke="black" stroke-width="0.0133333"/>
<path d="M7.67407 5.34278C7.67358 5.25444 7.61375 5.22944 7.61344 5.22949C7.61342 5.22949 7.55098 5.25527 7.55049 5.34278H7.67407Z" fill="#FFFF00" stroke="black" stroke-width="0.0133333"/>
<path d="M7.82879 5.10352H7.39559C7.38647 5.10352 7.37899 5.11201 7.37899 5.12231C7.37899 5.13263 7.38647 5.1411 7.39559 5.1411H7.82879C7.83792 5.1411 7.8454 5.13268 7.8454 5.12231C7.8454 5.11201 7.83792 5.10352 7.82879 5.10352Z" fill="#FFFF00" stroke="black" stroke-width="0.0133333"/>
<path d="M7.81976 5.14062H7.40541C7.39669 5.14062 7.38954 5.14907 7.38954 5.15939C7.38954 5.16974 7.39669 5.17818 7.40541 5.17818H7.81976C7.82848 5.17818 7.83563 5.16974 7.83563 5.15939C7.83563 5.14907 7.82848 5.14062 7.81976 5.14062Z" fill="#FFFF00" stroke="black" stroke-width="0.0133333"/>
<path d="M7.68581 4.85789L7.6531 4.85794V4.88118H7.62923V4.85742L7.59572 4.85753V4.88119H7.57178V4.85743H7.53824L7.53829 4.91108C7.53829 4.9195 7.54507 4.92496 7.55292 4.92496H7.67056C7.67846 4.92496 7.68575 4.91863 7.68577 4.91092L7.68585 4.8579L7.68581 4.85789Z" fill="#FFFF00" stroke="black" stroke-width="0.0133333"/>
<path d="M7.56269 4.93014L7.5553 5.10217L7.67004 5.10175L7.66245 4.92969L7.56269 4.93014Z" fill="#FFFF00" stroke="black" stroke-width="0.0133333"/>
<path d="M7.70263 5.00977L7.69913 5.1025L7.80914 5.10255L7.80604 5.00977L7.70263 5.00977Z" fill="#FFFF00" stroke="black" stroke-width="0.0133333"/>
<path d="M7.41973 5.00977L7.41623 5.1025L7.52625 5.10255L7.52314 5.00977L7.41973 5.00977Z" fill="#FFFF00" stroke="black" stroke-width="0.0133333"/>
<path d="M7.82638 4.94187L7.79439 4.94195V4.96521H7.77099V4.94141L7.73821 4.94151V4.96522H7.71476V4.94142L7.68196 4.94147L7.68201 4.99512C7.68201 5.00349 7.68864 5.00895 7.69631 5.00895H7.81143C7.81914 5.00895 7.82631 5.00267 7.82634 4.99493L7.82642 4.94189L7.82638 4.94187Z" fill="#FFFF00" stroke="black" stroke-width="0.0133333"/>
<path d="M7.54348 4.94187L7.51149 4.94195V4.96521H7.48809V4.94141L7.45531 4.94151V4.96522H7.43186V4.94142L7.39906 4.94147L7.39911 4.99512C7.39911 5.00349 7.40574 5.00895 7.41341 5.00895H7.52853C7.53624 5.00895 7.54341 5.00267 7.54344 4.99493L7.54352 4.94189L7.54348 4.94187Z" fill="#FFFF00" stroke="black" stroke-width="0.0133333"/>
<path d="M7.62376 4.98429C7.62447 4.96757 7.60039 4.96738 7.60067 4.98429V5.02526H7.62376L7.62376 4.98429Z" fill="black"/>
<path d="M7.76581 5.04447C7.76589 5.02831 7.74349 5.02798 7.74377 5.04447V5.07612H7.7658L7.76581 5.04447Z" fill="black"/>
<path d="M7.48212 5.04447C7.4822 5.02831 7.4598 5.02798 7.46008 5.04447V5.07612H7.48211L7.48212 5.04447Z" fill="black"/>
<path d="M7.24115 6.63941C7.34309 6.53311 7.29421 6.43443 7.29405 6.43353C7.29387 6.43265 7.18791 6.37991 7.08427 6.48335L7.24115 6.63941Z" fill="#FFFF00"/>
<path d="M7.43218 6.57671L7.32493 6.70882L7.24696 6.63064C7.34555 6.53126 7.28815 6.44041 7.28599 6.43897C7.28441 6.43719 7.18908 6.3853 7.0936 6.4762L7.01561 6.39765L7.15067 6.29171L7.43221 6.57667L7.43218 6.57671Z" fill="#FFFF00" stroke="black" stroke-width="0.0133333"/>
<path d="M7.32972 6.7133L7.01131 6.39264C7.0046 6.38588 6.99244 6.38699 6.98428 6.39509C6.97614 6.40318 6.97498 6.4153 6.98169 6.42206L7.3001 6.74272C7.30681 6.74948 7.31894 6.7484 7.32708 6.74032C7.33524 6.73221 7.33643 6.72006 7.32972 6.7133Z" fill="#FFFF00" stroke="black" stroke-width="0.0133333"/>
<path d="M7.21453 6.59545C7.27687 6.53286 7.25245 6.47279 7.2522 6.4726C7.25219 6.47259 7.1899 6.44644 7.12745 6.50775L7.21453 6.59545Z" fill="#FFFF00" stroke="black" stroke-width="0.0133333"/>
<path d="M7.49343 6.53705L7.18819 6.22965C7.18176 6.22317 7.17047 6.22385 7.16316 6.23111C7.15583 6.23838 7.15509 6.24966 7.16152 6.25613L7.46676 6.56353C7.47319 6.57 7.48443 6.56938 7.49179 6.56207C7.4991 6.55481 7.49986 6.54352 7.49343 6.53705Z" fill="#FFFF00" stroke="black" stroke-width="0.0133333"/>
<path d="M7.46019 6.55807L7.16824 6.26405C7.16209 6.25786 7.15106 6.25874 7.14373 6.26601C7.13639 6.2733 7.13544 6.28433 7.14159 6.29052L7.43354 6.58454C7.43969 6.59073 7.45071 6.58985 7.45806 6.58256C7.46538 6.57529 7.46634 6.56426 7.46019 6.55807Z" fill="#FFFF00" stroke="black" stroke-width="0.0133333"/>
<path d="M7.56623 6.26397L7.54314 6.2408L7.52666 6.25717L7.50984 6.24023L7.52669 6.22349L7.503 6.19979L7.48621 6.21646L7.46935 6.19947L7.4862 6.18273L7.46257 6.15894L7.42454 6.19677C7.41857 6.20271 7.41947 6.21136 7.425 6.21693L7.50789 6.3004C7.51346 6.30601 7.52308 6.30673 7.52857 6.30131L7.56625 6.26401L7.56623 6.26397Z" fill="#FFFF00" stroke="black" stroke-width="0.0133333"/>
<path d="M7.42849 6.22687L7.30121 6.34285L7.38236 6.42397L7.4991 6.29734L7.42849 6.22687Z" fill="#FFFF00" stroke="black" stroke-width="0.0133333"/>
<path d="M7.47061 6.38243L7.40233 6.44528L7.47981 6.52339L7.54346 6.45581L7.47061 6.38243Z" fill="#FFFF00" stroke="black" stroke-width="0.0133333"/>
<path d="M7.27133 6.18126L7.20305 6.24411L7.28053 6.32221L7.34418 6.25464L7.27133 6.18126Z" fill="#FFFF00" stroke="black" stroke-width="0.0133333"/>
<path d="M7.60536 6.42217L7.58276 6.39953L7.56626 6.41592L7.54977 6.39932L7.56666 6.38255L7.54349 6.35936L7.52666 6.37606L7.51014 6.35942L7.52703 6.34265L7.50388 6.31941L7.46585 6.35725C7.45991 6.36315 7.46071 6.3717 7.46611 6.37714L7.54722 6.45883C7.55266 6.4643 7.56217 6.46497 7.56768 6.45953L7.60537 6.42222L7.60536 6.42217Z" fill="#FFFF00" stroke="black" stroke-width="0.0133333"/>
<path d="M7.40608 6.22295L7.38349 6.20031L7.36698 6.2167L7.35049 6.2001L7.36738 6.18333L7.34421 6.16014L7.32738 6.17684L7.31086 6.16021L7.32775 6.14344L7.3046 6.12019L7.26657 6.15803C7.26063 6.16393 7.26143 6.17248 7.26683 6.17792L7.34794 6.25961C7.35338 6.26508 7.36289 6.26575 7.3684 6.26031L7.40609 6.223L7.40608 6.22295Z" fill="#FFFF00" stroke="black" stroke-width="0.0133333"/>
<path d="M7.43287 6.30868C7.44524 6.2974 7.4284 6.28018 7.4166 6.29229L7.38753 6.32116L7.4038 6.33755L7.43287 6.30868Z" fill="black"/>
<path d="M7.49095 6.45198C7.50247 6.44066 7.48692 6.42453 7.47542 6.43635L7.45296 6.45865L7.46848 6.47428L7.49095 6.45198Z" fill="black"/>
<path d="M7.29093 6.24984C7.30246 6.23851 7.28691 6.22238 7.27541 6.2342L7.25295 6.25651L7.26847 6.27214L7.29093 6.24984Z" fill="black"/>
<path d="M6.20369 5.39746V5.39759C6.20369 5.45658 6.22633 5.51032 6.26267 5.54931C6.29907 5.58842 6.34921 5.61272 6.40406 5.61272C6.45918 5.61272 6.50923 5.58859 6.54547 5.54964C6.58168 5.51074 6.60419 5.45705 6.60419 5.39783V5.11068L6.2044 5.11035L6.20369 5.39746Z" fill="#003399"/>
<path d="M6.20363 4.70312V4.70326C6.20363 4.76224 6.22627 4.81598 6.26261 4.85498C6.29901 4.89409 6.34915 4.91838 6.40399 4.91838C6.45912 4.91838 6.50917 4.89425 6.54541 4.8553C6.58162 4.8164 6.60413 4.76271 6.60413 4.70349V4.41634L6.20434 4.41602L6.20363 4.70312Z" fill="#003399"/>
<path d="M5.649 5.39746V5.39759C5.649 5.45658 5.67165 5.51032 5.70798 5.54931C5.74439 5.58842 5.79453 5.61272 5.84937 5.61272C5.90449 5.61272 5.95454 5.58859 5.99078 5.54964C6.02699 5.51074 6.0495 5.45705 6.0495 5.39783V5.11068L5.64971 5.11035L5.649 5.39746Z" fill="#003399"/>
<path d="M6.75667 5.39746V5.39759C6.75667 5.45658 6.77931 5.51032 6.81565 5.54931C6.85205 5.58842 6.90219 5.61272 6.95703 5.61272C7.01216 5.61272 7.0622 5.58859 7.09844 5.54964C7.13466 5.51074 7.15717 5.45705 7.15717 5.39783V5.11068L6.75738 5.11035L6.75667 5.39746Z" fill="#003399"/>
<path d="M6.20369 6.08496V6.08509C6.20369 6.14408 6.22633 6.19782 6.26267 6.23681C6.29907 6.27592 6.34921 6.30022 6.40406 6.30022C6.45918 6.30022 6.50923 6.27609 6.54547 6.23714C6.58168 6.19824 6.60419 6.14455 6.60419 6.08533V5.79818L6.2044 5.79785L6.20369 6.08496Z" fill="#003399"/>
</g>
<defs>
<clipPath id="clip0_40004688_82702">
<rect width="16" height="10.6667" fill="white"/>
</clipPath>
</defs>
</svg>
