<svg width="20" height="20" fill="none" xmlns="http://www.w3.org/2000/svg"><circle cx="10" cy="10" r="10" fill="#F9F9F9"/><path d="M14.23 6.864A5.441 5.441 0 0 0 14 5.52a2.415 2.415 0 0 0-.166-.422 3.12 3.12 0 0 0-.27-.525 3.618 3.618 0 0 0-.357-.467 4.62 4.62 0 0 0-.884-.775 5.439 5.439 0 0 0-.25-.16c-.082-.051-.172-.096-.255-.14a3.321 3.321 0 0 0-.263-.129l-.134-.057-.134-.058a6.916 6.916 0 0 0-1.127-.339c.384.083.762.198 1.127.346l.134.057.134.058c.09.045.18.083.263.134.09.045.173.096.256.147.083.052.166.103.25.16a4.399 4.399 0 0 1 1.228 1.242c.103.166.199.34.269.518.07.135.115.276.16.416.045.141.077.288.109.436.057.294.096.595.108.896a4.628 4.628 0 0 1-.262 1.772 4.05 4.05 0 0 1-.397.8 3.68 3.68 0 0 1-.57.692 3.272 3.272 0 0 1-.71.544 2.914 2.914 0 0 1-.832.32 2.67 2.67 0 0 1-1.74-.218 2.605 2.605 0 0 1-.724-.512 2.401 2.401 0 0 1-.281-.34 1.498 1.498 0 0 1-.186-.396 1.921 1.921 0 0 1-.083-.87 1.354 1.354 0 0 1 .378-.768 1.55 1.55 0 0 1 .351-.256.768.768 0 0 1 .404-.11c.07.007.134.026.198.052a.65.65 0 0 1 .173.122c.032.032.07.07.096.102-.013-.006-.02-.013-.032-.013a.844.844 0 0 0-.333-.077.574.574 0 0 0-.333.11.95.95 0 0 0-.237.242c-.121.186-.204.39-.23.615-.032.217 0 .448.077.653.077.204.192.396.333.556.07.084.147.16.236.23.09.071.18.129.276.174.384.198.825.288 1.254.256a2.5 2.5 0 0 0 1.21-.423c.179-.121.339-.262.492-.416.154-.153.295-.313.416-.486.25-.346.442-.736.557-1.152.058-.205.096-.416.122-.627l.02-.16a2.67 2.67 0 0 0 .013-.48 4.635 4.635 0 0 0-.244-1.255 3.88 3.88 0 0 0-.608-1.12 4.277 4.277 0 0 0-.436-.467 3.315 3.315 0 0 0-.499-.397 4.297 4.297 0 0 0-1.145-.55 4.95 4.95 0 0 0-1.255-.211c-.422-.02-.85.019-1.267.102-.416.083-.82.218-1.21.384-.192.083-.384.18-.57.275a5.046 5.046 0 0 0-.537.333 5.95 5.95 0 0 1 1.12-.608c.39-.166.794-.294 1.21-.371a5.214 5.214 0 0 1 1.26-.096c.423.019.845.09 1.249.217a4.178 4.178 0 0 1 2.054 1.414c.263.334.46.711.595 1.108.135.397.218.82.237 1.235.007.103.007.211 0 .314-.006.102-.02.205-.032.313a4.094 4.094 0 0 1-.121.621c-.116.403-.301.787-.55 1.127a4.83 4.83 0 0 1-.41.473 3.205 3.205 0 0 1-.48.403 2.317 2.317 0 0 1-2.369.154 1.758 1.758 0 0 1-.256-.166 1.4 1.4 0 0 1-.217-.218 1.79 1.79 0 0 1-.314-.531 1.281 1.281 0 0 1-.07-.602 1.38 1.38 0 0 1 .217-.563.717.717 0 0 1 .205-.211.494.494 0 0 1 .269-.083c.115 0 .224.038.327.09.012.006.006.025-.007.025l-.096.013a.91.91 0 0 0-.333.121.587.587 0 0 0-.23.282.967.967 0 0 0-.058.352c0 .115.02.23.045.345.026.116.07.224.122.327.108.205.275.377.467.499.198.122.416.198.64.237l.173.019c.057 0 .115 0 .172-.006.116-.007.225-.02.34-.045a2.31 2.31 0 0 0 1.184-.621c.166-.16.3-.34.428-.525.129-.185.244-.377.333-.582.052-.103.09-.205.128-.314.039-.109.07-.217.09-.326.051-.218.064-.448.058-.672a3.406 3.406 0 0 0-.628-1.888 3.673 3.673 0 0 0-.448-.5c.16.154.307.32.442.506a3.354 3.354 0 0 1 .602 1.882c0 .224-.02.441-.064.659a3.037 3.037 0 0 1-.225.627c-.095.199-.21.39-.339.576-.128.18-.262.359-.422.512a2.292 2.292 0 0 1-1.485.634c-.058 0-.109.006-.166 0a.683.683 0 0 1-.16-.02 1.598 1.598 0 0 1-.608-.23 1.251 1.251 0 0 1-.43-.467 1.405 1.405 0 0 1-.146-.62c0-.11.012-.212.05-.308a.44.44 0 0 1 .193-.224c.09-.058.313-.122.313-.115.007.013-.07.064-.102.096a.909.909 0 0 0-.211.384c-.039.14-.051.281-.039.429a.77.77 0 0 0 .16.403c.09.115.205.205.333.275.128.064.263.109.403.14.07.014.141.02.212.026.07.007.14.007.21.007.142 0 .283-.02.417-.058.275-.064.531-.205.742-.384.218-.179.39-.403.538-.64a3.229 3.229 0 0 0 .441-1.158c.02-.135.033-.275.026-.416 0-.18-.02-.359-.051-.538a3.15 3.15 0 0 0-.147-.518 3.12 3.12 0 0 0-.532-.928 3.65 3.65 0 0 0-.793-.71c-.3-.193-.62-.346-.96-.468.333.122.653.282.954.474.294.198.563.435.78.717.224.275.397.588.512.921.058.167.11.34.135.512.032.173.05.352.044.525.007.134-.012.269-.031.403a3.986 3.986 0 0 1-.097.397 3.509 3.509 0 0 1-.345.736c-.147.23-.32.442-.525.614a1.778 1.778 0 0 1-.71.359 1.982 1.982 0 0 1-.8.013 1.291 1.291 0 0 1-.372-.135.853.853 0 0 1-.294-.25.7.7 0 0 1-.134-.351 1.106 1.106 0 0 1 .038-.384.814.814 0 0 1 .186-.333.517.517 0 0 1 .153-.109c.013-.006.039-.02.045-.013.006.007-.058.09-.077.135a1.513 1.513 0 0 0-.102.3.892.892 0 0 0-.02.32.611.611 0 0 0 .122.308c.064.09.154.16.25.21.096.052.198.09.3.11.212.038.43.012.628-.058s.378-.173.544-.294a3.53 3.53 0 0 0 .237-.199c.076-.07.147-.147.21-.23.129-.167.225-.352.295-.544a2.41 2.41 0 0 0 .135-.602c.019-.205.019-.41 0-.614a2.722 2.722 0 0 0-.128-.602 2.986 2.986 0 0 0-.647-1.03 3.018 3.018 0 0 0-.46-.397 3.337 3.337 0 0 0-.532-.3 3.137 3.137 0 0 0-1.177-.276c.403.02.806.115 1.17.288.187.083.36.192.526.307.166.122.313.256.454.403.275.295.493.647.627 1.024.064.192.103.39.122.59.02.198.02.402-.007.6a2.154 2.154 0 0 1-.435 1.102 1.623 1.623 0 0 1-.204.217c-.077.07-.154.128-.23.186-.16.115-.34.217-.526.275-.185.064-.384.09-.576.045a.803.803 0 0 1-.48-.282.592.592 0 0 1-.096-.256.694.694 0 0 1 .026-.281c.02-.064.038-.135.064-.199.006-.006.02-.006.02 0l.025.109c.019.083.05.16.096.23.05.07.108.128.179.18.14.096.313.128.473.121.167-.013.32-.064.461-.134.288-.147.519-.384.685-.653a1.47 1.47 0 0 0 .205-.909 1.43 1.43 0 0 1-.23.896 1.686 1.686 0 0 1-.685.621c-.141.064-.288.109-.442.115a.656.656 0 0 1-.422-.121.586.586 0 0 1-.224-.365c-.02-.09-.02-.282-.007-.282.013 0 .032.039.045.058a.849.849 0 0 0 .173.166c.134.09.3.128.454.122.077-.007.154-.013.23-.032a.898.898 0 0 0 .218-.083.858.858 0 0 0 .327-.333c.077-.135.121-.282.147-.435.013-.077.02-.148.026-.224a1.384 1.384 0 0 0 0-.23 2.22 2.22 0 0 0-.276-.852 2.432 2.432 0 0 0-.268-.365 1.878 1.878 0 0 0-.346-.288 2.274 2.274 0 0 0-.832-.32 4.137 4.137 0 0 0-.89-.064 5.93 5.93 0 0 0-.883.103c.288-.058.589-.084.883-.09.295-.006.59.02.883.077.288.057.57.16.813.326.122.083.23.18.333.288.096.109.186.23.25.359.14.256.23.544.256.825.006.07 0 .147-.007.218-.006.07-.012.147-.025.217a1.26 1.26 0 0 1-.141.404.749.749 0 0 1-.486.358 1.19 1.19 0 0 1-.212.026.645.645 0 0 1-.39-.11.768.768 0 0 1-.147-.14l-.045-.064c-.007-.013 0-.026.013-.026.07 0 .14 0 .21-.012a.807.807 0 0 0 .334-.122.556.556 0 0 0 .217-.282.807.807 0 0 0 .045-.345 1.262 1.262 0 0 0-.205-.64 1.372 1.372 0 0 0-.499-.442 1.444 1.444 0 0 0-.646-.18 2.52 2.52 0 0 0-.66.033 2.782 2.782 0 0 0-.633.192 2.625 2.625 0 0 0-.55.358c.172-.134.358-.256.556-.345a2.75 2.75 0 0 1 .634-.18c.217-.031.435-.038.653-.012.108.013.217.025.32.057.102.032.204.077.294.128.186.11.352.25.467.436.116.179.173.39.18.601a.833.833 0 0 1-.045.307.468.468 0 0 1-.186.23.847.847 0 0 1-.474.103c-.012 0-.019-.013-.012-.019.019-.026.032-.051.05-.083.04-.07.071-.141.09-.211a.625.625 0 0 0-.032-.468.774.774 0 0 0-.34-.314 1.252 1.252 0 0 0-.216-.076c-.077-.013-.148-.026-.224-.026-.148 0-.301.02-.442.058-.14.038-.282.096-.416.16-.128.07-.256.154-.365.25a1.095 1.095 0 0 0-.269.345 1.09 1.09 0 0 1 .276-.339c.115-.096.236-.173.37-.23.263-.122.551-.199.84-.186.07.006.14.013.21.032a.795.795 0 0 1 .365.198c.051.052.09.103.122.167a.515.515 0 0 1 .013.39.8.8 0 0 1-.141.263c-.007.012-.02.006-.026 0a.834.834 0 0 0-.064-.096 1.038 1.038 0 0 0-.16-.18.835.835 0 0 0-.198-.134.622.622 0 0 0-.237-.064.768.768 0 0 0-.46.122 1.58 1.58 0 0 0-.372.281 1.34 1.34 0 0 0-.269.384c-.07.141-.109.295-.134.448a2.02 2.02 0 0 0 .288 1.331 2.6 2.6 0 0 0 1.043.877 2.747 2.747 0 0 0 1.792.211c.3-.064.589-.179.851-.332a3.82 3.82 0 0 0 .723-.557c.218-.211.41-.448.577-.71.166-.257.3-.532.396-.82a4.611 4.611 0 0 0 .25-1.792l-.039.045Z" fill="url(#a)"/><path d="M12.31 4.458a.179.179 0 1 0-.358 0 .179.179 0 1 0 .358 0Z" fill="#ED1164"/><path d="M9.514 4.336a.193.193 0 0 0-.192-.192.193.193 0 0 0-.192.192c0 .102.083.192.192.192a.193.193 0 0 0 .192-.192Z" fill="#626CB2"/><path d="M8.182 5.558a.344.344 0 0 0-.345-.345.344.344 0 0 0-.346.345c0 .192.154.346.346.346a.344.344 0 0 0 .345-.346ZM6.006 4.048a.122.122 0 1 0-.243 0 .122.122 0 0 0 .243 0ZM7.914 6.762a.078.078 0 0 0-.077-.077.078.078 0 0 0-.077.077c0 .038.032.076.077.076a.078.078 0 0 0 .077-.076Z" fill="#ED1164"/><path d="M8.285 7.946a.284.284 0 0 0-.282-.282.284.284 0 0 0-.281.282c0 .153.128.281.281.281a.284.284 0 0 0 .282-.281ZM13.974 10.262a.25.25 0 1 0-.5.001.25.25 0 0 0 .5 0Z" fill="#626CB2"/><path d="M4.854 15.427v-2.432c0-.768.384-1.152 1.152-1.152h1.568c.768 0 1.152.384 1.152 1.152v2.432c0 .628-.256.992-.774 1.101l.448.877-.115.205h-.851l-.525-1.03h-.903c-.768 0-1.152-.385-1.152-1.153Zm.986.058c0 .134.07.205.205.205H7.53c.134 0 .204-.07.204-.205v-2.54c0-.135-.07-.206-.204-.206H6.045c-.135 0-.205.07-.205.205v2.54Zm3.942 1.1V11.85h.986v4.736h-.986Zm2.113 0V11.85h3.238v.89H12.88v.96h2.048v.889H12.88v1.1h2.253v.89h-3.238v.007Z" fill="url(#b)"/><defs><linearGradient id="a" x1="6.058" y1="6.771" x2="14.218" y2="6.771" gradientUnits="userSpaceOnUse"><stop stop-color="#ED1164"/><stop offset=".129" stop-color="#E61567"/><stop offset=".322" stop-color="#D22272"/><stop offset=".549" stop-color="#B33684"/><stop offset=".812" stop-color="#88539C"/><stop offset="1" stop-color="#626CB2"/></linearGradient><linearGradient id="b" x1="9.994" y1="17.61" x2="9.994" y2="11.843" gradientUnits="userSpaceOnUse"><stop stop-color="#696DAD"/><stop offset=".369" stop-color="#86599C"/><stop offset=".451" stop-color="#A4448B"/><stop offset=".549" stop-color="#B23A83"/><stop offset=".612" stop-color="#CE2673"/><stop offset="1" stop-color="#EB1263"/></linearGradient></defs></svg>