<svg width="20" height="20" fill="none" xmlns="http://www.w3.org/2000/svg"><path d="M10 19.324a9.325 9.325 0 0 0 9.326-9.325 9.325 9.325 0 1 0-18.65 0A9.325 9.325 0 0 0 10 19.324Z" fill="url(#a)"/><path d="M3.97 13.742a10.254 10.254 0 0 1-.01-.034l.016-.004.006.035-.011.003Zm5.65 1.592v-.003l.005.008.007.024-.01-.021-.001-.008Zm1.047-.345.004-.01.003-.004v.005a.45.45 0 0 1-.007.009ZM7.763 1.451 5.266 2.787c.012.032.12.39.131.422l.312 1.483C4.655 5.24 4.269 6.22 4.127 7.33c-.146 1.144.177 2.141 1.021 2.924v.745c-.473.136-.8.045-1.003-.28-.02-.073-.042-.147-.136-.063l.006.358.136.506c-.323.31-.542.93-.368 1.086.15-.131.317-.162.52-.066-.095.178-.197.34-.27.512a2.363 2.363 0 0 0-.16.527c-.029.172-.063.358.024.528l.406-.654.078.038-.276.655c.013.006.037.026.05.02.127-.056.254-.116.381-.177-.048.668-.344 1.254-.64 1.84l.07.054.441-.341c.16.699.297 1.076.41 1.133.047-.203.068-.416.147-.606.078-.187.214-.35.324-.523.105.447.141.877.52 1.216l.093-.7c.17.325.305.646.663.803l.091-.329c.133.12.24.214.36.321l.066-.159.27.29.046-.032v-.184l.045-.026.852 1.081.323.222.27.09c.597.159 1.2.24 1.817.152l.163-.034.516-.164.27-.181c.368-.248.551-.635.765-1l.04-.053.02.011-.03.076v.097l.045.015.23-.352-.047.464.043.026.336-.385.065.235.373-.441.048.327c.412-.16.436-.571.65-.913l.116.748c.303-.379.366-.802.445-1.243.306.31.502.657.567 1.109.307-.355.309-.764.38-1.16l.414.3.047-.03c-.105-.631-.531-1.164-.61-1.834l.382.26-.141-.631v-.09l.06.088.44.489c.024-.036.042-.051.04-.063-.08-.416-.173-.827-.425-1.183-.039-.054-.05-.128-.09-.233.135-.022.237-.066.327-.048.097.019.183.095.282.15.039-.38-.164-.825-.458-1.035.175-.314.197-.676.05-1.022l-.207.228c-.247.24-.53.262-.83.15l-.07-.784a2.375 2.375 0 0 0 1.053-1.79 4.4 4.4 0 0 0-.535-2.647 2.544 2.544 0 0 0-.986-1.001c.088-.284.184-.55.25-.824.064-.266.127-.618.173-.889l-2.843-1.582H7.763ZM10.678 7.413l-.001.034.001-.034Zm3.494 1.409.001.002-.001-.002Z" fill="#04080A"/><path d="m9.425 14.908-.013-.037-.02.006.027.066.066.088-.06-.123Zm.108.22-.007-.018-.032-.067-.009-.012.007.014.032.067.009.017Zm.072.133-.072-.132.054.15.033.052a2.654 2.654 0 0 0-.015-.07Zm.027.102-.007-.024-.005-.007v.002l.002.007.01.022Zm.975-.278-.549 1.195c-.038-.082-.073-.16-.109-.235l-.255-.548-.061-.132.027.09c.026.09.053.18.085.268.096.262.197.523.303.803.126-.305.243-.58.354-.856.091-.225.177-.453.264-.679-.02.031-.043.06-.059.094Zm.067-.11-.003.004c0 .003-.002.006-.004.01a.687.687 0 0 1 .006-.009l.001-.004v-.001Zm1.837.39a.02.02 0 0 0-.023-.006l-.145-.025-.062.266c-.011.03-.025.06-.033.091-.153.541-.367 1.043-.821 1.412-.795.647-1.726.729-2.554.17-.475-.32-.763-.805-.948-1.347l-.065-.156-.138-.406-.264.048h-.21c.233.71.48 1.376.88 1.973.163.242.349.461.644.555.572.181 1.156.28 1.756.217.465-.049.894-.194 1.23-.54l.039-.041v.004l.07-.095-.008-.008.01.008c.013-.008.033-.012.04-.024.23-.418.473-.829.681-1.257.12-.245.18-.517.276-.8l-.355-.04ZM7.34 12.166l-.246-.698-.033-.214-.029.004.014.211c.028.249.035.501.09.744.053.244.15.478.24.713.014.039.082.057.125.084-.147-.361-.2-.642-.161-.844Zm2.08-.619-.005-.004-.013-.016-.013-.015c-.476-.327-1.117-.136-1.569.254l-.033.037-.008.011c-.305.223-.397.506-.25.823.053.117.125.232.214.323.21.212.6.369.84.119l.057-.02.03-.011.692-.165.219-.012c.041-.086.08-.158.11-.233.155-.383.103-.928-.27-1.09Zm1.43 3.271-.777 1.864h-.05l-.706-1.83-1.452.468c.156.374.272.735.45 1.062.302.552.744.983 1.397 1.047 1.575.153 2.22-.906 2.46-2.138l-1.322-.473Zm-1.35.003.556 1.253.583-1.253h-1.14Zm.627-2.871h-.145l-.184.923h.447l-.118-.923Zm-3.097-.878h-.02v.104h.025l-.005-.104Zm-.053-.154V11h.018v-.083h-.018Zm-3 2.786-.016.004.01.034.012-.003-.006-.035Zm10.11 2.134.001-.001Zm0 0 .001-.001Zm0 0 .001-.001Zm0 0 .001-.001Zm0 0 .001-.001Zm0 0 .001-.001Zm0 0 .001-.001Zm0 0 .001-.001Zm0 0 .001-.001Zm0 0 .001-.001Zm0 0 .001-.001Zm0 0 .001-.001Zm0 0 .001-.001Zm0 0 .001-.001Zm0 0 .001-.001Zm0 0 .001-.001Zm-1.575-.473a.02.02 0 0 0-.023-.006l-.145-.025-.062.266c-.011.03-.025.06-.033.091-.153.541-.367 1.043-.821 1.412-.795.647-1.726.729-2.554.17-.475-.32-.763-.805-.948-1.347l-.065-.156-.138-.406-.264.048h-.21c.233.71.48 1.376.88 1.973.163.242.349.461.644.555.572.181 1.156.28 1.756.217.465-.049.894-.194 1.23-.54l.039-.041v.004l.07-.095-.008-.008.01.008c.013-.008.033-.012.04-.024.23-.418.473-.829.681-1.257.12-.245.18-.517.276-.8l-.355-.04Zm-1.662-.546-.777 1.863h-.05l-.706-1.83-1.452.468c.156.374.272.735.45 1.062.302.552.744.983 1.397 1.047 1.575.153 2.22-.906 2.46-2.138l-1.322-.473Zm-.175.156-.003.004c0 .003-.002.006-.004.01a.687.687 0 0 1 .006-.009l.001-.004v-.001Zm-.067.11-.549 1.195c-.038-.082-.073-.16-.109-.235l-.255-.548-.061-.132.027.09c.026.09.053.18.085.268.096.262.197.523.303.803.126-.305.243-.58.354-.856.091-.225.177-.453.264-.679-.02.031-.044.06-.059.094Zm-1.108-.264.556 1.253.583-1.253h-1.14Zm.627-2.871H9.98l-.183.923h.447l-.118-.923Zm-.504 3.392.01.022v-.001l-.007-.024-.005-.007v.002l.002.007Zm-.017-.08-.072-.133.054.15.033.052a2.654 2.654 0 0 0-.015-.07Zm-.072-.133-.007-.019-.032-.067-.009-.012.007.014.032.067.009.017Zm-.108-.221-.013-.037-.02.006.027.066.066.088-.06-.123Zm-.005-3.36-.006-.005-.013-.016a.702.702 0 0 0-.013-.015c-.476-.327-1.117-.136-1.569.254l-.033.037-.008.011c-.305.223-.397.506-.25.823.053.117.125.232.214.323.21.212.6.369.84.119l.057-.02.03-.011.692-.165.219-.012c.041-.086.08-.158.11-.233.155-.383.103-.928-.27-1.09Zm-2.081.618-.246-.698-.033-.214-.029.004.014.211c.028.249.035.501.09.744.053.244.15.478.24.713.014.039.082.057.125.084-.147-.361-.2-.642-.161-.844Zm-.31-1.094h-.02v.104h.025l-.005-.104Zm-.054-.154V11h.019v-.083h-.019Zm-1.053.06-.002.002v.001h.003v-.003Zm-.24 1.508-.01.035-.007.035.017-.062.003-.026-.004.018Zm-1.706 1.218-.016.004.01.034.012-.003-.006-.035Zm10.11 2.134.001-.001-.001.001Zm0 0 .001-.001-.001.001Zm0 0 .001-.001-.001.001Zm0 0 .001-.001-.001.001Zm0 0 .001-.001-.001.001Zm0 0 .001-.001-.001.001Zm0 0 .001-.001-.001.001Zm0 0 .001-.001-.001.001Zm0 0 .001-.001-.001.001Zm0 0 .001-.001-.001.001Zm0 0 .001-.001-.001.001Zm0 0 .001-.001-.001.001Zm0 0 .001-.001-.001.001Zm0 0 .001-.001-.001.001Zm.19-4.762.002.003v.001l-.001-.004Zm0 0 .002.003v.001l-.001-.004Zm0 0 .002.003v.001l-.001-.004Zm0 0 .002.003v.001l-.001-.004Zm0 0 .002.003v.001l-.001-.004Zm0 0 .002.003v.001l-.001-.004Zm0 0 .002.003v.001l-.001-.004Zm0 0 .002.003v.001l-.001-.004Zm0 0 .002.003v.001l-.001-.004Zm0 0 .002.003v.001l-.001-.004Zm0 0 .002.003v.001l-.001-.004Zm0 0 .002.003v.001l-.001-.004Zm0 0 .002.003v.001l-.001-.004Zm0 0 .002.003v.001l-.001-.004Zm-1.67 1.245c0-.393-.46-.9-.855-.943l-.231-.024c-.296-.022-.58-.006-.813.213-.374.205-.524.694-.336 1.098.112.243.171.274.442.238l.051.012c.065.01.13.022.195.034l.04.01.093.017.138.037c.327.134.645.158.97-.027.268-.153.376-.356.305-.665Zm.133-.293v-.002l-.002.005.003-.002v-.001Zm.93 1.637c.338-.276.478-.647.582-1.034.15-.562.088-1.101-.22-1.601-.192-.312-.513-.312-.669.022-.106.225-.152.485-.193.735-.052.316-.059.64-.109.956-.042.265-.19.393-.438.42a63.77 63.77 0 0 0-.13-.114l-.47.204.095.088.091.068-.017.092-.143-.126-.59-.166c-1.032-.264-2.054-.292-3.058.126-.146.048-.29.098-.438.14a.031.031 0 0 1-.016 0l-.007-.002a.105.105 0 0 1-.025-.012l-.011-.006-.01-.006a.15.15 0 0 0-.017-.009l-.005-.002a.75.75 0 0 1 .023-.022l.099-.067.085-.032-.09-.017-.334-.197c-.218.082-.36.053-.447-.151a3.483 3.483 0 0 1-.233-.76c-.064-.369-.083-.746-.126-1.12-.02-.167-.134-.262-.29-.245a.861.861 0 0 0-.372.14c-.227.15-.317.38-.349.651-.088.764.081 1.444.604 2.03l.203-.075c.23-.011.472-.117.696.077l-.34.048c-.364-.006-.672.143-.95.361a.561.561 0 0 0-.098.758l.093.072v-.002l.602.258.089.02c.123.018.246.05.37.051.544.008 1.048-.175 1.55-.35.747-.262 1.498-.425 2.281-.174.42.134.837.274 1.258.404.613.188 1.213.172 1.787-.143.281-.195.335-.41.167-.697-.235-.4-.62-.522-1.05-.557l-.185-.04-.002-.055.51-.03.248.091Zm.608-2.589v.003l.002.001-.002-.004Zm0 0v.003l.002.001-.002-.004Zm0 0v.003l.002.001-.002-.004Zm0 0v.003l.002.001-.002-.004Zm0 0v.003l.002.001-.002-.004Zm0 0v.003l.002.001-.002-.004Zm0 0v.003l.002.001-.002-.004Zm0 0v.003l.002.001-.002-.004Zm0 0v.003l.002.001-.002-.004Zm0 0v.003l.002.001-.002-.004Zm0 0v.003l.002.001-.002-.004Zm0 0v.003l.002.001-.002-.004Zm0 0v.003l.002.001-.002-.004Zm0 0v.003l.002.001-.002-.004Zm0 0v.003l.002.001-.002-.004Zm0 0v.003l.002.001-.002-.004Zm-1.672 1.245c.001-.393-.459-.9-.854-.943l-.231-.024c-.296-.022-.58-.006-.813.213-.374.205-.524.694-.336 1.098.112.243.171.274.442.238l.051.012c.065.01.13.022.195.034l.04.01.093.017.138.037c.327.134.645.158.97-.027.268-.153.376-.356.305-.665Zm1.065 1.344c.337-.276.477-.647.58-1.034.152-.562.089-1.101-.22-1.601-.191-.312-.512-.312-.668.022-.106.225-.152.485-.193.735-.052.316-.059.64-.109.956-.042.265-.19.393-.438.42l-.13-.114-.47.204.095.088.091.068-.017.092-.143-.126-.59-.166c-1.032-.264-2.054-.292-3.058.126-.146.048-.29.098-.438.14a.031.031 0 0 1-.016 0l-.007-.002a.105.105 0 0 1-.025-.012l-.011-.006-.01-.006a.15.15 0 0 0-.017-.009l-.005-.002.023-.022.099-.067.085-.032-.09-.017-.334-.197c-.218.082-.36.053-.447-.152a3.48 3.48 0 0 1-.233-.758c-.064-.37-.083-.747-.126-1.12-.02-.168-.134-.263-.29-.246a.861.861 0 0 0-.372.14c-.227.15-.317.38-.349.651-.088.764.081 1.444.604 2.03l.203-.076c.23-.01.472-.116.696.078l-.34.048c-.364-.006-.672.143-.95.361a.561.561 0 0 0-.098.758l.093.072v-.002l.602.258.089.02c.123.018.246.05.37.051.544.008 1.048-.175 1.55-.35.747-.262 1.498-.425 2.281-.174.42.134.837.274 1.258.404.613.188 1.213.172 1.787-.143.281-.195.335-.41.167-.697-.235-.4-.62-.522-1.05-.557a40.575 40.575 0 0 0-.185-.04l-.002-.055.51-.03.248.091Z" fill="#0F0D0D"/><path d="m14.165 10.472-.052-.015.033.031.127.26a13.1 13.1 0 0 1-.082.023l.023.149-.037.019c-.067-.07-.123-.157-.201-.209-.33-.22-.658-.089-.801.315-.028.076-.053.153-.08.23h-.054l.045-.294.043-.231.016-.326.018-.133-.01-.593c.003-.003.008-.007.007-.009-.001-.006-.005-.012-.008-.018-.068-.448-.139-.896-.421-1.27-.28-.37-.594-.677-1.105-.687-.424-.008-.873.307-1.02.706-.325.881-.306 1.77-.106 2.669.026.116.041.234.062.355-.103.12-.213.245-.333.383h-.317l-.37-.426c.16-.644.2-1.31.125-1.981-.03-.265-.059-.53-.1-.792-.074-.466-.311-.816-.791-.907-.477-.09-.933-.01-1.257.4-.347.44-.506.96-.545 1.51-.028.41-.005.825-.005 1.27-.142-.173-.301-.278-.495-.219-.172.053-.33.153-.495.232l-.017-.143-.11-.058.072-.131.038-.08-.054-.043a5.878 5.878 0 0 0-.02.072l-.266.21-.052.016c-.024-.09-.085-.19-.064-.266.077-.285.162-.57.281-.839.133-.3.306-.58.46-.87.034 0 .066.002.099.003l-.029.229-.003.13v.255l.05.007.049-.065.065-.066-.002-.038.05-.136c.183-.023.167-.189.208-.306.08-.223.12-.463.223-.674.173-.358.37-.708.583-1.043.118-.185.25-.388.503-.424.439-.06.79.073 1.03.464.103.167.226.322.374.529v-.165l.003-.106c.404.164.818.056 1.228.037l-.001.034-.008.175.071.01.059-.172c-.003-.009 0-.015.008-.02.131-.167.264-.333.393-.503.155-.206.506-.371.698-.306.425.143.752.404.938.822.097.217.186.437.282.654.112.252.227.502.345.752.012.026.054.04.082.058l.006.037-.026.067.06.025.101.208.108.15a1.98 1.98 0 0 1 .045-.003v-.625c.07.016.1.037.114.066.191.395.404.782.561 1.191.096.25.106.533.154.8l-.129-.048-.373-.313Z" fill="#FAFBFB"/><path d="m13.934 4.755-.344.095a9.9 9.9 0 0 1-.103.011l-.042.015c-.303.096-.62.162-.906.294-.606.28-1.193.6-1.793.892a4.282 4.282 0 0 1-.611.225.34.34 0 0 1-.22-.017c-.519-.233-1.034-.471-1.55-.712-.52-.242-1.015-.546-1.59-.657l-.199-.045a4.489 4.489 0 0 1-.065-.01l-.353-.092.359-.055h.053c.638.01 1.17.35 1.74.57.353.138.688.325 1.025.503.5.265.996.228 1.49-.002.575-.268 1.145-.547 1.717-.82a.032.032 0 0 0 .03-.01L13.3 4.7l.036-.01.597.066Z" fill="#3C6EB3"/><path d="M13.546 8.917c-.029-.019-.07-.032-.083-.058-.118-.25-.232-.5-.345-.752-.096-.217-.185-.437-.281-.654-.187-.418-.514-.679-.939-.822-.192-.065-.543.1-.698.306-.128.17-.262.336-.392.503.078-.188.137-.387.24-.56.238-.406.676-.525 1.115-.332.361.16.595.445.788.773.046.08.08.166.12.25l.025.07.438 1.207.011.07Z" fill="#BEDEE5"/><path d="M10.678 7.413c-.41.02-.823.127-1.228-.037a52.435 52.435 0 0 1-.049-.245l.054.002.104.001H10.445l.227.002c.14.089.006.184.006.277Z" fill="#C3E5EE"/><path d="m14.539 10.785-.374-.313.374.313Z" fill="#0F0D0D"/><path d="m10.799 7.46-.059.173-.071-.011.008-.176.046.079.076-.065Z" fill="#C3E5EE"/><path d="m4.485 11.157-.336-.196c.112.065.224.13.336.197.02.004.039.01.058.015l-.058-.016Zm4.253-7.519c.282-.005.57-.057.857-.093l-.857.093Zm1.934-.084-.066-.008-.25-.008c.172.01.342.026.512.047l-.196-.031Zm2.363.966-.107-.054a.039.039 0 0 0-.019-.01l.006.013c-.352-.29-.876-.307-1.285-.46-.601-.09-1.198-.26-1.809-.239-.872.137-1.785.293-2.587.657v-.003l-.046.034a.063.063 0 0 1 .006-.004.051.051 0 0 0-.022.013.225.225 0 0 1-.059.026c-.01.04-.022.08-.034.121.184.024.356.173.542.131l-.001.002c.098-.104.192-.21.326-.267v.002l.27-.133c.208-.031.885-.429.955-.093.216.465.318.976.426 1.475.304.09.608.092.912.003.151-.529.185-1.087.453-1.575.18-.061.35-.014.52.056l.011-.002c.28.07.53.21.785.332.083.061.157.132.23.205a.283.283 0 0 0 .129-.034c.128-.052.264-.081.394-.13.02-.01.039-.018.08-.035a6.91 6.91 0 0 0-.076-.031ZM14.312 12.985l.022-.063c-.02 0-.034.015-.022.063Z" fill="#04080A"/><path d="m14.173 8.824-.002-.002.002.002ZM13.11 4.55a12.993 12.993 0 0 0-.079.036l.005-.066.075.03ZM14.269 4.672c.02-.013.01-.007 0 0 0-.013 0-.026 0 0ZM12.571 4.94a.032.032 0 0 1-.029.01l.03-.01ZM12.93 4.466l-.014.003-.006-.013a.039.039 0 0 1 .02.01ZM7.194 4.454a.063.063 0 0 0-.006.004l-.02.015.004-.006a.051.051 0 0 1 .022-.013ZM5.292 10.324l-.002.032-.008-.023c0-.002.007-.006.01-.009Z" fill="#0F0D0D"/><path d="M11.49 13.697ZM13.422 13.573l-.51.031.002.055.185.04c.02.016.04.035.063.048.195.111.41.197.58.339.138.114.254.281.315.449.037.104-.046.251-.074.38-.038.003-.078 0-.113.013-.555.191-1.114.188-1.676.037-.49-.131-.934-.4-1.448-.461-.308-.037-.6-.204-.925-.114-.157.044-.312.112-.47.124a2.012 2.012 0 0 0-.84.27c-.023.01-.044.022-.066.034l-.066.001a49.28 49.28 0 0 1-.197.094l-.197.039-.13.06c-.045.01-.088.022-.132.033-.044 0-.087.002-.13.004l-.131.031-.263.002-.394-.033h-.099l-.13-.033-.53-.128.004-.072v-.396c.181-.164.353-.335.542-.483.123-.097.272-.16.409-.239l.339-.048c-.224-.194-.466-.088-.696-.078-.039-.014-.092-.017-.116-.044-.239-.286-.444-.607-.49-.972a3.535 3.535 0 0 1 .04-1.047c.059-.33.234-.508.506-.477.008.035.02.075.026.115.087.546.17 1.092.262 1.637.056.336.41.568.694.508l.322.078.006.045a.652.652 0 0 0-.023.023l-.083.07.025.073c.113-.016.228-.024.34-.05.088-.02.172-.061.258-.093v.001l-.03.134c.16.174.238.19.457.103.022-.065-.023-.131-.135-.198l-.079-.026c-.008.002-.015-.001-.02-.009l-.098-.07c.226-.052.45-.12.679-.15a6.77 6.77 0 0 1 .973-.071c.412.007.823.06 1.234.092l.26.154-.12.083-.227.218.142.025.043-.026.252-.047v-.265c.071.042.121.084.178.103.119.038.228.158.367.053l.026-.037-.03-.038a7.025 7.025 0 0 0-.038-.062l.188-.1c.126-.006.221.013.294-.02.318-.138.454-.413.5-.739.05-.364.077-.733.144-1.095.029-.158.13-.303.214-.488.115.08.217.116.265.189.26.401.314.851.251 1.315-.052.386-.25.714-.483 1.017-.038.05-.129.06-.195.09Z" fill="#FCCF0A"/><path d="m6.856 16.045-.044.041.072.339-.365-.218-.092.271-.052.003-.23-.615a10.56 10.56 0 0 0-.06-.067l-.028-.272-.39.286-.125-.5-.102.022a17.627 17.627 0 0 1-.086-.14c-.081.07-.166.124-.226.199-.106.129-.196.27-.293.405h-.122l-.037-.427.03-.133-.02-.145-.142.083-.066-.1-.004-.165.14-.554c.024-.013.065-.022.068-.038.064-.318.124-.637.184-.956l-.061-.028-.167.066-.119-.483-.053.01-.047.157-.182.027.315-.705-.53-.274c.074-.174.238-.25.434-.292.041-.11.145-.224-.044-.303l.006-.085h.867l-.012.155-.09.114-.05.174v.179l.133.018-.062.252.152.145-.03.127-.075.049.086.014.014-.001.012.008-.066.322v.134l.066.033.095-.017.063.123-.04.153-.06.036.062.035c.008.002.01.007.01.014l.026.272.057.014.083-.108c.165-.08.187-.232.194-.39l.092-.069.339.473c-.073.048-.148.099-.223.147-.456.289-.564 1.015.078 1.317.29.136.618.193.973.298.058.18.136.415.214.652l-.193.18-.277-.262ZM15.755 12.812l.013.152-.169-.01-.067.447-.194-.066c0 .598.063 1.156.318 1.677l.03.143-.074.058-.01.003h-.01l-.071-.116a2.335 2.335 0 0 1-.051.018l-.13.632-.478-.569-.245.125-.098.511-.176-.115-.205-.157-.052.293.001-.001v.001l-.13.324-.018.06-.21.296-.066-.302c-.121.043-.24.063-.228.226l-.037.048c-.034-.046-.1-.094-.097-.138.005-.092.046-.181.073-.272l-.045-.045-.338.312-.057-.254c-.055.065-.083.105-.117.138-.024.023-.056.036-.085.054l.281-.836c.302-.09.61-.159.901-.274.697-.275.57-.92.174-1.259-.078-.066-.162-.124-.219-.168l.411-.67.066-.005.047.1-.105.022-.01.114c-.028.119.092.369.197.41l.14.089.052-.035-.032-.243.019-.088c.026-.026.056-.049.079-.078.047-.061.091-.125.136-.188.101-.053.1-.108.002-.163l-.005-.095-.031-.198.086-.274.104-.076-.107-.108-.007-.035.148-.233-.065-.099a17.84 17.84 0 0 1-.06-.066l.003.003c-.008-.05-.005-.106-.027-.148-.055-.102-.123-.197-.185-.295.037-.006.08-.03.11-.017.294.115.586.204.943 0-.046.11-.081.159-.084.21-.005.094.009.19.015.285l.094-.013.314.324c-.138.054-.234.077-.314.126-.177.108-.202.428-.048.508Z" fill="#FAFCFC"/><path d="M9.56 9.733c-.056-.406-.078-.821-.179-1.216-.088-.344-.303-.624-.708-.666l.131.108c-.025.014-.044.034-.058.031-.535-.126-.86.247-1.088.626-.237.398-.261.838-.296 1.279-.048.61.006 1.212.132 1.808.008.037.024.072.037.108.225-.24.481-.434.803-.533.378-.116.748-.118 1.133.096l.093-1.082v-.56Zm-.348.633c-.02.17-.172.286-.389.297l-.05.017-.433.13-.021.07-.023.156h-.031l-.017-.047-.026-.15c-.183.013-.36.006-.508-.144l.118-.109.157-.07c.008.002.017.002.025.002l.103.004v-.139l-.258-.267c-.29-.403-.11-.8.386-1.157.01-.12.014-.251.036-.379.009-.046.063-.084.096-.126.209.025.091.21.143.295.121.04.234.071.34.118.023.01.023.076.033.116l.03.136c-.02.005-.036.013-.04.009-.1-.092-.227-.184-.34-.088-.085.071-.13.217-.144.336-.026.203-.015.41-.02.616.172.021.345.034.514.066.21.039.335.169.319.308Z" fill="#D0E9F8"/><path d="M12.706 15.437c-.03.07-.059.132-.083.196-.22.584-.397 1.186-.749 1.713-.022.033-.005.092-.006.139l-.01-.008.01.008a8.79 8.79 0 0 1-.083.05l-.027.015c-.027.017-.054.034-.083.048-.209.108-.41.25-.632.313-.235.068-.492.078-.74.082a9.241 9.241 0 0 1-.988-.035c-.448-.04-.831-.224-1.068-.625a7.71 7.71 0 0 1-.693-1.598c-.034-.107-.064-.215-.096-.323l.263-.049.138.407.065.156c.186.542.474 1.027.949 1.347.828.559 1.759.477 2.554-.17.453-.369.667-.87.82-1.412.009-.03.022-.06.034-.09l.206-.242a.02.02 0 0 1 .024.006l.195.072Z" fill="#F7CD10"/><path d="m11.75 11.378-.243.022.013-.046c-.296-.022-.58-.006-.813.213-.043.126-.087.252-.128.379-.105.328.06.596.194.87l.04.087.051.012c.065.01.13.022.195.034l.04.01.093.017.138.037c.222-.007.447.003.667-.025.298-.038.46-.243.547-.518.016-.051.04-.1.061-.15.001-.392-.459-.9-.854-.942Zm-.27 1.322c-.053-.006-.114.003-.16-.019a1.114 1.114 0 0 1-.6-.65c-.013-.037.011-.089.018-.134.02.004.048.002.058.014.206.234.41.47.615.705l.082.037a2.42 2.42 0 0 0-.013.047Zm.156-.1-.005-.034.01-.002.009.034c-.005 0-.01.002-.014.003Zm-.038-.091-.355-.69-.034-.113-.007-.01-.037-.025v-.005l.003.003.038.024.003.01v.002l.027.04.033.049.385.685-.056.03Zm.458-.244-.007-.055-.429-.673c.219.177.365.4.45.665l.007.063h-.02ZM9.455 11.654c-.02-.03-.024-.071-.035-.107l-.005-.004-.014-.016a.702.702 0 0 0-.013-.015c-.476-.327-1.117-.136-1.568.254l-.034.037-.007.011c-.021.054-.034.113-.063.16-.325.522.084 1.02.589 1.04.093.004.185.042.277.065l.057-.02.03-.011.692-.165c.063-.16.134-.317.187-.481a.836.836 0 0 0-.093-.748Zm-1.394 1a2.35 2.35 0 0 1 .448-1.01l.018-.03.023.008-.028.081-.461.95Zm.514-.026-.042.077a1.114 1.114 0 0 1-.029-.011l.027-.102c.111-.304.25-.592.511-.872l-.467.908Zm.729-.42-.105.116-.048.045-.008.008-.086.098.009.006-.01-.004-.159.135h.001l-.064.042-.033.018-.044.022-.047.006.587-.697c.006-.009.01-.017.017-.025.026.03.052.06.099.111l-.109.12Z" fill="#92D6E5"/><path d="m10.849 14.819-.778 1.863h-.05c-.23-.6-.463-1.2-.705-1.83l-1.453.468c.156.374.272.735.45 1.062.303.552.744.983 1.398 1.047 1.575.153 2.22-.906 2.46-2.138l-1.322-.473Zm.525 1.948a.86.86 0 0 1-.35.285c-.33.128-.668.286-1.032.248-.417-.043-.818-.168-1.152-.438-.068-.055-.112-.144-.16-.221-.215-.352-.505-.668-.519-1.123l1.043-.451c.184.642.441 1.245.863 1.844a5.49 5.49 0 0 0 .857-1.852l1.053.469-.13.507c-.166.262-.305.508-.473.732Z" fill="#E32521"/><path d="M7.994 13.35v-.001l-.106.021-.322-.078c-.283.06-.638-.172-.694-.508-.092-.545-.175-1.091-.262-1.637-.007-.04-.018-.08-.026-.115-.272-.03-.447.148-.506.477-.06.342-.083.704-.04 1.047.046.365.251.686.49.972.024.027.077.03.116.044l-.203.076c-.523-.586-.691-1.266-.603-2.03.03-.27.122-.5.348-.651a.861.861 0 0 1 .371-.14c.157-.017.272.078.291.245.044.374.062.751.126 1.12.045.26.13.517.233.76.087.204.23.233.447.15.111.067.223.132.334.198l.006.05ZM14.25 12.63c-.103.388-.244.76-.58 1.035l-.248-.092c.067-.028.157-.039.196-.089.233-.303.43-.63.483-1.017.062-.464.01-.914-.252-1.315-.047-.073-.15-.11-.265-.189-.083.185-.185.33-.214.489-.067.36-.094.73-.144 1.094-.045.326-.181.6-.5.74-.072.032-.168.013-.293.019l-.189.1c-.012 0-.024.003-.036.004l-.091-.068-.096-.088.47-.204.131.114c.247-.027.396-.155.438-.42.05-.317.057-.64.109-.956.04-.25.087-.51.192-.735.157-.334.477-.334.67-.022.307.5.37 1.039.22 1.6Z" fill="#ED961B"/><path d="M8.805 7.96c-.026.013-.045.033-.058.03-.535-.126-.86.247-1.088.626-.238.398-.262.838-.296 1.279-.049.61.006 1.212.132 1.808.007.037.024.072.036.108l-.123.196c-.315-.773-.335-1.553-.286-2.34.028-.457.157-.89.38-1.286.255-.45.679-.579 1.171-.53l.132.108Z" fill="#8BD1E0"/><path d="m13.983 14.914-.001.039c-.574.315-1.173.331-1.787.143-.42-.13-.838-.27-1.258-.404-.783-.251-1.534-.088-2.28.173-.503.176-1.007.36-1.551.351-.124-.001-.247-.034-.37-.052l-.09-.019-.6-.257.53.128.13.033h.1c.114.113.29.128.393.033l.263-.002.13-.031.13-.004.132-.033.131-.06.197-.039.131.028.066-.122.066-.001.127.044-.062-.079c.262-.146.536-.246.84-.269.16-.012.314-.08.47-.123.325-.09.618.076.926.113.514.06.958.33 1.448.461.562.152 1.121.154 1.676-.037.035-.013.075-.01.113-.014Z" fill="#E79723"/><path d="m11.797 17.576-.039.04c-.336.348-.765.492-1.23.541-.6.064-1.184-.036-1.757-.217-.294-.094-.48-.313-.643-.555-.4-.597-.647-1.264-.88-1.973h.21c.032.108.063.216.097.323.176.557.396 1.095.693 1.598.236.4.62.584 1.067.625.328.03.659.04.988.035.248-.004.505-.014.74-.082.223-.064.423-.205.633-.313.028-.014.055-.031.082-.047l.028-.016.01.04Z" fill="#ED961B"/><path d="m10.638 14.82-.582 1.254-.557-1.253h1.139Z" fill="#E199C2"/><path d="M4.867 13.364c-.06.319-.12.638-.184.956-.004.016-.044.025-.068.038l.092-.629-.31.187a.162.162 0 0 0-.02-.021l.15-.645c-.305.068-.38.296-.547.454.001-.477.348-.803.442-1.211-.164-.178-.357-.137-.602-.113l.37-.773.274.205a91.863 91.863 0 0 1-.065-.208l.013-.065c.19.079.086.193.045.303-.196.042-.36.118-.435.292l.53.274-.314.705.181-.027.048-.156.053-.011.119.483.166-.066.062.028ZM15.777 15.012h-.12c-.255-.521-.319-1.079-.32-1.677l.195.066.067-.446.17.01-.014-.153.365.76.015.066-.41-.382-.066.028.047.565-.241-.087c-.104.486.177.851.312 1.25Z" fill="#BEDEE5"/><path d="M11.457 13.21a4.52 4.52 0 0 1-.066.034c-.41-.033-.822-.085-1.233-.092a6.77 6.77 0 0 0-.974.07c-.23.03-.453.099-.679.15l-.106-.037c1.004-.418 2.026-.39 3.058-.126Z" fill="#ED961B"/><path d="M10.813 12.903c-.27.036-.33.005-.442-.238-.188-.404-.038-.893.336-1.098-.043.126-.086.252-.127.379-.105.328.06.596.193.87l.04.087Z" fill="#34A8B9"/><path d="M12.866 15.403c-.095.284-.157.556-.276.8-.208.429-.451.84-.681 1.258-.007.012-.027.016-.04.024 0-.047-.016-.106.006-.14.35-.526.529-1.128.748-1.712.025-.064.054-.126.084-.196a42.011 42.011 0 0 0-.196-.072l.355.038Z" fill="#E79723"/><path d="m13.398 16.49-.188.3-.091-.386-.322.613-.025-.545-.144.16a5.555 5.555 0 0 1-.043-.02l.147-.327c.029-.018.06-.032.085-.054.034-.033.062-.073.117-.138l.057.254.338-.312.045.045c-.027.09-.068.18-.072.272-.003.044.062.092.096.138Z" fill="#BEDEE5"/><path d="M7 13.698c-.137.079-.286.142-.409.238-.189.149-.36.32-.542.484v.396h-.098a.561.561 0 0 1 .099-.757c.278-.217.585-.367.95-.36Z" fill="#ED961B"/><path d="m5.44 15.335-.007.008a1.515 1.515 0 0 0-.693 1.008c-.142-.303-.229-.608-.178-.941.006-.042-.033-.09-.051-.136l.034-.097.142-.083.02.145-.03.133.036.427.035.142.088-.142c.097-.136.187-.276.292-.405.061-.075.146-.129.227-.199l.085.14Z" fill="#BEDEE5"/><path d="M8.581 13.079c-.24.25-.63.093-.84-.119a1.148 1.148 0 0 1-.214-.323c-.146-.317-.054-.6.251-.823-.02.054-.033.113-.063.16-.325.522.084 1.02.59 1.04.092.004.184.042.276.065Z" fill="#34A8B9"/><path d="M10.244 12.873h-.447l.184-.923h.145l.118.923Z" fill="#ED961B"/><path d="m12.74 12.029-.003.002.002-.003v.001ZM13.095 11.274c-.053.441-.1.883-.162 1.323a.897.897 0 0 1-.125.329c-.03.049-.12.06-.208.066.27-.303.184-.636.14-.963l.06-.065.24-.688.055-.002Z" fill="#E4E5E3"/><path d="M14.87 13.176c-.045.063-.09.127-.137.188-.023.03-.052.052-.079.078a2.721 2.721 0 0 0-.011-.023l-.008-.014c-.045-.09-.089-.183-.14-.27a3.265 3.265 0 0 0-.104-.184.087.087 0 0 0-.057-.03l.057-.165.018-.105.067.034v.03l.236.424.067-.036-.267-.46-.078-.139.046-.224.102.109.124.213c.011.029.023.056.033.085l.127.231.006.095c.097.055.098.11-.002.163Z" fill="#C0E1E9"/><path d="M14.494 13.135a.732.732 0 0 0-.02-.035c-.017-.025-.084-.018-.128-.027l-.066.004.032-.092.022-.063c.021 0 .05.019.057.03.027.042.064.11.103.183Z" fill="#BEDEE5"/><path d="M13.982 14.953v-.039c.03-.128.112-.275.075-.379a1.089 1.089 0 0 0-.315-.45c-.17-.14-.385-.227-.58-.338-.023-.013-.042-.032-.063-.048.43.035.815.157 1.05.557.168.287.114.502-.167.697Z" fill="#ED961B"/><path d="M9.69 12.638c-.03.075-.07.147-.11.233l-.22.012c.063-.16.134-.317.188-.481a.836.836 0 0 0-.093-.748c-.02-.03-.024-.071-.036-.107.373.163.426.708.27 1.091Z" fill="#34A8B9"/><path d="M7.5 13.01c-.043-.027-.111-.045-.126-.084-.089-.235-.186-.47-.24-.713-.055-.243-.061-.495-.09-.744l.049-.001.245.698c-.04.202.015.483.162.844Z" fill="#E4E5E3"/><path d="M5.92 10.981c-.099.184-.197.368-.297.551l-.356.562-.132-.018v-.179l.386-.525.008-.033.106-.128a2.84 2.84 0 0 0 .023-.069l.034-.05.05-.048.078-.027.034-.036h.066ZM5.923 10.981H5.92h.003ZM16.3 12.394h-.017l-.005.015c-.12-.008-.245-.043-.357-.018-.2.044-.242.18-.165.422l-.001-.001c-.154-.08-.129-.4.048-.508.08-.049.176-.072.314-.127l-.314-.323.162-.213.335.753Z" fill="#BEDEE5"/><path d="m9.633 15.364-.01-.022.002-.003.007.024ZM10.666 14.991c-.087.226-.173.454-.264.68-.111.276-.228.55-.354.855-.106-.28-.208-.54-.303-.803-.032-.088-.059-.178-.085-.268l-.027-.09.061.132.255.548.109.235c.188-.41.367-.803.549-1.195.015-.033.038-.063.06-.094ZM10.673 14.98l-.006.009.004-.01.002.001Z" fill="#A25F8D"/><path d="M15.026 12.37c-.061.044-.099.071-.104.076l-.087.274-.024-.034a6.5 6.5 0 0 1-.034-.094v-.038l-.01-.034-.099-.13c-.107-.185-.228-.365-.198-.595.002-.003.007-.007.007-.01-.003-.006-.008-.011-.012-.017l-.018-.071-.008-.076.041.062.315.512.114.184.01-.117.107.108Z" fill="#C0E1E9"/><path d="m14.564 15.907-.153.556c-.084-.213-.154-.398-.231-.579-.01-.024-.061-.031-.093-.046h-.001l.052-.293.205.157c.021.125.088.201.221.205Z" fill="#BEDEE5"/><path d="M12.3 12.986c-.324.185-.642.161-.97.027.223-.007.447.003.667-.025.299-.038.46-.243.547-.518.016-.051.041-.1.062-.15.07.31-.038.513-.306.666Z" fill="#34A8B9"/><path d="M12.287 13.542c-.14.105-.248-.015-.367-.053-.057-.019-.107-.061-.178-.103v.265l-.253.047.228-.217h-.185l.12-.083-.26-.154a4.52 4.52 0 0 0 .065-.035l.591.166.143.126.096.04ZM8.838 13.676c-.22.087-.297.07-.457-.103l.03-.134.008-.015-.008.014c-.086.032-.17.073-.259.093-.111.026-.226.034-.34.05l-.024-.072.083-.071.005.002a.172.172 0 0 1 .027.015.578.578 0 0 1 .018.01.105.105 0 0 0 .025.01.034.034 0 0 0 .016 0c.147-.042.292-.092.438-.14l.106.037.098.071-.132.042v.049l.366.142Z" fill="#E79723"/><path d="m13.94 16.223-.257.555c-.132-.118-.011-.351-.248-.337-.011-.162.107-.182.228-.225l.067.302.21-.295Z" fill="#BEDEE5"/><path d="m14.278 11.08-.001-.001v-.003l.001.004Z" fill="#E4E5E3"/><path d="m14.278 11.08-.001-.001v-.003l.001.004Z" fill="#04080A"/><path d="m15.058 11.994-.148.233-.046-.044-.152-.377-.03-.03c-.12-.173-.243-.345-.357-.523a.133.133 0 0 1-.016-.034.031.031 0 0 1-.002-.006l-.007-.022-.005-.023-.009-.045a.623.623 0 0 0-.009-.044l.001.001-.002-.004.362.394.032.034.093.132.173.196-.003-.003.06.066.065.099Z" fill="#C0E1E9"/><path d="m15.988 15.495-.018.017-.052-.04-.167-.116-.139-.143.075-.058-.031-.143h.12l.044.097.134.325.034.061ZM4.452 15.31l-.207.198-.036-.036.194-.349.05.187Z" fill="#BEDEE5"/><path d="m4.545 15.177-.035.097-.058.036-.049-.187.007-.01.068-.035.067.099Z" fill="#FAFBFB"/><path d="m12.488 15.36-.207.24.062-.266.145.025Z" fill="#BCB66B"/><path d="m4.478 15.078-.068.035.065-.2.003.165Z" fill="#BEDEE5"/><path d="M7.093 11.468a2.63 2.63 0 0 1-.047.001l-.015-.211.029-.004.033.214Z" fill="#7CC784"/><path d="m11.75 11.378-.243.022.013-.046.23.024Z" fill="#C3E5EE"/><path d="m12.74 12.028-.003.003.001-.005.001.002ZM12.99 9.708c-.001.548-.083 1.095-.139 1.642-.02.205-.067.407-.102.611l-.01.065-.137-.247c.056-.5.146-1 .157-1.502a4.579 4.579 0 0 0-.133-1.209c-.098-.39-.297-.756-.663-.98-.088-.054-.202-.064-.304-.094l-.2-.03-.066.004-.09-.026.158-.041.193-.008c.124.031.263.038.37.098.669.374.968.98.966 1.717Z" fill="#8BD1E0"/><path d="M12.626 9.068c-.098-.39-.298-.756-.664-.98-.087-.054-.202-.064-.304-.094l-.2-.03-.065.004-.09-.026h-.002c-.287.098-.47.299-.577.578-.23.6-.252 1.223-.198 1.852.03.334.084.666.126.992.135-.046.244-.097.359-.12.629-.12 1.197-.048 1.59.535.057-.5.146-1 .157-1.502a4.583 4.583 0 0 0-.132-1.209Zm-.26 1.604a.499.499 0 0 1-.484.241.365.365 0 0 0-.016.027l-.012.142-.043-.126v-.002l-.296-.163-.294-.111.006-.057c.17 0 .34.002.51-.004.014 0 .027-.047.04-.072l-.124-.262-.034.035-.345-.336a.076.076 0 0 1-.012-.015l-.035-.037c-.183-.277-.144-.445.161-.691l.08-.049.006-.004.07-.078c.066-.2.12-.362.172-.524l.042-.167.158.131-.027.522c.183.026.332.104.351.334l-.356-.183.04.763c.258-.008.523-.056.629.256.067.199-.056.317-.187.43Z" fill="#D0E9F8"/><path d="m9.532 15.129-.009-.016.001-.001.002-.002.006.019ZM9.605 15.261l-.018.017-.054-.149.072.132Z" fill="#A25F8D"/><path d="m6.05 14.816-.004.071v.002l-.094-.072.098-.001Z" fill="#E79723"/><path d="M5.685 12.468c0 .009-.002.017-.003.026l-.017.062.008-.034.008-.035v-.001l.004-.018Z" fill="#04080A"/><path d="m11.867 17.485-.07.095v-.004a2.086 2.086 0 0 0-.012-.042l.082-.049Z" fill="#E79723"/><path d="M7.034 11.175H7.01v-.103h.02c0 .034.002.069.004.104Z" fill="#04080A"/><path d="M9.485 15.03a9.13 9.13 0 0 0-.066-.087l.007-.035.06.123ZM9.495 15.043l-.003.002-.007-.014.01.012Z" fill="#A25F8D"/><path d="m7.893 13.416-.005-.046.104-.021-.099.067Z" fill="#E79723"/><path d="m12.801 11.964-.061.065-.003.002.001-.005.01-.065.053.003Z" fill="#04080A"/><path d="m4.245 15.508-.084.07.048-.106.036.036Z" fill="#7CC784"/><path d="M6.994 10.918h-.018V11h.018v-.083Z" fill="#A25F8D"/><path d="M5.922 10.981H5.92l.002-.003v.003Z" fill="#FAFBFB"/><path d="m9.425 14.908-.007.035a14.872 14.872 0 0 0-.026-.066l.02-.006.013.037Z" fill="#04080A"/><path d="m3.982 13.739-.011.003a10.254 10.254 0 0 1-.011-.034l.016-.004.006.035ZM9.62 15.331l-.033-.053.018-.017c.006.023.01.047.015.07ZM9.625 15.339l-.003.002-.002-.007v-.002l.005.007ZM10.674 14.975l-.001.005-.002-.002.003-.003Z" fill="#A25F8D"/><path d="m8.078 13.317-.084.033a23.393 23.393 0 0 0-.006-.05l.09.017Z" fill="#E79723"/><path d="m9.526 15.11-.001.002-.033-.067.002-.002.032.067Z" fill="#A25F8D"/><path d="m13.16 9.69-.007.008-.008-.013.007-.014.008.018Z" fill="#E4E5E3"/><path d="M16.3 12.394v.043c-.012-.015-.016-.022-.022-.028l.006-.015h.016Z" fill="#A25F8D"/><path d="M4.396 13.916a1.152 1.152 0 0 1-.034.012l-.023-.026.038-.007a.168.168 0 0 1 .019.021Z" fill="#BEDEE5"/><path d="M14.476 11.786c.001.002-.004.006-.006.009l-.012-.018c0-.002.005-.006.007-.01.004.007.009.012.011.019Z" fill="#A25F8D"/><path d="m6.314 9.21.098.13-.048.066-.05-.006v-.19ZM6.317 9.014l-.004.13.004-.13ZM6.248 8.782l.043-.059.055.062-.098-.003Z" fill="#C3E5EE"/><path d="m13.585 9.046-.06-.025.026-.067.027.014.007.078Z" fill="#BEDEE5"/><path d="m6.412 9.34.066-.065-.066.066Z" fill="#C3E5EE"/><path d="m5.529 11.339-.003.003.002-.003h.001Z" fill="#0F0D0D"/><path d="M5.923 10.981H5.92l.002-.003v.003ZM5.857 10.979H5.81l-.061.059a.13.13 0 0 1-.007.003c-.006 0-.069.08-.13.156l-.01.013-.001.002a157.535 157.535 0 0 0-.327.397l-.09.114-.05.174c.13-.175.386-.494.514-.67.003-.008.133-.16.18-.217l.026-.029.003-.002Z" fill="#04080A"/><path d="m5.529 11.339-.003.003.002-.003h.001ZM8.838 13.676l-.366-.142v-.049l.132-.042c.005.008.011.01.02.009l.078.026c.112.067.157.133.136.198ZM11.533 13.48h.184l-.228.218h.002l-.044.026-.142-.025.228-.218Z" fill="#0F0D0D"/><path d="M7.198 15.082c-.102.095-.279.08-.393-.033l.393.033ZM8.379 14.82l-.066.121c-.052-.01-.092-.02-.131-.028l.197-.094ZM8.181 14.913l-.196.038.196-.038Z" fill="#ED961B"/><path d="m12.312 13.505-.025.037-.097-.04.018-.093.036-.004.04.062.028.038Z" fill="#D89910"/><path d="m7.592 15.049-.13.031a60.2 60.2 0 0 0 .13-.031ZM6.706 15.048c-.043-.01-.086-.02-.13-.032l.13.032ZM8.51 14.783l.062.079-.127-.044.065-.035ZM7.854 15.012l-.131.032.131-.032Z" fill="#ED961B"/><path d="m8.702 13.478-.078-.026.078.026ZM11.447 13.724l.044-.027-.044.027ZM12.312 13.505l-.029-.038.03.038Z" fill="#E79723"/><path d="m5.521 13.283.2-.275.069.044-.297.47c.001-.008-.002-.013-.01-.015 0-.023 0-.047-.002-.07l.04-.154ZM5.66 13.7l.193-.392c-.006.16-.028.31-.194.391Z" fill="#04080A"/><path d="m4.835 15.8-.088.14-.034-.141h.122ZM4.676 15.372l.03-.133-.03.133Z" fill="#FAFBFB"/><path d="m5.481 13.437.003.07-.063-.035.06-.035Z" fill="#BEDEE5"/><path d="m5.697 12.622-.013.03-.225.422a9.818 9.818 0 0 0-.046-.023l.213-.4.009-.064c.008-.01.017-.018.026-.027l.004-.004.017-.062-.001-.007v-.001l-.01-.068-.013-.158v-.001l-.009-.035-.222.392-.064.072-.065.322v.134l.065.033.095-.017.063.123.2-.275.069.044-.297.47.026.27.057.015.083-.108.194-.39.092-.069-.248-.618ZM5.327 12.618l-.076.049.086.014a19.897 19.897 0 0 0-.01-.063Z" fill="#C0E1E9"/><path d="m6.145 15.866-.058-.067.058.067ZM5.299 13.144l.064.033-.064-.033Z" fill="#E4E5E3"/><path d="m5.394 10.913.034-.028.14-.128c-.022-.09-.084-.19-.063-.266.078-.285.162-.57.281-.839.133-.3.306-.58.46-.87l.044-.059.055.062-.028.229-.004.13.001.065.098.131.066-.065-.003-.038c-.017-.082-.062-.17-.047-.245.05-.255.12-.505.196-.816l-.614.487-.412.582a7.109 7.109 0 0 1-.034.07l-.237.714-.023.12-.012.175-.002.032-.024.585.094-.002.034-.026ZM14.667 10.834l.172.098-.04-.47c-.01-.035-.018-.07-.026-.105l-.017-.14-.017-.09-.018-.105-.013-.058c-.024-.076-.049-.15-.072-.226l-.03-.102-.392-.756-.044-.058.002.002-.001-.002-.029-.037-.622-.577c-.01.01-.022.018-.033.027l.144.56.028.084.064.252c0 .022 0 .045.002.067l-.04.056.108.15a2.03 2.03 0 0 1 .045-.003v-.625c.07.016.1.037.114.066.191.395.405.782.562 1.191.096.25.105.533.153.8Z" fill="#C0E1E9"/><path d="m15.972 10.844-.15.112c-.166.168-.37.209-.595.183l-.058-.011-.106-.022a4.078 4.078 0 0 1-.056-.019 1.524 1.524 0 0 1-.042-.01l-.057-.02-.465-.197-.17-.111-.082.022.023.149c.133.119.268.237.4.357.039.035.074.075.11.112.038-.006.082-.03.112-.017.293.115.585.204.942 0-.046.11-.081.159-.084.21-.005.094.009.19.015.285.029-.063.05-.131.087-.19.159-.251.23-.52.176-.833ZM5.529 11.339l-.003.003.003-.003ZM5.273 11.61l.22-.27c.012 0 .04-.051.052-.052.024-.043.032-.035.056-.078l.056-.067.001-.001.033-.05.05-.048.068-.064.047-.002.058-.054.064-.011-.016-.143-.11-.057-.176.112-.418.302-.059.015-.061.015-.07.012-.525.004-.058-.016-.336-.196.25.643.013-.065.006-.085h.867l-.012.155ZM7.133 16.308l-.278-.263-.043.041.071.339-.364-.218-.093.272c-.017 0-.034 0-.05.002l-.232-.615a8.352 8.352 0 0 0-.058-.067l-.03-.272-.39.286-.125-.5-.101.022-.008.008.04.357.014.07.173.708.06-.014c.041-.236.045-.49.256-.687.125.345.197.692.483.894l.207-.254c.112.09.19.155.266.217l.182-.175.125.235.109-.252.21.303.03-.017-.261-.601-.193.18ZM15.47 15.118l-.13.632-.478-.569-.245.125-.099.511-.175-.115c.021.125.088.201.221.205l.114-.58c.37.24.54.597.716 1.008.041-.145.081-.245.097-.349.04-.256.068-.514.1-.77l-.07-.116a2.335 2.335 0 0 1-.051.018ZM5.626 12.127l.027-.231.003-.194c-.124.19-.247.38-.373.568-.02.03-.052.051-.079.076l.153.145c.09-.12.179-.242.268-.363v-.001ZM9.062 6.922c-.412-.534-.928-.632-1.467-.231a1.554 1.554 0 0 0-.497.647c-.224.575-.386 1.174-.573 1.763.184-.023.168-.189.21-.306.079-.223.12-.463.222-.674.174-.358.37-.708.583-1.043.118-.185.25-.388.503-.424.439-.06.79.073 1.03.464.103.167.226.322.374.529v-.165c-.05-.057-.106-.11-.147-.173-.083-.127-.146-.268-.238-.387ZM14.615 13.808l.051-.035-.032-.242-.146-.213c-.033-.047-.064-.097-.096-.145l-.104.022-.012.114.199.41.14.089Z" fill="#C0E1E9"/><path d="m14.654 13.442-.019.088-.146-.211-.096-.146-.047-.1a.474.474 0 0 1-.034-.088c-.012-.048.002-.063.022-.063.022 0 .05.019.057.03.027.042.064.11.104.183.05.094.103.198.14.27l.007.014.012.023ZM14.277 13.309l.199.41c-.105-.041-.226-.291-.199-.41ZM8.014 10.518l.103.004c.197-.046.042-.18.08-.264l-.338-.142c-.29-.403-.11-.8.386-1.157.01-.12.014-.251.036-.378.009-.047.063-.085.096-.127l.025.353.491.176.03.136c-.02.005-.035.013-.04.009-.1-.092-.227-.184-.34-.088-.085.071-.13.217-.144.336-.026.203-.015.41-.02.616v.144l.399.019c.25.01.308.092.242.346l-.196.162-.051.018h-.398l-.035.129-.021.07-.071.109-.026-.15-.016-.144-.374-.109.157-.07.012.008.013-.005Zm.348-.164.003.11.006.031c.16.126.445.057.566-.157l-.118-.036c-.118-.004-.236-.013-.354-.008-.035.001-.069.04-.103.06Zm-.15-.297v-.86c-.24.15-.35.451-.322.606.027.15.112.257.322.254Z" fill="#04080A"/><path d="m8.823 10.663.197-.162c.066-.254.008-.335-.243-.346l-.398-.02v-.143c.172.021.345.034.514.066.21.04.334.169.318.308-.019.17-.17.286-.388.297ZM7.832 10.586l.374.109.016.144c-.183.013-.36.006-.508-.143l.118-.11Z" fill="#57B256"/><path d="m8.893 8.983-.491-.176-.025-.353c.21.025.091.21.143.295.121.04.234.071.34.118.023.01.022.076.033.116ZM7.86 10.116l.338.142c-.039.084.116.219-.08.264v-.139l-.259-.267Z" fill="#7CC784"/><path d="m8.34 10.81.035-.13h.398l-.433.13Z" fill="#57B256"/><path d="m8.248 10.989.071-.109-.023.156h-.03l-.018-.047Z" fill="#3C6EB3"/><path d="m8.015 10.518-.013.006-.013-.007.026.002Z" fill="#7CC784"/><path d="M11.228 9.932c-.184-.277-.145-.445.16-.691l.08-.049.006-.004.243-.084v-.518c.01-.045.022-.09.041-.167l.158.131-.026.522c.183.026.332.104.35.334l-.356-.183.041.763c.257-.008.522-.056.628.257.067.198-.056.316-.187.43l-.44.085c-.014.054-.029.104-.044.155a.3.3 0 0 0-.015.027l-.055.016v-.002c-.015-.055-.03-.111-.045-.175l-.251.012-.294-.111.006-.057c.17 0 .34.002.509-.003.014-.001.027-.048.041-.073v-.358l-.503-.205a7.237 7.237 0 0 1-.047-.052Zm.695.331v.338l.179-.027c.302-.035.385-.152.26-.422-.082 0-.18-.01-.276.003-.064.009-.186-.04-.163.108Zm-.426-.337.237.118v-.81c-.237.097-.44.182-.527.479l.29.213Z" fill="#04080A"/><path d="m11.274 9.984.504.205v.358l-.125-.262-.034.035-.345-.336ZM11.882 10.913c.014-.05.03-.101.044-.155l.44-.086a.499.499 0 0 1-.484.241ZM11.716 8.586v.518l-.242.084.07-.078.172-.524ZM11.516 10.79l.25-.01.046.174-.296-.163ZM11.812 10.956l.055-.016-.013.142-.042-.126ZM11.468 9.192l-.08.049.08-.049ZM11.227 9.932l.035.037-.035-.037Z" fill="#57B256"/><path d="m11.41 12.616.082.037a7.92 7.92 0 0 0-.012.046c-.054-.005-.114.004-.16-.018a1.114 1.114 0 0 1-.6-.65c-.014-.038.01-.089.018-.134.084.345.343.547.61.741.01.008.04-.014.062-.022Z" fill="#34A8B9"/><path d="M11.41 12.616c-.02.008-.052.03-.062.022-.267-.194-.526-.396-.61-.74.02.003.048 0 .059.013l.614.705ZM11.268 11.793l.385.686-.055.03-.356-.69.026-.026ZM12.049 12.21l-.429-.673c.219.177.365.4.45.665l-.015-.006-.006.014Z" fill="#04080A"/><path d="m11.203 11.695.066.098-.026.025a59.692 59.692 0 0 1-.037-.125l-.003.002Z" fill="#04080A"/><path d="m12.07 12.202.007.063h-.02a8.944 8.944 0 0 0-.008-.055l.006-.014.015.006ZM11.168 11.669l-.004-.004c-.005-.022-.002-.008.002.006l.002-.002ZM11.642 12.564l.008.034-.014.002a4.109 4.109 0 0 1-.005-.034l.011-.002Z" fill="#34A8B9"/><path d="M11.205 11.693a12.42 12.42 0 0 0-.038-.024l-.002.002.037.024.003-.002ZM8.522 11.703l-.461.95c.071-.37.215-.708.448-1.008l.013.058ZM8.757 12.694c-.035.004-.07.01-.048.006l.587-.697-.099.321-.046.045-.008.008-.086.099.008.005-.009-.004-.16.135h.002l-.065.042-.033.018-.043.022ZM8.53 12.592a2.43 2.43 0 0 1 .512-.872l-.468.908-.044-.036Z" fill="#04080A"/><path d="m9.197 12.324.1-.321.016-.025c.026.03.052.06.099.111l-.215.235ZM8.896 12.612ZM9.057 12.476l.086-.1-.086.1Z" fill="#34A8B9"/><path d="m8.53 12.592.044.036-.042.077-.028-.011.027-.102ZM8.522 11.703l-.013-.058.018-.031.022.008-.027.081Z" fill="#3C6EB3"/><path d="m9.151 12.37.048-.046-.048.045ZM8.833 12.654l.065-.042-.065.042ZM8.757 12.694l.043-.022-.043.022Z" fill="#34A8B9"/><path d="M9.205 15.067c.184.642.44 1.244.863 1.844.424-.592.68-1.189.856-1.852l1.054.469-.13.507c-.167.262-.305.508-.473.732a.86.86 0 0 1-.35.285c-.33.128-.668.286-1.032.248-.418-.043-.818-.168-1.152-.438-.069-.055-.112-.144-.16-.221-.215-.351-.505-.668-.519-1.123l1.043-.451Z" fill="#F55621"/><path d="m5.685 12.468-.003.026-.001-.007v-.001l.004-.018Z" fill="#7CC784"/><path d="m8.41 13.438.008-.014-.007.015v-.001Z" fill="#FCCF0A"/><path d="M8.212 10.057c-.21.003-.295-.103-.322-.254-.028-.155.082-.456.322-.605v.859Z" fill="#7CC784"/><path d="M8.371 10.495a.714.714 0 0 1-.006-.031c0-.037-.002-.073-.003-.11.035-.02.068-.059.103-.06.118-.005.236.004.355.008-.026.032-.046.082-.079.093-.12.04-.246.068-.37.1Z" fill="#BEDEE5"/><path d="M8.371 10.495c.124-.032.25-.06.37-.1.033-.011.053-.061.079-.093l.117.036c-.12.214-.405.283-.566.158ZM8.362 10.354l.003.11c0-.037-.002-.073-.003-.11ZM11.497 9.926l-.29-.213c.088-.297.29-.382.527-.48v.81c-.084-.041-.16-.08-.238-.117l.113-.008-.03-.512c-.273.157-.146.342-.082.52ZM11.923 10.263c-.023-.149.099-.1.162-.108.096-.013.195-.003.277-.003.124.27.041.387-.26.422l.162-.288-.044-.052-.297.03Z" fill="#57B256"/><path d="m11.923 10.263.297-.029.044.052-.162.288-.18.027v-.338ZM11.497 9.926c-.064-.178-.19-.363.082-.52l.03.512-.113.008Z" fill="#BEDEE5"/><path d="m13.036 4.52-.005.066c-.13.049-.266.078-.394.13a.283.283 0 0 1-.13.034 2.08 2.08 0 0 0-.228-.205c-.256-.123-.506-.261-.785-.332l-.012.002c-.169-.07-.34-.117-.52-.056-.268.488-.301 1.046-.453 1.575-.304.09-.608.088-.911-.003-.109-.5-.21-1.01-.427-1.475-.07-.336-.747.062-.955.093l-.27.133.001-.002c-.135.056-.229.163-.327.267l.001-.002c-.185.042-.357-.107-.54-.131l.033-.12a.226.226 0 0 0 .075-.036l.046-.034v.003c.801-.364 1.715-.52 2.587-.657.61-.022 1.207.15 1.808.24.41.152.933.17 1.286.459l.013-.003.107.054Z" fill="#E32821"/><path d="M11.8 1.553c-.055.175-.318 1.91-.373 2.086a2.19 2.19 0 0 0-.035.029 7.733 7.733 0 0 0-1.034-.13 8.699 8.699 0 0 0-.54-.018c-.01-.005-.018-.004-.025.003a4.782 4.782 0 0 0-.198.022c-.286.036-.574.088-.857.093l-.014-.04-.035-.103a6.292 6.292 0 0 1-.037-.119l-.005-.015-.034-.117c-.012-.045-.396-1.597-.409-1.642l3.596-.05Z" fill="#4273B9"/><path d="M9.98 20a9.929 9.929 0 0 1-5.436-1.624 9.932 9.932 0 0 1-4.325-6.313 9.932 9.932 0 0 1 1.405-7.522A9.933 9.933 0 0 1 7.937.216C13.33-.92 18.645 2.541 19.783 7.935c1.139 5.394-2.324 10.708-7.718 11.846-.693.147-1.391.219-2.084.219Zm.023-18.654c-.59 0-1.188.06-1.788.187a8.596 8.596 0 0 0-5.463 3.743 8.595 8.595 0 0 0-1.217 6.51 8.596 8.596 0 0 0 3.743 5.462 8.597 8.597 0 0 0 6.51 1.217c4.668-.985 7.664-5.585 6.679-10.253-.858-4.068-4.462-6.866-8.464-6.866Z" fill="url(#b)"/><path d="M9.983 18.752a8.691 8.691 0 0 1-4.76-1.421 8.693 8.693 0 0 1-3.784-5.525C.442 7.084 3.473 2.433 8.194 1.436a8.694 8.694 0 0 1 6.583 1.23 8.693 8.693 0 0 1 3.786 5.526c.996 4.721-2.034 9.373-6.755 10.369a8.835 8.835 0 0 1-1.825.191Zm.02-17.102c-.57 0-1.147.059-1.726.18-4.504.951-7.395 5.389-6.444 9.892a8.293 8.293 0 0 0 3.61 5.271 8.292 8.292 0 0 0 6.281 1.174c4.504-.95 7.395-5.388 6.445-9.892-.828-3.925-4.305-6.625-8.166-6.625Z" fill="url(#c)"/><path d="m10.012 19.459-.154-.001a.05.05 0 0 1-.05-.052c.001-.027.024-.045.052-.049a9.281 9.281 0 0 0 1.644-.119.05.05 0 0 1 .016.1 9.472 9.472 0 0 1-1.508.12Zm-1.597-.135h-.009a9.474 9.474 0 0 1-1.611-.423.05.05 0 0 1-.03-.064.05.05 0 0 1 .064-.03 9.374 9.374 0 0 0 1.594.417.05.05 0 0 1-.008.1Zm4.506-.328a.05.05 0 0 1-.016-.098 9.342 9.342 0 0 0 1.515-.648.05.05 0 0 1 .048.088 9.462 9.462 0 0 1-1.531.656.05.05 0 0 1-.016.002Zm-7.432-.688a.049.049 0 0 1-.024-.006 9.474 9.474 0 0 1-1.386-.925.05.05 0 0 1 .063-.079c.429.345.89.653 1.37.916a.05.05 0 0 1-.023.095Zm10.176-.745a.05.05 0 0 1-.03-.09c.439-.332.85-.703 1.224-1.105a.05.05 0 1 1 .074.069 9.546 9.546 0 0 1-1.237 1.115.051.051 0 0 1-.03.01ZM3.053 16.395a.05.05 0 0 1-.037-.017 9.545 9.545 0 0 1-1.01-1.324A.05.05 0 0 1 2.09 15c.294.464.63.905 1 1.31a.05.05 0 0 1-.037.085ZM17.8 15.317a.05.05 0 0 1-.042-.079 9.33 9.33 0 0 0 .8-1.44.05.05 0 0 1 .092.04 9.42 9.42 0 0 1-.808 1.457.05.05 0 0 1-.042.022Zm-16.43-1.52a.05.05 0 0 1-.047-.03 9.436 9.436 0 0 1-.527-1.58.05.05 0 0 1 .098-.024c.127.534.302 1.06.521 1.563a.05.05 0 0 1-.046.07ZM19.086 12.5a.05.05 0 0 1-.049-.063 9.455 9.455 0 0 0 .286-1.623c.003-.028.029-.059.055-.056.028.003.05.017.047.045v.01a9.564 9.564 0 0 1-.29 1.65.05.05 0 0 1-.05.037ZM.62 10.792a.05.05 0 0 1-.05-.046 9.445 9.445 0 0 1 .008-1.572l.008-.094a.052.052 0 0 1 .055-.045.05.05 0 0 1 .046.055l-.01.093a9.537 9.537 0 0 0-.007 1.555.05.05 0 0 1-.046.054H.62ZM19.39 9.4a.05.05 0 0 1-.051-.047 9.309 9.309 0 0 0-.257-1.628.05.05 0 0 1 .098-.024 9.43 9.43 0 0 1 .26 1.645.05.05 0 0 1-.047.054h-.004ZM.886 7.707a.05.05 0 0 1-.049-.063 9.416 9.416 0 0 1 .554-1.571.05.05 0 1 1 .092.042 9.32 9.32 0 0 0-.549 1.554.05.05 0 0 1-.048.038ZM18.67 6.389a.05.05 0 0 1-.046-.031 9.395 9.395 0 0 0-.774-1.455.05.05 0 1 1 .085-.055c.303.466.566.96.782 1.47a.05.05 0 0 1-.047.07ZM2.141 4.875a.05.05 0 0 1-.042-.078 9.48 9.48 0 0 1 1.036-1.305.05.05 0 0 1 .07-.002c.021.02.022.051.003.071a9.402 9.402 0 0 0-1.025 1.291.05.05 0 0 1-.042.023Zm14.87-1.101a.05.05 0 0 1-.037-.017 9.427 9.427 0 0 0-1.202-1.127.05.05 0 0 1 .062-.08 9.54 9.54 0 0 1 1.215 1.14.05.05 0 0 1-.037.084ZM4.248 2.604a.05.05 0 0 1-.03-.09c.439-.34.91-.642 1.401-.9a.05.05 0 0 1 .068.022.05.05 0 0 1-.02.068 9.42 9.42 0 0 0-1.388.89.05.05 0 0 1-.03.01Zm10.349-.768a.05.05 0 0 1-.025-.007 9.326 9.326 0 0 0-1.504-.675.05.05 0 1 1 .033-.095c.524.182 1.036.411 1.52.682a.05.05 0 0 1-.024.095Zm-7.622-.698a.05.05 0 0 1-.016-.098A9.432 9.432 0 0 1 8.576.645a.05.05 0 1 1 .015.1 9.318 9.318 0 0 0-1.6.39.052.052 0 0 1-.017.003ZM11.681.79 11.67.79a9.526 9.526 0 0 0-1.64-.15.05.05 0 0 1 0-.101A9.625 9.625 0 0 1 11.69.69a.05.05 0 0 1-.01.1Z" fill="url(#d)"/><defs><linearGradient id="b" x1="2.927" y1="17.069" x2="17.066" y2="2.929" gradientUnits="userSpaceOnUse"><stop stop-color="#FCC449"/><stop offset=".062" stop-color="#EBAF3B"/><stop offset=".199" stop-color="#CB8921"/><stop offset=".324" stop-color="#B46D0F"/><stop offset=".434" stop-color="#A65C03"/><stop offset=".516" stop-color="#A25600"/><stop offset=".79" stop-color="#FBAC34"/><stop offset=".942" stop-color="#FDF363"/></linearGradient><linearGradient id="c" x1="1.383" y1="8.479" x2="18.619" y2="11.518" gradientUnits="userSpaceOnUse"><stop stop-color="#CAB700"/><stop offset=".208" stop-color="#AC6809"/><stop offset=".476" stop-color="#6B2A02"/><stop offset=".808" stop-color="#AC6809"/><stop offset="1" stop-color="#CAB700"/></linearGradient><linearGradient id="d" x1=".541" y1="9.999" x2="19.439" y2="9.999" gradientUnits="userSpaceOnUse"><stop stop-color="#FCC449"/><stop offset=".062" stop-color="#EBAF3B"/><stop offset=".199" stop-color="#CB8921"/><stop offset=".324" stop-color="#B46D0F"/><stop offset=".434" stop-color="#A65C03"/><stop offset=".516" stop-color="#A25600"/><stop offset=".79" stop-color="#FBAC34"/><stop offset=".942" stop-color="#FDF363"/></linearGradient><radialGradient id="a" cx="0" cy="0" r="1" gradientUnits="userSpaceOnUse" gradientTransform="translate(10 9.999) scale(9.32698)"><stop offset=".03" stop-color="#FCC449"/><stop offset=".076" stop-color="#EBAF3B"/><stop offset=".178" stop-color="#CB8921"/><stop offset=".272" stop-color="#B46D0F"/><stop offset=".354" stop-color="#A65C03"/><stop offset=".415" stop-color="#A25600"/><stop offset=".785" stop-color="#FBAC34"/><stop offset=".942" stop-color="#FDF363"/></radialGradient></defs></svg>