<svg width="20" height="20" fill="none" xmlns="http://www.w3.org/2000/svg"><g clip-path="url(#a)"><path d="m8.304 2.37-.283-.18-.457.016-1.184.465h-.156l-.797.431.356.47 1.532-.587.989-.615Z" fill="#fff"/><path d="M15.186 4.025c.15.146.304.287.446.44.165.179.327.361.475.554.195.256.384.518.56.788.111.172.196.363.29.547.097.193.195.385.283.582.062.14.11.284.157.429.06.187.12.375.17.566.048.184.087.372.123.559.03.158.048.318.08.476.01.039.056.07.086.105.03.017.06.039.093.051.376.146.718.344.982.657.06.07.104.155.155.234-.005.015-.017.035-.011.047.024.055.053.108.081.162.196.367.309.758.313 1.175.002.182.001.366-.02.546a1.58 1.58 0 0 1-.199.638l-.073.13-.123.004c-.02-.014-.04-.037-.062-.04a.36.36 0 0 0-.272.076c-.156.114-.32.218-.485.32-.182.11-.387.145-.595.152-.213.006-.412-.06-.61-.133a.418.418 0 0 0-.21-.003c-.044.008-.067.055-.022.098.066.064.135.124.2.188.097.095.192.191.288.287-.073.179-.138.362-.221.536-.107.222-.226.437-.343.653-.093.173-.19.344-.288.514-.033.057-.079.107-.118.161-.05.071-.098.146-.153.214-.064.08-.133.156-.202.232-.218.238-.426.488-.66.71-.252.237-.52.459-.798.665-.272.203-.561.384-.85.562-.16.098-.335.173-.507.252-.19.087-.382.173-.578.248-.323.124-.648.243-.99.305-.158.03-.314.075-.471.11-.065.014-.132.018-.197.034-.123.029-.247.057-.366.098-.028.01-.054.069-.056.107-.005.084.005.17.01.255l-.123.02c-.01-.132-.025-.264-.028-.396-.002-.092.052-.193-.052-.264.003-.088-.062-.135-.12-.18-.18-.138-.38-.112-.582-.057a.44.44 0 0 0-.308.26c-.031.076-.05.156-.074.234-.247-.033-.493-.066-.74-.101-.165-.024-.329-.052-.493-.078.027-.022.053-.047.083-.066.157-.1.266-.233.272-.428.008-.298.012-.596.02-.894.001-.085.01-.17.015-.255.051.003.103.003.155.008.223.022.446.057.67.066a6.24 6.24 0 0 0 1.248-.057 10.25 10.25 0 0 0 1.14-.24c.424-.119.836-.278 1.254-.42.181-.06.363-.12.544-.182.018.084.037.167.053.25.051.264.302.436.506.421.276-.02.538-.298.542-.553.004-.259.011-.518.017-.777.075-.127.152-.252.224-.38.222-.395.362-.818.419-1.267.02-.157.033-.315.037-.472.005-.2.01-.401-.009-.6-.018-.199-.102-.389-.086-.593.001-.162.004-.323.004-.485 0-.979-.244-1.898-.679-2.77l.035-.171c.04-.218.072-.438.121-.653.042-.183.07-.358-.042-.526a.104.104 0 0 1-.017-.068c.073-.397.146-.793.227-1.188a.208.208 0 0 1 .096-.125c.426-.225.54-.76.403-1.15-.065-.183-.169-.344-.393-.357-.09-.005-.182.01-.273.01-.024-.001-.047-.026-.07-.04 0-.068.042-.1.102-.12.154-.055.303-.128.397-.262.081-.117.13-.256.193-.385Zm1.477 6.668c-.025.01-.054.013-.074.028a.51.51 0 0 0-.2.326c-.042.277-.04.554.056.82.044.125.123.239.271.272.033.003.066.014.098.009.096-.014.17.016.244.082.093.083.2.15.302.223-.03.055.003.08.049.092.304.086.586.05.835-.159.124-.103.232-.223.41-.25.126-.018.205-.113.21-.251.043-.065.104-.125.125-.196.081-.268-.017-.441-.291-.54-.005-.052-.016-.103-.015-.154 0-.374-.13-.691-.411-.94a.865.865 0 0 0-.796-.214c-.392.09-.622.361-.744.733-.008.026.003.058.005.087l-.074.033Zm-.351-.845a.447.447 0 0 0 .34-.112.735.735 0 0 0-.035-1.167.598.598 0 0 0-.727.06.71.71 0 0 0-.217.605c.024.307.293.636.639.614Zm-.79-1.945a.301.301 0 0 0 .297-.294c0-.156-.12-.292-.258-.293-.165 0-.29.132-.293.303-.004.139.125.313.254.284Zm1.104 5.165c.013-.156-.082-.27-.253-.282-.128-.008-.26.148-.26.3 0 .173.102.3.242.297.159-.002.271-.133.271-.315ZM1.752 13.703c-.01-.032-.011-.069-.029-.096-.13-.2-.165-.427-.2-.656.024.002.048.005.073.005.166.003.335.029.497.004.325-.05.604-.204.821-.456.02-.024.018-.067.026-.101-.035 0-.075-.012-.105 0-.14.06-.272.136-.414.189a1.3 1.3 0 0 1-1.045-.06c-.456-.218-.716-.598-.84-1.076a2.521 2.521 0 0 1 .592-2.353c.174-.189.395-.313.633-.408l.15-.06L1.9 8.6c-.04.003-.08.003-.12.01l-.33.061c.044-.238.084-.476.135-.713.084-.386.227-.753.364-1.122.007-.02.02-.037.03-.055.01.016.03.036.027.049-.024.084-.052.167-.079.25l-.09.274-.058.169c-.017.052-.036.104-.051.157-.006.02-.001.043-.007.063-.038.13-.084.257-.114.388-.021.096-.021.196-.031.295.027-.016.037-.04.049-.06.03-.055.061-.108.09-.163.024-.049.044-.1.068-.15.009-.015.025-.027.038-.04.015.029.027.061.047.088.06.084.162.082.219-.005a.373.373 0 0 0 .04-.092c.086-.27.163-.542.257-.809a6.27 6.27 0 0 1 .552-1.152 7.126 7.126 0 0 1 1.213-1.49c.034-.033.063-.07.095-.106.084.06.16.147.254.173.18.048.243.158.25.326v.018c-.039.003-.078.013-.114.007-.194-.035-.377.046-.435.216a1.355 1.355 0 0 0-.082.39c-.01.3.114.543.378.7.084.05.12.122.133.216.022.158.054.316.081.474l.121.717-.023.034c-.028.034-.06.065-.084.101-.029.041-.075.088-.073.13.01.177.016.359.06.53.04.158.127.305.193.457-.127.31-.269.614-.38.929a5.99 5.99 0 0 0-.331 2.414c.015.24.07.477.107.715l.011.028.012.04c.003.107.005.213.011.319.006.11.01.22.025.327.03.213.056.428.106.637.077.325.167.647.264.966.051.171.135.332.193.501.084.25.226.383.506.364.083-.006.143.028.21.073.354.237.746.398 1.149.532.143.047.296.063.445.094.007.118.018.237.02.355.002.26-.009.52.002.779.006.125.038.252.075.373.03.097.085.187.129.28-.048-.003-.099.003-.143-.011-.277-.09-.555-.177-.827-.282-.184-.07-.357-.169-.535-.256-.106-.053-.21-.109-.316-.163a5.08 5.08 0 0 1-.842-.556c-.323-.258-.628-.538-.94-.808-.023-.02-.05-.037-.074-.055l.025-.026c.308-.26.482-.584.471-.994-.003-.112-.027-.223-.034-.335a.666.666 0 0 0-.281-.53.396.396 0 0 1-.151-.21.802.802 0 0 0-.244-.368c-.293-.244-.647-.198-.945-.051-.06.029-.077.08-.01.127-.08.07-.168.13-.237.209-.092.104-.201.208-.163.373-.08.039-.087.109-.077.185l.02.116c-.002.085-.01.17-.003.255a.458.458 0 0 0 .218.363c.086.05.168.11.258.147.25.107.514.066.775.053.014 0 .027-.012.041-.017.119-.044.163-.15.208-.254a.36.36 0 0 1 .407-.204c0 .11.008.22-.003.33a.79.79 0 0 1-.202.456c-.139.159-.324.217-.513.277-.011-.012-.021-.031-.034-.034-.3-.055-.601-.11-.903-.163-.106-.018-.199.004-.256.107a1.116 1.116 0 0 1-.655-.647c-.11-.263-.132-.543-.115-.828.028-.489.263-.863.627-1.169.066-.055.133-.106.2-.16l-.014-.026c-.032.01-.065.016-.095.03-.115.051-.23.105-.344.159Zm1.756-3.433c-.09.013-.083.087-.07.14.067.255.073.513.033.772-.005.036-.01.073-.023.106-.065.165-.133.33-.2.493-.02.048-.03.09.039.104.052.076.081.078.128.002.073-.119.158-.232.213-.359.182-.414.147-.828-.04-1.233-.007-.017-.052-.017-.08-.025Zm-2.074 1.32c.004.194.112.365.308.374.12.007.244.02.362.003.25-.037.273-.146.248-.34.09-.089.175-.181.205-.31.032-.002.064-.01.095-.007.11.011.228-.06.247-.168.022-.124.027-.25.04-.377.004-.02.013-.042.011-.062-.009-.096-.01-.194-.035-.286-.027-.09-.161-.118-.298-.072-.072.024-.126.033-.122-.07.001-.04-.01-.079-.015-.118-.038-.311-.269-.516-.57-.488a.596.596 0 0 0-.506.355c-.17.345-.17.714-.142 1.084.008.12.032.241.065.357.014.048.07.084.107.126Zm2.074-2.897c-.002-.182-.125-.267-.27-.274-.115-.006-.243.133-.244.251a.256.256 0 0 0 .268.26c.119 0 .246-.123.246-.237Zm.569-2.225c0-.147-.139-.295-.274-.285-.206.016-.293.161-.294.31-.002.138.138.27.28.272.173.002.288-.117.288-.297Zm-.389 1.344c.13.002.22-.08.224-.209a.204.204 0 0 0-.2-.213c-.117-.002-.22.093-.222.206a.209.209 0 0 0 .198.216Z" fill="#8CEAFC"/><path d="M4.748 4.965v-.018c-.006-.168-.07-.278-.249-.326-.093-.026-.17-.113-.254-.173l-.158-.221-.1-.216c-.006-.202 0-.401.065-.597.115-.348.37-.522.712-.598.346-.077.646.02.912.238.06.048.095.125.141.19.026.036.05.074.075.112.026.112.064.224.075.337a.965.965 0 0 1-.208.702c-.05.044-.1.089-.148.134-.04.036-.042.079.002.109.125.085.257.15.416.112.065-.013.135-.015.194-.04.327-.138.615-.342.876-.575a6.212 6.212 0 0 0 1.336-1.703c.055-.101.103-.206.154-.309l.037-.076c.115-.13.15-.236.045-.41-.185-.31-.257-.645-.096-.987.215-.457.618-.733 1.164-.628.179.035.347.098.495.206.192.139.296.337.35.561.072.3.048.585-.12.852-.085.135-.06.245.083.414.044.083.086.167.133.249.103.182.208.363.312.544.06.094.118.19.183.281.216.3.452.583.725.833l.522.427.425.25c.186.113.38.167.592.08.197-.08.213-.14.078-.3-.306-.359-.346-.749-.114-1.16.05-.088.11-.168.166-.252.215-.115.434-.213.687-.212.525.003.912.428.97.899.013.107-.025.22-.04.33-.063.13-.111.27-.193.386-.093.134-.243.207-.397.261-.06.021-.102.053-.102.122-.006.016-.015.033-.018.05-.052.273-.106.546-.155.82-.074.417-.146.835-.218 1.253a.49.49 0 0 0 .07.35c.082.136.155.277.237.413.053.086.033.148-.044.203-.131.093-.26.191-.395.28-.057.036-.067.065-.032.122.158.258.313.517.469.776.434.872.68 1.791.679 2.77 0 .162-.003.323-.005.485-.004.02-.011.04-.013.061a3.01 3.01 0 0 1-.176.799 3.558 3.558 0 0 1-.414.8l-.022.035-.166.2-.019.018-.196.184-.421.333a1.827 1.827 0 0 1-.02.019l-.353.22c-.18.08-.36.164-.542.242-.422.18-.86.31-1.306.412l-.02.007-.053.01-.024.007-.049.008-.042.011-.05.008-.057.01-.053.008a2.978 2.978 0 0 1-.11.02l-.041.01-.068.007-.059.008-.07.01-.063.01c-.004-.003-.007-.003-.01.001l-.02.003-.035.002-.095.01-.108.01-.094.01a9.016 9.016 0 0 1-.052.005h-.02l-.054.002-.168.011-.125.005-.497-.002-.126-.003-.443-.033-.052-.003-.72-.112-.196-.045-.381-.081-.26-.065-.043-.014a5.253 5.253 0 0 1-1.666-.815c-.065-.049-.134-.092-.2-.137-.022-.027-.04-.057-.064-.08-.043-.04-.09-.075-.134-.112-.233-.223-.402-.492-.55-.775-.084-.161-.16-.327-.24-.49a22.381 22.381 0 0 1-.01-.041l-.012-.028c-.037-.238-.092-.475-.107-.715a5.99 5.99 0 0 1 .33-2.414c.112-.315.254-.62.381-.929.116-.189.234-.377.348-.567.103-.171.1-.136-.05-.253-.13-.103-.254-.216-.38-.325l.01-.108v.001c.082-.152.16-.307.247-.457a.404.404 0 0 0 .05-.323c-.026-.098-.039-.198-.058-.297l-.323-1.643Zm.615 2.257-.002.005-.022.025c-.004 0-.006.003-.005.007-.007.003-.009.008-.007.015l-.156.304-.016.028c-.018.028-.048.054-.052.083-.005.03.005.08.027.094.14.093.286.18.43.268l.157.122-.027.042-.034.005-.022.013c-.007.005-.016.01-.02.016-.165.257-.33.514-.493.771a5.679 5.679 0 0 0-.484 1.191 5.362 5.362 0 0 0-.211 1.253l-.005.602.01.168.008.088.008.096.01.088.01.077.01.07.016.089v.006c.076.21.13.434.234.631.376.713.935 1.231 1.696 1.518l.034.023v-.002c.019.014.038.03.059.041.357.175.723.328 1.113.413a9.5 9.5 0 0 0 3.35.139 5.77 5.77 0 0 0 2.295-.813c.255-.16.488-.355.73-.534l.308-.408.023-.052c.013-.012.028-.023.04-.036.232-.254.344-.564.416-.892a4.443 4.443 0 0 0 .046-1.547c-.026-.192-.068-.383-.103-.574l-.01-.033-.009-.04a18.858 18.858 0 0 0-.008-.036c0-.003.004-.006.003-.008l-.01-.013a4.108 4.108 0 0 1-.006-.034l-.008-.025a.01.01 0 0 0-.003-.012l-.021-.09v-.001l-.022-.086-.01-.026-.095-.311c-.01-.033-.022-.065-.033-.098a6.105 6.105 0 0 0-.828-1.535l-.118-.127.096-.07c.153-.102.309-.2.458-.309.078-.056.07-.086-.01-.142l-.025-.051-.137-.278-.064-.125-.008-.036v-.036l.02-.294.034-.267v-.001c.004-.009.008-.017.01-.026.007-.054.013-.11.018-.164l.036-.148c.012-.05.026-.098.035-.148.078-.433.158-.865.231-1.298.04-.236.07-.208-.177-.266-.11-.026-.15.014-.192.094a.581.581 0 0 1-.27.263.896.896 0 0 1-.688.026c-.462-.15-.843-.435-1.194-.761-.403-.375-.718-.821-1.014-1.282-.124-.195-.243-.394-.364-.591l-.147-.301c-.034-.07-.07-.137-.105-.206l-.011-.027c.023-.025.044-.051.068-.074.262-.254.322-.545.182-.885-.101-.332-.396-.559-.721-.553a.8.8 0 0 0-.807.449c-.153.292-.14.574.052.845l.191.2.008.053c-.055.092-.112.183-.162.277-.142.265-.28.53-.42.796l-.22.28-.675.854-.002.002-.013.015c-.416.482-.922.823-1.544.983-.03-.004-.06-.006-.09-.012l-.314-.062c-.095-.084-.197-.162-.284-.253-.054-.057-.092-.126-.176-.143.05-.024.1-.05.151-.07a.732.732 0 0 0 .435-.7.683.683 0 0 0-.197-.478.642.642 0 0 0-.373-.218c-.052-.011-.104-.027-.157-.032-.3-.032-.642.183-.75.47l-.019.053a.7.7 0 0 0 .153.72.812.812 0 0 0 .414.237c.042.01.083.025.125.038-.009.042-.031.086-.024.125.053.294.11.587.168.88.047.24.097.478.145.717l.05.174.05.253.015.068.013.315.002.088.004.041-.003.033ZM15 3.736c.017-.349-.301-.684-.686-.722-.256-.033-.569.103-.68.297a.713.713 0 0 0 .035.932c.198.249.602.336.898.195.284-.136.46-.421.433-.702Z" fill="#0B090B"/><path d="M17.286 13.66c-.096-.096-.191-.192-.288-.287-.066-.064-.134-.124-.2-.188-.045-.043-.023-.09.022-.098a.416.416 0 0 1 .21.003c.198.074.397.14.61.133.208-.007.413-.042.595-.153.165-.1.329-.205.485-.32a.36.36 0 0 1 .272-.075c.022.003.041.026.062.04-.075.075-.145.156-.226.224-.323.267-.66.503-1.109.49-.021-.001-.043.029-.065.045.023.014.046.04.07.04.118-.001.238 0 .354-.016.373-.051.71-.18.959-.477.075-.091.12-.207.18-.311.06-.104.137-.201.179-.312.131-.347.147-.71.132-1.077a2.382 2.382 0 0 0-.214-.916c-.063-.137-.151-.262-.228-.392-.051-.079-.095-.163-.155-.234-.264-.313-.606-.51-.983-.657-.032-.012-.061-.034-.092-.051.312.046.61.12.88.303.271.185.465.43.623.706.136.239.244.492.303.762.127.592.107 1.172-.118 1.744-.128.323-.311.6-.571.825-.2.172-.439.265-.695.327-.295.072-.575.002-.858-.054-.044-.01-.09-.016-.134-.024ZM1.752 13.703c.114-.054.229-.108.344-.16.03-.013.063-.02.095-.03.004.01.009.019.014.027l-.2.16c-.364.306-.599.68-.627 1.17-.017.284.005.564.115.827.127.303.339.53.655.647.205.156.443.214.693.214.174 0 .343-.045.5-.124.189-.06.374-.118.513-.277a.789.789 0 0 0 .202-.456c.01-.11.003-.22.003-.33.003-.057.004-.114.011-.17.03-.24.008-.442-.274-.548-.036-.013-.071-.056-.087-.094-.13-.301-.335-.51-.676-.54-.123-.01-.256-.007-.354.099l-.066.027c-.068-.047-.05-.098.009-.127.298-.147.652-.193.945.05a.802.802 0 0 1 .244.37.396.396 0 0 0 .15.21c.18.127.268.309.282.529.007.112.03.223.034.335.011.41-.163.735-.471.994-.01.008-.017.018-.025.026-.074.036-.15.069-.222.106-.352.181-.72.206-1.104.135a1.48 1.48 0 0 1-.763-.401c-.312-.296-.468-.664-.531-1.077-.07-.456.07-.861.324-1.233.084-.123.178-.24.267-.36ZM1.45 8.672c.11-.02.22-.042.33-.06.04-.008.08-.008.12-.011l.01.033-.15.061a1.685 1.685 0 0 0-.633.408c-.357.387-.58.84-.65 1.369-.045.334-.026.66.058.984.125.478.385.858.84 1.077.338.161.69.19 1.046.059.142-.053.275-.129.414-.188.03-.013.07-.002.105-.001-.008.034-.006.077-.026.1a1.322 1.322 0 0 1-.82.457c-.163.024-.332 0-.498-.004-.025 0-.049-.003-.073-.005-.042-.03-.083-.064-.128-.088a2.075 2.075 0 0 1-.564-.446 2.12 2.12 0 0 1-.475-.867 2.494 2.494 0 0 1-.09-.834c.027-.39.124-.762.316-1.108.193-.348.444-.64.78-.855.034-.021.06-.054.088-.08Z" fill="#61D0F6"/><path d="M13.57 3.007c-.056.084-.118.164-.167.251-.232.412-.193.802.114 1.162.135.158.12.22-.078.3-.213.086-.406.032-.592-.082.046-.043.09-.089.14-.13.16-.133.187-.231.114-.422a.332.332 0 0 0-.475-.158c-.175.11-.2.279-.204.46l-.522-.426c.012-.003.027-.002.035-.01.152-.138.307-.274.453-.42.13-.128.24-.273.458-.239.057.01.128-.029.183-.06.149-.087.188-.244.24-.392l.3.166Z" fill="#8CEAFC"/><path d="M13.269 2.84c-.052.149-.09.306-.24.392-.055.032-.126.07-.183.061-.218-.034-.329.111-.457.24-.146.145-.301.28-.453.42-.008.007-.023.006-.035.009a5.35 5.35 0 0 1-.726-.833c-.065-.09-.122-.187-.183-.281.007-.039.012-.077.02-.115l.147-.61c.037-.03.078-.057.11-.092a.85.85 0 0 1 .812-.272.78.78 0 0 1 .598.45c.043.092.107.16.207.192.13.041.221.121.273.25.027.068.072.127.11.19Zm-1.47-.948a.563.563 0 0 0-.455.253c-.187.097-.22.425-.176.624.071.32.475.554.795.477.112-.026.22-.066.331-.1.03.022.065.04.09.065.037.038.076.074.125.034.096-.077.205-.074.318-.08a.347.347 0 0 0 .177-.072c.092-.07.084-.173.061-.274a.37.37 0 0 0-.284-.348.218.218 0 0 1-.159-.136c-.029-.067-.058-.135-.097-.195-.087-.133-.204-.234-.364-.252-.12-.013-.242.001-.362.004Z" fill="#78E0FC"/><path d="m7.219 15.487.26.065c-.063.007-.09.04-.082.104.008.07.011.139.017.208l-.014.682-.005.201c-.005.387-.012.775-.015 1.163-.001.19.029.37.17.515.145.148.34.158.488.015.048-.047.077-.114.115-.171.017-.06.047-.12.048-.18.004-.323 0-.646.003-.97.002-.274.025-.549.012-.822-.009-.176-.066-.35-.1-.524l-.01-.056c0-.006-.003-.01-.01-.01l-.04-.03.72.113c-.014.004-.027.012-.04.011a8.804 8.804 0 0 1-.29-.028c-.054-.006-.082.016-.083.069 0 .063.006.125.006.188l-.001 1.081c-.005.085-.013.17-.015.255-.008.298-.012.596-.02.894-.006.195-.114.327-.272.428-.03.019-.055.044-.083.066-.185.036-.352-.033-.52-.09-.044-.094-.1-.184-.13-.28a1.516 1.516 0 0 1-.074-.374c-.01-.26 0-.52-.003-.779-.001-.118-.013-.237-.02-.355 0-.14.003-.28.001-.42-.003-.323-.009-.646-.013-.969Z" fill="#3DA8D1"/><path d="m3.988 4.011.1.216c-.046.035-.097.066-.136.108-.23.244-.466.483-.683.737a6.599 6.599 0 0 0-.897 1.404 7.036 7.036 0 0 0-.55 1.537c-.012.014-.03.026-.037.042-.025.049-.045.1-.07.149-.028.055-.06.108-.09.162-.01.022-.02.045-.048.06.01-.098.01-.198.032-.294.03-.131.076-.258.113-.388.006-.02.001-.043.007-.063.016-.053.034-.105.052-.157l.058-.169.09-.274c.027-.083.055-.166.078-.25.003-.013-.017-.033-.026-.05l.034-.072c.072-.023.137-.136.113-.199-.001-.004-.02-.001-.032-.001l.02-.054c.019 0 .049.008.056-.001.046-.063.092-.127.13-.195.137-.252.272-.505.404-.76.016-.031.006-.075.008-.113.057-.085.11-.172.173-.253.127-.166.25-.338.392-.49.189-.202.393-.389.595-.579.028-.027.075-.036.114-.053Z" fill="#94EAFD"/><path d="M9.211 18.933c.025-.078.043-.158.075-.233a.44.44 0 0 1 .308-.261c.202-.055.402-.081.582.057.058.045.123.091.12.18-.023-.015-.047-.028-.069-.044-.135-.095-.278-.161-.451-.145-.162.015-.416.153-.422.366a1.09 1.09 0 0 0 .024.278c.021.09.015.153-.06.218-.1.087-.095.184-.001.282.027.029.055.058.085.083.204.17.43.172.663.08.205-.082.295-.246.31-.458l.123-.02c.013.14 0 .276-.087.392-.13.173-.321.248-.525.282-.257.043-.472-.06-.653-.236a.316.316 0 0 1-.081-.345c.013-.04.023-.084.047-.118.083-.118.053-.237.012-.358ZM6.81.794c.19.208.253.582 0 .855a.542.542 0 0 1-.559.164.507.507 0 0 1-.398-.419c-.021-.114-.01-.234-.013-.352l.017-.018c.018.072.03.146.056.215.02.049.056.09.085.136l.005.033c-.002.098.06.156.133.203.107.068.224.065.35.059.22-.01.383-.285.361-.452-.018-.14-.025-.283-.038-.424Z" fill="#61D0F6"/><path d="M6.81.794c.012.141.019.284.037.424.022.167-.14.441-.362.452-.125.006-.242.009-.348-.06-.073-.046-.136-.104-.134-.202.023.006.046.016.07.018a.69.69 0 0 0 .655-.3c.025-.034.011-.106 0-.156C6.715.918 6.684.87 6.662.822c.007-.038-.02-.097.056-.093l.09.065Z" fill="#94EAFD"/><path d="m11.159 2.122-.147.61c-.008.039-.013.077-.02.116-.104-.181-.21-.362-.312-.544-.047-.082-.089-.166-.133-.249l.612.067ZM6.72.73c-.077-.005-.05.054-.057.092a.43.43 0 0 0-.31-.084c-.202.031-.333.141-.385.34-.017-.02-.036-.038-.05-.06-.026-.044-.043-.028-.06.006l-.017.018c.01-.147.13-.216.222-.3.065-.06.115-.16.228-.146.15.019.306.022.428.133Z" fill="#A2F0FB"/><path d="M2.713 5.386c-.002.038.008.082-.008.113-.132.255-.267.508-.404.76a1.727 1.727 0 0 1-.13.195c-.006.009-.037 0-.056 0 .049-.096.094-.195.147-.29.133-.24.27-.48.406-.72l.014-.017.031-.041ZM2.096 6.509c.01 0 .03-.003.031.001.024.063-.04.176-.112.199l.08-.2Z" fill="#8CEAFC"/><path d="m8.186 2.087-.128.025-.054.015-.038.004c-.388.051-.759.167-1.127.295-.06.02-.113.06-.172.082-.133.05-.269.093-.403.138-.055.019-.075.067-.052.109.017.031.067.06.103.062.045.002.094-.021.138-.04.101-.043.197-.101.3-.134.189-.06.38-.108.572-.156.183-.047.367-.088.55-.132.114.07.117.19-.005.245-.101.046-.214.066-.322.097l-.227.081a6.323 6.323 0 0 0-.034.004l-.038.018-.109.022-.422.145-.475.22-.352.169c.026.112.065.224.075.337a.965.965 0 0 1-.207.702c.077.073.16.141.23.221.028.032.027.089.04.134.065-.013.134-.015.194-.04.326-.138.614-.342.876-.575a6.212 6.212 0 0 0 1.336-1.703c.054-.101.102-.206.154-.309l.037-.076-.44.04Z" fill="#94EAFD"/><path d="M8.368 17.111v-1.08c0-.064-.005-.127-.005-.19 0-.052.03-.074.083-.068.097.012.194.02.29.028.013.001.027-.007.04-.011l.052.003c.04.01.079.027.119.029.108.005.216.003.324.004l.126.003c.028.006.056.019.084.018.138-.003.275-.01.413-.016l.125-.005.168-.01.053-.003h.021l.052-.006.094-.009.108-.01c.035.03.068.04.095-.01l.034-.002c.007 0 .014-.002.02-.003.004-.004.007-.004.011-.001l.063-.01.07-.01.06-.008.067-.008a5.95 5.95 0 0 1 .04-.009l.082-.014.03-.006.052-.008.057-.01.05-.008.042-.011.05-.008.023-.007.052-.01.021-.007a7.788 7.788 0 0 0 1.306-.412c.182-.078.361-.162.542-.243l.093.01c.034.435.033.864.005 1.293l-.545.183c-.418.141-.83.3-1.254.42-.373.104-.757.177-1.14.238a6.232 6.232 0 0 1-1.248.058c-.224-.01-.447-.044-.67-.066-.051-.005-.103-.005-.155-.008Z" fill="#5ECDF2"/><path d="M17.361 12.453c-.102-.074-.21-.14-.302-.223-.074-.066-.148-.097-.245-.082-.031.005-.065-.006-.097-.01-.011-.04-.018-.083-.035-.12-.04-.093-.1-.178-.125-.273-.066-.249-.053-.5.014-.748.028-.102.062-.202.093-.303l.074-.033c.03-.034.07-.064.086-.103a.916.916 0 0 1 .498-.545c.3-.132.582-.065.785.157.207.225.313.501.3.811-.007.173.068.213.238.18l.054-.013c.274.1.372.273.29.54-.02.072-.081.132-.124.197a.667.667 0 0 1-.416.066c-.14-.026-.15-.022-.216.101-.013.024-.024.05-.039.073-.136.217-.314.363-.588.347-.082-.004-.163-.013-.245-.02Zm.477-1.936c.017-.22-.15-.384-.411-.304-.215.066-.373.368-.297.603a.28.28 0 0 0 .263.188c.24.002.444-.223.445-.487Z" fill="#CDF6FB"/><path d="M14.408 9.06c-.156-.26-.311-.518-.469-.776-.035-.057-.024-.086.032-.123.136-.088.264-.186.396-.28.076-.054.096-.116.044-.202-.083-.136-.155-.277-.238-.413a.49.49 0 0 1-.07-.35c.073-.418.144-.836.219-1.254.049-.273.102-.546.154-.819.003-.017.012-.034.018-.05.024.013.047.038.07.038.092.001.184-.014.274-.009.224.013.328.174.393.358.137.389.023.924-.403 1.15a.208.208 0 0 0-.097.124c-.08.395-.153.791-.226 1.188a.103.103 0 0 0 .017.068c.112.168.084.343.042.526-.049.215-.081.435-.121.653-.01.057-.023.114-.035.17Z" fill="#5DCCF1"/><path d="M10.375 19.336c-.016.212-.106.376-.31.457-.234.093-.46.09-.663-.079-.03-.025-.058-.054-.085-.083-.094-.098-.1-.195.001-.282.075-.065.08-.128.06-.218a1.09 1.09 0 0 1-.024-.279c.006-.212.26-.35.421-.365.174-.016.316.05.452.145l.068.044c.104.071.05.172.052.264.003.132.018.264.028.396Z" fill="#CDF6FB"/><path d="m14.456 14.01.022-.034.017-.025c.16-.244.3-.499.397-.777.091-.259.159-.523.177-.798.001-.02.008-.04.013-.061-.016.204.068.394.086.593.018.199.014.4.009.6a4.724 4.724 0 0 1-.037.472 3.436 3.436 0 0 1-.419 1.266c-.072.129-.15.255-.224.381-.006-.058-.015-.115-.016-.174-.008-.438-.013-.876-.02-1.314 0-.043-.003-.086-.005-.129Z" fill="#5DCCF1"/><path d="M14.457 14.01c.002.043.005.086.005.129.007.438.012.876.02 1.315 0 .058.01.115.016.173-.006.26-.013.518-.017.777-.004.255-.266.533-.543.553-.203.015-.454-.157-.505-.42-.016-.084-.035-.167-.053-.25a8.89 8.89 0 0 0-.005-1.294l-.093-.01.352-.22c-.012.115-.028.229-.033.344-.01.216-.012.432-.022.648-.006.143-.027.285-.032.427a.566.566 0 0 0 .212.492c.073.058.16.084.257.056a.383.383 0 0 0 .265-.242.853.853 0 0 0 .033-.494c.006-.14.015-.28.016-.42.003-.424.004-.848.002-1.272 0-.031-.027-.062-.041-.093l.166-.199Z" fill="#3DA8D1"/><path d="M16.313 9.848c-.346.022-.615-.307-.64-.614a.71.71 0 0 1 .218-.605.598.598 0 0 1 .726-.06c.382.264.42.86.035 1.167a.447.447 0 0 1-.34.112Zm-.44-.973-.008.036c-.087.156-.068.31.008.462.118.21.354.321.579.239.24-.089.39-.425.287-.628-.023-.085-.039-.174-.126-.222-.094-.143-.235-.176-.39-.157a.397.397 0 0 0-.335.247l-.014.023Z" fill="#61D0F6"/><path d="M18.698 11.148c-.018.004-.035.009-.053.012-.17.034-.245-.006-.238-.179a1.105 1.105 0 0 0-.3-.811c-.203-.222-.486-.289-.786-.157a.916.916 0 0 0-.498.545c-.015.04-.056.069-.085.103-.003-.03-.014-.061-.005-.087.121-.372.352-.643.744-.733a.865.865 0 0 1 .795.214c.282.249.412.566.41.94 0 .05.01.102.016.153Z" fill="#60CFF4"/><path d="M17.36 12.453c.082.006.164.015.246.02.273.015.452-.13.588-.348.014-.023.025-.049.038-.073.066-.123.077-.127.217-.1a.667.667 0 0 0 .416-.067c-.006.138-.085.233-.21.251-.179.027-.287.147-.41.25-.25.209-.532.245-.836.16-.046-.013-.08-.038-.049-.093Z" fill="#61D0F6"/><path d="M19.217 12.71c-.06.104-.104.22-.18.31-.248.297-.586.427-.958.478-.117.016-.237.015-.355.016-.023 0-.047-.026-.07-.04.022-.016.044-.046.066-.046.448.014.786-.222 1.108-.49.081-.067.151-.148.226-.223l.123-.004.04-.001Z" fill="#CDF6FB"/><path d="M15.523 7.903c-.13.03-.258-.145-.255-.284.003-.17.129-.303.293-.303.138 0 .258.137.258.293a.301.301 0 0 1-.296.294ZM16.626 13.068c0 .182-.112.313-.271.315-.14.003-.243-.124-.243-.297 0-.152.133-.308.261-.3.17.011.266.126.253.282Z" fill="#78E0FC"/><path d="M16.663 10.694c-.03.1-.064.201-.092.303a1.42 1.42 0 0 0-.014.748c.025.095.085.18.125.272.017.038.024.081.035.122-.148-.033-.227-.147-.272-.272a1.663 1.663 0 0 1-.056-.82.51.51 0 0 1 .2-.326c.02-.015.05-.019.074-.027Z" fill="#F6FAF9"/><path d="m19.217 12.71-.04.001.073-.13c.119-.196.171-.415.198-.638.023-.18.023-.364.02-.546a2.522 2.522 0 0 0-.311-1.175c-.029-.054-.058-.107-.082-.162-.006-.012.006-.032.01-.047.078.13.166.255.229.392.134.29.202.595.214.916.015.368 0 .73-.132 1.077-.042.11-.118.208-.179.312Z" fill="#99E8F6"/><path d="M7.219 15.487c.004.323.01.646.013.968.002.14 0 .28 0 .42-.15-.03-.303-.046-.445-.093-.403-.134-.795-.295-1.15-.532-.066-.045-.126-.079-.209-.073-.28.02-.422-.114-.507-.364-.057-.17-.14-.33-.193-.5-.096-.32-.186-.642-.263-.967-.05-.209-.076-.424-.106-.637-.016-.108-.02-.218-.025-.327-.006-.106-.008-.212-.012-.318.08.163.155.329.24.49.148.283.316.552.55.775-.046.034-.067.066-.05.134.018.079.006.166.007.249 0 .288-.005.577 0 .865.001.074.022.15.048.22a.27.27 0 0 0 .27.18c.143-.004.247-.072.286-.2.02-.065.025-.136.036-.204a.443.443 0 0 0-.175-.426.456.456 0 0 1-.171-.312c-.011-.107.015-.218-.054-.314.067.045.135.088.2.137a5.249 5.249 0 0 0 1.666.815l.044.014Z" fill="#5ECDF2"/><path d="M2.68 14.118c.097-.106.23-.109.353-.098.341.029.546.238.676.539.016.037.051.08.087.094.282.106.304.308.275.547-.007.057-.008.114-.012.17a.36.36 0 0 0-.407.205c-.044.105-.09.21-.208.254-.014.005-.027.016-.04.017-.261.012-.525.053-.776-.053-.09-.038-.172-.097-.257-.147.004-.011.013-.023.012-.034a1.279 1.279 0 0 0-.162-.552c-.01-.017-.043-.021-.066-.032l-.02-.116c-.01-.076-.003-.146.078-.185.02.021.043.04.06.064.09.128.254.166.372.07.096-.078.192-.163.26-.264.087-.13.108-.235-.019-.35-.06-.053-.137-.087-.206-.13Z" fill="#A2F0FB"/><path d="M1.91 9.67c.302-.03.533.176.57.487.006.04.016.078.015.117-.003.104.05.095.122.07.137-.045.272-.017.298.073.026.091.026.19.035.286.002.02-.007.042-.01.062h-.12c-.15.001-.288-.019-.415-.124-.153-.128-.271-.107-.395.057-.122.162-.115.394.119.475.072.025.155.02.232.034.077.014.17.003.196.11-.03.129-.115.221-.205.31-.162.035-.326.068-.493.037-.123-.022-.246-.05-.37-.076-.005-.054.003-.115-.02-.16-.18-.365-.117-.736-.027-1.105.01-.043.074-.098.119-.104.206-.027.35-.176.35-.385L1.91 9.67Z" fill="#CDF6FB"/><path d="m4.748 4.965.323 1.643c.019.1.032.2.058.297.03.117.01.22-.05.323-.087.15-.166.305-.248.457l-.12-.717c-.028-.158-.06-.316-.082-.474-.014-.094-.049-.165-.133-.215a.743.743 0 0 1-.378-.701c.004-.131.04-.265.082-.39.058-.17.241-.25.435-.216.036.006.075-.004.113-.007Z" fill="#5DCCF1"/><path d="M1.822 8.013a7.036 7.036 0 0 1 .55-1.537c.245-.502.533-.978.897-1.404.217-.254.453-.494.683-.737.04-.042.09-.073.135-.108l.158.221c-.032.035-.06.073-.095.105-.468.445-.88.937-1.213 1.49a6.27 6.27 0 0 0-.552 1.153c-.094.267-.17.54-.256.81a.373.373 0 0 1-.041.09c-.057.088-.159.09-.22.006-.019-.027-.03-.06-.046-.089Z" fill="#F6FAF9"/><path d="M2.557 11.317c-.026-.106-.12-.095-.196-.11-.077-.015-.16-.009-.232-.034-.234-.08-.241-.313-.119-.475.123-.164.242-.185.395-.057.127.105.264.126.415.125h.12c-.013.125-.019.252-.04.376-.02.109-.137.179-.247.168-.032-.003-.064.005-.096.007Z" fill="#A2F0FB"/><path d="M4.82 7.792c.127.109.25.222.382.325.15.117.152.082.05.253-.115.19-.232.378-.348.567-.067-.152-.154-.299-.194-.457-.044-.171-.05-.353-.06-.53-.002-.042.045-.089.073-.13.025-.036.056-.067.085-.101l.013.073Z" fill="#73DFFC"/><path d="M2.68 14.118c.069.042.146.076.205.13.127.114.107.22.02.349-.068.1-.165.186-.26.264-.119.096-.283.058-.373-.07-.017-.024-.04-.043-.06-.064-.038-.165.07-.269.163-.373.07-.078.158-.14.237-.208.023-.01.045-.02.067-.028ZM1.91 9.67l.001.164c0 .209-.144.358-.35.385-.045.006-.109.06-.12.104-.09.37-.153.74.028 1.104.023.046.014.107.02.161l-.055.003c-.037-.042-.093-.078-.107-.126a1.775 1.775 0 0 1-.066-.357c-.027-.37-.027-.74.143-1.084a.596.596 0 0 1 .505-.355Z" fill="#F6FAF9"/><path d="M3.508 10.27c.028.008.073.008.08.025.187.405.222.819.04 1.233-.055.127-.14.24-.213.358-.047.077-.076.075-.128-.001l.11-.256c.135-.313.2-.637.15-.979-.02-.126-.026-.253-.039-.38Z" fill="#61D0F6"/><path d="m1.435 11.59.055-.002c.123.026.245.054.369.077.167.03.33-.002.493-.037.026.193.002.302-.248.34-.118.017-.242.003-.362-.004-.196-.01-.304-.18-.307-.373Z" fill="#78E0FC"/><path d="M3.342 16.434a1.11 1.11 0 0 1-.5.124 1.11 1.11 0 0 1-.694-.214c.057-.103.15-.125.257-.107.3.053.601.108.902.163.013.003.023.022.035.034Z" fill="#CDF6FB"/><path d="M3.508 8.693c0 .114-.127.237-.246.238a.256.256 0 0 1-.268-.26c.002-.12.13-.258.245-.252.144.007.267.092.269.274Z" fill="#78E0FC"/><path d="M4.077 6.468c0 .18-.115.299-.287.297-.143-.001-.282-.134-.281-.272.001-.149.089-.294.294-.31.135-.01.274.138.274.285Zm-.29.134c.083 0 .162-.079.158-.155-.004-.085-.077-.158-.157-.158a.167.167 0 0 0-.168.168c-.001.074.083.147.167.145Z" fill="#61D0F6"/><path d="M3.688 7.812a.209.209 0 0 1-.199-.216c.003-.113.105-.208.222-.206a.204.204 0 0 1 .2.213c-.004.129-.093.211-.223.209Z" fill="#78E0FC"/><path d="M3.509 10.27c.012.127.019.255.037.38.05.342-.013.666-.149.98l-.11.255c-.07-.013-.058-.056-.039-.104.067-.164.135-.328.2-.493.013-.033.018-.07.023-.106.04-.26.034-.517-.032-.773-.013-.052-.02-.126.07-.139Z" fill="#99E8F6"/><path d="M2.155 15.028c.022.01.055.015.065.032.095.172.151.356.162.552 0 .011-.008.023-.012.034a.458.458 0 0 1-.219-.364c-.007-.084.002-.169.004-.254Z" fill="#F6FAF9"/><path d="m4.821 7.792-.012-.073.023-.035-.01.108Z" fill="#5DCCF1"/><path d="M6.423 14.897c-.762-.287-1.32-.805-1.697-1.518-.104-.197-.157-.42-.234-.631.075-.007.15-.016.226-.019.14-.005.205-.068.202-.21-.003-.145-.012-.29-.018-.435-.003-.05.003-.094.07-.088l.003.072.003.074c.006.06 0 .125.02.18.029.084.061.175.12.237a.374.374 0 0 1 .098.187c.012.052.047.1.071.15l.026.123c-.018.003-.036.005-.054.01-.24.052-.329.313-.13.492.233.21.46.426.734.582.194.11.386.23.589.324.202.094.414.17.626.24.246.078.496.145.746.208.229.058.462.1.691.158.267.067.537.102.812.099.16-.002.204-.044.196-.203-.005-.103.045-.149.132-.163.11-.017.223-.027.334-.037.24-.02.479-.036.718-.058.024-.002.046-.036.068-.055.104-.008.211-.004.311-.028.31-.076.617-.157.923-.247.191-.057.377-.133.565-.2.043.044.095.082.127.133.065.105.16.14.242.072.157-.134.322-.263.464-.412.184-.193.338-.414.524-.605.245-.252.349-.569.43-.89.06-.23.06-.474.08-.713.01-.098.009-.198.004-.297-.007-.157-.006-.316-.036-.468a4.916 4.916 0 0 0-.17-.64c-.072-.212-.168-.415-.257-.62-.011-.025-.044-.04-.067-.059-.019.039-.022.066-.015.09.057.179.128.354.17.537.05.22.092.446.112.671.019.213.01.429.002.643-.005.139-.028.277-.046.415-.007.054-.007.127-.04.153-.036.027-.108 0-.161.011-.07.015-.16-.005-.192.092l-.164-.132c.013-.043.03-.084.038-.128.02-.125.05-.251.053-.377.006-.314.03-.631-.011-.94-.042-.31-.15-.611-.236-.915-.039-.138-.103-.158-.234-.096-.07.034-.14.078-.215.09-.206.035-.404.078-.583.196-.106.07-.193.023-.222-.106-.047-.201-.09-.403-.132-.605-.031-.153-.092-.204-.245-.181-.183.027-.364.073-.548.09-.308.027-.618.039-.928.055-.03.001-.061-.013-.102-.022.037-.043.125-.049.043-.107.046-.012.092-.028.139-.034.307-.038.615-.067.921-.11a10.453 10.453 0 0 0 2.172-.568c.06-.022.122-.038.182-.057.344.475.632.98.829 1.535.01.033.022.065.033.098l.095.311.01.026.021.086.022.091a1.58 1.58 0 0 0 .01.037l.007.034c0 .003-.003.006-.002.008l.008.013.009.035.008.04.01.034.015.185c.037.359.096.717.107 1.077a3.46 3.46 0 0 1-.123.992c-.034.128-.08.257-.142.374-.065.122-.157.229-.234.344-.014.02-.015.051-.022.077l-.022.052-.272.22c-.063.047-.124.098-.19.142-.24.164-.47.352-.727.483-.338.171-.695.307-1.05.44-.337.126-.69.193-1.042.263a7.01 7.01 0 0 1-1.278.117 5.984 5.984 0 0 1-.819-.053 17.987 17.987 0 0 1-1.087-.17c-.352-.067-.7-.152-1.051-.226-.112-.023-.227-.036-.34-.053l-.033-.022Z" fill="#73DFFC"/><path d="M8.478 2.844c.14-.265.279-.531.42-.796.05-.094.108-.185.162-.277.013.012.025.028.04.036.204.1.42.157.644.104.123-.028.237-.097.354-.148.035.069.071.137.105.206l.148.3c0 .032-.009.068.003.094.05.117.107.23.161.346.11.237.243.461.404.667.07.09.099.175.068.293a.635.635 0 0 0 .098.546.516.516 0 0 0 .552.19c.126-.03.28.037.258.201-.012.087-.004.177-.002.266.002.073-.017.11-.102.084a.335.335 0 0 0-.33.07c-.078.067-.13.233-.09.326.065.155.216.136.37.033.031-.02.068-.03.102-.045.01.035.022.07.03.107.004.017 0 .036-.003.054l-.089.64c-.125 0-.25.004-.376 0-.126-.006-.242-.045-.316-.157-.198-.3-.394-.601-.589-.904l-.796-1.238c-.077-.12-.141-.12-.22 0-.104.157-.204.318-.308.476-.177.27-.357.538-.534.808-.19.29-.38.583-.567.875-.064.098-.159.135-.267.139-.142.005-.285 0-.427 0-.033-.234.107-.464.021-.7-.002-.007.007-.017.008-.026.02-.155.053-.313-.05-.455-.051-.073-.07-.144-.002-.22.033-.038.041-.085-.023-.11l.19-.25.039-.052.035-.039.09-.094.037-.053.04-.052.254-.296c.018-.01.041-.016.051-.031.136-.206.28-.408.398-.623.044-.078.152-.187.01-.286-.002 0 0-.006 0-.009Zm-.2 1.15c0 .038-.002.066 0 .093.01.094.068.149.153.175a.2.2 0 0 0 .217-.062c.095-.104.093-.23.047-.352-.049-.129-.205-.168-.302-.086-.075.063-.14.132-.115.232Zm-.495 1c0 .101.113.213.214.211A.2.2 0 0 0 8.204 5a.205.205 0 0 0-.21-.215.225.225 0 0 0-.211.21Zm1.659-2.283c-.063 0-.15.076-.152.133-.002.059.086.142.148.14.076-.001.14-.059.142-.125a.14.14 0 0 0-.138-.148Z" fill="#FDE16F"/><path d="m11.781 6.14.09-.639c.002-.018.006-.037.002-.054-.008-.036-.02-.072-.03-.107-.034.015-.071.025-.101.045-.155.103-.307.122-.371-.033-.04-.093.012-.26.09-.325a.334.334 0 0 1 .33-.07c.085.025.104-.012.102-.085-.003-.089-.01-.179.002-.266.022-.163-.132-.232-.258-.2a.516.516 0 0 1-.552-.19.635.635 0 0 1-.099-.547c.032-.118.003-.203-.067-.292a3.452 3.452 0 0 1-.404-.668c-.054-.115-.11-.23-.161-.346-.012-.026-.003-.062-.003-.093.12.197.239.396.364.59.295.462.61.908 1.014 1.283.35.326.732.61 1.193.761a.896.896 0 0 0 .688-.026.58.58 0 0 0 .27-.263c.042-.08.083-.12.192-.094.248.058.218.03.178.266-.074.433-.153.865-.231 1.298-.01.05-.024.099-.036.148l-2.202-.092Z" fill="#FABE47"/><path d="M5.56 8.052c-.144-.09-.29-.176-.43-.27-.022-.013-.032-.062-.027-.093.004-.03.033-.055.051-.083-.005.072.029.117.099.129.29.05.578.108.87.147.338.046.68.083 1.02.113.354.03.708.052 1.063.072.19.01.384-.018.57.043l-.04.052-.098-.006c-.057-.004-.1.013-.112.076-.039.022-.038.042.005.058.033.03.066.082.1.084.064.003.103-.053.12-.114.007-.02.006-.041.008-.062.306.005.612.02.918.013.175-.004.348-.044.522-.07.004 0 .004-.022.005-.033.136-.002.273.004.408-.006.366-.025.732-.057 1.098-.087.038.04.07.089.115.12.104.072.125.165.087.278l-.09.265-.017.005-.042.005-.035.003-1.083.152c-.002-.009-.007-.021-.004-.024.062-.05.033-.101.005-.154a.142.142 0 0 0-.15-.082c-.236.019-.472.048-.709.05-.363.005-.726-.008-1.089-.015a2.635 2.635 0 0 1-.282-.02c-.355-.047-.71-.094-1.064-.145-.469-.067-.921-.2-1.366-.358-.14-.05-.274-.124-.426-.043ZM13.867 7.17l.007.035c-.052.019-.103.043-.156.055-.065.015-.132.02-.197.031-.218.038-.435.087-.654.115-.264.034-.53.056-.797.076-.372.028-.745.049-1.118.073l-.218.014.095-.471.124-.006.04-.01c.047-.013.095-.023.14-.041.154-.063.188-.155.118-.304-.018-.038-.038-.075-.057-.112.046-.002.092-.007.137-.006.525.011 1.05.022 1.573.037.25.007.499.023.748.037.072.004.143.017.213.026l.022.12-.02.294v.036Z" fill="#F9BE49"/><path d="m10.734 7.569.218-.014c.372-.024.745-.045 1.118-.073.266-.02.532-.042.796-.076.22-.028.436-.076.654-.115.065-.011.133-.016.197-.03.053-.013.104-.037.156-.056l.064.125a6.63 6.63 0 0 1-1.315.21l-.236.017c-.556.036-1.111.075-1.667.107-.21.012-.42.01-.63.014-.027-.003-.054-.008-.081-.008-.76-.02-1.518-.034-2.277-.058-.338-.01-.676-.039-1.013-.06-.035-.005-.07-.012-.104-.016l-.502-.052a1.66 1.66 0 0 0-.623-.092c-.016-.03-.095-.046-.02-.095.127-.002.143-.016.13-.137a5.719 5.719 0 0 0-.049-.344c-.028-.168-.03-.168-.205-.15-.013-.08.03-.1.1-.103.301-.01.602-.024.903-.035.505-.019 1.01-.038 1.516-.055.283-.01.566-.014.85-.022.02 0 .04-.01.06-.015h.44l.256.001h1.212c.095.011.19.03.287.032.347.009.694.016 1.04.016.114 0 .227-.023.34-.035l.39-.001.051.003.04.001h.015l.334.023h.05l.094-.019c.01.01.018.029.028.03.069.01.138.012.206.023.121.018.242.041.363.062l-.034.267-.021-.12c-.07-.009-.142-.022-.214-.026-.249-.014-.498-.03-.747-.037-.525-.015-1.049-.026-1.573-.037-.046-.001-.092.004-.137.006l-.198.02c-.13-.021-.26-.057-.39-.06-.37-.008-.742-.009-1.114-.003-.6.008-1.2.024-1.801.037l-.652.007-.614.013-.794.05c.009.036.008.047.013.053a.381.381 0 0 1 .056.45c-.028.054.01.078.057.086.102.018.204.033.305.05.191.03.382.062.573.094.135.013.27.03.406.04.083.005.167.001.25.002l.162-.001c.06.018.121.047.183.053.213.017.426.033.639.037.338.007.676.001 1.014.003.482.003.963.008 1.445.013Z" fill="#E79731"/><path d="M4.973 11.996c-.068-.006-.073.038-.07.088.006.145.014.29.017.435.003.142-.062.205-.202.21-.075.003-.15.012-.225.019v-.006c-.005-.03-.01-.06-.017-.09l-.009-.069-.01-.076-.01-.09-.008-.095-.008-.088a952.82 952.82 0 0 1-.01-.168l.005-.602.003-.057c.018-.408.1-.804.208-1.196.116-.416.279-.812.484-1.19h.183c-.046.174-.094.347-.137.521a6.564 6.564 0 0 0-.191 1.546c-.003.303-.002.606-.003.908Z" fill="#A2F0FB"/><path d="M6.456 14.918c.113.018.228.03.34.054.35.074.7.16 1.051.225.36.068.723.126 1.087.171.271.034.546.057.819.053a7.012 7.012 0 0 0 1.278-.117c.353-.07.706-.137 1.042-.263.355-.133.712-.269 1.05-.44.258-.131.487-.319.728-.483.065-.044.126-.095.189-.143.035.039.039.072-.006.111-.018.016-.02.052-.03.078-.243.179-.475.375-.73.534a5.77 5.77 0 0 1-2.295.813 9.5 9.5 0 0 1-3.35-.14 4.942 4.942 0 0 1-1.113-.412c-.022-.01-.04-.027-.06-.04Z" fill="#99E8F6"/><path d="M8.776 8.11c-.186-.061-.38-.032-.57-.043-.355-.02-.71-.041-1.063-.072-.341-.03-.682-.067-1.021-.113-.291-.04-.58-.096-.87-.147-.07-.012-.103-.057-.098-.129l.025.002c.06.006.12.01.18.02l.956.137.586.083.018.009.055.01c.018.005.037.008.055.012l.037.007.132.005c.239.043.477.056.72.036.263-.021.528-.016.792-.025.034-.001.067-.014.101-.021.049-.003.097-.009.146-.009l.898.008h.02l.055.002c.06.006.119.018.178.018.341.001.683.013 1.024-.005.364-.019.727-.067 1.09-.102h.185c.356.013.705-.054 1.056-.104.204-.029.408-.054.611-.081l.026.051c-.047.02-.092.052-.14.06-.321.054-.642.108-.964.15-.428.055-.857.098-1.286.146-.366.03-.732.062-1.098.087-.136.01-.272.004-.408.006l-1.428.002Z" fill="#E79731"/><path d="m11.763 8.688.041-.005.018-.006c.44-.069.87-.177 1.289-.335.148-.055.297-.108.445-.162l.117.127c-.06.019-.122.035-.182.057-.705.262-1.426.461-2.172.567-.306.044-.614.073-.921.11-.047.007-.093.023-.14.035-.169.013-.338.033-.507.036-.204.003-.407-.009-.611-.015-.175-.03-.35-.065-.526-.091-.357-.054-.717-.095-1.073-.154a7.012 7.012 0 0 1-1.782-.564c-.028-.013-.047-.048-.07-.073l.027-.042c.033.007.066.01.098.021.352.119.702.246 1.057.356a7.8 7.8 0 0 0 1.362.269c.69.085 1.383.094 2.076.056.112-.006.224-.021.335-.032l1.084-.152.035-.003Z" fill="#47A6CF"/><path d="M8.862 1.518c-.192-.271-.206-.553-.053-.846.03.09.036.177.16.222.111.04.2.038.304.008A2.08 2.08 0 0 1 9.517.84c.093-.015.165-.059.187-.149a.516.516 0 0 0 .01-.222C9.694.384 9.65.305 9.616.223c.324-.005.62.222.72.554-.016.046-.03.093-.05.137-.06.133-.113.27-.184.396-.08.142-.214.22-.37.263-.158.044-.305-.022-.458-.04-.136-.018-.275-.011-.413-.015Z" fill="#FDE16F"/><path d="m11.782 6.14 2.202.093-.035.148c-.036-.005-.072-.012-.108-.015-.144-.012-.289-.022-.433-.033l-1.334-.081-.07-.002h-.074c-.014-.004-.028-.012-.042-.013l-.692-.02-.148-.111-.016-.02c-.034-.061-.064-.124-.102-.183-.278-.433-.558-.866-.839-1.298-.134-.207-.271-.411-.407-.617l-.066-.12c-.035.03-.08.053-.104.09-.2.3-.397.6-.595.901l-.79 1.21a.26.26 0 0 1-.227.129c-.247.008-.493.027-.74.042-.04 0-.08-.005-.118-.002-.386.029-.772.06-1.157.088-.176.013-.353.022-.529.04-.026.002-.05.038-.075.058l-.05-.174c.036.001.073.003.11.003.072.002.113-.017.095-.107-.04-.212-.072-.425-.108-.638-.041-.243-.085-.485-.125-.728-.003-.019.014-.041.02-.062.024.01.05.018.069.032.01.007.01.028.012.042l.221 1.332c.01.062.03.098.105.093.167-.012.334-.017.501-.025l.531-.03.494-.021.223-.001c.143 0 .285.005.427 0 .109-.004.204-.04.267-.139.188-.292.377-.584.567-.875.177-.27.358-.539.535-.808.104-.158.204-.319.308-.477.079-.118.143-.118.22 0l.796 1.24c.195.302.39.603.59.903.073.112.189.15.315.156.125.005.25 0 .376 0ZM10.645 8.843c-.112.01-.224.026-.336.032-.693.038-1.386.029-2.075-.056A7.802 7.802 0 0 1 6.87 8.55c-.355-.11-.705-.237-1.057-.356-.031-.01-.065-.014-.098-.02L5.56 8.05c.151-.08.286-.006.426.044.445.158.897.29 1.366.358.354.051.709.098 1.064.145.093.012.188.017.282.02.363.007.726.02 1.09.016.236-.003.472-.032.708-.051a.142.142 0 0 1 .15.082c.028.053.057.104-.005.154-.003.002.002.015.004.024Z" fill="#E79731"/><path d="m8.056 15.678.04.029a.021.021 0 0 0 .01.01l.01.056c-.004.028-.011.056-.008.083.018.175.051.349.057.524.007.203-.013.408-.015.611-.002.334.002.667-.002 1-.001.093-.023.186-.035.278-.067.022-.134.039-.199.065-.12.048-.233.03-.296-.08a.59.59 0 0 1-.068-.268c-.005-.21.01-.42.016-.63.02 0 .042-.001.063.003.16.034.219.004.247-.154.022-.127.026-.259.034-.389.014-.212.025-.424.036-.637.004-.08.006-.152-.08-.206a.757.757 0 0 0-.452-.109c-.006-.07-.009-.139-.017-.208-.008-.065.019-.097.082-.104l.38.081c.066.014.132.03.197.045Z" fill="#8CEAFC"/><path d="M6.133 6.192c-.168.008-.335.013-.502.025-.074.006-.094-.031-.105-.093-.072-.444-.147-.888-.22-1.332-.003-.014-.003-.035-.013-.042-.02-.014-.045-.022-.068-.032-.007.021-.023.043-.02.062.04.243.083.485.124.728.037.213.067.426.109.638.017.09-.023.109-.096.107-.037 0-.074-.002-.11-.003-.049-.239-.099-.477-.146-.716a51.014 51.014 0 0 1-.168-.881c-.007-.04.016-.083.025-.125l.217-.02c.084.017.123.086.177.143.087.091.188.17.284.253-.117.093-.127.194-.025.287.027.025.07.034.104.052.1.05.237.035.264.205.04.25.111.496.169.744Z" fill="#FBDF6F"/><path d="M14.314 15.994a.853.853 0 0 1-.033.494.383.383 0 0 1-.265.242.275.275 0 0 1-.257-.056.566.566 0 0 1-.213-.492c.006-.142.027-.284.033-.427.01-.216.011-.432.021-.648.006-.115.022-.23.034-.343l.02-.019.422-.333c0 .08.011.161-.004.237a4.177 4.177 0 0 0-.066.954c.003.116.007.238.087.338.045.08.093.09.221.053Z" fill="#5ECDF2"/><path d="M14.315 3.014c.384.038.703.373.686.722-.108.056-.219.1-.28.226a.428.428 0 0 1-.3.235c-.188.04-.374.025-.556-.036-.104-.035-.142-.018-.195.082a.713.713 0 0 1-.034-.932c.018.058.034.116.054.174.037.11.09.142.2.122l.286-.055c.14-.027.211-.143.18-.286-.018-.083-.028-.168-.041-.252Z" fill="#F9BE49"/><path d="M13.556 8.18c-.148.054-.297.107-.445.162a6.478 6.478 0 0 1-1.29.336l.09-.265c.038-.113.017-.206-.086-.278-.044-.031-.077-.08-.115-.12.429-.048.858-.091 1.286-.146.322-.042.643-.096.963-.15.05-.008.094-.04.141-.06.08.056.087.086.01.142-.15.108-.306.207-.459.31-.032.022-.063.046-.095.069Z" fill="#FBDF6F"/><path d="M5.69 8.215c.023.025.041.06.07.073.57.263 1.162.46 1.781.564.357.06.716.1 1.074.154.176.026.35.06.526.091-.048.024-.093.058-.144.07a1.67 1.67 0 0 1-.67.02c-.382-.062-.766-.121-1.145-.2-.327-.069-.648-.162-.971-.248-.064-.017-.111-.011-.13.057-.02.076-.065.067-.118.043-.005-.027-.008-.054-.016-.08-.067-.218-.28-.277-.427-.104-.09.107-.146.243-.216.366H5.12l.492-.772c.005-.007.014-.01.022-.016l.021-.013.034-.005Z" fill="#78E0FC"/><path d="M4.404 4.253a.7.7 0 0 1-.153-.72l.029.003c.019.145.043.167.18.166.037 0 .073-.003.11-.004.285.036.571.074.857.107.034.003.09-.011.1-.033.013-.03.002-.084-.02-.111a1.096 1.096 0 0 0-.174-.175c-.054-.043-.054-.091-.037-.146.018-.06.061-.086.126-.08.042.004.085 0 .128 0 .135.13.187.295.197.478-.02.01-.045.018-.062.034l-.39.371a.198.198 0 0 1-.083.052c-.192.044-.388.053-.572-.025-.119-.05-.173.012-.236.083Z" fill="#FABE47"/><path d="M5.282 6.424c.025-.02.05-.056.076-.059.176-.017.352-.026.529-.039l1.156-.088c.04-.003.08.001.119.002.009.01.017.029.028.03.216.024.431.06.648.066.152.004.304-.033.458.005.157.04.318.064.477.095-.02.005-.04.014-.06.015-.283.008-.566.012-.85.022-.504.017-1.01.036-1.514.055-.301.011-.602.025-.904.035-.07.003-.113.023-.1.103l.003.007a.03.03 0 0 0-.016.004l-.05-.253ZM6.133 6.192c-.057-.248-.128-.494-.168-.744-.028-.17-.164-.154-.264-.205-.035-.018-.077-.027-.105-.052-.102-.093-.091-.194.026-.287l.314.062c.03.006.06.008.09.012-.009.127.022.193.12.234.095.039.194.07.298.03 0 .033-.008.067 0 .097.072.275.147.548.22.822l-.53.031Z" fill="#F7E997"/><path d="M6.444 5.243c-.104.038-.202.008-.297-.031-.099-.041-.13-.108-.121-.234.621-.16 1.127-.5 1.543-.983l.014-.015.002-.002c.075-.03.152-.053.223-.089.06-.03.11-.075.166-.11.01-.006.031.009.047.014l-.255.296a70.12 70.12 0 0 0-.04.052l-.037.053-.09.094-.035.04-.039.052-.189.25c-.021.01-.047.017-.065.032l-.534.452-.293.129Z" fill="#F8F6E8"/><path d="M9.617.224c.033.081.078.16.096.245a.516.516 0 0 1-.008.222c-.023.09-.094.134-.187.15a2.082 2.082 0 0 0-.245.061.448.448 0 0 1-.304-.008C8.845.85 8.84.762 8.81.673a.8.8 0 0 1 .808-.45Z" fill="#F7E997"/><path d="M8.862 1.518c.138.004.278-.003.414.014.152.02.3.085.458.041.155-.043.29-.12.37-.263.07-.126.124-.263.183-.396.02-.044.034-.09.051-.137.14.34.08.63-.182.885-.024.023-.045.049-.068.074-.056.009-.114.013-.17.028-.208.056-.417.103-.631.026-.077-.027-.156-.049-.233-.073l-.192-.199Z" fill="#E79731"/><path d="M5.069 14.712c-.001-.083.011-.17-.008-.25-.016-.066.005-.1.05-.133.046.037.092.072.134.112.025.023.043.053.064.08.07.096.043.207.054.314a.455.455 0 0 0 .171.312.443.443 0 0 1 .175.426c-.07.061-.141.121-.21.184-.084.075-.229.058-.255-.047a1.73 1.73 0 0 1-.051-.437c.002-.15.068-.296.023-.45-.023-.08-.059-.127-.147-.111Z" fill="#73DFFC"/><path d="M14.075 7.608c-.204.027-.408.052-.611.08-.351.05-.7.118-1.057.106-.06-.002-.122 0-.183 0l.332-.14c.049-.021.08-.054.067-.113a6.632 6.632 0 0 0 1.315-.21l.137.277Z" fill="#F9BE49"/><path d="M12.422 4.389c.004-.182.029-.352.204-.461a.332.332 0 0 1 .475.158c.073.19.046.289-.115.423-.048.04-.093.086-.139.13l-.425-.25Z" fill="#73DFFC"/><path d="M14.093 15.94c-.08-.099-.084-.221-.087-.338a4.17 4.17 0 0 1 .066-.953c.016-.076.004-.158.004-.237l.196-.184.006.722c.001.131 0 .262-.001.393 0 .163-.005.326 0 .489.004.089-.04.136-.13.116-.018-.004-.036-.005-.054-.008Z" fill="#A2F0FB"/><path d="M13.67 4.243c.053-.1.092-.117.195-.082.182.06.368.075.556.036a.428.428 0 0 0 .3-.235c.061-.126.172-.17.28-.226.027.28-.15.566-.433.702-.296.141-.7.054-.898-.195ZM4.404 4.253c.063-.071.118-.133.237-.083.183.078.38.07.572.025a.198.198 0 0 0 .082-.052l.39-.371c.017-.016.042-.023.062-.035a.732.732 0 0 1-.435.7c-.051.021-.101.047-.151.07l-.218.021c-.042-.013-.083-.028-.125-.038a.812.812 0 0 1-.414-.237Z" fill="#E79731"/><path d="M4.57 3.698c-.036.001-.073.004-.109.004-.137.001-.162-.021-.18-.166L4.27 3.48c.109-.287.45-.502.75-.47.053.005.105.021.157.032.013.037.027.074.038.11.02.066.062.132.007.198-.064.078-.128.155-.25.133a.31.31 0 0 0-.144.001.54.54 0 0 0-.17.091c-.037.03-.059.081-.088.123Zm.296-.384c.002-.096-.078-.182-.166-.18-.07.003-.144.098-.146.186-.002.086.063.143.162.143.107 0 .149-.04.15-.15Z" fill="#F7E997"/><path d="m6.901 7.848-.586-.083-.955-.138c-.06-.008-.12-.013-.18-.02l-.01-.029a4000.663 4000.663 0 0 1 .169-.326l.026-.02.105.065c-.075.049.004.065.02.095-.01.068.016.13.076.15.122.037.25.07.376.08.077.005.162-.033.17-.138l.502.052c.035.004.07.011.104.017.01.03.014.066.032.092.047.07.1.136.151.203Z" fill="#FBDF6F"/><path d="M14.315 3.014c.013.084.023.169.041.252.031.143-.039.259-.18.286l-.286.055c-.11.02-.163-.012-.2-.123-.02-.057-.036-.115-.054-.173.11-.194.422-.33.679-.297Z" fill="#F7E997"/><path d="M4.57 3.698c.03-.042.05-.092.088-.123a.54.54 0 0 1 .17-.09.31.31 0 0 1 .145-.002c.12.022.185-.055.25-.133.054-.066.012-.132-.008-.197-.011-.037-.025-.074-.038-.11.15.026.273.103.374.217-.043 0-.086.004-.129 0-.064-.006-.108.02-.126.08-.016.055-.016.103.038.146.064.05.123.11.174.175.022.027.033.081.02.11-.01.023-.067.037-.1.034-.286-.033-.572-.07-.858-.107Z" fill="#FBDF6F"/><path d="M8.02 3.793c-.016-.005-.037-.02-.047-.014-.056.035-.107.08-.165.11-.072.036-.15.06-.224.09l.674-.855.22-.28v.01c.143.098.035.207-.009.285-.119.215-.262.417-.398.623-.01.015-.033.02-.05.03Z" fill="#F7E997"/><path d="M5.47 7.297a57.56 57.56 0 0 0-.105-.064.24.24 0 0 1-.004-.006l.002-.005.003-.033-.003-.041-.003-.088-.013-.315.002-.072-.003-.007c.174-.018.176-.018.205.15.02.114.036.23.048.344.013.12-.003.135-.13.137Z" fill="#F8F6E8"/><path d="M14.093 15.94c.018.003.036.004.053.008.09.02.134-.027.131-.116-.006-.163-.001-.326 0-.49 0-.13.002-.261 0-.392 0-.24-.003-.48-.005-.721l.019-.02c.014.031.04.062.04.093.002.424.002.848-.001 1.272-.001.14-.01.28-.016.42-.129.038-.177.026-.221-.053Z" fill="#99E8F6"/><path d="M14.335 13.704c.007-.026.007-.056.021-.077.078-.116.17-.223.235-.344.062-.117.108-.246.142-.374.085-.325.134-.659.123-.992-.012-.36-.07-.718-.107-1.077-.007-.062-.01-.124-.015-.185.035.191.077.382.103.574.069.518.066 1.034-.046 1.547-.071.328-.184.638-.416.892-.012.013-.027.024-.04.036Z" fill="#47A6CF"/><path d="M5.76 4.395c.077.073.16.141.23.221.028.032.027.089.04.134-.16.038-.292-.027-.417-.113-.044-.03-.041-.072-.002-.108l.148-.134Z" fill="#F6FAF9"/><path d="M13.407 6.333c.145.01.29.021.434.033.036.003.071.01.107.015l-.018.164-.01.026v.001c-.12-.02-.242-.044-.363-.062-.068-.011-.137-.013-.206-.023-.01-.001-.019-.02-.028-.03.04-.033.116-.042.084-.124Z" fill="#F9BE49"/><path d="M9.054 1.717c.077.024.156.046.233.073.214.077.423.03.632-.026.055-.015.113-.02.17-.028l.01.027c-.118.051-.231.12-.354.148-.224.053-.44-.003-.644-.104-.015-.008-.027-.024-.04-.036a13.869 13.869 0 0 1-.007-.054Z" fill="#C86518"/><path d="M14.004 14.164c.01-.026.012-.061.03-.078.045-.038.04-.072.006-.11l.272-.22-.308.408Z" fill="#78E0FC"/><path d="M9.271 15.826c-.108-.001-.216 0-.324-.004-.04-.002-.08-.019-.119-.029l.443.033ZM9.894 15.831c-.138.006-.276.013-.413.016-.028 0-.056-.012-.085-.018l.498.002ZM10.61 15.778c-.027.05-.06.04-.095.01l.095-.01Z" fill="#3DA8D1"/><path d="m4.27 3.48.01.056c-.01 0-.02-.002-.029-.003l.018-.053Z" fill="#FBDF6F"/><path d="m5.348 6.673-.002.072-.014-.068a.03.03 0 0 1 .016-.004ZM5.36 7.227l.005.006-.026.02c.007-.01.014-.018.022-.026Z" fill="#F491B4"/><path d="m14.706 10.546-.008-.013.002-.008.01.013-.004.008Z" fill="#47A6CF"/><path d="m5.17 7.578.009.03-.025-.002.016-.028Z" fill="#F9BE49"/><path d="m5.334 7.26-.007.014c-.002-.007 0-.012.007-.015Z" fill="#F491B4"/><path d="M12.294 3.147c-.11.033-.22.073-.332.1-.32.076-.723-.158-.795-.478-.044-.2-.01-.527.176-.624.043.04.23.054.283.018.019-.013.03-.04.044-.06.008-.01.015-.022.023-.034l.105-.177c.12-.003.243-.017.362-.004.16.018.278.119.364.252.04.06.069.128.098.195.031.073.08.117.159.136a.37.37 0 0 1 .284.348c-.154.04-.31.05-.467.02-.124-.023-.21.063-.22.173-.005.066-.046.096-.084.135Z" fill="#CDF6FB"/><path d="M12.294 3.147c.038-.039.08-.069.085-.135.009-.11.095-.196.22-.173.157.03.312.02.466-.02.022.101.031.204-.062.274a.346.346 0 0 1-.176.073c-.113.005-.223.002-.318.08-.05.039-.088.003-.125-.035-.026-.025-.06-.043-.09-.064Z" fill="#A2F0FB"/><path d="M11.67 2.104c-.014.02-.024.046-.044.06-.052.035-.239.02-.282-.02a.563.563 0 0 1 .455-.252l-.106.177c-.017-.019-.034-.052-.052-.053-.083-.006-.13.046-.169.114.082.074.136-.01.199-.026Z" fill="#F8F6E8"/><path d="M7.414 15.864a.757.757 0 0 1 .452.11c.086.053.085.125.08.205-.011.213-.022.425-.035.637-.009.13-.013.262-.035.39-.028.157-.087.187-.247.153-.02-.004-.042-.003-.063-.004-.001-.143 0-.287-.004-.43a1.725 1.725 0 0 0-.023-.253c-.013-.072-.046-.136-.139-.126l.014-.682Z" fill="#CDF6FB"/><path d="M7.4 16.546c.092-.01.126.054.139.126.015.083.02.168.022.253.004.143.003.287.004.43-.006.21-.02.421-.015.631a.59.59 0 0 0 .068.268c.062.11.176.128.296.08.064-.026.132-.043.198-.065h.04c-.037.057-.066.124-.115.17-.148.144-.342.134-.487-.014-.142-.144-.171-.326-.17-.515.003-.388.01-.776.015-1.163 0-.067.003-.134.005-.201Z" fill="#F6FAF9"/><path d="M8.153 18.269h-.04c.013-.092.034-.185.035-.278.005-.333 0-.666.003-1 .002-.203.021-.408.014-.611-.005-.175-.038-.35-.057-.524-.003-.027.005-.055.008-.083.035.175.092.348.1.524.014.273-.009.548-.012.822-.003.323.002.647-.003.97 0 .06-.031.12-.048.18ZM8.106 15.717a.021.021 0 0 1-.01-.01c.007 0 .01.004.01.01Z" fill="#99E8F6"/><path d="M5.968 1.078C6.02.88 6.15.77 6.352.738a.43.43 0 0 1 .31.084c.023.05.054.096.065.148.012.05.026.122.001.156a.69.69 0 0 1-.655.3c-.024-.002-.047-.012-.07-.018a8.838 8.838 0 0 1-.004-.033L6 1.28l-.017-.055-.016-.147Z" fill="#CDF6FB"/><path d="M6 1.28c0 .032 0 .063-.002.095-.029-.045-.066-.087-.085-.136-.026-.07-.038-.143-.057-.215.018-.034.036-.05.062-.006.014.022.033.04.05.06l.016.147L6 1.28Z" fill="#94EAFD"/><path d="M17.837 10.517c0 .264-.205.489-.444.487a.28.28 0 0 1-.263-.188c-.076-.235.081-.537.296-.603.262-.08.428.083.411.304Z" fill="#FBFBFB"/><path d="M15.873 9.373c-.076-.153-.095-.306-.008-.462.044.009.093.008.13.028.14.075.232.05.31-.094.028-.052.056-.091.134-.067.052.016.116-.01.174-.016.087.048.104.137.127.222-.115.01-.162.11-.238.172-.047.037-.094.083-.148.099-.158.046-.32.08-.48.118Z" fill="#CDF6FB"/><path d="M15.873 9.373c.16-.039.323-.072.48-.118.055-.016.102-.062.148-.099.077-.061.124-.162.238-.172.103.203-.047.539-.287.628-.225.082-.461-.03-.579-.24Z" fill="#A2F0FB"/><path d="M16.612 8.762c-.058.007-.122.032-.173.016-.079-.024-.107.015-.135.067-.078.143-.17.17-.31.094-.037-.02-.086-.019-.13-.028l.01-.036.013-.023a.397.397 0 0 1 .335-.247c.155-.02.297.014.39.157Z" fill="#F6FAF9"/><path d="M5.069 14.712c.088-.015.124.031.147.11.045.155-.021.301-.023.45a1.73 1.73 0 0 0 .05.438c.027.105.172.122.255.047.07-.063.14-.123.21-.184-.01.068-.015.139-.035.205-.04.127-.143.195-.286.198a.27.27 0 0 1-.27-.178.683.683 0 0 1-.048-.221c-.005-.288-.001-.577 0-.865Z" fill="#99E8F6"/><path d="M3.787 6.602c-.085.002-.168-.071-.167-.145a.167.167 0 0 1 .168-.168c.08 0 .153.073.157.157.004.077-.075.155-.158.156Z" fill="#CDF6FB"/><path d="M5.962 8.84c.054.023.1.032.12-.044.017-.068.064-.074.128-.057.323.086.644.18.971.247.38.08.763.139 1.146.201.223.037.448.034.67-.02.05-.012.095-.046.143-.07.204.006.407.018.61.015.17-.003.34-.023.509-.036.082.058-.006.064-.043.107.04.009.072.023.102.022.31-.016.62-.028.928-.056.184-.016.365-.062.548-.09.153-.022.214.03.245.182.042.202.085.404.132.605.03.129.116.176.223.106.178-.118.376-.161.582-.195.074-.013.144-.057.215-.09.131-.063.195-.043.234.095.086.304.194.606.236.916.04.308.017.625.011.939-.003.126-.032.252-.053.377-.007.044-.025.085-.038.128a.518.518 0 0 0-.333-.072c-.235.02-.44.111-.563.314-.222.363-.126.764.25 1.005.022.014.039.036.058.055-.076.174-.244.2-.356.056l-.088-.117c-.067-.087-.132-.175-.201-.26-.054-.066-.15-.086-.205-.045-.071.054-.057.12-.02.187.016.03.033.059.05.087.049.085.1.168.146.253a.087.087 0 0 1 0 .067c-.003.008-.038.008-.057.003-.041-.01-.081-.027-.122-.04-.068-.02-.125-.002-.15.065-.027.066.019.099.073.126.108.055.219.107.321.172.07.044.127.108.19.163-.188.067-.374.143-.565.2-.306.09-.614.171-.923.247-.1.024-.207.02-.31.028-.043-.106-.114-.136-.261-.125-.207.016-.413.033-.62.034-.311.001-.623 0-.933-.019-.258-.015-.513-.057-.77-.083-.049-.005-.12-.004-.145.025-.083.097-.18.072-.277.052-.526-.108-1.01-.323-1.47-.591a2.287 2.287 0 0 1-.593-.48c.107 0 .214.003.32-.004.248-.016.458-.097.555-.352.085-.223.116-.45-.01-.667-.118-.207-.296-.336-.546-.336-.1 0-.2.012-.3.018-.036-.329-.082-.657-.104-.986-.014-.21.001-.421.017-.63.012-.151.045-.3.072-.45.01-.057.033-.087.107-.07.233.055.468.105.704.143.182.03.365.011.536-.068.118-.056.165-.17.118-.28-.04-.095-.129-.134-.217-.17-.284-.12-.57-.234-.851-.357-.224-.097-.24-.145-.152-.374.001-.003.004-.005.006-.007Zm3.654 5.007c.31-.011.54-.103.74-.276.247-.214.377-.497.465-.804.024-.085.047-.17.06-.258.014-.1-.024-.127-.114-.085-.041.02-.082.042-.122.064-.454.256-.936.315-1.443.217-.255-.049-.485-.161-.719-.268-.028-.012-.062-.01-.093-.016-.003.032-.013.064-.008.095.04.279.137.538.288.775.23.363.563.546.946.556Zm-3.41-2.526c.004.247.059.446.185.625.268.38.74.394 1.03.03.31-.388.273-1.003-.08-1.34a.586.586 0 0 0-.756-.062c-.266.189-.364.463-.378.747Zm6.86.038a1.015 1.015 0 0 0-.18-.587c-.244-.347-.68-.407-.958-.13a1.036 1.036 0 0 0-.12 1.29c.274.404.756.372.994.11.175-.191.258-.417.264-.683Z" fill="#A2F0FB"/><path d="M5.963 8.84c-.003.001-.006.003-.007.006-.088.23-.072.277.152.374.282.123.568.238.851.356.088.037.176.076.217.17.048.11 0 .225-.118.28a.909.909 0 0 1-.536.069c-.236-.038-.47-.088-.703-.143-.075-.018-.098.013-.108.07-.027.15-.06.299-.071.45-.017.209-.032.42-.018.63.022.33.069.657.105.986-.081.078-.165.152-.242.233-.097.102-.182.212-.183.364 0 .07-.01.14-.015.21-.024-.05-.059-.097-.07-.15a.374.374 0 0 0-.1-.186.671.671 0 0 1-.12-.237c-.019-.055-.013-.12-.019-.18l-.002-.074a57.905 57.905 0 0 0-.003-.072c0-.303 0-.605.002-.908a6.564 6.564 0 0 1 .191-1.546c.044-.174.091-.347.137-.52.071-.124.126-.26.216-.367.148-.173.361-.114.428.104.008.026.01.053.016.08Z" fill="#FBFBFB"/><path d="M5.707 13.43c.168.195.373.35.593.479.46.268.944.483 1.47.591.096.02.193.045.277-.053.024-.028.096-.029.145-.024.257.026.512.068.77.083.31.018.622.02.933.019.207-.002.413-.018.62-.034.146-.011.218.019.26.125-.023.02-.044.053-.069.055-.238.022-.478.038-.717.058-.111.01-.223.02-.334.037-.087.014-.137.06-.132.163.008.159-.037.201-.196.203a3.183 3.183 0 0 1-.812-.1c-.229-.057-.462-.1-.691-.157-.25-.063-.5-.13-.746-.209a5.44 5.44 0 0 1-.626-.24c-.203-.094-.395-.212-.59-.323-.274-.156-.5-.373-.733-.582-.199-.18-.11-.44.13-.493l.054-.009c.043.047.084.095.129.14.087.091.176.18.265.27ZM12.575 14.14c-.063-.054-.12-.118-.19-.162-.102-.065-.213-.117-.322-.172-.054-.027-.099-.06-.073-.126.026-.067.083-.085.15-.064.042.012.081.029.123.039.018.005.054.005.057-.003a.087.087 0 0 0 0-.066c-.046-.086-.097-.17-.146-.254a4.17 4.17 0 0 1-.05-.087c-.038-.067-.052-.133.02-.187.055-.041.151-.02.205.045.069.085.134.173.2.26l.088.117c.113.144.281.118.357-.056.107 0 .214.003.32.001a.552.552 0 0 0 .404-.17c.241-.255.321-.684.027-1 .032-.098.123-.078.193-.093.053-.011.125.016.16-.01.033-.027.034-.1.04-.154.019-.138.042-.276.047-.415.007-.214.016-.43-.002-.643a4.892 4.892 0 0 0-.113-.671c-.042-.183-.113-.358-.169-.537-.007-.024-.004-.051.015-.09.022.02.056.034.066.059.09.205.186.408.258.62.072.208.127.424.17.64.03.152.029.311.036.468.005.099.005.199-.004.297-.02.239-.02.484-.08.713-.082.321-.186.638-.43.89-.186.191-.34.412-.525.605-.142.15-.306.278-.464.412-.081.069-.177.033-.241-.072-.032-.051-.084-.09-.127-.133Z" fill="#60CFF4"/><path d="M13.745 12.254c.294.317.214.746-.028 1.002a.553.553 0 0 1-.403.169c-.107.002-.213 0-.32-.001-.02-.019-.037-.041-.06-.055-.374-.241-.47-.642-.249-1.005.124-.203.328-.293.563-.314.119-.01.23.007.333.072l.164.132ZM5.707 13.43l-.265-.27c-.045-.046-.086-.094-.13-.14l-.025-.125c.005-.07.015-.14.015-.21 0-.152.086-.262.183-.364.077-.081.16-.155.242-.233.1-.006.2-.019.3-.018.249 0 .427.129.546.336.125.217.094.444.01.667-.098.255-.308.336-.556.352-.106.007-.213.003-.32.004Z" fill="#F5D0C0"/><path d="m6.736 5.114.535-.452c.018-.015.043-.022.065-.032.063.024.055.07.022.108-.067.077-.049.148.003.22.102.143.069.3.049.456-.001.01-.01.02-.008.026.086.236-.054.466-.021.7h-.223c.037-.068.003-.098-.058-.132a.248.248 0 0 1-.11-.12c-.05-.148-.086-.301-.126-.452-.028-.105.01-.236-.125-.295-.004-.002-.002-.018-.003-.027ZM8.279 3.994c-.025-.1.04-.169.114-.232.097-.082.254-.043.303.086.046.122.048.248-.048.352a.2.2 0 0 1-.217.062c-.084-.026-.143-.08-.152-.175-.002-.027 0-.055 0-.093ZM7.783 4.995c0-.107.105-.21.211-.21.123 0 .212.09.21.214a.2.2 0 0 1-.207.206c-.1.002-.214-.11-.214-.21ZM9.442 2.71a.14.14 0 0 1 .138.149c-.001.066-.066.124-.142.125-.062.002-.15-.081-.148-.14.002-.057.089-.133.152-.133Z" fill="#FABE47"/><path d="m8.777 8.11 1.428-.002c-.002.011-.002.032-.005.033-.174.026-.348.066-.522.07-.306.007-.613-.008-.919-.013a22.708 22.708 0 0 1-.022-.036l.04-.052Z" fill="#FBDF6F"/><path d="m8.737 8.162.022.036c-.002.02-.001.042-.007.062-.018.061-.057.117-.12.114-.035-.002-.068-.055-.101-.084l-.005-.058c.012-.063.055-.08.113-.076l.098.006Z" fill="#F8F6E8"/><path d="m8.526 8.232.005.058c-.043-.016-.044-.036-.005-.058ZM10.734 7.569c-.481-.005-.963-.01-1.444-.013-.338-.002-.677.003-1.015-.003a9.961 9.961 0 0 1-.638-.037c-.062-.006-.123-.035-.184-.053.007-.109.046-.135.152-.119.115.018.235.026.334-.049.168-.127.16-.378-.013-.512-.075-.058-.156-.11-.235-.164.6-.013 1.201-.029 1.802-.037.371-.006.743-.005 1.114.003.13.003.26.039.39.06-.034.028-.063.06-.1.083-.213.135-.219.157-.071.361l.003.009-.095.47Zm-.745-.143c.198 0 .366-.127.39-.268.028-.162-.075-.381-.23-.434-.033-.012-.1.003-.118.029a5.543 5.543 0 0 0-.29.46c-.016.026.013.104.043.123.073.045.16.07.205.09Zm-1.032-.202c-.056-.12-.11-.24-.17-.357-.007-.016-.048-.026-.07-.023a.293.293 0 0 0-.255.27c-.004.126.08.217.23.252.108.024.245-.05.265-.142Z" fill="#FBDF6F"/><path d="m10.829 7.098-.003-.009c-.148-.204-.142-.226.071-.361.037-.023.066-.055.1-.084l.197-.02.056.113c.071.149.036.24-.117.304-.045.018-.093.028-.14.041l-.04.01-.124.006Z" fill="#F6FAF9"/><path d="M8.774 6.436c-.16-.03-.32-.056-.477-.095-.155-.038-.306 0-.459-.005-.216-.007-.432-.042-.648-.066-.01-.001-.019-.02-.028-.03.247-.015.493-.034.74-.042a.26.26 0 0 0 .226-.129l.791-1.21c.198-.3.395-.602.595-.9.025-.038.069-.062.104-.092l.066.121c-.022.026-.046.05-.064.078-.191.282-.382.564-.571.847-.124.184-.246.368-.368.553-.125.187-.251.373-.372.563-.055.087-.043.106.051.132.012.076.072.053.116.053.64.003 1.281.003 1.922.004.122 0 .244.004.366-.001.026-.002.05-.036.076-.055l.192-.077.016.02.148.112c-.04.03-.074.07-.117.087-.13.05-.264.09-.397.134l-.624-.001H8.774ZM6.9 7.848c-.05-.067-.104-.133-.151-.203-.018-.026-.021-.061-.031-.092.337.02.675.049 1.013.06.758.023 1.518.038 2.277.057.027 0 .054.005.081.008-.018.095-.038.189-.16.204l-.054-.001-.02-.001-.898-.008c-.049 0-.097.006-.146.009-.036-.004-.072-.008-.108-.01-.148-.009-.299-.003-.444-.029-.231-.041-.462-.078-.696-.043-.124.018-.243.06-.365.092l-.132-.005-.037-.007-.055-.011-.055-.011-.018-.009Z" fill="#F8F6E8"/><path d="M7.69 6.62c.08.054.16.105.236.163.173.134.18.385.012.512-.099.075-.218.067-.334.05-.105-.017-.144.01-.151.118h-.161c-.004-.02-.005-.042-.012-.062l-.24-.775.65-.007Z" fill="#F9BE49"/><path d="M9.93 7.882c.122-.015.142-.11.16-.204.21-.004.42-.002.63-.014.556-.032 1.111-.07 1.667-.107l.236-.016c.014.06-.018.092-.068.113l-.331.14c-.364.034-.727.082-1.091.101-.34.018-.683.006-1.025.005-.059 0-.118-.012-.177-.018Z" fill="#F7E997"/><path d="m6.635 7.422-.572-.095c-.102-.016-.204-.031-.305-.049-.049-.008-.085-.032-.058-.087a.381.381 0 0 0-.056-.45c-.005-.005-.004-.016-.013-.052l.794-.05c.005.03.008.06.016.089l.194.694Z" fill="#F9BE49"/><path d="m6.635 7.422-.194-.694c-.008-.03-.01-.06-.015-.09l.614-.012.24.775c.007.02.008.042.012.062-.084 0-.168.004-.251-.002-.135-.01-.27-.026-.406-.04Z" fill="#F6FAF9"/><path d="M10.682 6.438c.132-.044.266-.084.396-.134.044-.017.078-.057.117-.087l.692.02c.014 0 .028.009.042.013.022.118.094.178.223.186l.198.014c-.114.012-.227.035-.34.035-.347 0-.694-.007-1.041-.016-.096-.003-.192-.02-.287-.031Z" fill="#F7E997"/><path d="m12.35 6.45-.198-.014c-.128-.008-.2-.068-.222-.186h.074l.07.002 1.334.08c.032.083-.045.092-.084.125l-.094.018h-.05l-.335-.021a.017.017 0 0 0-.014 0l-.04-.002-.052-.003h-.389ZM6.113 7.484c-.01.106-.095.143-.171.137a1.708 1.708 0 0 1-.376-.08c-.06-.018-.087-.08-.076-.15.214-.014.42.029.623.093Z" fill="#F8F6E8"/><path d="M12.831 6.453a.017.017 0 0 1 .014 0h-.014Z" fill="#F7E997"/><path d="M7.198 7.891c.122-.031.242-.074.365-.092.234-.035.465.002.696.043.146.026.296.02.444.029.036.002.072.006.108.01-.034.007-.067.02-.101.021-.264.009-.529.004-.791.025-.244.02-.482.007-.72-.036Z" fill="#F9BE49"/><path d="M8.36 6.16c-.095-.025-.107-.044-.051-.131.12-.19.247-.376.371-.563.123-.185.245-.37.368-.553l.571-.847c.019-.028.043-.052.064-.078.136.206.274.41.408.617l.839 1.298c.037.059.068.122.102.182l-.193.077c-.019-.024-.04-.046-.057-.07L9.684 4.5c-.076-.11-.11-.112-.185 0-.172.248-.34.499-.512.748-.208.305-.418.609-.627.913Z" fill="#F7E997"/><path d="M6.737 5.114c0 .01-.002.025.002.027.135.059.098.19.125.295.04.15.076.304.126.452a.248.248 0 0 0 .111.12c.06.034.095.064.057.133l-.493.02c-.074-.274-.149-.547-.221-.822-.008-.03 0-.064 0-.096l.293-.129Z" fill="#FDE16F"/><path d="M4.866 3.314c-.002.108-.043.15-.15.15-.1 0-.164-.058-.162-.144.001-.089.076-.183.146-.185.088-.003.168.083.166.179Z" fill="#F8F6E8"/><path d="M11.67 2.104c-.063.016-.117.1-.198.026.038-.068.086-.12.168-.114.019 0 .035.034.053.053l-.023.035Z" fill="#F7E997"/><path d="M9.616 13.847c-.383-.01-.715-.193-.946-.556a1.96 1.96 0 0 1-.288-.775c-.004-.03.005-.063.008-.095.031.005.066.004.094.016.233.107.463.22.718.268.507.098.99.039 1.443-.217.04-.022.08-.044.122-.064.09-.042.129-.016.114.085a1.956 1.956 0 0 1-.06.258c-.088.307-.218.59-.465.804-.199.173-.43.264-.74.276Zm.073-.937a2.46 2.46 0 0 1-1.013-.199c-.014-.006-.033 0-.058 0 .066.308.21.557.443.755a.89.89 0 0 0 .87.151c.394-.126.563-.455.701-.805.03-.077-.015-.115-.102-.079a2.573 2.573 0 0 1-.784.168l-.057.01ZM6.207 11.32c.014-.283.112-.558.378-.747a.586.586 0 0 1 .756.063c.353.337.39.952.081 1.34-.29.364-.763.35-1.031-.03a1.06 1.06 0 0 1-.184-.625Zm.278-.424c-.02.034-.047.067-.06.105-.088.253-.103.5.018.752a.539.539 0 0 0 .671.296c.035-.011.072-.023.098-.045.192-.16.253-.388.293-.618.03-.172-.099-.313-.123-.478-.003-.021-.049-.037-.09-.065a.607.607 0 0 1-.144.382c-.082.103-.187.148-.276.086a.553.553 0 0 1-.2-.225.294.294 0 0 0-.187-.19Zm.644-.005-.001-.128c-.004-.104-.074-.174-.172-.176-.11-.003-.19.066-.194.176a2.896 2.896 0 0 0 0 .256c.006.114.08.181.19.18.113-.003.174-.067.177-.188v-.12ZM13.066 11.359c-.006.266-.09.492-.265.684-.237.26-.719.293-.992-.112a1.036 1.036 0 0 1 .12-1.29c.277-.276.713-.216.957.131.127.18.177.38.18.587Zm-1.136-.502c-.013.023-.04.058-.054.096-.08.231-.09.467-.04.705.051.234.185.381.43.423.167.029.453-.07.522-.214.118-.246.185-.505.088-.776-.034-.096-.092-.183-.14-.275l-.024.009c-.004.019-.007.039-.012.057-.03.095-.04.203-.094.28-.13.184-.28.256-.45.055-.088-.106-.149-.236-.226-.36Zm.643.041c-.032-.087-.052-.175-.095-.248-.06-.104-.173-.106-.252-.016-.113.127-.107.396.012.516.077.078.184.074.24-.02.041-.069.062-.15.095-.232Z" fill="#0B090B"/><path d="M9.99 7.426c-.046-.02-.133-.045-.206-.09-.03-.02-.058-.097-.044-.123.089-.158.187-.311.291-.46.018-.026.085-.04.118-.03.155.054.258.273.23.435-.023.14-.192.268-.39.268ZM8.956 7.224c-.019.092-.156.166-.264.142-.15-.035-.234-.126-.23-.251a.293.293 0 0 1 .254-.27c.023-.004.063.006.072.022.06.117.113.238.168.357Z" fill="#FABE47"/><path d="M8.36 6.16c.21-.303.42-.607.628-.912l.511-.749c.076-.11.11-.109.186.001l1.097 1.591c.018.025.039.047.058.07-.025.02-.05.054-.076.056-.122.005-.244 0-.366 0-.64 0-1.281 0-1.922-.002-.044 0-.104.022-.116-.054Zm.56-.038 1.248.002c.158-.003.318.012.496-.02L9.62 4.534c-.1.064-1.078 1.52-1.079 1.61l.38-.022Z" fill="#C86518"/><path d="M9.746 12.901c.268-.021.532-.065.784-.168.087-.036.133.002.102.079-.139.35-.307.679-.7.805a.89.89 0 0 1-.871-.152c.193-.087.388-.172.579-.264.069-.033.097-.096.073-.176-.01-.037-.016-.077-.023-.115l.056-.009Z" fill="#F3CCD6"/><path d="M9.69 12.91c.008.038.013.078.024.115.024.08-.005.143-.074.176-.19.092-.385.177-.579.264a1.313 1.313 0 0 1-.443-.754c.026 0 .044-.006.058 0 .324.141.663.201 1.014.199Z" fill="#F491B4"/><path d="M6.485 10.896c.1.037.149.095.186.19.035.089.12.168.2.225.09.062.195.017.277-.086a.607.607 0 0 0 .145-.382c.04.028.086.044.089.065.024.165.153.306.123.478-.04.23-.1.457-.293.618a.539.539 0 0 1-.77-.25c-.12-.252-.105-.5-.017-.753.013-.038.04-.071.06-.105Z" fill="#1E0C1D"/><path d="m7.13 10.892-.001.119c-.003.121-.063.185-.177.187-.11.002-.184-.065-.19-.179a2.892 2.892 0 0 1 0-.256c.005-.11.084-.179.194-.176.099.002.168.072.172.176.002.043.001.086.001.129Z" fill="#99E8F6"/><path d="M11.93 10.857c.078.125.138.254.227.36.169.2.32.13.449-.055.054-.077.064-.185.094-.28.006-.018.008-.038.012-.057l.025-.009c.047.092.105.18.14.275.097.27.03.53-.089.776-.07.144-.355.243-.523.214-.244-.042-.377-.19-.428-.423a1.287 1.287 0 0 1 .04-.705c.013-.038.04-.073.053-.096Z" fill="#1E0C1D"/><path d="M12.574 10.898c-.033.083-.054.163-.095.231-.056.095-.163.099-.24.021-.119-.12-.126-.39-.013-.516.08-.09.192-.088.253.016.043.073.063.16.095.248Z" fill="#99E8F6"/><path d="m8.92 6.122-.379.022c0-.09.979-1.546 1.079-1.61l1.044 1.57c-.178.032-.338.017-.496.02-.012-.027-.02-.056-.036-.082-.054-.092-.115-.18-.163-.274-.114-.229-.22-.461-.334-.69-.015-.03-.053-.068-.08-.068-.028 0-.066.037-.082.067-.139.27-.272.543-.41.813-.042.08-.095.155-.142.232Z" fill="#FBDF6F"/><path d="M8.92 6.122c.047-.077.1-.152.142-.232.138-.27.272-.543.41-.813.016-.03.054-.068.082-.067.027 0 .065.037.08.068.114.229.22.461.334.69.048.095.11.182.163.274.015.026.025.055.037.082L8.92 6.122Z" fill="#FABE47"/></g><defs><clipPath id="a"><path fill="#fff" d="M0 0h20v20H0z"/></clipPath></defs></svg>