<svg xmlns="http://www.w3.org/2000/svg" width="21" height="20" fill="none"><circle cx="10" cy="10" r="10" fill="#fff"/><path fill="#04BFBF" fill-rule="evenodd" d="M16.322 8.714a.61.61 0 0 0-.249.05A5.512 5.512 0 0 0 10 9.588a5.508 5.508 0 0 0-6.07-.824.622.622 0 0 0-.249-.05.7.7 0 0 0-.47.193.671.671 0 0 0-.21.46.667.667 0 0 0 .595.681.676.676 0 0 0 .74-.55c1.786-.908 3.542-.61 5.1.705a6.64 6.64 0 0 0-.515.793C7.82 13.376 8.427 15.333 9.996 17c1.69-1.934 2.192-4.062.693-6.51a4.55 4.55 0 0 0-.514.688 4.28 4.28 0 0 1-.179 4.565c-1.316-1.497-.95-4.058.568-5.52 1.558-1.331 3.313-1.63 5.085-.72a.673.673 0 0 0 1.183.313.66.66 0 0 0-.039-.92.684.684 0 0 0-.47-.182Z" clip-rule="evenodd"/><path fill="#04BFBF" fill-rule="evenodd" d="M15.703 7.023a.67.67 0 0 0-.455-.63.682.682 0 0 0-.413 0 .702.702 0 0 0-.339.212 7.005 7.005 0 0 0-4.492.952 7 7 0 0 0-4.497-.952.704.704 0 0 0-.498-.251.646.646 0 0 0-.522.201.673.673 0 0 0-.19.518.655.655 0 0 0 .269.484v.02h.03a.675.675 0 0 0 .786.003.662.662 0 0 0 .16-.209 6.009 6.009 0 0 1 4.446 1.122 6.016 6.016 0 0 1 4.442-1.118.72.72 0 0 0 .19.201.758.758 0 0 0 .258.109.74.74 0 0 0 .276 0 .668.668 0 0 0 .253-.109h.031v-.019a.647.647 0 0 0 .265-.534Z" clip-rule="evenodd"/><path fill="#04BFBF" fill-rule="evenodd" d="M12.732 4.5a.685.685 0 0 0-.346.094.655.655 0 0 0-.25.255A7.189 7.189 0 0 0 10 5.696a7.17 7.17 0 0 0-2.122-.847.685.685 0 0 0-1.102-.128.67.67 0 0 0 .342 1.106.682.682 0 0 0 .32 0 .674.674 0 0 0 .362-.216c.8.19 1.554.538 2.215 1.025a6.047 6.047 0 0 1 2.211-1.025.685.685 0 0 0 1.137-.15.674.674 0 0 0 .063-.33.64.64 0 0 0-.344-.546.688.688 0 0 0-.326-.084h-.024Z" clip-rule="evenodd"/><path fill="#04BFBF" d="M10 4.749a.883.883 0 0 0 .81-.544.869.869 0 0 0-.194-.952.882.882 0 0 0-1.5.625.87.87 0 0 0 .547.805.885.885 0 0 0 .337.066Z"/><path fill="#E68F7B" d="m17.032 10 3.04 5.023-3.03-1.294-.01-3.729Z"/><path fill="#F8EC7C" d="M14 15.023 17.031 10l.012 3.729L14 15.023Z"/><path fill="#6EB87D" d="M17.031 16.875 14 15.023l3.043-1.294-.012 3.146Z"/><path fill="#946BA7" d="m20.071 15.023-3.028-1.294-.011 3.146 3.04-1.852Z"/><path fill="#697CB9" d="m17.032 17.513 3.04-1.802-3.04 4.283v-2.481Z"/><path fill="#4FADD0" d="M17.031 17.513 14 15.71l3.031 4.283v-2.481Z"/></svg>