<svg width="21" height="20" fill="none" xmlns="http://www.w3.org/2000/svg"><g clip-path="url(#a)"><path d="M13.978.622A9.98 9.98 0 0 0 10.5 0C9.277 0 8.105.22 7.022.622L6.152 10l.87 9.378A9.977 9.977 0 0 0 10.5 20c1.223 0 2.395-.22 3.478-.622l.87-9.378-.87-9.378Z" fill="#FFDA44"/><path d="M20.5 10c0-4.3-2.714-7.965-6.522-9.378v18.756C17.786 17.965 20.5 14.3 20.5 10Z" fill="#D80027"/><path d="M.5 10c0 4.3 2.714 7.965 6.522 9.378V.622A10.003 10.003 0 0 0 .5 10Z" fill="#0052B4"/></g><defs><clipPath id="a"><path fill="#fff" transform="translate(.5)" d="M0 0h20v20H0z"/></clipPath></defs></svg>