<svg width="1204" height="1204" fill="none" xmlns="http://www.w3.org/2000/svg"><path d="M100.334 100.333H1103.67V1103.67H100.334V100.333Z" fill="url(#a)"/><path d="M128.233 128.227h947.597v947.603H128.233V128.227Z" fill="#252623"/><path fill-rule="evenodd" clip-rule="evenodd" d="M343.497 239.697A100.333 100.333 0 0 0 243.164 340.03v147.691a100.337 100.337 0 0 0 29.387 70.946 100.333 100.333 0 0 0 70.946 29.387h147.741a100.332 100.332 0 0 0 100.333-100.333V340.03a100.332 100.332 0 0 0-100.333-100.333H343.497Zm-6.27 139.363a41.81 41.81 0 0 0 41.813-41.814 41.813 41.813 0 1 0-41.813 41.814Zm121.905 34.816a41.789 41.789 0 0 1-83.578 0 41.811 41.811 0 0 1 41.814-41.814 41.813 41.813 0 0 1 41.814 41.814h-.05Zm34.865 118.443a41.811 41.811 0 0 0 41.814-41.814 41.813 41.813 0 1 0-83.628 0 41.817 41.817 0 0 0 41.814 41.814Z" fill="url(#b)"/><path fill-rule="evenodd" clip-rule="evenodd" d="M612.484 712.768a100.333 100.333 0 0 1 100.334-100.333h147.69a100.335 100.335 0 0 1 100.334 100.333v147.741a100.334 100.334 0 0 1-100.334 100.333h-147.69a100.334 100.334 0 0 1-100.334-100.333V712.768Zm132.34-23.678a41.789 41.789 0 1 1-83.577 0 41.789 41.789 0 0 1 83.577 0Zm125.417 41.789a41.789 41.789 0 1 0 0-83.577 41.789 41.789 0 0 0 0 83.577Zm-125.417 55.735a41.789 41.789 0 1 1-83.577 0 41.789 41.789 0 0 1 83.577 0Zm125.417 41.839a41.817 41.817 0 0 0 29.567-71.381 41.815 41.815 0 1 0-29.567 71.381Zm-125.417 55.735a41.789 41.789 0 1 1-83.577 0 41.789 41.789 0 0 1 83.577 0Zm125.417 41.789a41.789 41.789 0 1 0 0-83.577 41.789 41.789 0 0 0 0 83.577Z" fill="url(#c)"/><path d="M730.928 295.432c0-15.405-12.476-27.893-27.867-27.893s-27.868 12.488-27.868 27.893v48.712c0 15.404 12.477 27.892 27.868 27.892 15.391 0 27.867-12.488 27.867-27.892v-48.712Z" fill="url(#d)"/><path d="M528.865 856.344c0-15.405-12.477-27.893-27.868-27.893-15.39 0-27.867 12.488-27.867 27.893v48.712c0 15.405 12.477 27.893 27.867 27.893 15.391 0 27.868-12.488 27.868-27.893v-48.712Z" fill="url(#e)"/><path d="M866.299 375.492c10.893-10.892 10.901-28.545.018-39.428-10.883-10.883-28.536-10.875-39.429.018l-34.444 34.444c-10.893 10.893-10.901 28.546-.018 39.429 10.883 10.883 28.536 10.875 39.428-.018l34.445-34.445Z" fill="url(#f)"/><path d="M413.376 831.846c10.893-10.893 10.901-28.546.018-39.429-10.883-10.883-28.536-10.875-39.429.018l-34.444 34.444c-10.893 10.893-10.901 28.546-.018 39.429 10.883 10.883 28.536 10.875 39.429-.018l34.444-34.444Z" fill="url(#g)"/><path d="M856.353 469.609c-15.405 0-27.893 12.477-27.893 27.868 0 15.391 12.488 27.868 27.893 27.868h48.711c15.405 0 27.893-12.477 27.893-27.868 0-15.391-12.488-27.868-27.893-27.868h-48.711Z" fill="url(#h)"/><path d="M298.886 675.193c-15.405 0-27.893 12.477-27.893 27.868 0 15.391 12.488 27.867 27.893 27.867h48.712c15.404 0 27.892-12.476 27.892-27.867s-12.488-27.868-27.892-27.868h-48.712Z" fill="url(#i)"/><defs><linearGradient id="a" x1="1103.67" y1="602" x2="100.334" y2="602" gradientUnits="userSpaceOnUse"><stop stop-color="#D600E9"/><stop offset="1" stop-color="#8000E2"/></linearGradient><linearGradient id="b" x1="591.571" y1="413.876" x2="243.164" y2="413.876" gradientUnits="userSpaceOnUse"><stop stop-color="#E903FD"/><stop offset="1" stop-color="#9801FF"/></linearGradient><linearGradient id="c" x1="960.842" y1="786.664" x2="612.484" y2="786.664" gradientUnits="userSpaceOnUse"><stop stop-color="#E903FD"/><stop offset="1" stop-color="#9801FF"/></linearGradient><linearGradient id="d" x1="730.928" y1="319.813" x2="675.193" y2="319.813" gradientUnits="userSpaceOnUse"><stop stop-color="#E903FD"/><stop offset="1" stop-color="#9801FF"/></linearGradient><linearGradient id="e" x1="528.865" y1="880.725" x2="473.13" y2="880.725" gradientUnits="userSpaceOnUse"><stop stop-color="#E903FD"/><stop offset="1" stop-color="#9801FF"/></linearGradient><linearGradient id="f" x1="849.059" y1="392.732" x2="809.648" y2="353.322" gradientUnits="userSpaceOnUse"><stop stop-color="#E903FD"/><stop offset="1" stop-color="#9801FF"/></linearGradient><linearGradient id="g" x1="396.136" y1="849.086" x2="356.725" y2="809.675" gradientUnits="userSpaceOnUse"><stop stop-color="#E903FD"/><stop offset="1" stop-color="#9801FF"/></linearGradient><linearGradient id="h" x1="880.734" y1="469.609" x2="880.734" y2="525.345" gradientUnits="userSpaceOnUse"><stop stop-color="#E903FD"/><stop offset="1" stop-color="#9801FF"/></linearGradient><linearGradient id="i" x1="323.267" y1="675.193" x2="323.267" y2="730.928" gradientUnits="userSpaceOnUse"><stop stop-color="#E903FD"/><stop offset="1" stop-color="#9801FF"/></linearGradient></defs></svg>