<svg width="20" height="20" fill="none" xmlns="http://www.w3.org/2000/svg"><g clip-path="url(#a)"><circle cx="10" cy="10" r="10" fill="#C9DFEB"/><path fill-rule="evenodd" clip-rule="evenodd" d="M10 19.429A9.429 9.429 0 1 0 10 .57a9.429 9.429 0 0 0 0 18.858ZM10 20c5.523 0 10-4.477 10-10S15.523 0 10 0 0 4.477 0 10s4.477 10 10 10Z" fill="#6CB2D9"/><path d="M9.49 9.562c.136-.178.383-.672.281-1.227-.045-.247-.214-.588-.475-.898a2.685 2.685 0 0 0-.248-.259c-.47-.427-1.127-.706-1.863-.416-1.363.538-1.499 1.745-1.213 2.414.286.67 1.697 2.166 3.517.386ZM10.506 8.51c.353.013.972.19 1.656.839a1.29 1.29 0 0 1 .853-.105c.034-.036.142-.167.298-.406.194-.298.328-1.297-.51-1.788a2.258 2.258 0 0 0-.267-.135c-.726-.305-1.359-.081-1.838.345-.43.383-.307.993-.192 1.25Z" fill="#fff"/><path d="M9.665 6.979a2.795 2.795 0 0 1 1.04-.635c.32-.097.597-.115.832-.084a6.851 6.851 0 0 0-.575-1.052c-.342-.498-.913-.895-1.459-.013-.436.706-.074 1.484.162 1.784ZM2.669 9.241c.487.58 1.59.536 2.08.441a2.34 2.34 0 0 1-.012-.19c-.504-.053-1.584-.288-1.87-.794-.356-.632-.155-1.68.518-1.912.673-.231 1.126.315 1.307.616.144.242.252.436.287.503.028-.107.064-.21.108-.312-.022-.08-.174-.379-.605-.926-.54-.684-1.706-.307-2.055.54-.35.847-.366 1.31.242 2.034Z" fill="#847766"/><path d="M4.737 9.492c-.012-.437.09-.9.212-1.457l.012-.055a2.1 2.1 0 0 1 .018-.075 13.507 13.507 0 0 0-.287-.503c-.18-.301-.634-.847-1.307-.616-.673.232-.874 1.28-.518 1.912.286.506 1.366.74 1.87.794Z" fill="#DBC5AE"/><path d="M17.576 10.547c-.521-.584-1.35-.265-1.7-.032a.486.486 0 0 0-.309.585c.092.455.767.832 1.34.716.07-.014.143-.033.216-.057.52-.167 1.024-.571.453-1.212Z" fill="#433C32"/><path d="M15.784 12.498a6.028 6.028 0 0 1-1.117.015 2.75 2.75 0 0 1-.315.48c.195.12.729.336 1.296.241.085-.124.23-.445.136-.736Z" fill="#DBC5AE"/><path d="M13.883 12.358c.035.141-.115.39-.198.5l-.24.756c.36-.062.677-.34.906-.622.144-.176.253-.354.316-.48a3.109 3.109 0 0 1-.784-.154ZM16.67 12.627a1.84 1.84 0 0 1-.886-.13c.094.292-.051.613-.136.737l-.418.592c.246-.01.879-.264 1.44-1.2Z" fill="#fff"/><path fill-rule="evenodd" clip-rule="evenodd" d="M9.49 9.562c.135-.178.383-.672.281-1.227-.045-.247-.215-.588-.476-.898.101-.167.228-.321.37-.458a2.795 2.795 0 0 1 1.04-.635 1.97 1.97 0 0 1 .832-.084c.56.074.886.425.998.655-.725-.305-1.358-.081-1.838.345-.43.383-.306.992-.191 1.25.353.013.972.19 1.656.839a1.29 1.29 0 0 1 .852-.105c.263.06.537.215.77.536.474-.089 1.556-.066 2.093.735a.486.486 0 0 0-.31.585c.092.455.768.832 1.34.716.07-.014.144-.033.217-.057-.001.269-.093.818-.454.868a1.84 1.84 0 0 1-.886-.13 6.03 6.03 0 0 1-1.117.015 3.107 3.107 0 0 1-.784-.154.159.159 0 0 0-.006-.019 36.162 36.162 0 0 0-1.069-.693c-.344-.207-1.233-.515-2.238-.37-.221.032-.433.074-.645.115-.752.148-1.497.295-2.59-.01-1.12-.314-1.64.064-1.76.292.007.251.138.85.601 1.232.464.382 1.255-.184 1.593-.515.49.117.966.212 1.42.288-.082.3-.242 1.016-.227 1.476.02.575-4.39.284-4.597-.355l-.29-.894c-.39-1.347.322-2.518.727-2.935a2.09 2.09 0 0 1-.065-.478c-.012-.437.09-.9.212-1.457l.013-.055a2.1 2.1 0 0 1 .125-.387c.27-.621.843-1.138 1.616-1.423.928-.342 1.738-.022 2.085.323.277.276.288.572.26.685-.47-.427-1.128-.706-1.863-.416-1.363.538-1.499 1.745-1.213 2.414.285.67 1.697 2.165 3.517.386Z" fill="#847766"/><path d="M13.877 12.34a36.031 36.031 0 0 0-1.069-.694c-.344-.207-1.233-.515-2.238-.37-.221.032-.433.074-.645.115-.752.148-1.497.295-2.59-.01-1.12-.314-1.64.064-1.76.292.007.251.138.85.601 1.232.464.382 1.255-.184 1.593-.515.49.117.966.212 1.42.288 2.118.353 3.78.292 4.496.18.083-.11.233-.359.198-.5a.142.142 0 0 0-.006-.019Z" fill="#DBC5AE"/><path d="M13.685 12.858c.083-.11.233-.359.198-.5m-.198.5-.24.756c.36-.062.677-.34.906-.621m-.666-.135c-.716.112-2.378.173-4.496-.18m4.694-.32a.13.13 0 0 0-.006-.019 36.358 36.358 0 0 0-1.069-.693c-.344-.207-1.233-.515-2.239-.37-1.005.145-1.833.496-3.234.104-1.12-.313-1.64.065-1.76.293m8.308.685c.231.085.508.131.784.155m-.316.48a2.75 2.75 0 0 0 .316-.48m-.316.48c.196.12.73.336 1.297.241m-6.459-.556a20.937 20.937 0 0 1-2.677-.63m2.677.63c-.082.3-.243 1.016-.227 1.476.02.575-4.39.285-4.597-.355m2.068-3.11c.433.169 1.493.428 2.266.112.966-.396.92-.88.79-1.239m0 0c.136-.178.384-.672.282-1.227-.046-.247-.215-.588-.476-.898m.194 2.125c-1.82 1.78-3.232.284-3.517-.386-.286-.669-.15-1.876 1.213-2.414.735-.29 1.393-.011 1.862.416m.248.259c.1-.167.228-.32.37-.458m-.37.458a2.686 2.686 0 0 0-.248-.259m0 0c.03-.113.018-.409-.26-.685-.347-.345-1.156-.664-2.084-.323-.773.285-1.345.802-1.616 1.423m5.216.93a.826.826 0 0 1 .203-.014m0 0c.353.014.971.192 1.656.84a1.29 1.29 0 0 1 .852-.105m-2.508-.735c-.116-.256-.239-.866.191-1.249.48-.426 1.113-.65 1.838-.345m1.248 2.865a1157.164 1157.164 0 0 1 0 0Zm0 0c.475-.089 1.557-.066 2.094.735m-2.094-.735c-.232-.32-.506-.476-.769-.536m2.863 1.271c.349-.233 1.178-.552 1.7.032.57.64.065 1.045-.453 1.212m-1.247-1.244a.486.486 0 0 0-.31.585c.092.455.768.832 1.34.716.07-.014.143-.033.217-.057m-4.11-2.515c.035-.036.143-.167.298-.406.195-.298.329-1.297-.509-1.788a2.267 2.267 0 0 0-.268-.135m4.589 4.844c-.001.269-.093.818-.454.868m0 0a1.84 1.84 0 0 1-.886-.13m.886.13c-.562.935-1.194 1.19-1.44 1.2l.418-.593m.136-.736a6.019 6.019 0 0 1-1.117.015m1.117-.015c.094.29-.052.612-.136.736m-3.113-6.319c-.112-.23-.438-.581-.998-.655m0 0a1.969 1.969 0 0 0-.832.084c-.344.111-.729.334-1.04.635m1.872-.72a6.843 6.843 0 0 0-.576-1.05c-.34-.5-.912-.896-1.458-.014-.436.706-.074 1.484.162 1.784m-4.578.614c-.022-.08-.174-.379-.605-.926-.54-.684-1.706-.307-2.055.54-.35.847-.366 1.31.242 2.034.487.58 1.59.536 2.08.441m.338-2.09c-.044.102-.08.206-.108.313M4.802 9.97l.117-.107m-.117.107c-.405.417-1.118 1.588-.727 2.935m.727-2.935a2.088 2.088 0 0 1-.052-.288m-.675 3.223.29.894m-.29-.894.29.894m.385-4.117a2.34 2.34 0 0 1-.013-.19m0 0c-.013-.452.096-.93.224-1.512a2.1 2.1 0 0 1 .018-.075m-.242 1.587c-.504-.053-1.584-.288-1.87-.794-.356-.632-.155-1.68.518-1.912.673-.231 1.126.315 1.307.616.144.241.252.436.287.503" stroke="#292929" stroke-width=".286" stroke-linecap="round"/><path fill-rule="evenodd" clip-rule="evenodd" d="M7.84 9.186a.751.751 0 1 0-.462-1.43.751.751 0 0 0 .462 1.43Zm-.002-.775a.224.224 0 1 0-.137-.427.224.224 0 0 0 .137.427ZM12.175 8.67a.685.685 0 1 0-.422-1.304.685.685 0 0 0 .421 1.304Zm.002-.72a.224.224 0 1 0-.138-.427.224.224 0 0 0 .138.427Z" fill="#000"/></g><defs><clipPath id="a"><path fill="#fff" d="M0 0h20v20H0z"/></clipPath></defs></svg>