<svg xmlns="http://www.w3.org/2000/svg" width="20" height="20" fill="none"><g clip-path="url(#a)"><path d="M5.763 19.033c4.989 2.343 10.933.194 13.27-4.795 2.337-4.99.194-10.934-4.795-13.271C9.248-1.376 3.304.773.967 5.762c-2.337 4.99-.193 10.934 4.796 13.271Z" fill="url(#b)"/><path d="m18.763 7.276.9-1.558a.46.46 0 0 0-.398-.69H6.57c-.547 0-1.055.292-1.331.768L3.597 8.64c-.232.403.055.9.52.9h10.032c.244 0 .398.266.277.476l-.116.199a.458.458 0 0 1-.398.232H3.437c-.547 0-1.056.292-1.332.768L.332 14.282a.46.46 0 0 0 .398.69h12.696c.547 0 1.055-.292 1.331-.768l2.547-4.414a.766.766 0 0 0-.663-1.15H6.238a.318.318 0 0 1-.276-.474l.116-.2a.457.457 0 0 1 .397-.231h11.492c.326 0 .63-.171.796-.459Z" fill="#fff"/></g><defs><linearGradient id="b" x1="12.562" y1="19.645" x2="7.438" y2=".355" gradientUnits="userSpaceOnUse"><stop offset="0" stop-color="#A1D6FE"/><stop offset=".124" stop-color="#2592ED"/><stop offset=".426" stop-color="#195FBE"/><stop offset="1" stop-color="#030268"/></linearGradient><clipPath id="a"><path fill="#fff" d="M0 0h20v20H0z"/></clipPath></defs></svg>