<svg width="20" height="20" fill="none" xmlns="http://www.w3.org/2000/svg"><g clip-path="url(#a)"><path d="M10 20c5.523 0 10-4.477 10-10S15.523 0 10 0 0 4.477 0 10s4.477 10 10 10Z" fill="#fff"/><path fill-rule="evenodd" clip-rule="evenodd" d="M12.396 9.376c-.032-.332-.154-.564-.368-.7-.215-.134-.492-.2-.834-.201-.359 0-.637.09-.834.269a.84.84 0 0 0-.296.643c0 .212.063.373.19.486.127.115.345.21.653.286.43.1.677.171.743.213.067.042.1.103.1.182 0 .082-.042.143-.124.185a.75.75 0 0 1-.334.062c-.239 0-.403-.047-.491-.14-.05-.054-.082-.143-.097-.268H9.98c0 .277.101.506.306.685.204.179.52.269.95.269.421 0 .731-.085.932-.254a.819.819 0 0 0 .301-.656.68.68 0 0 0-.21-.508c-.142-.133-.355-.233-.638-.3-.425-.092-.672-.157-.743-.195a.184.184 0 0 1-.105-.176c0-.065.033-.12.099-.17.066-.047.177-.071.332-.071.188 0 .321.048.4.143a.414.414 0 0 1 .077.216h.714Zm1.42-.887c-.458 0-.782.118-.97.356a1.044 1.044 0 0 0-.201.583h.688a.51.51 0 0 1 .1-.248c.069-.082.188-.124.357-.124.151 0 .264.02.342.063.078.044.117.12.117.23 0 .09-.052.158-.153.2a1.106 1.106 0 0 1-.283.063l-.242.03c-.276.035-.483.092-.625.173-.26.148-.389.388-.389.721 0 .256.08.454.241.594.162.14.365.21.613.21.193 0 .366-.045.52-.133.13-.075.242-.165.34-.27.006.06.012.116.021.164a.723.723 0 0 0 .045.153h.775v-.104a.246.246 0 0 1-.105-.08c-.023-.034-.037-.096-.042-.189a10.02 10.02 0 0 1-.005-.312v-1.24c0-.325-.116-.547-.348-.664a1.729 1.729 0 0 0-.795-.176Zm-.195 2.336a.373.373 0 0 1-.245-.08c-.068-.054-.102-.14-.102-.262 0-.135.055-.235.165-.3.065-.038.173-.07.323-.096l.16-.03c.08-.015.142-.03.188-.048a.84.84 0 0 0 .136-.068v.262c-.005.236-.072.4-.201.49a.733.733 0 0 1-.424.132Zm3.336-2.273-.563 1.993-.595-1.993h-.793l1 2.82c.007.02-.008.075-.043.164-.036.09-.074.149-.117.177a.364.364 0 0 1-.16.057 1.03 1.03 0 0 1-.2.007l-.09-.005v.566l.173.01h.153c.315 0 .525-.062.63-.185.105-.123.247-.44.428-.953l.935-2.658h-.758ZM3.878 9.609a20 20 0 0 1-.014-.01l-.439-.308c-.215-.142-.328-.25-.328-.366 0-.106.072-.137.17-.137.26 0 .607.176 1.104.963h.036V8.447h-.031l-.24.198a1.497 1.497 0 0 0-.718-.173c-.6 0-1.015.335-1.015.843 0 .335.195.563.564.802l.315.21c.4.255.497.366.497.478 0 .112-.077.157-.164.157-.384 0-.879-.347-1.3-1.155h-.03l.108 1.417c.2-.033.353-.002.528.034.147.03.31.062.527.062.851 0 1.092-.502 1.092-.858 0-.4-.304-.608-.662-.853Zm2.171 1.722c.174 0 .543-.325.979-.798l-.026-.025c-.205.107-.338.142-.481.142-.528 0-.892-.386-1.082-.812h.656c.216 0 .897-.31.897-.452-.04-.508-.348-.909-.994-.909-.287 0-1.404.264-1.404 1.467 0 .858.635 1.386 1.455 1.386Zm-.487-2.62c.303 0 .468.435.513.94h-.72a2.198 2.198 0 0 1-.07-.488c0-.305.129-.452.277-.452Zm4.498 2.513-.24-.198.01-1.655c0-.488-.215-.889-.784-.889-.164 0-.43.264-.774.731h-.005c.046-.579-.144-.726-.39-.726-.274 0-.478.287-.735.649l-.11.153.02.026.385-.188v1.899l-.241.198v.03h1.378v-.03l-.235-.198V9.274c.071-.101.169-.172.302-.172.154 0 .277.076.277.33v1.594l-.236.198v.03h1.378v-.03Z" fill="#000"/></g><defs><clipPath id="a"><path fill="#fff" d="M0 0h20v20H0z"/></clipPath></defs></svg>