<svg width="20" height="20" fill="none" xmlns="http://www.w3.org/2000/svg"><circle cx="10" cy="10" r="10" fill="#000"/><path d="M9.844 2.188a7.813 7.813 0 0 0-7.439 10.208c1.976-.092 4.02-1.19 5.211-2.503C10.118 7.391 9.644 4.44 9.951 4.37c.335-.077.904 1.777 3.51 2.41 1.61.392 2.93-.004 3.399-.22a7.813 7.813 0 0 0-7.016-4.372Z" fill="url(#a)"/><path d="M9.844 17.813a7.812 7.812 0 0 0 7.435-10.22c-1.108.18-2.982.289-5.207 2.514-2.503 2.502-2.028 5.454-2.335 5.524-.336.076-.905-1.778-3.51-2.411-.646-.153-2.229-.318-3.388.244a7.813 7.813 0 0 0 7.005 4.348Z" fill="url(#b)"/><defs><linearGradient id="a" x1="3.145" y1="6.155" x2="16.68" y2="6.292" gradientUnits="userSpaceOnUse"><stop stop-color="#3DCEED"/><stop offset="1" stop-color="#481BF7"/></linearGradient><linearGradient id="b" x1="17.382" y1="7.589" x2="3.603" y2="14.944" gradientUnits="userSpaceOnUse"><stop offset=".173" stop-color="#EB094A"/><stop offset=".675" stop-color="#CB19D2"/><stop offset=".89" stop-color="#534DF3"/><stop offset="1" stop-color="#4190F1"/></linearGradient></defs></svg>