<svg width="20" height="20" fill="none" xmlns="http://www.w3.org/2000/svg"><g clip-path="url(#a)"><path d="M10 20c5.523 0 10-4.477 10-10S15.523 0 10 0 0 4.477 0 10s4.477 10 10 10Z" fill="#000"/><path fill-rule="evenodd" clip-rule="evenodd" d="M9.066 15.602a.988.988 0 0 0 .887.538c.375 0 .713-.213.888-.525l4.6-8.65a.994.994 0 0 0-.025-.988 1.023 1.023 0 0 0-.863-.487h-9.2c-.362 0-.675.187-.862.487a.994.994 0 0 0-.025.988l4.6 8.637Zm.65-.337-4.6-8.65a.256.256 0 0 1 .012-.263c.013-.037.088-.125.225-.125h9.2c.138 0 .2.088.225.125a.256.256 0 0 1 .013.263l-4.6 8.65a.268.268 0 0 1-.238.137c-.05 0-.175-.012-.237-.137Zm.313-4.288c-.35 0-.587-.187-.65-.487h-.812c.043.557.426.968 1.087 1.073v.752h.7v-.75c.636-.092 1.063-.453 1.063-1.113 0-.625-.325-.975-1.188-1.212-.625-.175-.762-.288-.762-.538 0-.175.1-.4.475-.4.45 0 .525.263.562.425h.825c-.044-.458-.297-.907-1.025-1.013v-.65h-.687v.657c-.549.105-.975.472-.975 1.056 0 .55.287.9 1.262 1.188.538.15.688.287.688.575 0 .237-.138.437-.563.437Z" fill="#fff"/></g><defs><clipPath id="a"><path fill="#fff" d="M0 0h20v20H0z"/></clipPath></defs></svg>