<svg xmlns="http://www.w3.org/2000/svg" viewBox="0 0 1080 1080" style="enable-background:new 0 0 1080 1080" xml:space="preserve"><style>.st3{fill:#85b3cb}</style><circle cx="540" cy="540" r="531" style="fill:#fff" id="Layer_1"/><g id="Layer_3"><path style="fill:#206994" d="M434.7 260.3 224 446.9h210.7z"/><path style="fill:#367fac" d="M434.7 446.8 224 633.2h210.7z"/><path class="st3" d="M434.7 633.2 224 819.7h210.7zM434.7 819.7l210.6-186.5H434.7z"/><path style="fill:#488db4" d="m434.7 633.2 210.6-186.4H434.7z"/><path style="fill:#1b5f86" d="m434.7 446.8 210.6-186.5H434.7z"/><path style="fill:#2272a5" d="m224 633.4 210.7-186.5H224z"/><path style="fill:#ca4b06" d="M645.3 446.8 856 260.3H645.3z"/><path style="fill:#f8782f" d="M645.3 633.2 856 446.8H645.3z"/><path style="fill:#f6681c" d="M645.3 446.8 434.7 633.2h210.6z"/><path style="fill:#f8a77a" d="M645.3 633.2 434.7 819.7h210.6z"/><path style="fill:#fa965a" d="M645.3 819.7 856 633.2H645.3z"/><path style="fill:#f98748" d="M856 446.8 645.3 633.2H856z"/><path style="fill:#e15309" d="M645.3 260.3 434.7 446.8h210.6z"/></g></svg>