<svg width="20" height="20" fill="none" xmlns="http://www.w3.org/2000/svg"><g clip-path="url(#a)" fill-rule="evenodd" clip-rule="evenodd"><path d="M0 10c0 5.523 4.477 10 10 10s10-4.477 10-10S15.523 0 10 0 0 4.477 0 10Z" fill="#0C0C4F"/><path d="m5.59 7.644.246-.762a.498.498 0 0 1 .328-.324l.767-.236c.106-.032.107-.182.001-.216L6.17 5.86a.5.5 0 0 1-.323-.328l-.235-.766c-.033-.106-.182-.107-.217-.002l-.246.763a.5.5 0 0 1-.329.323l-.766.236a.113.113 0 0 0-.002.216l.763.247a.5.5 0 0 1 .323.328l.236.766a.113.113 0 0 0 .216.002Z" fill="#FAFAFA"/><path d="M17.702 7.2c-.316-.353-.81-.552-1.289-.633a4.427 4.427 0 0 0-1.466.013c-.966.164-1.842.563-2.607 1.056-.397.242-.736.522-1.087.807-.169.145-.323.298-.484.45l-.438.436c-.477.498-.947.952-1.401 1.328-.457.374-.883.659-1.304.857-.42.2-.87.317-1.456.336-.58.02-1.268-.084-2.003-.257-.74-.173-1.515-.418-2.383-.63.303.84.759 1.582 1.344 2.26.592.667 1.33 1.274 2.28 1.674a5.522 5.522 0 0 0 3.212.333c1.103-.212 2.07-.722 2.852-1.312a10.174 10.174 0 0 0 1.954-1.981c.147-.195.225-.304.332-.457l.296-.437c.205-.27.392-.579.595-.847.398-.561.79-1.122 1.247-1.639a6.96 6.96 0 0 1 .757-.753c.143-.118.297-.233.468-.337.173-.111.356-.199.58-.267Z" fill="url(#b)"/><path d="M17.703 7.2c-.34-.856-.97-1.577-1.817-2.11a4.468 4.468 0 0 0-3.17-.565 5.192 5.192 0 0 0-1.614.608 6.747 6.747 0 0 0-1.294.988c-.187.183-.358.374-.527.566l-.438.559-.678.9c-.863 1.158-1.793 2.514-3.318 2.916-1.498.395-2.148.046-3.062-.099.167.432.374.85.655 1.22.276.376.6.729 1.005 1.032.205.145.42.289.66.41.239.118.496.222.77.3.547.15 1.162.202 1.758.121a5.284 5.284 0 0 0 1.663-.519c.501-.248.938-.55 1.328-.87a10.638 10.638 0 0 0 1.888-2.075c.257-.36.49-.726.704-1.092l.254-.436c.077-.128.155-.256.235-.376.32-.48.634-.865 1.016-1.154.376-.296.899-.515 1.598-.566.697-.051 1.5.044 2.384.242Z" fill="#FAFAFA"/><path d="M13.935 14.316a1.14 1.14 0 1 0 2.278 0 1.14 1.14 0 0 0-2.278 0Z" fill="#EC796B"/></g><defs><linearGradient id="b" x1="17.617" y1="6.9" x2="-8.397" y2="20.434" gradientUnits="userSpaceOnUse"><stop stop-color="#EC796B"/><stop offset="1" stop-color="#D672EF"/></linearGradient><clipPath id="a"><path fill="#fff" d="M0 0h20v20H0z"/></clipPath></defs></svg>