<svg width="20" height="20" fill="none" xmlns="http://www.w3.org/2000/svg"><path fill="#192233" d="M0 0h20v20H0z"/><path fill-rule="evenodd" clip-rule="evenodd" d="M9.075 15.2v2.45a.1.1 0 0 0 .2 0V15.2h-.2Z" fill="url(#a)"/><path d="M9.275 12.2h-.2v3h.2v-3Z" fill="url(#b)"/><path d="M9.275 9.2h-.2v3h.2v-3Z" fill="url(#c)"/><path d="M7.925 4.925a.1.1 0 1 0-.2 0v2.321a.3.3 0 0 0 .127.246l1.18.83a.1.1 0 0 1 .043.082V9.2h.2v-.796a.3.3 0 0 0-.128-.246l-1.18-.83a.1.1 0 0 1-.042-.082V4.925Z" fill="url(#d)"/><path d="M8.2 17.75a.1.1 0 0 0 .1-.1V16.6h-.2v1.05a.1.1 0 0 0 .1.1Z" fill="url(#e)"/><path d="m4.323 10.72 2.327 1.362v-.232l-2.226-1.303a.1.1 0 0 1-.05-.087v-.21h-.2v.21a.3.3 0 0 0 .15.26Z" fill="url(#f)"/><path d="m6.792 13.319 1.308.812v-.236l-1.202-.746a.1.1 0 0 1-.048-.085V12.2h-.2v.864a.3.3 0 0 0 .142.255Z" fill="url(#g)"/><path d="M8.3 14.2h-.2v2.4h.2v-2.4Z" fill="url(#h)"/><path d="M8.1 11.25v2.95h.2v-2.95h-.2Z" fill="url(#i)"/><path d="M6.85 9.243V9.2h-.2v3h.2V9.243Z" fill="url(#j)"/><path d="M8.152 9.78 6.85 9.01V9.244l1.2.71a.1.1 0 0 1 .05.086v1.211h.2v-1.21a.3.3 0 0 0-.148-.26Z" fill="url(#k)"/><path d="M5.425 6.65a.1.1 0 1 0-.2 0v1.46a.3.3 0 0 0 .147.26l1.278.755v-.233l-1.176-.695a.1.1 0 0 1-.05-.086V6.65Z" fill="url(#l)"/><path d="M4.275 8.725a.1.1 0 0 0-.1.1v1.425h.2V8.825a.1.1 0 0 0-.1-.1Z" fill="url(#m)"/><path d="M6.65 7.375V9.2h.2V7.375a.1.1 0 1 0-.2 0Z" fill="url(#n)"/><path fill-rule="evenodd" clip-rule="evenodd" d="M10.3 17.65V13.6h-.2v4.05a.1.1 0 0 0 .2 0Z" fill="url(#o)"/><path d="M10.1 10.65h.2v2.95h-.2v-2.95Z" fill="url(#p)"/><path d="M11.45 5.85a.1.1 0 0 1 .2 0v2.421a.3.3 0 0 1-.127.246l-1.18.83a.1.1 0 0 0-.043.082v1.221h-.2V9.429a.3.3 0 0 1 .128-.246l1.18-.83a.1.1 0 0 0 .042-.082V5.85Z" fill="url(#q)"/><path d="M11.2 17.75a.1.1 0 0 1-.1-.1V16.6h.2v1.05a.1.1 0 0 1-.1.1Z" fill="url(#r)"/><path d="m15.001 10.744-2.3 1.338v-.23l2.2-1.28a.1.1 0 0 0 .05-.087v-.235h.2v.235a.3.3 0 0 1-.15.26Z" fill="url(#s)"/><path d="m12.562 13.318-1.262.812v-.238l1.154-.742a.1.1 0 0 0 .046-.084V12.2h.2v.866a.3.3 0 0 1-.138.252Z" fill="url(#t)"/><path d="M11.1 14.2h.2v2.4h-.2v-2.4Z" fill="url(#u)"/><path d="M11.3 12.2v2h-.2v-2h.2Z" fill="url(#v)"/><path d="M12.7 10.65V12.2h-.2v-1.55h.2Z" fill="url(#w)"/><path d="m11.248 11.08 1.252-.735v.232l-1.15.676a.1.1 0 0 0-.05.086v.861h-.2v-.86a.3.3 0 0 1 .148-.26Z" fill="url(#x)"/><path d="M13.95 7.15a.1.1 0 0 1 .2 0v2.286a.3.3 0 0 1-.148.258l-1.302.765v-.232l1.201-.705a.1.1 0 0 0 .05-.086V7.15Z" fill="url(#y)"/><path d="M12.7 9.35v1.3h-.2v-1.3a.1.1 0 0 1 .2 0Z" fill="url(#z)"/><path d="M15.05 8.725a.1.1 0 0 1 .1.1v1.425h-.2V8.825a.1.1 0 0 1 .1-.1Z" fill="url(#A)"/><path fill-rule="evenodd" clip-rule="evenodd" d="M9.675 4.35a.1.1 0 0 1 .1.1v3.025a.1.1 0 0 1-.2 0V4.45a.1.1 0 0 1 .1-.1Z" fill="url(#B)"/><g filter="url(#C)"><circle cx="4.25" cy="8.4" r=".45" fill="#C9E1FF"/></g><g filter="url(#D)"><circle cx="5.3" cy="6.25" r=".45" fill="#C9E1FF"/></g><g filter="url(#E)"><circle cx="6.75" cy="7" r=".45" fill="#C9E1FF"/></g><g filter="url(#F)"><circle cx="7.85" cy="4.5" r=".45" fill="#C9E1FF"/></g><g filter="url(#G)"><circle cx="9.65" cy="4.05" r=".45" fill="#C9E1FF"/></g><g filter="url(#H)"><circle cx="11.55" cy="5.4" r=".45" fill="#C9E1FF"/></g><g filter="url(#I)"><circle cx="14.05" cy="6.75" r=".45" fill="#C9E1FF"/></g><g filter="url(#J)"><circle cx="12.6" cy="8.9" r=".45" fill="#C9E1FF"/></g><g filter="url(#K)"><circle cx="15.05" cy="8.45" r=".45" fill="#C9E1FF"/></g><defs><linearGradient id="j" x1="6.75" y1="9.2" x2="6.75" y2="12.2" gradientUnits="userSpaceOnUse"><stop stop-color="#2B66BC" stop-opacity=".5"/><stop offset="1" stop-color="#8EA6D6"/></linearGradient><linearGradient id="B" x1="9.675" y1="4.35" x2="9.675" y2="7.575" gradientUnits="userSpaceOnUse"><stop stop-color="#2B66BC" stop-opacity=".5"/><stop offset="1" stop-color="#8EA6D6"/></linearGradient><linearGradient id="A" x1="15.05" y1="8.725" x2="15.05" y2="10.25" gradientUnits="userSpaceOnUse"><stop stop-color="#2B66BC" stop-opacity=".5"/><stop offset="1" stop-color="#8EA6D6"/></linearGradient><linearGradient id="z" x1="12.6" y1="9.25" x2="12.6" y2="10.65" gradientUnits="userSpaceOnUse"><stop stop-color="#2B66BC" stop-opacity=".5"/><stop offset="1" stop-color="#8EA6D6"/></linearGradient><linearGradient id="y" x1="12.625" y1="7.05" x2="12.625" y2="12.2" gradientUnits="userSpaceOnUse"><stop stop-color="#2B66BC" stop-opacity=".5"/><stop offset="1" stop-color="#8EA6D6"/></linearGradient><linearGradient id="x" x1="12.625" y1="7.05" x2="12.625" y2="12.2" gradientUnits="userSpaceOnUse"><stop stop-color="#2B66BC" stop-opacity=".5"/><stop offset="1" stop-color="#8EA6D6"/></linearGradient><linearGradient id="w" x1="12.6" y1="10.65" x2="12.6" y2="12.2" gradientUnits="userSpaceOnUse"><stop stop-color="#2B66BC" stop-opacity=".5"/><stop offset="1" stop-color="#8EA6D6"/></linearGradient><linearGradient id="v" x1="11.2" y1="12.2" x2="11.2" y2="14.2" gradientUnits="userSpaceOnUse"><stop stop-color="#2B66BC" stop-opacity=".5"/><stop offset="1" stop-color="#8EA6D6"/></linearGradient><linearGradient id="u" x1="11.2" y1="14.2" x2="11.2" y2="16.6" gradientUnits="userSpaceOnUse"><stop stop-color="#2B66BC" stop-opacity=".5"/><stop offset="1" stop-color="#8EA6D6"/></linearGradient><linearGradient id="a" x1="8.5" y1="15.175" x2="8.5" y2="17.75" gradientUnits="userSpaceOnUse"><stop stop-color="#2B66BC" stop-opacity=".5"/><stop offset="1" stop-color="#8EA6D6"/></linearGradient><linearGradient id="b" x1="9.175" y1="12.2" x2="9.175" y2="15.2" gradientUnits="userSpaceOnUse"><stop stop-color="#2B66BC" stop-opacity=".5"/><stop offset="1" stop-color="#8EA6D6"/></linearGradient><linearGradient id="c" x1="9.175" y1="9.2" x2="9.175" y2="12.2" gradientUnits="userSpaceOnUse"><stop stop-color="#2B66BC" stop-opacity=".5"/><stop offset="1" stop-color="#8EA6D6"/></linearGradient><linearGradient id="d" x1="8.5" y1="4.825" x2="8.5" y2="9.2" gradientUnits="userSpaceOnUse"><stop stop-color="#2B66BC" stop-opacity=".5"/><stop offset="1" stop-color="#8EA6D6"/></linearGradient><linearGradient id="e" x1="8.2" y1="17.75" x2="7.897" y2="17.664" gradientUnits="userSpaceOnUse"><stop stop-color="#348BED"/><stop offset="1" stop-color="#2D59BC" stop-opacity=".4"/></linearGradient><linearGradient id="f" x1="6.65" y1="12.1" x2="4.2" y2="10.475" gradientUnits="userSpaceOnUse"><stop stop-color="#348BED"/><stop offset="1" stop-color="#2D59BC" stop-opacity=".4"/></linearGradient><linearGradient id="g" x1="8.1" y1="14.149" x2="6.281" y2="13.478" gradientUnits="userSpaceOnUse"><stop stop-color="#348BED"/><stop offset="1" stop-color="#2D59BC" stop-opacity=".4"/></linearGradient><linearGradient id="h" x1="8.2" y1="14.2" x2="8.2" y2="16.6" gradientUnits="userSpaceOnUse"><stop stop-color="#2B66BC" stop-opacity=".5"/><stop offset="1" stop-color="#8EA6D6"/></linearGradient><linearGradient id="i" x1="8.2" y1="11.25" x2="8.2" y2="14.2" gradientUnits="userSpaceOnUse"><stop stop-color="#2B66BC" stop-opacity=".5"/><stop offset="1" stop-color="#8EA6D6"/></linearGradient><linearGradient id="t" x1="11.3" y1="14.148" x2="13.071" y2="13.517" gradientUnits="userSpaceOnUse"><stop stop-color="#348BED"/><stop offset="1" stop-color="#2D59BC" stop-opacity=".4"/></linearGradient><linearGradient id="k" x1="6.762" y1="6.55" x2="6.762" y2="11.25" gradientUnits="userSpaceOnUse"><stop stop-color="#2B66BC" stop-opacity=".5"/><stop offset="1" stop-color="#8EA6D6"/></linearGradient><linearGradient id="l" x1="6.762" y1="6.55" x2="6.762" y2="11.25" gradientUnits="userSpaceOnUse"><stop stop-color="#2B66BC" stop-opacity=".5"/><stop offset="1" stop-color="#8EA6D6"/></linearGradient><linearGradient id="m" x1="4.275" y1="8.725" x2="4.275" y2="10.25" gradientUnits="userSpaceOnUse"><stop stop-color="#2B66BC" stop-opacity=".5"/><stop offset="1" stop-color="#8EA6D6"/></linearGradient><linearGradient id="n" x1="6.75" y1="7.275" x2="6.75" y2="9.2" gradientUnits="userSpaceOnUse"><stop stop-color="#2B66BC" stop-opacity=".5"/><stop offset="1" stop-color="#8EA6D6"/></linearGradient><linearGradient id="o" x1="10.875" y1="13.625" x2="10.875" y2="17.75" gradientUnits="userSpaceOnUse"><stop stop-color="#2B66BC" stop-opacity=".5"/><stop offset="1" stop-color="#8EA6D6"/></linearGradient><linearGradient id="p" x1="10.2" y1="10.65" x2="10.2" y2="13.6" gradientUnits="userSpaceOnUse"><stop stop-color="#2B66BC" stop-opacity=".5"/><stop offset="1" stop-color="#8EA6D6"/></linearGradient><linearGradient id="q" x1="10.875" y1="5.75" x2="10.875" y2="10.65" gradientUnits="userSpaceOnUse"><stop stop-color="#2B66BC" stop-opacity=".5"/><stop offset="1" stop-color="#8EA6D6"/></linearGradient><linearGradient id="r" x1="11.2" y1="17.75" x2="11.502" y2="17.664" gradientUnits="userSpaceOnUse"><stop stop-color="#348BED"/><stop offset="1" stop-color="#2D59BC" stop-opacity=".4"/></linearGradient><linearGradient id="s" x1="12.7" y1="12.1" x2="15.141" y2="10.498" gradientUnits="userSpaceOnUse"><stop stop-color="#348BED"/><stop offset="1" stop-color="#2D59BC" stop-opacity=".4"/></linearGradient><filter id="D" x="4.25" y="5.2" width="2.1" height="2.1" filterUnits="userSpaceOnUse" color-interpolation-filters="sRGB"><feFlood flood-opacity="0" result="BackgroundImageFix"/><feColorMatrix in="SourceAlpha" values="0 0 0 0 0 0 0 0 0 0 0 0 0 0 0 0 0 0 127 0" result="hardAlpha"/><feOffset/><feGaussianBlur stdDeviation=".3"/><feComposite in2="hardAlpha" operator="out"/><feColorMatrix values="0 0 0 0 0.14902 0 0 0 0 0.47451 0 0 0 0 0.87451 0 0 0 1 0"/><feBlend in2="BackgroundImageFix" result="effect1_dropShadow_4260_56234"/><feBlend in="SourceGraphic" in2="effect1_dropShadow_4260_56234" result="shape"/></filter><filter id="K" x="14" y="7.4" width="2.1" height="2.1" filterUnits="userSpaceOnUse" color-interpolation-filters="sRGB"><feFlood flood-opacity="0" result="BackgroundImageFix"/><feColorMatrix in="SourceAlpha" values="0 0 0 0 0 0 0 0 0 0 0 0 0 0 0 0 0 0 127 0" result="hardAlpha"/><feOffset/><feGaussianBlur stdDeviation=".3"/><feComposite in2="hardAlpha" operator="out"/><feColorMatrix values="0 0 0 0 0.14902 0 0 0 0 0.47451 0 0 0 0 0.87451 0 0 0 1 0"/><feBlend in2="BackgroundImageFix" result="effect1_dropShadow_4260_56234"/><feBlend in="SourceGraphic" in2="effect1_dropShadow_4260_56234" result="shape"/></filter><filter id="J" x="11.55" y="7.85" width="2.1" height="2.1" filterUnits="userSpaceOnUse" color-interpolation-filters="sRGB"><feFlood flood-opacity="0" result="BackgroundImageFix"/><feColorMatrix in="SourceAlpha" values="0 0 0 0 0 0 0 0 0 0 0 0 0 0 0 0 0 0 127 0" result="hardAlpha"/><feOffset/><feGaussianBlur stdDeviation=".3"/><feComposite in2="hardAlpha" operator="out"/><feColorMatrix values="0 0 0 0 0.14902 0 0 0 0 0.47451 0 0 0 0 0.87451 0 0 0 1 0"/><feBlend in2="BackgroundImageFix" result="effect1_dropShadow_4260_56234"/><feBlend in="SourceGraphic" in2="effect1_dropShadow_4260_56234" result="shape"/></filter><filter id="I" x="13" y="5.7" width="2.1" height="2.1" filterUnits="userSpaceOnUse" color-interpolation-filters="sRGB"><feFlood flood-opacity="0" result="BackgroundImageFix"/><feColorMatrix in="SourceAlpha" values="0 0 0 0 0 0 0 0 0 0 0 0 0 0 0 0 0 0 127 0" result="hardAlpha"/><feOffset/><feGaussianBlur stdDeviation=".3"/><feComposite in2="hardAlpha" operator="out"/><feColorMatrix values="0 0 0 0 0.14902 0 0 0 0 0.47451 0 0 0 0 0.87451 0 0 0 1 0"/><feBlend in2="BackgroundImageFix" result="effect1_dropShadow_4260_56234"/><feBlend in="SourceGraphic" in2="effect1_dropShadow_4260_56234" result="shape"/></filter><filter id="H" x="10.5" y="4.35" width="2.1" height="2.1" filterUnits="userSpaceOnUse" color-interpolation-filters="sRGB"><feFlood flood-opacity="0" result="BackgroundImageFix"/><feColorMatrix in="SourceAlpha" values="0 0 0 0 0 0 0 0 0 0 0 0 0 0 0 0 0 0 127 0" result="hardAlpha"/><feOffset/><feGaussianBlur stdDeviation=".3"/><feComposite in2="hardAlpha" operator="out"/><feColorMatrix values="0 0 0 0 0.14902 0 0 0 0 0.47451 0 0 0 0 0.87451 0 0 0 1 0"/><feBlend in2="BackgroundImageFix" result="effect1_dropShadow_4260_56234"/><feBlend in="SourceGraphic" in2="effect1_dropShadow_4260_56234" result="shape"/></filter><filter id="G" x="8.6" y="3" width="2.1" height="2.1" filterUnits="userSpaceOnUse" color-interpolation-filters="sRGB"><feFlood flood-opacity="0" result="BackgroundImageFix"/><feColorMatrix in="SourceAlpha" values="0 0 0 0 0 0 0 0 0 0 0 0 0 0 0 0 0 0 127 0" result="hardAlpha"/><feOffset/><feGaussianBlur stdDeviation=".3"/><feComposite in2="hardAlpha" operator="out"/><feColorMatrix values="0 0 0 0 0.14902 0 0 0 0 0.47451 0 0 0 0 0.87451 0 0 0 1 0"/><feBlend in2="BackgroundImageFix" result="effect1_dropShadow_4260_56234"/><feBlend in="SourceGraphic" in2="effect1_dropShadow_4260_56234" result="shape"/></filter><filter id="F" x="6.8" y="3.45" width="2.1" height="2.1" filterUnits="userSpaceOnUse" color-interpolation-filters="sRGB"><feFlood flood-opacity="0" result="BackgroundImageFix"/><feColorMatrix in="SourceAlpha" values="0 0 0 0 0 0 0 0 0 0 0 0 0 0 0 0 0 0 127 0" result="hardAlpha"/><feOffset/><feGaussianBlur stdDeviation=".3"/><feComposite in2="hardAlpha" operator="out"/><feColorMatrix values="0 0 0 0 0.14902 0 0 0 0 0.47451 0 0 0 0 0.87451 0 0 0 1 0"/><feBlend in2="BackgroundImageFix" result="effect1_dropShadow_4260_56234"/><feBlend in="SourceGraphic" in2="effect1_dropShadow_4260_56234" result="shape"/></filter><filter id="E" x="5.7" y="5.95" width="2.1" height="2.1" filterUnits="userSpaceOnUse" color-interpolation-filters="sRGB"><feFlood flood-opacity="0" result="BackgroundImageFix"/><feColorMatrix in="SourceAlpha" values="0 0 0 0 0 0 0 0 0 0 0 0 0 0 0 0 0 0 127 0" result="hardAlpha"/><feOffset/><feGaussianBlur stdDeviation=".3"/><feComposite in2="hardAlpha" operator="out"/><feColorMatrix values="0 0 0 0 0.14902 0 0 0 0 0.47451 0 0 0 0 0.87451 0 0 0 1 0"/><feBlend in2="BackgroundImageFix" result="effect1_dropShadow_4260_56234"/><feBlend in="SourceGraphic" in2="effect1_dropShadow_4260_56234" result="shape"/></filter><filter id="C" x="3.2" y="7.35" width="2.1" height="2.1" filterUnits="userSpaceOnUse" color-interpolation-filters="sRGB"><feFlood flood-opacity="0" result="BackgroundImageFix"/><feColorMatrix in="SourceAlpha" values="0 0 0 0 0 0 0 0 0 0 0 0 0 0 0 0 0 0 127 0" result="hardAlpha"/><feOffset/><feGaussianBlur stdDeviation=".3"/><feComposite in2="hardAlpha" operator="out"/><feColorMatrix values="0 0 0 0 0.14902 0 0 0 0 0.47451 0 0 0 0 0.87451 0 0 0 1 0"/><feBlend in2="BackgroundImageFix" result="effect1_dropShadow_4260_56234"/><feBlend in="SourceGraphic" in2="effect1_dropShadow_4260_56234" result="shape"/></filter></defs></svg>