<svg xmlns="http://www.w3.org/2000/svg" width="20" height="20" fill="none"><g clip-path="url(#a)"><path d="M.025 9.288a10 10 0 0 1 19.95 0h-1.093a8.91 8.91 0 0 0-17.764 0H.025Zm6.236 8.8a8.915 8.915 0 0 1-5.143-7.376H.025a10.005 10.005 0 0 0 5.858 8.403l.378-1.026Zm12.62-7.376A8.91 8.91 0 0 1 7.598 18.58l-.379 1.027a10.008 10.008 0 0 0 12.756-8.895h-1.092Z" fill="#14A7D7"/><path d="M10 18.44a8.44 8.44 0 1 0 0-16.88 8.44 8.44 0 0 0 0 16.88Z" fill="url(#b)"/><path opacity=".9" d="m18.438 9.763-2.076 1.219a.333.333 0 0 0-.46-.023l-2.788-1.653 2.851-1.731a.326.326 0 0 0 .323-.008l2.069 1.238a8.973 8.973 0 0 0-.038-.24l-1.9-1.137a.333.333 0 0 0-.06-.39.337.337 0 0 0-.532.402l-2.895 1.758-1.204-.714a.288.288 0 0 0-.01-.151l1.427-.841a.664.664 0 0 0 1.142-.673l2.683-1.58a8.625 8.625 0 0 0-.08-.116L14.212 6.7a.665.665 0 0 0-1.134.667l-1.43.843a.335.335 0 0 0-.113-.085V6.822L14.41 5.19a.336.336 0 1 0 .306-.58V2.998a7.76 7.76 0 0 0-.186-.122v1.732a.33.33 0 0 0-.225.426l-2.77 1.572V3.252a.336.336 0 0 0 .199-.307l-.001-.009 1.439-.76a8.956 8.956 0 0 0-.23-.09l-1.267.67a.337.337 0 1 0-.326.521v3.436l-1.162.66a.336.336 0 0 0-.142-.081V5.637a.663.663 0 0 0 0-1.314V1.56H10l-.142.001v2.762a.664.664 0 0 0 0 1.314v1.655a.335.335 0 0 0-.141.08l-1.162-.659V3.277a.336.336 0 1 0-.327-.521l-1.226-.648a8.5 8.5 0 0 0-.228.09l1.397.738-.001.01a.336.336 0 0 0 .198.306v3.355l-2.77-1.572a.33.33 0 0 0-.225-.426V2.94a8.46 8.46 0 0 0-.186.126V4.61a.336.336 0 1 0 .306.581l2.875 1.632v1.304a.337.337 0 0 0-.132.107l-1.43-.824a.664.664 0 0 0-1.149-.661L3.032 5.236l-.041.06-.034.059 2.636 1.517a.664.664 0 0 0 1.138.656l1.447.833a.294.294 0 0 0-.003.123l-1.204.714L4.077 7.44a.333.333 0 0 0-.293-.5.337.337 0 0 0-.298.49l-1.8 1.11-.039.243 1.971-1.215a.325.325 0 0 0 .32.007L6.79 9.306l-2.788 1.653a.332.332 0 0 0-.467.032L1.56 9.93V10l.001.141 1.892 1.017a.336.336 0 1 0 .651-.044l2.866-1.7.239.146.096-.16-.153-.093 1.102-.654a.333.333 0 0 0 .479.027l1.07.617-3.046 1.794a.664.664 0 0 0-1.141.673l-3.222 1.898c.01.023.023.046.034.07l.032.053 3.23-1.903a.664.664 0 0 0 1.135-.668l3.033-1.787v.98h.187v-.972l7.513 4.327.061-.126-7.537-4.34 1.072-.632a.335.335 0 0 0 .495-.011l1.103.654-.154.093.097.16.239-.145 2.865 1.7a.333.333 0 0 0 .013.235.334.334 0 0 0 .342.198.337.337 0 0 0 .296-.402l1.99-1.17a8.99 8.99 0 0 0-.002-.214Zm-8.58-.596-1.043-.6a.335.335 0 0 0-.26-.466V6.928l1.07.607a.331.331 0 0 0 .233.4v1.232Zm1.49-1.066a.331.331 0 0 0-.267.444l-1.036.61v-1.22a.331.331 0 0 0 .233-.4l1.07-.607V8.1Zm3.041 9.11-.182.109-3.427-2.06.096-.16 3.513 2.112Zm-2.62-5.058 2.972 1.449v3.383a8.977 8.977 0 0 1-.187.123v-3.39l-2.867-1.398.082-.167ZM9.124 15.26l-3.379 2.03a7.88 7.88 0 0 1-.181-.11l3.464-2.08.096.16Zm-3.961 1.656v-2.935a.336.336 0 1 1 .342-.547l2.63-1.282.081.167-2.63 1.282a.33.33 0 0 1-.237.38v3.062a8.59 8.59 0 0 1-.186-.127Z" fill="url(#c)"/><path d="M14.823 10.777a1.148 1.148 0 0 0-.991-.724l-.118-.098c-.056-.788-.607-1.125-1.208-.845-.523.178-.462.093-.763-.087a.976.976 0 0 0-.733.01 5.294 5.294 0 0 0-.727.43c-.122.068-.338.312-.461.277-.065-.02-.097-.235-.1-.363A18.9 18.9 0 0 1 9.73 8.26a23.024 23.024 0 0 1-.043-3.962.686.686 0 0 0-.437-.753.581.581 0 0 0-.747.17 1.43 1.43 0 0 0-.265 1c-.063 1.38-.124 2.762-.205 4.141-.019.312.026.711-.36.842-.365.123-.617-.163-.83-.403-.545-.617-1.067-1.253-1.597-1.883-.16-.19-.298-.401-.474-.574a.6.6 0 0 0-.803-.11.568.568 0 0 0-.087.799c.197.316.414.62.649.909a8.127 8.127 0 0 1 1.66 3.169c.17.674.071 2.09.269 2.895a8.082 8.082 0 0 0 2.133 3.824 8.49 8.49 0 0 0 3.397-.119l.008-.01a11.83 11.83 0 0 1 1.332-1.66 14.027 14.027 0 0 0 2.014-2.351 3.006 3.006 0 0 0-.08-1.717c-.204-.482-.289-1.251-.44-1.69Z" fill="url(#d)"/><path d="M14.823 10.777a1.148 1.148 0 0 0-.991-.724l-.118-.098c-.056-.788-.607-1.125-1.208-.845-.523.178-.462.093-.763-.087a.976.976 0 0 0-.733.01 5.294 5.294 0 0 0-.727.43c-.122.068-.338.312-.461.277-.065-.02-.097-.235-.1-.363A18.9 18.9 0 0 1 9.73 8.26a23.024 23.024 0 0 1-.043-3.962.686.686 0 0 0-.437-.753.581.581 0 0 0-.747.17 1.43 1.43 0 0 0-.265 1c-.063 1.38-.124 2.762-.205 4.141-.019.312.026.711-.36.842-.365.123-.617-.163-.83-.403-.545-.617-1.067-1.253-1.597-1.883-.16-.19-.298-.401-.474-.574a.6.6 0 0 0-.803-.11.568.568 0 0 0-.087.799c.197.316.414.62.649.909a8.127 8.127 0 0 1 1.66 3.169c.17.674.071 2.09.269 2.895a8.082 8.082 0 0 0 2.133 3.824 8.49 8.49 0 0 0 3.397-.119l.008-.01a11.83 11.83 0 0 1 1.332-1.66 14.027 14.027 0 0 0 2.014-2.351 3.006 3.006 0 0 0-.08-1.717c-.204-.482-.289-1.251-.44-1.69Z" fill="url(#e)"/><path d="M9.719 9.17a20.17 20.17 0 0 1 .011-.91 23.023 23.023 0 0 1-.043-3.963.686.686 0 0 0-.436-.753.581.581 0 0 0-.747.17 1.43 1.43 0 0 0-.265 1c-.064 1.38-.124 2.762-.206 4.141.003.176-.015.352-.053.523.603.01 1.265.161 1.739-.208Z" fill="url(#f)"/><path d="M7.186 9.622a1.887 1.887 0 0 1-.343-.328C6.298 8.677 5.776 8.04 5.246 7.41c-.16-.19-.298-.401-.474-.574a.6.6 0 0 0-.803-.11.568.568 0 0 0-.087.799c.197.316.414.62.649.909a8.167 8.167 0 0 1 1.642 3.099c.249-.235.519-.446.807-.631a.755.755 0 0 0 .206-1.281Z" fill="url(#g)"/><path d="M15.264 12.466c-.204-.482-.288-1.251-.44-1.69a1.148 1.148 0 0 0-.992-.723l-.117-.098c-.056-.788-.607-1.125-1.208-.845-.524.178-.462.093-.763-.087a.976.976 0 0 0-.733.01 5.294 5.294 0 0 0-.728.43c-.12.068-.395.387-.46.277-.349-.588-2.945 1.14-3.65 1.794l.02.07c.17.674.07 2.09.267 2.895a8.082 8.082 0 0 0 2.133 3.824 8.49 8.49 0 0 0 3.398-.119l.008-.01c.393-.592.839-1.148 1.332-1.66a14.03 14.03 0 0 0 2.014-2.351 3.007 3.007 0 0 0-.08-1.716Z" fill="url(#h)"/><path d="M15.264 12.466c-.204-.482-.288-1.251-.44-1.69a1.148 1.148 0 0 0-.992-.723l-.117-.098c-.056-.788-.607-1.125-1.208-.845-.524.178-.462.093-.763-.087a.976.976 0 0 0-.733.01 5.294 5.294 0 0 0-.728.43c-.12.068-.395.387-.46.277-.349-.588-2.945 1.14-3.65 1.794l.02.07c.17.674.07 2.09.267 2.895a8.082 8.082 0 0 0 2.133 3.824 8.49 8.49 0 0 0 3.398-.119l.008-.01c.393-.592.839-1.148 1.332-1.66a14.03 14.03 0 0 0 2.014-2.351 3.007 3.007 0 0 0-.08-1.716Z" fill="url(#i)"/><path d="M15.264 12.466c-.204-.482-.288-1.251-.44-1.69a1.148 1.148 0 0 0-.992-.723l-.117-.098c-.056-.788-.607-1.125-1.208-.845-.524.178-.462.093-.763-.087a.976.976 0 0 0-.733.01 5.294 5.294 0 0 0-.728.43c-.12.068-.395.387-.46.277-.349-.588-2.945 1.14-3.65 1.794l.02.07c.17.674.07 2.09.267 2.895a8.082 8.082 0 0 0 2.133 3.824 8.49 8.49 0 0 0 3.398-.119l.008-.01c.393-.592.839-1.148 1.332-1.66a14.03 14.03 0 0 0 2.014-2.351 3.007 3.007 0 0 0-.08-1.716Z" fill="url(#j)"/><path d="M15.264 12.466c-.204-.482-.288-1.251-.44-1.69a1.148 1.148 0 0 0-.992-.723l-.117-.098c-.056-.788-.607-1.125-1.208-.845-.524.178-.462.093-.763-.087a.976.976 0 0 0-.733.01 5.294 5.294 0 0 0-.728.43c-.12.068-.395.387-.46.277-.349-.588-2.945 1.14-3.65 1.794l.02.07c.17.674.07 2.09.267 2.895a8.082 8.082 0 0 0 2.133 3.824 8.49 8.49 0 0 0 3.398-.119l.008-.01c.393-.592.839-1.148 1.332-1.66a14.03 14.03 0 0 0 2.014-2.351 3.007 3.007 0 0 0-.08-1.716Z" fill="url(#k)"/><path d="M14.823 10.777a1.148 1.148 0 0 0-.991-.724l-.118-.098c-.056-.788-.607-1.125-1.208-.845-.523.178-.462.093-.763-.087a.976.976 0 0 0-.733.01 5.294 5.294 0 0 0-.727.43c-.122.068-.338.312-.461.277-.065-.02-.097-.235-.1-.363A18.9 18.9 0 0 1 9.73 8.26a23.024 23.024 0 0 1-.043-3.962.686.686 0 0 0-.437-.753.581.581 0 0 0-.747.17 1.43 1.43 0 0 0-.265 1c-.063 1.38-.124 2.762-.205 4.141-.019.312.026.711-.36.842-.365.123-.617-.163-.83-.403-.545-.617-1.067-1.253-1.597-1.883-.16-.19-.298-.401-.474-.574a.6.6 0 0 0-.803-.11.568.568 0 0 0-.087.799c.197.316.414.62.649.909a8.127 8.127 0 0 1 1.66 3.169c.17.674.071 2.09.269 2.895a8.082 8.082 0 0 0 2.133 3.824 8.49 8.49 0 0 0 3.397-.119l.008-.01a11.83 11.83 0 0 1 1.332-1.66 14.027 14.027 0 0 0 2.014-2.351 3.006 3.006 0 0 0-.08-1.717c-.204-.482-.289-1.251-.44-1.69Z" fill="url(#l)"/><path d="M14.823 10.777a1.148 1.148 0 0 0-.991-.724l-.118-.098c-.056-.788-.607-1.125-1.208-.845-.523.178-.462.093-.763-.087a.976.976 0 0 0-.733.01 5.294 5.294 0 0 0-.727.43c-.122.068-.338.312-.461.277-.065-.02-.097-.235-.1-.363A18.9 18.9 0 0 1 9.73 8.26a23.024 23.024 0 0 1-.043-3.962.686.686 0 0 0-.437-.753.581.581 0 0 0-.747.17 1.43 1.43 0 0 0-.265 1c-.063 1.38-.124 2.762-.205 4.141-.019.312.026.711-.36.842-.365.123-.617-.163-.83-.403-.545-.617-1.067-1.253-1.597-1.883-.16-.19-.298-.401-.474-.574a.6.6 0 0 0-.803-.11.568.568 0 0 0-.087.799c.197.316.414.62.649.909a8.127 8.127 0 0 1 1.66 3.169c.17.674.071 2.09.269 2.895a8.082 8.082 0 0 0 2.133 3.824 8.49 8.49 0 0 0 3.397-.119l.008-.01a11.83 11.83 0 0 1 1.332-1.66 14.027 14.027 0 0 0 2.014-2.351 3.006 3.006 0 0 0-.08-1.717c-.204-.482-.289-1.251-.44-1.69Z" fill="url(#m)"/><path d="M13.536 9.956a5.976 5.976 0 0 1-1.3-.346.691.691 0 0 0-.699.076 1.04 1.04 0 0 0-.357.97 1.45 1.45 0 0 0 .837 1.073 2.23 2.23 0 0 0 .157 1.285c-.051.166-.328.96-.932.965a.544.544 0 0 1-.407-.147.71.71 0 0 1-.181-.476V9.864a.07.07 0 0 0-.119-.048.07.07 0 0 0-.021.048v.742l-.487-.342a.047.047 0 1 0-.054.076l.54.38v2.636a.839.839 0 0 0 .224.575.677.677 0 0 0 .497.188h.009c.628-.005.935-.69 1.036-.977.07.067.155.114.249.138a.825.825 0 0 0 .208.028.712.712 0 0 0 .383-.111.923.923 0 0 0 .162-.13l.433.531a.047.047 0 0 0 .05.016.048.048 0 0 0 .027-.023.046.046 0 0 0 .004-.036.045.045 0 0 0-.01-.016l-.44-.542c.19-.247.325-.533.397-.837h.006a.072.072 0 0 0 .075-.07.07.07 0 0 0-.07-.07h-.005c-.923 0-2.33-.437-2.429-1.378a.905.905 0 0 1 .301-.844.547.547 0 0 1 .56-.06c.429.169.875.288 1.33.355.65.12 1.118.205 1.16.626a.07.07 0 0 0 .103.054.068.068 0 0 0 .034-.041.069.069 0 0 0 .003-.027c-.054-.526-.592-.624-1.274-.75Zm-.491 3.122a.598.598 0 0 1-.482.067c-.514-.134-.444-1.08-.414-1.347.455.212.947.334 1.449.358-.077.36-.271.685-.553.922Z" fill="url(#n)"/></g><defs><radialGradient id="i" cx="0" cy="0" r="1" gradientUnits="userSpaceOnUse" gradientTransform="rotate(77.496 -1.284 13.01) scale(9.65908 7.51143)"><stop offset=".483" stop-color="#fff" stop-opacity="0"/><stop offset=".641" stop-color="#E7F1F7" stop-opacity="0"/><stop offset=".665" stop-color="#C9D6E1" stop-opacity=".145"/><stop offset=".749" stop-color="#69809B" stop-opacity=".607"/><stop offset=".813" stop-color="#2D4B70" stop-opacity=".893"/><stop offset=".851" stop-color="#173760"/><stop offset=".853" stop-color="#173760"/><stop offset="1" stop-color="#1A2C42"/></radialGradient><radialGradient id="d" cx="0" cy="0" r="1" gradientUnits="userSpaceOnUse" gradientTransform="matrix(6.71305 0 0 8.71945 9.942 10.42)"><stop stop-color="#fff"/><stop offset=".417" stop-color="#FCFEFF"/><stop offset=".752" stop-color="#F2FAFE"/><stop offset=".947" stop-color="#E8F6FD"/></radialGradient><radialGradient id="e" cx="0" cy="0" r="1" gradientUnits="userSpaceOnUse" gradientTransform="matrix(6.71305 0 0 8.71945 12.472 11.88)"><stop stop-color="#DAE2ED"/><stop offset=".73" stop-color="#E8F6FD" stop-opacity="0"/></radialGradient><radialGradient id="h" cx="0" cy="0" r="1" gradientUnits="userSpaceOnUse" gradientTransform="matrix(1.67452 7.55088 -5.67797 1.25917 11.587 12.178)"><stop offset=".483" stop-color="#fff" stop-opacity="0"/><stop offset=".641" stop-color="#E7F1F7" stop-opacity="0"/><stop offset=".673" stop-color="#E2EDF5" stop-opacity=".145"/><stop offset=".744" stop-color="#D5E4EE" stop-opacity=".515"/><stop offset=".83" stop-color="#C4D8E6"/></radialGradient><radialGradient id="j" cx="0" cy="0" r="1" gradientUnits="userSpaceOnUse" gradientTransform="rotate(125.678 2.105 12.137) scale(14.974 4.08926)"><stop offset=".191" stop-color="#1A2C42"/><stop offset=".227" stop-color="#3F4E61" stop-opacity=".837"/><stop offset=".345" stop-color="#A8AFB7" stop-opacity=".38"/><stop offset=".446" stop-color="#E8EAEC" stop-opacity=".1"/><stop offset=".517" stop-color="#fff" stop-opacity="0"/></radialGradient><radialGradient id="k" cx="0" cy="0" r="1" gradientUnits="userSpaceOnUse" gradientTransform="rotate(81.295 -.231 12.646) scale(10.3977 7.66138)"><stop offset=".758" stop-color="#8DADD4" stop-opacity="0"/><stop offset=".82" stop-color="#91C3FF" stop-opacity=".5"/><stop offset=".835" stop-color="#73A1D7" stop-opacity=".382"/><stop offset=".857" stop-color="#4A71A0" stop-opacity=".218"/><stop offset=".878" stop-color="#2C4F78" stop-opacity=".098"/><stop offset=".895" stop-color="#1A3A60" stop-opacity=".026"/><stop offset=".908" stop-color="#133257" stop-opacity="0"/></radialGradient><radialGradient id="l" cx="0" cy="0" r="1" gradientUnits="userSpaceOnUse" gradientTransform="rotate(-28.621 24.37 -11.148) scale(2.5939 1.30463)"><stop offset=".228" stop-color="#fff"/><stop offset=".325" stop-color="#fff" stop-opacity=".987"/><stop offset=".402" stop-color="#FEFFFF" stop-opacity=".948"/><stop offset=".473" stop-color="#FCFEFF" stop-opacity=".882"/><stop offset=".539" stop-color="#FAFDFF" stop-opacity=".788"/><stop offset=".604" stop-color="#F7FCFE" stop-opacity=".668"/><stop offset=".666" stop-color="#F4FBFE" stop-opacity=".519"/><stop offset=".726" stop-color="#F0F9FE" stop-opacity=".343"/><stop offset=".784" stop-color="#EBF7FD" stop-opacity=".145"/><stop offset=".821" stop-color="#E8F6FD" stop-opacity="0"/></radialGradient><radialGradient id="m" cx="0" cy="0" r="1" gradientUnits="userSpaceOnUse" gradientTransform="matrix(9.73348 -1.95772 2.55349 12.69555 9.99 6.175)"><stop offset=".19" stop-color="#E8F6FD" stop-opacity="0"/><stop offset=".339" stop-color="#E1F1FA" stop-opacity=".025"/><stop offset=".484" stop-color="#CBE1F1" stop-opacity=".1"/><stop offset=".627" stop-color="#A7C7E2" stop-opacity=".225"/><stop offset=".768" stop-color="#74A2CC" stop-opacity=".401"/><stop offset=".908" stop-color="#3374B1" stop-opacity=".624"/><stop offset="1" stop-color="#004F9C" stop-opacity=".8"/></radialGradient><radialGradient id="n" cx="0" cy="0" r="1" gradientUnits="userSpaceOnUse" gradientTransform="rotate(25.165 -17.578 32.727) scale(3.37119 6.83391)"><stop offset=".095" stop-color="#000009"/><stop offset=".231" stop-color="#03030C"/><stop offset=".34" stop-color="#0C0D16"/><stop offset=".44" stop-color="#1C1E27"/><stop offset=".534" stop-color="#33363F"/><stop offset=".625" stop-color="#50545E"/><stop offset=".713" stop-color="#747A83"/><stop offset=".796" stop-color="#9DA5AF"/><stop offset=".816" stop-color="#A8B1BB"/></radialGradient><linearGradient id="g" x1="4.296" y1="9.697" x2="7.066" y2="7.672" gradientUnits="userSpaceOnUse"><stop offset=".302" stop-color="#C4D8E6"/><stop offset=".323" stop-color="#C6D9E7" stop-opacity=".971"/><stop offset=".352" stop-color="#CADCE9" stop-opacity=".889"/><stop offset=".386" stop-color="#D1E1EC" stop-opacity=".755"/><stop offset=".425" stop-color="#DBE8F0" stop-opacity=".568"/><stop offset=".467" stop-color="#E8F1F6" stop-opacity=".328"/><stop offset=".511" stop-color="#F8FCFD" stop-opacity=".04"/><stop offset=".517" stop-color="#FAFDFE" stop-opacity="0"/></linearGradient><linearGradient id="b" x1="11.466" y1="18.314" x2="8.534" y2="1.686" gradientUnits="userSpaceOnUse"><stop stop-color="#275BB9"/><stop offset=".501" stop-color="#4DB5EB"/><stop offset=".55" stop-color="#5DBBEC"/><stop offset=".648" stop-color="#76C5EF"/><stop offset=".75" stop-color="#89CCF1"/><stop offset=".856" stop-color="#93D0F2"/><stop offset=".974" stop-color="#97D1F2"/></linearGradient><linearGradient id="c" x1="11.571" y1="18.601" x2="8.574" y2="1.604" gradientUnits="userSpaceOnUse"><stop stop-color="#07139C"/><stop offset=".329" stop-color="#002DC4"/><stop offset=".35" stop-color="#0033C6"/><stop offset=".575" stop-color="#0073DE"/><stop offset=".765" stop-color="#00A1F0"/><stop offset=".911" stop-color="#00BDFB"/><stop offset=".995" stop-color="#00C8FF"/></linearGradient><linearGradient id="f" x1="7.871" y1="6.444" x2="9.624" y2="6.444" gradientUnits="userSpaceOnUse"><stop offset=".483" stop-color="#FAFDFE" stop-opacity="0"/><stop offset=".776" stop-color="#E9F6FD"/></linearGradient><clipPath id="a"><path fill="#fff" d="M0 0h20v20H0z"/></clipPath></defs></svg>