<svg xmlns="http://www.w3.org/2000/svg" width="16" height="11" fill="none"><path fill="#F0F0F0" d="M16 0H0v10.667h16V0Z"/><path fill="#D80027" d="M16 1.334H0v1.333h16V1.334ZM16 4H0v1.333h16V4ZM16 6.668H0v1.333h16V6.668ZM16 9.334H0v1.333h16V9.334Z"/><path fill="#2E52B2" d="M8 0H0v5.744h8V0Z"/><path fill="#F0F0F0" d="m3.118 2.354-.129.396h-.417l.337.245-.128.396.337-.245.337.245-.129-.396.337-.245h-.417l-.128-.396ZM3.246 4.181l-.128-.396-.129.396h-.417l.337.245-.128.397.337-.245.337.245-.129-.397.337-.245h-.417ZM1.487 4.181l-.129-.396-.129.396H.812l.338.245-.13.397.338-.245.337.245-.129-.397.337-.245h-.416ZM1.358 2.354l-.129.396H.812l.338.245-.13.396.338-.245.337.245-.129-.396.337-.245h-.416l-.129-.396ZM3.118.924l-.129.396h-.417l.337.245-.128.396.337-.244.337.244-.129-.396.337-.245h-.417L3.118.924ZM1.358.924l-.129.396H.812l.338.245-.13.396.338-.244.337.244-.129-.396.337-.245h-.416L1.358.924ZM4.88 2.354l-.13.396h-.416l.337.245-.129.396.338-.245.337.245-.13-.396.338-.245h-.417l-.128-.396ZM5.008 4.181l-.128-.396-.13.396h-.416l.337.245-.129.397.338-.245.337.245-.13-.397.338-.245h-.417ZM6.772 4.181l-.129-.396-.129.396h-.416l.337.245-.129.397.337-.245.337.245-.129-.397.338-.245h-.417ZM6.643 2.354l-.129.396h-.416l.337.245-.129.396.337-.245.337.245-.129-.396.338-.245h-.417l-.129-.396ZM4.88.924l-.13.396h-.416l.337.245-.129.396.338-.244.337.244-.13-.396.338-.245h-.417L4.88.924ZM6.643.924l-.129.396h-.416l.337.245-.129.396.337-.244.337.244-.129-.396.338-.245h-.417L6.643.924Z"/></svg>