<svg width="20" height="20" fill="none" xmlns="http://www.w3.org/2000/svg"><mask id="a" style="mask-type:luminance" maskUnits="userSpaceOnUse" x="0" y="3" width="20" height="17"><path d="M20 3H0v16.212h20V3Z" fill="#fff"/></mask><g mask="url(#a)" fill-rule="evenodd" clip-rule="evenodd"><path d="m19.897 9.11-3.355-5.732A.77.77 0 0 0 15.875 3H4.355a.771.771 0 0 0-.654.36L.113 9.104a.746.746 0 0 0 .115.932l9.226 8.958c.299.29.78.29 1.08 0l9.237-8.97c.248-.24.3-.616.126-.913Z" fill="#E70505"/><path d="M15.896 4.377c-.121-.199-.413-.32-.657-.32H4.954c-.237 0-.5.112-.623.301L1.389 9.07c-.165.253-.202.44.022.649l8.105 7.896a.712.712 0 0 0 .957 0l8.067-7.86c.22-.204.227-.505.073-.758l-2.717-4.62Z" fill="#132A55"/><path d="m10.172 5.659 1.132 2.117 2.372.418a.194.194 0 0 1 .107.326l-1.673 1.726.335 2.375a.195.195 0 0 1-.28.202L10 11.773l-2.165 1.05a.195.195 0 0 1-.279-.202l.335-2.375L6.218 8.52a.194.194 0 0 1 .106-.326l2.373-.418L9.828 5.66a.196.196 0 0 1 .345 0Z" fill="#E5EAEE"/></g></svg>