<svg width="20" height="20" fill="none" xmlns="http://www.w3.org/2000/svg"><g clip-path="url(#a)"><path d="M10 20c5.523 0 10-4.477 10-10S15.523 0 10 0 0 4.477 0 10s4.477 10 10 10Z" fill="url(#b)"/><path d="M6.176 12.629H4.752c.117 2.222 1.975 4.153 5.272 4.153 3.281 0 5.373-1.8 5.373-4.124 0-4.414-6.666-4.167-6.666-6.723 0-.712.538-1.554 1.786-1.554 1.394 0 3.035 1.09 3.152 2.483h1.408c-.145-2.25-2.338-3.819-5.126-3.819-2.89 0-5.068 1.685-5.068 4.066 0 4.545 6.665 3.95 6.665 6.752 0 .872-.537 1.598-1.887 1.598-1.685 0-3.384-1.177-3.485-2.832Zm1.19-6.36c0 3.456 6.607 2.773 6.607 6.462 0 1.103-.726 2.076-1.597 2.323.305-.29.537-.93.537-1.54 0-3.412-6.621-2.947-6.621-6.447 0-1.176.755-2.12 1.699-2.41-.363.436-.625 1.002-.625 1.612Z" fill="#fff"/><path d="m17.032 10 3.04 5.023-3.03-1.294-.01-3.729Z" fill="#E68F7B"/><path d="M14 15.023 17.031 10l.012 3.729L14 15.023Z" fill="#F8EC7C"/><path d="M17.031 16.875 14 15.023l3.043-1.294-.012 3.146Z" fill="#6EB87D"/><path d="m20.071 15.023-3.028-1.294-.011 3.146 3.04-1.852Z" fill="#946BA7"/><path d="m17.032 17.513 3.04-1.802-3.04 4.283v-2.481Z" fill="#697CB9"/><path d="M17.031 17.513 14 15.71l3.031 4.283v-2.481Z" fill="#4FADD0"/></g><defs><radialGradient id="b" cx="0" cy="0" r="1" gradientUnits="userSpaceOnUse" gradientTransform="rotate(-90 16.59 6.59) scale(32.0451)"><stop stop-color="#FFD232"/><stop offset="1" stop-color="#FF6D6D"/></radialGradient><clipPath id="a"><path fill="#fff" d="M0 0h20v20H0z"/></clipPath></defs></svg>