<svg width="20" height="20" fill="none" xmlns="http://www.w3.org/2000/svg"><path fill-rule="evenodd" clip-rule="evenodd" d="M4.356 2h11.52c.274 0 .528.147.665.386l3.357 5.84a.77.77 0 0 1-.126.931l-9.238 9.14a.767.767 0 0 1-1.08 0L.228 9.169a.77.77 0 0 1-.115-.95l3.588-5.852A.768.768 0 0 1 4.356 2Zm10.032 2.608v1.638h-3.281v1.137c2.304.121 4.034.62 4.046 1.217v1.247c-.013.597-1.742 1.096-4.046 1.217v2.789h-2.18v-2.789c-2.304-.121-4.033-.62-4.046-1.217V8.6c.013-.597 1.742-1.096 4.047-1.217V6.246H5.646V4.608h8.742Zm-4.37 5.6c2.459 0 4.514-.421 5.018-.984-.427-.478-1.97-.854-3.93-.957v1.19a20.745 20.745 0 0 1-2.178 0v-1.19c-1.96.103-3.503.479-3.93.957.504.563 2.56.984 5.02.984Z" fill="#009393"/><path fill-rule="evenodd" clip-rule="evenodd" d="M14.388 4.608v1.638h-3.281v1.137c2.304.121 4.034.62 4.046 1.217v1.247c-.013.597-1.742 1.096-4.046 1.217v2.789h-2.18v-2.789c-2.304-.121-4.033-.62-4.046-1.217V8.6c.013-.597 1.742-1.096 4.047-1.217V6.246H5.646V4.608h8.742Zm.648 4.616c-.503.563-2.56.984-5.019.984-2.46 0-4.515-.421-5.018-.984.426-.478 1.97-.854 3.929-.957v1.19a20.748 20.748 0 0 0 2.179 0v-1.19c1.959.103 3.502.479 3.929.957Z" fill="#fff"/><path d="M17.251 17.92c.657-.204 1.305.487.864 1.066-.225.295-1.169.583-1.544.484-.476-.124-.73-.454-.762-.99a.108.108 0 0 0-.175-.078c-.664.534-1.125.14-1.708-.182-.05-.028-.087-.016-.11.038l-.038.092c-.024.057-.007.095.05.116.758.279.583 1.346-.18 1.373-.265.009-1.043-.325-1.26-.535-.6-.583-.09-1.24.156-1.836.016-.04.006-.07-.03-.092-.55-.324-1.261-.54-1.263-1.335a1209.98 1209.98 0 0 1 0-3.072c0-.333.165-.594.495-.783.887-.507 1.776-1.011 2.668-1.512.439-.246.671-.22 1.087.011.961.533 1.877 1.054 2.75 1.561a.754.754 0 0 1 .373.649c.002 1.103.002 2.253 0 3.449-.001.491-1.101 1.001-1.493 1.218-.04.023-.054.057-.04.102l.07.208c.014.046.044.062.09.048Zm-2.245.319 3.027-1.715a.306.306 0 0 0 .155-.265c0-1.064 0-2.145-.002-3.243 0-.276-.14-.389-.363-.498l-2.67-1.51a.432.432 0 0 0-.424 0l-2.841 1.602a.392.392 0 0 0-.2.341v3.175a.441.441 0 0 0 .217.38l.821.483a.065.065 0 0 0 .058.003.067.067 0 0 0 .039-.043c.292-1.06.797-.535 1.416-.249a.255.255 0 0 1 .13.326l-.286.724c-.014.032-.004.056.028.071l.653.305.242.113Zm-1.143 1.03c.043-.204-.034-.35-.23-.439-.494-.221-.293-.507-.122-.919.112-.268.23-.539.354-.811a.076.076 0 0 0-.014-.085.078.078 0 0 0-.025-.018l-.402-.178a.085.085 0 0 0-.063-.002.081.081 0 0 0-.046.043l-.764 1.661a.374.374 0 0 0 .185.498l.85.389a.197.197 0 0 0 .277-.14Zm3.015-.986-.18-.378a.073.073 0 0 0-.102-.033l-.388.218c-.037.02-.05.052-.04.094.076.319.13.933.637.863a3.37 3.37 0 0 0 .969-.286c.046-.021.063-.057.049-.107l-.068-.239a.1.1 0 0 0-.095-.071h-.686a.106.106 0 0 1-.096-.062Z" fill="#3F3009"/><path d="M17.21 15.282a.329.329 0 0 0 .164-.05.458.458 0 0 0 .139-.134.667.667 0 0 0 .09-.2.826.826 0 0 0-.01-.467.666.666 0 0 0-.097-.196.46.46 0 0 0-.143-.13.329.329 0 0 0-.167-.042.329.329 0 0 0-.165.05.458.458 0 0 0-.138.134.667.667 0 0 0-.09.2.826.826 0 0 0 .008.467c.024.073.057.14.098.196.041.056.09.1.143.13.054.029.11.043.167.042Zm-1.27.703c.114.002.226-.06.31-.173a.763.763 0 0 0 .135-.432.763.763 0 0 0-.118-.436c-.078-.117-.187-.184-.302-.186-.114-.003-.226.06-.31.173a.762.762 0 0 0-.135.431.762.762 0 0 0 .118.437c.078.117.187.184.302.186Z" fill="#3F3009"/><path fill-rule="evenodd" clip-rule="evenodd" d="M17.823 12.518c.222.11.363.222.363.498.002 1.098.002 2.179.002 3.243a.309.309 0 0 1-.155.265l-3.027 1.715a.686.686 0 0 1-.242-.113.7.7 0 0 1-.2-.22l-.001-3.242c.007-.104.065-.336.233-.431l3.027-1.716Zm-.449 2.715a.329.329 0 0 1-.165.05.328.328 0 0 1-.167-.044.457.457 0 0 1-.143-.13.664.664 0 0 1-.098-.195.83.83 0 0 1-.009-.467.667.667 0 0 1 .09-.2.458.458 0 0 1 .139-.135.329.329 0 0 1 .165-.05.329.329 0 0 1 .167.044.46.46 0 0 1 .143.13.666.666 0 0 1 .098.195.826.826 0 0 1 .009.467.667.667 0 0 1-.09.2.458.458 0 0 1-.139.135Zm-1.125.579c-.083.113-.195.175-.31.173-.114-.002-.223-.07-.301-.186a.762.762 0 0 1-.118-.437.762.762 0 0 1 .136-.431c.083-.113.195-.176.31-.173.114.002.223.069.301.186a.763.763 0 0 1 .118.436.763.763 0 0 1-.136.431Z" fill="#3F3009"/><path d="m17.823 12.518-2.67-1.51a.431.431 0 0 0-.424 0l-2.841 1.602a.392.392 0 0 0-.2.341v3.175a.44.44 0 0 0 .217.38l.821.483a.067.067 0 0 0 .082-.014.066.066 0 0 0 .014-.026c.293-1.06.798-.535 1.417-.249a.254.254 0 0 1 .13.326l-.287.724c-.013.032-.003.056.03.071l.652.305a.7.7 0 0 1-.2-.22c0-1.063 0-2.144-.002-3.242.008-.104.066-.336.234-.431l3.027-1.716Z" fill="#CE9B06"/><path d="M17.21 15.282a.329.329 0 0 0 .164-.05.46.46 0 0 0 .138-.134.667.667 0 0 0 .09-.2.826.826 0 0 0-.008-.467.666.666 0 0 0-.098-.196.46.46 0 0 0-.143-.13.329.329 0 0 0-.167-.042.328.328 0 0 0-.165.05.458.458 0 0 0-.139.134.667.667 0 0 0-.09.2.826.826 0 0 0 .01.467c.023.073.056.14.097.196.041.056.09.1.143.13.053.029.11.043.167.042Zm-1.27.703c.114.002.226-.06.31-.173a.763.763 0 0 0 .135-.432.763.763 0 0 0-.118-.436c-.078-.117-.187-.184-.302-.186-.114-.003-.226.06-.31.173a.763.763 0 0 0-.135.431.763.763 0 0 0 .118.437c.078.117.187.183.302.186Z" fill="#F7D568"/><path fill-rule="evenodd" clip-rule="evenodd" d="M17.822 12.518c.223.11.364.222.364.498.002 1.098.002 2.179.001 3.243a.308.308 0 0 1-.155.265s-2.85 1.675-3.032 1.663c-.181-.01-.373-.124-.436-.28-.064-.157 0-2.145-.002-3.243.008-.104.066-.336.234-.431l3.026-1.716Zm-.448 2.715a.329.329 0 0 1-.165.05.328.328 0 0 1-.167-.044.457.457 0 0 1-.143-.13.664.664 0 0 1-.098-.195.826.826 0 0 1-.009-.467.667.667 0 0 1 .09-.2.458.458 0 0 1 .139-.135.328.328 0 0 1 .165-.05.329.329 0 0 1 .167.044.46.46 0 0 1 .143.13.666.666 0 0 1 .098.195.83.83 0 0 1 .009.467.667.667 0 0 1-.09.2.46.46 0 0 1-.139.135Zm-1.125.579c-.083.113-.195.175-.31.173-.114-.003-.223-.07-.301-.186a.763.763 0 0 1-.118-.437.763.763 0 0 1 .136-.431c.083-.113.195-.176.31-.173.114.002.223.069.301.186.079.116.121.274.118.436a.763.763 0 0 1-.136.431Z" fill="#F7D568"/><path d="M16.764 14.68c.006.338.206.607.445.602.24-.004.429-.281.422-.618-.006-.337-.206-.606-.445-.601-.24.004-.428.281-.422.618ZM15.52 15.362c-.007.34.18.618.42.623.239.005.438-.266.445-.605.007-.339-.18-.617-.42-.622-.238-.005-.438.265-.445.604Z" fill="#FFFEFC"/><path d="M13.863 19.269a.198.198 0 0 1-.277.139l-.85-.39a.375.375 0 0 1-.185-.497l.764-1.661a.082.082 0 0 1 .046-.043.084.084 0 0 1 .063.002l.402.178a.08.08 0 0 1 .041.044.076.076 0 0 1-.002.059c-.124.272-.242.543-.354.811-.171.412-.372.698.122.919.196.088.273.235.23.439ZM16.974 18.344h.686a.1.1 0 0 1 .095.071l.068.239c.014.05-.003.086-.05.107a3.37 3.37 0 0 1-.968.287c-.508.07-.561-.545-.637-.864-.01-.042.003-.073.04-.094l.388-.218a.073.073 0 0 1 .058-.005.073.073 0 0 1 .044.038l.18.377a.106.106 0 0 0 .096.062Z" fill="#A58411"/><mask id="a" style="mask-type:alpha" maskUnits="userSpaceOnUse" x="11" y="10" width="7" height="9"><path d="m17.823 12.518-2.67-1.51a.431.431 0 0 0-.424 0l-2.841 1.602a.392.392 0 0 0-.2.341v3.175a.44.44 0 0 0 .217.38l.821.483a.067.067 0 0 0 .082-.014.066.066 0 0 0 .014-.026c.293-1.06.798-.535 1.417-.249a.254.254 0 0 1 .13.326l-.287.724c-.013.032-.003.056.03.071l.652.305a.7.7 0 0 1-.2-.22c0-1.063 0-2.144-.002-3.242.008-.104.066-.336.234-.431l3.027-1.716Z" fill="#EEBC04"/></mask><g mask="url(#a)" fill="#EEBC04"><path d="M16.05 15.216v-.483l-.392.218v.474l.392-.21ZM14.41 16.164v.492l.4.219.393-.219v-.492l-.393.21-.4-.21ZM16.479 15.416l-.82.493v.492l1.212-.73v-1.404l-.392.21v.94ZM16.06 14.24v-.456l-.41-.228-.821.493-.812-.483-.41.236v.456l.802.475v.938l.401.22.401-.22v-.911l.848-.52ZM14.801 13.547l.41-.246-.391-.237-.41.246.391.237ZM16.497 13.046l-.42.255.411.237v.447l.42-.255v-.447l-.41-.237Z"/><path d="m14.774 12.6.848.455.42-.264-1.25-.666-.3.182-.12.073-.783.474.383.228.802-.483ZM13.58 15.216l.41.246v-.456l-.41-.246v.456ZM13.188 13.547l.4-.237-.419-.255-.41.237v.447l.429.255v-.447ZM13.178 14.514l-.428-.256v1.423l.31.182.118.073.794.465v-.447l-.793-.483v-.957Z"/></g></svg>