<svg width="20" height="20" fill="none" xmlns="http://www.w3.org/2000/svg"><path fill-rule="evenodd" clip-rule="evenodd" d="M4.356 2h11.52c.275 0 .528.147.665.386l3.357 5.84a.77.77 0 0 1-.126.931l-9.238 9.14a.767.767 0 0 1-1.08 0L.228 9.169a.77.77 0 0 1-.115-.95l3.588-5.852A.768.768 0 0 1 4.356 2Zm10.032 2.608v1.638h-3.281v1.137c2.304.121 4.034.62 4.046 1.217v1.247c-.013.597-1.742 1.096-4.046 1.217v2.789h-2.18v-2.789c-2.304-.121-4.033-.62-4.046-1.217V8.6c.013-.597 1.742-1.096 4.047-1.217V6.246H5.646V4.608h8.742Zm-4.37 5.6c2.459 0 4.514-.421 5.018-.984-.427-.478-1.97-.854-3.93-.957v1.19a20.745 20.745 0 0 1-2.178 0v-1.19c-1.96.103-3.503.479-3.93.957.504.563 2.56.984 5.02.984Z" fill="#009393"/><path fill-rule="evenodd" clip-rule="evenodd" d="M14.388 4.608v1.638h-3.281v1.137c2.304.121 4.034.62 4.046 1.217v1.247c-.013.597-1.742 1.096-4.046 1.217v2.789h-2.18v-2.789c-2.304-.121-4.033-.62-4.046-1.217V8.6c.013-.597 1.742-1.096 4.047-1.217V6.246H5.646V4.608h8.742Zm.648 4.616c-.503.563-2.56.984-5.019.984-2.46 0-4.515-.421-5.018-.984.426-.478 1.97-.854 3.929-.957v1.19a20.759 20.759 0 0 0 2.179 0v-1.19c1.959.103 3.502.479 3.929.957Z" fill="#fff"/><g clip-path="url(#a)"><path d="M15 20a5 5 0 1 0 0-10 5 5 0 0 0 0 10Z" fill="#FF0420"/><path d="M13.541 16.326a1.2 1.2 0 0 1-.731-.21.719.719 0 0 1-.282-.608c.001-.068.008-.135.02-.202.032-.18.078-.397.138-.65.17-.687.609-1.03 1.316-1.03.178-.004.354.03.518.097a.764.764 0 0 1 .491.735 1.324 1.324 0 0 1-.019.199 8.588 8.588 0 0 1-.135.649c-.087.342-.238.599-.453.769-.215.167-.503.251-.863.251Zm.053-.54c.13.003.256-.04.356-.124a.69.69 0 0 0 .214-.379c.057-.235.101-.44.13-.615a.855.855 0 0 0 .016-.161c0-.228-.119-.342-.356-.342a.548.548 0 0 0-.36.124.703.703 0 0 0-.21.379c-.046.168-.09.373-.136.615a.801.801 0 0 0-.014.158c0 .23.12.345.36.345ZM15.184 16.288a.08.08 0 0 1-.064-.026.09.09 0 0 1-.011-.067l.518-2.438a.107.107 0 0 1 .04-.068.115.115 0 0 1 .072-.026h.998a1.16 1.16 0 0 1 .667.172.566.566 0 0 1 .255.5.895.895 0 0 1-.022.194c-.041.253-.177.48-.379.638-.188.138-.445.206-.773.206h-.506l-.172.822a.107.107 0 0 1-.042.067.115.115 0 0 1-.07.027h-.511Zm1.328-1.432a.447.447 0 0 0 .274-.087.405.405 0 0 0 .157-.247.654.654 0 0 0 .011-.113.208.208 0 0 0-.063-.165.314.314 0 0 0-.218-.06h-.45l-.142.672h.43Z" fill="#fff"/></g><defs><clipPath id="a"><path fill="#fff" transform="translate(10 10)" d="M0 0h10v10H0z"/></clipPath></defs></svg>