<svg xmlns="http://www.w3.org/2000/svg" width="20" height="20" fill="none"><path fill="#50AF95" fill-rule="evenodd" d="M3.662 1.386.015 9.046a.148.148 0 0 0 .032.174l9.849 9.437a.15.15 0 0 0 .208 0l9.849-9.437a.149.149 0 0 0 .032-.173l-3.647-7.66a.148.148 0 0 0-.134-.086H3.798a.147.147 0 0 0-.136.085Z" clip-rule="evenodd"/><path fill="#fff" fill-rule="evenodd" d="M11.265 9.833c-.07.005-.436.027-1.25.027-.649 0-1.109-.02-1.27-.027-2.505-.11-4.375-.546-4.375-1.068s1.87-.958 4.375-1.07V9.4c.163.012.632.04 1.28.04.778 0 1.168-.033 1.238-.04V7.696c2.5.112 4.365.548 4.365 1.069 0 .52-1.865.957-4.365 1.067l.002.001Zm0-2.313V5.996h3.489V3.671H5.256v2.325h3.488V7.52c-2.835.13-4.967.691-4.967 1.364 0 .673 2.132 1.234 4.967 1.365v4.885h2.52v-4.887c2.829-.13 4.957-.69 4.957-1.363S14.095 7.65 11.265 7.52Z" clip-rule="evenodd"/><g clip-path="url(#a)"><path fill="#E84142" d="M15 20a5 5 0 1 0 0-10 5 5 0 0 0 0 10Z"/><path fill="#fff" d="M16.764 15.13c.173-.3.453-.3.626 0l1.078 1.894c.174.299.032.543-.314.543H15.98c-.342 0-.484-.244-.315-.543l1.099-1.894Zm-2.087-3.646c.173-.299.449-.299.622 0l.24.433.567.996c.138.284.138.618 0 .902l-1.901 3.295a1 1 0 0 1-.78.457h-1.579c-.346 0-.488-.24-.315-.543l3.146-5.54Z"/></g><defs><clipPath id="a"><path fill="#fff" d="M10 10h10v10H10z"/></clipPath></defs></svg>