<svg xmlns="http://www.w3.org/2000/svg" width="20" height="20" fill="none"><path fill="url(#a)" d="M10 20c5.523 0 10-4.477 10-10S15.523 0 10 0 0 4.477 0 10s4.477 10 10 10Z"/><path fill="#FEFEFE" d="M9.895 14.67c-.09.006-.225-.133-.318-.121a.583.583 0 0 1-.337-.08c-.234-.118-.453-.26-.618-.47-.168-.212-.376-.62-.353-.533a.386.386 0 0 1-.245-.166 5.599 5.599 0 0 1-.32-.502 2.803 2.803 0 0 0-.35-.483c-.186-.211-.404-.586-.564-.868.004-.026-.285-.445-.304-.61-.027-.235.38-.982.353-.962.002-.044 0-.089.008-.132.043-.206.042-.415.045-.625 0-.038-.003-.247-.012-.25l.053-.149a9.448 9.448 0 0 1-.012-.005c-.042-.245.016-.488-.05-.726a2.07 2.07 0 0 0-.175-.41 7.764 7.764 0 0 1-.368-.785 1.33 1.33 0 0 1-.06-.675c.034-.242.064-.486.105-.727.024-.142.065-.282.1-.422.008-.03.028-.056.051-.101.063.07.114.133.171.19.13.127.255.261.398.373.222.173.453.335.688.492.11.075.241.12.356.19.109.067.216.14.31.227.162.15.296.323.392.53l-.162.11.007.012c.102-.044.202-.09.304-.132.44-.18.895-.26 1.367-.184.275.044.537.144.787.286.013-.011.03-.024.052-.044l-.103-.018-.053-.07a2.5 2.5 0 0 1 .408-.525c.134-.13.295-.197.452-.279.349-.182.656-.424.958-.672.127-.105.245-.221.368-.331.035-.032.075-.06.127-.1.06.206.124.391.164.581.055.258.086.52.094.786a1.62 1.62 0 0 1-.185.78c-.107.213-.219.423-.33.635-.072.14-.145.28-.22.419-.068.123-.08.256-.09.391 0 .023-.015.046-.024.069l-.04-.072-.02.008.024.065c.073.152.083.315.089.48a.89.89 0 0 0 .09.373c.046.093.085.19.119.289.015.046.01.098.014.148-.027-.02.279.495.29.659.016.262.076.313-.033.553-.014.031-.6 1.023-.82 1.254-.186.196-.317.429-.456.657-.1.16-.37.496-.53.604-.03.02-.136.248-.412.509-.195.183-.411.342-.674.417a.59.59 0 0 1-.2.018"/><path fill="#BFFB00" d="m10.921 6.777-.327-.104a1.925 1.925 0 0 0-1-.044 5.22 5.22 0 0 0-.392.098c-.072.022-.14.06-.21.087-.027.01-.057.015-.094.024-.043-.273-.28-.404-.405-.621l4.011-4.1.022.013-.04.138-.666 2.087-.43 1.337c-.067.207-.135.414-.198.623a.743.743 0 0 1-.154.294c-.04.045-.07.1-.117.168ZM8.16 13.552l.138.023c.235.698.73 1.06 1.473 1.116L6.94 17.413a56.82 56.82 0 0 0-.025-.014l1.245-3.847Zm-1.692-3.009-1.73-.292c.03-.044.05-.079.076-.108.353-.39.706-.782 1.061-1.171.294-.322.59-.642.884-.963.008-.008.017-.014.041-.034.012.1.03.188.031.276.004.254.015.508-.003.76-.017.25 0 .505-.07.752-.015.05-.006.105-.01.157a.747.747 0 0 1-.105.297c-.058.105-.114.21-.175.326Zm6.443-1.402 1.676.33-1.181 1.212c-.011-.222-.148-.375-.23-.552a.49.49 0 0 1-.062-.244.592.592 0 0 0-.082-.326c-.066-.124-.096-.267-.141-.401l.02-.019Z"/><path fill="#BFC3C9" d="m6.839 9.875.081-.06c.075-.02.15-.042.225-.064a.534.534 0 0 1 .194.252c-.05.02-.094.033-.134.054-.083.044-.126.122-.16.203-.09.22-.102.447-.075.682.019.166.069.32.134.471.008.02.007.046.01.068 0 .003-.001.007-.003.008-.001.001-.005 0-.008-.002l-.086.165c-.017-.012-.037-.022-.048-.037-.158-.208-.324-.412-.4-.669a.688.688 0 0 1 .054-.52c.063-.125.128-.25.183-.379.023-.052.022-.114.033-.172Zm6.115-.059.082.059c.01.191.097.354.193.513a.697.697 0 0 1 .028.691c-.09.19-.212.359-.34.524-.015.02-.037.034-.063.057-.02-.051-.035-.092-.053-.132-.004-.008-.022-.01-.034-.014.002-.036-.005-.077.009-.109.109-.24.156-.491.14-.753a1.086 1.086 0 0 0-.126-.47c-.049-.088-.127-.122-.208-.161a.385.385 0 0 0-.041-.018.478.478 0 0 1 .189-.252l.224.065Z"/><path fill="#5A5A5C" d="m9.256 13.248.053-.079.02-.019-.003.001.035-.006c.272-.108.55-.16.848-.09v.144c-.026.017-.051.031-.075.049-.098.073-.217.063-.328.08l-.303-.015-.247-.065Z"/><path fill="#5A5A5C" d="m10.565 13.222.04.088c-.202.168-1.029.19-1.366.04l.006-.047.256.038.305.002c.153-.004.309.025.456-.025.033-.116.084-.16.175-.158.026.001.051.005.077.008l-.001-.001v.02h.019l-.002-.002.035.037Z"/><path fill="url(#b)" d="m8.134 9.806-.002-.001.037.02v-.002c-.008.059.038.08.074.107.003.016.013.034.01.047-.033.11-.025.136.064.206l.075.06c.1.085.159.087.266.012l.15.117v.097l-.111.064-.017.003-.064.014h-.073l-.1-.007-.026-.009-.136-.054h.001l-.054-.053-.025-.018-.007-.002-.002-.007-.054-.08v.001l-.036-.053h.002l-.019-.02.002.002-.028-.038-.004.002a25.072 25.072 0 0 1-.004-.027l-.018-.027-.01-.059-.004-.215-.001-.044h-.002l.054-.018v.001l.062-.02Z"/><path fill="url(#c)" d="m7.854 7.035.096-.072-.327-.224.212-.055c-.096-.158-.168-.318-.293-.453l-.227.248-.188-.16-.364-.425-.014.009.065.478c.01.111.018.223.033.333.036.255.075.509.115.778l.361-.34.074.646.13.027.569-.494a.504.504 0 0 0-.242-.296Z"/><path fill="url(#d)" d="m13.13 5.88-.379.436-.165.153-.237-.256c-.125.138-.198.297-.29.454l.224.056c-.122.078-.245.128-.328.235l.076.054c-.206.2-.218.218-.226.308l.56.488.131-.029.075-.645.36.338c.032-.21.065-.404.092-.6.018-.127.026-.255.038-.384l.085-.602-.017-.007Z"/><path fill="url(#e)" d="M11.733 10.215a.49.49 0 0 0-.023-.307c-.01-.026-.01-.056-.015-.084l.003.001-.038-.019.001.003h-.074l-.054.045-.035.035-.021.033.097.122-.072.044.001.02-.018-.002v.02l-.018-.002v.019l-.018-.001.001.019-.019-.002a.204.204 0 0 1-.259.136c-.032-.01-.063-.025-.096-.04l-.09.07a.037.037 0 0 0-.014-.006l-.053.035-.093.09.23.08.344.008-.002.002.194-.09.018-.017.018-.018.019-.035.016-.018h-.001l.02-.037-.002.002.037-.073-.002.002.02-.037-.002.002Z"/><path fill="#D4D4D4" d="M10.093 10.356c-.063-.015-.079-.06-.061-.113.021-.066.053-.129.08-.193l.031-.048.073-.458c-.013.03-.03.06-.037.09-.022.107-.08.187-.18.222-.111.038-.227.049-.309-.067a.472.472 0 0 1-.102-.248c-.004-.075-.014-.158-.102-.195-.005-.018.018-.062-.035-.039l.001.021v-.001c.005.006.01.013.017.019l.008.001h.009l.067.162.002.224c0 .047.005.094.001.14a.277.277 0 0 0 .106.248l.045.04c.008.067.025.132-.044.176-.067.06-.132.122-.23.127-.027.001-.053.013-.034.05l.445.256c.019.01.033.028.049.043.035.06.07.03.107.001a.39.39 0 0 1 .265-.158l.088-.036.08-.16c-.117-.024-.25-.003-.34-.104Z"/><path fill="#D4D4D4" d="M12.4 9.764c-.028.025-.062.044-.08.074-.045.068-.081.14-.123.21a2.358 2.358 0 0 1-.438.53l-.18.14c-.02.011-.04.03-.062.031-.136.007-.277.031-.408.007-.14-.026-.27-.1-.406-.153l-.068-.044c.033-.032.056-.053.08-.074l.009-.024h-.241a114.264 114.264 0 0 0-.13.16l-.089.053-.198.12.103.005c.053-.082.133-.082.22-.072l.094.085a2.608 2.608 0 0 1-.011.024c-.08-.043-.153-.126-.247-.044l.068.004c.076.004.131.036.154.112l.174-.07.064-.001c.16.025.318.055.478.072.095.01.192-.001.289-.003l.05-.005.232-.09a.143.143 0 0 1 .048-.143c.19-.17.332-.38.479-.583.067-.094.148-.19.138-.32Zm-2.912.991-.095.05a3.728 3.728 0 0 1-.012-.02l.112-.085.153.098.105-.023c-.026-.016-.053-.03-.079-.048l-.298-.203-.05-.061-.321-.027.034.094.06.037-.124.07-.023-.006c-.002.007-.002.02-.006.021-.23.08-.46.167-.708.106-.075-.018-.146-.055-.218-.084l.018.122-.002.02.321.085h.157c.194-.023.387-.051.582-.067.065-.005.142.003.18.08.014-.004.03-.005.043-.011l.24-.119-.069-.03Zm-.128 2.39.002-.029-.037.035.035-.006Zm-1.573-2.737h.001a24.344 24.344 0 0 1-.036-.053l-.015-.032.027.021.025.009c-.016-.075-.03-.152-.108-.192l.05.151c-.05-.078-.095-.159-.15-.234-.076-.104-.158-.204-.238-.306-.005 0-.01 0-.014-.002v-.051l-.066.014.06.044c.013.038.02.08.041.114.104.158.209.315.32.468.026.037.075.059.114.087l-.011-.038ZM9.33 9.186l-.003-.001h.002Zm0 0 .049.02c-.002-.06-.027-.1-.093-.1l.044.08Zm-.047-.083c.017-.07-.018-.08-.094-.065l.045.043.05.022Zm1.205-.023c.005-.01.005-.023.008-.034h.033l.046-.078-.021-.012-.058.09a.46.46 0 0 0-.27.432l.261-.399Zm-2.552 1.518-.078-.083c.002.05.018.087.078.083ZM7.63 9.596l-.04-.017c-.005.007-.008.015-.012.023l.053.025-.001-.03Zm.212.899-.04-.043c-.021.046.008.046.04.043Zm2.285-.405.011-.038a.014.014 0 0 0-.015.002l.004.037Zm-.715-.847.003-.003-.003.003-.002.002.002-.002Zm.002-.002-.002.002.002-.002Zm-.002.002.003-.003-.003.003Zm.09 4.07-.001.028.305.002-.001-.014-.303-.016Z"/><path fill="#D4D4D4" d="m12.117 9.947-.042.16-.023.073c.047-.059.099-.114.14-.176.032-.048.052-.104.075-.153h-.536l.02.061.366.035Zm-4.327.407-.002.055.089.051c.004-.063-.033-.092-.087-.106Zm-.33-.514c.082.117.151.219.22.32a5.619 5.619 0 0 0-.048-.166c.102-.062.215-.037.33-.053 0 .037-.005.07.002.1.01.036.03.07.046.105l.002-.035-.016-.229-.535-.043Z"/><path fill="#000" d="m14.794 9.403-.933-.182-.959-.184c-.007-.182-.019-.364-.02-.545a.66.66 0 0 1 .04-.26c.085-.194.188-.381.286-.57.076-.146.156-.29.231-.437.175-.337.288-.689.258-1.075a1.443 1.443 0 0 0-.025-.174c-.032-.159-.062-.317-.1-.474-.05-.206-.106-.41-.161-.614-.01-.038-.03-.073-.047-.115-.037.03-.066.049-.09.073a7.1 7.1 0 0 1-1.306 1.013c-.155.094-.316.179-.474.27-.045.026-.086.058-.129.088l-.016.022v-.034l.022-.076 1.394-4.378c.005-.016.007-.034.01-.051l-.013-.005L8.415 6.15a4.82 4.82 0 0 1-1.91-1.45c-.01.022-.019.04-.024.059-.083.303-.174.605-.246.911a2.72 2.72 0 0 0-.092.69c.002.082.023.162.03.244.02.234.12.439.225.641.07.136.155.263.227.397.039.072.063.15.095.23l-2.222 2.45 1.965.334a.554.554 0 0 0 .023.336c.082.234.23.43.366.632.069.102.143.198.176.322.028.104.078.203.132.296.035.06.097.102.142.155.172.2.307.427.446.65.093.15.146.33.302.429l-.005.026-1.152 3.64c-.07.22-.136.443-.203.664v.003l.001-.005.067-.055.566-.52c.025-.023.054-.044.078-.07.089-.093.171-.193.264-.282.752-.727 1.506-1.452 2.262-2.18.138.002.28.002.417-.048.07-.026.14-.057.213-.078.244-.071.449-.211.62-.389a1.17 1.17 0 0 0 .324-.556c.073-.037.142-.064.201-.105a1.4 1.4 0 0 0 .427-.496c.07-.128.132-.262.248-.36a.918.918 0 0 0 .139-.156 7.17 7.17 0 0 0 .216-.31.92.92 0 0 0 .101-.182c.074-.197.168-.38.287-.554.101-.147.2-.302.261-.467a.677.677 0 0 1 .205-.317c.011-.01.02-.021.03-.032l1.13-1.182c.018-.02.042-.033.064-.048v-.018c-.006.001-.012.005-.017.004Zm-2.29-7.286.022.013-.04.138-.666 2.087-.431 1.337c-.067.207-.134.414-.197.623a.744.744 0 0 1-.154.294c-.041.045-.07.1-.117.168l-.327-.104a1.925 1.925 0 0 0-1-.045 5.95 5.95 0 0 0-.393.1c-.071.02-.138.058-.209.086-.027.01-.057.015-.094.024-.043-.273-.28-.404-.405-.621l4.011-4.1Zm-6.037 8.426-1.73-.292c.031-.044.051-.079.077-.108.353-.39.706-.782 1.061-1.171.293-.322.589-.642.884-.963.007-.008.017-.014.041-.034.012.1.03.188.03.276.005.254.016.508-.002.76-.017.25 0 .505-.07.752-.015.05-.006.105-.01.157a.747.747 0 0 1-.105.297c-.058.105-.114.21-.176.326Zm.473 6.87-.026-.014 1.245-3.847.139.023c.235.698.73 1.06 1.473 1.116L6.94 17.413Zm2.86-2.794.092-.087.087.087H9.8Zm-.608-1.335.063-.036.053-.079.019-.019-.002.001.037-.035c.194-.136.414-.168.643-.152.15.011.294.051.422.133.031.02.058.047.086.071v-.001l.018.02-.001-.002.034.037.04.088c-.202.168-1.029.19-1.365.04l.006-.047-.053-.02Zm4.064-2.205c-.09.19-.212.359-.34.524-.015.02-.037.034-.063.057-.02-.051-.034-.092-.053-.132-.004-.008-.022-.01-.034-.014.069.335-.074.596-.293.827-.187.196-.317.429-.457.657a1.312 1.312 0 0 1-.368.42c-.03.021-.066.034-.108.055.006-.118.025-.21.1-.298.093-.109.161-.24.239-.36l.12-.193-.017-.018-.024.001-.016-.05-.018.008.022.044-.055.065h-.054v-.232c.065.002.116.016.136.08l.009.084.017.018.104-.215-.032.003-.039.05c.003.028.009.058-.037.053l.036-.052.038-.206c.064.07.008.11.002.155l.032-.003c.042-.106.09-.21.126-.319.026-.08.037-.167-.018-.246-.007-.01 0-.032.002-.058l.168.028c-.057-.087-.14-.11-.325-.088l.007.048c-.201.175-.333.405-.484.632-.033-.13.008-.23.061-.33l.018-.05-.035.04-.04-.105c-.015.048-.033.088-.04.13-.022.15-.049.301-.058.453-.013.2-.009.4-.017.6-.014.37-.118.708-.394.969-.195.183-.41.342-.674.417a.59.59 0 0 1-.2.018.261.261 0 0 1-.233-.281c.001-.02.018-.038.03-.062l-.015-.105c.182-.157.362-.303.531-.46.095-.089.191-.184.214-.325.003-.023.028-.043.045-.063a.396.396 0 0 0 .025-.443c.001.14.004.272-.096.377-.318-.441-1.241-.456-1.584-.012-.082-.066-.084-.075-.103-.35-.105.122-.069.345.081.474.003.154.107.251.21.354.166.164.342.312.559.438-.021.105-.03.224-.07.33-.033.085-.124.119-.217.131a.583.583 0 0 1-.338-.08c-.233-.118-.452-.26-.618-.47a1.28 1.28 0 0 1-.282-.722 10.119 10.119 0 0 1-.02-.625c0-.228-.037-.449-.096-.667-.002-.008-.01-.013-.02-.024l-.026.116c.047.074.06.166.034.281-.154-.232-.274-.47-.474-.645-.184 0-.325.008-.36.112l.215-.075c-.09.227.008.406.089.588l.094.21.127.22c.093.16.18.322.3.466.045.053.044.145.067.232a.386.386 0 0 1-.245-.166 5.613 5.613 0 0 1-.32-.502 2.8 2.8 0 0 0-.35-.483c-.187-.211-.296-.456-.253-.748.004-.026.001-.053.001-.08l-.086.165c-.017-.012-.036-.022-.048-.037-.158-.208-.324-.412-.4-.668a.688.688 0 0 1 .054-.52c.063-.126.128-.25.183-.38.023-.052.023-.114.033-.172.002-.044 0-.089.008-.132.043-.206.042-.415.045-.625 0-.038.018-.078.036-.113.06-.114.124-.225.184-.339.014-.027.015-.062.022-.093l-.018-.007-.209.314-.027-.013.053-.148a9.448 9.448 0 0 1-.012-.005c-.041-.245.017-.488-.05-.725a2.07 2.07 0 0 0-.175-.412 7.764 7.764 0 0 1-.368-.784 1.33 1.33 0 0 1-.06-.675c.034-.242.064-.486.105-.727.024-.142.065-.282.1-.422.009-.03.029-.056.052-.101.062.07.113.133.17.19.13.127.255.261.398.373.222.174.454.335.688.492.111.075.242.12.356.19.109.067.216.141.31.227.162.15.296.323.392.53l-.162.11.008.013c.1-.045.201-.091.303-.133.44-.18.896-.26 1.367-.184.276.044.537.144.787.286l.053-.044-.103-.018-.054-.07c.115-.194.248-.367.409-.525.133-.13.294-.197.451-.279.35-.182.657-.424.959-.672.127-.105.244-.221.367-.331.036-.032.075-.06.127-.1.06.206.124.391.165.581.055.258.085.52.093.786.009.279-.063.535-.185.78-.107.213-.219.423-.329.635-.073.14-.146.28-.222.42-.067.122-.078.255-.088.39-.002.023-.016.046-.024.069l-.04-.072-.02.009.024.064c.072.152.082.315.088.48a.89.89 0 0 0 .09.373c.047.093.085.19.119.289.015.046.01.098.014.148.01.191.098.354.193.513a.698.698 0 0 1 .028.691Zm-1.453 1.55h-.243l.175-.266c.101.08.053.175.068.265Zm-.047-.303.242-.38.02.003c.027.152.002.303-.022.474l-.24-.097Zm.045.545-.104.134-.027-.008-.049-.283h.23l-.018.113-.063-.016.03.06Zm-.216.292a.312.312 0 0 1 .007-.205c.05.055.05.133-.007.205Zm.303-.454.004-.035h.032l-.025.038c-.004 0-.007-.002-.01-.003Zm.182-.802c.113.027.127.163.042.349-.017-.024-.04-.04-.04-.059-.004-.093-.002-.187-.002-.29ZM8.186 13.11c-.058-.082-.05-.16.01-.191v-.21h.02c-.01.134.013.27-.03.4Zm-.175-.368-.046.037-.046-.114h.238l-.052.291a.206.206 0 0 1-.122-.159l.042-.039-.014-.016Zm-.117-.123-.059-.065.005-.019-.01.019-.028-.002.012-.097c.02-.063.075-.064.135-.074v.242l-.055-.004Zm.004.04c-.003.003-.007.004-.01.006l-.035-.047.04.003.005.039Zm-.19-.452.082.218-.01.063-.067-.149c-.006-.04-.05-.08-.005-.132Zm-.029-.016c-.08-.18-.063-.316.04-.341 0 .105 0 .209-.002.313 0 .008-.02.016-.038.028Zm.108.155V11.9a.65.65 0 0 1 .012-.006l.025.07c.012.006.028.009.034.019.054.09.106.181.16.276a.326.326 0 0 1-.23.086Zm.355.165.068.042-.011.027h-.212c.007-.09-.021-.18.06-.26.04.063.103.1.096.177l-.047.03.046-.016Zm5.264-1.828c-.012-.222-.148-.375-.231-.552a.489.489 0 0 1-.062-.244.593.593 0 0 0-.082-.326c-.066-.124-.095-.267-.14-.401l.02-.019 1.675.33-1.18 1.212Zm-1.374 1.777h.001Z"/><path fill="#000" d="M7.255 7.872c.036.115.094.216.215.264l.043.012.005-.016-.05-.024a.395.395 0 0 1-.148-.264.583.583 0 0 0 .426.021v-.019H7.63c.15-.166.313-.294.479-.42.006-.004.022.005.034.008l.022.07.021-.008-.007-.044a.63.63 0 0 0-.172-.402l.012-.016.278.023c-.085-.076-.173-.08-.253-.087l-.252-.196.002-.017.332-.018.002-.02-.208-.038c-.121-.178-.208-.387-.373-.551l-.246.272-.625-.706c.057.652.127 1.291.243 1.94l.35-.342.047.46-.104-.079c.016.078.024.139.043.197Zm-.294-.38c-.04-.27-.08-.523-.115-.778-.015-.11-.022-.222-.033-.333l-.065-.478.014-.009.364.425.188.16.228-.248c.124.135.196.295.292.453l-.212.055.327.224-.096.072a.504.504 0 0 1 .242.296l-.568.494-.13-.027-.075-.647-.361.34Zm5.663-.215.35.342c.113-.654.188-1.292.257-1.93l-.017-.01-.623.705-.247-.271c-.165.167-.252.373-.375.555-.07.014-.146-.004-.208.052l.339.022-.003.017-.25.193c-.086.007-.172.015-.251.087l.28-.021.007.02a.603.603 0 0 0-.17.396l-.003.048.02.002.015-.052.023-.035c.175.132.343.263.492.433h-.114a.52.52 0 0 0 .428-.002.417.417 0 0 1-.15.263l-.002.027c.19-.088.226-.262.255-.458l-.101.076.048-.459Zm-.053-.143-.075.645-.132.03-.56-.49c.01-.09.021-.106.227-.307l-.076-.054c.082-.107.205-.157.328-.235l-.223-.056c.09-.157.164-.316.289-.454l.236.256.166-.153.378-.437.016.007-.085.602c-.012.129-.02.257-.037.385-.027.195-.06.389-.093.6l-.36-.34Zm-.251 2.704c.02-.03.053-.05.08-.074-.003-.054-.032-.023-.052-.014-.06.024-.116.062-.177.07-.107.015-.217.01-.325.014l-.041-.007c-.013 0-.025-.002-.037-.003l.004-.068h.008l.007-.002c.042-.011.084-.02.124-.035.092-.032.183-.067.277-.102-.01-.013-.015-.02-.017-.02l-.385.127c-.037.01-.074.016-.109.027-.058.018-.127.02-.157.089l.014.014.054-.045h.074v-.002l.035.017h-.001c.005.028.005.058.015.084a.491.491 0 0 1 .024.298l-.027.062-.038.074-.036.049s-.043.056-.042.053c-.052.025-.13.06-.192.088l-.343-.008a451.3 451.3 0 0 0-.23-.08l.092-.09a.133.133 0 0 1-.009-.009l-.15.063-.195.02.16.016-.16-.015c-.038-.002-.076-.005-.114-.004a.584.584 0 0 1-.325-.072l-.06-.074.062-.188-.004-.037a.013.013 0 0 1 .015-.002l.019-.018.011-.033c.02-.057.045-.113.057-.171.015-.08.018-.163.03-.245.024-.16.122-.283.211-.41.027-.039.042-.086.063-.13l-.034.001c-.002.011-.002.024-.008.033l-.262.4-.01.065-.073.458-.03.048c-.028.064-.06.127-.08.193-.018.053-.003.098.06.113.091.101.223.08.341.105l-.08.16-.088.035a.39.39 0 0 0-.266.158l.068-.02.197-.12.089-.053v-.001l.13-.159h.241l-.01.024-.08.074.07.044.023-.004a8.319 8.319 0 0 1-.035-.03l.04-.067.028-.03c.022.002.049-.004.067.006.17.099.352.104.54.074a.394.394 0 0 0 .172-.065l.067-.038.05-.062.051-.103.047-.1a.167.167 0 0 0 .006-.012v-.002c.023-.058.005-.121.002-.182-.001-.026-.007-.05-.011-.076l-.02-.06h.537c-.024.048-.044.104-.076.152-.041.062-.093.117-.14.176v-.001l-.033.057-.178.217-.058.077-.035.035-.177.142c-.26.066-.51.037-.752-.079-.029-.014-.061-.02-.092-.03a1.989 1.989 0 0 1-.024.005c.135.053.266.127.406.153.131.024.272 0 .409-.007.02 0 .04-.02.06-.03l.181-.141.038-.035c.154-.148.291-.31.4-.494.042-.07.078-.143.122-.211Zm-2.2.211h-.004.003Zm-1.17.581v.003h.001l.002-.001-.003-.001Zm-.863.025c-.079-.05-.14-.13-.21-.195l-.089-.051.002-.055v-.001l-.026-.009-.027-.021.015.032.036.053h-.001l.011.038.005.005.04.044.015.02.078.083.082.076c.072.029.143.066.218.084.249.06.479-.026.708-.106.003-.001.004-.011.005-.019-.09.023-.18.044-.27.068-.203.057-.406.073-.592-.046Zm4.428.539-.2.261-.138-.15-.005-.028-.012.002.005.03c.027.051.049.107.085.152.077.097.162.188.24.277.014-.099-.058-.17-.117-.25.085-.08.154-.165.142-.294Zm-3.863-4.37v.064l.024.001.093-.05-.258-.278-.015.01a.385.385 0 0 1-.01.332l.166-.08Zm2.649-.264a2.24 2.24 0 0 0-.169.238c-.005.008 0 .022 0 .034v.046l.012.001.009-.043.182.078c-.082-.114-.06-.232-.034-.354Zm1.429 3.191.225.065-.03-.156-.195.091Zm-5.81.065.225-.065-.195-.091-.03.156Z"/><path fill="#000" d="M10.973 10.319c.005.001.01.003.013.006l.09-.07c.034.014.064.03.097.04a.204.204 0 0 0 .259-.136l.019.002-.001-.02.019.002-.002-.019.02.001-.002-.019.019.001-.002-.02.073-.043-.098-.122a.275.275 0 0 0 .021-.033l.036-.035-.014-.014-.035.036-.52.434-.055.035a.114.114 0 0 0 .01.01l.053-.036Zm.527-.274v.044h.002l-.017.017-.018.017v.001l-.017.017-.018.017-.087-.024c.015-.101.047-.118.155-.089Zm-.215.112.015.018c-.008.018-.013.05-.024.053-.024.004-.05-.007-.075-.012l-.001-.036.085-.023Zm-1.834-.85-.017.001.018.02v-.02ZM7.735 10.32v-.001l-.004-.007.003.008.003.003-.001-.004h-.001Zm.107 2.21-.001.002-.001.003.001-.003v-.002Zm1.412-.843-.016.02.178.146c.03.102.09.181.162.253l.02-.013-.176-.292-.168-.114Zm1.909-.777c-.16-.018-.318-.048-.478-.073h-.064v.024h.048c.167.029.333.066.5.084.099.01.2-.013.3-.021l-.017-.018c-.096.002-.194.013-.289.003Zm-2.069-.076c-.195.016-.388.044-.582.068h-.157c-.107-.03-.214-.057-.32-.086.014.017.026.044.044.049.085.022.172.038.258.056h.211l.178-.017.038-.012c.171-.026.343-.06.51.021-.038-.076-.115-.084-.18-.079Zm.17.406c.106.039.133.13.159.225.008.03.025.059.042.086.01.014.027.022.052.043l-.118-.308-.157-.096-.01.014c.01.012.019.031.032.036Z"/><path fill="#000" d="M9.4 10.514c-.02-.037.006-.049.033-.05.098-.005.163-.067.23-.127.069-.044.052-.11.044-.177l-.045-.04a.277.277 0 0 1-.106-.247c.004-.046 0-.093-.001-.14l-.002-.224-.067-.163-.009.001-.008-.001-.018-.02.001.002-.018-.02.001.002-.02-.02.004.003-.007-.05.003-.003-.003.003-.029-.006-.004-.03-.05-.021-.043-.08-.002-.003-.05-.022.078.104c.02.042.035.088.063.124a.618.618 0 0 1 .14.446c-.012.147 0 .284.114.397.04.041.059.102.011.159-.065.037-.127.099-.196.107-.209.025-.416 0-.612-.087l-.176-.118-.232-.194-.051-.036-.02-.017-.016-.013-.006-.004-.027-.02-.003-.002c-.022-.063-.07-.092-.132-.104-.008.059.038.08.074.107.004.016.013.034.01.047-.033.11-.025.136.064.206l.076.06c.1.085.158.087.266.012l.15.117v.097l-.112.064a.01.01 0 0 1 .006.011l-.023-.008-.063.014h-.073l-.1-.007h-.03c0-.003 0-.006.003-.009l-.121-.048-.05-.042-.018-.017v.002l-.019-.016-.09-.123-.064-.09-.023-.063-.007-.036-.004-.215-.001-.044.052-.018v.001l.063-.02-.063-.045-.442-.164.001.031.387.166-.071.048-.104-.001-.04-.002a6.217 6.217 0 0 1-.192-.017c-.086-.01-.177-.002-.247-.068l-.034-.034v.051c.004.002.009.003.014.002.08.102.162.202.238.306.054.075.1.156.15.234l-.05-.151-.22-.322.535.043.016.229-.003.035.003.006.014.058.095.148.091.102.085.055c.024.028.067.028.099.045.106.04.212.04.319.003l.222-.1.094.067-.059.086-.02.016.02.005.124-.07-.06-.037-.034-.094.321.027c.018.02.034.04.05.06l.298.204c.026.018.053.032.08.048l.068.03.022.008h.051c-.016-.015-.03-.032-.049-.043l-.445-.256Zm-1.022-.345-.08-.075.026-.053h.064l.05.08c-.02.014-.036.028-.06.048Zm.106.084.028-.095h.025l.039.08-.092.015Zm1.91 1.536c-.021.014-.046.03-.056.05-.038.075-.07.153-.104.23-.007.016-.009.034-.013.051l.021.01.163-.304.103-.08-.018-.016c-.032.02-.065.038-.096.059Zm.078-.953.011-.024-.094-.085c-.086-.01-.167-.01-.22.072l.056-.007c.094-.082.168.001.247.044Zm1.031.066a90.65 90.65 0 0 1-.05.004l.017.018.031-.005a.527.527 0 0 0 .274-.101l-.04-.007-.232.09Z"/><path fill="#000" d="m9.38 10.785.013.02.095-.05c.019.007.044.018.07.03l.088.013-.153-.098-.112.085Zm1 .172.013.018.228-.114v-.024l-.174.07-.067.05Zm.143-3.441.165-.204a.225.225 0 0 0-.165.204Zm-.117 3.785-.02.095a.616.616 0 0 0-.075.204c.05-.052.092-.109.095-.184 0-.023 0-.046.002-.07l.195-.164-.015-.018-.182.137Zm-1.163.596.077.077c.002-.049-.024-.074-.077-.077Zm.174-4.345a.318.318 0 0 0-.12-.21l-.036-.025.018.037.138.198Zm1.073 4.178.018.017.064-.051a3.49 3.49 0 0 1-.019-.021l-.063.055Zm1.883-3.613.008.016.041-.015.001-.027-.05.026Zm-1.953 3.827.02.018.047-.041-.026-.026a9.683 9.683 0 0 1-.041.05Zm1.245.072-.004.001-.002.006.004-.004.002-.003Zm-1.271-.03.016.012.015-.034-.011-.006-.02.028Zm-2.801-.694-.053.071-.08.076c-.152-.105-.19-.258-.217-.417-.062.19.012.339.14.455l-.104.221v.072l.02-.035c.042-.058.083-.117.126-.174.045-.059.092-.117.138-.175l.035-.09.009-.026-.008-.002-.006.024Zm4.072.724v-.002.002Zm0 0c.003-.002.004-.002 0 0ZM9.24 7.312V7.31l-.005-.002.003.003h.003Zm1.452-.004-.003.002-.002.002h.004v-.004Zm-.001 0c.001-.003.001-.002 0 0Zm-1.456 0c-.002-.001-.003-.001 0 0Zm.001 0c-.002-.002-.002-.003 0 0Zm-1.2 3.488-.03.013.029.007.001-.02Zm-.213 1.174.002-.005-.002-.001v.005Zm0 .064v-.065l-.025.06.025.005Zm.264.5h-.002.002v.001-.001l.003-.002.007-.004-.009.003-.001.003Zm-.242-.027-.003.023.012-.019-.009-.004Z"/><defs><radialGradient id="a" cx="0" cy="0" r="1" gradientTransform="matrix(10 0 0 10 10 10)" gradientUnits="userSpaceOnUse"><stop stop-color="#D1D1D1"/><stop offset=".157" stop-color="#BABABA"/><stop offset=".487" stop-color="#807F7F"/><stop offset=".958" stop-color="#232222"/><stop offset="1" stop-color="#1B1A1A"/></radialGradient><radialGradient id="b" cx="0" cy="0" r="1" gradientTransform="translate(8.296 10.233) scale(.5846)" gradientUnits="userSpaceOnUse"><stop offset=".112" stop-color="#BFFB00"/><stop offset="1" stop-color="#678900"/></radialGradient><radialGradient id="e" cx="0" cy="0" r="1" gradientTransform="translate(11.562 10.281) scale(.66829)" gradientUnits="userSpaceOnUse"><stop offset=".112" stop-color="#BFFB00"/><stop offset="1" stop-color="#678900"/></radialGradient><linearGradient id="c" x1="7.422" x2="7.422" y1="7.825" y2="5.894" gradientUnits="userSpaceOnUse"><stop stop-color="#474747"/><stop offset="1" stop-color="#9FA0A2"/></linearGradient><linearGradient id="d" x1="12.475" x2="12.475" y1="7.808" y2="5.879" gradientUnits="userSpaceOnUse"><stop stop-color="#474747"/><stop offset="1" stop-color="#9FA0A2"/></linearGradient></defs></svg>