<svg width="20" height="20" fill="none" xmlns="http://www.w3.org/2000/svg"><g clip-path="url(#a)"><mask id="b" style="mask-type:luminance" maskUnits="userSpaceOnUse" x="0" y="0" width="20" height="20"><path d="M20 0H0v20h20V0Z" fill="#fff"/></mask><g mask="url(#b)"><path d="M10 0C4.478 0 0 4.478 0 10c0 .598.056 1.182.156 1.75h2.22c.284 0 .454-.092.564-.27l.78-1.292.998 3.098c.098.312.33.474.642.476.32.002.584-.194.646-.514l.724-3.412.788 5.44c.048.358.222.538.582.538h.004c.358 0 .53-.194.58-.55L10.29 4.676A.602.602 0 0 0 9.1 4.51l-.99 6.788-.666-4.53c-.044-.348-.308-.564-.596-.57-.326-.008-.568.196-.636.542l-.956 4.432-.764-2.378a.642.642 0 0 0-.542-.48c-.348-.042-.546.138-.692.376l-1.182 1.86H1.37a8.65 8.65 0 0 1 16.864-3.2h1.408C18.48 3.114 14.606 0 10 0Z" fill="url(#c)"/><path d="M19.844 8.25H17.62c-.284 0-.454.092-.564.27l-.78 1.292-.998-3.098a.636.636 0 0 0-.642-.476c-.32-.002-.584.194-.646.514l-.724 3.412-.788-5.44c-.048-.358-.222-.538-.582-.538h-.004c-.358 0-.53.194-.58.55L9.706 15.324a.602.602 0 0 0 1.19.166l.99-6.788.666 4.53c.044.348.308.564.596.57.326.008.568-.196.636-.542l.956-4.432.764 2.378c.06.258.29.45.542.48.348.042.546-.138.692-.376l1.182-1.86h.71a8.65 8.65 0 0 1-16.864 3.2H.358C1.52 16.886 5.396 20 10 20c5.522 0 10-4.478 10-10 0-.598-.056-1.182-.156-1.75Z" fill="url(#d)"/></g></g><defs><linearGradient id="c" x1="0" y1="0" x2="20" y2="20" gradientUnits="userSpaceOnUse"><stop stop-color="#FC829F"/><stop offset=".337" stop-color="#FF1C53"/><stop offset=".436" stop-color="#EA49F8"/><stop offset=".53" stop-color="#B250FF"/><stop offset=".634" stop-color="#5E5FF5"/><stop offset="1" stop-color="#323CFF"/></linearGradient><linearGradient id="d" x1="0" y1="0" x2="20" y2="20" gradientUnits="userSpaceOnUse"><stop stop-color="#FC829F"/><stop offset=".337" stop-color="#FF1C53"/><stop offset=".436" stop-color="#EA49F8"/><stop offset=".53" stop-color="#B250FF"/><stop offset=".634" stop-color="#5E5FF5"/><stop offset="1" stop-color="#323CFF"/></linearGradient><clipPath id="a"><path fill="#fff" d="M0 0h20v20H0z"/></clipPath></defs></svg>