<svg width="20" height="20" fill="none" xmlns="http://www.w3.org/2000/svg"><circle cx="10" cy="10" r="10" fill="url(#a)"/><path d="M10.22 2.615c.052.298.042.308-.163.195-.164-.082-.318-.082-.605 0-.339.103-.441.093-.78-.092l-.39-.205-.03.246c-.031.236-.144.297-.77.42-.102.021-.318.185-.482.36-.236.246-.369.307-.718.307-.41 0-.43.02-.39.257.042.164.01.256-.081.256-.195 0-.544.492-.667.964-.062.226-.174.646-.246.933a7.254 7.254 0 0 0-.205 1.047c-.052.41-.113.543-.236.543-.103 0-.318.092-.493.195-.266.164-.328.277-.39.718-.04.297-.04.697 0 .892.062.339.093.36.36.328.328-.05.4.062.328.462-.03.174.03.41.164.636.195.349.205.39.051.615-.092.144-.205.257-.256.257-.051 0-.092.072-.092.154 0 .092.092.153.235.153.206 0 .226.052.257.667.051 1.395.061 1.487.236 1.487.113 0 .164.103.174.308.01.441.308.882.728 1.087.205.092.441.205.523.246.082.041.185.226.216.4.092.431.266.626.39.431.071-.113.133-.103.359.051.153.093.43.185.605.195.184.01.523.082.759.144.246.061.728.113 1.087.092.472-.01.707.03.892.154.308.215.513.226.513.03 0-.266.184-.276.656-.06.585.266.677.256.677-.042 0-.195.062-.246.37-.297.205-.031.45-.134.553-.226.154-.143.206-.143.472 0a1.6 1.6 0 0 0 .585.154c.297 0 .307-.041.102-.564-.02-.062.103-.246.277-.41.246-.236.308-.38.308-.729 0-.236.051-.45.113-.471.072-.021.072-.175 0-.493-.072-.307-.072-.8 0-1.487.061-.564.113-1.22.123-1.467.01-.276.061-.43.143-.43.185 0 .165-.103-.061-.472-.287-.472-.287-.646-.03-1.2.225-.472.502-2.339.368-2.544-.03-.051-.205-.092-.38-.092-.317 0-.338-.03-.512-.595a5.292 5.292 0 0 1-.174-1.18c0-.594-.113-.738-.39-.46-.092.091-.195.05-.43-.175-.165-.164-.34-.39-.37-.503a2.723 2.723 0 0 0-.226-.461c-.154-.216-.174-.226-.287-.062-.123.164-.143.164-.37.01-.143-.102-.44-.164-.779-.164-.44 0-.625-.061-.923-.277-.205-.164-.42-.348-.461-.41-.154-.256-.308-.144-.236.174Zm1.293.626c.605.03.913.154 1.262.482.266.256.277.256.277.041 0-.308.133-.287.287.051.195.452.84 1.323.84 1.15 0-.093.093-.247.196-.34.184-.174.195-.153.143.483-.04.451-.01.81.103 1.128l.154.451-.934.072c-.502.03-1.159.062-1.456.062-.4 0-.574.05-.718.205-.102.112-.267.205-.359.205-.102 0-.297-.093-.441-.205-.236-.185-.41-.205-1.938-.205H7.247l-1.118.461c-.657.267-1.16.42-1.21.37-.124-.124.328-1.744.563-1.98.175-.175.175-.185-.02-.185-.257 0-.257-.072 0-.492.123-.195.39-.42.646-.533.236-.113.349-.206.256-.206-.338 0-.184-.205.154-.215.42-.01.636-.103.636-.297 0-.39.985-.606 1.641-.35.205.073.205.073.01-.143l-.194-.225.338.112c.287.103.359.093.462-.04.164-.226.328-.216.8.03.502.267.512.267.318-.113l-.165-.318.35.257c.225.174.492.267.8.287Zm4.041 3.938c-.061.739-.267 1.847-.4 2.093-.195.39-.39.44-1.518.44-.748 0-.964-.03-1.19-.194-.256-.195-.553-.8-.666-1.385-.062-.277-.277-.38-.595-.307-.123.03-.205.236-.287.759-.082.461-.205.8-.36.984-.235.267-.266.277-1.353.277-1.426 0-1.703-.133-1.928-.892-.082-.287-.154-.677-.154-.862 0-.471-.256-.513-1.149-.195-.41.154-.964.339-1.23.431-.513.154-.534.205-.616 1.098-.02.164-.082.318-.154.338-.174.062-.266-.4-.195-.933.082-.503.01-.462 1.805-1.139a30.32 30.32 0 0 0 1.262-.513c.226-.123.718-.153 2.062-.153 1.64 0 1.784.01 1.959.205.256.277.646.256.933-.052l.236-.256 1.774.02c1.703.031 1.775.042 1.764.236ZM6.94 8.318c.03.308.164.749.277.974.307.605.687.729 2.051.687 1.446-.04 1.518-.112 1.877-1.753.102-.452.38-.308.543.277.083.276.257.666.39.882.287.461.605.543 1.857.502.82-.03 1.169.072 1.169.339 0 .061.103.246.226.42.123.185.153.267.082.195-.082-.061-.175-.123-.216-.123-.072 0-.102.687-.133 2.646-.01.933-.041 1.344-.123 1.313-.072-.03-.092.113-.062.44.031.411 0 .534-.236.811-.153.185-.318.308-.369.267-.143-.092-.102.154.072.42.154.247.154.257-.041.257-.113 0-.308-.093-.441-.195-.246-.195-.246-.195-.687.061-.288.175-.534.247-.739.216-.328-.051-.328-.03-.123.533.051.123.01.123-.205-.02a3.9 3.9 0 0 0-.687-.328c-.41-.134-.42-.134-.42.102 0 .287-.072.308-.319.092-.123-.112-.42-.174-1.025-.184-1.344-.041-2.554-.42-2.554-.79 0-.123-.041-.185-.103-.154-.05.03-.102.154-.102.267 0 .318-.185.225-.257-.144-.082-.38-.359-.738-.461-.584-.123.194-.78-.37-.903-.8-.164-.534-.154-.636.062-.883.174-.194.174-.194-.082-.03-.349.236-.452.215-.267-.052.092-.123.164-.276.164-.338 0-.051-.04-.03-.102.051-.164.267-.247 0-.257-.861 0-.79-.01-.841-.195-.8-.195.051-.195.04.02-.257.227-.318.309-.707.134-.605-.205.134-.297-.933-.113-1.272.093-.164.082-.184-.061-.133-.144.051-.154.03-.051-.154.061-.113.112-.4.112-.625 0-.329.052-.441.226-.534.277-.143 1.723-.677 1.887-.697.062-.01.144.236.185.564Z" fill="#000"/><path d="M15.554 7.18c-.062.738-.267 1.846-.4 2.092-.195.39-.39.44-1.518.44-.749 0-.964-.03-1.19-.194-.256-.195-.554-.8-.667-1.385-.061-.277-.277-.38-.595-.307-.123.03-.205.236-.287.759-.082.461-.205.8-.359.984-.236.267-.266.277-1.353.277-1.426 0-1.703-.133-1.929-.892-.082-.287-.154-.677-.154-.862 0-.472-.256-.513-1.148-.195-.41.154-.964.339-1.231.431-.513.154-.533.205-.615 1.098-.02.164-.082.318-.154.338-.175.062-.267-.4-.195-.933.082-.503.01-.462 1.805-1.139a30.31 30.31 0 0 0 1.262-.513c.225-.123.717-.153 2.061-.153 1.641 0 1.785.01 1.96.205.255.277.645.256.932-.052l.236-.256 1.775.02c1.702.031 1.774.042 1.764.236Z" fill="#FF0125"/><path d="M6.94 8.318c.03.308.163.749.276.974.308.605.687.729 2.051.688 1.447-.042 1.518-.113 1.877-1.754.103-.452.38-.308.544.277.082.277.256.666.39.882.287.461.605.543 1.856.502.82-.03 1.17.072 1.17.339 0 .061.102.246.225.42.123.185.154.267.082.195-.082-.061-.174-.123-.215-.123-.072 0-.103.687-.134 2.646-.01.933-.04 1.344-.123 1.313-.072-.03-.092.113-.061.441.03.41 0 .533-.236.81-.154.185-.318.308-.37.267-.143-.092-.102.154.072.42.154.247.154.257-.04.257-.114 0-.308-.093-.442-.195-.246-.195-.246-.195-.687.061-.287.175-.533.247-.738.216-.329-.051-.329-.03-.123.533.05.123.01.123-.206-.02a3.897 3.897 0 0 0-.687-.328c-.41-.134-.42-.134-.42.102 0 .287-.072.308-.318.092-.123-.112-.42-.174-1.026-.184-1.343-.041-2.554-.42-2.554-.79 0-.123-.04-.185-.102-.154-.052.03-.103.154-.103.267 0 .318-.184.226-.256-.144-.082-.38-.36-.738-.462-.584-.123.194-.78-.37-.902-.8-.164-.534-.154-.636.061-.882.175-.195.175-.195-.082-.031-.349.236-.451.215-.267-.052.093-.123.165-.276.165-.338 0-.051-.041-.03-.103.051-.164.267-.246 0-.256-.861 0-.79-.01-.841-.195-.8-.195.051-.195.04.02-.257.226-.318.308-.707.134-.605-.206.134-.298-.933-.113-1.272.092-.164.082-.184-.062-.133-.143.051-.154.03-.051-.154.061-.113.113-.4.113-.625 0-.329.051-.441.225-.534.277-.143 1.723-.677 1.888-.697.061-.01.143.236.184.564ZM11.514 3.241c.605.03.912.154 1.261.482.267.256.277.256.277.041 0-.308.133-.287.287.051.195.452.841 1.323.841 1.15 0-.093.093-.247.195-.34.185-.174.195-.153.144.483-.041.451-.01.81.102 1.128l.154.451-.933.072a31.71 31.71 0 0 1-1.457.062c-.4 0-.574.05-.718.205-.102.112-.266.205-.359.205-.102 0-.297-.093-.44-.205-.236-.185-.41-.205-1.94-.205H7.248l-1.118.461c-.656.267-1.159.42-1.21.37-.123-.124.328-1.744.564-1.98.174-.175.174-.185-.02-.185-.257 0-.257-.072 0-.492.122-.195.389-.42.645-.533.236-.113.35-.206.257-.206-.339 0-.185-.205.154-.215.42-.01.636-.103.636-.297 0-.39.984-.606 1.64-.35.206.073.206.073.01-.143l-.194-.225.338.112c.288.103.36.093.462-.04.164-.226.328-.216.8.03.502.267.513.267.318-.113l-.164-.318.348.257c.226.174.493.267.8.287Z" fill="#CF7C3D"/><path d="M10.467 8.041c.072 1.21-.154 1.446-1.374 1.446-.923 0-1.2-.082-1.323-.38-.144-.379-.257-1.189-.195-1.425l.061-.256 1.405.03 1.395.031.031.554Z" fill="url(#b)"/><path d="M14.785 7.426c.236.01.236.03.195.738-.03.646-.072.76-.318.974-.39.339-1.549.36-1.949.041-.297-.235-.482-.759-.482-1.353 0-.37.01-.38.441-.41.37-.031 1.231-.021 2.113.01Z" fill="url(#c)"/><path d="m8.054 7.949.36-.557h.514c-.133.15-.395.495-.377.683.014.089.115.12.284.218.093.054-.044.814-.284 1.207l-.459-.06c.14-.205.322-.885.273-.956-.05-.07-.177-.1-.251-.218a.48.48 0 0 1-.06-.317ZM12.763 7.949l.36-.557h.514c-.133.15-.395.495-.377.683.014.089.114.12.284.218.093.054-.044.749-.284 1.142l-.437-.093c.14-.205.3-.787.251-.858-.05-.07-.177-.1-.251-.218a.48.48 0 0 1-.06-.317ZM9.103 7.993l.36-.558h.514c-.133.15-.395.495-.377.683.014.09.114.12.284.219.093.054-.044.814-.284 1.207l-.46-.06c.14-.205.323-.885.274-.956-.05-.071-.177-.1-.251-.218a.479.479 0 0 1-.06-.317ZM13.813 7.949l.36-.557h.514c-.133.15-.395.495-.377.683.014.089.114.12.284.218.093.054-.044.71-.284 1.104l-.46.043c.14-.205.323-.885.274-.956-.05-.07-.177-.1-.251-.218a.48.48 0 0 1-.06-.317Z" fill="#fff"/><path d="M8.365 7.303c-.83.04-.841.04-.903.338-.092.42.123 1.446.35 1.672.42.43 1.958.44 2.44.02.287-.236.482-1.097.38-1.651-.062-.359-.339-.472-1.057-.43-.205.01-.749.04-1.21.05Zm2.102.738c.072 1.21-.153 1.446-1.374 1.446-.923 0-1.2-.082-1.323-.38-.144-.379-.256-1.19-.195-1.425l.062-.256 1.405.03 1.395.031.03.554ZM12.2 7.303c-.143.143-.06 1.128.134 1.548.236.513.492.636 1.333.636 1.067 0 1.323-.236 1.477-1.364.133-.902.144-.892-1.466-.892-.78 0-1.447.03-1.477.072Zm2.585.123c.236.01.236.03.195.738-.03.646-.072.76-.318.974-.39.339-1.549.36-1.949.041-.297-.235-.482-.758-.482-1.353 0-.37.01-.38.441-.41.37-.031 1.231-.021 2.113.01ZM11 10.718c-2.062.041-2.462.082-2.749.236-.472.256-.738.738-.738 1.333 0 .872.43 1.395 1.425 1.733.595.206.872.236 2.37.236 1.384 0 1.794-.03 2.287-.194.718-.236.851-.431.697-1.036-.174-.718-.143-1.395.103-1.785.205-.338.205-.359.03-.492-.102-.072-.369-.123-.594-.113-.236.01-1.508.051-2.831.082Zm3.272.092c.112.072.102.175-.093.575-.225.461-.225.523-.102 1.118.205 1.025.195 1.097-.205 1.302-.452.236-1.528.4-2.677.4-1.56 0-2.708-.328-3.21-.933-.226-.267-.267-.41-.267-.985 0-.636.02-.697.349-1.005.45-.42.933-.492 2.81-.41.769.03 1.733.02 2.123-.031.985-.133 1.108-.133 1.272-.03Z" fill="#000"/><path d="M12.949 11.344c-.308.05-1.334.061-2.277.03l-1.713-.071-.308.317c-.37.36-.42.8-.154 1.252.36.595 1.518.872 3.262.769.625-.041 1.313-.113 1.518-.164l.369-.092-.051-.985c-.052-.78-.031-1.005.082-1.077.174-.113.092-.103-.728.02Zm.41.646c0 .297.051.697.113.882.123.348.03.502-.308.513-.113 0-.113-.031-.01-.154.205-.246.04-.451-.513-.687-.277-.113-.513-.247-.513-.298 0-.113-.728-.308-.861-.215-.062.03-.698.061-1.416.072-1.272 0-1.302 0-1.17-.206.196-.297.493-.338 1.806-.287.462.015 1.019.009 1.434-.015.165-.01.307-.021.412-.036 1.108-.164 1.026-.195 1.026.43Zm-2.626.492c.216.051.42.072.451.041.031-.03 0-.062-.071-.062-.072 0-.093-.05-.062-.102.03-.062.175-.103.308-.103.297 0 1.723.564 1.774.698.02.061-.102.195-.277.318-.266.195-.44.215-1.651.215-.759 0-1.538-.051-1.764-.123-.462-.133-1.046-.626-.985-.82.093-.267 1.344-.298 2.277-.062Z" fill="#000"/><path d="M13.36 11.99c0 .297.05.697.112.882.123.348.03.502-.308.513-.113 0-.113-.031-.01-.154.205-.246.041-.451-.513-.687-.277-.113-.513-.247-.513-.298.048-.238-.118-.533-.207-.651.165-.01.307-.022.413-.036 1.107-.164 1.025-.195 1.025.43Z" fill="url(#d)"/><path d="M12.129 12.246c0-.113-.728-.308-.862-.215-.061.03-.697.061-1.415.072-1.272 0-1.303 0-1.17-.206.196-.297.493-.338 1.806-.287.462.015 1.019.009 1.433-.015.09.118.256.413.208.651Z" fill="#2D0402"/><path d="M10.734 12.482c.215.051.42.072.45.041.032-.03 0-.062-.071-.062-.072 0-.092-.05-.061-.102.03-.062.174-.103.307-.103.298 0 1.723.564 1.775.698.02.061-.103.195-.277.318-.267.195-.441.215-1.652.215-.759 0-1.538-.051-1.764-.123-.461-.133-1.046-.626-.984-.82.092-.267 1.343-.298 2.277-.062Z" fill="#F9495E"/><path fill-rule="evenodd" clip-rule="evenodd" d="M14.273 10.81c.112.072.102.175-.093.575-.225.461-.225.523-.102 1.118.205 1.025.195 1.097-.205 1.302-.452.236-1.529.4-2.677.4-1.56 0-2.708-.328-3.21-.933-.226-.267-.267-.41-.267-.985 0-.636.02-.697.348-1.005.452-.42.934-.492 2.81-.41.77.03 1.734.02 2.124-.031.984-.133 1.107-.133 1.272-.03Zm-3.6.564c.943.031 1.969.02 2.277-.03.82-.123.902-.134.728-.02-.113.07-.134.296-.082 1.076l.051.985-.37.092c-.204.051-.892.123-1.517.164-1.744.103-2.903-.174-3.262-.77-.266-.45-.215-.892.154-1.25l.308-.318 1.713.071Z" fill="#F8565B"/><path d="M13.555 15.11c.033-.191-.195-.586-.307-.71.135.169.152.505.16.637v.003c.034.117.042.527-.06.677.103-.036.165-.366.207-.606ZM6.71 6.124c-.21-.021-.627.079-.809.132.122-.08.455-.243.809-.252.354-.008.654.186.76.284a6.201 6.201 0 0 0-.76-.164ZM9.67 5.37a11.663 11.663 0 0 0-.333-.671c.06.215.194.68.246.825.053.144.317.511.443.677a48.413 48.413 0 0 1-.355-.83ZM12.386 5.026c-.088-.253-.492-.444-.683-.508.245.1.484.428.574.58.109.113.118.651.109.906.082-.12.109-.66 0-.978ZM5.94 12.052c-.022-.145.118-.52.19-.689-.032.171-.091.559-.065.738.033.224.126.311.159.508.026.157.036.48.038.623-.055-.476-.295-1-.322-1.18ZM7.475 14.32c-.076-.125-.094-.525-.094-.71.037.171.135.55.23.705.117.193.237.237.344.405.086.135.222.428.28.558-.237-.415-.664-.804-.76-.959Z" fill="#000"/><defs><linearGradient id="a" x1="16.167" y1="2" x2="10" y2="20" gradientUnits="userSpaceOnUse"><stop stop-color="#A672C7"/><stop offset="1" stop-color="#582776"/></linearGradient><linearGradient id="b" x1="9.018" y1="9.487" x2="9.018" y2="7.426" gradientUnits="userSpaceOnUse"><stop offset=".335" stop-color="#FB93AA"/><stop offset=".62" stop-color="#7D4374"/></linearGradient><linearGradient id="c" x1="13.616" y1="9.406" x2="13.616" y2="7.397" gradientUnits="userSpaceOnUse"><stop offset=".335" stop-color="#FB93AA"/><stop offset=".62" stop-color="#7D4374"/></linearGradient><linearGradient id="d" x1="11.921" y1="12.421" x2="13.524" y2="12.421" gradientUnits="userSpaceOnUse"><stop stop-color="#960700"/><stop offset="1" stop-color="#ED2A1C"/></linearGradient></defs></svg>