<svg width="20" height="20" fill="none" xmlns="http://www.w3.org/2000/svg"><path fill="#fff" d="M0 0h20v20H0z"/><g filter="url(#a)"><path fill-rule="evenodd" clip-rule="evenodd" d="M5.464 4.083c0 .012.01.02.02.02.012 0 .021.02.021.042 0 .023.01.042.02.042.012 0 .022.018.022.041 0 .023.009.041.02.041.012 0 .021.019.021.042 0 .023.01.041.02.041.012 0 .022.019.022.042 0 .022.009.04.02.04.012 0 .02.02.02.042 0 .023.01.042.022.042.011 0 .02.018.02.041 0 .023.01.041.021.041.011 0 .02.028.02.062 0 .035.01.063.021.063.012 0 .021.016.021.036 0 .02.019.05.042.067a.113.113 0 0 1 .041.087c0 .032.01.058.02.058.012 0 .021.018.021.041 0 .023.01.042.021.042.012 0 .02.018.02.04 0 .024.01.042.022.042.011 0 .02.019.02.042 0 .022.01.041.021.041.011 0 .02.019.02.041 0 .023.01.042.021.042.012 0 .021.018.021.041 0 .023.01.042.02.042.012 0 .022.018.022.04 0 .024.009.042.02.042.012 0 .021.019.021.042 0 .022.01.041.02.041.012 0 .021.019.021.041 0 .023.01.042.021.042.012 0 .02.018.02.041 0 .023.01.042.022.042.011 0 .02.018.02.04 0 .024.01.042.021.042.011 0 .02.026.02.058 0 .034.018.07.042.087a.113.113 0 0 1 .042.087c0 .032.009.058.02.058.012 0 .021.017.021.037 0 .02.019.05.041.066a.113.113 0 0 1 .042.088c0 .031.01.057.02.057.012 0 .021.019.021.042 0 .022.01.041.021.041.011 0 .02.019.02.041 0 .023.01.042.021.042.012 0 .021.018.021.041 0 .023.01.041.02.041.012 0 .022.02.022.042 0 .023.009.041.02.041.012 0 .021.019.021.042 0 .022.01.041.02.041.012 0 .021.019.021.041 0 .023.01.042.021.042.012 0 .02.018.02.041 0 .023.01.041.022.041.011 0 .02.026.02.058 0 .034.017.07.042.087.023.017.041.047.041.067 0 .02.01.037.02.037.012 0 .022.026.022.057 0 .034.017.07.041.088a.113.113 0 0 1 .041.087c0 .031.01.057.021.057.012 0 .02.019.02.042 0 .022.01.041.022.041.011 0 .02.019.02.041 0 .023.01.042.021.042.011 0 .02.018.02.041 0 .023.01.042.021.042.012 0 .021.018.021.041 0 .023.01.041.02.041.012 0 .022.019.022.042 0 .022.009.041.02.041.012 0 .021.019.021.041 0 .023.01.042.02.042.012 0 .021.018.021.041 0 .023.01.042.021.042.012 0 .02.018.02.041 0 .023.01.041.022.041.01 0 .02.019.02.042 0 .023.01.041.021.041.011 0 .02.019.02.042 0 .022.01.04.021.04.012 0 .021.027.021.058 0 .034.017.07.042.088.022.016.041.046.041.066 0 .02.01.037.02.037.012 0 .021.028.021.062s.01.062.021.062c.012 0 .02.019.02.042 0 .022.01.041.022.041.01 0 .02.019.02.041 0 .023.01.042.021.042.011 0 .02.018.02.041 0 .023.01.042.021.042.012 0 .021.018.021.04 0 .024.01.042.02.042.012 0 .022.019.022.042 0 .022.009.041.02.041.012 0 .021.019.021.041 0 .023.01.042.02.042.012 0 .021.018.021.041 0 .023.01.042.021.042.011 0 .02.018.02.04 0 .024.01.042.022.042.01 0 .02.019.02.042 0 .022.01.041.02.041.012 0 .022.028.022.062s.009.062.02.062c.012 0 .021.024.021.053 0 .037-.032.085-.103.154a.475.475 0 0 0-.104.124c0 .013-.037.06-.083.104-.045.043-.083.094-.083.112 0 .019-.017.032-.041.032s-.042.014-.042.034c0 .018-.028.059-.062.09-.034.032-.062.073-.062.092 0 .019-.017.033-.041.033s-.042.014-.042.032c0 .018-.046.078-.103.133a.475.475 0 0 0-.104.125c0 .013-.037.059-.083.103-.045.044-.083.094-.083.112 0 .019-.017.033-.041.033s-.041.013-.041.033c0 .018-.028.059-.063.09-.034.033-.062.074-.062.092 0 .019-.017.033-.041.033s-.042.014-.042.032c0 .018-.046.078-.103.133a.478.478 0 0 0-.104.125c0 .013-.037.06-.083.103-.045.044-.082.094-.082.112 0 .019-.018.033-.042.033-.024 0-.041.014-.041.033 0 .018-.028.059-.062.09-.035.033-.063.074-.063.092 0 .02-.017.033-.04.033-.025 0-.042.014-.042.032 0 .018-.047.078-.104.133a.475.475 0 0 0-.104.125c0 .013-.037.06-.082.103-.046.044-.083.094-.083.112 0 .02-.018.033-.042.033-.024 0-.041.014-.041.033 0 .018-.028.06-.062.091-.034.032-.062.073-.062.091 0 .02-.018.033-.042.033-.024 0-.041.014-.041.032 0 .018-.047.078-.104.134a.478.478 0 0 0-.103.124c0 .013-.038.06-.083.103-.046.044-.083.094-.083.112 0 .02-.018.033-.041.033-.025 0-.042.014-.042.033 0 .018-.028.06-.062.091-.034.032-.062.073-.062.091 0 .02-.017.033-.042.033-.024 0-.041.014-.041.033 0 .018-.037.068-.083.112-.045.044-.083.09-.083.103a.475.475 0 0 1-.103.125c-.057.055-.104.115-.104.133 0 .018-.018.032-.041.032-.024 0-.042.014-.042.033 0 .018-.028.06-.062.091-.034.032-.062.073-.062.091 0 .02-.017.033-.041.033s-.042.014-.042.033c0 .018-.037.069-.083.112-.045.044-.083.09-.083.103a.475.475 0 0 1-.103.125c-.057.055-.104.115-.104.133 0 .018-.017.032-.041.032s-.042.014-.042.033c0 .019-.028.06-.062.091-.034.032-.062.073-.062.091 0 .02-.017.034-.041.034s-.042.013-.042.032c0 .018-.037.069-.083.112-.045.044-.082.09-.082.104a.475.475 0 0 1-.104.124c-.057.055-.104.115-.104.133 0 .019-.017.033-.04.033-.025 0-.042.013-.042.033 0 .018-.028.059-.063.09-.034.032-.062.073-.062.092 0 .019-.017.033-.041.033-.028 0-.042.013-.042.041 0 .041.014.041 2.042.041h2.04l.052-.05c.028-.028.05-.062.05-.075 0-.013.029-.05.063-.081.034-.032.062-.07.062-.083 0-.013.037-.06.083-.104.045-.043.083-.09.083-.103 0-.014.028-.05.062-.083.034-.032.062-.069.062-.083 0-.013.028-.05.062-.082s.062-.07.062-.083c0-.013.037-.06.083-.103.046-.044.083-.093.083-.108s.018-.042.041-.058c.023-.016.042-.046.042-.067 0-.023.015-.036.041-.036.024 0 .042-.014.042-.034 0-.018.027-.059.062-.09.034-.032.062-.071.062-.087s.018-.042.041-.058c.023-.017.042-.043.042-.059 0-.015.028-.054.062-.086.034-.032.062-.07.062-.083 0-.014.028-.05.062-.083.034-.032.062-.069.062-.082 0-.013.038-.06.083-.104.046-.044.083-.09.083-.103 0-.014.037-.06.083-.104.045-.043.083-.092.083-.107 0-.016.018-.042.041-.058.023-.017.041-.043.041-.058 0-.016.038-.064.083-.108.046-.043.083-.092.083-.107 0-.016.019-.042.042-.058.022-.017.041-.047.041-.067 0-.023.016-.037.041-.037s.042-.013.042-.033c0-.018.028-.059.062-.09.034-.033.062-.07.062-.084 0-.013.028-.05.062-.082.035-.032.062-.071.062-.087 0-.015.02-.042.042-.058.023-.017.041-.043.041-.059 0-.015.028-.054.062-.086.035-.032.063-.069.063-.082 0-.014.037-.06.082-.104.046-.044.083-.09.083-.104 0-.034.054-.082.092-.082.019 0 .033.017.033.041 0 .023.009.041.02.041.012 0 .021.036.021.079 0 .054.013.087.041.108a.113.113 0 0 1 .042.087c0 .031.01.057.02.057.012 0 .021.028.021.063 0 .034.01.062.021.062.011 0 .02.018.02.04 0 .024.01.042.021.042.012 0 .021.028.021.062s.01.062.02.062c.012 0 .022.019.022.042 0 .023.009.041.02.041.012 0 .021.028.021.062s.01.062.02.062c.012 0 .021.028.021.062s.01.062.021.062c.011 0 .02.019.02.042 0 .023.01.041.022.041.011 0 .02.019.02.042 0 .022.01.04.021.04.011 0 .02.029.02.063s.01.062.021.062c.012 0 .021.019.021.041 0 .023.01.042.02.042.012 0 .022.037.022.082 0 .046.009.083.02.083.012 0 .021.019.021.042 0 .022.01.041.02.041.012 0 .021.019.021.041 0 .023.01.042.021.042.011 0 .02.028.02.062s.01.062.022.062c.01 0 .02.019.02.041 0 .023.01.042.021.042.011 0 .02.018.02.041 0 .023.01.041.021.041.012 0 .021.038.021.083 0 .046.01.083.02.083.012 0 .021.019.021.041 0 .023.01.042.021.042.012 0 .021.028.021.062s.01.062.02.062c.012 0 .021.018.021.041 0 .023.01.042.021.042.011 0 .02.018.02.041 0 .023.01.041.021.041.012 0 .021.028.021.062s.01.063.021.063c.011 0 .02.027.02.062 0 .034.01.062.021.062.012 0 .021.018.021.041 0 .023.01.041.02.041.012 0 .021.028.021.062 0 .035.01.063.021.063.012 0 .02.018.02.04 0 .024.01.042.022.042.011 0 .02.028.02.062s.01.062.021.062c.011 0 .02.019.02.042 0 .023.01.041.021.041.012 0 .021.019.021.042 0 .022.01.04.02.04.012 0 .022.038.022.084 0 .045.009.082.02.082.012 0 .021.015.021.033 0 .094-.063.091 2.06.091 1.32 0 2-.006 2-.02a.02.02 0 0 0-.02-.02c-.012 0-.021-.02-.021-.042 0-.023-.01-.042-.021-.042-.012 0-.021-.018-.021-.041 0-.023-.01-.041-.02-.041-.012 0-.021-.026-.021-.058a.113.113 0 0 0-.042-.087c-.023-.017-.041-.047-.041-.067 0-.02-.01-.037-.021-.037-.011 0-.02-.028-.02-.062s-.01-.062-.021-.062c-.012 0-.021-.018-.021-.041 0-.023-.01-.042-.02-.042-.012 0-.021-.025-.021-.057a.113.113 0 0 0-.042-.087c-.023-.017-.041-.047-.041-.067 0-.02-.01-.037-.021-.037-.011 0-.02-.028-.02-.062s-.01-.062-.021-.062c-.012 0-.021-.019-.021-.041 0-.023-.01-.042-.021-.042-.011 0-.02-.018-.02-.041 0-.023-.01-.041-.021-.041-.012 0-.021-.019-.021-.042 0-.023-.01-.041-.02-.041-.012 0-.021-.019-.021-.041 0-.023-.01-.042-.021-.042-.012 0-.02-.018-.02-.041 0-.023-.01-.042-.022-.042-.011 0-.02-.026-.02-.057a.113.113 0 0 0-.042-.088.113.113 0 0 1-.041-.087c0-.031-.01-.057-.02-.057-.012 0-.022-.019-.022-.042 0-.022-.009-.041-.02-.041-.012 0-.021-.019-.021-.041 0-.023-.01-.042-.02-.042-.012 0-.021-.018-.021-.041 0-.023-.01-.042-.021-.042-.012 0-.02-.018-.02-.04 0-.024-.01-.042-.022-.042-.011 0-.02-.028-.02-.062s-.01-.063-.021-.063c-.011 0-.02-.018-.02-.04 0-.024-.01-.042-.021-.042-.012 0-.021-.019-.021-.042 0-.022-.01-.041-.02-.041-.012 0-.022-.019-.022-.041 0-.023-.009-.042-.02-.042-.012 0-.021-.018-.021-.041 0-.023-.01-.041-.02-.041-.012 0-.021-.02-.021-.042 0-.023-.01-.041-.021-.041-.012 0-.02-.019-.02-.042 0-.022-.01-.041-.022-.041-.011 0-.02-.019-.02-.041 0-.023-.01-.042-.021-.042-.011 0-.02-.028-.02-.062s-.01-.062-.022-.062c-.01 0-.02-.018-.02-.041 0-.023-.01-.042-.02-.042-.012 0-.022-.018-.022-.041 0-.023-.009-.041-.02-.041-.012 0-.021-.019-.021-.042 0-.022-.01-.041-.02-.041-.012 0-.021-.019-.021-.041 0-.023-.01-.042-.021-.042-.012 0-.02-.019-.02-.041 0-.023-.01-.042-.022-.042-.011 0-.02-.026-.02-.057a.113.113 0 0 0-.042-.087.113.113 0 0 1-.041-.088c0-.031-.01-.057-.02-.057-.012 0-.022-.019-.022-.042 0-.022-.009-.041-.02-.041-.012 0-.021-.019-.021-.041 0-.023-.01-.042-.02-.042-.012 0-.021-.026-.021-.057a.113.113 0 0 0-.042-.088c-.023-.016-.041-.046-.041-.066 0-.02-.01-.037-.021-.037-.011 0-.02-.028-.02-.062s-.01-.062-.022-.062c-.01 0-.02-.019-.02-.042 0-.022-.01-.04-.02-.04-.012 0-.022-.02-.022-.042 0-.023-.009-.042-.02-.042-.012 0-.021-.018-.021-.041 0-.023-.01-.041-.02-.041-.012 0-.021-.019-.021-.042 0-.022-.01-.041-.021-.041-.012 0-.02-.028-.02-.062s-.01-.062-.022-.062c-.011 0-.02-.017-.02-.037 0-.02-.019-.05-.042-.067a.113.113 0 0 1-.041-.087c0-.032-.01-.057-.02-.057-.012 0-.022-.02-.022-.042 0-.023-.009-.041-.02-.041-.012 0-.021-.028-.021-.062s-.01-.062-.02-.062c-.012 0-.021-.017-.021-.037 0-.02-.02-.05-.042-.067a.113.113 0 0 1-.041-.087c0-.032-.01-.058-.021-.058-.011 0-.02-.018-.02-.041 0-.023-.01-.041-.021-.041-.012 0-.021-.019-.021-.042 0-.023-.01-.041-.02-.041-.012 0-.022-.019-.022-.042 0-.022-.009-.04-.02-.04-.012 0-.021-.02-.021-.042 0-.023-.01-.042-.02-.042-.012 0-.021-.028-.021-.062s-.01-.062-.021-.062c-.011 0-.02-.016-.02-.037 0-.02-.02-.05-.042-.066a.113.113 0 0 1-.042-.088c0-.031-.009-.057-.02-.057-.012 0-.021-.019-.021-.041 0-.023-.01-.042-.02-.042-.012 0-.021-.018-.021-.041 0-.028.013-.042.04-.042.025 0 .042-.013.042-.032 0-.018.038-.069.083-.112.046-.044.083-.09.083-.104 0-.013.037-.06.083-.103.045-.044.083-.09.083-.103 0-.013.046-.07.103-.125a.482.482 0 0 0 .104-.124c0-.013.056-.078.124-.145a.647.647 0 0 0 .124-.145c0-.013.038-.06.083-.103.046-.044.083-.09.083-.103 0-.014.037-.06.083-.104.046-.044.083-.094.083-.112 0-.019.017-.033.041-.033s.042-.014.042-.033c0-.018.028-.059.062-.09.034-.033.062-.074.062-.092 0-.02.017-.033.041-.033s.042-.014.042-.033c0-.018.037-.068.083-.112.045-.044.083-.09.083-.103 0-.013.046-.069.103-.124a.479.479 0 0 0 .104-.125c0-.012.046-.068.103-.124a.478.478 0 0 0 .104-.124c0-.013.046-.068.103-.124a.475.475 0 0 0 .104-.124c0-.013.037-.06.083-.103.045-.044.083-.095.083-.113 0-.018.017-.032.041-.032.026 0 .041-.014.041-.037 0-.02.02-.05.042-.067.023-.016.041-.046.041-.066 0-.02.015-.037.033-.037.038 0 .092-.049.092-.083 0-.013.037-.06.083-.103.045-.044.082-.09.082-.104 0-.013.038-.06.083-.103.046-.044.083-.09.083-.103 0-.013.047-.07.104-.125a.481.481 0 0 0 .103-.124c0-.013.056-.078.124-.145a.652.652 0 0 0 .125-.145.48.48 0 0 1 .103-.124.479.479 0 0 0 .104-.124c0-.013.046-.069.103-.124a.48.48 0 0 0 .104-.124c0-.013.056-.078.124-.145a.64.64 0 0 0 .125-.146c0-.013.027-.05.062-.081.034-.032.062-.073.062-.092 0-.019.017-.033.041-.033s.042-.013.042-.032c0-.018.037-.069.082-.112.046-.044.083-.09.083-.104 0-.013.038-.06.083-.103.046-.044.083-.095.083-.112 0-.018.01-.033.02-.033a.02.02 0 0 0 .021-.02c0-.014-.673-.021-1.978-.021h-1.98l-.07.071c-.04.04-.073.082-.073.095 0 .013-.028.05-.062.082s-.062.069-.062.083c0 .013-.028.05-.062.082s-.062.07-.062.083c0 .014-.028.05-.062.083-.035.032-.063.069-.063.083 0 .013-.027.05-.062.082-.034.032-.062.073-.062.091 0 .02-.017.033-.041.033s-.042.014-.042.033c0 .019-.028.06-.062.092-.034.031-.062.07-.062.086 0 .016-.019.042-.041.058-.023.017-.042.043-.042.059 0 .015-.028.054-.062.086-.034.032-.062.07-.062.083 0 .014-.028.05-.062.083-.034.032-.062.073-.062.09 0 .02-.018.034-.042.034-.026 0-.041.014-.041.037 0 .02-.019.05-.042.066-.023.017-.041.043-.041.058 0 .016-.037.064-.083.108-.045.043-.083.092-.083.107 0 .016-.018.042-.041.058-.023.017-.042.043-.042.058 0 .016-.037.064-.082.108-.046.043-.083.09-.083.103 0 .013-.038.06-.083.104-.046.043-.083.09-.083.103 0 .014-.028.051-.062.083-.034.032-.062.069-.062.083 0 .013-.028.05-.063.082-.034.032-.062.07-.062.083 0 .014-.028.051-.062.083-.034.032-.062.073-.062.09 0 .02-.017.034-.041.034-.026 0-.042.014-.042.037 0 .02-.018.05-.041.066-.023.017-.042.047-.042.067 0 .023-.015.037-.041.037-.028 0-.041-.014-.041-.042 0-.022-.01-.04-.021-.04-.012 0-.02-.029-.02-.063s-.01-.062-.022-.062c-.011 0-.02-.019-.02-.041 0-.023-.01-.042-.021-.042-.011 0-.02-.018-.02-.041 0-.023-.01-.042-.021-.042-.012 0-.021-.027-.021-.062 0-.034-.01-.062-.02-.062-.012 0-.022-.018-.022-.041 0-.023-.009-.041-.02-.041-.012 0-.021-.019-.021-.042 0-.023-.01-.041-.02-.041-.012 0-.021-.028-.021-.062s-.01-.062-.021-.062c-.012 0-.02-.019-.02-.042 0-.022-.01-.041-.022-.041-.011 0-.02-.028-.02-.062s-.01-.062-.021-.062c-.011 0-.02-.019-.02-.042 0-.022-.01-.04-.021-.04-.012 0-.021-.02-.021-.042 0-.023-.01-.042-.02-.042-.012 0-.022-.028-.022-.062s-.009-.062-.02-.062c-.012 0-.021-.018-.021-.041 0-.023-.01-.042-.02-.042-.012 0-.021-.018-.021-.04 0-.024-.01-.042-.021-.042-.011 0-.02-.028-.02-.062 0-.035-.01-.062-.022-.062-.011 0-.02-.02-.02-.042 0-.023-.01-.041-.021-.041-.011 0-.02-.028-.02-.062s-.01-.062-.021-.062c-.012 0-.021-.019-.021-.042 0-.022-.01-.041-.02-.041-.012 0-.022-.019-.022-.041 0-.023-.009-.042-.02-.042-.012 0-.021-.028-.021-.062s-.01-.062-.02-.062c-.012 0-.021-.019-.021-.041 0-.023-.01-.042-.021-.042-.012 0-.02-.018-.02-.041 0-.023-.01-.041-.022-.041-.01 0-.02-.028-.02-.063 0-.034-.01-.062-.021-.062-.011 0-.02-.018-.02-.041 0-.023-.01-.041-.021-.041-.012 0-.021-.028-.021-.062 0-.035-.01-.062-.02-.062-.012 0-.022-.02-.022-.042 0-.023-.009-.041-.02-.041-.012 0-.021-.019-.021-.042 0-.022-.01-.041-.02-.041-.012 0-.021-.028-.021-.062s-.01-.062-.021-.062c-.012 0-.02-.019-.02-.041 0-.023-.01-.042-.022-.042-.01 0-.02-.018-.02-.041 0-.023-.01-.042-.021-.042-.011 0-.02-.028-.02-.062s-.01-.062-.021-.062c-.012 0-.021-.018-.021-.041 0-.041-.014-.042-1.947-.042-1.284 0-1.947.008-1.947.021Z" fill="#BDC5C1"/></g><path fill-rule="evenodd" clip-rule="evenodd" d="M5.151 3.77c0 .012.01.021.021.021.011 0 .02.019.02.042 0 .023.01.041.021.041.012 0 .021.019.021.042 0 .022.01.04.02.04.012 0 .022.02.022.042 0 .023.009.042.02.042.012 0 .021.018.021.041 0 .023.01.041.02.041.012 0 .021.019.021.042 0 .023.01.041.021.041.012 0 .02.019.02.042 0 .022.01.04.022.04.011 0 .02.029.02.063s.01.062.021.062c.011 0 .02.017.02.037 0 .02.02.05.042.066a.113.113 0 0 1 .042.088c0 .031.009.057.02.057.012 0 .021.019.021.042 0 .022.01.041.02.041.012 0 .021.019.021.041 0 .023.01.042.021.042.012 0 .02.018.02.041 0 .023.01.042.022.042.01 0 .02.018.02.04 0 .024.01.042.021.042.011 0 .02.019.02.042 0 .022.01.041.021.041.012 0 .021.019.021.041 0 .023.01.042.02.042.012 0 .022.018.022.041 0 .023.009.042.02.042.012 0 .021.018.021.04 0 .024.01.042.02.042.012 0 .021.019.021.042 0 .022.01.041.021.041.012 0 .02.019.02.041 0 .023.01.042.022.042.01 0 .02.026.02.057 0 .034.017.07.042.088a.113.113 0 0 1 .041.087c0 .032.01.057.02.057.012 0 .022.017.022.037 0 .02.018.05.041.067a.113.113 0 0 1 .041.087c0 .032.01.058.021.058.011 0 .02.018.02.041 0 .023.01.041.022.041.01 0 .02.02.02.042 0 .023.01.041.021.041.011 0 .02.019.02.042 0 .022.01.041.021.041.012 0 .021.019.021.041 0 .023.01.042.02.042.012 0 .022.018.022.041 0 .023.009.041.02.041.012 0 .021.02.021.042 0 .023.01.041.02.041.012 0 .021.019.021.042 0 .022.01.041.021.041.011 0 .02.026.02.057 0 .034.018.07.042.088.023.016.042.046.042.066 0 .02.009.037.02.037.012 0 .021.026.021.058 0 .033.017.07.042.087a.113.113 0 0 1 .04.087c0 .032.01.058.022.058.011 0 .02.018.02.041 0 .023.01.042.021.042.011 0 .02.018.02.041 0 .023.01.041.021.041.012 0 .021.019.021.042 0 .022.01.041.02.041.012 0 .022.019.022.041 0 .023.009.042.02.042.012 0 .021.018.021.041 0 .023.01.042.02.042.012 0 .021.018.021.041 0 .023.01.041.021.041.012 0 .02.019.02.042 0 .022.01.041.022.041.011 0 .02.019.02.041 0 .023.01.042.021.042.011 0 .02.018.02.041 0 .023.01.042.021.042.012 0 .021.018.021.041 0 .023.01.041.02.041.012 0 .022.026.022.058 0 .034.017.07.041.087.023.017.041.047.041.067 0 .02.01.037.021.037.012 0 .02.028.02.062s.01.062.022.062c.011 0 .02.018.02.041 0 .023.01.042.021.042.011 0 .02.018.02.04 0 .024.01.042.021.042.012 0 .021.019.021.042 0 .022.01.041.02.041.012 0 .022.019.022.041 0 .023.009.042.02.042.012 0 .021.018.021.041 0 .023.01.042.02.042.012 0 .021.018.021.04 0 .024.01.042.021.042.012 0 .02.019.02.042 0 .022.01.041.022.041.011 0 .02.019.02.041 0 .023.01.042.021.042.011 0 .02.018.02.041 0 .023.01.042.021.042.012 0 .021.027.021.062 0 .034.01.062.02.062.012 0 .022.024.022.053 0 .036-.033.084-.104.154a.475.475 0 0 0-.104.124c0 .013-.037.06-.082.103-.046.044-.083.094-.083.112 0 .02-.018.033-.042.033-.024 0-.041.014-.041.033 0 .018-.028.06-.062.091-.034.032-.062.073-.062.091 0 .02-.018.033-.042.033-.024 0-.041.014-.041.033 0 .017-.047.077-.104.133a.475.475 0 0 0-.103.124c0 .013-.038.06-.083.103-.046.044-.083.095-.083.112 0 .02-.018.033-.042.033-.024 0-.04.014-.04.033 0 .018-.029.06-.063.091-.034.032-.062.073-.062.091 0 .02-.017.033-.042.033-.023 0-.041.014-.041.033 0 .018-.047.077-.104.133a.478.478 0 0 0-.103.124c0 .013-.037.06-.083.103-.046.044-.083.095-.083.113 0 .018-.017.032-.041.032s-.042.014-.042.033c0 .018-.028.06-.062.091-.034.032-.062.073-.062.091 0 .02-.017.034-.041.034s-.042.013-.042.032c0 .018-.046.078-.103.133a.475.475 0 0 0-.104.124c0 .013-.037.06-.083.104-.045.043-.083.094-.083.112 0 .019-.017.032-.041.032s-.042.014-.042.034c0 .018-.028.059-.062.09-.034.032-.062.073-.062.092 0 .019-.017.033-.041.033s-.042.013-.042.032c0 .018-.046.078-.103.133a.478.478 0 0 0-.104.124c0 .014-.037.06-.083.104-.045.043-.083.094-.083.112 0 .019-.017.032-.041.032s-.041.014-.041.034c0 .018-.028.059-.063.09-.034.033-.062.074-.062.092 0 .019-.017.033-.041.033s-.042.014-.042.032c0 .018-.037.069-.082.113-.046.043-.083.09-.083.103a.475.475 0 0 1-.104.124c-.057.056-.103.116-.103.133 0 .019-.018.033-.042.033-.024 0-.041.014-.041.033 0 .018-.028.059-.062.09-.035.033-.063.074-.063.092 0 .02-.017.033-.04.033-.025 0-.042.014-.042.033 0 .018-.038.068-.083.112-.046.043-.083.09-.083.103a.475.475 0 0 1-.104.124c-.057.056-.103.116-.103.133 0 .019-.018.033-.042.033-.024 0-.041.014-.041.033 0 .018-.028.06-.062.091-.034.032-.062.073-.062.091 0 .02-.018.033-.042.033-.024 0-.041.014-.041.033 0 .018-.037.068-.083.112-.046.044-.083.09-.083.103a.475.475 0 0 1-.103.125c-.057.055-.104.115-.104.133 0 .018-.018.032-.041.032-.025 0-.042.014-.042.033 0 .018-.028.06-.062.091-.034.032-.062.073-.062.091 0 .02-.017.033-.042.033-.027 0-.041.014-.041.042 0 .04.014.041 2.041.041h2.041l.051-.05c.028-.029.051-.062.051-.075 0-.013.028-.05.062-.082s.062-.069.062-.082c0-.014.038-.06.083-.104.046-.044.083-.09.083-.104 0-.013.028-.05.062-.082s.062-.07.062-.083c0-.014.028-.05.062-.083.035-.032.063-.069.063-.082 0-.014.037-.06.082-.104.046-.044.083-.092.083-.108 0-.015.019-.041.042-.058.023-.016.041-.046.041-.066 0-.023.016-.037.042-.037.024 0 .041-.014.041-.033 0-.018.028-.06.062-.091.034-.032.062-.07.062-.087 0-.015.019-.042.042-.058.023-.016.041-.043.041-.058 0-.016.028-.055.062-.087.034-.032.062-.069.062-.082 0-.014.028-.051.063-.083.034-.032.062-.07.062-.082 0-.014.037-.06.083-.104.045-.044.082-.09.082-.104 0-.013.038-.06.083-.103.046-.044.083-.092.083-.108 0-.015.019-.041.042-.058.022-.016.041-.042.041-.058 0-.015.037-.063.083-.107.045-.044.083-.092.083-.108 0-.015.018-.041.041-.058.023-.016.042-.046.042-.066 0-.023.015-.037.041-.037.024 0 .041-.014.041-.033 0-.018.028-.06.063-.091.034-.032.062-.07.062-.083 0-.014.028-.051.062-.083.034-.032.062-.07.062-.086 0-.016.019-.042.041-.059.023-.016.042-.042.042-.058s.028-.055.062-.086c.034-.032.062-.07.062-.083 0-.013.037-.06.083-.104.046-.043.083-.09.083-.103 0-.034.054-.083.092-.083.018 0 .032.018.032.042 0 .022.01.04.02.04.012 0 .022.036.022.08 0 .053.012.086.04.107a.113.113 0 0 1 .042.087c0 .032.01.058.021.058.011 0 .02.028.02.062s.01.062.021.062c.012 0 .021.019.021.041 0 .023.01.042.02.042.012 0 .022.028.022.062s.009.062.02.062c.012 0 .021.018.021.041 0 .023.01.042.02.042.012 0 .021.028.021.062s.01.062.021.062c.012 0 .02.028.02.062s.01.062.022.062c.011 0 .02.018.02.041 0 .023.01.042.021.042.011 0 .02.018.02.041 0 .023.01.041.021.041.012 0 .021.028.021.063 0 .034.01.062.02.062.012 0 .022.018.022.04 0 .024.009.042.02.042.012 0 .021.037.021.083 0 .046.01.083.02.083.012 0 .021.018.021.041 0 .023.01.042.021.042.012 0 .02.018.02.04 0 .024.01.042.022.042.011 0 .02.028.02.062s.01.062.021.062c.011 0 .02.02.02.042 0 .023.01.041.021.041.012 0 .021.019.021.042 0 .022.01.04.02.04.012 0 .022.038.022.084 0 .045.009.082.02.082.012 0 .021.02.021.042 0 .023.01.041.02.041.012 0 .021.028.021.062s.01.062.021.062c.012 0 .02.019.02.042 0 .022.01.041.022.041.011 0 .02.019.02.041 0 .023.01.042.021.042.011 0 .02.028.02.062s.01.062.021.062c.012 0 .021.028.021.062s.01.062.02.062c.012 0 .022.019.022.041 0 .023.009.042.02.042.012 0 .021.028.021.062s.01.062.02.062c.012 0 .021.019.021.041 0 .023.01.042.021.042.012 0 .02.028.02.062s.01.062.022.062c.011 0 .02.018.02.041 0 .023.01.042.021.042.011 0 .02.018.02.041 0 .023.01.041.021.041.012 0 .021.038.021.083 0 .046.01.083.02.083.012 0 .022.014.022.032 0 .095-.064.092 2.06.092 1.319 0 2-.007 2-.02a.02.02 0 0 0-.021-.021c-.012 0-.021-.019-.021-.042 0-.022-.01-.041-.02-.041-.012 0-.021-.019-.021-.041 0-.023-.01-.042-.021-.042-.012 0-.02-.026-.02-.057a.113.113 0 0 0-.042-.088c-.023-.016-.042-.046-.042-.066 0-.02-.01-.037-.02-.037-.012 0-.021-.028-.021-.062s-.01-.062-.02-.062c-.012 0-.022-.019-.022-.042 0-.022-.009-.041-.02-.041-.012 0-.021-.026-.021-.057a.113.113 0 0 0-.041-.088c-.023-.016-.042-.046-.042-.066 0-.02-.01-.037-.02-.037-.012 0-.021-.028-.021-.062 0-.035-.01-.062-.021-.062-.011 0-.02-.019-.02-.042 0-.022-.01-.041-.022-.041-.01 0-.02-.019-.02-.041 0-.023-.01-.042-.02-.042-.012 0-.022-.019-.022-.041 0-.023-.009-.042-.02-.042-.012 0-.021-.018-.021-.041 0-.023-.01-.041-.02-.041-.012 0-.021-.019-.021-.042 0-.023-.01-.041-.021-.041-.011 0-.02-.026-.02-.058a.113.113 0 0 0-.042-.087.113.113 0 0 1-.042-.087c0-.032-.009-.058-.02-.058-.012 0-.021-.018-.021-.041 0-.023-.01-.042-.02-.042-.012 0-.022-.018-.022-.04 0-.024-.009-.042-.02-.042-.012 0-.021-.019-.021-.042 0-.022-.01-.041-.02-.041-.012 0-.021-.019-.021-.041 0-.023-.01-.042-.021-.042-.011 0-.02-.028-.02-.062s-.01-.062-.022-.062c-.011 0-.02-.019-.02-.041 0-.023-.01-.042-.021-.042-.011 0-.02-.018-.02-.041 0-.023-.01-.041-.021-.041-.012 0-.021-.02-.021-.042 0-.023-.01-.041-.02-.041-.012 0-.022-.019-.022-.042 0-.022-.009-.041-.02-.041-.012 0-.021-.019-.021-.041 0-.023-.01-.042-.02-.042-.012 0-.021-.018-.021-.041 0-.023-.01-.042-.021-.042-.011 0-.02-.018-.02-.04 0-.024-.01-.042-.022-.042-.01 0-.02-.028-.02-.062s-.01-.062-.021-.062c-.011 0-.02-.019-.02-.042 0-.022-.01-.041-.021-.041-.012 0-.021-.019-.021-.042 0-.022-.01-.04-.02-.04-.012 0-.021-.02-.021-.042 0-.023-.01-.042-.021-.042-.012 0-.021-.018-.021-.041 0-.023-.01-.041-.02-.041-.012 0-.021-.019-.021-.042 0-.022-.01-.041-.021-.041-.011 0-.02-.026-.02-.058a.113.113 0 0 0-.042-.087.113.113 0 0 1-.042-.087c0-.032-.009-.058-.02-.058-.012 0-.021-.018-.021-.041 0-.023-.01-.041-.02-.041-.012 0-.021-.02-.021-.042 0-.023-.01-.041-.021-.041-.012 0-.021-.026-.021-.058a.113.113 0 0 0-.041-.087c-.023-.017-.042-.046-.042-.067 0-.02-.01-.037-.02-.037-.012 0-.021-.027-.021-.062 0-.034-.01-.062-.021-.062-.011 0-.02-.018-.02-.041 0-.023-.01-.041-.021-.041-.012 0-.021-.019-.021-.042 0-.022-.01-.041-.02-.041-.012 0-.021-.019-.021-.041 0-.023-.01-.042-.021-.042-.012 0-.02-.019-.02-.041 0-.023-.01-.042-.022-.042-.011 0-.02-.028-.02-.062s-.01-.062-.021-.062c-.011 0-.02-.016-.02-.037 0-.02-.02-.05-.042-.066a.113.113 0 0 1-.042-.088c0-.031-.009-.057-.02-.057-.012 0-.021-.019-.021-.041 0-.023-.01-.042-.02-.042-.012 0-.021-.028-.021-.062s-.01-.062-.021-.062c-.012 0-.02-.017-.02-.037 0-.02-.02-.05-.042-.066a.113.113 0 0 1-.042-.088c0-.031-.01-.057-.02-.057-.012 0-.021-.019-.021-.042 0-.022-.01-.04-.02-.04-.012 0-.022-.02-.022-.042 0-.023-.009-.042-.02-.042-.012 0-.021-.018-.021-.041 0-.023-.01-.041-.02-.041-.012 0-.021-.019-.021-.042 0-.023-.01-.041-.021-.041-.012 0-.02-.028-.02-.062s-.01-.062-.022-.062c-.011 0-.02-.017-.02-.037 0-.02-.019-.05-.042-.067a.113.113 0 0 1-.041-.087c0-.032-.01-.058-.02-.058-.012 0-.022-.018-.022-.041 0-.023-.009-.041-.02-.041-.012 0-.021-.019-.021-.042 0-.027.014-.041.041-.041.024 0 .042-.014.042-.033 0-.018.037-.068.083-.112.045-.044.083-.09.083-.103 0-.013.037-.06.082-.104.046-.044.083-.09.083-.103 0-.013.047-.069.104-.124a.482.482 0 0 0 .103-.124c0-.013.056-.078.125-.145a.647.647 0 0 0 .124-.146c0-.012.037-.059.083-.103.045-.043.083-.09.083-.103 0-.013.037-.06.082-.103.046-.044.083-.095.083-.113 0-.018.018-.032.042-.032.024 0 .041-.014.041-.033 0-.019.028-.06.062-.091.034-.032.063-.073.063-.091 0-.02.017-.034.04-.034.025 0 .042-.013.042-.032 0-.018.038-.069.083-.112.046-.044.083-.09.083-.103 0-.013.047-.07.104-.125a.479.479 0 0 0 .103-.124c0-.013.047-.069.104-.124a.478.478 0 0 0 .103-.124c0-.013.047-.069.104-.124a.475.475 0 0 0 .103-.125c0-.013.038-.06.083-.103.046-.044.083-.094.083-.112 0-.019.018-.033.042-.033.026 0 .041-.014.041-.037 0-.02.019-.05.041-.066.023-.017.042-.047.042-.067 0-.02.014-.037.032-.037.038 0 .092-.048.092-.083 0-.013.037-.06.083-.103.045-.044.083-.09.083-.103 0-.013.037-.06.083-.104.045-.043.083-.09.083-.103 0-.013.046-.069.103-.124a.481.481 0 0 0 .104-.124c0-.013.056-.078.124-.145a.652.652 0 0 0 .124-.145.48.48 0 0 1 .104-.124.479.479 0 0 0 .103-.124c0-.013.047-.069.104-.124a.48.48 0 0 0 .104-.124c0-.013.055-.078.124-.145a.64.64 0 0 0 .124-.146c0-.013.028-.05.062-.082s.062-.073.062-.091c0-.02.018-.033.042-.033.024 0 .041-.014.041-.033 0-.018.037-.068.083-.112.046-.044.083-.09.083-.103 0-.014.037-.06.083-.104.045-.044.083-.094.083-.112 0-.018.009-.033.02-.033a.02.02 0 0 0 .021-.02c0-.014-.673-.021-1.979-.021h-1.979l-.071.072c-.04.04-.072.082-.072.095 0 .013-.028.05-.062.081-.034.032-.063.07-.063.083 0 .014-.027.05-.062.083-.034.032-.062.069-.062.083 0 .013-.028.05-.062.082s-.062.07-.062.083c0 .014-.028.05-.062.083-.034.032-.062.073-.062.09 0 .02-.018.034-.042.034-.024 0-.041.014-.041.033 0 .018-.028.06-.062.091-.034.032-.063.07-.063.087 0 .015-.018.041-.04.058-.024.016-.042.043-.042.058 0 .016-.028.055-.063.087-.034.032-.062.069-.062.082 0 .014-.028.051-.062.083-.034.032-.062.073-.062.091 0 .02-.017.033-.041.033-.026 0-.042.014-.042.037 0 .02-.018.05-.041.067-.023.016-.042.042-.042.058 0 .015-.037.064-.082.107-.046.044-.083.092-.083.108 0 .015-.019.041-.042.058-.023.016-.041.042-.041.058 0 .015-.037.064-.083.107-.046.044-.083.09-.083.104 0 .013-.037.06-.083.103-.045.044-.083.09-.083.104 0 .013-.028.05-.062.082s-.062.07-.062.083c0 .014-.028.051-.062.083-.034.032-.062.069-.062.083 0 .013-.028.05-.062.082s-.062.073-.062.091c0 .02-.018.033-.042.033-.026 0-.041.014-.041.037 0 .02-.019.05-.042.067-.022.016-.041.046-.041.067 0 .023-.016.036-.042.036-.027 0-.041-.013-.041-.041 0-.023-.01-.041-.02-.041-.012 0-.021-.028-.021-.062 0-.035-.01-.063-.021-.063-.011 0-.02-.018-.02-.04 0-.024-.01-.042-.021-.042-.012 0-.021-.019-.021-.042 0-.022-.01-.041-.021-.041-.011 0-.02-.028-.02-.062s-.01-.062-.021-.062c-.012 0-.021-.019-.021-.042 0-.022-.01-.04-.02-.04-.012 0-.021-.02-.021-.042 0-.023-.01-.042-.021-.042-.012 0-.02-.028-.02-.062s-.01-.062-.022-.062c-.011 0-.02-.018-.02-.041 0-.023-.01-.042-.021-.042-.011 0-.02-.027-.02-.062 0-.034-.01-.062-.022-.062-.01 0-.02-.018-.02-.041 0-.023-.01-.041-.02-.041-.012 0-.022-.02-.022-.042 0-.023-.009-.041-.02-.041-.012 0-.021-.028-.021-.062s-.01-.062-.02-.062c-.012 0-.022-.019-.022-.042 0-.022-.009-.041-.02-.041-.012 0-.02-.019-.02-.041 0-.023-.01-.042-.022-.042-.011 0-.02-.028-.02-.062s-.01-.062-.021-.062c-.011 0-.02-.019-.02-.041 0-.023-.01-.042-.021-.042-.012 0-.021-.028-.021-.062s-.01-.062-.02-.062c-.012 0-.022-.018-.022-.041 0-.023-.009-.042-.02-.042-.012 0-.021-.018-.021-.041 0-.023-.01-.041-.02-.041-.012 0-.021-.028-.021-.062 0-.035-.01-.062-.021-.062-.012 0-.02-.02-.02-.042 0-.023-.01-.041-.022-.041-.011 0-.02-.019-.02-.042 0-.022-.01-.041-.021-.041-.011 0-.02-.028-.02-.062s-.01-.062-.021-.062c-.012 0-.021-.019-.021-.041 0-.023-.01-.042-.02-.042-.012 0-.022-.028-.022-.062s-.009-.062-.02-.062c-.012 0-.021-.019-.021-.041 0-.023-.01-.042-.02-.042-.012 0-.021-.018-.021-.041 0-.023-.01-.041-.021-.041-.012 0-.02-.028-.02-.063 0-.034-.01-.062-.022-.062-.011 0-.02-.018-.02-.041 0-.023-.01-.041-.021-.041-.011 0-.02-.019-.02-.042 0-.023-.01-.041-.021-.041-.012 0-.021-.028-.021-.062s-.01-.062-.02-.062c-.012 0-.022-.019-.022-.042 0-.04-.013-.041-1.947-.041-1.284 0-1.947.007-1.947.02Z" fill="url(#b)"/><defs><linearGradient id="b" x1="9.688" y1="3.75" x2="9.688" y2="15.625" gradientUnits="userSpaceOnUse"><stop stop-color="#A02AA3"/><stop offset=".511" stop-color="#FB145A"/><stop offset="1" stop-color="#F86628"/></linearGradient><filter id="a" x="1.813" y="3.063" width="16.375" height="13.875" filterUnits="userSpaceOnUse" color-interpolation-filters="sRGB"><feFlood flood-opacity="0" result="BackgroundImageFix"/><feBlend in="SourceGraphic" in2="BackgroundImageFix" result="shape"/><feGaussianBlur stdDeviation=".5" result="effect1_foregroundBlur_3340_20147"/></filter></defs></svg>