<svg xmlns="http://www.w3.org/2000/svg" width="20" height="20" fill="none"><g filter="url(#a)"><path fill="url(#b)" d="M5.468 3.093c-.952.33-1.474 1.335-1.478 2.838 0 .79.57 1.665 1.185 1.825.792.207 8.79 1.01 10.028 1.006 1.674-.006 2.442-1.802 1.258-2.944-.356-.34-1.188-.59-6.047-1.81-4.24-1.062-4.42-1.095-4.946-.915Zm2.949 1.649a278.4 278.4 0 0 1 6.257 1.595c1.161.313 1.41.59.988 1.093l-.176.21-.573-.043c-4.23-.32-9.289-.907-9.492-1.1-.456-.426-.233-1.992.313-2.232.266-.116.157-.136 2.683.477Z"/><path fill="url(#c)" d="M5.468 3.093c-.952.33-1.474 1.335-1.478 2.838 0 .79.57 1.665 1.185 1.825.792.207 8.79 1.01 10.028 1.006 1.674-.006 2.442-1.802 1.258-2.944-.356-.34-1.188-.59-6.047-1.81-4.24-1.062-4.42-1.095-4.946-.915Zm2.949 1.649a278.4 278.4 0 0 1 6.257 1.595c1.161.313 1.41.59.988 1.093l-.176.21-.573-.043c-4.23-.32-9.289-.907-9.492-1.1-.456-.426-.233-1.992.313-2.232.266-.116.157-.136 2.683.477Z"/><path fill="url(#d)" d="M5.468 3.093c-.952.33-1.474 1.335-1.478 2.838 0 .79.57 1.665 1.185 1.825.792.207 8.79 1.01 10.028 1.006 1.674-.006 2.442-1.802 1.258-2.944-.356-.34-1.188-.59-6.047-1.81-4.24-1.062-4.42-1.095-4.946-.915Zm2.949 1.649a278.4 278.4 0 0 1 6.257 1.595c1.161.313 1.41.59.988 1.093l-.176.21-.573-.043c-4.23-.32-9.289-.907-9.492-1.1-.456-.426-.233-1.992.313-2.232.266-.116.157-.136 2.683.477Z"/><path fill="url(#e)" d="M2.007 8.77C.599 8.945-.386 10.78.253 12.033c.29.563 5.008 5.216 5.6 5.52.563.29.81.303 5.459.3 5.561-.004 5.175.083 6.337-1.43 2.316-3.018 2.612-3.667 2.186-4.807-.506-1.352-.832-1.469-5.228-1.852-3.924-.343-10.9-.936-11.382-.973-.293-.02-.593-.046-.666-.056a3.2 3.2 0 0 0-.552.033Zm3.248 1.388c1.301.11 2.782.23 3.295.27 4.765.373 9.435.853 9.764 1.003.41.186.626 1.003.393 1.476-.33.666-2.51 3.517-2.792 3.654-.227.11-7.186.173-8.55.077l-.919-.064-.479-.46c-.263-.25-1.315-1.252-2.336-2.221-2.157-2.05-2.37-2.289-2.37-2.689 0-.853.523-1.349 1.331-1.269.167.017 1.365.117 2.663.223Z"/><path fill="url(#f)" d="M2.007 8.77C.599 8.945-.386 10.78.253 12.033c.29.563 5.008 5.216 5.6 5.52.563.29.81.303 5.459.3 5.561-.004 5.175.083 6.337-1.43 2.316-3.018 2.612-3.667 2.186-4.807-.506-1.352-.832-1.469-5.228-1.852-3.924-.343-10.9-.936-11.382-.973-.293-.02-.593-.046-.666-.056a3.2 3.2 0 0 0-.552.033Zm3.248 1.388c1.301.11 2.782.23 3.295.27 4.765.373 9.435.853 9.764 1.003.41.186.626 1.003.393 1.476-.33.666-2.51 3.517-2.792 3.654-.227.11-7.186.173-8.55.077l-.919-.064-.479-.46c-.263-.25-1.315-1.252-2.336-2.221-2.157-2.05-2.37-2.289-2.37-2.689 0-.853.523-1.349 1.331-1.269.167.017 1.365.117 2.663.223Z"/><path fill="url(#g)" d="M2.007 8.77C.599 8.945-.386 10.78.253 12.033c.29.563 5.008 5.216 5.6 5.52.563.29.81.303 5.459.3 5.561-.004 5.175.083 6.337-1.43 2.316-3.018 2.612-3.667 2.186-4.807-.506-1.352-.832-1.469-5.228-1.852-3.924-.343-10.9-.936-11.382-.973-.293-.02-.593-.046-.666-.056a3.2 3.2 0 0 0-.552.033Zm3.248 1.388c1.301.11 2.782.23 3.295.27 4.765.373 9.435.853 9.764 1.003.41.186.626 1.003.393 1.476-.33.666-2.51 3.517-2.792 3.654-.227.11-7.186.173-8.55.077l-.919-.064-.479-.46c-.263-.25-1.315-1.252-2.336-2.221-2.157-2.05-2.37-2.289-2.37-2.689 0-.853.523-1.349 1.331-1.269.167.017 1.365.117 2.663.223Z"/></g><defs><linearGradient id="b" x1="12.253" x2="11.272" y1="6.564" y2="3.006" gradientUnits="userSpaceOnUse"><stop stop-color="#1E3197"/><stop offset="1" stop-color="#7B61FF" stop-opacity="0"/></linearGradient><linearGradient id="c" x1="10.861" x2="10.469" y1="3.01" y2="10.317" gradientUnits="userSpaceOnUse"><stop stop-color="#9644B4"/><stop offset="1" stop-color="#fff" stop-opacity="0"/></linearGradient><linearGradient id="e" x1="12.689" x2="11.085" y1="14.368" y2="8.757" gradientUnits="userSpaceOnUse"><stop stop-color="#1E3197"/><stop offset="1" stop-color="#7B61FF" stop-opacity="0"/></linearGradient><linearGradient id="f" x1="10.56" x2="9.916" y1="8.733" y2="20.316" gradientUnits="userSpaceOnUse"><stop stop-color="#9644B4"/><stop offset="1" stop-color="#fff" stop-opacity="0"/></linearGradient><radialGradient id="d" cx="0" cy="0" r="1" gradientTransform="matrix(9.94404 2.36974 -1.59733 6.7028 5.292 4.59)" gradientUnits="userSpaceOnUse"><stop stop-color="#1DD2D2"/><stop offset="1" stop-color="#fff" stop-opacity="0"/></radialGradient><radialGradient id="g" cx="0" cy="0" r="1" gradientTransform="matrix(15.2067 3.75728 -2.61527 10.5847 2.045 11.237)" gradientUnits="userSpaceOnUse"><stop stop-color="#1DD2D2"/><stop offset="1" stop-color="#fff" stop-opacity="0"/></radialGradient><filter id="a" width="26.295" height="21.194" x=".054" y="3.01" color-interpolation-filters="sRGB" filterUnits="userSpaceOnUse"><feFlood flood-opacity="0" result="BackgroundImageFix"/><feBlend in="SourceGraphic" in2="BackgroundImageFix" result="shape"/><feColorMatrix in="SourceAlpha" result="hardAlpha" values="0 0 0 0 0 0 0 0 0 0 0 0 0 0 0 0 0 0 127 0"/><feOffset dx="6.35" dy="6.35"/><feGaussianBlur stdDeviation="6.35"/><feComposite in2="hardAlpha" k2="-1" k3="1" operator="arithmetic"/><feColorMatrix values="0 0 0 0 0.470833 0 0 0 0 0.470833 0 0 0 0 0.470833 0 0 0 0.38 0"/><feBlend in2="shape" result="effect1_innerShadow_4436_57448"/></filter></defs></svg>