<svg width="20" height="20" fill="none" xmlns="http://www.w3.org/2000/svg"><g clip-path="url(#a)"><path d="M10 20c5.523 0 10-4.477 10-10S15.523 0 10 0 0 4.477 0 10s4.477 10 10 10Z" fill="#000"/><path d="M10 4.3a3.245 3.245 0 0 0-2.301.972 3.28 3.28 0 0 0-.943 2.323v1.088H9.39V7.106a.566.566 0 0 1 .346-.52.558.558 0 0 1 .215-.043h.095a.558.558 0 0 1 .518.348.568.568 0 0 1 .043.215v4.227a2.624 2.624 0 0 0 1.863-.776 2.65 2.65 0 0 0 .772-1.874V7.595a3.31 3.31 0 0 0-.95-2.33A3.216 3.216 0 0 0 9.999 4.3Zm.047 9.172h-.095a.559.559 0 0 1-.56-.564V8.683a2.621 2.621 0 0 0-1.864.775 2.65 2.65 0 0 0-.772 1.874v1.073a3.277 3.277 0 0 0 .938 2.328A3.244 3.244 0 0 0 10 15.7a3.228 3.228 0 0 0 2.305-.967 3.261 3.261 0 0 0 .938-2.328v-1.073h-2.635v1.576a.566.566 0 0 1-.56.564Z" fill="#fff"/><path d="m17.031 10 3.04 5.023-3.029-1.294-.01-3.729Z" fill="#E68F7B"/><path d="M14 15.023 17.031 10l.012 3.729L14 15.023Z" fill="#F8EC7C"/><path d="M17.031 16.875 14 15.023l3.043-1.294-.012 3.146Z" fill="#6EB87D"/><path d="m20.071 15.023-3.029-1.294-.01 3.146 3.039-1.852Z" fill="#946BA7"/><path d="m17.031 17.513 3.04-1.802-3.04 4.283v-2.481Z" fill="#697CB9"/><path d="M17.031 17.513 14 15.71l3.031 4.283v-2.481Z" fill="#4FADD0"/></g><defs><clipPath id="a"><path fill="#fff" d="M0 0h20v20H0z"/></clipPath></defs></svg>