<?xml version="1.0" encoding="UTF-8"?>
<svg width="48px" height="48px" viewBox="0 0 48 48" version="1.1" xmlns="http://www.w3.org/2000/svg" xmlns:xlink="http://www.w3.org/1999/xlink">
    <!-- Generator: Sketch 53.2 (72643) - https://sketchapp.com -->
    <title>btc</title>
    <desc>Created with Sketch.</desc>
    <g id="btc" stroke="none" stroke-width="1" fill="none" fill-rule="evenodd">
        <g id="np_bitcoin_1305934_000000" transform="translate(1.000000, 0.000000)" fill="#000000" fill-rule="nonzero">
            <path d="M24.4106667,26.5706667 C31.7482667,26.5706667 37.696,20.6229333 37.696,13.2853333 C37.696,5.94773333 31.7461333,0 24.4106667,0 C17.0730667,0 11.1232,5.94773333 11.1232,13.2853333 C11.1232,20.6229333 17.0730667,26.5706667 24.4106667,26.5706667 Z M17.9376,17.7146667 L19.93968,17.7146667 L19.93968,9 L17.9376,9 L17.9376,6.82501333 L20.2584533,6.82501333 L20.2584533,4.90208 L22.43344,4.90208 L22.43344,6.82501333 L23.8084267,6.82501333 L23.8084267,4.90208 L25.9834133,4.90208 L25.9834133,6.83749333 C26.6125867,6.85416 27.1146667,6.893744 27.4771733,6.95416 C27.985504,7.03957867 28.43968,7.21874133 28.84176,7.49373333 C29.24176,7.76665067 29.5771733,8.12914667 29.84384,8.58541333 C30.112592,9.03957867 30.24384,9.55 30.24384,10.1145867 C30.24384,10.7270667 30.0792587,11.2895733 29.7500907,11.7978933 C29.4209227,12.3083093 28.973024,12.6916533 28.4084373,12.9478667 C29.2042773,13.1791147 29.8167573,13.57496 30.2438507,14.1333067 C30.670944,14.6916533 30.885504,15.3478667 30.885504,16.1020533 C30.885504,16.6958133 30.74592,17.27288 30.4709227,17.8353867 C30.19384,18.3958133 29.816736,18.8457867 29.3375893,19.1812 C28.8605067,19.5186987 28.2688427,19.7228533 27.5688427,19.7999733 C27.2938453,19.8291403 26.7459093,19.8520565 25.9813227,19.8687253 L25.9813227,21.6708053 L23.806336,21.6708053 L23.806336,19.8895787 L22.4292693,19.8895787 L22.4292693,21.6708053 L20.2542827,21.6708053 L20.2542827,19.8895787 L17.9334293,19.8895787 L17.9355125,17.714592 L17.9376,17.7146667 Z" id="Shape"></path>
            <path d="M26.8272,17.6085333 C27.2209493,17.5377013 27.53968,17.3626987 27.7855467,17.085616 C28.0313813,16.8106187 28.1563787,16.4398027 28.1563787,15.977296 C28.1563787,15.5835467 28.060544,15.2502027 27.86888,14.979376 C27.679296,14.7043733 27.4042987,14.5064587 27.0459467,14.381456 C26.6876107,14.2585387 25.9063733,14.1939573 24.7063733,14.1939573 L22.57512,14.1939573 L22.57512,17.6877173 L25.0167733,17.6877173 C25.96888,17.6877173 26.57096,17.6606341 26.8271733,17.6085493 L26.8272,17.6085333 Z" id="Path"></path>
            <path d="M26.2208,11.9749333 C26.6708,11.9228501 27.02704,11.7666027 27.2853867,11.5061813 C27.5437227,11.2499307 27.6728853,10.9082613 27.6728853,10.485328 C27.6728853,10.0811627 27.560384,9.75407467 27.339552,9.501968 C27.1166347,9.24988267 26.7853653,9.09571733 26.343712,9.041552 C26.083296,9.0123856 25.331232,8.99780213 24.0895253,8.99780213 L22.5749653,8.99988533 L22.5749653,12.0207387 L24.3041387,12.0207387 C25.333312,12.0207387 25.9708053,12.004072 26.220832,11.9749056 L26.2208,11.9749333 Z" id="Path"></path>
            <path d="M8.5792,48 C9.039616,48 9.50213333,47.8541653 9.89589333,47.5541653 L15.59776,43.1874987 C15.9956747,43.2312491 16.39152,43.2374987 16.7936,43.2374987 L29.7978667,43.2374987 C30.170784,43.2374987 30.5582933,43.2374987 30.9645333,43.1937488 C31.349952,43.1520821 31.6707733,42.9354128 31.8645333,42.6312421 C32.1061973,42.4854075 32.3353653,42.3124901 32.53952,42.1062395 L44.37312,30.2726395 C45.18352,29.4622395 45.6168533,28.3372261 45.56272,27.1851195 C45.5085547,26.0372261 44.96896,24.9559461 44.0835733,24.2246928 C42.4773333,22.8934395 40.0127467,23.0601061 38.4771733,24.5955248 L33.43344,29.6392581 C32.954272,29.4184261 32.43344,29.2955088 31.8917867,29.2913435 C31.5334507,29.27676 29.2584533,29.1934288 28.6897067,29.1871781 C28.2688747,29.1913451 27.83552,29.1996784 27.3938667,29.2080117 C25.2438933,29.2496784 23.02304,29.2955104 21.0541333,28.7830091 C20.5937173,28.6621771 20.1499733,28.5330091 19.71872,28.4080117 C17.4645333,27.7538251 15.3374933,27.1351051 12.56032,28.0955104 C10.1853333,28.9100704 7.93738667,30.4851104 5.48938667,33.0476171 L1.00608,37.1163637 C0.143573333,37.8955104 0.0602666667,39.2476171 0.818581333,40.1246837 L6.939648,47.2494837 C7.36465067,47.7432331 7.96882133,47.9994571 8.57922133,47.9994571 L8.5792,48 Z M7.17712,34.8416 C7.1979536,34.8207664 7.22086987,34.7999333 7.24170133,34.7790987 C9.418768,32.4936587 11.3646347,31.110352 13.364368,30.422832 C15.4039413,29.718672 17.0060213,30.183248 19.0353013,30.772832 C19.4853013,30.90408 19.9498613,31.0374133 20.4332213,31.1645013 C22.7311413,31.7624213 25.2332213,31.7144747 27.443888,31.670752 C27.875136,31.6624192 28.2980747,31.6540853 28.7126347,31.6499189 C29.187632,31.6561691 31.1063947,31.7228363 31.8126347,31.7520043 C32.1688853,31.7603376 32.5188747,31.8749216 32.7751413,32.1332523 C33.020976,32.3790869 33.1543093,32.7019989 33.1543093,33.0436523 C33.1543093,33.7582123 32.5751627,34.3394923 31.8626293,34.3394923 L20.343696,34.3415755 C19.7728693,34.3415755 19.2749493,34.7353248 19.145776,35.2915488 C19.1166091,35.4186315 19.077024,35.6123808 19.077024,35.8623755 C19.077024,36.5415221 19.6291307,37.0873888 20.3082773,37.0873888 C20.606192,37.0873888 20.881184,36.9811381 21.0937173,36.8019701 L31.8606507,36.8019701 C33.9293973,36.8019701 35.610624,35.1165301 35.610624,33.0457035 C35.610624,32.4457035 35.4668747,31.8686368 35.2022933,31.3498635 L40.2147733,26.3394635 C40.8626667,25.6894368 41.87312,25.5957301 42.5126933,26.1227968 C42.871024,26.4186315 43.08144,26.8394901 43.1022933,27.3040235 C43.1231269,27.7644395 42.9522933,28.2144235 42.629376,28.5352768 L30.8000427,40.3667435 C30.5417067,40.6250795 30.1563093,40.7146581 29.8062827,40.6417408 L29.8062827,40.7771595 L29.7979493,40.7771595 L28.777096,40.7771595 L16.791496,40.7750763 C16.3164987,40.7750763 15.895656,40.7688261 15.5477627,40.6875776 C15.1894267,40.6042443 14.8123493,40.6854944 14.5206693,40.9084096 L8.61880267,45.4292629 L2.87480267,38.7439296 L7.17712,34.8416 Z" id="Shape"></path>
        </g>
    </g>
</svg>