<?xml version="1.0" encoding="UTF-8"?>
<svg width="48px" height="48px" viewBox="0 0 48 48" version="1.1" xmlns="http://www.w3.org/2000/svg" xmlns:xlink="http://www.w3.org/1999/xlink">
    <!-- Generator: Sketch 53.2 (72643) - https://sketchapp.com -->
    <title>cloud</title>
    <desc>Created with Sketch.</desc>
    <g id="cloud" stroke="none" stroke-width="1" fill="none" fill-rule="evenodd">
        <g id="np_cloud_1517252_000000" transform="translate(0.000000, 7.000000)" fill="#000000" fill-rule="nonzero">
            <path d="M44.2003404,16.3705532 C44.3499421,15.5627234 44.4257413,14.756834 44.4257413,13.9569702 C44.4257413,6.44905532 38.315954,0.339268085 30.8080391,0.339268085 C24.9596987,0.339268085 19.9110179,3.9995234 18.006337,9.33109787 C17.2164306,9.01593702 16.364737,8.85037787 15.4890434,8.85037787 C12.2816221,8.85037787 9.58657532,11.0804374 8.86861787,14.0685906 C3.95173277,14.8026332 0.169894468,19.0532885 0.169894468,24.1695268 C0.169894468,29.8023779 4.74970723,34.3822928 10.3826604,34.3822928 L37.6160221,34.3822928 C43.2488732,34.3822928 47.8287881,29.80248 47.8287881,24.1695268 C47.8307831,21.1396034 46.4923455,18.303314 44.2004477,16.3705481 L44.2003404,16.3705532 Z M37.6177021,30.9794043 L10.3822979,30.9794043 C6.62828936,30.9794043 3.57446809,27.9255319 3.57446809,24.1715745 C3.57446809,20.417566 6.62834043,17.3637447 10.3822979,17.3637447 C11.3217702,17.3637447 12.0837447,16.6017702 12.0837447,15.6622979 C12.0837447,13.7852936 13.6096851,12.2573617 15.4886809,12.2573617 C16.3822979,12.2573617 17.228017,12.6044374 17.8703489,13.236766 C18.3271302,13.6835745 18.9873702,13.839166 19.5937532,13.6396902 C20.1981447,13.4422162 20.6429617,12.9256136 20.7446809,12.2972732 C21.5564936,7.34050723 25.7892255,3.7440817 30.8078298,3.7440817 C36.4406809,3.7440817 41.0205957,8.32389447 41.0205957,13.9568477 C41.0205957,14.8304987 40.8989209,15.7281498 40.6555711,16.6237583 C40.4640817,17.3338519 40.7473277,18.0838774 41.3596902,18.4887626 C43.2805583,19.7593838 44.4255115,21.8816987 44.4255115,24.1696136 C44.4255115,27.9256136 41.3716391,30.979486 37.6176817,30.979486 L37.6177021,30.9794043 Z" id="Shape"></path>
        </g>
    </g>
</svg>