<?xml version="1.0" encoding="UTF-8"?>
<svg width="48px" height="48px" viewBox="0 0 48 48" version="1.1" xmlns="http://www.w3.org/2000/svg" xmlns:xlink="http://www.w3.org/1999/xlink">
    <!-- Generator: Sketch 53.2 (72643) - https://sketchapp.com -->
    <title>deploy</title>
    <desc>Created with Sketch.</desc>
    <g id="deploy" stroke="none" stroke-width="1" fill="none" fill-rule="evenodd">
        <g id="np_lightning_576637_000000" transform="translate(7.000000, 0.000000)" fill="#000000" fill-rule="nonzero">
            <path d="M5.88,48 C5.6043744,48 5.325024,47.9231232 5.077488,47.7674976 C4.466256,47.3812464 4.21872,46.6143936 4.486848,45.9431136 L11.846208,27.5437536 L1.788768,27.5437536 C1.288128,27.5437536 0.819408,27.2925024 0.54,26.8762656 C0.2606256,26.4600144 0.21,25.9293696 0.4031232,25.4681376 L10.6295232,0.9242976 C10.8638976,0.3636576 11.4113952,-8.64e-05 12.0170112,-8.64e-05 L28.3802112,-8.64e-05 C28.9239552,-8.64e-05 29.4264672,0.2961648 29.6927232,0.7724256 C29.9570976,1.2486768 29.9420976,1.8336576 29.6514734,2.2949376 L20.8597934,16.3632576 L32.4714734,16.3632576 C33.0677294,16.3632576 33.6077294,16.717632 33.8477294,17.2632576 C34.0839806,17.8107456 33.9789806,18.4463616 33.5702318,18.8851296 L6.97919184,47.5219296 C6.68669424,47.8369296 6.28544784,48.0000528 5.88042384,48.0000528 L5.88,48 Z M4.038768,24.54384 L14.062608,24.54384 C14.561376,24.54384 15.026352,24.7913424 15.30384,25.201968 C15.5832144,25.6125936 15.6394656,26.137584 15.4557168,26.600736 L10.2693168,39.570336 L29.0344368,19.361376 L18.1557168,19.361376 C17.6119728,19.361376 17.1094608,19.0651248 16.8432048,18.588864 C16.5788304,18.1126128 16.5938304,17.527632 16.8844546,17.066352 L25.6727746,2.999952 L13.0166146,2.999952 L4.038768,24.54384 Z" id="Shape"></path>
        </g>
    </g>
</svg>