<?xml version="1.0" encoding="UTF-8"?>
<svg width="178px" height="177px" viewBox="0 0 178 177" xmlns="http://www.w3.org/2000/svg" xmlns:xlink="http://www.w3.org/1999/xlink" version="1.1">
 <!-- Generated by Pixelmator Pro 1.5.5 -->
 <g id="XMLID_229_">
  <g id="XMLID_690_">
   <g id="XMLID_691_">
    <g id="group">
     <g id="XMLID_44_">
      <g id="XMLID_48_">
       <path id="XMLID_49_" d="M89 176.5 L89 142.3 C125.2 142.3 153.3 106.4 139.4 68.3 134.3 54.3 123 43 108.9 37.9 70.8 24.1 34.9 52.1 34.9 88.3 L0.8 88.3 C0.8 30.6 56.6 -14.4 117.1 4.5 143.5 12.8 164.6 33.8 172.8 60.2 191.7 120.7 146.7 176.5 89 176.5 Z" fill="#0080ff" fill-opacity="1" stroke="none"/>
      </g>
      <path id="XMLID_47_" d="M89.1 142.5 L55 142.5 55 108.4 89.1 108.4 Z" fill="#0080ff" fill-opacity="1" stroke="none"/>
      <path id="XMLID_46_" d="M55 168.6 L28.9 168.6 28.9 142.5 55 142.5 Z" fill="#0080ff" fill-opacity="1" stroke="none"/>
      <path id="XMLID_45_" d="M28.9 142.5 L7 142.5 7 120.6 28.9 120.6 Z" fill="#0080ff" fill-opacity="1" stroke="none"/>
     </g>
    </g>
   </g>
  </g>
 </g>
</svg>
