<?xml version="1.0" encoding="UTF-8"?>
<svg width="48px" height="48px" viewBox="0 0 48 48" version="1.1" xmlns="http://www.w3.org/2000/svg" xmlns:xlink="http://www.w3.org/1999/xlink">
    <!-- Generator: Sketch 53.2 (72643) - https://sketchapp.com -->
    <title>ssd</title>
    <desc>Created with Sketch.</desc>
    <g id="ssd" stroke="none" stroke-width="1" fill="none" fill-rule="evenodd">
        <g id="np_solid-state-drive_738954_000000" transform="translate(5.000000, 0.000000)" fill="#000000" fill-rule="nonzero">
            <path d="M32.8695652,0.0876521739 L4.608,0.0876521739 C2.2173913,0.0876521739 0.260869565,2.04417391 0.260869565,4.43478261 L0.260869565,43.5652174 C0.260869565,45.9558261 2.2173913,47.9123478 4.608,47.9123478 L32.8695652,47.9123478 C35.2601739,47.9123478 37.2166957,45.9558261 37.2166957,43.5652174 L37.2166957,4.43478261 C37.2166957,2.04417391 35.2601739,0.0876521739 32.8695652,0.0876521739 Z M11.1297391,45.7398261 L4.608,45.7398261 C3.40961739,45.7398261 2.4333913,44.7656348 2.4333913,43.5652174 L2.4333913,40.7853391 C3.0753913,41.1603391 3.81516522,41.3906609 4.608,41.3906609 L11.1297391,41.3906609 L11.1297391,45.7398261 Z M15.4789043,45.7398261 L13.3042957,45.7398261 L13.3042957,41.3926957 L15.4789043,41.3926957 L15.4789043,45.7398261 Z M19.8260348,45.7398261 L17.6514261,45.7398261 L17.6514261,41.3926957 L19.8260348,41.3926957 L19.8260348,45.7398261 Z M24.1731652,45.7398261 L21.9985565,45.7398261 L21.9985565,41.3926957 L24.1731652,41.3926957 L24.1731652,45.7398261 Z M35.0441217,43.5652174 C35.0441217,44.7656348 34.0678957,45.7398261 32.869513,45.7398261 L26.3477739,45.7398261 L26.3477739,41.3926957 L32.869513,41.3926957 C33.6622957,41.3926957 34.4021217,41.1623948 35.0441217,40.7853391 L35.0441217,43.5652174 Z M35.0441217,37.0434783 C35.0441217,38.2438957 34.0678957,39.218087 32.869513,39.218087 L4.60794783,39.218087 C3.40956522,39.218087 2.43333913,38.2438957 2.43333913,37.0434783 L2.43537757,4.43478261 C2.43537757,3.2364 3.41160365,2.26017391 4.60998626,2.26017391 L32.8715515,2.26017391 C34.0699341,2.26017391 35.0461602,3.2364 35.0461602,4.43478261 L35.0441217,37.0434783 Z" id="Shape"></path>
            <path d="M6.7826087,5.52104348 C6.7826087,6.97006957 4.608,6.97006957 4.608,5.52104348 C4.608,4.07201739 6.7826087,4.07201739 6.7826087,5.52104348" id="Path"></path>
            <path d="M32.8695652,5.52104348 C32.8695652,6.97006957 30.6949565,6.97006957 30.6949565,5.52104348 C30.6949565,4.07201739 32.8695652,4.07201739 32.8695652,5.52104348" id="Path"></path>
            <path d="M6.7826087,35.9572174 C6.7826087,37.4062435 4.608,37.4062435 4.608,35.9572174 C4.608,34.5081913 6.7826087,34.5081913 6.7826087,35.9572174" id="Path"></path>
            <path d="M32.8695652,35.9572174 C32.8695652,37.4062435 30.6949565,37.4062435 30.6949565,35.9572174 C30.6949565,34.5081913 32.8695652,34.5081913 32.8695652,35.9572174" id="Path"></path>
            <path d="M11.1297391,28.3471304 L26.3478261,28.3471304 L26.3478261,13.1311304 L11.1297391,13.1311304 L11.1297391,28.3471304 Z M13.3043478,15.3036522 L24.1732174,15.3036522 L24.1732174,26.1725217 L13.3043478,26.1745602 L13.3043478,15.3036522 Z" id="Shape"></path>
            <polygon id="Path" points="6.7826087 15.3036522 8.95721739 15.3036522 8.95721739 17.4782609 6.7826087 17.4782609"></polygon>
            <polygon id="Path" points="6.7826087 19.6528696 8.95721739 19.6528696 8.95721739 21.8274783 6.7826087 21.8274783"></polygon>
            <polygon id="Path" points="6.7826087 24 8.95721739 24 8.95721739 26.1746087 6.7826087 26.1746087"></polygon>
            <polygon id="Path" points="28.5224348 15.3036522 30.6970435 15.3036522 30.6970435 17.4782609 28.5224348 17.4782609"></polygon>
            <polygon id="Path" points="28.5224348 19.6528696 30.6970435 19.6528696 30.6970435 21.8274783 28.5224348 21.8274783"></polygon>
            <polygon id="Path" points="28.5224348 24 30.6970435 24 30.6970435 26.1746087 28.5224348 26.1746087"></polygon>
            <polygon id="Path" points="22.0006957 8.78191304 24.1753043 8.78191304 24.1753043 10.9565217 22.0006957 10.9565217"></polygon>
            <polygon id="Path" points="17.6514783 8.78191304 19.826087 8.78191304 19.826087 10.9565217 17.6514783 10.9565217"></polygon>
            <polygon id="Path" points="13.3043478 8.78191304 15.4789565 8.78191304 15.4789565 10.9565217 13.3043478 10.9565217"></polygon>
            <polygon id="Path" points="22.0006957 30.5217391 24.1753043 30.5217391 24.1753043 32.6963478 22.0006957 32.6963478"></polygon>
            <polygon id="Path" points="17.6514783 30.5217391 19.826087 30.5217391 19.826087 32.6963478 17.6514783 32.6963478"></polygon>
            <polygon id="Path" points="13.3043478 30.5217391 15.4789565 30.5217391 15.4789565 32.6963478 13.3043478 32.6963478"></polygon>
        </g>
    </g>
</svg>